G04 #@! TF.GenerationSoftware,KiCad,Pcbnew,8.0.4*
G04 #@! TF.CreationDate,2024-09-02T22:22:01-07:00*
G04 #@! TF.ProjectId,HDMI Breakout,48444d49-2042-4726-9561-6b6f75742e6b,rev?*
G04 #@! TF.SameCoordinates,Original*
G04 #@! TF.FileFunction,Copper,L1,Top*
G04 #@! TF.FilePolarity,Positive*
%FSLAX46Y46*%
G04 Gerber Fmt 4.6, Leading zero omitted, Abs format (unit mm)*
G04 Created by KiCad (PCBNEW 8.0.4) date 2024-09-02 22:22:01*
%MOMM*%
%LPD*%
G01*
G04 APERTURE LIST*
G04 Aperture macros list*
%AMRoundRect*
0 Rectangle with rounded corners*
0 $1 Rounding radius*
0 $2 $3 $4 $5 $6 $7 $8 $9 X,Y pos of 4 corners*
0 Add a 4 corners polygon primitive as box body*
4,1,4,$2,$3,$4,$5,$6,$7,$8,$9,$2,$3,0*
0 Add four circle primitives for the rounded corners*
1,1,$1+$1,$2,$3*
1,1,$1+$1,$4,$5*
1,1,$1+$1,$6,$7*
1,1,$1+$1,$8,$9*
0 Add four rect primitives between the rounded corners*
20,1,$1+$1,$2,$3,$4,$5,0*
20,1,$1+$1,$4,$5,$6,$7,0*
20,1,$1+$1,$6,$7,$8,$9,0*
20,1,$1+$1,$8,$9,$2,$3,0*%
G04 Aperture macros list end*
G04 #@! TA.AperFunction,SMDPad,CuDef*
%ADD10R,2.641600X0.330200*%
G04 #@! TD*
G04 #@! TA.AperFunction,ComponentPad*
%ADD11O,3.500000X1.350000*%
G04 #@! TD*
G04 #@! TA.AperFunction,ComponentPad*
%ADD12O,2.500000X1.350000*%
G04 #@! TD*
G04 #@! TA.AperFunction,SMDPad,CuDef*
%ADD13RoundRect,0.140000X0.170000X-0.140000X0.170000X0.140000X-0.170000X0.140000X-0.170000X-0.140000X0*%
G04 #@! TD*
G04 #@! TA.AperFunction,SMDPad,CuDef*
%ADD14RoundRect,0.150000X-0.500000X0.150000X-0.500000X-0.150000X0.500000X-0.150000X0.500000X0.150000X0*%
G04 #@! TD*
G04 #@! TA.AperFunction,SMDPad,CuDef*
%ADD15RoundRect,0.075000X-0.575000X0.075000X-0.575000X-0.075000X0.575000X-0.075000X0.575000X0.075000X0*%
G04 #@! TD*
G04 #@! TA.AperFunction,ComponentPad*
%ADD16O,2.100000X1.000000*%
G04 #@! TD*
G04 #@! TA.AperFunction,ComponentPad*
%ADD17O,1.600000X1.000000*%
G04 #@! TD*
G04 #@! TA.AperFunction,SMDPad,CuDef*
%ADD18RoundRect,0.135000X-0.185000X0.135000X-0.185000X-0.135000X0.185000X-0.135000X0.185000X0.135000X0*%
G04 #@! TD*
G04 #@! TA.AperFunction,SMDPad,CuDef*
%ADD19R,1.500000X0.900000*%
G04 #@! TD*
G04 #@! TA.AperFunction,SMDPad,CuDef*
%ADD20R,0.800000X0.800000*%
G04 #@! TD*
G04 #@! TA.AperFunction,SMDPad,CuDef*
%ADD21RoundRect,0.140000X-0.170000X0.140000X-0.170000X-0.140000X0.170000X-0.140000X0.170000X0.140000X0*%
G04 #@! TD*
G04 #@! TA.AperFunction,SMDPad,CuDef*
%ADD22RoundRect,0.135000X-0.135000X-0.185000X0.135000X-0.185000X0.135000X0.185000X-0.135000X0.185000X0*%
G04 #@! TD*
G04 #@! TA.AperFunction,SMDPad,CuDef*
%ADD23RoundRect,0.140000X-0.140000X-0.170000X0.140000X-0.170000X0.140000X0.170000X-0.140000X0.170000X0*%
G04 #@! TD*
G04 #@! TA.AperFunction,SMDPad,CuDef*
%ADD24RoundRect,0.135000X0.135000X0.185000X-0.135000X0.185000X-0.135000X-0.185000X0.135000X-0.185000X0*%
G04 #@! TD*
G04 #@! TA.AperFunction,SMDPad,CuDef*
%ADD25RoundRect,0.218750X0.256250X-0.218750X0.256250X0.218750X-0.256250X0.218750X-0.256250X-0.218750X0*%
G04 #@! TD*
G04 #@! TA.AperFunction,SMDPad,CuDef*
%ADD26RoundRect,0.250000X0.475000X-0.250000X0.475000X0.250000X-0.475000X0.250000X-0.475000X-0.250000X0*%
G04 #@! TD*
G04 #@! TA.AperFunction,ComponentPad*
%ADD27C,4.400000*%
G04 #@! TD*
G04 #@! TA.AperFunction,SMDPad,CuDef*
%ADD28RoundRect,0.250000X-0.250000X-0.475000X0.250000X-0.475000X0.250000X0.475000X-0.250000X0.475000X0*%
G04 #@! TD*
G04 #@! TA.AperFunction,SMDPad,CuDef*
%ADD29RoundRect,0.135000X0.185000X-0.135000X0.185000X0.135000X-0.185000X0.135000X-0.185000X-0.135000X0*%
G04 #@! TD*
G04 #@! TA.AperFunction,SMDPad,CuDef*
%ADD30RoundRect,0.100000X-0.225000X-0.100000X0.225000X-0.100000X0.225000X0.100000X-0.225000X0.100000X0*%
G04 #@! TD*
G04 #@! TA.AperFunction,SMDPad,CuDef*
%ADD31RoundRect,0.225000X-0.225000X-0.375000X0.225000X-0.375000X0.225000X0.375000X-0.225000X0.375000X0*%
G04 #@! TD*
G04 #@! TA.AperFunction,SMDPad,CuDef*
%ADD32RoundRect,0.225000X0.225000X0.375000X-0.225000X0.375000X-0.225000X-0.375000X0.225000X-0.375000X0*%
G04 #@! TD*
G04 #@! TA.AperFunction,SMDPad,CuDef*
%ADD33RoundRect,0.375000X-0.625000X-0.375000X0.625000X-0.375000X0.625000X0.375000X-0.625000X0.375000X0*%
G04 #@! TD*
G04 #@! TA.AperFunction,SMDPad,CuDef*
%ADD34RoundRect,0.500000X-0.500000X-1.400000X0.500000X-1.400000X0.500000X1.400000X-0.500000X1.400000X0*%
G04 #@! TD*
G04 #@! TA.AperFunction,SMDPad,CuDef*
%ADD35RoundRect,0.150000X0.150000X-0.587500X0.150000X0.587500X-0.150000X0.587500X-0.150000X-0.587500X0*%
G04 #@! TD*
G04 #@! TA.AperFunction,SMDPad,CuDef*
%ADD36RoundRect,0.375000X0.375000X-0.625000X0.375000X0.625000X-0.375000X0.625000X-0.375000X-0.625000X0*%
G04 #@! TD*
G04 #@! TA.AperFunction,SMDPad,CuDef*
%ADD37RoundRect,0.500000X1.400000X-0.500000X1.400000X0.500000X-1.400000X0.500000X-1.400000X-0.500000X0*%
G04 #@! TD*
G04 #@! TA.AperFunction,SMDPad,CuDef*
%ADD38RoundRect,0.150000X0.500000X-0.150000X0.500000X0.150000X-0.500000X0.150000X-0.500000X-0.150000X0*%
G04 #@! TD*
G04 #@! TA.AperFunction,SMDPad,CuDef*
%ADD39RoundRect,0.075000X0.575000X-0.075000X0.575000X0.075000X-0.575000X0.075000X-0.575000X-0.075000X0*%
G04 #@! TD*
G04 #@! TA.AperFunction,SMDPad,CuDef*
%ADD40R,2.300000X2.400000*%
G04 #@! TD*
G04 #@! TA.AperFunction,SMDPad,CuDef*
%ADD41RoundRect,0.140000X0.140000X0.170000X-0.140000X0.170000X-0.140000X-0.170000X0.140000X-0.170000X0*%
G04 #@! TD*
G04 #@! TA.AperFunction,SMDPad,CuDef*
%ADD42RoundRect,0.150000X-0.587500X-0.150000X0.587500X-0.150000X0.587500X0.150000X-0.587500X0.150000X0*%
G04 #@! TD*
G04 #@! TA.AperFunction,SMDPad,CuDef*
%ADD43RoundRect,0.250000X-0.475000X0.250000X-0.475000X-0.250000X0.475000X-0.250000X0.475000X0.250000X0*%
G04 #@! TD*
G04 #@! TA.AperFunction,SMDPad,CuDef*
%ADD44R,0.599999X0.240000*%
G04 #@! TD*
G04 #@! TA.AperFunction,SMDPad,CuDef*
%ADD45R,0.240000X0.599999*%
G04 #@! TD*
G04 #@! TA.AperFunction,SMDPad,CuDef*
%ADD46R,4.099999X4.099999*%
G04 #@! TD*
G04 #@! TA.AperFunction,SMDPad,CuDef*
%ADD47RoundRect,0.250000X0.250000X0.475000X-0.250000X0.475000X-0.250000X-0.475000X0.250000X-0.475000X0*%
G04 #@! TD*
G04 #@! TA.AperFunction,SMDPad,CuDef*
%ADD48RoundRect,0.150000X-0.150000X0.587500X-0.150000X-0.587500X0.150000X-0.587500X0.150000X0.587500X0*%
G04 #@! TD*
G04 #@! TA.AperFunction,SMDPad,CuDef*
%ADD49RoundRect,0.062500X-0.337500X-0.062500X0.337500X-0.062500X0.337500X0.062500X-0.337500X0.062500X0*%
G04 #@! TD*
G04 #@! TA.AperFunction,SMDPad,CuDef*
%ADD50RoundRect,0.062500X-0.062500X-0.337500X0.062500X-0.337500X0.062500X0.337500X-0.062500X0.337500X0*%
G04 #@! TD*
G04 #@! TA.AperFunction,HeatsinkPad*
%ADD51R,3.350000X3.350000*%
G04 #@! TD*
G04 #@! TA.AperFunction,ViaPad*
%ADD52C,0.500000*%
G04 #@! TD*
G04 #@! TA.AperFunction,ViaPad*
%ADD53C,0.800000*%
G04 #@! TD*
G04 #@! TA.AperFunction,Conductor*
%ADD54C,0.500000*%
G04 #@! TD*
G04 #@! TA.AperFunction,Conductor*
%ADD55C,0.200000*%
G04 #@! TD*
G04 #@! TA.AperFunction,Conductor*
%ADD56C,0.300000*%
G04 #@! TD*
G04 APERTURE END LIST*
D10*
X59624959Y-73762700D03*
X59624959Y-73262700D03*
X59624959Y-72762700D03*
X59624959Y-72262700D03*
X59624959Y-71762700D03*
X59624959Y-71262700D03*
X59624959Y-70762700D03*
X59624959Y-70262700D03*
X59624959Y-69762700D03*
X59624959Y-69262700D03*
X59624959Y-68762701D03*
X59624959Y-68262700D03*
X59624959Y-67762700D03*
X59624959Y-67262700D03*
X59624959Y-66762700D03*
X59624959Y-66262700D03*
X59624959Y-65762700D03*
X59624959Y-65262700D03*
X59624959Y-64762700D03*
D11*
X59624959Y-62012700D03*
D12*
X53624959Y-62012700D03*
D11*
X59624959Y-76512700D03*
D12*
X53624959Y-76512700D03*
D10*
X110415041Y-64717300D03*
X110415041Y-65217300D03*
X110415041Y-65717300D03*
X110415041Y-66217300D03*
X110415041Y-66717300D03*
X110415041Y-67217300D03*
X110415041Y-67717300D03*
X110415041Y-68217300D03*
X110415041Y-68717300D03*
X110415041Y-69217300D03*
X110415041Y-69717299D03*
X110415041Y-70217300D03*
X110415041Y-70717300D03*
X110415041Y-71217300D03*
X110415041Y-71717300D03*
X110415041Y-72217300D03*
X110415041Y-72717300D03*
X110415041Y-73217300D03*
X110415041Y-73717300D03*
D11*
X110415041Y-76467300D03*
D12*
X116415041Y-76467300D03*
D11*
X110415041Y-61967300D03*
D12*
X116415041Y-61967300D03*
D13*
X82258000Y-64196000D03*
X82258000Y-63236000D03*
D14*
X57920000Y-86050000D03*
X57920000Y-86850000D03*
D15*
X57920000Y-88000000D03*
X57920000Y-89000000D03*
X57920000Y-89500000D03*
X57920000Y-90500000D03*
D14*
X57920000Y-91650000D03*
X57920000Y-92450000D03*
X57920000Y-92450000D03*
X57920000Y-91650000D03*
D15*
X57920000Y-91000000D03*
X57920000Y-90000000D03*
X57920000Y-88500000D03*
X57920000Y-87500000D03*
D14*
X57920000Y-86850000D03*
X57920000Y-86050000D03*
D16*
X57280000Y-84930000D03*
D17*
X53100000Y-84930000D03*
D16*
X57280000Y-93570000D03*
D17*
X53100000Y-93570000D03*
D18*
X115790000Y-82180000D03*
X115790000Y-83200000D03*
D19*
X93550000Y-100670000D03*
X93550000Y-99400000D03*
X93550000Y-98130000D03*
X93550000Y-96860000D03*
X93550000Y-95590000D03*
X93550000Y-94320000D03*
X93550000Y-93050000D03*
X93550000Y-91780000D03*
X93550000Y-90510000D03*
X93550000Y-89240000D03*
X93550000Y-87970000D03*
X93550000Y-86700000D03*
X93550000Y-85430000D03*
X93550000Y-84160000D03*
X76050000Y-84160000D03*
X76050000Y-85430000D03*
X76050000Y-86700000D03*
X76050000Y-87970000D03*
X76050000Y-89240000D03*
X76050000Y-90510000D03*
X76050000Y-91780000D03*
X76050000Y-93050000D03*
X76050000Y-94320000D03*
X76050000Y-95590000D03*
X76050000Y-96860000D03*
X76050000Y-98130000D03*
X76050000Y-99400000D03*
X76050000Y-100670000D03*
D20*
X87555000Y-96200000D03*
X87555000Y-94950000D03*
X87555000Y-93700000D03*
X86305000Y-96200000D03*
X86305000Y-94950000D03*
X86305000Y-93700000D03*
X85055000Y-96200000D03*
X85055000Y-94950000D03*
X85055000Y-93700000D03*
D21*
X82692000Y-73976499D03*
X82692000Y-74936499D03*
D22*
X70410000Y-90580000D03*
X71430000Y-90580000D03*
D23*
X95880000Y-100460000D03*
X96840000Y-100460000D03*
D22*
X72930000Y-95580000D03*
X73950000Y-95580000D03*
D21*
X88300000Y-54840000D03*
X88300000Y-55800000D03*
D24*
X63427660Y-91670000D03*
X62407660Y-91670000D03*
D18*
X93100000Y-114800000D03*
X93100000Y-115820000D03*
D25*
X77000000Y-113200000D03*
X77000000Y-111625000D03*
D13*
X88788000Y-63791500D03*
X88788000Y-62831500D03*
D26*
X86400000Y-59350000D03*
X86400000Y-57450000D03*
D27*
X115000000Y-55000000D03*
D13*
X87772000Y-63791500D03*
X87772000Y-62831500D03*
D25*
X93100000Y-113200000D03*
X93100000Y-111625000D03*
D28*
X66850000Y-92100000D03*
X68750000Y-92100000D03*
D29*
X86248000Y-75040000D03*
X86248000Y-74020000D03*
D21*
X88280000Y-74048000D03*
X88280000Y-75008000D03*
D30*
X69930000Y-87880000D03*
X69930000Y-88530000D03*
X69930000Y-89180000D03*
X71830000Y-89180000D03*
X71830000Y-88530000D03*
X71830000Y-87880000D03*
D25*
X109200000Y-113200000D03*
X109200000Y-111625000D03*
D23*
X100720000Y-98100000D03*
X101680000Y-98100000D03*
D31*
X105830000Y-94810000D03*
X109130000Y-94810000D03*
D28*
X95850000Y-98600000D03*
X97750000Y-98600000D03*
X105850000Y-92300000D03*
X107750000Y-92300000D03*
D22*
X60407660Y-92770000D03*
X61427660Y-92770000D03*
D18*
X60900000Y-114800000D03*
X60900000Y-115820000D03*
D13*
X74000000Y-79980000D03*
X74000000Y-79020000D03*
D27*
X115000000Y-115000000D03*
D26*
X66300000Y-96850000D03*
X66300000Y-94950000D03*
D32*
X63250000Y-96410000D03*
X59950000Y-96410000D03*
D33*
X90800000Y-54800000D03*
X90800000Y-57100000D03*
X90800000Y-59400000D03*
D34*
X97100000Y-57100000D03*
D13*
X86020000Y-64196000D03*
X86020000Y-63236000D03*
D35*
X107100000Y-87300000D03*
X109000000Y-87300000D03*
X108050000Y-85425000D03*
D22*
X100690000Y-95940000D03*
X101710000Y-95940000D03*
D18*
X73480000Y-87480000D03*
X73480000Y-88500000D03*
D22*
X60417660Y-91670000D03*
X61437660Y-91670000D03*
D36*
X66400000Y-81950000D03*
X68700000Y-81950000D03*
X71000000Y-81950000D03*
D37*
X68700000Y-75650000D03*
D23*
X70665000Y-101970000D03*
X71625000Y-101970000D03*
D38*
X112080000Y-92450000D03*
X112080000Y-91650000D03*
D39*
X112080000Y-90500000D03*
X112080000Y-89500000D03*
X112080000Y-89000000D03*
X112080000Y-88000000D03*
D38*
X112080000Y-86850000D03*
X112080000Y-86050000D03*
X112080000Y-86050000D03*
X112080000Y-86850000D03*
D39*
X112080000Y-87500000D03*
X112080000Y-88500000D03*
X112080000Y-90000000D03*
X112080000Y-91000000D03*
D38*
X112080000Y-91650000D03*
X112080000Y-92450000D03*
D16*
X112720000Y-93570000D03*
D17*
X116900000Y-93570000D03*
D16*
X112720000Y-84930000D03*
D17*
X116900000Y-84930000D03*
D13*
X64400000Y-77560000D03*
X64400000Y-76600000D03*
D35*
X53510000Y-82707500D03*
X55410000Y-82707500D03*
X54460000Y-80832500D03*
D40*
X101850000Y-102000000D03*
X116150000Y-102000000D03*
X101850000Y-106500000D03*
X116150000Y-106500000D03*
D27*
X55000000Y-55000000D03*
D24*
X57920000Y-83200000D03*
X56900000Y-83200000D03*
D13*
X88300000Y-58560000D03*
X88300000Y-57600000D03*
D21*
X87264000Y-74048000D03*
X87264000Y-75008000D03*
D41*
X80152000Y-72846999D03*
X79192000Y-72846999D03*
D26*
X83020000Y-61364000D03*
X83020000Y-59464000D03*
D22*
X100690000Y-97000000D03*
X101710000Y-97000000D03*
D26*
X80226000Y-63904000D03*
X80226000Y-62004000D03*
D13*
X64400000Y-79580000D03*
X64400000Y-78620000D03*
D25*
X60900000Y-113200000D03*
X60900000Y-111625000D03*
D27*
X55000000Y-115000000D03*
D42*
X111902500Y-81170000D03*
X111902500Y-83070000D03*
X113777500Y-82120000D03*
D43*
X86400000Y-53650000D03*
X86400000Y-55550000D03*
D18*
X109200000Y-114800000D03*
X109200000Y-115820000D03*
D29*
X115050000Y-96180000D03*
X115050000Y-95160000D03*
D24*
X65427660Y-91670000D03*
X64407660Y-91670000D03*
D23*
X100700000Y-94870000D03*
X101660000Y-94870000D03*
D18*
X77000000Y-114800000D03*
X77000000Y-115820000D03*
D26*
X75600000Y-79650000D03*
X75600000Y-77750000D03*
D23*
X62467660Y-92770000D03*
X63427660Y-92770000D03*
D44*
X81599998Y-66209999D03*
X81599998Y-66709998D03*
X81599998Y-67210000D03*
X81599998Y-67709999D03*
X81599998Y-68210001D03*
X81599998Y-68709999D03*
X81599998Y-69209999D03*
X81599998Y-69710000D03*
X81599998Y-70209999D03*
X81599998Y-70710001D03*
X81599998Y-71210000D03*
X81599998Y-71709999D03*
D45*
X82249999Y-72360000D03*
X82749998Y-72360000D03*
X83250000Y-72360000D03*
X83749999Y-72360000D03*
X84250001Y-72360000D03*
X84749999Y-72360000D03*
X85249999Y-72360000D03*
X85750000Y-72360000D03*
X86249999Y-72360000D03*
X86750001Y-72360000D03*
X87250000Y-72360000D03*
X87749999Y-72360000D03*
D44*
X88400000Y-71709999D03*
X88400000Y-71210000D03*
X88400000Y-70710001D03*
X88400000Y-70209999D03*
X88400000Y-69710000D03*
X88400000Y-69209999D03*
X88400000Y-68709999D03*
X88400000Y-68210001D03*
X88400000Y-67709999D03*
X88400000Y-67210000D03*
X88400000Y-66709998D03*
X88400000Y-66209999D03*
D45*
X87749999Y-65559998D03*
X87250000Y-65559998D03*
X86750001Y-65559998D03*
X86249999Y-65559998D03*
X85750000Y-65559998D03*
X85249999Y-65559998D03*
X84749999Y-65559998D03*
X84250001Y-65559998D03*
X83749999Y-65559998D03*
X83250000Y-65559998D03*
X82749998Y-65559998D03*
X82249999Y-65559998D03*
D46*
X84999999Y-68959999D03*
D13*
X84700000Y-64196000D03*
X84700000Y-63236000D03*
D40*
X53850000Y-102000000D03*
X68150000Y-102000000D03*
X53850000Y-106500000D03*
X68150000Y-106500000D03*
D47*
X64150000Y-82300000D03*
X62250000Y-82300000D03*
D48*
X53640000Y-96075000D03*
X51740000Y-96075000D03*
X52690000Y-97950000D03*
D49*
X61950000Y-86050000D03*
X61950000Y-86550000D03*
X61950000Y-87050000D03*
X61950000Y-87550000D03*
X61950000Y-88050000D03*
X61950000Y-88550000D03*
X61950000Y-89050000D03*
D50*
X62900000Y-90000000D03*
X63400000Y-90000000D03*
X63900000Y-90000000D03*
X64400000Y-90000000D03*
X64900000Y-90000000D03*
X65400000Y-90000000D03*
X65900000Y-90000000D03*
D49*
X66850000Y-89050000D03*
X66850000Y-88550000D03*
X66850000Y-88050000D03*
X66850000Y-87550000D03*
X66850000Y-87050000D03*
X66850000Y-86550000D03*
X66850000Y-86050000D03*
D50*
X65900000Y-85100000D03*
X65400000Y-85100000D03*
X64900000Y-85100000D03*
X64400000Y-85100000D03*
X63900000Y-85100000D03*
X63400000Y-85100000D03*
X62900000Y-85100000D03*
D51*
X64400000Y-87550000D03*
D29*
X57190000Y-96470000D03*
X57190000Y-95450000D03*
D52*
X87490000Y-71720000D03*
X81510000Y-64180000D03*
D53*
X88290000Y-59580000D03*
D52*
X81910000Y-73980000D03*
X87440000Y-66340000D03*
X81680000Y-65560000D03*
X81760000Y-59460000D03*
X66550000Y-106480000D03*
X88390000Y-97020000D03*
D53*
X107730000Y-93740000D03*
D52*
X112310000Y-72750000D03*
X57630000Y-70270000D03*
X53510000Y-97950000D03*
D53*
X92190000Y-100680000D03*
X69010000Y-83660000D03*
D52*
X108050000Y-84250000D03*
X86220000Y-66330000D03*
X61050000Y-87020000D03*
X115040000Y-97060000D03*
X57590000Y-65750000D03*
X57920000Y-82390000D03*
X63430000Y-93610000D03*
X112440000Y-66760000D03*
X87650000Y-69210000D03*
X88420000Y-94960000D03*
X69950000Y-92950000D03*
X86300000Y-92800000D03*
X85250000Y-71560000D03*
X85010000Y-56500000D03*
D53*
X113770000Y-81300000D03*
D52*
X83820000Y-66350000D03*
X57630000Y-73250000D03*
X103580000Y-106480000D03*
D53*
X67570000Y-94950000D03*
X89110000Y-56740000D03*
D52*
X112450000Y-68250000D03*
X66000000Y-91110000D03*
X57630000Y-68750000D03*
X55450000Y-106500000D03*
X84120000Y-94960000D03*
X54460000Y-79650000D03*
D53*
X59710000Y-86070000D03*
D52*
X85390000Y-62730000D03*
D53*
X61010000Y-82290000D03*
D52*
X109200000Y-116590000D03*
X114470000Y-106510000D03*
X72410000Y-101990000D03*
X112450000Y-69450000D03*
X77280000Y-100680000D03*
X57630000Y-71750000D03*
X87280000Y-75960000D03*
X78430000Y-72830000D03*
X82692000Y-75870000D03*
X88390000Y-92870000D03*
D53*
X110980000Y-86060000D03*
D52*
X84260000Y-96980000D03*
X86300000Y-97070000D03*
D53*
X97960000Y-100080000D03*
D52*
X102460000Y-94860000D03*
X102410000Y-98100000D03*
D53*
X110570000Y-93130000D03*
X59180000Y-92770000D03*
D52*
X81550000Y-62480000D03*
X56340000Y-96470000D03*
X88280000Y-62200000D03*
X84190000Y-92840000D03*
X61220000Y-116680000D03*
X80840000Y-69210000D03*
X112440000Y-65260000D03*
X80150000Y-73760000D03*
X62410000Y-90900000D03*
X61090000Y-88790000D03*
X76980000Y-110460000D03*
D53*
X73540000Y-81950000D03*
D52*
X93080000Y-110490000D03*
X65730000Y-92950000D03*
X83790000Y-62740000D03*
X102540000Y-97120000D03*
D53*
X97010000Y-97300000D03*
X64760000Y-96840000D03*
D52*
X107750000Y-73250000D03*
D53*
X104740000Y-92300000D03*
X63140000Y-80430000D03*
X104750000Y-94810000D03*
D52*
X57620000Y-65040000D03*
D53*
X89160000Y-54840000D03*
D52*
X86250000Y-64870000D03*
X95180000Y-86730000D03*
X66200000Y-66250000D03*
X74850000Y-88200000D03*
X66210000Y-64750000D03*
X74680000Y-85000000D03*
X66190000Y-67260000D03*
X73180000Y-85020000D03*
X74850000Y-90000000D03*
X66770000Y-66760000D03*
X74830000Y-91090000D03*
X66720000Y-67750000D03*
X106140000Y-71440000D03*
X87290000Y-64890000D03*
X102160000Y-87980000D03*
X112320000Y-71240000D03*
X96310000Y-73750000D03*
X90390000Y-67710000D03*
X112750000Y-70740000D03*
X102090000Y-90980000D03*
X86850000Y-64410000D03*
X107230000Y-72250000D03*
X92090000Y-91370000D03*
X83090000Y-66340000D03*
X90510000Y-90365944D03*
X82360000Y-66330000D03*
X90550000Y-95580000D03*
X82619998Y-67680000D03*
X91580000Y-94320000D03*
X83749999Y-76640000D03*
X55530000Y-101990000D03*
X70650000Y-89180000D03*
X72120000Y-84150000D03*
X66550000Y-102010000D03*
X70660000Y-100400000D03*
X103640000Y-102010000D03*
X72670000Y-87880000D03*
X92230000Y-98130000D03*
X114470000Y-101970000D03*
X56010000Y-89000000D03*
X54695000Y-84310000D03*
X56750000Y-89000000D03*
X55445000Y-84310000D03*
X56750000Y-90000000D03*
X67240000Y-84660000D03*
X71960000Y-91110000D03*
X58100000Y-95390000D03*
X59540000Y-90460000D03*
X110940000Y-87500000D03*
X115330000Y-84040000D03*
X115030000Y-94360000D03*
X113170000Y-90190000D03*
D54*
X88470000Y-59400000D02*
X88290000Y-59580000D01*
X88060000Y-59350000D02*
X88290000Y-59580000D01*
D55*
X87250000Y-71960000D02*
X87490000Y-71720000D01*
X82692000Y-72417998D02*
X82749998Y-72360000D01*
X88788000Y-63791500D02*
X87772000Y-63791500D01*
D54*
X90800000Y-59400000D02*
X88470000Y-59400000D01*
D55*
X87250000Y-72360000D02*
X87250000Y-71960000D01*
X81680002Y-65559998D02*
X81680000Y-65560000D01*
X82249999Y-65559998D02*
X81680002Y-65559998D01*
X87749999Y-65559998D02*
X87749999Y-66030001D01*
X87749999Y-72360000D02*
X87749999Y-71979999D01*
X87749999Y-65559998D02*
X87749999Y-63813501D01*
D54*
X88300000Y-59570000D02*
X88290000Y-59580000D01*
D55*
X82692000Y-73976499D02*
X81913501Y-73976499D01*
X81913501Y-73976499D02*
X81910000Y-73980000D01*
X87250000Y-72360000D02*
X87250000Y-74034000D01*
X81510000Y-64180000D02*
X82242000Y-64180000D01*
X87749999Y-73517999D02*
X88280000Y-74048000D01*
X81234000Y-63904000D02*
X81510000Y-64180000D01*
X87749999Y-72360000D02*
X87749999Y-73517999D01*
X87749999Y-66030001D02*
X87440000Y-66340000D01*
X82249999Y-65559998D02*
X82249999Y-64204001D01*
X87264000Y-74048000D02*
X88280000Y-74048000D01*
D54*
X88300000Y-58560000D02*
X88300000Y-59570000D01*
D55*
X87749999Y-71979999D02*
X87490000Y-71720000D01*
X82692000Y-73976499D02*
X82692000Y-72417998D01*
X80226000Y-63904000D02*
X81234000Y-63904000D01*
D54*
X86400000Y-59350000D02*
X88060000Y-59350000D01*
X68700000Y-81950000D02*
X68700000Y-83350000D01*
X88300000Y-57600000D02*
X88300000Y-57550000D01*
D55*
X88400000Y-69209999D02*
X87650001Y-69209999D01*
X82692000Y-75870000D02*
X82692000Y-74936499D01*
X82258000Y-63188000D02*
X81550000Y-62480000D01*
X72390000Y-101970000D02*
X72410000Y-101990000D01*
D56*
X77270000Y-100670000D02*
X77280000Y-100680000D01*
D55*
X85960000Y-57450000D02*
X85010000Y-56500000D01*
X83020000Y-59464000D02*
X81764000Y-59464000D01*
D56*
X86305000Y-94950000D02*
X85055000Y-96200000D01*
D54*
X111250000Y-92450000D02*
X110570000Y-93130000D01*
X89470000Y-57100000D02*
X89110000Y-56740000D01*
D56*
X97580000Y-100460000D02*
X97960000Y-100080000D01*
X86305000Y-93700000D02*
X86305000Y-92805000D01*
D55*
X116150000Y-106500000D02*
X114480000Y-106500000D01*
D56*
X96840000Y-100460000D02*
X97580000Y-100460000D01*
D54*
X113777500Y-81307500D02*
X113770000Y-81300000D01*
D55*
X85250000Y-71480000D02*
X84999999Y-71229999D01*
D54*
X68700000Y-83350000D02*
X69010000Y-83660000D01*
D55*
X115050000Y-97050000D02*
X115040000Y-97060000D01*
D54*
X88300000Y-55800000D02*
X88300000Y-55930000D01*
D55*
X110450000Y-65250000D02*
X112430000Y-65250000D01*
X59560000Y-65750000D02*
X57590000Y-65750000D01*
X114480000Y-106500000D02*
X114470000Y-106510000D01*
X115410000Y-81300000D02*
X113770000Y-81300000D01*
X81074000Y-62004000D02*
X81550000Y-62480000D01*
X87264000Y-75944000D02*
X87280000Y-75960000D01*
D54*
X57920000Y-86050000D02*
X59690000Y-86050000D01*
D55*
X79192000Y-72846999D02*
X78446999Y-72846999D01*
D54*
X57920000Y-92450000D02*
X58860000Y-92450000D01*
D55*
X85960000Y-55550000D02*
X85010000Y-56500000D01*
X57650000Y-70250000D02*
X57630000Y-70270000D01*
D56*
X85040000Y-96200000D02*
X84260000Y-96980000D01*
D55*
X69100000Y-92100000D02*
X69950000Y-92950000D01*
X60900000Y-116360000D02*
X61220000Y-116680000D01*
D54*
X90800000Y-57100000D02*
X89470000Y-57100000D01*
D56*
X84130000Y-94950000D02*
X84120000Y-94960000D01*
X86305000Y-94950000D02*
X87555000Y-93700000D01*
D55*
X63900000Y-87050000D02*
X61950000Y-87050000D01*
X83820000Y-66350000D02*
X83820000Y-67780000D01*
D56*
X86305000Y-92805000D02*
X86300000Y-92800000D01*
D55*
X63427660Y-92770000D02*
X63427660Y-93607660D01*
X87772000Y-62708000D02*
X88280000Y-62200000D01*
X78446999Y-72846999D02*
X78430000Y-72830000D01*
X101680000Y-98100000D02*
X102410000Y-98100000D01*
X59560000Y-73250000D02*
X57630000Y-73250000D01*
D54*
X107750000Y-93720000D02*
X107730000Y-93740000D01*
D55*
X52690000Y-97950000D02*
X53510000Y-97950000D01*
X86220000Y-66330000D02*
X86220000Y-67739998D01*
X81599998Y-69209999D02*
X84749999Y-69209999D01*
D56*
X88410000Y-94950000D02*
X88420000Y-94960000D01*
D55*
X61950000Y-87050000D02*
X61080000Y-87050000D01*
D54*
X107750000Y-92300000D02*
X107750000Y-93720000D01*
D55*
X110450000Y-66750000D02*
X112430000Y-66750000D01*
X53850000Y-106500000D02*
X55450000Y-106500000D01*
X59560000Y-71750000D02*
X57630000Y-71750000D01*
X66570000Y-106500000D02*
X66550000Y-106480000D01*
X85249999Y-72360000D02*
X85249999Y-71560001D01*
X65440000Y-91670000D02*
X66000000Y-91110000D01*
X102450000Y-94870000D02*
X102460000Y-94860000D01*
X59560000Y-68750001D02*
X57630001Y-68750001D01*
D54*
X88300000Y-57550000D02*
X89110000Y-56740000D01*
D55*
X86360000Y-75040000D02*
X87280000Y-75960000D01*
D54*
X113777500Y-82120000D02*
X113777500Y-81307500D01*
D56*
X97750000Y-99870000D02*
X97960000Y-100080000D01*
D55*
X109200000Y-115820000D02*
X109200000Y-116590000D01*
D56*
X86305000Y-97065000D02*
X86300000Y-97070000D01*
D55*
X110450000Y-68250000D02*
X112450000Y-68250000D01*
D56*
X87570000Y-96200000D02*
X88390000Y-97020000D01*
D55*
X101850000Y-106500000D02*
X103560000Y-106500000D01*
D54*
X59690000Y-86050000D02*
X59710000Y-86070000D01*
D55*
X115790000Y-82180000D02*
X115790000Y-81680000D01*
D56*
X87560000Y-93700000D02*
X88390000Y-92870000D01*
D55*
X84999999Y-71229999D02*
X84999999Y-68959999D01*
X115050000Y-96180000D02*
X115050000Y-97050000D01*
X87264000Y-75008000D02*
X87264000Y-75944000D01*
D54*
X90800000Y-57100000D02*
X97100000Y-57100000D01*
X92200000Y-100670000D02*
X92190000Y-100680000D01*
D55*
X85249999Y-71560001D02*
X85250000Y-71560000D01*
X60900000Y-115820000D02*
X60900000Y-116360000D01*
X87650000Y-69210000D02*
X87399999Y-68959999D01*
D56*
X85050000Y-93700000D02*
X84190000Y-92840000D01*
D55*
X87650001Y-69209999D02*
X87650000Y-69210000D01*
D56*
X86305000Y-94950000D02*
X85055000Y-94950000D01*
D55*
X83749999Y-65559998D02*
X83749999Y-66279999D01*
X101660000Y-94870000D02*
X102450000Y-94870000D01*
D56*
X86305000Y-94950000D02*
X86305000Y-93700000D01*
D55*
X112430000Y-65250000D02*
X112440000Y-65260000D01*
X85250000Y-71560000D02*
X85250000Y-71480000D01*
D56*
X76050000Y-100670000D02*
X77270000Y-100670000D01*
D55*
X110450000Y-72750000D02*
X112310000Y-72750000D01*
D56*
X86305000Y-94950000D02*
X85055000Y-93700000D01*
D55*
X81599998Y-69209999D02*
X80840001Y-69209999D01*
X68150000Y-106500000D02*
X66570000Y-106500000D01*
X108050000Y-85425000D02*
X108050000Y-84250000D01*
X83749999Y-66279999D02*
X83820000Y-66350000D01*
X54460000Y-80832500D02*
X54460000Y-79650000D01*
D54*
X66300000Y-94950000D02*
X67570000Y-94950000D01*
D55*
X115790000Y-81680000D02*
X115410000Y-81300000D01*
X80840001Y-69209999D02*
X80840000Y-69210000D01*
X81764000Y-59464000D02*
X81760000Y-59460000D01*
X57920000Y-83200000D02*
X57920000Y-82390000D01*
D54*
X61020000Y-82300000D02*
X61010000Y-82290000D01*
X59180000Y-92770000D02*
X60407660Y-92770000D01*
D55*
X85896000Y-63236000D02*
X85390000Y-62730000D01*
D54*
X112080000Y-92450000D02*
X111250000Y-92450000D01*
D56*
X86305000Y-94950000D02*
X86305000Y-96200000D01*
X86305000Y-94950000D02*
X87555000Y-96200000D01*
X97750000Y-98600000D02*
X97750000Y-99870000D01*
D55*
X57190000Y-96470000D02*
X56340000Y-96470000D01*
D54*
X93550000Y-100670000D02*
X92200000Y-100670000D01*
X64400000Y-78620000D02*
X65250000Y-78620000D01*
D55*
X63427660Y-93607660D02*
X63430000Y-93610000D01*
D54*
X58860000Y-92450000D02*
X59180000Y-92770000D01*
X112080000Y-86050000D02*
X110990000Y-86050000D01*
D55*
X112430000Y-66750000D02*
X112440000Y-66760000D01*
X85750000Y-65860000D02*
X86220000Y-66330000D01*
D54*
X88300000Y-55930000D02*
X89110000Y-56740000D01*
D56*
X86305000Y-96200000D02*
X86305000Y-97065000D01*
D55*
X87399999Y-68959999D02*
X84999999Y-68959999D01*
X80226000Y-62004000D02*
X81074000Y-62004000D01*
D54*
X62250000Y-82300000D02*
X61020000Y-82300000D01*
D55*
X110450000Y-69749999D02*
X112150001Y-69749999D01*
X71625000Y-101970000D02*
X72390000Y-101970000D01*
X59560000Y-70250000D02*
X57650000Y-70250000D01*
D56*
X86305000Y-94950000D02*
X87555000Y-94950000D01*
D55*
X84884000Y-63236000D02*
X85390000Y-62730000D01*
X88788000Y-62708000D02*
X88280000Y-62200000D01*
D56*
X85055000Y-94950000D02*
X84130000Y-94950000D01*
D55*
X61080000Y-87050000D02*
X61050000Y-87020000D01*
X88232000Y-75008000D02*
X87280000Y-75960000D01*
X57630001Y-68750001D02*
X57630000Y-68750000D01*
D56*
X87555000Y-94950000D02*
X88410000Y-94950000D01*
D55*
X85750000Y-65559998D02*
X85750000Y-65860000D01*
X112150001Y-69749999D02*
X112450000Y-69450000D01*
X103560000Y-106500000D02*
X103580000Y-106480000D01*
X110990000Y-86050000D02*
G75*
G03*
X110980000Y-86060000I0J-10000D01*
G01*
D54*
X95050000Y-99630000D02*
X95880000Y-100460000D01*
D55*
X61350000Y-89050000D02*
X61090000Y-88790000D01*
X77000000Y-111625000D02*
X77000000Y-110480000D01*
X80152000Y-73758000D02*
X80150000Y-73760000D01*
X66580000Y-92100000D02*
X65730000Y-92950000D01*
X84749999Y-65559998D02*
X84749999Y-64245999D01*
X61950000Y-89050000D02*
X61350000Y-89050000D01*
D54*
X95050000Y-99400000D02*
X95050000Y-99630000D01*
X95050000Y-99400000D02*
X95850000Y-98600000D01*
D55*
X81793001Y-72846999D02*
X82280000Y-72360000D01*
X83790000Y-63286000D02*
X83790000Y-62740000D01*
X62407660Y-91670000D02*
X62407660Y-90902340D01*
X61950000Y-88550000D02*
X61330000Y-88550000D01*
X82249999Y-70860003D02*
X82099997Y-70710001D01*
D54*
X74000000Y-81490000D02*
X73540000Y-81950000D01*
D55*
X93100000Y-110510000D02*
X93080000Y-110490000D01*
X62407660Y-90902340D02*
X62410000Y-90900000D01*
D54*
X75270000Y-79980000D02*
X75600000Y-79650000D01*
D55*
X61330000Y-88550000D02*
X61090000Y-88790000D01*
X80152000Y-72846999D02*
X81793001Y-72846999D01*
D54*
X93550000Y-99400000D02*
X95050000Y-99400000D01*
D55*
X80152000Y-72846999D02*
X80152000Y-73758000D01*
X82249999Y-72360000D02*
X82249999Y-70860003D01*
D54*
X71000000Y-81950000D02*
X73540000Y-81950000D01*
D55*
X82280000Y-72360000D02*
X82249999Y-72360000D01*
X93100000Y-111625000D02*
X93100000Y-110510000D01*
X83020000Y-61364000D02*
X83020000Y-61970000D01*
D54*
X74000000Y-79980000D02*
X74000000Y-81490000D01*
D55*
X82099997Y-70710001D02*
X81599998Y-70710001D01*
D54*
X74000000Y-79980000D02*
X75270000Y-79980000D01*
D55*
X77000000Y-110480000D02*
X76980000Y-110460000D01*
D54*
X95850000Y-98460000D02*
X97010000Y-97300000D01*
D55*
X84700000Y-64196000D02*
X83790000Y-63286000D01*
X101710000Y-97000000D02*
X102420000Y-97000000D01*
X83020000Y-61970000D02*
X83790000Y-62740000D01*
X102420000Y-97000000D02*
X102540000Y-97120000D01*
D54*
X64770000Y-96850000D02*
X64760000Y-96840000D01*
X66300000Y-96850000D02*
X64770000Y-96850000D01*
X105850000Y-92300000D02*
X104740000Y-92300000D01*
X64150000Y-79830000D02*
X64400000Y-79580000D01*
X63140000Y-78510000D02*
X63140000Y-80430000D01*
X105830000Y-94810000D02*
X104750000Y-94810000D01*
D55*
X110450000Y-73250000D02*
X107750000Y-73250000D01*
X86400000Y-53650000D02*
X87590000Y-54840000D01*
D54*
X63250000Y-96410000D02*
X64330000Y-96410000D01*
X66400000Y-81950000D02*
X64500000Y-81950000D01*
X64330000Y-96410000D02*
X64760000Y-96840000D01*
X64500000Y-81950000D02*
X64150000Y-82300000D01*
D55*
X87590000Y-54840000D02*
X88300000Y-54840000D01*
X59560000Y-65250000D02*
X57830000Y-65250000D01*
X57830000Y-65250000D02*
X57620000Y-65040000D01*
D54*
X64150000Y-80430000D02*
X64150000Y-79830000D01*
X88300000Y-54840000D02*
X90760000Y-54840000D01*
X64400000Y-77560000D02*
X64090000Y-77560000D01*
X64090000Y-77560000D02*
X63140000Y-78510000D01*
X64150000Y-82300000D02*
X64150000Y-80430000D01*
X64150000Y-80430000D02*
X63140000Y-80430000D01*
D55*
X93550000Y-86700000D02*
X95150000Y-86700000D01*
X85249999Y-64960001D02*
X85249999Y-65559998D01*
X86014000Y-64196000D02*
X85249999Y-64960001D01*
X86250000Y-64870000D02*
X86250000Y-64426000D01*
X86250000Y-64426000D02*
X86020000Y-64196000D01*
X95150000Y-86700000D02*
X95180000Y-86730000D01*
X61816201Y-68975000D02*
X69543200Y-68975000D01*
X81124998Y-67184999D02*
X81149999Y-67210000D01*
X69543200Y-68975000D02*
X71333201Y-67184999D01*
X59560000Y-69250000D02*
X61541201Y-69250000D01*
X81149999Y-67210000D02*
X81599998Y-67210000D01*
X71333201Y-67184999D02*
X81124998Y-67184999D01*
X61541201Y-69250000D02*
X61816201Y-68975000D01*
X75660000Y-89240000D02*
X74850000Y-88430000D01*
X66200000Y-66250000D02*
X59560000Y-66250000D01*
X74850000Y-88430000D02*
X74850000Y-88200000D01*
X74680000Y-85720000D02*
X74680000Y-85000000D01*
X66210000Y-64750000D02*
X59560000Y-64750000D01*
X75660000Y-86700000D02*
X74680000Y-85720000D01*
X71493200Y-68685000D02*
X81125000Y-68685000D01*
X81125000Y-68685000D02*
X81149999Y-68709999D01*
X81149999Y-68709999D02*
X81599998Y-68709999D01*
X59560000Y-70750000D02*
X61541201Y-70750000D01*
X61816201Y-70475000D02*
X69703200Y-70475000D01*
X69703200Y-70475000D02*
X71493200Y-68685000D01*
X61541201Y-70750000D02*
X61816201Y-70475000D01*
X61541201Y-73750000D02*
X61816201Y-73475000D01*
X70523200Y-73475000D02*
X72313201Y-71684999D01*
X72313201Y-71684999D02*
X81124999Y-71684999D01*
X61816201Y-73475000D02*
X70523200Y-73475000D01*
X81149999Y-71709999D02*
X81599998Y-71709999D01*
X81124999Y-71684999D02*
X81149999Y-71709999D01*
X59560000Y-73750000D02*
X61541201Y-73750000D01*
X73180000Y-85020000D02*
X73180000Y-86310000D01*
X61440000Y-67260000D02*
X61430000Y-67250000D01*
X61430000Y-67250000D02*
X59560000Y-67250000D01*
X73180000Y-86310000D02*
X74590000Y-87720000D01*
X66190000Y-67260000D02*
X61440000Y-67260000D01*
X74590000Y-87720000D02*
X75800000Y-87720000D01*
X76050000Y-90510000D02*
X75360000Y-90510000D01*
X59560000Y-66750000D02*
X66760000Y-66750000D01*
X66760000Y-66750000D02*
X66770000Y-66760000D01*
X75360000Y-90510000D02*
X74850000Y-90000000D01*
X61816201Y-73025000D02*
X70336800Y-73025000D01*
X59560000Y-72750000D02*
X61541201Y-72750000D01*
X81124999Y-71235000D02*
X81149999Y-71210000D01*
X72126800Y-71235000D02*
X81124999Y-71235000D01*
X61541201Y-72750000D02*
X61816201Y-73025000D01*
X70336800Y-73025000D02*
X72126800Y-71235000D01*
X81149999Y-71210000D02*
X81599998Y-71210000D01*
X75520000Y-91780000D02*
X74830000Y-91090000D01*
X66720000Y-67750000D02*
X59560000Y-67750000D01*
X61541201Y-68250000D02*
X61816201Y-68525000D01*
X69356800Y-68525000D02*
X71146801Y-66734999D01*
X81149999Y-66709998D02*
X81599998Y-66709998D01*
X71146801Y-66734999D02*
X81124998Y-66734999D01*
X61816201Y-68525000D02*
X69356800Y-68525000D01*
X81124998Y-66734999D02*
X81149999Y-66709998D01*
X59560000Y-68250000D02*
X61541201Y-68250000D01*
X81149999Y-69710000D02*
X81599998Y-69710000D01*
X81124999Y-69735000D02*
X81149999Y-69710000D01*
X61816201Y-71525000D02*
X69836800Y-71525000D01*
X61541201Y-71250000D02*
X61816201Y-71525000D01*
X71626800Y-69735000D02*
X81124999Y-69735000D01*
X69836800Y-71525000D02*
X71626800Y-69735000D01*
X59560000Y-71250000D02*
X61541201Y-71250000D01*
X81124999Y-70184999D02*
X81149999Y-70209999D01*
X81149999Y-70209999D02*
X81599998Y-70209999D01*
X70023200Y-71975000D02*
X71813201Y-70184999D01*
X61541201Y-72250000D02*
X61816201Y-71975000D01*
X59560000Y-72250000D02*
X61541201Y-72250000D01*
X71813201Y-70184999D02*
X81124999Y-70184999D01*
X61816201Y-71975000D02*
X70023200Y-71975000D01*
X69516800Y-70025000D02*
X71306800Y-68235000D01*
X61816201Y-70025000D02*
X69516800Y-70025000D01*
X81125000Y-68235000D02*
X81149999Y-68210001D01*
X59560000Y-69750000D02*
X61541201Y-69750000D01*
X71306800Y-68235000D02*
X81125000Y-68235000D01*
X81149999Y-68210001D02*
X81599998Y-68210001D01*
X61541201Y-69750000D02*
X61816201Y-70025000D01*
X110450000Y-71750000D02*
X106450000Y-71750000D01*
X87290000Y-64890000D02*
X87290000Y-65519998D01*
X106450000Y-71750000D02*
X106140000Y-71440000D01*
X87290000Y-65519998D02*
X87250000Y-65559998D01*
X102150000Y-87970000D02*
X102160000Y-87980000D01*
X93550000Y-87970000D02*
X102150000Y-87970000D01*
X112320000Y-71240000D02*
X110460000Y-71240000D01*
X97773200Y-66975000D02*
X108193799Y-66975000D01*
X108193799Y-66975000D02*
X108468799Y-67250000D01*
X88874998Y-68685000D02*
X96063200Y-68685000D01*
X88400000Y-68709999D02*
X88849999Y-68709999D01*
X88849999Y-68709999D02*
X88874998Y-68685000D01*
X108468799Y-67250000D02*
X110450000Y-67250000D01*
X96063200Y-68685000D02*
X97773200Y-66975000D01*
X88400000Y-67210000D02*
X88849999Y-67210000D01*
X95503201Y-67184999D02*
X97213200Y-65475000D01*
X88875000Y-67184999D02*
X95503201Y-67184999D01*
X88849999Y-67210000D02*
X88875000Y-67184999D01*
X108193799Y-65475000D02*
X108468799Y-65750000D01*
X97213200Y-65475000D02*
X108193799Y-65475000D01*
X108468799Y-65750000D02*
X110450000Y-65750000D01*
X88400000Y-67709999D02*
X90389999Y-67709999D01*
X110450000Y-73750000D02*
X96310000Y-73750000D01*
X90389999Y-67709999D02*
X90390000Y-67710000D01*
X88874998Y-68235000D02*
X95876800Y-68235000D01*
X97586800Y-66525000D02*
X108193799Y-66525000D01*
X88849999Y-68210001D02*
X88874998Y-68235000D01*
X108468799Y-66250000D02*
X110450000Y-66250000D01*
X108193799Y-66525000D02*
X108468799Y-66250000D01*
X95876800Y-68235000D02*
X97586800Y-66525000D01*
X88400000Y-68210001D02*
X88849999Y-68210001D01*
X97026800Y-65025000D02*
X108193799Y-65025000D01*
X88875000Y-66734999D02*
X95316801Y-66734999D01*
X88400000Y-66709998D02*
X88849999Y-66709998D01*
X88849999Y-66709998D02*
X88875000Y-66734999D01*
X95316801Y-66734999D02*
X97026800Y-65025000D01*
X108193799Y-65025000D02*
X108468799Y-64750000D01*
X108468799Y-64750000D02*
X110450000Y-64750000D01*
X108193799Y-69525000D02*
X108468799Y-69250000D01*
X99106800Y-69525000D02*
X108193799Y-69525000D01*
X97396800Y-71235000D02*
X99106800Y-69525000D01*
X88849999Y-71210000D02*
X88874999Y-71235000D01*
X108468799Y-69250000D02*
X110450000Y-69250000D01*
X88874999Y-71235000D02*
X97396800Y-71235000D01*
X88400000Y-71210000D02*
X88849999Y-71210000D01*
X99730000Y-90980000D02*
X102090000Y-90980000D01*
X112750000Y-70740000D02*
X112740000Y-70750000D01*
X93850000Y-96860000D02*
X99730000Y-90980000D01*
X112740000Y-70750000D02*
X110450000Y-70750000D01*
X88400000Y-71709999D02*
X88849999Y-71709999D01*
X108468799Y-70250000D02*
X110450000Y-70250000D01*
X99293200Y-69975000D02*
X108193799Y-69975000D01*
X97583201Y-71684999D02*
X99293200Y-69975000D01*
X88849999Y-71709999D02*
X88874999Y-71684999D01*
X108193799Y-69975000D02*
X108468799Y-70250000D01*
X88874999Y-71684999D02*
X97583201Y-71684999D01*
X108193799Y-68025000D02*
X108468799Y-67750000D01*
X88849999Y-69710000D02*
X88874999Y-69735000D01*
X88400000Y-69710000D02*
X88849999Y-69710000D01*
X88874999Y-69735000D02*
X96626800Y-69735000D01*
X96626800Y-69735000D02*
X98336800Y-68025000D01*
X108468799Y-67750000D02*
X110450000Y-67750000D01*
X98336800Y-68025000D02*
X108193799Y-68025000D01*
X110450000Y-72250000D02*
X107230000Y-72250000D01*
X86750001Y-64509999D02*
X86850000Y-64410000D01*
X86750001Y-65559998D02*
X86750001Y-64509999D01*
X108193799Y-68475000D02*
X108468799Y-68750000D01*
X96813201Y-70184999D02*
X98523200Y-68475000D01*
X108468799Y-68750000D02*
X110450000Y-68750000D01*
X98523200Y-68475000D02*
X108193799Y-68475000D01*
X88849999Y-70209999D02*
X88874999Y-70184999D01*
X88400000Y-70209999D02*
X88849999Y-70209999D01*
X88874999Y-70184999D02*
X96813201Y-70184999D01*
X86750001Y-73159999D02*
X86750001Y-72360000D01*
X86248000Y-73662000D02*
X86750001Y-73159999D01*
X86248000Y-74020000D02*
X86248000Y-73662000D01*
X83090000Y-65719998D02*
X83250000Y-65559998D01*
X93550000Y-91780000D02*
X92500000Y-91780000D01*
X83090000Y-66340000D02*
X83090000Y-65719998D01*
X92500000Y-91780000D02*
X92090000Y-91370000D01*
X90654056Y-90510000D02*
X93550000Y-90510000D01*
X90510000Y-90365944D02*
X90654056Y-90510000D01*
X82749998Y-65559998D02*
X82749998Y-65940002D01*
X82749998Y-65940002D02*
X82360000Y-66330000D01*
X90830000Y-95580000D02*
X90840000Y-95590000D01*
X82619998Y-67680000D02*
X82589999Y-67709999D01*
X82589999Y-67709999D02*
X81599998Y-67709999D01*
X90550000Y-95580000D02*
X90830000Y-95580000D01*
X90840000Y-95590000D02*
X93550000Y-95590000D01*
X92260000Y-93050000D02*
X93550000Y-93050000D01*
X83250000Y-84040000D02*
X92260000Y-93050000D01*
X83250000Y-72360000D02*
X83250000Y-84040000D01*
X83749999Y-76640000D02*
X83749999Y-72360000D01*
X91580000Y-94320000D02*
X93550000Y-94320000D01*
X72130000Y-84160000D02*
X72120000Y-84150000D01*
X70665000Y-101970000D02*
X68180000Y-101970000D01*
X70660000Y-100400000D02*
X70660000Y-101965000D01*
X76050000Y-84160000D02*
X72130000Y-84160000D01*
X55520000Y-102000000D02*
X55530000Y-101990000D01*
X69930000Y-89180000D02*
X70650000Y-89180000D01*
X53850000Y-102000000D02*
X55520000Y-102000000D01*
X66550000Y-102010000D02*
X68140000Y-102010000D01*
X98080000Y-96680000D02*
X98400000Y-97000000D01*
X71830000Y-87880000D02*
X72670000Y-87880000D01*
X96030000Y-96680000D02*
X98080000Y-96680000D01*
X101850000Y-102000000D02*
X103630000Y-102000000D01*
X94580000Y-98130000D02*
X96030000Y-96680000D01*
X98400000Y-97000000D02*
X100690000Y-97000000D01*
X100690000Y-96960000D02*
X101710000Y-95940000D01*
X101850000Y-102000000D02*
X100730000Y-100880000D01*
X114470000Y-101970000D02*
X116120000Y-101970000D01*
X92230000Y-98130000D02*
X93550000Y-98130000D01*
X100720000Y-99480000D02*
X100720000Y-98100000D01*
X103630000Y-102000000D02*
X103640000Y-102010000D01*
X100730000Y-100880000D02*
X100730000Y-99490000D01*
X100720000Y-98100000D02*
X100720000Y-97030000D01*
X100730000Y-99490000D02*
X100720000Y-99480000D01*
X93550000Y-98130000D02*
X94580000Y-98130000D01*
D54*
X55430000Y-88690000D02*
X55430000Y-90590000D01*
X57920000Y-91650000D02*
X57244594Y-91650000D01*
X57270001Y-86850000D02*
X56870001Y-87250000D01*
D55*
X60900000Y-111625000D02*
X60900000Y-99660000D01*
D54*
X53640000Y-96075000D02*
X51740000Y-96075000D01*
X57920000Y-91650000D02*
X60397660Y-91650000D01*
X58800000Y-97560000D02*
X58800000Y-97580000D01*
X56974594Y-91380000D02*
X56220000Y-91380000D01*
X55120000Y-94660000D02*
X55055000Y-94660000D01*
X56220000Y-91380000D02*
X55120000Y-92480000D01*
X59950000Y-96410000D02*
X58800000Y-97560000D01*
X57244594Y-91650000D02*
X56974594Y-91380000D01*
X55145000Y-97580000D02*
X53640000Y-96075000D01*
X58800000Y-97580000D02*
X55145000Y-97580000D01*
X56870000Y-87250000D02*
X55430000Y-88690000D01*
X57920000Y-86850000D02*
X57270001Y-86850000D01*
X55430000Y-90590000D02*
X56220000Y-91380000D01*
X56870001Y-87250000D02*
X56870000Y-87250000D01*
X55055000Y-94660000D02*
X53640000Y-96075000D01*
X55120000Y-92480000D02*
X55120000Y-94660000D01*
D55*
X60900000Y-99660000D02*
X58800000Y-97560000D01*
X100690000Y-95940000D02*
X100690000Y-94880000D01*
D54*
X110430000Y-91650000D02*
X109130000Y-92950000D01*
X113870000Y-87964594D02*
X113870000Y-86910000D01*
D55*
X109130000Y-94810000D02*
X109130000Y-111555000D01*
D54*
X112080000Y-91650000D02*
X110430000Y-91650000D01*
X113580000Y-83070000D02*
X111902500Y-83070000D01*
X113870000Y-90509999D02*
X112729999Y-91650000D01*
X112080000Y-86850000D02*
X112755406Y-86850000D01*
X113870000Y-87964594D02*
X113870000Y-90509999D01*
X114630000Y-86150000D02*
X114630000Y-84120000D01*
X112729999Y-91650000D02*
X112080000Y-91650000D01*
X111902500Y-83070000D02*
X111902500Y-81170000D01*
X109130000Y-92950000D02*
X109130000Y-94810000D01*
X112755406Y-86850000D02*
X113870000Y-87964594D01*
X114630000Y-84120000D02*
X113580000Y-83070000D01*
X113870000Y-86910000D02*
X114630000Y-86150000D01*
D55*
X54695000Y-84196397D02*
X54234999Y-83736396D01*
X60383200Y-88025000D02*
X61324999Y-88025000D01*
X58933200Y-89475000D02*
X60383200Y-88025000D01*
X54234999Y-83736396D02*
X54234999Y-83432499D01*
X54234999Y-83432499D02*
X53510000Y-82707500D01*
X58445000Y-89475000D02*
X58933200Y-89475000D01*
X57920000Y-89500000D02*
X56490000Y-89500000D01*
X57920000Y-88500000D02*
X56490000Y-88500000D01*
X61324999Y-88025000D02*
X61349999Y-88050000D01*
X61349999Y-88050000D02*
X61950000Y-88050000D01*
X54695000Y-84310000D02*
X54695000Y-84196397D01*
X56490000Y-88500000D02*
G75*
G03*
X55990000Y-89000000I0J-500000D01*
G01*
X56490000Y-89500000D02*
G75*
G02*
X56010000Y-89020000I-14100J465900D01*
G01*
X56010000Y-89000000D02*
G75*
G03*
X55990000Y-89000000I-10000J-202965D01*
G01*
X56010000Y-89020000D02*
G75*
G02*
X56010000Y-89000000I529500J10000D01*
G01*
X58746800Y-89025000D02*
X60196800Y-87575000D01*
X61324999Y-87575000D02*
X61349999Y-87550000D01*
X60196800Y-87575000D02*
X61324999Y-87575000D01*
X54685001Y-83432499D02*
X55410000Y-82707500D01*
X57920000Y-89000000D02*
X56750000Y-89000000D01*
X61349999Y-87550000D02*
X61950000Y-87550000D01*
X57920000Y-90000000D02*
X56750000Y-90000000D01*
X55445000Y-84310000D02*
X54685001Y-83550001D01*
X54685001Y-83550001D02*
X54685001Y-83432499D01*
X58445000Y-89025000D02*
X58746800Y-89025000D01*
X112080000Y-90000000D02*
X111350000Y-90000000D01*
X112080000Y-89000000D02*
X111370000Y-89000000D01*
X103020000Y-87300000D02*
X107100000Y-87300000D01*
X110868337Y-89600000D02*
X109400000Y-89600000D01*
X93550000Y-85430000D02*
X101150000Y-85430000D01*
X111370000Y-89000000D02*
G75*
G03*
X110860000Y-89510000I0J-510000D01*
G01*
X101150000Y-85430000D02*
G75*
G02*
X102270000Y-86550000I0J-1120000D01*
G01*
X111350000Y-90000000D02*
G75*
G02*
X110860000Y-89510000I0J490000D01*
G01*
X109400000Y-89600000D02*
G75*
G02*
X107100000Y-87300000I0J2300000D01*
G01*
X102270000Y-86550000D02*
G75*
G03*
X103020000Y-87300000I750000J0D01*
G01*
X104020000Y-86180000D02*
X107200000Y-86180000D01*
X112080000Y-88500000D02*
X110200000Y-88500000D01*
X108320000Y-87300000D02*
X109000000Y-87300000D01*
X112080000Y-88500000D02*
X112650000Y-88500000D01*
X93550000Y-84160000D02*
X102000000Y-84160000D01*
X112650000Y-89500000D02*
X112080000Y-89500000D01*
X103030000Y-85190000D02*
G75*
G03*
X104020000Y-86180000I990000J0D01*
G01*
X107800000Y-86780000D02*
G75*
G03*
X108320000Y-87300000I520000J0D01*
G01*
X110200000Y-88500000D02*
G75*
G02*
X109000000Y-87300000I0J1200000D01*
G01*
X113150000Y-89000000D02*
G75*
G02*
X112650000Y-89500000I-500000J0D01*
G01*
X107200000Y-86180000D02*
G75*
G02*
X107800000Y-86780000I0J-600000D01*
G01*
X112650000Y-88500000D02*
G75*
G02*
X113150000Y-89000000I0J-500000D01*
G01*
X102000000Y-84160000D02*
G75*
G02*
X103030000Y-85190000I0J-1030000D01*
G01*
X71830000Y-88530000D02*
X73450000Y-88530000D01*
X70410000Y-90520000D02*
X71200000Y-89730000D01*
X71200000Y-89730000D02*
X71200000Y-88800000D01*
X70930000Y-88530000D02*
X69930000Y-88530000D01*
X71200000Y-88800000D02*
X70930000Y-88530000D01*
X67010000Y-84430000D02*
X65325322Y-84430000D01*
X65325322Y-84430000D02*
X64900000Y-84855322D01*
X71430000Y-90580000D02*
X71960000Y-91110000D01*
X71830000Y-90180000D02*
X71430000Y-90580000D01*
X67240000Y-84660000D02*
X67010000Y-84430000D01*
X71830000Y-89180000D02*
X71830000Y-90180000D01*
X73400000Y-87400000D02*
X70410000Y-87400000D01*
X63670000Y-83590000D02*
X62900000Y-84360000D01*
X67810000Y-83590000D02*
X63670000Y-83590000D01*
X70410000Y-87400000D02*
X69930000Y-87880000D01*
X62900000Y-84360000D02*
X62900000Y-85100000D01*
X69985000Y-85765000D02*
X67810000Y-83590000D01*
X69985000Y-87825000D02*
X69985000Y-85765000D01*
X63427660Y-90827660D02*
X63427660Y-91670000D01*
X63400000Y-90800000D02*
X63427660Y-90827660D01*
X63400000Y-90000000D02*
X63400000Y-90800000D01*
X73950000Y-95580000D02*
X76040000Y-95580000D01*
X72930000Y-94545980D02*
X68600000Y-90215980D01*
X64990000Y-84150000D02*
X64400000Y-84740000D01*
X64400000Y-84740000D02*
X64400000Y-85100000D01*
X67578040Y-84150000D02*
X64990000Y-84150000D01*
X68600000Y-90215980D02*
X68600000Y-85171960D01*
X72930000Y-95580000D02*
X72930000Y-94545980D01*
X68600000Y-85171960D02*
X67578040Y-84150000D01*
X61427660Y-92770000D02*
X61427660Y-91680000D01*
X61437660Y-90852340D02*
X61437660Y-91670000D01*
X62900000Y-90000000D02*
X62290000Y-90000000D01*
X61427660Y-92770000D02*
X62467660Y-92770000D01*
X62290000Y-90000000D02*
X61437660Y-90852340D01*
X64400000Y-90000000D02*
X64400000Y-91662340D01*
X57920000Y-91000000D02*
X59000000Y-91000000D01*
X58100000Y-95390000D02*
X57250000Y-95390000D01*
X59000000Y-91000000D02*
X59540000Y-90460000D01*
X58610000Y-84130000D02*
X58610000Y-84110000D01*
X58644834Y-88000000D02*
X60490000Y-86154834D01*
X57810000Y-84110000D02*
X56900000Y-83200000D01*
X60490000Y-86154834D02*
X60490000Y-86010000D01*
X60490000Y-86010000D02*
X58610000Y-84130000D01*
X58610000Y-84110000D02*
X57810000Y-84110000D01*
X57920000Y-88000000D02*
X58644834Y-88000000D01*
X115330000Y-83660000D02*
X115790000Y-83200000D01*
X112080000Y-87500000D02*
X110940000Y-87500000D01*
X115330000Y-84040000D02*
X115330000Y-83660000D01*
X115030000Y-94360000D02*
X115030000Y-95140000D01*
X112860000Y-90500000D02*
X113170000Y-90190000D01*
X112080000Y-90500000D02*
X112860000Y-90500000D01*
X63900000Y-84370000D02*
X64400000Y-83870000D01*
X68880000Y-90100000D02*
X73450000Y-94670000D01*
X74460780Y-96860000D02*
X76050000Y-96860000D01*
X68880000Y-85055980D02*
X68880000Y-90100000D01*
X67694020Y-83870000D02*
X68880000Y-85055980D01*
X63900000Y-85100000D02*
X63900000Y-84370000D01*
X73450000Y-95849220D02*
X74460780Y-96860000D01*
X73450000Y-94670000D02*
X73450000Y-95849220D01*
X64400000Y-83870000D02*
X67694020Y-83870000D01*
X93100000Y-113200000D02*
X93100000Y-114800000D01*
X60900000Y-113200000D02*
X60900000Y-114800000D01*
X77000000Y-113200000D02*
X77000000Y-114800000D01*
X109200000Y-113200000D02*
X109200000Y-114800000D01*
X94380000Y-102230000D02*
X93830000Y-101680000D01*
X87110000Y-101680000D02*
X82130000Y-96700000D01*
X94380000Y-114540000D02*
X94380000Y-102230000D01*
X82130000Y-96700000D02*
X82130000Y-87090000D01*
X82130000Y-87090000D02*
X80470000Y-85430000D01*
X80470000Y-85430000D02*
X76050000Y-85430000D01*
X93100000Y-115820000D02*
X94380000Y-114540000D01*
X93830000Y-101680000D02*
X87110000Y-101680000D01*
X75560000Y-101570000D02*
X74780000Y-102350000D01*
X78710000Y-96690000D02*
X78710000Y-100360000D01*
X74780000Y-113600000D02*
X77000000Y-115820000D01*
X78710000Y-100360000D02*
X77500000Y-101570000D01*
X76340000Y-94320000D02*
X78710000Y-96690000D01*
X77500000Y-101570000D02*
X75560000Y-101570000D01*
X74780000Y-102350000D02*
X74780000Y-113600000D01*
G04 #@! TA.AperFunction,Conductor*
G36*
X102962929Y-51889744D02*
G01*
X103008740Y-51942500D01*
X103020000Y-51994131D01*
X103020000Y-60976131D01*
X103000315Y-61043170D01*
X102947511Y-61088925D01*
X102896132Y-61100131D01*
X93743997Y-61109868D01*
X93676937Y-61090255D01*
X93631125Y-61037499D01*
X93619865Y-60986005D01*
X93617234Y-58558000D01*
X95600000Y-58558000D01*
X95610608Y-58677325D01*
X95610609Y-58677328D01*
X95666557Y-58872861D01*
X95760721Y-59053129D01*
X95889246Y-59210753D01*
X96046870Y-59339278D01*
X96227138Y-59433442D01*
X96422671Y-59489390D01*
X96422674Y-59489391D01*
X96541999Y-59499999D01*
X96542002Y-59500000D01*
X96850000Y-59500000D01*
X97350000Y-59500000D01*
X97657998Y-59500000D01*
X97658000Y-59499999D01*
X97777325Y-59489391D01*
X97777328Y-59489390D01*
X97972861Y-59433442D01*
X98153129Y-59339278D01*
X98310753Y-59210753D01*
X98439278Y-59053129D01*
X98533442Y-58872861D01*
X98589390Y-58677328D01*
X98589391Y-58677325D01*
X98599999Y-58558000D01*
X98600000Y-58557998D01*
X98600000Y-57350000D01*
X97350000Y-57350000D01*
X97350000Y-59500000D01*
X96850000Y-59500000D01*
X96850000Y-57350000D01*
X95600000Y-57350000D01*
X95600000Y-58558000D01*
X93617234Y-58558000D01*
X93614075Y-55641999D01*
X95600000Y-55641999D01*
X95600000Y-56850000D01*
X96850000Y-56850000D01*
X97350000Y-56850000D01*
X98600000Y-56850000D01*
X98600000Y-55642002D01*
X98599999Y-55641999D01*
X98589391Y-55522674D01*
X98589390Y-55522671D01*
X98533442Y-55327138D01*
X98439278Y-55146870D01*
X98310753Y-54989246D01*
X98153129Y-54860721D01*
X97972861Y-54766557D01*
X97777328Y-54710609D01*
X97777325Y-54710608D01*
X97658000Y-54700000D01*
X97350000Y-54700000D01*
X97350000Y-56850000D01*
X96850000Y-56850000D01*
X96850000Y-54700000D01*
X96541999Y-54700000D01*
X96422674Y-54710608D01*
X96422671Y-54710609D01*
X96227138Y-54766557D01*
X96046870Y-54860721D01*
X95889246Y-54989246D01*
X95760721Y-55146870D01*
X95666557Y-55327138D01*
X95610609Y-55522671D01*
X95610608Y-55522674D01*
X95600000Y-55641999D01*
X93614075Y-55641999D01*
X93610134Y-52004000D01*
X93629746Y-51936942D01*
X93682500Y-51891130D01*
X93734000Y-51879868D01*
X102895871Y-51870131D01*
X102962929Y-51889744D01*
G37*
G04 #@! TD.AperFunction*
G04 #@! TA.AperFunction,Conductor*
G36*
X79452895Y-74409764D02*
G01*
X79498723Y-74462504D01*
X79510000Y-74514172D01*
X79510000Y-81006336D01*
X79490315Y-81073375D01*
X79437511Y-81119130D01*
X79386338Y-81130336D01*
X74874838Y-81142629D01*
X74807745Y-81123127D01*
X74761846Y-81070448D01*
X74750500Y-81018629D01*
X74750500Y-80854500D01*
X74770185Y-80787461D01*
X74822989Y-80741706D01*
X74874500Y-80730500D01*
X75343920Y-80730500D01*
X75441462Y-80711096D01*
X75488913Y-80701658D01*
X75589633Y-80659937D01*
X75637085Y-80650499D01*
X76125002Y-80650499D01*
X76125008Y-80650499D01*
X76227797Y-80639999D01*
X76394334Y-80584814D01*
X76543656Y-80492712D01*
X76667712Y-80368656D01*
X76759814Y-80219334D01*
X76814999Y-80052797D01*
X76825500Y-79950009D01*
X76825499Y-79349992D01*
X76824376Y-79339002D01*
X76814999Y-79247203D01*
X76814998Y-79247200D01*
X76793925Y-79183606D01*
X76759814Y-79080666D01*
X76667712Y-78931344D01*
X76543656Y-78807288D01*
X76540342Y-78805243D01*
X76538546Y-78803248D01*
X76537989Y-78802807D01*
X76538064Y-78802711D01*
X76493618Y-78753297D01*
X76482397Y-78684334D01*
X76510240Y-78620252D01*
X76540348Y-78594165D01*
X76543342Y-78592318D01*
X76667315Y-78468345D01*
X76759356Y-78319124D01*
X76759358Y-78319119D01*
X76814505Y-78152697D01*
X76814506Y-78152690D01*
X76824999Y-78049986D01*
X76825000Y-78049973D01*
X76825000Y-78000000D01*
X74375001Y-78000000D01*
X74375001Y-78049989D01*
X74380600Y-78104794D01*
X74367830Y-78173487D01*
X74319949Y-78224371D01*
X74252159Y-78241291D01*
X74250049Y-78241164D01*
X74250000Y-78241210D01*
X74250000Y-79075500D01*
X74230315Y-79142539D01*
X74177511Y-79188294D01*
X74126000Y-79199500D01*
X73765302Y-79199500D01*
X73729008Y-79202356D01*
X73729002Y-79202357D01*
X73573610Y-79247503D01*
X73573605Y-79247506D01*
X73564766Y-79252732D01*
X73501648Y-79270000D01*
X73195496Y-79270000D01*
X73237968Y-79416194D01*
X73249911Y-79436389D01*
X73267092Y-79504113D01*
X73249911Y-79562628D01*
X73237506Y-79583604D01*
X73237504Y-79583609D01*
X73192357Y-79739002D01*
X73192356Y-79739008D01*
X73189500Y-79775302D01*
X73189500Y-80184697D01*
X73192356Y-80220991D01*
X73192357Y-80220997D01*
X73237504Y-80376390D01*
X73239301Y-80380543D01*
X73249500Y-80429791D01*
X73249500Y-81013091D01*
X73229815Y-81080130D01*
X73177011Y-81125885D01*
X73175935Y-81126371D01*
X73152650Y-81136738D01*
X73102553Y-81147458D01*
X72330813Y-81149561D01*
X72263720Y-81130059D01*
X72217821Y-81077380D01*
X72210142Y-81055492D01*
X72201641Y-81021307D01*
X72197566Y-81013091D01*
X72182912Y-80983543D01*
X72170000Y-80928448D01*
X72170000Y-80400000D01*
X65214000Y-80400000D01*
X65146961Y-80380315D01*
X65101206Y-80327511D01*
X65090000Y-80276000D01*
X65090000Y-80132897D01*
X65107267Y-80069778D01*
X65162494Y-79976395D01*
X65207643Y-79820993D01*
X65210500Y-79784690D01*
X65210500Y-79375310D01*
X65207643Y-79339007D01*
X65204992Y-79329883D01*
X65162495Y-79183609D01*
X65162494Y-79183606D01*
X65162494Y-79183605D01*
X65132909Y-79133580D01*
X65107268Y-79090222D01*
X65090000Y-79027101D01*
X65090000Y-78770000D01*
X73195496Y-78770000D01*
X73750000Y-78770000D01*
X73750000Y-78241210D01*
X73749999Y-78241209D01*
X73729087Y-78242854D01*
X73729081Y-78242855D01*
X73573809Y-78287966D01*
X73573804Y-78287968D01*
X73434625Y-78370278D01*
X73434616Y-78370285D01*
X73320285Y-78484616D01*
X73320278Y-78484625D01*
X73237968Y-78623804D01*
X73195496Y-78770000D01*
X65090000Y-78770000D01*
X65090000Y-78112897D01*
X65107267Y-78049778D01*
X65162494Y-77956395D01*
X65207643Y-77800993D01*
X65210500Y-77764690D01*
X65210500Y-77450013D01*
X74375000Y-77450013D01*
X74375000Y-77500000D01*
X75350000Y-77500000D01*
X75850000Y-77500000D01*
X76824999Y-77500000D01*
X76824999Y-77450028D01*
X76824998Y-77450013D01*
X76814505Y-77347302D01*
X76759358Y-77180880D01*
X76759356Y-77180875D01*
X76667315Y-77031654D01*
X76543345Y-76907684D01*
X76394124Y-76815643D01*
X76394119Y-76815641D01*
X76227697Y-76760494D01*
X76227690Y-76760493D01*
X76124986Y-76750000D01*
X75850000Y-76750000D01*
X75850000Y-77500000D01*
X75350000Y-77500000D01*
X75350000Y-76750000D01*
X75075029Y-76750000D01*
X75075012Y-76750001D01*
X74972302Y-76760494D01*
X74805880Y-76815641D01*
X74805875Y-76815643D01*
X74656654Y-76907684D01*
X74532684Y-77031654D01*
X74440643Y-77180875D01*
X74440641Y-77180880D01*
X74385494Y-77347302D01*
X74385493Y-77347309D01*
X74375000Y-77450013D01*
X65210500Y-77450013D01*
X65210500Y-77355310D01*
X65207643Y-77319007D01*
X65207642Y-77319002D01*
X65162496Y-77163610D01*
X65162494Y-77163608D01*
X65162494Y-77163605D01*
X65150088Y-77142627D01*
X65132906Y-77074907D01*
X65150091Y-77016384D01*
X65162032Y-76996194D01*
X65204504Y-76850000D01*
X65090000Y-76850000D01*
X65090000Y-76600000D01*
X64150000Y-76600000D01*
X64150000Y-76350000D01*
X64650000Y-76350000D01*
X65204504Y-76350000D01*
X65163250Y-76208000D01*
X66300000Y-76208000D01*
X66310608Y-76327325D01*
X66310609Y-76327328D01*
X66366557Y-76522861D01*
X66460721Y-76703129D01*
X66589246Y-76860753D01*
X66746870Y-76989278D01*
X66927138Y-77083442D01*
X67122671Y-77139390D01*
X67122674Y-77139391D01*
X67241999Y-77149999D01*
X67242002Y-77150000D01*
X68450000Y-77150000D01*
X68950000Y-77150000D01*
X70157998Y-77150000D01*
X70158000Y-77149999D01*
X70277325Y-77139391D01*
X70277328Y-77139390D01*
X70472861Y-77083442D01*
X70653129Y-76989278D01*
X70810753Y-76860753D01*
X70939278Y-76703129D01*
X71033442Y-76522861D01*
X71089390Y-76327328D01*
X71089391Y-76327325D01*
X71099999Y-76208000D01*
X71100000Y-76207998D01*
X71100000Y-75900000D01*
X68950000Y-75900000D01*
X68950000Y-77150000D01*
X68450000Y-77150000D01*
X68450000Y-75900000D01*
X66300000Y-75900000D01*
X66300000Y-76208000D01*
X65163250Y-76208000D01*
X65162031Y-76203804D01*
X65079721Y-76064625D01*
X65079714Y-76064616D01*
X64965383Y-75950285D01*
X64965374Y-75950278D01*
X64826195Y-75867968D01*
X64826190Y-75867966D01*
X64670918Y-75822855D01*
X64670912Y-75822854D01*
X64650000Y-75821209D01*
X64650000Y-76350000D01*
X64150000Y-76350000D01*
X64150000Y-75821210D01*
X64149999Y-75821209D01*
X64129087Y-75822854D01*
X64129081Y-75822855D01*
X63973809Y-75867966D01*
X63973804Y-75867968D01*
X63834625Y-75950278D01*
X63834616Y-75950285D01*
X63720285Y-76064616D01*
X63720278Y-76064625D01*
X63637969Y-76203803D01*
X63592854Y-76359089D01*
X63592854Y-76359092D01*
X63590000Y-76395355D01*
X63590000Y-76476000D01*
X63570315Y-76543039D01*
X63517511Y-76588794D01*
X63466000Y-76600000D01*
X62490000Y-76600000D01*
X62490000Y-78095224D01*
X62476625Y-78148618D01*
X62477247Y-78148876D01*
X62475511Y-78153066D01*
X62475358Y-78153678D01*
X62474913Y-78154509D01*
X62418343Y-78291082D01*
X62418340Y-78291091D01*
X62414541Y-78310193D01*
X62382155Y-78372104D01*
X62321438Y-78406677D01*
X62292924Y-78410000D01*
X50624500Y-78410000D01*
X50557461Y-78390315D01*
X50511706Y-78337511D01*
X50500500Y-78286000D01*
X50500500Y-76262699D01*
X51899909Y-76262699D01*
X51899909Y-76262700D01*
X52919629Y-76262700D01*
X52899884Y-76282445D01*
X52850515Y-76367955D01*
X52824959Y-76463330D01*
X52824959Y-76562070D01*
X52850515Y-76657445D01*
X52899884Y-76742955D01*
X52919629Y-76762700D01*
X51899909Y-76762700D01*
X51903891Y-76787844D01*
X51961041Y-76963737D01*
X51961043Y-76963743D01*
X52045011Y-77128537D01*
X52153713Y-77278154D01*
X52153717Y-77278159D01*
X52284499Y-77408941D01*
X52284504Y-77408945D01*
X52434121Y-77517647D01*
X52598915Y-77601615D01*
X52598918Y-77601616D01*
X52774811Y-77658766D01*
X52957486Y-77687700D01*
X53374959Y-77687700D01*
X53374959Y-76887700D01*
X53874959Y-76887700D01*
X53874959Y-77687700D01*
X54292432Y-77687700D01*
X54475106Y-77658766D01*
X54650999Y-77601616D01*
X54651002Y-77601615D01*
X54815796Y-77517647D01*
X54965413Y-77408945D01*
X54965418Y-77408941D01*
X55096200Y-77278159D01*
X55096204Y-77278154D01*
X55204906Y-77128537D01*
X55288874Y-76963743D01*
X55288876Y-76963737D01*
X55346026Y-76787844D01*
X55350008Y-76762700D01*
X54330289Y-76762700D01*
X54350034Y-76742955D01*
X54399403Y-76657445D01*
X54424959Y-76562070D01*
X54424959Y-76463330D01*
X54399403Y-76367955D01*
X54350034Y-76282445D01*
X54330289Y-76262700D01*
X55350009Y-76262700D01*
X55350008Y-76262699D01*
X57399909Y-76262699D01*
X57399909Y-76262700D01*
X58469629Y-76262700D01*
X58449884Y-76282445D01*
X58400515Y-76367955D01*
X58374959Y-76463330D01*
X58374959Y-76562070D01*
X58400515Y-76657445D01*
X58449884Y-76742955D01*
X58469629Y-76762700D01*
X57399909Y-76762700D01*
X57403891Y-76787844D01*
X57461041Y-76963737D01*
X57461043Y-76963743D01*
X57545011Y-77128537D01*
X57653713Y-77278154D01*
X57653717Y-77278159D01*
X57784499Y-77408941D01*
X57784504Y-77408945D01*
X57934121Y-77517647D01*
X58098915Y-77601615D01*
X58098918Y-77601616D01*
X58274811Y-77658766D01*
X58457486Y-77687700D01*
X59374959Y-77687700D01*
X59374959Y-76887700D01*
X59874959Y-76887700D01*
X59874959Y-77687700D01*
X60792432Y-77687700D01*
X60975106Y-77658766D01*
X61150999Y-77601616D01*
X61151002Y-77601615D01*
X61315796Y-77517647D01*
X61465413Y-77408945D01*
X61465418Y-77408941D01*
X61596200Y-77278159D01*
X61596204Y-77278154D01*
X61704906Y-77128537D01*
X61788874Y-76963743D01*
X61788876Y-76963737D01*
X61846026Y-76787844D01*
X61850008Y-76762700D01*
X60780289Y-76762700D01*
X60800034Y-76742955D01*
X60849403Y-76657445D01*
X60874959Y-76562070D01*
X60874959Y-76463330D01*
X60849403Y-76367955D01*
X60800034Y-76282445D01*
X60780289Y-76262700D01*
X61850009Y-76262700D01*
X61850008Y-76262699D01*
X61846026Y-76237555D01*
X61788876Y-76061662D01*
X61788874Y-76061656D01*
X61704906Y-75896862D01*
X61596204Y-75747245D01*
X61596200Y-75747240D01*
X61465418Y-75616458D01*
X61465413Y-75616454D01*
X61315796Y-75507752D01*
X61151002Y-75423784D01*
X61150999Y-75423783D01*
X60975106Y-75366633D01*
X60792432Y-75337700D01*
X59874959Y-75337700D01*
X59874959Y-76137700D01*
X59374959Y-76137700D01*
X59374959Y-75337700D01*
X58457486Y-75337700D01*
X58274811Y-75366633D01*
X58098918Y-75423783D01*
X58098915Y-75423784D01*
X57934121Y-75507752D01*
X57784504Y-75616454D01*
X57784499Y-75616458D01*
X57653717Y-75747240D01*
X57653713Y-75747245D01*
X57545011Y-75896862D01*
X57461043Y-76061656D01*
X57461041Y-76061662D01*
X57403891Y-76237555D01*
X57399909Y-76262699D01*
X55350008Y-76262699D01*
X55346026Y-76237555D01*
X55288876Y-76061662D01*
X55288874Y-76061656D01*
X55204906Y-75896862D01*
X55096204Y-75747245D01*
X55096200Y-75747240D01*
X54965418Y-75616458D01*
X54965413Y-75616454D01*
X54815796Y-75507752D01*
X54651002Y-75423784D01*
X54650999Y-75423783D01*
X54475106Y-75366633D01*
X54292432Y-75337700D01*
X53874959Y-75337700D01*
X53874959Y-76137700D01*
X53374959Y-76137700D01*
X53374959Y-75337700D01*
X52957486Y-75337700D01*
X52774811Y-75366633D01*
X52598918Y-75423783D01*
X52598915Y-75423784D01*
X52434121Y-75507752D01*
X52284504Y-75616454D01*
X52284499Y-75616458D01*
X52153717Y-75747240D01*
X52153713Y-75747245D01*
X52045011Y-75896862D01*
X51961043Y-76061656D01*
X51961041Y-76061662D01*
X51903891Y-76237555D01*
X51899909Y-76262699D01*
X50500500Y-76262699D01*
X50500500Y-74534000D01*
X50520185Y-74466961D01*
X50572989Y-74421206D01*
X50624500Y-74410000D01*
X58142422Y-74410000D01*
X58185757Y-74417819D01*
X58196670Y-74421889D01*
X58196671Y-74421889D01*
X58196676Y-74421891D01*
X58256286Y-74428300D01*
X60993631Y-74428299D01*
X61053242Y-74421891D01*
X61064160Y-74417819D01*
X61064163Y-74417818D01*
X61107496Y-74410000D01*
X65089914Y-74410000D01*
X65090000Y-74410000D01*
X66354635Y-74408245D01*
X66421699Y-74427837D01*
X66467527Y-74480577D01*
X66477566Y-74549722D01*
X66462124Y-74590505D01*
X66463634Y-74591294D01*
X66366557Y-74777138D01*
X66310609Y-74972671D01*
X66310608Y-74972674D01*
X66300000Y-75091999D01*
X66300000Y-75400000D01*
X71100000Y-75400000D01*
X71100000Y-75092002D01*
X71099999Y-75091999D01*
X71089391Y-74972674D01*
X71089390Y-74972671D01*
X71033442Y-74777138D01*
X70939280Y-74596872D01*
X70937378Y-74593987D01*
X70936818Y-74592160D01*
X70936366Y-74591294D01*
X70936527Y-74591209D01*
X70916919Y-74527179D01*
X70935827Y-74459917D01*
X70988098Y-74413554D01*
X71040732Y-74401746D01*
X79385828Y-74390172D01*
X79452895Y-74409764D01*
G37*
G04 #@! TD.AperFunction*
M02*
