M48
; DRILL file {KiCad 8.0.4} date 2024-09-02T22:21:58-0700
; FORMAT={-:-/ absolute / metric / decimal}
; #@! TF.CreationDate,2024-09-02T22:21:58-07:00
; #@! TF.GenerationSoftware,Kicad,Pcbnew,8.0.4
; #@! TF.FileFunction,Plated,1,4,PTH
FMAT,2
METRIC
; #@! TA.AperFunction,Plated,PTH,ViaDrill
T1C0.300
; #@! TA.AperFunction,Plated,PTH,ViaDrill
T2C0.500
; #@! TA.AperFunction,Plated,PTH,ComponentDrill
T3C0.600
; #@! TA.AperFunction,Plated,PTH,ComponentDrill
T4C0.750
; #@! TA.AperFunction,Plated,PTH,ComponentDrill
T5C2.200
%
G90
G05
T1
X53.51Y-97.95
X54.46Y-79.65
X54.695Y-84.31
X55.445Y-84.31
X55.45Y-106.5
X55.53Y-101.99
X56.01Y-89.0
X56.34Y-96.47
X56.75Y-89.0
X56.75Y-90.0
X57.59Y-65.75
X57.62Y-65.04
X57.63Y-68.75
X57.63Y-70.27
X57.63Y-71.75
X57.63Y-73.25
X57.92Y-82.39
X58.1Y-95.39
X59.54Y-90.46
X61.05Y-87.02
X61.09Y-88.79
X61.22Y-116.68
X62.41Y-90.9
X63.43Y-93.61
X65.73Y-92.95
X66.0Y-91.11
X66.19Y-67.26
X66.2Y-66.25
X66.21Y-64.75
X66.55Y-102.01
X66.55Y-106.48
X66.72Y-67.75
X66.77Y-66.76
X67.24Y-84.66
X69.95Y-92.95
X70.65Y-89.18
X70.66Y-100.4
X71.96Y-91.11
X72.12Y-84.15
X72.41Y-101.99
X72.67Y-87.88
X73.18Y-85.02
X74.68Y-85.0
X74.83Y-91.09
X74.85Y-88.2
X74.85Y-90.0
X76.98Y-110.46
X77.28Y-100.68
X78.43Y-72.83
X80.15Y-73.76
X80.84Y-69.21
X81.51Y-64.18
X81.55Y-62.48
X81.68Y-65.56
X81.76Y-59.46
X81.91Y-73.98
X82.36Y-66.33
X82.62Y-67.68
X82.692Y-75.87
X83.09Y-66.34
X83.75Y-76.64
X83.79Y-62.74
X83.82Y-66.35
X84.12Y-94.96
X84.19Y-92.84
X84.26Y-96.98
X85.01Y-56.5
X85.25Y-71.56
X85.39Y-62.73
X86.22Y-66.33
X86.25Y-64.87
X86.3Y-92.8
X86.3Y-97.07
X86.85Y-64.41
X87.28Y-75.96
X87.29Y-64.89
X87.44Y-66.34
X87.49Y-71.72
X87.65Y-69.21
X88.28Y-62.2
X88.39Y-92.87
X88.39Y-97.02
X88.42Y-94.96
X90.39Y-67.71
X90.51Y-90.366
X90.55Y-95.58
X91.58Y-94.32
X92.09Y-91.37
X92.23Y-98.13
X93.08Y-110.49
X95.18Y-86.73
X96.31Y-73.75
X102.09Y-90.98
X102.16Y-87.98
X102.41Y-98.1
X102.46Y-94.86
X102.54Y-97.12
X103.58Y-106.48
X103.64Y-102.01
X106.14Y-71.44
X107.23Y-72.25
X107.75Y-73.25
X108.05Y-84.25
X109.2Y-116.59
X110.94Y-87.5
X112.31Y-72.75
X112.32Y-71.24
X112.44Y-65.26
X112.44Y-66.76
X112.45Y-68.25
X112.45Y-69.45
X112.75Y-70.74
X113.17Y-90.19
X114.47Y-101.97
X114.47Y-106.51
X115.03Y-94.36
X115.04Y-97.06
X115.33Y-84.04
T2
X59.18Y-92.77
X59.71Y-86.07
X61.01Y-82.29
X63.14Y-80.43
X64.76Y-96.84
X67.57Y-94.95
X69.01Y-83.66
X73.54Y-81.95
X88.29Y-59.58
X89.11Y-56.74
X89.16Y-54.84
X92.19Y-100.68
X97.01Y-97.3
X97.96Y-100.08
X104.74Y-92.3
X104.75Y-94.81
X107.73Y-93.74
X110.57Y-93.13
X110.98Y-86.06
X113.77Y-81.3
T5
X55.0Y-55.0
X55.0Y-115.0
X115.0Y-55.0
X115.0Y-115.0
T3
X53.4Y-84.93G85X52.8Y-84.93
G05
X53.4Y-93.57G85X52.8Y-93.57
G05
X57.83Y-84.93G85X56.73Y-84.93
G05
X57.83Y-93.57G85X56.73Y-93.57
G05
X112.17Y-84.93G85X113.27Y-84.93
G05
X112.17Y-93.57G85X113.27Y-93.57
G05
X116.6Y-84.93G85X117.2Y-84.93
G05
X116.6Y-93.57G85X117.2Y-93.57
G05
T4
X54.05Y-62.013G85X53.2Y-62.013
G05
X54.05Y-76.513G85X53.2Y-76.513
G05
X60.5Y-62.013G85X58.75Y-62.013
G05
X60.5Y-76.513G85X58.75Y-76.513
G05
X109.54Y-61.967G85X111.29Y-61.967
G05
X109.54Y-76.467G85X111.29Y-76.467
G05
X115.99Y-61.967G85X116.84Y-61.967
G05
X115.99Y-76.467G85X116.84Y-76.467
G05
M30
