G04 #@! TF.GenerationSoftware,KiCad,Pcbnew,8.0.4*
G04 #@! TF.CreationDate,2024-09-01T18:21:08-07:00*
G04 #@! TF.ProjectId,HDMI Breakout,48444d49-2042-4726-9561-6b6f75742e6b,rev?*
G04 #@! TF.SameCoordinates,Original*
G04 #@! TF.FileFunction,Copper,L4,Bot*
G04 #@! TF.FilePolarity,Positive*
%FSLAX46Y46*%
G04 Gerber Fmt 4.6, Leading zero omitted, Abs format (unit mm)*
G04 Created by KiCad (PCBNEW 8.0.4) date 2024-09-01 18:21:08*
%MOMM*%
%LPD*%
G01*
G04 APERTURE LIST*
G04 #@! TA.AperFunction,ComponentPad*
%ADD10C,4.400000*%
G04 #@! TD*
G04 #@! TA.AperFunction,ComponentPad*
%ADD11O,3.500000X1.350000*%
G04 #@! TD*
G04 #@! TA.AperFunction,ComponentPad*
%ADD12O,2.500000X1.350000*%
G04 #@! TD*
G04 #@! TA.AperFunction,ComponentPad*
%ADD13O,1.600000X1.000000*%
G04 #@! TD*
G04 #@! TA.AperFunction,ComponentPad*
%ADD14O,2.100000X1.000000*%
G04 #@! TD*
G04 #@! TA.AperFunction,ViaPad*
%ADD15C,0.400000*%
G04 #@! TD*
G04 #@! TA.AperFunction,ViaPad*
%ADD16C,0.800000*%
G04 #@! TD*
G04 #@! TA.AperFunction,ViaPad*
%ADD17C,1.000000*%
G04 #@! TD*
G04 #@! TA.AperFunction,Conductor*
%ADD18C,0.200000*%
G04 #@! TD*
G04 APERTURE END LIST*
D10*
X115000000Y-115000000D03*
X55000000Y-115000000D03*
X115000000Y-55000000D03*
X55000000Y-55000000D03*
D11*
X59560000Y-62000000D03*
D12*
X53560000Y-62000000D03*
D11*
X59560000Y-76500000D03*
D12*
X53560000Y-76500000D03*
D11*
X110450000Y-76500000D03*
D12*
X116450000Y-76500000D03*
D11*
X110450000Y-62000000D03*
D12*
X116450000Y-62000000D03*
D13*
X116900000Y-84930000D03*
D14*
X112720000Y-84930000D03*
D13*
X116900000Y-93570000D03*
D14*
X112720000Y-93570000D03*
D13*
X53100000Y-93570000D03*
D14*
X57280000Y-93570000D03*
D13*
X53100000Y-84930000D03*
D14*
X57280000Y-84930000D03*
D15*
X73380000Y-81570000D03*
X74480000Y-81510000D03*
X84960000Y-62100000D03*
X70100000Y-94250000D03*
X69590000Y-88400000D03*
X95890000Y-101140000D03*
X95890000Y-98820000D03*
X115720000Y-96180000D03*
X81980000Y-73961500D03*
X65530000Y-76380000D03*
X63620000Y-81800000D03*
X65240000Y-82760000D03*
X65160000Y-79240000D03*
X83220000Y-64159999D03*
X85020000Y-76930000D03*
X82740000Y-63759999D03*
X84650000Y-75700000D03*
X85570000Y-64880000D03*
X93900000Y-74200000D03*
X108540000Y-73270000D03*
X105890000Y-70740000D03*
X100350000Y-84170000D03*
X105060000Y-71240000D03*
X99700000Y-84170000D03*
X82330000Y-67720000D03*
X90740000Y-93060000D03*
X64440000Y-84120000D03*
X69205000Y-90575000D03*
X79980000Y-86620000D03*
X69856397Y-67760000D03*
X68190000Y-66730000D03*
X79340000Y-86660000D03*
X64530000Y-66250000D03*
X78630000Y-86660000D03*
X77950000Y-86700000D03*
X66120000Y-67360000D03*
X61830000Y-64740000D03*
X77320000Y-86700000D03*
X107980000Y-72240000D03*
X107120000Y-63800000D03*
X106500000Y-63820000D03*
X107380000Y-71750000D03*
X89750000Y-89420000D03*
X87380000Y-89450000D03*
X59330000Y-90140000D03*
X63680000Y-84250000D03*
X66880000Y-89890000D03*
X88500000Y-91550000D03*
X89310000Y-98630000D03*
X72830000Y-86900000D03*
X77380000Y-93250000D03*
X69640000Y-85180000D03*
X70850000Y-85180000D03*
X61050000Y-87040000D03*
X69560000Y-84380000D03*
X71440000Y-87850000D03*
X97570000Y-99490000D03*
X97580000Y-100480000D03*
X94280000Y-101560000D03*
X115330000Y-85920000D03*
X113060000Y-87500000D03*
X113010000Y-90480000D03*
X115030000Y-91710000D03*
X108060000Y-87220000D03*
X108210000Y-92880000D03*
X105540000Y-92880000D03*
X104750000Y-94810000D03*
X101780000Y-96320000D03*
X104120000Y-97920000D03*
X102840000Y-99330000D03*
X109830000Y-102000000D03*
X108610000Y-101980000D03*
X114530000Y-106460000D03*
X109200000Y-116620000D03*
X101830000Y-108320000D03*
X93090000Y-110580000D03*
X77000000Y-110670000D03*
X60880000Y-116660000D03*
X61650000Y-101990000D03*
X59990000Y-102020000D03*
X66560000Y-106500000D03*
X55560000Y-106500000D03*
X55280000Y-80840000D03*
X58720000Y-83220000D03*
D16*
X53810000Y-97950000D03*
D15*
X57910000Y-96470000D03*
X59180000Y-86840000D03*
X59780000Y-91650000D03*
X55630000Y-87710000D03*
X115000000Y-82140000D03*
X112240000Y-65260000D03*
X112240000Y-66740000D03*
X112240000Y-68250000D03*
X112240000Y-69760000D03*
X112220000Y-72740000D03*
X95680000Y-73770000D03*
X89600000Y-67700000D03*
X74630000Y-100670000D03*
X72375000Y-101970000D03*
X65750000Y-97160000D03*
X63260000Y-97380000D03*
X64810000Y-97100000D03*
X56810000Y-88980000D03*
X56810000Y-90010000D03*
X64150000Y-92756374D03*
X62410000Y-91016374D03*
X61270000Y-89053626D03*
X60410000Y-93486374D03*
X88350000Y-94940000D03*
X87550000Y-96980000D03*
X86290000Y-96980000D03*
X85040000Y-97000000D03*
X84250000Y-94940000D03*
X87560000Y-92930000D03*
X86310000Y-92930000D03*
X85050000Y-92930000D03*
X71010000Y-83420000D03*
D17*
X68700000Y-78850000D03*
D15*
X63560000Y-77570000D03*
X63560000Y-80200000D03*
X78390000Y-72850000D03*
X82700000Y-75691500D03*
X86250000Y-75735001D03*
X87270000Y-75735001D03*
X88270000Y-75745001D03*
X80160000Y-73610000D03*
X89140000Y-74065001D03*
X80060000Y-63789999D03*
X81930000Y-62049999D03*
X80900000Y-62029999D03*
X86020000Y-61460000D03*
X83960000Y-62079999D03*
X83749999Y-66310000D03*
X85750000Y-66350000D03*
X85249999Y-71360000D03*
X82540000Y-68960000D03*
X87440000Y-68970000D03*
X84750000Y-66240000D03*
X87780000Y-62096501D03*
X88780000Y-62106501D03*
X89490000Y-63796501D03*
X88860000Y-57560000D03*
X88880000Y-60220000D03*
X92280000Y-59390000D03*
X87930000Y-60210000D03*
X87900000Y-57560000D03*
X88920000Y-56510000D03*
X86960000Y-55800000D03*
X92290000Y-54790000D03*
X88910000Y-53950000D03*
X86930000Y-54850000D03*
X56730000Y-65240000D03*
X57920000Y-73250000D03*
X57920000Y-71760000D03*
X57900000Y-70250000D03*
X57890000Y-68740000D03*
X57910000Y-65740000D03*
D18*
X83220000Y-64830000D02*
X83220000Y-64159999D01*
X84650000Y-75700000D02*
X83430000Y-74480000D01*
X83430000Y-74480000D02*
X83430000Y-67030000D01*
X83430000Y-67030000D02*
X82740000Y-66340000D01*
X82740000Y-66340000D02*
X82740000Y-63759999D01*
X70060000Y-89300000D02*
X69590000Y-88830000D01*
X69590000Y-88830000D02*
X69590000Y-88400000D01*
X70100000Y-94250000D02*
X70100000Y-90790000D01*
X70100000Y-90790000D02*
X70060000Y-90750000D01*
X70060000Y-90750000D02*
X70060000Y-89300000D01*
X83850000Y-73990000D02*
X84199999Y-73640001D01*
X84199999Y-65809999D02*
X83220000Y-64830000D01*
X85100000Y-76850000D02*
X85100000Y-75240000D01*
X85020000Y-76930000D02*
X85100000Y-76850000D01*
X84199999Y-73640001D02*
X84199999Y-65809999D01*
X85100000Y-75240000D02*
X83850000Y-73990000D01*
X93900000Y-74200000D02*
X93900000Y-73210000D01*
X93900000Y-73210000D02*
X85570000Y-64880000D01*
X100350000Y-84060000D02*
X105890000Y-78520000D01*
X100350000Y-84170000D02*
X100350000Y-84060000D01*
X105890000Y-78520000D02*
X105890000Y-70740000D01*
X99700000Y-76600000D02*
X105060000Y-71240000D01*
X99700000Y-84170000D02*
X99700000Y-76600000D01*
X80690000Y-69450000D02*
X82330000Y-67810000D01*
X90740000Y-93060000D02*
X90740000Y-89180000D01*
X80610000Y-79050000D02*
X80610000Y-69530000D01*
X82330000Y-67810000D02*
X82330000Y-67720000D01*
X90740000Y-89180000D02*
X89450000Y-87890000D01*
X89450000Y-87890000D02*
X80610000Y-79050000D01*
X80610000Y-69530000D02*
X80690000Y-69450000D01*
X65810000Y-84120000D02*
X64440000Y-84120000D01*
X66825000Y-90575000D02*
X66140000Y-89890000D01*
X65990000Y-84300000D02*
X65810000Y-84120000D01*
X69205000Y-90575000D02*
X66825000Y-90575000D01*
X66140000Y-89890000D02*
X66140000Y-84450000D01*
X66140000Y-84450000D02*
X65990000Y-84300000D01*
X63680000Y-84250000D02*
X63680000Y-84050000D01*
X64070000Y-83660000D02*
X66110000Y-83660000D01*
X66110000Y-83660000D02*
X66710000Y-84260000D01*
X66710000Y-84260000D02*
X66710000Y-89720000D01*
X63680000Y-84050000D02*
X64070000Y-83660000D01*
X66710000Y-89720000D02*
X66880000Y-89890000D01*
X79980000Y-77883603D02*
X69856397Y-67760000D01*
X79980000Y-86620000D02*
X79980000Y-77883603D01*
X69690000Y-67760000D02*
X69856397Y-67760000D01*
X79340000Y-86660000D02*
X79340000Y-77880000D01*
X79340000Y-77880000D02*
X68190000Y-66730000D01*
X66240000Y-66250000D02*
X64530000Y-66250000D01*
X77560000Y-77570000D02*
X66240000Y-66250000D01*
X78630000Y-86660000D02*
X78630000Y-78640000D01*
X78630000Y-78640000D02*
X77560000Y-77570000D01*
X77950000Y-86700000D02*
X77950000Y-79190000D01*
X77950000Y-79190000D02*
X66120000Y-67360000D01*
X66040000Y-67280000D02*
X66120000Y-67360000D01*
X77320000Y-86700000D02*
X77320000Y-80230000D01*
X77320000Y-80230000D02*
X61830000Y-64740000D01*
X106690000Y-63370000D02*
X107980000Y-64660000D01*
X107980000Y-64660000D02*
X107980000Y-72240000D01*
X107120000Y-63800000D02*
X106690000Y-63370000D01*
X106500000Y-63820000D02*
X106500000Y-70870000D01*
X106500000Y-70870000D02*
X107380000Y-71750000D01*
X87380000Y-89450000D02*
X89720000Y-89450000D01*
X89720000Y-89450000D02*
X89750000Y-89420000D01*
X89310000Y-98630000D02*
X89310000Y-92360000D01*
X89310000Y-92360000D02*
X88500000Y-91550000D01*
X72830000Y-91740000D02*
X73060000Y-91970000D01*
X72830000Y-86900000D02*
X72830000Y-91740000D01*
X74340000Y-93250000D02*
X77380000Y-93250000D01*
X73060000Y-91970000D02*
X74340000Y-93250000D01*
X69640000Y-85180000D02*
X70850000Y-85180000D01*
X71440000Y-85100000D02*
X71440000Y-87850000D01*
X71110000Y-84770000D02*
X71440000Y-85100000D01*
X69560000Y-84380000D02*
X70720000Y-84380000D01*
X70720000Y-84380000D02*
X71110000Y-84770000D01*
X113750000Y-87500000D02*
X115330000Y-85920000D01*
X113060000Y-87500000D02*
X113750000Y-87500000D01*
X115030000Y-91710000D02*
X113800000Y-90480000D01*
X113800000Y-90480000D02*
X113010000Y-90480000D01*
X108610000Y-101980000D02*
X109810000Y-101980000D01*
X109810000Y-101980000D02*
X109830000Y-102000000D01*
X61620000Y-102020000D02*
X61650000Y-101990000D01*
X59990000Y-102020000D02*
X61620000Y-102020000D01*
X59780000Y-87440000D02*
X59180000Y-86840000D01*
X59780000Y-91650000D02*
X59780000Y-87440000D01*
X56810000Y-88980000D02*
X56810000Y-88890000D01*
X56810000Y-88890000D02*
G75*
G03*
X55630000Y-87710000I-1180000J0D01*
G01*
X95670000Y-73770000D02*
X95680000Y-73770000D01*
X89600000Y-67700000D02*
X95670000Y-73770000D01*
X56810000Y-88980000D02*
X56810000Y-90010000D01*
M02*
