M48
; DRILL file {KiCad 8.0.5} date 2024-09-21T22:05:47-0700
; FORMAT={-:-/ absolute / metric / decimal}
; #@! TF.CreationDate,2024-09-21T22:05:47-07:00
; #@! TF.GenerationSoftware,Kicad,Pcbnew,8.0.5
; #@! TF.FileFunction,Plated,1,4,PTH
FMAT,2
METRIC
; #@! TA.AperFunction,Plated,PTH,ViaDrill
T1C0.300
; #@! TA.AperFunction,Plated,PTH,ViaDrill
T2C0.500
; #@! TA.AperFunction,Plated,PTH,ComponentDrill
T3C0.615
; #@! TA.AperFunction,Plated,PTH,ComponentDrill
T4C0.750
; #@! TA.AperFunction,Plated,PTH,ComponentDrill
T5C2.200
%
G90
G05
T1
X53.63Y-97.95
X53.83Y-108.68
X55.3Y-80.83
X55.55Y-102.0
X55.61Y-91.31
X56.7Y-64.8
X56.7Y-65.763
X56.7Y-68.763
X56.7Y-70.263
X56.7Y-71.763
X56.7Y-73.263
X58.22Y-96.46
X58.34Y-95.44
X58.78Y-83.21
X59.12Y-87.85
X59.519Y-89.371
X59.61Y-93.42
X60.15Y-90.05
X60.287Y-87.535
X60.59Y-86.71
X60.85Y-89.24
X60.94Y-81.51
X62.716Y-90.926
X63.58Y-83.424
X63.85Y-77.85
X63.85Y-80.29
X64.98Y-93.2
X66.49Y-102.0
X67.07Y-67.87
X67.74Y-64.77
X67.8Y-84.89
X68.15Y-108.68
X68.38Y-67.08
X69.8Y-89.84
X69.92Y-84.144
X70.59Y-86.36
X70.64Y-65.51
X70.665Y-94.65
X71.155Y-88.05
X71.5Y-93.97
X72.0Y-66.25
X72.59Y-89.18
X73.06Y-93.88
X74.21Y-101.38
X74.51Y-91.03
X74.6Y-94.52
X74.61Y-85.28
X74.91Y-87.41
X76.17Y-115.79
X77.0Y-77.75
X77.0Y-79.65
X77.36Y-89.24
X78.03Y-89.99
X78.3Y-72.847
X79.14Y-91.88
X80.152Y-73.7
X81.465Y-63.995
X81.9Y-73.98
X82.38Y-69.21
X82.41Y-67.71
X82.69Y-71.47
X82.69Y-76.44
X82.867Y-66.27
X83.521Y-64.676
X83.68Y-74.01
X83.776Y-66.179
X83.97Y-63.93
X84.0Y-92.59
X84.0Y-94.91
X84.0Y-97.33
X84.09Y-62.5
X84.23Y-73.28
X84.74Y-55.53
X84.79Y-58.7
X85.05Y-60.23
X85.25Y-71.53
X85.35Y-62.52
X85.368Y-64.848
X85.425Y-91.165
X86.3Y-92.59
X86.3Y-97.33
X86.4Y-52.38
X87.047Y-64.57
X87.364Y-66.488
X87.7Y-67.71
X87.8Y-90.35
X87.98Y-89.26
X88.28Y-64.67
X88.28Y-76.33
X88.3Y-61.87
X88.31Y-59.7
X88.4Y-86.7
X88.67Y-92.59
X88.67Y-94.96
X88.67Y-97.33
X89.04Y-74.05
X91.02Y-94.32
X91.52Y-91.78
X92.15Y-95.46
X92.2Y-100.64
X92.47Y-58.19
X92.58Y-54.79
X93.85Y-116.65
X95.39Y-95.07
X95.85Y-97.22
X98.16Y-85.86
X98.88Y-98.59
X102.11Y-99.3
X102.86Y-97.49
X103.76Y-101.98
X106.75Y-74.83
X107.55Y-74.83
X108.26Y-72.85
X108.28Y-71.94
X108.32Y-73.74
X108.97Y-92.29
X110.91Y-93.05
X113.51Y-65.217
X113.53Y-66.717
X113.54Y-68.217
X113.54Y-72.717
X113.56Y-69.717
X113.56Y-74.17
X113.82Y-88.162
X113.82Y-89.99
X114.05Y-101.95
X115.06Y-96.86
T2
X53.99Y-91.82
X59.17Y-86.86
X59.34Y-91.67
X61.54Y-79.69
X61.89Y-116.85
X66.43Y-82.61
X66.85Y-90.85
X67.64Y-96.86
X69.74Y-93.21
X71.01Y-82.89
X71.59Y-79.19
X76.98Y-110.06
X93.1Y-110.1
X101.89Y-109.07
X102.58Y-93.92
X105.85Y-93.53
X109.22Y-117.09
X110.27Y-85.38
X110.67Y-87.185
X110.67Y-90.99
X113.45Y-83.08
X113.78Y-81.16
X113.85Y-106.51
T5
X55.0Y-55.0
X55.0Y-115.0
X115.0Y-55.0
X115.0Y-115.0
T3
X53.392Y-84.93G85X52.807Y-84.93
G05
X53.392Y-93.57G85X52.807Y-93.57
G05
X57.822Y-84.93G85X56.737Y-84.93
G05
X57.822Y-93.57G85X56.737Y-93.57
G05
X112.177Y-84.93G85X113.262Y-84.93
G05
X112.177Y-93.57G85X113.262Y-93.57
G05
X116.608Y-84.93G85X117.192Y-84.93
G05
X116.608Y-93.57G85X117.192Y-93.57
G05
T4
X54.05Y-62.013G85X53.2Y-62.013
G05
X54.05Y-76.513G85X53.2Y-76.513
G05
X60.5Y-62.013G85X58.75Y-62.013
G05
X60.5Y-76.513G85X58.75Y-76.513
G05
X109.54Y-61.967G85X111.29Y-61.967
G05
X109.54Y-76.467G85X111.29Y-76.467
G05
X115.99Y-61.967G85X116.84Y-61.967
G05
X115.99Y-76.467G85X116.84Y-76.467
G05
M30
