G04 #@! TF.GenerationSoftware,KiCad,Pcbnew,8.0.5*
G04 #@! TF.CreationDate,2024-09-21T22:05:45-07:00*
G04 #@! TF.ProjectId,HDMI Breakout,48444d49-2042-4726-9561-6b6f75742e6b,rev?*
G04 #@! TF.SameCoordinates,Original*
G04 #@! TF.FileFunction,Copper,L4,Bot*
G04 #@! TF.FilePolarity,Positive*
%FSLAX46Y46*%
G04 Gerber Fmt 4.6, Leading zero omitted, Abs format (unit mm)*
G04 Created by KiCad (PCBNEW 8.0.5) date 2024-09-21 22:05:45*
%MOMM*%
%LPD*%
G01*
G04 APERTURE LIST*
G04 #@! TA.AperFunction,ComponentPad*
%ADD10O,2.100000X1.000000*%
G04 #@! TD*
G04 #@! TA.AperFunction,ComponentPad*
%ADD11O,1.600000X1.000000*%
G04 #@! TD*
G04 #@! TA.AperFunction,ComponentPad*
%ADD12C,4.400000*%
G04 #@! TD*
G04 #@! TA.AperFunction,ComponentPad*
%ADD13O,3.500000X1.350000*%
G04 #@! TD*
G04 #@! TA.AperFunction,ComponentPad*
%ADD14O,2.500000X1.350000*%
G04 #@! TD*
G04 #@! TA.AperFunction,ViaPad*
%ADD15C,0.600000*%
G04 #@! TD*
G04 #@! TA.AperFunction,ViaPad*
%ADD16C,0.900000*%
G04 #@! TD*
G04 #@! TA.AperFunction,Conductor*
%ADD17C,0.330200*%
G04 #@! TD*
G04 #@! TA.AperFunction,Conductor*
%ADD18C,0.250000*%
G04 #@! TD*
G04 #@! TA.AperFunction,Conductor*
%ADD19C,0.240000*%
G04 #@! TD*
G04 #@! TA.AperFunction,Conductor*
%ADD20C,0.300000*%
G04 #@! TD*
G04 #@! TA.AperFunction,Conductor*
%ADD21C,0.500000*%
G04 #@! TD*
G04 APERTURE END LIST*
D10*
X57280000Y-84930000D03*
D11*
X53100000Y-84930000D03*
D10*
X57280000Y-93570000D03*
D11*
X53100000Y-93570000D03*
D12*
X115000000Y-55000000D03*
D13*
X59624959Y-62012700D03*
D14*
X53624959Y-62012700D03*
D13*
X59624959Y-76512700D03*
D14*
X53624959Y-76512700D03*
D12*
X115000000Y-115000000D03*
D10*
X112720000Y-93570000D03*
D11*
X116900000Y-93570000D03*
D10*
X112720000Y-84930000D03*
D11*
X116900000Y-84930000D03*
D12*
X55000000Y-55000000D03*
X55000000Y-115000000D03*
D13*
X110415041Y-76467300D03*
D14*
X116415041Y-76467300D03*
D13*
X110415041Y-61967300D03*
D14*
X116415041Y-61967300D03*
D15*
X88280000Y-64670000D03*
X88310000Y-59700000D03*
X81900000Y-73980000D03*
X92470000Y-58190000D03*
X81465000Y-63995000D03*
X89040000Y-74050000D03*
X85050000Y-60230000D03*
X56700000Y-70262700D03*
X55300000Y-80830000D03*
X92200000Y-100640000D03*
X82690000Y-76440000D03*
X56700000Y-73262700D03*
D16*
X102580000Y-93920000D03*
D15*
X85350000Y-62520000D03*
X113540000Y-68217300D03*
X113540000Y-72717300D03*
X113530000Y-66717300D03*
X84000000Y-97330000D03*
X74210000Y-101380000D03*
X88300000Y-61870000D03*
X86300000Y-97330000D03*
X77000000Y-77750000D03*
X63850000Y-77850000D03*
D16*
X101890000Y-109070000D03*
D15*
X56700000Y-68762701D03*
X115060000Y-96860000D03*
X53630000Y-97950000D03*
X98880000Y-98590000D03*
X86300000Y-92590000D03*
X58220000Y-96460000D03*
D16*
X109220000Y-117090000D03*
D15*
X108970000Y-92290000D03*
X56700000Y-65762700D03*
D16*
X113780000Y-81160000D03*
D15*
X85249999Y-71530000D03*
X84000000Y-92590000D03*
D16*
X110270000Y-85380000D03*
X61890000Y-116850000D03*
D15*
X59610000Y-93420000D03*
X113560000Y-69717299D03*
X64980000Y-93200000D03*
X88670000Y-92590000D03*
X88280000Y-76330000D03*
X53830000Y-108680000D03*
X88670000Y-97330000D03*
X78300000Y-72846999D03*
X58780000Y-83210000D03*
X84000000Y-94910000D03*
X84790000Y-58700000D03*
X56700000Y-71762700D03*
X110910000Y-93050000D03*
X102110000Y-99300000D03*
X84740000Y-55530000D03*
X82380000Y-69209999D03*
X83776418Y-66178829D03*
X60590000Y-86710000D03*
D16*
X69740000Y-93210000D03*
D15*
X60940000Y-81510000D03*
X88670000Y-94960000D03*
X113510000Y-65217300D03*
X92580000Y-54790000D03*
X68150000Y-108680000D03*
D16*
X113850000Y-106510000D03*
X66430000Y-82610000D03*
D15*
X84090000Y-62500000D03*
D16*
X71590000Y-79190000D03*
D15*
X82690000Y-71470000D03*
X102860000Y-97490000D03*
X60850000Y-89240000D03*
D16*
X76980000Y-110060000D03*
X93100000Y-110100000D03*
D15*
X77000000Y-79650000D03*
X80152000Y-73700000D03*
X95850000Y-97220000D03*
X83970000Y-63930000D03*
X62716232Y-90926232D03*
D16*
X66850000Y-90850000D03*
X67640000Y-96860000D03*
D15*
X56700000Y-64800000D03*
D16*
X61540000Y-79690000D03*
D15*
X63850000Y-80290000D03*
X86400000Y-52380000D03*
X113560000Y-74170000D03*
D16*
X71010000Y-82890000D03*
X105850000Y-93530000D03*
D15*
X88400000Y-86700000D03*
X85368000Y-64848000D03*
X70640000Y-65510000D03*
X77360000Y-89240000D03*
X67740000Y-64770000D03*
X74610000Y-85280000D03*
X74910000Y-87410000D03*
X68380000Y-67080000D03*
X72000000Y-66250000D03*
X78030000Y-89990000D03*
X74510000Y-91030000D03*
X67070000Y-67870000D03*
X87047390Y-64570046D03*
X108280000Y-71940000D03*
X98160000Y-85860000D03*
X107550000Y-74830000D03*
X87700000Y-67710000D03*
X108320000Y-73740000D03*
X95390000Y-95070000D03*
X106750000Y-74830000D03*
X108260000Y-72850000D03*
X87363758Y-66488339D03*
X83521437Y-64676124D03*
X91520000Y-91780000D03*
X82866810Y-66269825D03*
X87980000Y-89260000D03*
X92150000Y-95460000D03*
X82410000Y-67710000D03*
X85425392Y-91165392D03*
X83680000Y-74010000D03*
X91020000Y-94320000D03*
X84230000Y-73280000D03*
X66490000Y-102000000D03*
X70665000Y-94650229D03*
X69800000Y-89840000D03*
X55550000Y-102000000D03*
X70590000Y-86360000D03*
X71155100Y-88050000D03*
X103760000Y-101980000D03*
X114050000Y-101950000D03*
X79140000Y-91880000D03*
D16*
X59340000Y-91670000D03*
X59170000Y-86860000D03*
X53990000Y-91820000D03*
X110670000Y-87185068D03*
X110670000Y-90990000D03*
X113450000Y-83080000D03*
D15*
X59120000Y-87850000D03*
X59518647Y-89371353D03*
X60287050Y-87535401D03*
X60150000Y-90050000D03*
X113820000Y-88162425D03*
X113820000Y-89990000D03*
X67800000Y-84890000D03*
X72590000Y-89180000D03*
X69920000Y-84144075D03*
X63580000Y-83423768D03*
X71500000Y-93970000D03*
X73060000Y-93880000D03*
X55610000Y-91310000D03*
X58340000Y-95440000D03*
X93850000Y-116650000D03*
X87800000Y-90350000D03*
X76170000Y-115790000D03*
X74600000Y-94520000D03*
D17*
X70640000Y-65860000D02*
X76140000Y-71360000D01*
X76140000Y-88020000D02*
X77360000Y-89240000D01*
X76140000Y-71360000D02*
X76140000Y-88020000D01*
X70640000Y-65510000D02*
X70640000Y-65860000D01*
D18*
X60150000Y-90050000D02*
X60220000Y-89980000D01*
X60220000Y-89980000D02*
X60220000Y-87602451D01*
X60220000Y-87602451D02*
X60287050Y-87535401D01*
D19*
X59518647Y-89371353D02*
X59120000Y-88972706D01*
X59120000Y-88972706D02*
X59120000Y-87850000D01*
X83680000Y-74010000D02*
X84340000Y-74670000D01*
X84340000Y-74670000D02*
X84340000Y-90080000D01*
X84340000Y-90080000D02*
X85425392Y-91165392D01*
D17*
X67070000Y-67870000D02*
X67315100Y-68115100D01*
X72700000Y-71730000D02*
X72700000Y-85617584D01*
X73390000Y-86307584D02*
X73390000Y-89910000D01*
X67315100Y-68115100D02*
X69085100Y-68115100D01*
X69085100Y-68115100D02*
X72700000Y-71730000D01*
X72700000Y-85617584D02*
X73390000Y-86307584D01*
X73390000Y-89910000D02*
X74510000Y-91030000D01*
X68380000Y-67080000D02*
X68850000Y-67550000D01*
X74044900Y-84145100D02*
X73700000Y-84490000D01*
X68850000Y-67550000D02*
X69370000Y-67550000D01*
X74910000Y-87110000D02*
X74910000Y-87410000D01*
X69370000Y-67550000D02*
X74010000Y-72190000D01*
X74010000Y-79580000D02*
X74044900Y-79614900D01*
X74010000Y-72190000D02*
X74010000Y-79580000D01*
X74044900Y-79614900D02*
X74044900Y-84145100D01*
X73700000Y-84490000D02*
X73700000Y-85900000D01*
X73700000Y-85900000D02*
X74910000Y-87110000D01*
D20*
X113820000Y-88162425D02*
X113820000Y-89990000D01*
D21*
X110670000Y-87185068D02*
X110670000Y-90990000D01*
X110670000Y-87185068D02*
X111815068Y-87185068D01*
X111815068Y-87185068D02*
X112070000Y-87440000D01*
X112070000Y-87440000D02*
X113740000Y-87440000D01*
X113740000Y-87440000D02*
X114560000Y-86620000D01*
X114560000Y-86620000D02*
X114560000Y-83840000D01*
X114560000Y-83840000D02*
X113800000Y-83080000D01*
X113800000Y-83080000D02*
X113450000Y-83080000D01*
D19*
X87800000Y-90350000D02*
X88390000Y-90940000D01*
X88390000Y-90940000D02*
X89284142Y-90940000D01*
X89284142Y-90940000D02*
X94540000Y-96195858D01*
X94540000Y-96195858D02*
X94540000Y-115960000D01*
X94540000Y-115960000D02*
X93850000Y-116650000D01*
X84230000Y-73280000D02*
X84865647Y-73915647D01*
X84865647Y-89675647D02*
X87110000Y-91920000D01*
X87110000Y-91920000D02*
X89132770Y-91920000D01*
X89132770Y-91920000D02*
X91020000Y-93807230D01*
X84865647Y-73915647D02*
X84865647Y-89675647D01*
X91020000Y-93807230D02*
X91020000Y-94320000D01*
X84550000Y-69850000D02*
X84550000Y-71970000D01*
X85379999Y-72799999D02*
X85379999Y-89298455D01*
X89178456Y-91400000D02*
X92150000Y-94371544D01*
X92150000Y-94371544D02*
X92150000Y-95460000D01*
X84550000Y-71970000D02*
X85379999Y-72799999D01*
X85379999Y-89298455D02*
X87481544Y-91400000D01*
X82410000Y-67710000D02*
X84550000Y-69850000D01*
X87481544Y-91400000D02*
X89178456Y-91400000D01*
X82866810Y-66269825D02*
X85575601Y-68978616D01*
X85575601Y-68978616D02*
X85578616Y-68978616D01*
X86120000Y-87400000D02*
X87980000Y-89260000D01*
X85578616Y-68978616D02*
X86120000Y-69520000D01*
X86120000Y-69520000D02*
X86120000Y-87400000D01*
X88400000Y-86700000D02*
X87043085Y-85343085D01*
X87043085Y-85343085D02*
X87043085Y-67235885D01*
X87043085Y-67235885D02*
X85368000Y-65560800D01*
X85368000Y-65560800D02*
X85368000Y-64848000D01*
X91520000Y-91780000D02*
X91520000Y-91730000D01*
X86603222Y-67757909D02*
X83521437Y-64676124D01*
X91520000Y-91730000D02*
X86603222Y-86813222D01*
X86603222Y-86813222D02*
X86603222Y-67757909D01*
D20*
X83920000Y-62670000D02*
X84090000Y-62500000D01*
X83920000Y-63880000D02*
X83920000Y-62670000D01*
X83970000Y-63930000D02*
X83920000Y-63880000D01*
D21*
X63880000Y-81560000D02*
X63410000Y-81560000D01*
X63410000Y-81560000D02*
X61540000Y-79690000D01*
X71010000Y-82890000D02*
X69680000Y-81560000D01*
X69680000Y-81560000D02*
X63880000Y-81560000D01*
D17*
X74610000Y-71640000D02*
X67740000Y-64770000D01*
X74610000Y-85280000D02*
X74610000Y-71640000D01*
X72000000Y-66250000D02*
X72130000Y-66250000D01*
X72130000Y-66250000D02*
X77200000Y-71320000D01*
X78030000Y-77409110D02*
X77200000Y-76579110D01*
X77200000Y-76579110D02*
X77200000Y-71320000D01*
X78030000Y-77409110D02*
X78030000Y-89990000D01*
D19*
X94398270Y-71940000D02*
X87047390Y-64589120D01*
X108280000Y-71940000D02*
X94398270Y-71940000D01*
X87047390Y-64589120D02*
X87047390Y-64570046D01*
X98160000Y-85860000D02*
X107550000Y-76470000D01*
X107550000Y-76470000D02*
X107550000Y-74830000D01*
X94050000Y-73740000D02*
X108320000Y-73740000D01*
X87700000Y-67710000D02*
X88020000Y-67710000D01*
X88020000Y-67710000D02*
X94050000Y-73740000D01*
X95390000Y-86190000D02*
X106750000Y-74830000D01*
X95390000Y-95070000D02*
X95390000Y-86190000D01*
X108260000Y-72850000D02*
X108240000Y-72830000D01*
X88211217Y-66488339D02*
X87363758Y-66488339D01*
X94552878Y-72830000D02*
X88211217Y-66488339D01*
X108240000Y-72830000D02*
X94552878Y-72830000D01*
D17*
X69790000Y-87160000D02*
X69790000Y-89830000D01*
X70590000Y-86360000D02*
X69790000Y-87160000D01*
D20*
X55550000Y-102000000D02*
X66490000Y-102000000D01*
D17*
X69790000Y-89830000D02*
X69800000Y-89840000D01*
D20*
X70650000Y-90690000D02*
X69800000Y-89840000D01*
X70650000Y-94635229D02*
X70650000Y-90690000D01*
X70665000Y-94650229D02*
X70650000Y-94635229D01*
D17*
X79138534Y-91878534D02*
X73869737Y-91878534D01*
X73869737Y-91878534D02*
X71155100Y-89163897D01*
X79140000Y-91880000D02*
X79138534Y-91878534D01*
X71155100Y-89163897D02*
X71155100Y-88050000D01*
D21*
X103760000Y-101980000D02*
X114020000Y-101980000D01*
X114020000Y-101980000D02*
X114050000Y-101950000D01*
X58170000Y-86860000D02*
X54680000Y-90350000D01*
X56350000Y-88680000D02*
X54680000Y-90350000D01*
X59170000Y-86860000D02*
X58170000Y-86860000D01*
X59340000Y-91670000D02*
X56350000Y-88680000D01*
X53990000Y-91820000D02*
X53990000Y-91040000D01*
X53990000Y-91040000D02*
X54680000Y-90350000D01*
D18*
X70810000Y-84890000D02*
X72590000Y-86670000D01*
X72590000Y-86670000D02*
X72590000Y-89180000D01*
X67800000Y-84890000D02*
X70810000Y-84890000D01*
X69199693Y-83423768D02*
X69920000Y-84144075D01*
X63580000Y-83423768D02*
X69199693Y-83423768D01*
X71500000Y-93970000D02*
X71540000Y-93930000D01*
X71540000Y-93930000D02*
X72860000Y-93930000D01*
D20*
X56850000Y-95440000D02*
X58340000Y-95440000D01*
X55610000Y-91310000D02*
X55610000Y-94200000D01*
X55610000Y-94200000D02*
X56850000Y-95440000D01*
D17*
X75634900Y-115254900D02*
X76170000Y-115790000D01*
X75634900Y-95554900D02*
X75634900Y-115254900D01*
X74600000Y-94520000D02*
X75634900Y-95554900D01*
M02*
