%TF.GenerationSoftware,KiCad,Pcbnew,8.0.4*%
%TF.CreationDate,2024-09-02T22:21:59-07:00*%
%TF.ProjectId,HDMI Breakout,48444d49-2042-4726-9561-6b6f75742e6b,rev?*%
%TF.SameCoordinates,Original*%
%TF.FileFunction,Drillmap*%
%TF.FilePolarity,Positive*%
%FSLAX45Y45*%
G04 Gerber Fmt 4.5, Leading zero omitted, Abs format (unit mm)*
G04 Created by KiCad (PCBNEW 8.0.4) date 2024-09-02 22:21:59*
%MOMM*%
%LPD*%
G01*
G04 APERTURE LIST*
%ADD10C,0.050000*%
%ADD11C,0.200000*%
%ADD12C,0.100000*%
%ADD13C,0.220000*%
G04 APERTURE END LIST*
D10*
X5000000Y-5000000D02*
X12000000Y-5000000D01*
X12000000Y-12000000D01*
X5000000Y-12000000D01*
X5000000Y-5000000D01*
D11*
D12*
X5336000Y-9780000D02*
X5366000Y-9810000D01*
X5366000Y-9780000D02*
X5336000Y-9810000D01*
X5431000Y-7950000D02*
X5461000Y-7980000D01*
X5461000Y-7950000D02*
X5431000Y-7980000D01*
X5454500Y-8416000D02*
X5484500Y-8446000D01*
X5484500Y-8416000D02*
X5454500Y-8446000D01*
X5529500Y-8416000D02*
X5559500Y-8446000D01*
X5559500Y-8416000D02*
X5529500Y-8446000D01*
X5530000Y-10635000D02*
X5560000Y-10665000D01*
X5560000Y-10635000D02*
X5530000Y-10665000D01*
X5538000Y-10184000D02*
X5568000Y-10214000D01*
X5568000Y-10184000D02*
X5538000Y-10214000D01*
X5586000Y-8885000D02*
X5616000Y-8915000D01*
X5616000Y-8885000D02*
X5586000Y-8915000D01*
X5619000Y-9632000D02*
X5649000Y-9662000D01*
X5649000Y-9632000D02*
X5619000Y-9662000D01*
X5660000Y-8885000D02*
X5690000Y-8915000D01*
X5690000Y-8885000D02*
X5660000Y-8915000D01*
X5660000Y-8985000D02*
X5690000Y-9015000D01*
X5690000Y-8985000D02*
X5660000Y-9015000D01*
X5744000Y-6560000D02*
X5774000Y-6590000D01*
X5774000Y-6560000D02*
X5744000Y-6590000D01*
X5747000Y-6489000D02*
X5777000Y-6519000D01*
X5777000Y-6489000D02*
X5747000Y-6519000D01*
X5748000Y-6860000D02*
X5778000Y-6890000D01*
X5778000Y-6860000D02*
X5748000Y-6890000D01*
X5748000Y-7012000D02*
X5778000Y-7042000D01*
X5778000Y-7012000D02*
X5748000Y-7042000D01*
X5748000Y-7160000D02*
X5778000Y-7190000D01*
X5778000Y-7160000D02*
X5748000Y-7190000D01*
X5748000Y-7310000D02*
X5778000Y-7340000D01*
X5778000Y-7310000D02*
X5748000Y-7340000D01*
X5777000Y-8224000D02*
X5807000Y-8254000D01*
X5807000Y-8224000D02*
X5777000Y-8254000D01*
X5795000Y-9524000D02*
X5825000Y-9554000D01*
X5825000Y-9524000D02*
X5795000Y-9554000D01*
X5939000Y-9031000D02*
X5969000Y-9061000D01*
X5969000Y-9031000D02*
X5939000Y-9061000D01*
X6090000Y-8687000D02*
X6120000Y-8717000D01*
X6120000Y-8687000D02*
X6090000Y-8717000D01*
X6094000Y-8864000D02*
X6124000Y-8894000D01*
X6124000Y-8864000D02*
X6094000Y-8894000D01*
X6107000Y-11653000D02*
X6137000Y-11683000D01*
X6137000Y-11653000D02*
X6107000Y-11683000D01*
X6226000Y-9075000D02*
X6256000Y-9105000D01*
X6256000Y-9075000D02*
X6226000Y-9105000D01*
X6328000Y-9346000D02*
X6358000Y-9376000D01*
X6358000Y-9346000D02*
X6328000Y-9376000D01*
X6558000Y-9280000D02*
X6588000Y-9310000D01*
X6588000Y-9280000D02*
X6558000Y-9310000D01*
X6585000Y-9096000D02*
X6615000Y-9126000D01*
X6615000Y-9096000D02*
X6585000Y-9126000D01*
X6604000Y-6711000D02*
X6634000Y-6741000D01*
X6634000Y-6711000D02*
X6604000Y-6741000D01*
X6605000Y-6610000D02*
X6635000Y-6640000D01*
X6635000Y-6610000D02*
X6605000Y-6640000D01*
X6606000Y-6460000D02*
X6636000Y-6490000D01*
X6636000Y-6460000D02*
X6606000Y-6490000D01*
X6640000Y-10186000D02*
X6670000Y-10216000D01*
X6670000Y-10186000D02*
X6640000Y-10216000D01*
X6640000Y-10633000D02*
X6670000Y-10663000D01*
X6670000Y-10633000D02*
X6640000Y-10663000D01*
X6657000Y-6760000D02*
X6687000Y-6790000D01*
X6687000Y-6760000D02*
X6657000Y-6790000D01*
X6662000Y-6661000D02*
X6692000Y-6691000D01*
X6692000Y-6661000D02*
X6662000Y-6691000D01*
X6709000Y-8451000D02*
X6739000Y-8481000D01*
X6739000Y-8451000D02*
X6709000Y-8481000D01*
X6980000Y-9280000D02*
X7010000Y-9310000D01*
X7010000Y-9280000D02*
X6980000Y-9310000D01*
X7050000Y-8903000D02*
X7080000Y-8933000D01*
X7080000Y-8903000D02*
X7050000Y-8933000D01*
X7051000Y-10025000D02*
X7081000Y-10055000D01*
X7081000Y-10025000D02*
X7051000Y-10055000D01*
X7181000Y-9096000D02*
X7211000Y-9126000D01*
X7211000Y-9096000D02*
X7181000Y-9126000D01*
X7197000Y-8400000D02*
X7227000Y-8430000D01*
X7227000Y-8400000D02*
X7197000Y-8430000D01*
X7226000Y-10184000D02*
X7256000Y-10214000D01*
X7256000Y-10184000D02*
X7226000Y-10214000D01*
X7252000Y-8773000D02*
X7282000Y-8803000D01*
X7282000Y-8773000D02*
X7252000Y-8803000D01*
X7303000Y-8487000D02*
X7333000Y-8517000D01*
X7333000Y-8487000D02*
X7303000Y-8517000D01*
X7453000Y-8485000D02*
X7483000Y-8515000D01*
X7483000Y-8485000D02*
X7453000Y-8515000D01*
X7468000Y-9094000D02*
X7498000Y-9124000D01*
X7498000Y-9094000D02*
X7468000Y-9124000D01*
X7470000Y-8805000D02*
X7500000Y-8835000D01*
X7500000Y-8805000D02*
X7470000Y-8835000D01*
X7470000Y-8985000D02*
X7500000Y-9015000D01*
X7500000Y-8985000D02*
X7470000Y-9015000D01*
X7683000Y-11031000D02*
X7713000Y-11061000D01*
X7713000Y-11031000D02*
X7683000Y-11061000D01*
X7713000Y-10053000D02*
X7743000Y-10083000D01*
X7743000Y-10053000D02*
X7713000Y-10083000D01*
X7828000Y-7268000D02*
X7858000Y-7298000D01*
X7858000Y-7268000D02*
X7828000Y-7298000D01*
X8000000Y-7361000D02*
X8030000Y-7391000D01*
X8030000Y-7361000D02*
X8000000Y-7391000D01*
X8069000Y-6906000D02*
X8099000Y-6936000D01*
X8099000Y-6906000D02*
X8069000Y-6936000D01*
X8136000Y-6403000D02*
X8166000Y-6433000D01*
X8166000Y-6403000D02*
X8136000Y-6433000D01*
X8140000Y-6233000D02*
X8170000Y-6263000D01*
X8170000Y-6233000D02*
X8140000Y-6263000D01*
X8153000Y-6541000D02*
X8183000Y-6571000D01*
X8183000Y-6541000D02*
X8153000Y-6571000D01*
X8161000Y-5931000D02*
X8191000Y-5961000D01*
X8191000Y-5931000D02*
X8161000Y-5961000D01*
X8176000Y-7383000D02*
X8206000Y-7413000D01*
X8206000Y-7383000D02*
X8176000Y-7413000D01*
X8221000Y-6618000D02*
X8251000Y-6648000D01*
X8251000Y-6618000D02*
X8221000Y-6648000D01*
X8247000Y-6753000D02*
X8277000Y-6783000D01*
X8277000Y-6753000D02*
X8247000Y-6783000D01*
X8254200Y-7572000D02*
X8284200Y-7602000D01*
X8284200Y-7572000D02*
X8254200Y-7602000D01*
X8294000Y-6619000D02*
X8324000Y-6649000D01*
X8324000Y-6619000D02*
X8294000Y-6649000D01*
X8360000Y-7649000D02*
X8390000Y-7679000D01*
X8390000Y-7649000D02*
X8360000Y-7679000D01*
X8364000Y-6259000D02*
X8394000Y-6289000D01*
X8394000Y-6259000D02*
X8364000Y-6289000D01*
X8367000Y-6620000D02*
X8397000Y-6650000D01*
X8397000Y-6620000D02*
X8367000Y-6650000D01*
X8397000Y-9481000D02*
X8427000Y-9511000D01*
X8427000Y-9481000D02*
X8397000Y-9511000D01*
X8404000Y-9269000D02*
X8434000Y-9299000D01*
X8434000Y-9269000D02*
X8404000Y-9299000D01*
X8411000Y-9683000D02*
X8441000Y-9713000D01*
X8441000Y-9683000D02*
X8411000Y-9713000D01*
X8486000Y-5635000D02*
X8516000Y-5665000D01*
X8516000Y-5635000D02*
X8486000Y-5665000D01*
X8510000Y-7141000D02*
X8540000Y-7171000D01*
X8540000Y-7141000D02*
X8510000Y-7171000D01*
X8524000Y-6258000D02*
X8554000Y-6288000D01*
X8554000Y-6258000D02*
X8524000Y-6288000D01*
X8607000Y-6618000D02*
X8637000Y-6648000D01*
X8637000Y-6618000D02*
X8607000Y-6648000D01*
X8610000Y-6472000D02*
X8640000Y-6502000D01*
X8640000Y-6472000D02*
X8610000Y-6502000D01*
X8615000Y-9265000D02*
X8645000Y-9295000D01*
X8645000Y-9265000D02*
X8615000Y-9295000D01*
X8615000Y-9692000D02*
X8645000Y-9722000D01*
X8645000Y-9692000D02*
X8615000Y-9722000D01*
X8670000Y-6426000D02*
X8700000Y-6456000D01*
X8700000Y-6426000D02*
X8670000Y-6456000D01*
X8713000Y-7581000D02*
X8743000Y-7611000D01*
X8743000Y-7581000D02*
X8713000Y-7611000D01*
X8714000Y-6474000D02*
X8744000Y-6504000D01*
X8744000Y-6474000D02*
X8714000Y-6504000D01*
X8729000Y-6619000D02*
X8759000Y-6649000D01*
X8759000Y-6619000D02*
X8729000Y-6649000D01*
X8734000Y-7157000D02*
X8764000Y-7187000D01*
X8764000Y-7157000D02*
X8734000Y-7187000D01*
X8750000Y-6906000D02*
X8780000Y-6936000D01*
X8780000Y-6906000D02*
X8750000Y-6936000D01*
X8813000Y-6205000D02*
X8843000Y-6235000D01*
X8843000Y-6205000D02*
X8813000Y-6235000D01*
X8824000Y-9272000D02*
X8854000Y-9302000D01*
X8854000Y-9272000D02*
X8824000Y-9302000D01*
X8824000Y-9687000D02*
X8854000Y-9717000D01*
X8854000Y-9687000D02*
X8824000Y-9717000D01*
X8827000Y-9481000D02*
X8857000Y-9511000D01*
X8857000Y-9481000D02*
X8827000Y-9511000D01*
X9024000Y-6756000D02*
X9054000Y-6786000D01*
X9054000Y-6756000D02*
X9024000Y-6786000D01*
X9036000Y-9021594D02*
X9066000Y-9051594D01*
X9066000Y-9021594D02*
X9036000Y-9051594D01*
X9040000Y-9543000D02*
X9070000Y-9573000D01*
X9070000Y-9543000D02*
X9040000Y-9573000D01*
X9143000Y-9417000D02*
X9173000Y-9447000D01*
X9173000Y-9417000D02*
X9143000Y-9447000D01*
X9194000Y-9122000D02*
X9224000Y-9152000D01*
X9224000Y-9122000D02*
X9194000Y-9152000D01*
X9208000Y-9798000D02*
X9238000Y-9828000D01*
X9238000Y-9798000D02*
X9208000Y-9828000D01*
X9293000Y-11034000D02*
X9323000Y-11064000D01*
X9323000Y-11034000D02*
X9293000Y-11064000D01*
X9503000Y-8658000D02*
X9533000Y-8688000D01*
X9533000Y-8658000D02*
X9503000Y-8688000D01*
X9616000Y-7360000D02*
X9646000Y-7390000D01*
X9646000Y-7360000D02*
X9616000Y-7390000D01*
X10194000Y-9083000D02*
X10224000Y-9113000D01*
X10224000Y-9083000D02*
X10194000Y-9113000D01*
X10201000Y-8783000D02*
X10231000Y-8813000D01*
X10231000Y-8783000D02*
X10201000Y-8813000D01*
X10226000Y-9795000D02*
X10256000Y-9825000D01*
X10256000Y-9795000D02*
X10226000Y-9825000D01*
X10231000Y-9471000D02*
X10261000Y-9501000D01*
X10261000Y-9471000D02*
X10231000Y-9501000D01*
X10239000Y-9697000D02*
X10269000Y-9727000D01*
X10269000Y-9697000D02*
X10239000Y-9727000D01*
X10343000Y-10633000D02*
X10373000Y-10663000D01*
X10373000Y-10633000D02*
X10343000Y-10663000D01*
X10349000Y-10186000D02*
X10379000Y-10216000D01*
X10379000Y-10186000D02*
X10349000Y-10216000D01*
X10599000Y-7129000D02*
X10629000Y-7159000D01*
X10629000Y-7129000D02*
X10599000Y-7159000D01*
X10708000Y-7210000D02*
X10738000Y-7240000D01*
X10738000Y-7210000D02*
X10708000Y-7240000D01*
X10760000Y-7310000D02*
X10790000Y-7340000D01*
X10790000Y-7310000D02*
X10760000Y-7340000D01*
X10790000Y-8410000D02*
X10820000Y-8440000D01*
X10820000Y-8410000D02*
X10790000Y-8440000D01*
X10905000Y-11644000D02*
X10935000Y-11674000D01*
X10935000Y-11644000D02*
X10905000Y-11674000D01*
X11079000Y-8735000D02*
X11109000Y-8765000D01*
X11109000Y-8735000D02*
X11079000Y-8765000D01*
X11216000Y-7260000D02*
X11246000Y-7290000D01*
X11246000Y-7260000D02*
X11216000Y-7290000D01*
X11217000Y-7109000D02*
X11247000Y-7139000D01*
X11247000Y-7109000D02*
X11217000Y-7139000D01*
X11229000Y-6511000D02*
X11259000Y-6541000D01*
X11259000Y-6511000D02*
X11229000Y-6541000D01*
X11229000Y-6661000D02*
X11259000Y-6691000D01*
X11259000Y-6661000D02*
X11229000Y-6691000D01*
X11230000Y-6810000D02*
X11260000Y-6840000D01*
X11260000Y-6810000D02*
X11230000Y-6840000D01*
X11230000Y-6930000D02*
X11260000Y-6960000D01*
X11260000Y-6930000D02*
X11230000Y-6960000D01*
X11260000Y-7059000D02*
X11290000Y-7089000D01*
X11290000Y-7059000D02*
X11260000Y-7089000D01*
X11302000Y-9004000D02*
X11332000Y-9034000D01*
X11332000Y-9004000D02*
X11302000Y-9034000D01*
X11432000Y-10182000D02*
X11462000Y-10212000D01*
X11462000Y-10182000D02*
X11432000Y-10212000D01*
X11432000Y-10636000D02*
X11462000Y-10666000D01*
X11462000Y-10636000D02*
X11432000Y-10666000D01*
X11488000Y-9421000D02*
X11518000Y-9451000D01*
X11518000Y-9421000D02*
X11488000Y-9451000D01*
X11489000Y-9691000D02*
X11519000Y-9721000D01*
X11519000Y-9691000D02*
X11489000Y-9721000D01*
X11518000Y-8389000D02*
X11548000Y-8419000D01*
X11548000Y-8389000D02*
X11518000Y-8419000D01*
X5943000Y-9277000D02*
G75*
G02*
X5893000Y-9277000I-25000J0D01*
G01*
X5893000Y-9277000D02*
G75*
G02*
X5943000Y-9277000I25000J0D01*
G01*
X5996000Y-8607000D02*
G75*
G02*
X5946000Y-8607000I-25000J0D01*
G01*
X5946000Y-8607000D02*
G75*
G02*
X5996000Y-8607000I25000J0D01*
G01*
X6126000Y-8229000D02*
G75*
G02*
X6076000Y-8229000I-25000J0D01*
G01*
X6076000Y-8229000D02*
G75*
G02*
X6126000Y-8229000I25000J0D01*
G01*
X6339000Y-8043000D02*
G75*
G02*
X6289000Y-8043000I-25000J0D01*
G01*
X6289000Y-8043000D02*
G75*
G02*
X6339000Y-8043000I25000J0D01*
G01*
X6501000Y-9684000D02*
G75*
G02*
X6451000Y-9684000I-25000J0D01*
G01*
X6451000Y-9684000D02*
G75*
G02*
X6501000Y-9684000I25000J0D01*
G01*
X6782000Y-9495000D02*
G75*
G02*
X6732000Y-9495000I-25000J0D01*
G01*
X6732000Y-9495000D02*
G75*
G02*
X6782000Y-9495000I25000J0D01*
G01*
X6926000Y-8366000D02*
G75*
G02*
X6876000Y-8366000I-25000J0D01*
G01*
X6876000Y-8366000D02*
G75*
G02*
X6926000Y-8366000I25000J0D01*
G01*
X7379000Y-8195000D02*
G75*
G02*
X7329000Y-8195000I-25000J0D01*
G01*
X7329000Y-8195000D02*
G75*
G02*
X7379000Y-8195000I25000J0D01*
G01*
X8854000Y-5958000D02*
G75*
G02*
X8804000Y-5958000I-25000J0D01*
G01*
X8804000Y-5958000D02*
G75*
G02*
X8854000Y-5958000I25000J0D01*
G01*
X8936000Y-5674000D02*
G75*
G02*
X8886000Y-5674000I-25000J0D01*
G01*
X8886000Y-5674000D02*
G75*
G02*
X8936000Y-5674000I25000J0D01*
G01*
X8941000Y-5484000D02*
G75*
G02*
X8891000Y-5484000I-25000J0D01*
G01*
X8891000Y-5484000D02*
G75*
G02*
X8941000Y-5484000I25000J0D01*
G01*
X9244000Y-10068000D02*
G75*
G02*
X9194000Y-10068000I-25000J0D01*
G01*
X9194000Y-10068000D02*
G75*
G02*
X9244000Y-10068000I25000J0D01*
G01*
X9726000Y-9730000D02*
G75*
G02*
X9676000Y-9730000I-25000J0D01*
G01*
X9676000Y-9730000D02*
G75*
G02*
X9726000Y-9730000I25000J0D01*
G01*
X9821000Y-10008000D02*
G75*
G02*
X9771000Y-10008000I-25000J0D01*
G01*
X9771000Y-10008000D02*
G75*
G02*
X9821000Y-10008000I25000J0D01*
G01*
X10499000Y-9230000D02*
G75*
G02*
X10449000Y-9230000I-25000J0D01*
G01*
X10449000Y-9230000D02*
G75*
G02*
X10499000Y-9230000I25000J0D01*
G01*
X10500000Y-9481000D02*
G75*
G02*
X10450000Y-9481000I-25000J0D01*
G01*
X10450000Y-9481000D02*
G75*
G02*
X10500000Y-9481000I25000J0D01*
G01*
X10798000Y-9374000D02*
G75*
G02*
X10748000Y-9374000I-25000J0D01*
G01*
X10748000Y-9374000D02*
G75*
G02*
X10798000Y-9374000I25000J0D01*
G01*
X11082000Y-9313000D02*
G75*
G02*
X11032000Y-9313000I-25000J0D01*
G01*
X11032000Y-9313000D02*
G75*
G02*
X11082000Y-9313000I25000J0D01*
G01*
X11123000Y-8606000D02*
G75*
G02*
X11073000Y-8606000I-25000J0D01*
G01*
X11073000Y-8606000D02*
G75*
G02*
X11123000Y-8606000I25000J0D01*
G01*
X11402000Y-8130000D02*
G75*
G02*
X11352000Y-8130000I-25000J0D01*
G01*
X11352000Y-8130000D02*
G75*
G02*
X11402000Y-8130000I25000J0D01*
G01*
X5310000Y-8463000D02*
X5310000Y-8523000D01*
X5280000Y-8493000D02*
X5340000Y-8493000D01*
X5340000Y-8463000D02*
X5280000Y-8463000D01*
X5280000Y-8523000D02*
G75*
G02*
X5280000Y-8463000I0J30000D01*
G01*
X5280000Y-8523000D02*
X5340000Y-8523000D01*
X5340000Y-8523000D02*
G75*
G03*
X5340000Y-8463000I0J30000D01*
G01*
X5310000Y-9327000D02*
X5310000Y-9387000D01*
X5280000Y-9357000D02*
X5340000Y-9357000D01*
X5340000Y-9327000D02*
X5280000Y-9327000D01*
X5280000Y-9387000D02*
G75*
G02*
X5280000Y-9327000I0J30000D01*
G01*
X5280000Y-9387000D02*
X5340000Y-9387000D01*
X5340000Y-9387000D02*
G75*
G03*
X5340000Y-9327000I0J30000D01*
G01*
X5728000Y-8463000D02*
X5728000Y-8523000D01*
X5698000Y-8493000D02*
X5758000Y-8493000D01*
X5783000Y-8463000D02*
X5673000Y-8463000D01*
X5673000Y-8523000D02*
G75*
G02*
X5673000Y-8463000I0J30000D01*
G01*
X5673000Y-8523000D02*
X5783000Y-8523000D01*
X5783000Y-8523000D02*
G75*
G03*
X5783000Y-8463000I0J30000D01*
G01*
X5728000Y-9327000D02*
X5728000Y-9387000D01*
X5698000Y-9357000D02*
X5758000Y-9357000D01*
X5783000Y-9327000D02*
X5673000Y-9327000D01*
X5673000Y-9387000D02*
G75*
G02*
X5673000Y-9327000I0J30000D01*
G01*
X5673000Y-9387000D02*
X5783000Y-9387000D01*
X5783000Y-9387000D02*
G75*
G03*
X5783000Y-9327000I0J30000D01*
G01*
X11272000Y-8463000D02*
X11272000Y-8523000D01*
X11242000Y-8493000D02*
X11302000Y-8493000D01*
X11217000Y-8523000D02*
X11327000Y-8523000D01*
X11327000Y-8463000D02*
G75*
G02*
X11327000Y-8523000I0J-30000D01*
G01*
X11327000Y-8463000D02*
X11217000Y-8463000D01*
X11217000Y-8463000D02*
G75*
G03*
X11217000Y-8523000I0J-30000D01*
G01*
X11272000Y-9327000D02*
X11272000Y-9387000D01*
X11242000Y-9357000D02*
X11302000Y-9357000D01*
X11217000Y-9387000D02*
X11327000Y-9387000D01*
X11327000Y-9327000D02*
G75*
G02*
X11327000Y-9387000I0J-30000D01*
G01*
X11327000Y-9327000D02*
X11217000Y-9327000D01*
X11217000Y-9327000D02*
G75*
G03*
X11217000Y-9387000I0J-30000D01*
G01*
X11690000Y-8463000D02*
X11690000Y-8523000D01*
X11660000Y-8493000D02*
X11720000Y-8493000D01*
X11660000Y-8523000D02*
X11720000Y-8523000D01*
X11720000Y-8463000D02*
G75*
G02*
X11720000Y-8523000I0J-30000D01*
G01*
X11720000Y-8463000D02*
X11660000Y-8463000D01*
X11660000Y-8463000D02*
G75*
G03*
X11660000Y-8523000I0J-30000D01*
G01*
X11690000Y-9327000D02*
X11690000Y-9387000D01*
X11660000Y-9357000D02*
X11720000Y-9357000D01*
X11660000Y-9387000D02*
X11720000Y-9387000D01*
X11720000Y-9327000D02*
G75*
G02*
X11720000Y-9387000I0J-30000D01*
G01*
X11720000Y-9327000D02*
X11660000Y-9327000D01*
X11660000Y-9327000D02*
G75*
G03*
X11660000Y-9387000I0J-30000D01*
G01*
X5389013Y-6227787D02*
X5389013Y-6174753D01*
X5335979Y-6174753D01*
X5335979Y-6227787D01*
X5389013Y-6227787D01*
X5404996Y-6163770D02*
X5319996Y-6163770D01*
X5319996Y-6238770D02*
G75*
G02*
X5319996Y-6163770I0J37500D01*
G01*
X5319996Y-6238770D02*
X5404996Y-6238770D01*
X5404996Y-6238770D02*
G75*
G03*
X5404996Y-6163770I0J37500D01*
G01*
X5389013Y-7677787D02*
X5389013Y-7624753D01*
X5335979Y-7624753D01*
X5335979Y-7677787D01*
X5389013Y-7677787D01*
X5404996Y-7613770D02*
X5319996Y-7613770D01*
X5319996Y-7688770D02*
G75*
G02*
X5319996Y-7613770I0J37500D01*
G01*
X5319996Y-7688770D02*
X5404996Y-7688770D01*
X5404996Y-7688770D02*
G75*
G03*
X5404996Y-7613770I0J37500D01*
G01*
X5989013Y-6227787D02*
X5989013Y-6174753D01*
X5935979Y-6174753D01*
X5935979Y-6227787D01*
X5989013Y-6227787D01*
X6049996Y-6163770D02*
X5874996Y-6163770D01*
X5874996Y-6238770D02*
G75*
G02*
X5874996Y-6163770I0J37500D01*
G01*
X5874996Y-6238770D02*
X6049996Y-6238770D01*
X6049996Y-6238770D02*
G75*
G03*
X6049996Y-6163770I0J37500D01*
G01*
X5989013Y-7677787D02*
X5989013Y-7624753D01*
X5935979Y-7624753D01*
X5935979Y-7677787D01*
X5989013Y-7677787D01*
X6049996Y-7613770D02*
X5874996Y-7613770D01*
X5874996Y-7688770D02*
G75*
G02*
X5874996Y-7613770I0J37500D01*
G01*
X5874996Y-7688770D02*
X6049996Y-7688770D01*
X6049996Y-7688770D02*
G75*
G03*
X6049996Y-7613770I0J37500D01*
G01*
X11068021Y-6223247D02*
X11068021Y-6170213D01*
X11014987Y-6170213D01*
X11014987Y-6223247D01*
X11068021Y-6223247D01*
X10954004Y-6234230D02*
X11129004Y-6234230D01*
X11129004Y-6159230D02*
G75*
G02*
X11129004Y-6234230I0J-37500D01*
G01*
X11129004Y-6159230D02*
X10954004Y-6159230D01*
X10954004Y-6159230D02*
G75*
G03*
X10954004Y-6234230I0J-37500D01*
G01*
X11068021Y-7673247D02*
X11068021Y-7620213D01*
X11014987Y-7620213D01*
X11014987Y-7673247D01*
X11068021Y-7673247D01*
X10954004Y-7684230D02*
X11129004Y-7684230D01*
X11129004Y-7609230D02*
G75*
G02*
X11129004Y-7684230I0J-37500D01*
G01*
X11129004Y-7609230D02*
X10954004Y-7609230D01*
X10954004Y-7609230D02*
G75*
G03*
X10954004Y-7684230I0J-37500D01*
G01*
X11668021Y-6223247D02*
X11668021Y-6170213D01*
X11614987Y-6170213D01*
X11614987Y-6223247D01*
X11668021Y-6223247D01*
X11599004Y-6234230D02*
X11684004Y-6234230D01*
X11684004Y-6159230D02*
G75*
G02*
X11684004Y-6234230I0J-37500D01*
G01*
X11684004Y-6159230D02*
X11599004Y-6159230D01*
X11599004Y-6159230D02*
G75*
G03*
X11599004Y-6234230I0J-37500D01*
G01*
X11668021Y-7673247D02*
X11668021Y-7620213D01*
X11614987Y-7620213D01*
X11614987Y-7673247D01*
X11668021Y-7673247D01*
X11599004Y-7684230D02*
X11684004Y-7684230D01*
X11684004Y-7609230D02*
G75*
G02*
X11684004Y-7684230I0J-37500D01*
G01*
X11684004Y-7609230D02*
X11599004Y-7609230D01*
X11599004Y-7609230D02*
G75*
G03*
X11599004Y-7684230I0J-37500D01*
G01*
D13*
X5500000Y-5610000D02*
X5610000Y-5500000D01*
X5500000Y-5390000D01*
X5390000Y-5500000D01*
X5500000Y-5610000D01*
X5500000Y-11610000D02*
X5610000Y-11500000D01*
X5500000Y-11390000D01*
X5390000Y-11500000D01*
X5500000Y-11610000D01*
X11500000Y-5610000D02*
X11610000Y-5500000D01*
X11500000Y-5390000D01*
X11390000Y-5500000D01*
X11500000Y-5610000D01*
X11500000Y-11610000D02*
X11610000Y-11500000D01*
X11500000Y-11390000D01*
X11390000Y-11500000D01*
X11500000Y-11610000D01*
D11*
X5258277Y-12313984D02*
X5258277Y-12113984D01*
X5258277Y-12113984D02*
X5305896Y-12113984D01*
X5305896Y-12113984D02*
X5334467Y-12123508D01*
X5334467Y-12123508D02*
X5353515Y-12142555D01*
X5353515Y-12142555D02*
X5363039Y-12161603D01*
X5363039Y-12161603D02*
X5372563Y-12199698D01*
X5372563Y-12199698D02*
X5372563Y-12228269D01*
X5372563Y-12228269D02*
X5363039Y-12266365D01*
X5363039Y-12266365D02*
X5353515Y-12285412D01*
X5353515Y-12285412D02*
X5334467Y-12304460D01*
X5334467Y-12304460D02*
X5305896Y-12313984D01*
X5305896Y-12313984D02*
X5258277Y-12313984D01*
X5458277Y-12313984D02*
X5458277Y-12180650D01*
X5458277Y-12218746D02*
X5467801Y-12199698D01*
X5467801Y-12199698D02*
X5477324Y-12190174D01*
X5477324Y-12190174D02*
X5496372Y-12180650D01*
X5496372Y-12180650D02*
X5515420Y-12180650D01*
X5582086Y-12313984D02*
X5582086Y-12180650D01*
X5582086Y-12113984D02*
X5572563Y-12123508D01*
X5572563Y-12123508D02*
X5582086Y-12133031D01*
X5582086Y-12133031D02*
X5591610Y-12123508D01*
X5591610Y-12123508D02*
X5582086Y-12113984D01*
X5582086Y-12113984D02*
X5582086Y-12133031D01*
X5705896Y-12313984D02*
X5686848Y-12304460D01*
X5686848Y-12304460D02*
X5677324Y-12285412D01*
X5677324Y-12285412D02*
X5677324Y-12113984D01*
X5810658Y-12313984D02*
X5791610Y-12304460D01*
X5791610Y-12304460D02*
X5782086Y-12285412D01*
X5782086Y-12285412D02*
X5782086Y-12113984D01*
X6039229Y-12313984D02*
X6039229Y-12113984D01*
X6039229Y-12113984D02*
X6105896Y-12256841D01*
X6105896Y-12256841D02*
X6172562Y-12113984D01*
X6172562Y-12113984D02*
X6172562Y-12313984D01*
X6353515Y-12313984D02*
X6353515Y-12209222D01*
X6353515Y-12209222D02*
X6343991Y-12190174D01*
X6343991Y-12190174D02*
X6324943Y-12180650D01*
X6324943Y-12180650D02*
X6286848Y-12180650D01*
X6286848Y-12180650D02*
X6267801Y-12190174D01*
X6353515Y-12304460D02*
X6334467Y-12313984D01*
X6334467Y-12313984D02*
X6286848Y-12313984D01*
X6286848Y-12313984D02*
X6267801Y-12304460D01*
X6267801Y-12304460D02*
X6258277Y-12285412D01*
X6258277Y-12285412D02*
X6258277Y-12266365D01*
X6258277Y-12266365D02*
X6267801Y-12247317D01*
X6267801Y-12247317D02*
X6286848Y-12237793D01*
X6286848Y-12237793D02*
X6334467Y-12237793D01*
X6334467Y-12237793D02*
X6353515Y-12228269D01*
X6448753Y-12180650D02*
X6448753Y-12380650D01*
X6448753Y-12190174D02*
X6467801Y-12180650D01*
X6467801Y-12180650D02*
X6505896Y-12180650D01*
X6505896Y-12180650D02*
X6524943Y-12190174D01*
X6524943Y-12190174D02*
X6534467Y-12199698D01*
X6534467Y-12199698D02*
X6543991Y-12218746D01*
X6543991Y-12218746D02*
X6543991Y-12275888D01*
X6543991Y-12275888D02*
X6534467Y-12294936D01*
X6534467Y-12294936D02*
X6524943Y-12304460D01*
X6524943Y-12304460D02*
X6505896Y-12313984D01*
X6505896Y-12313984D02*
X6467801Y-12313984D01*
X6467801Y-12313984D02*
X6448753Y-12304460D01*
X6629705Y-12294936D02*
X6639229Y-12304460D01*
X6639229Y-12304460D02*
X6629705Y-12313984D01*
X6629705Y-12313984D02*
X6620182Y-12304460D01*
X6620182Y-12304460D02*
X6629705Y-12294936D01*
X6629705Y-12294936D02*
X6629705Y-12313984D01*
X6629705Y-12190174D02*
X6639229Y-12199698D01*
X6639229Y-12199698D02*
X6629705Y-12209222D01*
X6629705Y-12209222D02*
X6620182Y-12199698D01*
X6620182Y-12199698D02*
X6629705Y-12190174D01*
X6629705Y-12190174D02*
X6629705Y-12209222D01*
D12*
X4967500Y-12627500D02*
X4997500Y-12657500D01*
X4997500Y-12627500D02*
X4967500Y-12657500D01*
D11*
X5296372Y-12533984D02*
X5315420Y-12533984D01*
X5315420Y-12533984D02*
X5334467Y-12543508D01*
X5334467Y-12543508D02*
X5343991Y-12553031D01*
X5343991Y-12553031D02*
X5353515Y-12572079D01*
X5353515Y-12572079D02*
X5363039Y-12610174D01*
X5363039Y-12610174D02*
X5363039Y-12657793D01*
X5363039Y-12657793D02*
X5353515Y-12695888D01*
X5353515Y-12695888D02*
X5343991Y-12714936D01*
X5343991Y-12714936D02*
X5334467Y-12724460D01*
X5334467Y-12724460D02*
X5315420Y-12733984D01*
X5315420Y-12733984D02*
X5296372Y-12733984D01*
X5296372Y-12733984D02*
X5277324Y-12724460D01*
X5277324Y-12724460D02*
X5267801Y-12714936D01*
X5267801Y-12714936D02*
X5258277Y-12695888D01*
X5258277Y-12695888D02*
X5248753Y-12657793D01*
X5248753Y-12657793D02*
X5248753Y-12610174D01*
X5248753Y-12610174D02*
X5258277Y-12572079D01*
X5258277Y-12572079D02*
X5267801Y-12553031D01*
X5267801Y-12553031D02*
X5277324Y-12543508D01*
X5277324Y-12543508D02*
X5296372Y-12533984D01*
X5448753Y-12714936D02*
X5458277Y-12724460D01*
X5458277Y-12724460D02*
X5448753Y-12733984D01*
X5448753Y-12733984D02*
X5439229Y-12724460D01*
X5439229Y-12724460D02*
X5448753Y-12714936D01*
X5448753Y-12714936D02*
X5448753Y-12733984D01*
X5524944Y-12533984D02*
X5648753Y-12533984D01*
X5648753Y-12533984D02*
X5582086Y-12610174D01*
X5582086Y-12610174D02*
X5610658Y-12610174D01*
X5610658Y-12610174D02*
X5629705Y-12619698D01*
X5629705Y-12619698D02*
X5639229Y-12629222D01*
X5639229Y-12629222D02*
X5648753Y-12648269D01*
X5648753Y-12648269D02*
X5648753Y-12695888D01*
X5648753Y-12695888D02*
X5639229Y-12714936D01*
X5639229Y-12714936D02*
X5629705Y-12724460D01*
X5629705Y-12724460D02*
X5610658Y-12733984D01*
X5610658Y-12733984D02*
X5553515Y-12733984D01*
X5553515Y-12733984D02*
X5534467Y-12724460D01*
X5534467Y-12724460D02*
X5524944Y-12714936D01*
X5772562Y-12533984D02*
X5791610Y-12533984D01*
X5791610Y-12533984D02*
X5810658Y-12543508D01*
X5810658Y-12543508D02*
X5820182Y-12553031D01*
X5820182Y-12553031D02*
X5829705Y-12572079D01*
X5829705Y-12572079D02*
X5839229Y-12610174D01*
X5839229Y-12610174D02*
X5839229Y-12657793D01*
X5839229Y-12657793D02*
X5829705Y-12695888D01*
X5829705Y-12695888D02*
X5820182Y-12714936D01*
X5820182Y-12714936D02*
X5810658Y-12724460D01*
X5810658Y-12724460D02*
X5791610Y-12733984D01*
X5791610Y-12733984D02*
X5772562Y-12733984D01*
X5772562Y-12733984D02*
X5753515Y-12724460D01*
X5753515Y-12724460D02*
X5743991Y-12714936D01*
X5743991Y-12714936D02*
X5734467Y-12695888D01*
X5734467Y-12695888D02*
X5724943Y-12657793D01*
X5724943Y-12657793D02*
X5724943Y-12610174D01*
X5724943Y-12610174D02*
X5734467Y-12572079D01*
X5734467Y-12572079D02*
X5743991Y-12553031D01*
X5743991Y-12553031D02*
X5753515Y-12543508D01*
X5753515Y-12543508D02*
X5772562Y-12533984D01*
X5963039Y-12533984D02*
X5982086Y-12533984D01*
X5982086Y-12533984D02*
X6001134Y-12543508D01*
X6001134Y-12543508D02*
X6010658Y-12553031D01*
X6010658Y-12553031D02*
X6020182Y-12572079D01*
X6020182Y-12572079D02*
X6029705Y-12610174D01*
X6029705Y-12610174D02*
X6029705Y-12657793D01*
X6029705Y-12657793D02*
X6020182Y-12695888D01*
X6020182Y-12695888D02*
X6010658Y-12714936D01*
X6010658Y-12714936D02*
X6001134Y-12724460D01*
X6001134Y-12724460D02*
X5982086Y-12733984D01*
X5982086Y-12733984D02*
X5963039Y-12733984D01*
X5963039Y-12733984D02*
X5943991Y-12724460D01*
X5943991Y-12724460D02*
X5934467Y-12714936D01*
X5934467Y-12714936D02*
X5924943Y-12695888D01*
X5924943Y-12695888D02*
X5915420Y-12657793D01*
X5915420Y-12657793D02*
X5915420Y-12610174D01*
X5915420Y-12610174D02*
X5924943Y-12572079D01*
X5924943Y-12572079D02*
X5934467Y-12553031D01*
X5934467Y-12553031D02*
X5943991Y-12543508D01*
X5943991Y-12543508D02*
X5963039Y-12533984D01*
X6115420Y-12733984D02*
X6115420Y-12600650D01*
X6115420Y-12619698D02*
X6124943Y-12610174D01*
X6124943Y-12610174D02*
X6143991Y-12600650D01*
X6143991Y-12600650D02*
X6172563Y-12600650D01*
X6172563Y-12600650D02*
X6191610Y-12610174D01*
X6191610Y-12610174D02*
X6201134Y-12629222D01*
X6201134Y-12629222D02*
X6201134Y-12733984D01*
X6201134Y-12629222D02*
X6210658Y-12610174D01*
X6210658Y-12610174D02*
X6229705Y-12600650D01*
X6229705Y-12600650D02*
X6258277Y-12600650D01*
X6258277Y-12600650D02*
X6277324Y-12610174D01*
X6277324Y-12610174D02*
X6286848Y-12629222D01*
X6286848Y-12629222D02*
X6286848Y-12733984D01*
X6382086Y-12733984D02*
X6382086Y-12600650D01*
X6382086Y-12619698D02*
X6391610Y-12610174D01*
X6391610Y-12610174D02*
X6410658Y-12600650D01*
X6410658Y-12600650D02*
X6439229Y-12600650D01*
X6439229Y-12600650D02*
X6458277Y-12610174D01*
X6458277Y-12610174D02*
X6467801Y-12629222D01*
X6467801Y-12629222D02*
X6467801Y-12733984D01*
X6467801Y-12629222D02*
X6477324Y-12610174D01*
X6477324Y-12610174D02*
X6496372Y-12600650D01*
X6496372Y-12600650D02*
X6524943Y-12600650D01*
X6524943Y-12600650D02*
X6543991Y-12610174D01*
X6543991Y-12610174D02*
X6553515Y-12629222D01*
X6553515Y-12629222D02*
X6553515Y-12733984D01*
X6943991Y-12524460D02*
X6772563Y-12781603D01*
X7201134Y-12533984D02*
X7220182Y-12533984D01*
X7220182Y-12533984D02*
X7239229Y-12543508D01*
X7239229Y-12543508D02*
X7248753Y-12553031D01*
X7248753Y-12553031D02*
X7258277Y-12572079D01*
X7258277Y-12572079D02*
X7267801Y-12610174D01*
X7267801Y-12610174D02*
X7267801Y-12657793D01*
X7267801Y-12657793D02*
X7258277Y-12695888D01*
X7258277Y-12695888D02*
X7248753Y-12714936D01*
X7248753Y-12714936D02*
X7239229Y-12724460D01*
X7239229Y-12724460D02*
X7220182Y-12733984D01*
X7220182Y-12733984D02*
X7201134Y-12733984D01*
X7201134Y-12733984D02*
X7182086Y-12724460D01*
X7182086Y-12724460D02*
X7172563Y-12714936D01*
X7172563Y-12714936D02*
X7163039Y-12695888D01*
X7163039Y-12695888D02*
X7153515Y-12657793D01*
X7153515Y-12657793D02*
X7153515Y-12610174D01*
X7153515Y-12610174D02*
X7163039Y-12572079D01*
X7163039Y-12572079D02*
X7172563Y-12553031D01*
X7172563Y-12553031D02*
X7182086Y-12543508D01*
X7182086Y-12543508D02*
X7201134Y-12533984D01*
X7353515Y-12714936D02*
X7363039Y-12724460D01*
X7363039Y-12724460D02*
X7353515Y-12733984D01*
X7353515Y-12733984D02*
X7343991Y-12724460D01*
X7343991Y-12724460D02*
X7353515Y-12714936D01*
X7353515Y-12714936D02*
X7353515Y-12733984D01*
X7486848Y-12533984D02*
X7505896Y-12533984D01*
X7505896Y-12533984D02*
X7524944Y-12543508D01*
X7524944Y-12543508D02*
X7534467Y-12553031D01*
X7534467Y-12553031D02*
X7543991Y-12572079D01*
X7543991Y-12572079D02*
X7553515Y-12610174D01*
X7553515Y-12610174D02*
X7553515Y-12657793D01*
X7553515Y-12657793D02*
X7543991Y-12695888D01*
X7543991Y-12695888D02*
X7534467Y-12714936D01*
X7534467Y-12714936D02*
X7524944Y-12724460D01*
X7524944Y-12724460D02*
X7505896Y-12733984D01*
X7505896Y-12733984D02*
X7486848Y-12733984D01*
X7486848Y-12733984D02*
X7467801Y-12724460D01*
X7467801Y-12724460D02*
X7458277Y-12714936D01*
X7458277Y-12714936D02*
X7448753Y-12695888D01*
X7448753Y-12695888D02*
X7439229Y-12657793D01*
X7439229Y-12657793D02*
X7439229Y-12610174D01*
X7439229Y-12610174D02*
X7448753Y-12572079D01*
X7448753Y-12572079D02*
X7458277Y-12553031D01*
X7458277Y-12553031D02*
X7467801Y-12543508D01*
X7467801Y-12543508D02*
X7486848Y-12533984D01*
X7743991Y-12733984D02*
X7629706Y-12733984D01*
X7686848Y-12733984D02*
X7686848Y-12533984D01*
X7686848Y-12533984D02*
X7667801Y-12562555D01*
X7667801Y-12562555D02*
X7648753Y-12581603D01*
X7648753Y-12581603D02*
X7629706Y-12591127D01*
X7934467Y-12733984D02*
X7820182Y-12733984D01*
X7877325Y-12733984D02*
X7877325Y-12533984D01*
X7877325Y-12533984D02*
X7858277Y-12562555D01*
X7858277Y-12562555D02*
X7839229Y-12581603D01*
X7839229Y-12581603D02*
X7820182Y-12591127D01*
X8048753Y-12619698D02*
X8029706Y-12610174D01*
X8029706Y-12610174D02*
X8020182Y-12600650D01*
X8020182Y-12600650D02*
X8010658Y-12581603D01*
X8010658Y-12581603D02*
X8010658Y-12572079D01*
X8010658Y-12572079D02*
X8020182Y-12553031D01*
X8020182Y-12553031D02*
X8029706Y-12543508D01*
X8029706Y-12543508D02*
X8048753Y-12533984D01*
X8048753Y-12533984D02*
X8086848Y-12533984D01*
X8086848Y-12533984D02*
X8105896Y-12543508D01*
X8105896Y-12543508D02*
X8115420Y-12553031D01*
X8115420Y-12553031D02*
X8124944Y-12572079D01*
X8124944Y-12572079D02*
X8124944Y-12581603D01*
X8124944Y-12581603D02*
X8115420Y-12600650D01*
X8115420Y-12600650D02*
X8105896Y-12610174D01*
X8105896Y-12610174D02*
X8086848Y-12619698D01*
X8086848Y-12619698D02*
X8048753Y-12619698D01*
X8048753Y-12619698D02*
X8029706Y-12629222D01*
X8029706Y-12629222D02*
X8020182Y-12638746D01*
X8020182Y-12638746D02*
X8010658Y-12657793D01*
X8010658Y-12657793D02*
X8010658Y-12695888D01*
X8010658Y-12695888D02*
X8020182Y-12714936D01*
X8020182Y-12714936D02*
X8029706Y-12724460D01*
X8029706Y-12724460D02*
X8048753Y-12733984D01*
X8048753Y-12733984D02*
X8086848Y-12733984D01*
X8086848Y-12733984D02*
X8105896Y-12724460D01*
X8105896Y-12724460D02*
X8115420Y-12714936D01*
X8115420Y-12714936D02*
X8124944Y-12695888D01*
X8124944Y-12695888D02*
X8124944Y-12657793D01*
X8124944Y-12657793D02*
X8115420Y-12638746D01*
X8115420Y-12638746D02*
X8105896Y-12629222D01*
X8105896Y-12629222D02*
X8086848Y-12619698D01*
X8201134Y-12533984D02*
X8201134Y-12572079D01*
X8277325Y-12533984D02*
X8277325Y-12572079D01*
X8572563Y-12810174D02*
X8563039Y-12800650D01*
X8563039Y-12800650D02*
X8543991Y-12772079D01*
X8543991Y-12772079D02*
X8534468Y-12753031D01*
X8534468Y-12753031D02*
X8524944Y-12724460D01*
X8524944Y-12724460D02*
X8515420Y-12676841D01*
X8515420Y-12676841D02*
X8515420Y-12638746D01*
X8515420Y-12638746D02*
X8524944Y-12591127D01*
X8524944Y-12591127D02*
X8534468Y-12562555D01*
X8534468Y-12562555D02*
X8543991Y-12543508D01*
X8543991Y-12543508D02*
X8563039Y-12514936D01*
X8563039Y-12514936D02*
X8572563Y-12505412D01*
X8753515Y-12733984D02*
X8639230Y-12733984D01*
X8696372Y-12733984D02*
X8696372Y-12533984D01*
X8696372Y-12533984D02*
X8677325Y-12562555D01*
X8677325Y-12562555D02*
X8658277Y-12581603D01*
X8658277Y-12581603D02*
X8639230Y-12591127D01*
X8943991Y-12733984D02*
X8829706Y-12733984D01*
X8886849Y-12733984D02*
X8886849Y-12533984D01*
X8886849Y-12533984D02*
X8867801Y-12562555D01*
X8867801Y-12562555D02*
X8848753Y-12581603D01*
X8848753Y-12581603D02*
X8829706Y-12591127D01*
X9058277Y-12619698D02*
X9039230Y-12610174D01*
X9039230Y-12610174D02*
X9029706Y-12600650D01*
X9029706Y-12600650D02*
X9020182Y-12581603D01*
X9020182Y-12581603D02*
X9020182Y-12572079D01*
X9020182Y-12572079D02*
X9029706Y-12553031D01*
X9029706Y-12553031D02*
X9039230Y-12543508D01*
X9039230Y-12543508D02*
X9058277Y-12533984D01*
X9058277Y-12533984D02*
X9096372Y-12533984D01*
X9096372Y-12533984D02*
X9115420Y-12543508D01*
X9115420Y-12543508D02*
X9124944Y-12553031D01*
X9124944Y-12553031D02*
X9134468Y-12572079D01*
X9134468Y-12572079D02*
X9134468Y-12581603D01*
X9134468Y-12581603D02*
X9124944Y-12600650D01*
X9124944Y-12600650D02*
X9115420Y-12610174D01*
X9115420Y-12610174D02*
X9096372Y-12619698D01*
X9096372Y-12619698D02*
X9058277Y-12619698D01*
X9058277Y-12619698D02*
X9039230Y-12629222D01*
X9039230Y-12629222D02*
X9029706Y-12638746D01*
X9029706Y-12638746D02*
X9020182Y-12657793D01*
X9020182Y-12657793D02*
X9020182Y-12695888D01*
X9020182Y-12695888D02*
X9029706Y-12714936D01*
X9029706Y-12714936D02*
X9039230Y-12724460D01*
X9039230Y-12724460D02*
X9058277Y-12733984D01*
X9058277Y-12733984D02*
X9096372Y-12733984D01*
X9096372Y-12733984D02*
X9115420Y-12724460D01*
X9115420Y-12724460D02*
X9124944Y-12714936D01*
X9124944Y-12714936D02*
X9134468Y-12695888D01*
X9134468Y-12695888D02*
X9134468Y-12657793D01*
X9134468Y-12657793D02*
X9124944Y-12638746D01*
X9124944Y-12638746D02*
X9115420Y-12629222D01*
X9115420Y-12629222D02*
X9096372Y-12619698D01*
X9372563Y-12733984D02*
X9372563Y-12533984D01*
X9458277Y-12733984D02*
X9458277Y-12629222D01*
X9458277Y-12629222D02*
X9448753Y-12610174D01*
X9448753Y-12610174D02*
X9429706Y-12600650D01*
X9429706Y-12600650D02*
X9401134Y-12600650D01*
X9401134Y-12600650D02*
X9382087Y-12610174D01*
X9382087Y-12610174D02*
X9372563Y-12619698D01*
X9582087Y-12733984D02*
X9563039Y-12724460D01*
X9563039Y-12724460D02*
X9553515Y-12714936D01*
X9553515Y-12714936D02*
X9543992Y-12695888D01*
X9543992Y-12695888D02*
X9543992Y-12638746D01*
X9543992Y-12638746D02*
X9553515Y-12619698D01*
X9553515Y-12619698D02*
X9563039Y-12610174D01*
X9563039Y-12610174D02*
X9582087Y-12600650D01*
X9582087Y-12600650D02*
X9610658Y-12600650D01*
X9610658Y-12600650D02*
X9629706Y-12610174D01*
X9629706Y-12610174D02*
X9639230Y-12619698D01*
X9639230Y-12619698D02*
X9648753Y-12638746D01*
X9648753Y-12638746D02*
X9648753Y-12695888D01*
X9648753Y-12695888D02*
X9639230Y-12714936D01*
X9639230Y-12714936D02*
X9629706Y-12724460D01*
X9629706Y-12724460D02*
X9610658Y-12733984D01*
X9610658Y-12733984D02*
X9582087Y-12733984D01*
X9763039Y-12733984D02*
X9743992Y-12724460D01*
X9743992Y-12724460D02*
X9734468Y-12705412D01*
X9734468Y-12705412D02*
X9734468Y-12533984D01*
X9915420Y-12724460D02*
X9896373Y-12733984D01*
X9896373Y-12733984D02*
X9858277Y-12733984D01*
X9858277Y-12733984D02*
X9839230Y-12724460D01*
X9839230Y-12724460D02*
X9829706Y-12705412D01*
X9829706Y-12705412D02*
X9829706Y-12629222D01*
X9829706Y-12629222D02*
X9839230Y-12610174D01*
X9839230Y-12610174D02*
X9858277Y-12600650D01*
X9858277Y-12600650D02*
X9896373Y-12600650D01*
X9896373Y-12600650D02*
X9915420Y-12610174D01*
X9915420Y-12610174D02*
X9924944Y-12629222D01*
X9924944Y-12629222D02*
X9924944Y-12648269D01*
X9924944Y-12648269D02*
X9829706Y-12667317D01*
X10001134Y-12724460D02*
X10020182Y-12733984D01*
X10020182Y-12733984D02*
X10058277Y-12733984D01*
X10058277Y-12733984D02*
X10077325Y-12724460D01*
X10077325Y-12724460D02*
X10086849Y-12705412D01*
X10086849Y-12705412D02*
X10086849Y-12695888D01*
X10086849Y-12695888D02*
X10077325Y-12676841D01*
X10077325Y-12676841D02*
X10058277Y-12667317D01*
X10058277Y-12667317D02*
X10029706Y-12667317D01*
X10029706Y-12667317D02*
X10010658Y-12657793D01*
X10010658Y-12657793D02*
X10001134Y-12638746D01*
X10001134Y-12638746D02*
X10001134Y-12629222D01*
X10001134Y-12629222D02*
X10010658Y-12610174D01*
X10010658Y-12610174D02*
X10029706Y-12600650D01*
X10029706Y-12600650D02*
X10058277Y-12600650D01*
X10058277Y-12600650D02*
X10077325Y-12610174D01*
X10153515Y-12810174D02*
X10163039Y-12800650D01*
X10163039Y-12800650D02*
X10182087Y-12772079D01*
X10182087Y-12772079D02*
X10191611Y-12753031D01*
X10191611Y-12753031D02*
X10201134Y-12724460D01*
X10201134Y-12724460D02*
X10210658Y-12676841D01*
X10210658Y-12676841D02*
X10210658Y-12638746D01*
X10210658Y-12638746D02*
X10201134Y-12591127D01*
X10201134Y-12591127D02*
X10191611Y-12562555D01*
X10191611Y-12562555D02*
X10182087Y-12543508D01*
X10182087Y-12543508D02*
X10163039Y-12514936D01*
X10163039Y-12514936D02*
X10153515Y-12505412D01*
D12*
X4997500Y-12906500D02*
G75*
G02*
X4947500Y-12906500I-25000J0D01*
G01*
X4947500Y-12906500D02*
G75*
G02*
X4997500Y-12906500I25000J0D01*
G01*
D11*
X5296372Y-12797984D02*
X5315420Y-12797984D01*
X5315420Y-12797984D02*
X5334467Y-12807508D01*
X5334467Y-12807508D02*
X5343991Y-12817031D01*
X5343991Y-12817031D02*
X5353515Y-12836079D01*
X5353515Y-12836079D02*
X5363039Y-12874174D01*
X5363039Y-12874174D02*
X5363039Y-12921793D01*
X5363039Y-12921793D02*
X5353515Y-12959888D01*
X5353515Y-12959888D02*
X5343991Y-12978936D01*
X5343991Y-12978936D02*
X5334467Y-12988460D01*
X5334467Y-12988460D02*
X5315420Y-12997984D01*
X5315420Y-12997984D02*
X5296372Y-12997984D01*
X5296372Y-12997984D02*
X5277324Y-12988460D01*
X5277324Y-12988460D02*
X5267801Y-12978936D01*
X5267801Y-12978936D02*
X5258277Y-12959888D01*
X5258277Y-12959888D02*
X5248753Y-12921793D01*
X5248753Y-12921793D02*
X5248753Y-12874174D01*
X5248753Y-12874174D02*
X5258277Y-12836079D01*
X5258277Y-12836079D02*
X5267801Y-12817031D01*
X5267801Y-12817031D02*
X5277324Y-12807508D01*
X5277324Y-12807508D02*
X5296372Y-12797984D01*
X5448753Y-12978936D02*
X5458277Y-12988460D01*
X5458277Y-12988460D02*
X5448753Y-12997984D01*
X5448753Y-12997984D02*
X5439229Y-12988460D01*
X5439229Y-12988460D02*
X5448753Y-12978936D01*
X5448753Y-12978936D02*
X5448753Y-12997984D01*
X5639229Y-12797984D02*
X5543991Y-12797984D01*
X5543991Y-12797984D02*
X5534467Y-12893222D01*
X5534467Y-12893222D02*
X5543991Y-12883698D01*
X5543991Y-12883698D02*
X5563039Y-12874174D01*
X5563039Y-12874174D02*
X5610658Y-12874174D01*
X5610658Y-12874174D02*
X5629705Y-12883698D01*
X5629705Y-12883698D02*
X5639229Y-12893222D01*
X5639229Y-12893222D02*
X5648753Y-12912269D01*
X5648753Y-12912269D02*
X5648753Y-12959888D01*
X5648753Y-12959888D02*
X5639229Y-12978936D01*
X5639229Y-12978936D02*
X5629705Y-12988460D01*
X5629705Y-12988460D02*
X5610658Y-12997984D01*
X5610658Y-12997984D02*
X5563039Y-12997984D01*
X5563039Y-12997984D02*
X5543991Y-12988460D01*
X5543991Y-12988460D02*
X5534467Y-12978936D01*
X5772562Y-12797984D02*
X5791610Y-12797984D01*
X5791610Y-12797984D02*
X5810658Y-12807508D01*
X5810658Y-12807508D02*
X5820182Y-12817031D01*
X5820182Y-12817031D02*
X5829705Y-12836079D01*
X5829705Y-12836079D02*
X5839229Y-12874174D01*
X5839229Y-12874174D02*
X5839229Y-12921793D01*
X5839229Y-12921793D02*
X5829705Y-12959888D01*
X5829705Y-12959888D02*
X5820182Y-12978936D01*
X5820182Y-12978936D02*
X5810658Y-12988460D01*
X5810658Y-12988460D02*
X5791610Y-12997984D01*
X5791610Y-12997984D02*
X5772562Y-12997984D01*
X5772562Y-12997984D02*
X5753515Y-12988460D01*
X5753515Y-12988460D02*
X5743991Y-12978936D01*
X5743991Y-12978936D02*
X5734467Y-12959888D01*
X5734467Y-12959888D02*
X5724943Y-12921793D01*
X5724943Y-12921793D02*
X5724943Y-12874174D01*
X5724943Y-12874174D02*
X5734467Y-12836079D01*
X5734467Y-12836079D02*
X5743991Y-12817031D01*
X5743991Y-12817031D02*
X5753515Y-12807508D01*
X5753515Y-12807508D02*
X5772562Y-12797984D01*
X5963039Y-12797984D02*
X5982086Y-12797984D01*
X5982086Y-12797984D02*
X6001134Y-12807508D01*
X6001134Y-12807508D02*
X6010658Y-12817031D01*
X6010658Y-12817031D02*
X6020182Y-12836079D01*
X6020182Y-12836079D02*
X6029705Y-12874174D01*
X6029705Y-12874174D02*
X6029705Y-12921793D01*
X6029705Y-12921793D02*
X6020182Y-12959888D01*
X6020182Y-12959888D02*
X6010658Y-12978936D01*
X6010658Y-12978936D02*
X6001134Y-12988460D01*
X6001134Y-12988460D02*
X5982086Y-12997984D01*
X5982086Y-12997984D02*
X5963039Y-12997984D01*
X5963039Y-12997984D02*
X5943991Y-12988460D01*
X5943991Y-12988460D02*
X5934467Y-12978936D01*
X5934467Y-12978936D02*
X5924943Y-12959888D01*
X5924943Y-12959888D02*
X5915420Y-12921793D01*
X5915420Y-12921793D02*
X5915420Y-12874174D01*
X5915420Y-12874174D02*
X5924943Y-12836079D01*
X5924943Y-12836079D02*
X5934467Y-12817031D01*
X5934467Y-12817031D02*
X5943991Y-12807508D01*
X5943991Y-12807508D02*
X5963039Y-12797984D01*
X6115420Y-12997984D02*
X6115420Y-12864650D01*
X6115420Y-12883698D02*
X6124943Y-12874174D01*
X6124943Y-12874174D02*
X6143991Y-12864650D01*
X6143991Y-12864650D02*
X6172563Y-12864650D01*
X6172563Y-12864650D02*
X6191610Y-12874174D01*
X6191610Y-12874174D02*
X6201134Y-12893222D01*
X6201134Y-12893222D02*
X6201134Y-12997984D01*
X6201134Y-12893222D02*
X6210658Y-12874174D01*
X6210658Y-12874174D02*
X6229705Y-12864650D01*
X6229705Y-12864650D02*
X6258277Y-12864650D01*
X6258277Y-12864650D02*
X6277324Y-12874174D01*
X6277324Y-12874174D02*
X6286848Y-12893222D01*
X6286848Y-12893222D02*
X6286848Y-12997984D01*
X6382086Y-12997984D02*
X6382086Y-12864650D01*
X6382086Y-12883698D02*
X6391610Y-12874174D01*
X6391610Y-12874174D02*
X6410658Y-12864650D01*
X6410658Y-12864650D02*
X6439229Y-12864650D01*
X6439229Y-12864650D02*
X6458277Y-12874174D01*
X6458277Y-12874174D02*
X6467801Y-12893222D01*
X6467801Y-12893222D02*
X6467801Y-12997984D01*
X6467801Y-12893222D02*
X6477324Y-12874174D01*
X6477324Y-12874174D02*
X6496372Y-12864650D01*
X6496372Y-12864650D02*
X6524943Y-12864650D01*
X6524943Y-12864650D02*
X6543991Y-12874174D01*
X6543991Y-12874174D02*
X6553515Y-12893222D01*
X6553515Y-12893222D02*
X6553515Y-12997984D01*
X6943991Y-12788460D02*
X6772563Y-13045603D01*
X7201134Y-12797984D02*
X7220182Y-12797984D01*
X7220182Y-12797984D02*
X7239229Y-12807508D01*
X7239229Y-12807508D02*
X7248753Y-12817031D01*
X7248753Y-12817031D02*
X7258277Y-12836079D01*
X7258277Y-12836079D02*
X7267801Y-12874174D01*
X7267801Y-12874174D02*
X7267801Y-12921793D01*
X7267801Y-12921793D02*
X7258277Y-12959888D01*
X7258277Y-12959888D02*
X7248753Y-12978936D01*
X7248753Y-12978936D02*
X7239229Y-12988460D01*
X7239229Y-12988460D02*
X7220182Y-12997984D01*
X7220182Y-12997984D02*
X7201134Y-12997984D01*
X7201134Y-12997984D02*
X7182086Y-12988460D01*
X7182086Y-12988460D02*
X7172563Y-12978936D01*
X7172563Y-12978936D02*
X7163039Y-12959888D01*
X7163039Y-12959888D02*
X7153515Y-12921793D01*
X7153515Y-12921793D02*
X7153515Y-12874174D01*
X7153515Y-12874174D02*
X7163039Y-12836079D01*
X7163039Y-12836079D02*
X7172563Y-12817031D01*
X7172563Y-12817031D02*
X7182086Y-12807508D01*
X7182086Y-12807508D02*
X7201134Y-12797984D01*
X7353515Y-12978936D02*
X7363039Y-12988460D01*
X7363039Y-12988460D02*
X7353515Y-12997984D01*
X7353515Y-12997984D02*
X7343991Y-12988460D01*
X7343991Y-12988460D02*
X7353515Y-12978936D01*
X7353515Y-12978936D02*
X7353515Y-12997984D01*
X7486848Y-12797984D02*
X7505896Y-12797984D01*
X7505896Y-12797984D02*
X7524944Y-12807508D01*
X7524944Y-12807508D02*
X7534467Y-12817031D01*
X7534467Y-12817031D02*
X7543991Y-12836079D01*
X7543991Y-12836079D02*
X7553515Y-12874174D01*
X7553515Y-12874174D02*
X7553515Y-12921793D01*
X7553515Y-12921793D02*
X7543991Y-12959888D01*
X7543991Y-12959888D02*
X7534467Y-12978936D01*
X7534467Y-12978936D02*
X7524944Y-12988460D01*
X7524944Y-12988460D02*
X7505896Y-12997984D01*
X7505896Y-12997984D02*
X7486848Y-12997984D01*
X7486848Y-12997984D02*
X7467801Y-12988460D01*
X7467801Y-12988460D02*
X7458277Y-12978936D01*
X7458277Y-12978936D02*
X7448753Y-12959888D01*
X7448753Y-12959888D02*
X7439229Y-12921793D01*
X7439229Y-12921793D02*
X7439229Y-12874174D01*
X7439229Y-12874174D02*
X7448753Y-12836079D01*
X7448753Y-12836079D02*
X7458277Y-12817031D01*
X7458277Y-12817031D02*
X7467801Y-12807508D01*
X7467801Y-12807508D02*
X7486848Y-12797984D01*
X7743991Y-12997984D02*
X7629706Y-12997984D01*
X7686848Y-12997984D02*
X7686848Y-12797984D01*
X7686848Y-12797984D02*
X7667801Y-12826555D01*
X7667801Y-12826555D02*
X7648753Y-12845603D01*
X7648753Y-12845603D02*
X7629706Y-12855127D01*
X7839229Y-12997984D02*
X7877325Y-12997984D01*
X7877325Y-12997984D02*
X7896372Y-12988460D01*
X7896372Y-12988460D02*
X7905896Y-12978936D01*
X7905896Y-12978936D02*
X7924944Y-12950365D01*
X7924944Y-12950365D02*
X7934467Y-12912269D01*
X7934467Y-12912269D02*
X7934467Y-12836079D01*
X7934467Y-12836079D02*
X7924944Y-12817031D01*
X7924944Y-12817031D02*
X7915420Y-12807508D01*
X7915420Y-12807508D02*
X7896372Y-12797984D01*
X7896372Y-12797984D02*
X7858277Y-12797984D01*
X7858277Y-12797984D02*
X7839229Y-12807508D01*
X7839229Y-12807508D02*
X7829706Y-12817031D01*
X7829706Y-12817031D02*
X7820182Y-12836079D01*
X7820182Y-12836079D02*
X7820182Y-12883698D01*
X7820182Y-12883698D02*
X7829706Y-12902746D01*
X7829706Y-12902746D02*
X7839229Y-12912269D01*
X7839229Y-12912269D02*
X7858277Y-12921793D01*
X7858277Y-12921793D02*
X7896372Y-12921793D01*
X7896372Y-12921793D02*
X7915420Y-12912269D01*
X7915420Y-12912269D02*
X7924944Y-12902746D01*
X7924944Y-12902746D02*
X7934467Y-12883698D01*
X8001134Y-12797984D02*
X8134467Y-12797984D01*
X8134467Y-12797984D02*
X8048753Y-12997984D01*
X8201134Y-12797984D02*
X8201134Y-12836079D01*
X8277325Y-12797984D02*
X8277325Y-12836079D01*
X8572563Y-13074174D02*
X8563039Y-13064650D01*
X8563039Y-13064650D02*
X8543991Y-13036079D01*
X8543991Y-13036079D02*
X8534468Y-13017031D01*
X8534468Y-13017031D02*
X8524944Y-12988460D01*
X8524944Y-12988460D02*
X8515420Y-12940841D01*
X8515420Y-12940841D02*
X8515420Y-12902746D01*
X8515420Y-12902746D02*
X8524944Y-12855127D01*
X8524944Y-12855127D02*
X8534468Y-12826555D01*
X8534468Y-12826555D02*
X8543991Y-12807508D01*
X8543991Y-12807508D02*
X8563039Y-12778936D01*
X8563039Y-12778936D02*
X8572563Y-12769412D01*
X8639230Y-12817031D02*
X8648753Y-12807508D01*
X8648753Y-12807508D02*
X8667801Y-12797984D01*
X8667801Y-12797984D02*
X8715420Y-12797984D01*
X8715420Y-12797984D02*
X8734468Y-12807508D01*
X8734468Y-12807508D02*
X8743991Y-12817031D01*
X8743991Y-12817031D02*
X8753515Y-12836079D01*
X8753515Y-12836079D02*
X8753515Y-12855127D01*
X8753515Y-12855127D02*
X8743991Y-12883698D01*
X8743991Y-12883698D02*
X8629706Y-12997984D01*
X8629706Y-12997984D02*
X8753515Y-12997984D01*
X8877325Y-12797984D02*
X8896372Y-12797984D01*
X8896372Y-12797984D02*
X8915420Y-12807508D01*
X8915420Y-12807508D02*
X8924944Y-12817031D01*
X8924944Y-12817031D02*
X8934468Y-12836079D01*
X8934468Y-12836079D02*
X8943991Y-12874174D01*
X8943991Y-12874174D02*
X8943991Y-12921793D01*
X8943991Y-12921793D02*
X8934468Y-12959888D01*
X8934468Y-12959888D02*
X8924944Y-12978936D01*
X8924944Y-12978936D02*
X8915420Y-12988460D01*
X8915420Y-12988460D02*
X8896372Y-12997984D01*
X8896372Y-12997984D02*
X8877325Y-12997984D01*
X8877325Y-12997984D02*
X8858277Y-12988460D01*
X8858277Y-12988460D02*
X8848753Y-12978936D01*
X8848753Y-12978936D02*
X8839230Y-12959888D01*
X8839230Y-12959888D02*
X8829706Y-12921793D01*
X8829706Y-12921793D02*
X8829706Y-12874174D01*
X8829706Y-12874174D02*
X8839230Y-12836079D01*
X8839230Y-12836079D02*
X8848753Y-12817031D01*
X8848753Y-12817031D02*
X8858277Y-12807508D01*
X8858277Y-12807508D02*
X8877325Y-12797984D01*
X9182087Y-12997984D02*
X9182087Y-12797984D01*
X9267801Y-12997984D02*
X9267801Y-12893222D01*
X9267801Y-12893222D02*
X9258277Y-12874174D01*
X9258277Y-12874174D02*
X9239230Y-12864650D01*
X9239230Y-12864650D02*
X9210658Y-12864650D01*
X9210658Y-12864650D02*
X9191611Y-12874174D01*
X9191611Y-12874174D02*
X9182087Y-12883698D01*
X9391611Y-12997984D02*
X9372563Y-12988460D01*
X9372563Y-12988460D02*
X9363039Y-12978936D01*
X9363039Y-12978936D02*
X9353515Y-12959888D01*
X9353515Y-12959888D02*
X9353515Y-12902746D01*
X9353515Y-12902746D02*
X9363039Y-12883698D01*
X9363039Y-12883698D02*
X9372563Y-12874174D01*
X9372563Y-12874174D02*
X9391611Y-12864650D01*
X9391611Y-12864650D02*
X9420182Y-12864650D01*
X9420182Y-12864650D02*
X9439230Y-12874174D01*
X9439230Y-12874174D02*
X9448753Y-12883698D01*
X9448753Y-12883698D02*
X9458277Y-12902746D01*
X9458277Y-12902746D02*
X9458277Y-12959888D01*
X9458277Y-12959888D02*
X9448753Y-12978936D01*
X9448753Y-12978936D02*
X9439230Y-12988460D01*
X9439230Y-12988460D02*
X9420182Y-12997984D01*
X9420182Y-12997984D02*
X9391611Y-12997984D01*
X9572563Y-12997984D02*
X9553515Y-12988460D01*
X9553515Y-12988460D02*
X9543992Y-12969412D01*
X9543992Y-12969412D02*
X9543992Y-12797984D01*
X9724944Y-12988460D02*
X9705896Y-12997984D01*
X9705896Y-12997984D02*
X9667801Y-12997984D01*
X9667801Y-12997984D02*
X9648753Y-12988460D01*
X9648753Y-12988460D02*
X9639230Y-12969412D01*
X9639230Y-12969412D02*
X9639230Y-12893222D01*
X9639230Y-12893222D02*
X9648753Y-12874174D01*
X9648753Y-12874174D02*
X9667801Y-12864650D01*
X9667801Y-12864650D02*
X9705896Y-12864650D01*
X9705896Y-12864650D02*
X9724944Y-12874174D01*
X9724944Y-12874174D02*
X9734468Y-12893222D01*
X9734468Y-12893222D02*
X9734468Y-12912269D01*
X9734468Y-12912269D02*
X9639230Y-12931317D01*
X9810658Y-12988460D02*
X9829706Y-12997984D01*
X9829706Y-12997984D02*
X9867801Y-12997984D01*
X9867801Y-12997984D02*
X9886849Y-12988460D01*
X9886849Y-12988460D02*
X9896373Y-12969412D01*
X9896373Y-12969412D02*
X9896373Y-12959888D01*
X9896373Y-12959888D02*
X9886849Y-12940841D01*
X9886849Y-12940841D02*
X9867801Y-12931317D01*
X9867801Y-12931317D02*
X9839230Y-12931317D01*
X9839230Y-12931317D02*
X9820182Y-12921793D01*
X9820182Y-12921793D02*
X9810658Y-12902746D01*
X9810658Y-12902746D02*
X9810658Y-12893222D01*
X9810658Y-12893222D02*
X9820182Y-12874174D01*
X9820182Y-12874174D02*
X9839230Y-12864650D01*
X9839230Y-12864650D02*
X9867801Y-12864650D01*
X9867801Y-12864650D02*
X9886849Y-12874174D01*
X9963039Y-13074174D02*
X9972563Y-13064650D01*
X9972563Y-13064650D02*
X9991611Y-13036079D01*
X9991611Y-13036079D02*
X10001134Y-13017031D01*
X10001134Y-13017031D02*
X10010658Y-12988460D01*
X10010658Y-12988460D02*
X10020182Y-12940841D01*
X10020182Y-12940841D02*
X10020182Y-12902746D01*
X10020182Y-12902746D02*
X10010658Y-12855127D01*
X10010658Y-12855127D02*
X10001134Y-12826555D01*
X10001134Y-12826555D02*
X9991611Y-12807508D01*
X9991611Y-12807508D02*
X9972563Y-12778936D01*
X9972563Y-12778936D02*
X9963039Y-12769412D01*
D12*
X4967500Y-13140500D02*
X4967500Y-13200500D01*
X4937500Y-13170500D02*
X4997500Y-13170500D01*
D11*
X5296372Y-13061984D02*
X5315420Y-13061984D01*
X5315420Y-13061984D02*
X5334467Y-13071508D01*
X5334467Y-13071508D02*
X5343991Y-13081031D01*
X5343991Y-13081031D02*
X5353515Y-13100079D01*
X5353515Y-13100079D02*
X5363039Y-13138174D01*
X5363039Y-13138174D02*
X5363039Y-13185793D01*
X5363039Y-13185793D02*
X5353515Y-13223888D01*
X5353515Y-13223888D02*
X5343991Y-13242936D01*
X5343991Y-13242936D02*
X5334467Y-13252460D01*
X5334467Y-13252460D02*
X5315420Y-13261984D01*
X5315420Y-13261984D02*
X5296372Y-13261984D01*
X5296372Y-13261984D02*
X5277324Y-13252460D01*
X5277324Y-13252460D02*
X5267801Y-13242936D01*
X5267801Y-13242936D02*
X5258277Y-13223888D01*
X5258277Y-13223888D02*
X5248753Y-13185793D01*
X5248753Y-13185793D02*
X5248753Y-13138174D01*
X5248753Y-13138174D02*
X5258277Y-13100079D01*
X5258277Y-13100079D02*
X5267801Y-13081031D01*
X5267801Y-13081031D02*
X5277324Y-13071508D01*
X5277324Y-13071508D02*
X5296372Y-13061984D01*
X5448753Y-13242936D02*
X5458277Y-13252460D01*
X5458277Y-13252460D02*
X5448753Y-13261984D01*
X5448753Y-13261984D02*
X5439229Y-13252460D01*
X5439229Y-13252460D02*
X5448753Y-13242936D01*
X5448753Y-13242936D02*
X5448753Y-13261984D01*
X5629705Y-13061984D02*
X5591610Y-13061984D01*
X5591610Y-13061984D02*
X5572563Y-13071508D01*
X5572563Y-13071508D02*
X5563039Y-13081031D01*
X5563039Y-13081031D02*
X5543991Y-13109603D01*
X5543991Y-13109603D02*
X5534467Y-13147698D01*
X5534467Y-13147698D02*
X5534467Y-13223888D01*
X5534467Y-13223888D02*
X5543991Y-13242936D01*
X5543991Y-13242936D02*
X5553515Y-13252460D01*
X5553515Y-13252460D02*
X5572563Y-13261984D01*
X5572563Y-13261984D02*
X5610658Y-13261984D01*
X5610658Y-13261984D02*
X5629705Y-13252460D01*
X5629705Y-13252460D02*
X5639229Y-13242936D01*
X5639229Y-13242936D02*
X5648753Y-13223888D01*
X5648753Y-13223888D02*
X5648753Y-13176269D01*
X5648753Y-13176269D02*
X5639229Y-13157222D01*
X5639229Y-13157222D02*
X5629705Y-13147698D01*
X5629705Y-13147698D02*
X5610658Y-13138174D01*
X5610658Y-13138174D02*
X5572563Y-13138174D01*
X5572563Y-13138174D02*
X5553515Y-13147698D01*
X5553515Y-13147698D02*
X5543991Y-13157222D01*
X5543991Y-13157222D02*
X5534467Y-13176269D01*
X5772562Y-13061984D02*
X5791610Y-13061984D01*
X5791610Y-13061984D02*
X5810658Y-13071508D01*
X5810658Y-13071508D02*
X5820182Y-13081031D01*
X5820182Y-13081031D02*
X5829705Y-13100079D01*
X5829705Y-13100079D02*
X5839229Y-13138174D01*
X5839229Y-13138174D02*
X5839229Y-13185793D01*
X5839229Y-13185793D02*
X5829705Y-13223888D01*
X5829705Y-13223888D02*
X5820182Y-13242936D01*
X5820182Y-13242936D02*
X5810658Y-13252460D01*
X5810658Y-13252460D02*
X5791610Y-13261984D01*
X5791610Y-13261984D02*
X5772562Y-13261984D01*
X5772562Y-13261984D02*
X5753515Y-13252460D01*
X5753515Y-13252460D02*
X5743991Y-13242936D01*
X5743991Y-13242936D02*
X5734467Y-13223888D01*
X5734467Y-13223888D02*
X5724943Y-13185793D01*
X5724943Y-13185793D02*
X5724943Y-13138174D01*
X5724943Y-13138174D02*
X5734467Y-13100079D01*
X5734467Y-13100079D02*
X5743991Y-13081031D01*
X5743991Y-13081031D02*
X5753515Y-13071508D01*
X5753515Y-13071508D02*
X5772562Y-13061984D01*
X5963039Y-13061984D02*
X5982086Y-13061984D01*
X5982086Y-13061984D02*
X6001134Y-13071508D01*
X6001134Y-13071508D02*
X6010658Y-13081031D01*
X6010658Y-13081031D02*
X6020182Y-13100079D01*
X6020182Y-13100079D02*
X6029705Y-13138174D01*
X6029705Y-13138174D02*
X6029705Y-13185793D01*
X6029705Y-13185793D02*
X6020182Y-13223888D01*
X6020182Y-13223888D02*
X6010658Y-13242936D01*
X6010658Y-13242936D02*
X6001134Y-13252460D01*
X6001134Y-13252460D02*
X5982086Y-13261984D01*
X5982086Y-13261984D02*
X5963039Y-13261984D01*
X5963039Y-13261984D02*
X5943991Y-13252460D01*
X5943991Y-13252460D02*
X5934467Y-13242936D01*
X5934467Y-13242936D02*
X5924943Y-13223888D01*
X5924943Y-13223888D02*
X5915420Y-13185793D01*
X5915420Y-13185793D02*
X5915420Y-13138174D01*
X5915420Y-13138174D02*
X5924943Y-13100079D01*
X5924943Y-13100079D02*
X5934467Y-13081031D01*
X5934467Y-13081031D02*
X5943991Y-13071508D01*
X5943991Y-13071508D02*
X5963039Y-13061984D01*
X6115420Y-13261984D02*
X6115420Y-13128650D01*
X6115420Y-13147698D02*
X6124943Y-13138174D01*
X6124943Y-13138174D02*
X6143991Y-13128650D01*
X6143991Y-13128650D02*
X6172563Y-13128650D01*
X6172563Y-13128650D02*
X6191610Y-13138174D01*
X6191610Y-13138174D02*
X6201134Y-13157222D01*
X6201134Y-13157222D02*
X6201134Y-13261984D01*
X6201134Y-13157222D02*
X6210658Y-13138174D01*
X6210658Y-13138174D02*
X6229705Y-13128650D01*
X6229705Y-13128650D02*
X6258277Y-13128650D01*
X6258277Y-13128650D02*
X6277324Y-13138174D01*
X6277324Y-13138174D02*
X6286848Y-13157222D01*
X6286848Y-13157222D02*
X6286848Y-13261984D01*
X6382086Y-13261984D02*
X6382086Y-13128650D01*
X6382086Y-13147698D02*
X6391610Y-13138174D01*
X6391610Y-13138174D02*
X6410658Y-13128650D01*
X6410658Y-13128650D02*
X6439229Y-13128650D01*
X6439229Y-13128650D02*
X6458277Y-13138174D01*
X6458277Y-13138174D02*
X6467801Y-13157222D01*
X6467801Y-13157222D02*
X6467801Y-13261984D01*
X6467801Y-13157222D02*
X6477324Y-13138174D01*
X6477324Y-13138174D02*
X6496372Y-13128650D01*
X6496372Y-13128650D02*
X6524943Y-13128650D01*
X6524943Y-13128650D02*
X6543991Y-13138174D01*
X6543991Y-13138174D02*
X6553515Y-13157222D01*
X6553515Y-13157222D02*
X6553515Y-13261984D01*
X6943991Y-13052460D02*
X6772563Y-13309603D01*
X7201134Y-13061984D02*
X7220182Y-13061984D01*
X7220182Y-13061984D02*
X7239229Y-13071508D01*
X7239229Y-13071508D02*
X7248753Y-13081031D01*
X7248753Y-13081031D02*
X7258277Y-13100079D01*
X7258277Y-13100079D02*
X7267801Y-13138174D01*
X7267801Y-13138174D02*
X7267801Y-13185793D01*
X7267801Y-13185793D02*
X7258277Y-13223888D01*
X7258277Y-13223888D02*
X7248753Y-13242936D01*
X7248753Y-13242936D02*
X7239229Y-13252460D01*
X7239229Y-13252460D02*
X7220182Y-13261984D01*
X7220182Y-13261984D02*
X7201134Y-13261984D01*
X7201134Y-13261984D02*
X7182086Y-13252460D01*
X7182086Y-13252460D02*
X7172563Y-13242936D01*
X7172563Y-13242936D02*
X7163039Y-13223888D01*
X7163039Y-13223888D02*
X7153515Y-13185793D01*
X7153515Y-13185793D02*
X7153515Y-13138174D01*
X7153515Y-13138174D02*
X7163039Y-13100079D01*
X7163039Y-13100079D02*
X7172563Y-13081031D01*
X7172563Y-13081031D02*
X7182086Y-13071508D01*
X7182086Y-13071508D02*
X7201134Y-13061984D01*
X7353515Y-13242936D02*
X7363039Y-13252460D01*
X7363039Y-13252460D02*
X7353515Y-13261984D01*
X7353515Y-13261984D02*
X7343991Y-13252460D01*
X7343991Y-13252460D02*
X7353515Y-13242936D01*
X7353515Y-13242936D02*
X7353515Y-13261984D01*
X7486848Y-13061984D02*
X7505896Y-13061984D01*
X7505896Y-13061984D02*
X7524944Y-13071508D01*
X7524944Y-13071508D02*
X7534467Y-13081031D01*
X7534467Y-13081031D02*
X7543991Y-13100079D01*
X7543991Y-13100079D02*
X7553515Y-13138174D01*
X7553515Y-13138174D02*
X7553515Y-13185793D01*
X7553515Y-13185793D02*
X7543991Y-13223888D01*
X7543991Y-13223888D02*
X7534467Y-13242936D01*
X7534467Y-13242936D02*
X7524944Y-13252460D01*
X7524944Y-13252460D02*
X7505896Y-13261984D01*
X7505896Y-13261984D02*
X7486848Y-13261984D01*
X7486848Y-13261984D02*
X7467801Y-13252460D01*
X7467801Y-13252460D02*
X7458277Y-13242936D01*
X7458277Y-13242936D02*
X7448753Y-13223888D01*
X7448753Y-13223888D02*
X7439229Y-13185793D01*
X7439229Y-13185793D02*
X7439229Y-13138174D01*
X7439229Y-13138174D02*
X7448753Y-13100079D01*
X7448753Y-13100079D02*
X7458277Y-13081031D01*
X7458277Y-13081031D02*
X7467801Y-13071508D01*
X7467801Y-13071508D02*
X7486848Y-13061984D01*
X7629706Y-13081031D02*
X7639229Y-13071508D01*
X7639229Y-13071508D02*
X7658277Y-13061984D01*
X7658277Y-13061984D02*
X7705896Y-13061984D01*
X7705896Y-13061984D02*
X7724944Y-13071508D01*
X7724944Y-13071508D02*
X7734467Y-13081031D01*
X7734467Y-13081031D02*
X7743991Y-13100079D01*
X7743991Y-13100079D02*
X7743991Y-13119127D01*
X7743991Y-13119127D02*
X7734467Y-13147698D01*
X7734467Y-13147698D02*
X7620182Y-13261984D01*
X7620182Y-13261984D02*
X7743991Y-13261984D01*
X7810658Y-13061984D02*
X7934467Y-13061984D01*
X7934467Y-13061984D02*
X7867801Y-13138174D01*
X7867801Y-13138174D02*
X7896372Y-13138174D01*
X7896372Y-13138174D02*
X7915420Y-13147698D01*
X7915420Y-13147698D02*
X7924944Y-13157222D01*
X7924944Y-13157222D02*
X7934467Y-13176269D01*
X7934467Y-13176269D02*
X7934467Y-13223888D01*
X7934467Y-13223888D02*
X7924944Y-13242936D01*
X7924944Y-13242936D02*
X7915420Y-13252460D01*
X7915420Y-13252460D02*
X7896372Y-13261984D01*
X7896372Y-13261984D02*
X7839229Y-13261984D01*
X7839229Y-13261984D02*
X7820182Y-13252460D01*
X7820182Y-13252460D02*
X7810658Y-13242936D01*
X8105896Y-13061984D02*
X8067801Y-13061984D01*
X8067801Y-13061984D02*
X8048753Y-13071508D01*
X8048753Y-13071508D02*
X8039229Y-13081031D01*
X8039229Y-13081031D02*
X8020182Y-13109603D01*
X8020182Y-13109603D02*
X8010658Y-13147698D01*
X8010658Y-13147698D02*
X8010658Y-13223888D01*
X8010658Y-13223888D02*
X8020182Y-13242936D01*
X8020182Y-13242936D02*
X8029706Y-13252460D01*
X8029706Y-13252460D02*
X8048753Y-13261984D01*
X8048753Y-13261984D02*
X8086848Y-13261984D01*
X8086848Y-13261984D02*
X8105896Y-13252460D01*
X8105896Y-13252460D02*
X8115420Y-13242936D01*
X8115420Y-13242936D02*
X8124944Y-13223888D01*
X8124944Y-13223888D02*
X8124944Y-13176269D01*
X8124944Y-13176269D02*
X8115420Y-13157222D01*
X8115420Y-13157222D02*
X8105896Y-13147698D01*
X8105896Y-13147698D02*
X8086848Y-13138174D01*
X8086848Y-13138174D02*
X8048753Y-13138174D01*
X8048753Y-13138174D02*
X8029706Y-13147698D01*
X8029706Y-13147698D02*
X8020182Y-13157222D01*
X8020182Y-13157222D02*
X8010658Y-13176269D01*
X8201134Y-13061984D02*
X8201134Y-13100079D01*
X8277325Y-13061984D02*
X8277325Y-13100079D01*
X8572563Y-13338174D02*
X8563039Y-13328650D01*
X8563039Y-13328650D02*
X8543991Y-13300079D01*
X8543991Y-13300079D02*
X8534468Y-13281031D01*
X8534468Y-13281031D02*
X8524944Y-13252460D01*
X8524944Y-13252460D02*
X8515420Y-13204841D01*
X8515420Y-13204841D02*
X8515420Y-13166746D01*
X8515420Y-13166746D02*
X8524944Y-13119127D01*
X8524944Y-13119127D02*
X8534468Y-13090555D01*
X8534468Y-13090555D02*
X8543991Y-13071508D01*
X8543991Y-13071508D02*
X8563039Y-13042936D01*
X8563039Y-13042936D02*
X8572563Y-13033412D01*
X8686849Y-13061984D02*
X8705896Y-13061984D01*
X8705896Y-13061984D02*
X8724944Y-13071508D01*
X8724944Y-13071508D02*
X8734468Y-13081031D01*
X8734468Y-13081031D02*
X8743991Y-13100079D01*
X8743991Y-13100079D02*
X8753515Y-13138174D01*
X8753515Y-13138174D02*
X8753515Y-13185793D01*
X8753515Y-13185793D02*
X8743991Y-13223888D01*
X8743991Y-13223888D02*
X8734468Y-13242936D01*
X8734468Y-13242936D02*
X8724944Y-13252460D01*
X8724944Y-13252460D02*
X8705896Y-13261984D01*
X8705896Y-13261984D02*
X8686849Y-13261984D01*
X8686849Y-13261984D02*
X8667801Y-13252460D01*
X8667801Y-13252460D02*
X8658277Y-13242936D01*
X8658277Y-13242936D02*
X8648753Y-13223888D01*
X8648753Y-13223888D02*
X8639230Y-13185793D01*
X8639230Y-13185793D02*
X8639230Y-13138174D01*
X8639230Y-13138174D02*
X8648753Y-13100079D01*
X8648753Y-13100079D02*
X8658277Y-13081031D01*
X8658277Y-13081031D02*
X8667801Y-13071508D01*
X8667801Y-13071508D02*
X8686849Y-13061984D01*
X8991611Y-13261984D02*
X8991611Y-13061984D01*
X9077325Y-13261984D02*
X9077325Y-13157222D01*
X9077325Y-13157222D02*
X9067801Y-13138174D01*
X9067801Y-13138174D02*
X9048753Y-13128650D01*
X9048753Y-13128650D02*
X9020182Y-13128650D01*
X9020182Y-13128650D02*
X9001134Y-13138174D01*
X9001134Y-13138174D02*
X8991611Y-13147698D01*
X9201134Y-13261984D02*
X9182087Y-13252460D01*
X9182087Y-13252460D02*
X9172563Y-13242936D01*
X9172563Y-13242936D02*
X9163039Y-13223888D01*
X9163039Y-13223888D02*
X9163039Y-13166746D01*
X9163039Y-13166746D02*
X9172563Y-13147698D01*
X9172563Y-13147698D02*
X9182087Y-13138174D01*
X9182087Y-13138174D02*
X9201134Y-13128650D01*
X9201134Y-13128650D02*
X9229706Y-13128650D01*
X9229706Y-13128650D02*
X9248753Y-13138174D01*
X9248753Y-13138174D02*
X9258277Y-13147698D01*
X9258277Y-13147698D02*
X9267801Y-13166746D01*
X9267801Y-13166746D02*
X9267801Y-13223888D01*
X9267801Y-13223888D02*
X9258277Y-13242936D01*
X9258277Y-13242936D02*
X9248753Y-13252460D01*
X9248753Y-13252460D02*
X9229706Y-13261984D01*
X9229706Y-13261984D02*
X9201134Y-13261984D01*
X9382087Y-13261984D02*
X9363039Y-13252460D01*
X9363039Y-13252460D02*
X9353515Y-13233412D01*
X9353515Y-13233412D02*
X9353515Y-13061984D01*
X9534468Y-13252460D02*
X9515420Y-13261984D01*
X9515420Y-13261984D02*
X9477325Y-13261984D01*
X9477325Y-13261984D02*
X9458277Y-13252460D01*
X9458277Y-13252460D02*
X9448753Y-13233412D01*
X9448753Y-13233412D02*
X9448753Y-13157222D01*
X9448753Y-13157222D02*
X9458277Y-13138174D01*
X9458277Y-13138174D02*
X9477325Y-13128650D01*
X9477325Y-13128650D02*
X9515420Y-13128650D01*
X9515420Y-13128650D02*
X9534468Y-13138174D01*
X9534468Y-13138174D02*
X9543992Y-13157222D01*
X9543992Y-13157222D02*
X9543992Y-13176269D01*
X9543992Y-13176269D02*
X9448753Y-13195317D01*
X9620182Y-13252460D02*
X9639230Y-13261984D01*
X9639230Y-13261984D02*
X9677325Y-13261984D01*
X9677325Y-13261984D02*
X9696373Y-13252460D01*
X9696373Y-13252460D02*
X9705896Y-13233412D01*
X9705896Y-13233412D02*
X9705896Y-13223888D01*
X9705896Y-13223888D02*
X9696373Y-13204841D01*
X9696373Y-13204841D02*
X9677325Y-13195317D01*
X9677325Y-13195317D02*
X9648753Y-13195317D01*
X9648753Y-13195317D02*
X9629706Y-13185793D01*
X9629706Y-13185793D02*
X9620182Y-13166746D01*
X9620182Y-13166746D02*
X9620182Y-13157222D01*
X9620182Y-13157222D02*
X9629706Y-13138174D01*
X9629706Y-13138174D02*
X9648753Y-13128650D01*
X9648753Y-13128650D02*
X9677325Y-13128650D01*
X9677325Y-13128650D02*
X9696373Y-13138174D01*
X9943992Y-13185793D02*
X10096373Y-13185793D01*
X10020182Y-13261984D02*
X10020182Y-13109603D01*
X10372563Y-13147698D02*
X10353515Y-13138174D01*
X10353515Y-13138174D02*
X10343992Y-13128650D01*
X10343992Y-13128650D02*
X10334468Y-13109603D01*
X10334468Y-13109603D02*
X10334468Y-13100079D01*
X10334468Y-13100079D02*
X10343992Y-13081031D01*
X10343992Y-13081031D02*
X10353515Y-13071508D01*
X10353515Y-13071508D02*
X10372563Y-13061984D01*
X10372563Y-13061984D02*
X10410658Y-13061984D01*
X10410658Y-13061984D02*
X10429706Y-13071508D01*
X10429706Y-13071508D02*
X10439230Y-13081031D01*
X10439230Y-13081031D02*
X10448754Y-13100079D01*
X10448754Y-13100079D02*
X10448754Y-13109603D01*
X10448754Y-13109603D02*
X10439230Y-13128650D01*
X10439230Y-13128650D02*
X10429706Y-13138174D01*
X10429706Y-13138174D02*
X10410658Y-13147698D01*
X10410658Y-13147698D02*
X10372563Y-13147698D01*
X10372563Y-13147698D02*
X10353515Y-13157222D01*
X10353515Y-13157222D02*
X10343992Y-13166746D01*
X10343992Y-13166746D02*
X10334468Y-13185793D01*
X10334468Y-13185793D02*
X10334468Y-13223888D01*
X10334468Y-13223888D02*
X10343992Y-13242936D01*
X10343992Y-13242936D02*
X10353515Y-13252460D01*
X10353515Y-13252460D02*
X10372563Y-13261984D01*
X10372563Y-13261984D02*
X10410658Y-13261984D01*
X10410658Y-13261984D02*
X10429706Y-13252460D01*
X10429706Y-13252460D02*
X10439230Y-13242936D01*
X10439230Y-13242936D02*
X10448754Y-13223888D01*
X10448754Y-13223888D02*
X10448754Y-13185793D01*
X10448754Y-13185793D02*
X10439230Y-13166746D01*
X10439230Y-13166746D02*
X10429706Y-13157222D01*
X10429706Y-13157222D02*
X10410658Y-13147698D01*
X10677325Y-13252460D02*
X10696373Y-13261984D01*
X10696373Y-13261984D02*
X10734468Y-13261984D01*
X10734468Y-13261984D02*
X10753516Y-13252460D01*
X10753516Y-13252460D02*
X10763039Y-13233412D01*
X10763039Y-13233412D02*
X10763039Y-13223888D01*
X10763039Y-13223888D02*
X10753516Y-13204841D01*
X10753516Y-13204841D02*
X10734468Y-13195317D01*
X10734468Y-13195317D02*
X10705896Y-13195317D01*
X10705896Y-13195317D02*
X10686849Y-13185793D01*
X10686849Y-13185793D02*
X10677325Y-13166746D01*
X10677325Y-13166746D02*
X10677325Y-13157222D01*
X10677325Y-13157222D02*
X10686849Y-13138174D01*
X10686849Y-13138174D02*
X10705896Y-13128650D01*
X10705896Y-13128650D02*
X10734468Y-13128650D01*
X10734468Y-13128650D02*
X10753516Y-13138174D01*
X10877325Y-13261984D02*
X10858277Y-13252460D01*
X10858277Y-13252460D02*
X10848754Y-13233412D01*
X10848754Y-13233412D02*
X10848754Y-13061984D01*
X10982087Y-13261984D02*
X10963039Y-13252460D01*
X10963039Y-13252460D02*
X10953516Y-13242936D01*
X10953516Y-13242936D02*
X10943992Y-13223888D01*
X10943992Y-13223888D02*
X10943992Y-13166746D01*
X10943992Y-13166746D02*
X10953516Y-13147698D01*
X10953516Y-13147698D02*
X10963039Y-13138174D01*
X10963039Y-13138174D02*
X10982087Y-13128650D01*
X10982087Y-13128650D02*
X11010658Y-13128650D01*
X11010658Y-13128650D02*
X11029706Y-13138174D01*
X11029706Y-13138174D02*
X11039230Y-13147698D01*
X11039230Y-13147698D02*
X11048754Y-13166746D01*
X11048754Y-13166746D02*
X11048754Y-13223888D01*
X11048754Y-13223888D02*
X11039230Y-13242936D01*
X11039230Y-13242936D02*
X11029706Y-13252460D01*
X11029706Y-13252460D02*
X11010658Y-13261984D01*
X11010658Y-13261984D02*
X10982087Y-13261984D01*
X11105897Y-13128650D02*
X11182087Y-13128650D01*
X11134468Y-13061984D02*
X11134468Y-13233412D01*
X11134468Y-13233412D02*
X11143992Y-13252460D01*
X11143992Y-13252460D02*
X11163039Y-13261984D01*
X11163039Y-13261984D02*
X11182087Y-13261984D01*
X11239230Y-13252460D02*
X11258277Y-13261984D01*
X11258277Y-13261984D02*
X11296373Y-13261984D01*
X11296373Y-13261984D02*
X11315420Y-13252460D01*
X11315420Y-13252460D02*
X11324944Y-13233412D01*
X11324944Y-13233412D02*
X11324944Y-13223888D01*
X11324944Y-13223888D02*
X11315420Y-13204841D01*
X11315420Y-13204841D02*
X11296373Y-13195317D01*
X11296373Y-13195317D02*
X11267801Y-13195317D01*
X11267801Y-13195317D02*
X11248754Y-13185793D01*
X11248754Y-13185793D02*
X11239230Y-13166746D01*
X11239230Y-13166746D02*
X11239230Y-13157222D01*
X11239230Y-13157222D02*
X11248754Y-13138174D01*
X11248754Y-13138174D02*
X11267801Y-13128650D01*
X11267801Y-13128650D02*
X11296373Y-13128650D01*
X11296373Y-13128650D02*
X11315420Y-13138174D01*
X11391611Y-13338174D02*
X11401135Y-13328650D01*
X11401135Y-13328650D02*
X11420182Y-13300079D01*
X11420182Y-13300079D02*
X11429706Y-13281031D01*
X11429706Y-13281031D02*
X11439230Y-13252460D01*
X11439230Y-13252460D02*
X11448754Y-13204841D01*
X11448754Y-13204841D02*
X11448754Y-13166746D01*
X11448754Y-13166746D02*
X11439230Y-13119127D01*
X11439230Y-13119127D02*
X11429706Y-13090555D01*
X11429706Y-13090555D02*
X11420182Y-13071508D01*
X11420182Y-13071508D02*
X11401135Y-13042936D01*
X11401135Y-13042936D02*
X11391611Y-13033412D01*
D12*
X4986517Y-13461017D02*
X4986517Y-13407983D01*
X4933483Y-13407983D01*
X4933483Y-13461017D01*
X4986517Y-13461017D01*
D11*
X5296372Y-13325984D02*
X5315420Y-13325984D01*
X5315420Y-13325984D02*
X5334467Y-13335508D01*
X5334467Y-13335508D02*
X5343991Y-13345031D01*
X5343991Y-13345031D02*
X5353515Y-13364079D01*
X5353515Y-13364079D02*
X5363039Y-13402174D01*
X5363039Y-13402174D02*
X5363039Y-13449793D01*
X5363039Y-13449793D02*
X5353515Y-13487888D01*
X5353515Y-13487888D02*
X5343991Y-13506936D01*
X5343991Y-13506936D02*
X5334467Y-13516460D01*
X5334467Y-13516460D02*
X5315420Y-13525984D01*
X5315420Y-13525984D02*
X5296372Y-13525984D01*
X5296372Y-13525984D02*
X5277324Y-13516460D01*
X5277324Y-13516460D02*
X5267801Y-13506936D01*
X5267801Y-13506936D02*
X5258277Y-13487888D01*
X5258277Y-13487888D02*
X5248753Y-13449793D01*
X5248753Y-13449793D02*
X5248753Y-13402174D01*
X5248753Y-13402174D02*
X5258277Y-13364079D01*
X5258277Y-13364079D02*
X5267801Y-13345031D01*
X5267801Y-13345031D02*
X5277324Y-13335508D01*
X5277324Y-13335508D02*
X5296372Y-13325984D01*
X5448753Y-13506936D02*
X5458277Y-13516460D01*
X5458277Y-13516460D02*
X5448753Y-13525984D01*
X5448753Y-13525984D02*
X5439229Y-13516460D01*
X5439229Y-13516460D02*
X5448753Y-13506936D01*
X5448753Y-13506936D02*
X5448753Y-13525984D01*
X5524944Y-13325984D02*
X5658277Y-13325984D01*
X5658277Y-13325984D02*
X5572563Y-13525984D01*
X5829705Y-13325984D02*
X5734467Y-13325984D01*
X5734467Y-13325984D02*
X5724943Y-13421222D01*
X5724943Y-13421222D02*
X5734467Y-13411698D01*
X5734467Y-13411698D02*
X5753515Y-13402174D01*
X5753515Y-13402174D02*
X5801134Y-13402174D01*
X5801134Y-13402174D02*
X5820182Y-13411698D01*
X5820182Y-13411698D02*
X5829705Y-13421222D01*
X5829705Y-13421222D02*
X5839229Y-13440269D01*
X5839229Y-13440269D02*
X5839229Y-13487888D01*
X5839229Y-13487888D02*
X5829705Y-13506936D01*
X5829705Y-13506936D02*
X5820182Y-13516460D01*
X5820182Y-13516460D02*
X5801134Y-13525984D01*
X5801134Y-13525984D02*
X5753515Y-13525984D01*
X5753515Y-13525984D02*
X5734467Y-13516460D01*
X5734467Y-13516460D02*
X5724943Y-13506936D01*
X5963039Y-13325984D02*
X5982086Y-13325984D01*
X5982086Y-13325984D02*
X6001134Y-13335508D01*
X6001134Y-13335508D02*
X6010658Y-13345031D01*
X6010658Y-13345031D02*
X6020182Y-13364079D01*
X6020182Y-13364079D02*
X6029705Y-13402174D01*
X6029705Y-13402174D02*
X6029705Y-13449793D01*
X6029705Y-13449793D02*
X6020182Y-13487888D01*
X6020182Y-13487888D02*
X6010658Y-13506936D01*
X6010658Y-13506936D02*
X6001134Y-13516460D01*
X6001134Y-13516460D02*
X5982086Y-13525984D01*
X5982086Y-13525984D02*
X5963039Y-13525984D01*
X5963039Y-13525984D02*
X5943991Y-13516460D01*
X5943991Y-13516460D02*
X5934467Y-13506936D01*
X5934467Y-13506936D02*
X5924943Y-13487888D01*
X5924943Y-13487888D02*
X5915420Y-13449793D01*
X5915420Y-13449793D02*
X5915420Y-13402174D01*
X5915420Y-13402174D02*
X5924943Y-13364079D01*
X5924943Y-13364079D02*
X5934467Y-13345031D01*
X5934467Y-13345031D02*
X5943991Y-13335508D01*
X5943991Y-13335508D02*
X5963039Y-13325984D01*
X6115420Y-13525984D02*
X6115420Y-13392650D01*
X6115420Y-13411698D02*
X6124943Y-13402174D01*
X6124943Y-13402174D02*
X6143991Y-13392650D01*
X6143991Y-13392650D02*
X6172563Y-13392650D01*
X6172563Y-13392650D02*
X6191610Y-13402174D01*
X6191610Y-13402174D02*
X6201134Y-13421222D01*
X6201134Y-13421222D02*
X6201134Y-13525984D01*
X6201134Y-13421222D02*
X6210658Y-13402174D01*
X6210658Y-13402174D02*
X6229705Y-13392650D01*
X6229705Y-13392650D02*
X6258277Y-13392650D01*
X6258277Y-13392650D02*
X6277324Y-13402174D01*
X6277324Y-13402174D02*
X6286848Y-13421222D01*
X6286848Y-13421222D02*
X6286848Y-13525984D01*
X6382086Y-13525984D02*
X6382086Y-13392650D01*
X6382086Y-13411698D02*
X6391610Y-13402174D01*
X6391610Y-13402174D02*
X6410658Y-13392650D01*
X6410658Y-13392650D02*
X6439229Y-13392650D01*
X6439229Y-13392650D02*
X6458277Y-13402174D01*
X6458277Y-13402174D02*
X6467801Y-13421222D01*
X6467801Y-13421222D02*
X6467801Y-13525984D01*
X6467801Y-13421222D02*
X6477324Y-13402174D01*
X6477324Y-13402174D02*
X6496372Y-13392650D01*
X6496372Y-13392650D02*
X6524943Y-13392650D01*
X6524943Y-13392650D02*
X6543991Y-13402174D01*
X6543991Y-13402174D02*
X6553515Y-13421222D01*
X6553515Y-13421222D02*
X6553515Y-13525984D01*
X6943991Y-13316460D02*
X6772563Y-13573603D01*
X7201134Y-13325984D02*
X7220182Y-13325984D01*
X7220182Y-13325984D02*
X7239229Y-13335508D01*
X7239229Y-13335508D02*
X7248753Y-13345031D01*
X7248753Y-13345031D02*
X7258277Y-13364079D01*
X7258277Y-13364079D02*
X7267801Y-13402174D01*
X7267801Y-13402174D02*
X7267801Y-13449793D01*
X7267801Y-13449793D02*
X7258277Y-13487888D01*
X7258277Y-13487888D02*
X7248753Y-13506936D01*
X7248753Y-13506936D02*
X7239229Y-13516460D01*
X7239229Y-13516460D02*
X7220182Y-13525984D01*
X7220182Y-13525984D02*
X7201134Y-13525984D01*
X7201134Y-13525984D02*
X7182086Y-13516460D01*
X7182086Y-13516460D02*
X7172563Y-13506936D01*
X7172563Y-13506936D02*
X7163039Y-13487888D01*
X7163039Y-13487888D02*
X7153515Y-13449793D01*
X7153515Y-13449793D02*
X7153515Y-13402174D01*
X7153515Y-13402174D02*
X7163039Y-13364079D01*
X7163039Y-13364079D02*
X7172563Y-13345031D01*
X7172563Y-13345031D02*
X7182086Y-13335508D01*
X7182086Y-13335508D02*
X7201134Y-13325984D01*
X7353515Y-13506936D02*
X7363039Y-13516460D01*
X7363039Y-13516460D02*
X7353515Y-13525984D01*
X7353515Y-13525984D02*
X7343991Y-13516460D01*
X7343991Y-13516460D02*
X7353515Y-13506936D01*
X7353515Y-13506936D02*
X7353515Y-13525984D01*
X7486848Y-13325984D02*
X7505896Y-13325984D01*
X7505896Y-13325984D02*
X7524944Y-13335508D01*
X7524944Y-13335508D02*
X7534467Y-13345031D01*
X7534467Y-13345031D02*
X7543991Y-13364079D01*
X7543991Y-13364079D02*
X7553515Y-13402174D01*
X7553515Y-13402174D02*
X7553515Y-13449793D01*
X7553515Y-13449793D02*
X7543991Y-13487888D01*
X7543991Y-13487888D02*
X7534467Y-13506936D01*
X7534467Y-13506936D02*
X7524944Y-13516460D01*
X7524944Y-13516460D02*
X7505896Y-13525984D01*
X7505896Y-13525984D02*
X7486848Y-13525984D01*
X7486848Y-13525984D02*
X7467801Y-13516460D01*
X7467801Y-13516460D02*
X7458277Y-13506936D01*
X7458277Y-13506936D02*
X7448753Y-13487888D01*
X7448753Y-13487888D02*
X7439229Y-13449793D01*
X7439229Y-13449793D02*
X7439229Y-13402174D01*
X7439229Y-13402174D02*
X7448753Y-13364079D01*
X7448753Y-13364079D02*
X7458277Y-13345031D01*
X7458277Y-13345031D02*
X7467801Y-13335508D01*
X7467801Y-13335508D02*
X7486848Y-13325984D01*
X7629706Y-13345031D02*
X7639229Y-13335508D01*
X7639229Y-13335508D02*
X7658277Y-13325984D01*
X7658277Y-13325984D02*
X7705896Y-13325984D01*
X7705896Y-13325984D02*
X7724944Y-13335508D01*
X7724944Y-13335508D02*
X7734467Y-13345031D01*
X7734467Y-13345031D02*
X7743991Y-13364079D01*
X7743991Y-13364079D02*
X7743991Y-13383127D01*
X7743991Y-13383127D02*
X7734467Y-13411698D01*
X7734467Y-13411698D02*
X7620182Y-13525984D01*
X7620182Y-13525984D02*
X7743991Y-13525984D01*
X7839229Y-13525984D02*
X7877325Y-13525984D01*
X7877325Y-13525984D02*
X7896372Y-13516460D01*
X7896372Y-13516460D02*
X7905896Y-13506936D01*
X7905896Y-13506936D02*
X7924944Y-13478365D01*
X7924944Y-13478365D02*
X7934467Y-13440269D01*
X7934467Y-13440269D02*
X7934467Y-13364079D01*
X7934467Y-13364079D02*
X7924944Y-13345031D01*
X7924944Y-13345031D02*
X7915420Y-13335508D01*
X7915420Y-13335508D02*
X7896372Y-13325984D01*
X7896372Y-13325984D02*
X7858277Y-13325984D01*
X7858277Y-13325984D02*
X7839229Y-13335508D01*
X7839229Y-13335508D02*
X7829706Y-13345031D01*
X7829706Y-13345031D02*
X7820182Y-13364079D01*
X7820182Y-13364079D02*
X7820182Y-13411698D01*
X7820182Y-13411698D02*
X7829706Y-13430746D01*
X7829706Y-13430746D02*
X7839229Y-13440269D01*
X7839229Y-13440269D02*
X7858277Y-13449793D01*
X7858277Y-13449793D02*
X7896372Y-13449793D01*
X7896372Y-13449793D02*
X7915420Y-13440269D01*
X7915420Y-13440269D02*
X7924944Y-13430746D01*
X7924944Y-13430746D02*
X7934467Y-13411698D01*
X8115420Y-13325984D02*
X8020182Y-13325984D01*
X8020182Y-13325984D02*
X8010658Y-13421222D01*
X8010658Y-13421222D02*
X8020182Y-13411698D01*
X8020182Y-13411698D02*
X8039229Y-13402174D01*
X8039229Y-13402174D02*
X8086848Y-13402174D01*
X8086848Y-13402174D02*
X8105896Y-13411698D01*
X8105896Y-13411698D02*
X8115420Y-13421222D01*
X8115420Y-13421222D02*
X8124944Y-13440269D01*
X8124944Y-13440269D02*
X8124944Y-13487888D01*
X8124944Y-13487888D02*
X8115420Y-13506936D01*
X8115420Y-13506936D02*
X8105896Y-13516460D01*
X8105896Y-13516460D02*
X8086848Y-13525984D01*
X8086848Y-13525984D02*
X8039229Y-13525984D01*
X8039229Y-13525984D02*
X8020182Y-13516460D01*
X8020182Y-13516460D02*
X8010658Y-13506936D01*
X8201134Y-13325984D02*
X8201134Y-13364079D01*
X8277325Y-13325984D02*
X8277325Y-13364079D01*
X8572563Y-13602174D02*
X8563039Y-13592650D01*
X8563039Y-13592650D02*
X8543991Y-13564079D01*
X8543991Y-13564079D02*
X8534468Y-13545031D01*
X8534468Y-13545031D02*
X8524944Y-13516460D01*
X8524944Y-13516460D02*
X8515420Y-13468841D01*
X8515420Y-13468841D02*
X8515420Y-13430746D01*
X8515420Y-13430746D02*
X8524944Y-13383127D01*
X8524944Y-13383127D02*
X8534468Y-13354555D01*
X8534468Y-13354555D02*
X8543991Y-13335508D01*
X8543991Y-13335508D02*
X8563039Y-13306936D01*
X8563039Y-13306936D02*
X8572563Y-13297412D01*
X8686849Y-13325984D02*
X8705896Y-13325984D01*
X8705896Y-13325984D02*
X8724944Y-13335508D01*
X8724944Y-13335508D02*
X8734468Y-13345031D01*
X8734468Y-13345031D02*
X8743991Y-13364079D01*
X8743991Y-13364079D02*
X8753515Y-13402174D01*
X8753515Y-13402174D02*
X8753515Y-13449793D01*
X8753515Y-13449793D02*
X8743991Y-13487888D01*
X8743991Y-13487888D02*
X8734468Y-13506936D01*
X8734468Y-13506936D02*
X8724944Y-13516460D01*
X8724944Y-13516460D02*
X8705896Y-13525984D01*
X8705896Y-13525984D02*
X8686849Y-13525984D01*
X8686849Y-13525984D02*
X8667801Y-13516460D01*
X8667801Y-13516460D02*
X8658277Y-13506936D01*
X8658277Y-13506936D02*
X8648753Y-13487888D01*
X8648753Y-13487888D02*
X8639230Y-13449793D01*
X8639230Y-13449793D02*
X8639230Y-13402174D01*
X8639230Y-13402174D02*
X8648753Y-13364079D01*
X8648753Y-13364079D02*
X8658277Y-13345031D01*
X8658277Y-13345031D02*
X8667801Y-13335508D01*
X8667801Y-13335508D02*
X8686849Y-13325984D01*
X8991611Y-13525984D02*
X8991611Y-13325984D01*
X9077325Y-13525984D02*
X9077325Y-13421222D01*
X9077325Y-13421222D02*
X9067801Y-13402174D01*
X9067801Y-13402174D02*
X9048753Y-13392650D01*
X9048753Y-13392650D02*
X9020182Y-13392650D01*
X9020182Y-13392650D02*
X9001134Y-13402174D01*
X9001134Y-13402174D02*
X8991611Y-13411698D01*
X9201134Y-13525984D02*
X9182087Y-13516460D01*
X9182087Y-13516460D02*
X9172563Y-13506936D01*
X9172563Y-13506936D02*
X9163039Y-13487888D01*
X9163039Y-13487888D02*
X9163039Y-13430746D01*
X9163039Y-13430746D02*
X9172563Y-13411698D01*
X9172563Y-13411698D02*
X9182087Y-13402174D01*
X9182087Y-13402174D02*
X9201134Y-13392650D01*
X9201134Y-13392650D02*
X9229706Y-13392650D01*
X9229706Y-13392650D02*
X9248753Y-13402174D01*
X9248753Y-13402174D02*
X9258277Y-13411698D01*
X9258277Y-13411698D02*
X9267801Y-13430746D01*
X9267801Y-13430746D02*
X9267801Y-13487888D01*
X9267801Y-13487888D02*
X9258277Y-13506936D01*
X9258277Y-13506936D02*
X9248753Y-13516460D01*
X9248753Y-13516460D02*
X9229706Y-13525984D01*
X9229706Y-13525984D02*
X9201134Y-13525984D01*
X9382087Y-13525984D02*
X9363039Y-13516460D01*
X9363039Y-13516460D02*
X9353515Y-13497412D01*
X9353515Y-13497412D02*
X9353515Y-13325984D01*
X9534468Y-13516460D02*
X9515420Y-13525984D01*
X9515420Y-13525984D02*
X9477325Y-13525984D01*
X9477325Y-13525984D02*
X9458277Y-13516460D01*
X9458277Y-13516460D02*
X9448753Y-13497412D01*
X9448753Y-13497412D02*
X9448753Y-13421222D01*
X9448753Y-13421222D02*
X9458277Y-13402174D01*
X9458277Y-13402174D02*
X9477325Y-13392650D01*
X9477325Y-13392650D02*
X9515420Y-13392650D01*
X9515420Y-13392650D02*
X9534468Y-13402174D01*
X9534468Y-13402174D02*
X9543992Y-13421222D01*
X9543992Y-13421222D02*
X9543992Y-13440269D01*
X9543992Y-13440269D02*
X9448753Y-13459317D01*
X9620182Y-13516460D02*
X9639230Y-13525984D01*
X9639230Y-13525984D02*
X9677325Y-13525984D01*
X9677325Y-13525984D02*
X9696373Y-13516460D01*
X9696373Y-13516460D02*
X9705896Y-13497412D01*
X9705896Y-13497412D02*
X9705896Y-13487888D01*
X9705896Y-13487888D02*
X9696373Y-13468841D01*
X9696373Y-13468841D02*
X9677325Y-13459317D01*
X9677325Y-13459317D02*
X9648753Y-13459317D01*
X9648753Y-13459317D02*
X9629706Y-13449793D01*
X9629706Y-13449793D02*
X9620182Y-13430746D01*
X9620182Y-13430746D02*
X9620182Y-13421222D01*
X9620182Y-13421222D02*
X9629706Y-13402174D01*
X9629706Y-13402174D02*
X9648753Y-13392650D01*
X9648753Y-13392650D02*
X9677325Y-13392650D01*
X9677325Y-13392650D02*
X9696373Y-13402174D01*
X9943992Y-13449793D02*
X10096373Y-13449793D01*
X10020182Y-13525984D02*
X10020182Y-13373603D01*
X10372563Y-13411698D02*
X10353515Y-13402174D01*
X10353515Y-13402174D02*
X10343992Y-13392650D01*
X10343992Y-13392650D02*
X10334468Y-13373603D01*
X10334468Y-13373603D02*
X10334468Y-13364079D01*
X10334468Y-13364079D02*
X10343992Y-13345031D01*
X10343992Y-13345031D02*
X10353515Y-13335508D01*
X10353515Y-13335508D02*
X10372563Y-13325984D01*
X10372563Y-13325984D02*
X10410658Y-13325984D01*
X10410658Y-13325984D02*
X10429706Y-13335508D01*
X10429706Y-13335508D02*
X10439230Y-13345031D01*
X10439230Y-13345031D02*
X10448754Y-13364079D01*
X10448754Y-13364079D02*
X10448754Y-13373603D01*
X10448754Y-13373603D02*
X10439230Y-13392650D01*
X10439230Y-13392650D02*
X10429706Y-13402174D01*
X10429706Y-13402174D02*
X10410658Y-13411698D01*
X10410658Y-13411698D02*
X10372563Y-13411698D01*
X10372563Y-13411698D02*
X10353515Y-13421222D01*
X10353515Y-13421222D02*
X10343992Y-13430746D01*
X10343992Y-13430746D02*
X10334468Y-13449793D01*
X10334468Y-13449793D02*
X10334468Y-13487888D01*
X10334468Y-13487888D02*
X10343992Y-13506936D01*
X10343992Y-13506936D02*
X10353515Y-13516460D01*
X10353515Y-13516460D02*
X10372563Y-13525984D01*
X10372563Y-13525984D02*
X10410658Y-13525984D01*
X10410658Y-13525984D02*
X10429706Y-13516460D01*
X10429706Y-13516460D02*
X10439230Y-13506936D01*
X10439230Y-13506936D02*
X10448754Y-13487888D01*
X10448754Y-13487888D02*
X10448754Y-13449793D01*
X10448754Y-13449793D02*
X10439230Y-13430746D01*
X10439230Y-13430746D02*
X10429706Y-13421222D01*
X10429706Y-13421222D02*
X10410658Y-13411698D01*
X10677325Y-13516460D02*
X10696373Y-13525984D01*
X10696373Y-13525984D02*
X10734468Y-13525984D01*
X10734468Y-13525984D02*
X10753516Y-13516460D01*
X10753516Y-13516460D02*
X10763039Y-13497412D01*
X10763039Y-13497412D02*
X10763039Y-13487888D01*
X10763039Y-13487888D02*
X10753516Y-13468841D01*
X10753516Y-13468841D02*
X10734468Y-13459317D01*
X10734468Y-13459317D02*
X10705896Y-13459317D01*
X10705896Y-13459317D02*
X10686849Y-13449793D01*
X10686849Y-13449793D02*
X10677325Y-13430746D01*
X10677325Y-13430746D02*
X10677325Y-13421222D01*
X10677325Y-13421222D02*
X10686849Y-13402174D01*
X10686849Y-13402174D02*
X10705896Y-13392650D01*
X10705896Y-13392650D02*
X10734468Y-13392650D01*
X10734468Y-13392650D02*
X10753516Y-13402174D01*
X10877325Y-13525984D02*
X10858277Y-13516460D01*
X10858277Y-13516460D02*
X10848754Y-13497412D01*
X10848754Y-13497412D02*
X10848754Y-13325984D01*
X10982087Y-13525984D02*
X10963039Y-13516460D01*
X10963039Y-13516460D02*
X10953516Y-13506936D01*
X10953516Y-13506936D02*
X10943992Y-13487888D01*
X10943992Y-13487888D02*
X10943992Y-13430746D01*
X10943992Y-13430746D02*
X10953516Y-13411698D01*
X10953516Y-13411698D02*
X10963039Y-13402174D01*
X10963039Y-13402174D02*
X10982087Y-13392650D01*
X10982087Y-13392650D02*
X11010658Y-13392650D01*
X11010658Y-13392650D02*
X11029706Y-13402174D01*
X11029706Y-13402174D02*
X11039230Y-13411698D01*
X11039230Y-13411698D02*
X11048754Y-13430746D01*
X11048754Y-13430746D02*
X11048754Y-13487888D01*
X11048754Y-13487888D02*
X11039230Y-13506936D01*
X11039230Y-13506936D02*
X11029706Y-13516460D01*
X11029706Y-13516460D02*
X11010658Y-13525984D01*
X11010658Y-13525984D02*
X10982087Y-13525984D01*
X11105897Y-13392650D02*
X11182087Y-13392650D01*
X11134468Y-13325984D02*
X11134468Y-13497412D01*
X11134468Y-13497412D02*
X11143992Y-13516460D01*
X11143992Y-13516460D02*
X11163039Y-13525984D01*
X11163039Y-13525984D02*
X11182087Y-13525984D01*
X11239230Y-13516460D02*
X11258277Y-13525984D01*
X11258277Y-13525984D02*
X11296373Y-13525984D01*
X11296373Y-13525984D02*
X11315420Y-13516460D01*
X11315420Y-13516460D02*
X11324944Y-13497412D01*
X11324944Y-13497412D02*
X11324944Y-13487888D01*
X11324944Y-13487888D02*
X11315420Y-13468841D01*
X11315420Y-13468841D02*
X11296373Y-13459317D01*
X11296373Y-13459317D02*
X11267801Y-13459317D01*
X11267801Y-13459317D02*
X11248754Y-13449793D01*
X11248754Y-13449793D02*
X11239230Y-13430746D01*
X11239230Y-13430746D02*
X11239230Y-13421222D01*
X11239230Y-13421222D02*
X11248754Y-13402174D01*
X11248754Y-13402174D02*
X11267801Y-13392650D01*
X11267801Y-13392650D02*
X11296373Y-13392650D01*
X11296373Y-13392650D02*
X11315420Y-13402174D01*
X11391611Y-13602174D02*
X11401135Y-13592650D01*
X11401135Y-13592650D02*
X11420182Y-13564079D01*
X11420182Y-13564079D02*
X11429706Y-13545031D01*
X11429706Y-13545031D02*
X11439230Y-13516460D01*
X11439230Y-13516460D02*
X11448754Y-13468841D01*
X11448754Y-13468841D02*
X11448754Y-13430746D01*
X11448754Y-13430746D02*
X11439230Y-13383127D01*
X11439230Y-13383127D02*
X11429706Y-13354555D01*
X11429706Y-13354555D02*
X11420182Y-13335508D01*
X11420182Y-13335508D02*
X11401135Y-13306936D01*
X11401135Y-13306936D02*
X11391611Y-13297412D01*
X4897500Y-13798500D02*
X4997500Y-13698500D01*
X4897500Y-13598500D01*
X4797500Y-13698500D01*
X4897500Y-13798500D01*
X5248753Y-13609031D02*
X5258277Y-13599508D01*
X5258277Y-13599508D02*
X5277324Y-13589984D01*
X5277324Y-13589984D02*
X5324944Y-13589984D01*
X5324944Y-13589984D02*
X5343991Y-13599508D01*
X5343991Y-13599508D02*
X5353515Y-13609031D01*
X5353515Y-13609031D02*
X5363039Y-13628079D01*
X5363039Y-13628079D02*
X5363039Y-13647127D01*
X5363039Y-13647127D02*
X5353515Y-13675698D01*
X5353515Y-13675698D02*
X5239229Y-13789984D01*
X5239229Y-13789984D02*
X5363039Y-13789984D01*
X5448753Y-13770936D02*
X5458277Y-13780460D01*
X5458277Y-13780460D02*
X5448753Y-13789984D01*
X5448753Y-13789984D02*
X5439229Y-13780460D01*
X5439229Y-13780460D02*
X5448753Y-13770936D01*
X5448753Y-13770936D02*
X5448753Y-13789984D01*
X5534467Y-13609031D02*
X5543991Y-13599508D01*
X5543991Y-13599508D02*
X5563039Y-13589984D01*
X5563039Y-13589984D02*
X5610658Y-13589984D01*
X5610658Y-13589984D02*
X5629705Y-13599508D01*
X5629705Y-13599508D02*
X5639229Y-13609031D01*
X5639229Y-13609031D02*
X5648753Y-13628079D01*
X5648753Y-13628079D02*
X5648753Y-13647127D01*
X5648753Y-13647127D02*
X5639229Y-13675698D01*
X5639229Y-13675698D02*
X5524944Y-13789984D01*
X5524944Y-13789984D02*
X5648753Y-13789984D01*
X5772562Y-13589984D02*
X5791610Y-13589984D01*
X5791610Y-13589984D02*
X5810658Y-13599508D01*
X5810658Y-13599508D02*
X5820182Y-13609031D01*
X5820182Y-13609031D02*
X5829705Y-13628079D01*
X5829705Y-13628079D02*
X5839229Y-13666174D01*
X5839229Y-13666174D02*
X5839229Y-13713793D01*
X5839229Y-13713793D02*
X5829705Y-13751888D01*
X5829705Y-13751888D02*
X5820182Y-13770936D01*
X5820182Y-13770936D02*
X5810658Y-13780460D01*
X5810658Y-13780460D02*
X5791610Y-13789984D01*
X5791610Y-13789984D02*
X5772562Y-13789984D01*
X5772562Y-13789984D02*
X5753515Y-13780460D01*
X5753515Y-13780460D02*
X5743991Y-13770936D01*
X5743991Y-13770936D02*
X5734467Y-13751888D01*
X5734467Y-13751888D02*
X5724943Y-13713793D01*
X5724943Y-13713793D02*
X5724943Y-13666174D01*
X5724943Y-13666174D02*
X5734467Y-13628079D01*
X5734467Y-13628079D02*
X5743991Y-13609031D01*
X5743991Y-13609031D02*
X5753515Y-13599508D01*
X5753515Y-13599508D02*
X5772562Y-13589984D01*
X5963039Y-13589984D02*
X5982086Y-13589984D01*
X5982086Y-13589984D02*
X6001134Y-13599508D01*
X6001134Y-13599508D02*
X6010658Y-13609031D01*
X6010658Y-13609031D02*
X6020182Y-13628079D01*
X6020182Y-13628079D02*
X6029705Y-13666174D01*
X6029705Y-13666174D02*
X6029705Y-13713793D01*
X6029705Y-13713793D02*
X6020182Y-13751888D01*
X6020182Y-13751888D02*
X6010658Y-13770936D01*
X6010658Y-13770936D02*
X6001134Y-13780460D01*
X6001134Y-13780460D02*
X5982086Y-13789984D01*
X5982086Y-13789984D02*
X5963039Y-13789984D01*
X5963039Y-13789984D02*
X5943991Y-13780460D01*
X5943991Y-13780460D02*
X5934467Y-13770936D01*
X5934467Y-13770936D02*
X5924943Y-13751888D01*
X5924943Y-13751888D02*
X5915420Y-13713793D01*
X5915420Y-13713793D02*
X5915420Y-13666174D01*
X5915420Y-13666174D02*
X5924943Y-13628079D01*
X5924943Y-13628079D02*
X5934467Y-13609031D01*
X5934467Y-13609031D02*
X5943991Y-13599508D01*
X5943991Y-13599508D02*
X5963039Y-13589984D01*
X6115420Y-13789984D02*
X6115420Y-13656650D01*
X6115420Y-13675698D02*
X6124943Y-13666174D01*
X6124943Y-13666174D02*
X6143991Y-13656650D01*
X6143991Y-13656650D02*
X6172563Y-13656650D01*
X6172563Y-13656650D02*
X6191610Y-13666174D01*
X6191610Y-13666174D02*
X6201134Y-13685222D01*
X6201134Y-13685222D02*
X6201134Y-13789984D01*
X6201134Y-13685222D02*
X6210658Y-13666174D01*
X6210658Y-13666174D02*
X6229705Y-13656650D01*
X6229705Y-13656650D02*
X6258277Y-13656650D01*
X6258277Y-13656650D02*
X6277324Y-13666174D01*
X6277324Y-13666174D02*
X6286848Y-13685222D01*
X6286848Y-13685222D02*
X6286848Y-13789984D01*
X6382086Y-13789984D02*
X6382086Y-13656650D01*
X6382086Y-13675698D02*
X6391610Y-13666174D01*
X6391610Y-13666174D02*
X6410658Y-13656650D01*
X6410658Y-13656650D02*
X6439229Y-13656650D01*
X6439229Y-13656650D02*
X6458277Y-13666174D01*
X6458277Y-13666174D02*
X6467801Y-13685222D01*
X6467801Y-13685222D02*
X6467801Y-13789984D01*
X6467801Y-13685222D02*
X6477324Y-13666174D01*
X6477324Y-13666174D02*
X6496372Y-13656650D01*
X6496372Y-13656650D02*
X6524943Y-13656650D01*
X6524943Y-13656650D02*
X6543991Y-13666174D01*
X6543991Y-13666174D02*
X6553515Y-13685222D01*
X6553515Y-13685222D02*
X6553515Y-13789984D01*
X6943991Y-13580460D02*
X6772563Y-13837603D01*
X7201134Y-13589984D02*
X7220182Y-13589984D01*
X7220182Y-13589984D02*
X7239229Y-13599508D01*
X7239229Y-13599508D02*
X7248753Y-13609031D01*
X7248753Y-13609031D02*
X7258277Y-13628079D01*
X7258277Y-13628079D02*
X7267801Y-13666174D01*
X7267801Y-13666174D02*
X7267801Y-13713793D01*
X7267801Y-13713793D02*
X7258277Y-13751888D01*
X7258277Y-13751888D02*
X7248753Y-13770936D01*
X7248753Y-13770936D02*
X7239229Y-13780460D01*
X7239229Y-13780460D02*
X7220182Y-13789984D01*
X7220182Y-13789984D02*
X7201134Y-13789984D01*
X7201134Y-13789984D02*
X7182086Y-13780460D01*
X7182086Y-13780460D02*
X7172563Y-13770936D01*
X7172563Y-13770936D02*
X7163039Y-13751888D01*
X7163039Y-13751888D02*
X7153515Y-13713793D01*
X7153515Y-13713793D02*
X7153515Y-13666174D01*
X7153515Y-13666174D02*
X7163039Y-13628079D01*
X7163039Y-13628079D02*
X7172563Y-13609031D01*
X7172563Y-13609031D02*
X7182086Y-13599508D01*
X7182086Y-13599508D02*
X7201134Y-13589984D01*
X7353515Y-13770936D02*
X7363039Y-13780460D01*
X7363039Y-13780460D02*
X7353515Y-13789984D01*
X7353515Y-13789984D02*
X7343991Y-13780460D01*
X7343991Y-13780460D02*
X7353515Y-13770936D01*
X7353515Y-13770936D02*
X7353515Y-13789984D01*
X7486848Y-13589984D02*
X7505896Y-13589984D01*
X7505896Y-13589984D02*
X7524944Y-13599508D01*
X7524944Y-13599508D02*
X7534467Y-13609031D01*
X7534467Y-13609031D02*
X7543991Y-13628079D01*
X7543991Y-13628079D02*
X7553515Y-13666174D01*
X7553515Y-13666174D02*
X7553515Y-13713793D01*
X7553515Y-13713793D02*
X7543991Y-13751888D01*
X7543991Y-13751888D02*
X7534467Y-13770936D01*
X7534467Y-13770936D02*
X7524944Y-13780460D01*
X7524944Y-13780460D02*
X7505896Y-13789984D01*
X7505896Y-13789984D02*
X7486848Y-13789984D01*
X7486848Y-13789984D02*
X7467801Y-13780460D01*
X7467801Y-13780460D02*
X7458277Y-13770936D01*
X7458277Y-13770936D02*
X7448753Y-13751888D01*
X7448753Y-13751888D02*
X7439229Y-13713793D01*
X7439229Y-13713793D02*
X7439229Y-13666174D01*
X7439229Y-13666174D02*
X7448753Y-13628079D01*
X7448753Y-13628079D02*
X7458277Y-13609031D01*
X7458277Y-13609031D02*
X7467801Y-13599508D01*
X7467801Y-13599508D02*
X7486848Y-13589984D01*
X7667801Y-13675698D02*
X7648753Y-13666174D01*
X7648753Y-13666174D02*
X7639229Y-13656650D01*
X7639229Y-13656650D02*
X7629706Y-13637603D01*
X7629706Y-13637603D02*
X7629706Y-13628079D01*
X7629706Y-13628079D02*
X7639229Y-13609031D01*
X7639229Y-13609031D02*
X7648753Y-13599508D01*
X7648753Y-13599508D02*
X7667801Y-13589984D01*
X7667801Y-13589984D02*
X7705896Y-13589984D01*
X7705896Y-13589984D02*
X7724944Y-13599508D01*
X7724944Y-13599508D02*
X7734467Y-13609031D01*
X7734467Y-13609031D02*
X7743991Y-13628079D01*
X7743991Y-13628079D02*
X7743991Y-13637603D01*
X7743991Y-13637603D02*
X7734467Y-13656650D01*
X7734467Y-13656650D02*
X7724944Y-13666174D01*
X7724944Y-13666174D02*
X7705896Y-13675698D01*
X7705896Y-13675698D02*
X7667801Y-13675698D01*
X7667801Y-13675698D02*
X7648753Y-13685222D01*
X7648753Y-13685222D02*
X7639229Y-13694746D01*
X7639229Y-13694746D02*
X7629706Y-13713793D01*
X7629706Y-13713793D02*
X7629706Y-13751888D01*
X7629706Y-13751888D02*
X7639229Y-13770936D01*
X7639229Y-13770936D02*
X7648753Y-13780460D01*
X7648753Y-13780460D02*
X7667801Y-13789984D01*
X7667801Y-13789984D02*
X7705896Y-13789984D01*
X7705896Y-13789984D02*
X7724944Y-13780460D01*
X7724944Y-13780460D02*
X7734467Y-13770936D01*
X7734467Y-13770936D02*
X7743991Y-13751888D01*
X7743991Y-13751888D02*
X7743991Y-13713793D01*
X7743991Y-13713793D02*
X7734467Y-13694746D01*
X7734467Y-13694746D02*
X7724944Y-13685222D01*
X7724944Y-13685222D02*
X7705896Y-13675698D01*
X7915420Y-13589984D02*
X7877325Y-13589984D01*
X7877325Y-13589984D02*
X7858277Y-13599508D01*
X7858277Y-13599508D02*
X7848753Y-13609031D01*
X7848753Y-13609031D02*
X7829706Y-13637603D01*
X7829706Y-13637603D02*
X7820182Y-13675698D01*
X7820182Y-13675698D02*
X7820182Y-13751888D01*
X7820182Y-13751888D02*
X7829706Y-13770936D01*
X7829706Y-13770936D02*
X7839229Y-13780460D01*
X7839229Y-13780460D02*
X7858277Y-13789984D01*
X7858277Y-13789984D02*
X7896372Y-13789984D01*
X7896372Y-13789984D02*
X7915420Y-13780460D01*
X7915420Y-13780460D02*
X7924944Y-13770936D01*
X7924944Y-13770936D02*
X7934467Y-13751888D01*
X7934467Y-13751888D02*
X7934467Y-13704269D01*
X7934467Y-13704269D02*
X7924944Y-13685222D01*
X7924944Y-13685222D02*
X7915420Y-13675698D01*
X7915420Y-13675698D02*
X7896372Y-13666174D01*
X7896372Y-13666174D02*
X7858277Y-13666174D01*
X7858277Y-13666174D02*
X7839229Y-13675698D01*
X7839229Y-13675698D02*
X7829706Y-13685222D01*
X7829706Y-13685222D02*
X7820182Y-13704269D01*
X8105896Y-13589984D02*
X8067801Y-13589984D01*
X8067801Y-13589984D02*
X8048753Y-13599508D01*
X8048753Y-13599508D02*
X8039229Y-13609031D01*
X8039229Y-13609031D02*
X8020182Y-13637603D01*
X8020182Y-13637603D02*
X8010658Y-13675698D01*
X8010658Y-13675698D02*
X8010658Y-13751888D01*
X8010658Y-13751888D02*
X8020182Y-13770936D01*
X8020182Y-13770936D02*
X8029706Y-13780460D01*
X8029706Y-13780460D02*
X8048753Y-13789984D01*
X8048753Y-13789984D02*
X8086848Y-13789984D01*
X8086848Y-13789984D02*
X8105896Y-13780460D01*
X8105896Y-13780460D02*
X8115420Y-13770936D01*
X8115420Y-13770936D02*
X8124944Y-13751888D01*
X8124944Y-13751888D02*
X8124944Y-13704269D01*
X8124944Y-13704269D02*
X8115420Y-13685222D01*
X8115420Y-13685222D02*
X8105896Y-13675698D01*
X8105896Y-13675698D02*
X8086848Y-13666174D01*
X8086848Y-13666174D02*
X8048753Y-13666174D01*
X8048753Y-13666174D02*
X8029706Y-13675698D01*
X8029706Y-13675698D02*
X8020182Y-13685222D01*
X8020182Y-13685222D02*
X8010658Y-13704269D01*
X8201134Y-13589984D02*
X8201134Y-13628079D01*
X8277325Y-13589984D02*
X8277325Y-13628079D01*
X8572563Y-13866174D02*
X8563039Y-13856650D01*
X8563039Y-13856650D02*
X8543991Y-13828079D01*
X8543991Y-13828079D02*
X8534468Y-13809031D01*
X8534468Y-13809031D02*
X8524944Y-13780460D01*
X8524944Y-13780460D02*
X8515420Y-13732841D01*
X8515420Y-13732841D02*
X8515420Y-13694746D01*
X8515420Y-13694746D02*
X8524944Y-13647127D01*
X8524944Y-13647127D02*
X8534468Y-13618555D01*
X8534468Y-13618555D02*
X8543991Y-13599508D01*
X8543991Y-13599508D02*
X8563039Y-13570936D01*
X8563039Y-13570936D02*
X8572563Y-13561412D01*
X8734468Y-13656650D02*
X8734468Y-13789984D01*
X8686849Y-13580460D02*
X8639230Y-13723317D01*
X8639230Y-13723317D02*
X8763039Y-13723317D01*
X8991611Y-13789984D02*
X8991611Y-13589984D01*
X9077325Y-13789984D02*
X9077325Y-13685222D01*
X9077325Y-13685222D02*
X9067801Y-13666174D01*
X9067801Y-13666174D02*
X9048753Y-13656650D01*
X9048753Y-13656650D02*
X9020182Y-13656650D01*
X9020182Y-13656650D02*
X9001134Y-13666174D01*
X9001134Y-13666174D02*
X8991611Y-13675698D01*
X9201134Y-13789984D02*
X9182087Y-13780460D01*
X9182087Y-13780460D02*
X9172563Y-13770936D01*
X9172563Y-13770936D02*
X9163039Y-13751888D01*
X9163039Y-13751888D02*
X9163039Y-13694746D01*
X9163039Y-13694746D02*
X9172563Y-13675698D01*
X9172563Y-13675698D02*
X9182087Y-13666174D01*
X9182087Y-13666174D02*
X9201134Y-13656650D01*
X9201134Y-13656650D02*
X9229706Y-13656650D01*
X9229706Y-13656650D02*
X9248753Y-13666174D01*
X9248753Y-13666174D02*
X9258277Y-13675698D01*
X9258277Y-13675698D02*
X9267801Y-13694746D01*
X9267801Y-13694746D02*
X9267801Y-13751888D01*
X9267801Y-13751888D02*
X9258277Y-13770936D01*
X9258277Y-13770936D02*
X9248753Y-13780460D01*
X9248753Y-13780460D02*
X9229706Y-13789984D01*
X9229706Y-13789984D02*
X9201134Y-13789984D01*
X9382087Y-13789984D02*
X9363039Y-13780460D01*
X9363039Y-13780460D02*
X9353515Y-13761412D01*
X9353515Y-13761412D02*
X9353515Y-13589984D01*
X9534468Y-13780460D02*
X9515420Y-13789984D01*
X9515420Y-13789984D02*
X9477325Y-13789984D01*
X9477325Y-13789984D02*
X9458277Y-13780460D01*
X9458277Y-13780460D02*
X9448753Y-13761412D01*
X9448753Y-13761412D02*
X9448753Y-13685222D01*
X9448753Y-13685222D02*
X9458277Y-13666174D01*
X9458277Y-13666174D02*
X9477325Y-13656650D01*
X9477325Y-13656650D02*
X9515420Y-13656650D01*
X9515420Y-13656650D02*
X9534468Y-13666174D01*
X9534468Y-13666174D02*
X9543992Y-13685222D01*
X9543992Y-13685222D02*
X9543992Y-13704269D01*
X9543992Y-13704269D02*
X9448753Y-13723317D01*
X9620182Y-13780460D02*
X9639230Y-13789984D01*
X9639230Y-13789984D02*
X9677325Y-13789984D01*
X9677325Y-13789984D02*
X9696373Y-13780460D01*
X9696373Y-13780460D02*
X9705896Y-13761412D01*
X9705896Y-13761412D02*
X9705896Y-13751888D01*
X9705896Y-13751888D02*
X9696373Y-13732841D01*
X9696373Y-13732841D02*
X9677325Y-13723317D01*
X9677325Y-13723317D02*
X9648753Y-13723317D01*
X9648753Y-13723317D02*
X9629706Y-13713793D01*
X9629706Y-13713793D02*
X9620182Y-13694746D01*
X9620182Y-13694746D02*
X9620182Y-13685222D01*
X9620182Y-13685222D02*
X9629706Y-13666174D01*
X9629706Y-13666174D02*
X9648753Y-13656650D01*
X9648753Y-13656650D02*
X9677325Y-13656650D01*
X9677325Y-13656650D02*
X9696373Y-13666174D01*
X9772563Y-13866174D02*
X9782087Y-13856650D01*
X9782087Y-13856650D02*
X9801134Y-13828079D01*
X9801134Y-13828079D02*
X9810658Y-13809031D01*
X9810658Y-13809031D02*
X9820182Y-13780460D01*
X9820182Y-13780460D02*
X9829706Y-13732841D01*
X9829706Y-13732841D02*
X9829706Y-13694746D01*
X9829706Y-13694746D02*
X9820182Y-13647127D01*
X9820182Y-13647127D02*
X9810658Y-13618555D01*
X9810658Y-13618555D02*
X9801134Y-13599508D01*
X9801134Y-13599508D02*
X9782087Y-13570936D01*
X9782087Y-13570936D02*
X9772563Y-13561412D01*
M02*
