G04 #@! TF.GenerationSoftware,KiCad,Pcbnew,8.0.4*
G04 #@! TF.CreationDate,2024-09-02T22:22:01-07:00*
G04 #@! TF.ProjectId,HDMI Breakout,48444d49-2042-4726-9561-6b6f75742e6b,rev?*
G04 #@! TF.SameCoordinates,Original*
G04 #@! TF.FileFunction,Legend,Top*
G04 #@! TF.FilePolarity,Positive*
%FSLAX46Y46*%
G04 Gerber Fmt 4.6, Leading zero omitted, Abs format (unit mm)*
G04 Created by KiCad (PCBNEW 8.0.4) date 2024-09-02 22:22:01*
%MOMM*%
%LPD*%
G01*
G04 APERTURE LIST*
G04 Aperture macros list*
%AMRoundRect*
0 Rectangle with rounded corners*
0 $1 Rounding radius*
0 $2 $3 $4 $5 $6 $7 $8 $9 X,Y pos of 4 corners*
0 Add a 4 corners polygon primitive as box body*
4,1,4,$2,$3,$4,$5,$6,$7,$8,$9,$2,$3,0*
0 Add four circle primitives for the rounded corners*
1,1,$1+$1,$2,$3*
1,1,$1+$1,$4,$5*
1,1,$1+$1,$6,$7*
1,1,$1+$1,$8,$9*
0 Add four rect primitives between the rounded corners*
20,1,$1+$1,$2,$3,$4,$5,0*
20,1,$1+$1,$4,$5,$6,$7,0*
20,1,$1+$1,$6,$7,$8,$9,0*
20,1,$1+$1,$8,$9,$2,$3,0*%
G04 Aperture macros list end*
%ADD10C,0.300000*%
%ADD11C,0.100000*%
%ADD12C,0.150000*%
%ADD13C,0.152400*%
%ADD14C,0.120000*%
%ADD15C,0.200000*%
%ADD16R,2.641600X0.330200*%
%ADD17O,3.500000X1.350000*%
%ADD18O,2.500000X1.350000*%
%ADD19RoundRect,0.140000X0.170000X-0.140000X0.170000X0.140000X-0.170000X0.140000X-0.170000X-0.140000X0*%
%ADD20C,0.650000*%
%ADD21RoundRect,0.150000X-0.500000X0.150000X-0.500000X-0.150000X0.500000X-0.150000X0.500000X0.150000X0*%
%ADD22RoundRect,0.075000X-0.575000X0.075000X-0.575000X-0.075000X0.575000X-0.075000X0.575000X0.075000X0*%
%ADD23O,2.100000X1.000000*%
%ADD24O,1.600000X1.000000*%
%ADD25C,1.152000*%
%ADD26RoundRect,0.135000X-0.185000X0.135000X-0.185000X-0.135000X0.185000X-0.135000X0.185000X0.135000X0*%
%ADD27R,1.500000X0.900000*%
%ADD28R,0.800000X0.800000*%
%ADD29RoundRect,0.140000X-0.170000X0.140000X-0.170000X-0.140000X0.170000X-0.140000X0.170000X0.140000X0*%
%ADD30RoundRect,0.135000X-0.135000X-0.185000X0.135000X-0.185000X0.135000X0.185000X-0.135000X0.185000X0*%
%ADD31RoundRect,0.140000X-0.140000X-0.170000X0.140000X-0.170000X0.140000X0.170000X-0.140000X0.170000X0*%
%ADD32RoundRect,0.135000X0.135000X0.185000X-0.135000X0.185000X-0.135000X-0.185000X0.135000X-0.185000X0*%
%ADD33RoundRect,0.218750X0.256250X-0.218750X0.256250X0.218750X-0.256250X0.218750X-0.256250X-0.218750X0*%
%ADD34RoundRect,0.250000X0.475000X-0.250000X0.475000X0.250000X-0.475000X0.250000X-0.475000X-0.250000X0*%
%ADD35C,4.400000*%
%ADD36RoundRect,0.250000X-0.250000X-0.475000X0.250000X-0.475000X0.250000X0.475000X-0.250000X0.475000X0*%
%ADD37RoundRect,0.135000X0.185000X-0.135000X0.185000X0.135000X-0.185000X0.135000X-0.185000X-0.135000X0*%
%ADD38RoundRect,0.100000X-0.225000X-0.100000X0.225000X-0.100000X0.225000X0.100000X-0.225000X0.100000X0*%
%ADD39RoundRect,0.225000X-0.225000X-0.375000X0.225000X-0.375000X0.225000X0.375000X-0.225000X0.375000X0*%
%ADD40RoundRect,0.225000X0.225000X0.375000X-0.225000X0.375000X-0.225000X-0.375000X0.225000X-0.375000X0*%
%ADD41RoundRect,0.375000X-0.625000X-0.375000X0.625000X-0.375000X0.625000X0.375000X-0.625000X0.375000X0*%
%ADD42RoundRect,0.500000X-0.500000X-1.400000X0.500000X-1.400000X0.500000X1.400000X-0.500000X1.400000X0*%
%ADD43RoundRect,0.150000X0.150000X-0.587500X0.150000X0.587500X-0.150000X0.587500X-0.150000X-0.587500X0*%
%ADD44RoundRect,0.375000X0.375000X-0.625000X0.375000X0.625000X-0.375000X0.625000X-0.375000X-0.625000X0*%
%ADD45RoundRect,0.500000X1.400000X-0.500000X1.400000X0.500000X-1.400000X0.500000X-1.400000X-0.500000X0*%
%ADD46RoundRect,0.150000X0.500000X-0.150000X0.500000X0.150000X-0.500000X0.150000X-0.500000X-0.150000X0*%
%ADD47RoundRect,0.075000X0.575000X-0.075000X0.575000X0.075000X-0.575000X0.075000X-0.575000X-0.075000X0*%
%ADD48R,2.300000X2.400000*%
%ADD49RoundRect,0.140000X0.140000X0.170000X-0.140000X0.170000X-0.140000X-0.170000X0.140000X-0.170000X0*%
%ADD50RoundRect,0.150000X-0.587500X-0.150000X0.587500X-0.150000X0.587500X0.150000X-0.587500X0.150000X0*%
%ADD51RoundRect,0.250000X-0.475000X0.250000X-0.475000X-0.250000X0.475000X-0.250000X0.475000X0.250000X0*%
%ADD52R,0.599999X0.240000*%
%ADD53R,0.240000X0.599999*%
%ADD54R,4.099999X4.099999*%
%ADD55RoundRect,0.250000X0.250000X0.475000X-0.250000X0.475000X-0.250000X-0.475000X0.250000X-0.475000X0*%
%ADD56RoundRect,0.150000X-0.150000X0.587500X-0.150000X-0.587500X0.150000X-0.587500X0.150000X0.587500X0*%
%ADD57RoundRect,0.062500X-0.337500X-0.062500X0.337500X-0.062500X0.337500X0.062500X-0.337500X0.062500X0*%
%ADD58RoundRect,0.062500X-0.062500X-0.337500X0.062500X-0.337500X0.062500X0.337500X-0.062500X0.337500X0*%
%ADD59R,3.350000X3.350000*%
G04 APERTURE END LIST*
D10*
X86548320Y-115094400D02*
X86834034Y-115189638D01*
X86834034Y-115189638D02*
X87310225Y-115189638D01*
X87310225Y-115189638D02*
X87500701Y-115094400D01*
X87500701Y-115094400D02*
X87595939Y-114999161D01*
X87595939Y-114999161D02*
X87691177Y-114808685D01*
X87691177Y-114808685D02*
X87691177Y-114618209D01*
X87691177Y-114618209D02*
X87595939Y-114427733D01*
X87595939Y-114427733D02*
X87500701Y-114332495D01*
X87500701Y-114332495D02*
X87310225Y-114237257D01*
X87310225Y-114237257D02*
X86929272Y-114142019D01*
X86929272Y-114142019D02*
X86738796Y-114046780D01*
X86738796Y-114046780D02*
X86643558Y-113951542D01*
X86643558Y-113951542D02*
X86548320Y-113761066D01*
X86548320Y-113761066D02*
X86548320Y-113570590D01*
X86548320Y-113570590D02*
X86643558Y-113380114D01*
X86643558Y-113380114D02*
X86738796Y-113284876D01*
X86738796Y-113284876D02*
X86929272Y-113189638D01*
X86929272Y-113189638D02*
X87405463Y-113189638D01*
X87405463Y-113189638D02*
X87691177Y-113284876D01*
X88548320Y-115189638D02*
X88548320Y-113189638D01*
X88548320Y-113189638D02*
X89691177Y-115189638D01*
X89691177Y-115189638D02*
X89691177Y-113189638D01*
X90643558Y-115189638D02*
X90643558Y-113189638D01*
X91786415Y-115189638D02*
X90929272Y-114046780D01*
X91786415Y-113189638D02*
X90643558Y-114332495D01*
X81783558Y-112329638D02*
X81783558Y-110329638D01*
X81783558Y-111282019D02*
X82926415Y-111282019D01*
X82926415Y-112329638D02*
X82926415Y-110329638D01*
X83878796Y-112329638D02*
X83878796Y-110329638D01*
X83878796Y-110329638D02*
X84354986Y-110329638D01*
X84354986Y-110329638D02*
X84640701Y-110424876D01*
X84640701Y-110424876D02*
X84831177Y-110615352D01*
X84831177Y-110615352D02*
X84926415Y-110805828D01*
X84926415Y-110805828D02*
X85021653Y-111186780D01*
X85021653Y-111186780D02*
X85021653Y-111472495D01*
X85021653Y-111472495D02*
X84926415Y-111853447D01*
X84926415Y-111853447D02*
X84831177Y-112043923D01*
X84831177Y-112043923D02*
X84640701Y-112234400D01*
X84640701Y-112234400D02*
X84354986Y-112329638D01*
X84354986Y-112329638D02*
X83878796Y-112329638D01*
X85878796Y-112329638D02*
X85878796Y-110329638D01*
X85878796Y-110329638D02*
X86545463Y-111758209D01*
X86545463Y-111758209D02*
X87212129Y-110329638D01*
X87212129Y-110329638D02*
X87212129Y-112329638D01*
X88164510Y-112329638D02*
X88164510Y-110329638D01*
X103103558Y-79879638D02*
X103103558Y-81498685D01*
X103103558Y-81498685D02*
X103198796Y-81689161D01*
X103198796Y-81689161D02*
X103294034Y-81784400D01*
X103294034Y-81784400D02*
X103484510Y-81879638D01*
X103484510Y-81879638D02*
X103865463Y-81879638D01*
X103865463Y-81879638D02*
X104055939Y-81784400D01*
X104055939Y-81784400D02*
X104151177Y-81689161D01*
X104151177Y-81689161D02*
X104246415Y-81498685D01*
X104246415Y-81498685D02*
X104246415Y-79879638D01*
X105103558Y-81784400D02*
X105389272Y-81879638D01*
X105389272Y-81879638D02*
X105865463Y-81879638D01*
X105865463Y-81879638D02*
X106055939Y-81784400D01*
X106055939Y-81784400D02*
X106151177Y-81689161D01*
X106151177Y-81689161D02*
X106246415Y-81498685D01*
X106246415Y-81498685D02*
X106246415Y-81308209D01*
X106246415Y-81308209D02*
X106151177Y-81117733D01*
X106151177Y-81117733D02*
X106055939Y-81022495D01*
X106055939Y-81022495D02*
X105865463Y-80927257D01*
X105865463Y-80927257D02*
X105484510Y-80832019D01*
X105484510Y-80832019D02*
X105294034Y-80736780D01*
X105294034Y-80736780D02*
X105198796Y-80641542D01*
X105198796Y-80641542D02*
X105103558Y-80451066D01*
X105103558Y-80451066D02*
X105103558Y-80260590D01*
X105103558Y-80260590D02*
X105198796Y-80070114D01*
X105198796Y-80070114D02*
X105294034Y-79974876D01*
X105294034Y-79974876D02*
X105484510Y-79879638D01*
X105484510Y-79879638D02*
X105960701Y-79879638D01*
X105960701Y-79879638D02*
X106246415Y-79974876D01*
X107770225Y-80832019D02*
X108055939Y-80927257D01*
X108055939Y-80927257D02*
X108151177Y-81022495D01*
X108151177Y-81022495D02*
X108246415Y-81212971D01*
X108246415Y-81212971D02*
X108246415Y-81498685D01*
X108246415Y-81498685D02*
X108151177Y-81689161D01*
X108151177Y-81689161D02*
X108055939Y-81784400D01*
X108055939Y-81784400D02*
X107865463Y-81879638D01*
X107865463Y-81879638D02*
X107103558Y-81879638D01*
X107103558Y-81879638D02*
X107103558Y-79879638D01*
X107103558Y-79879638D02*
X107770225Y-79879638D01*
X107770225Y-79879638D02*
X107960701Y-79974876D01*
X107960701Y-79974876D02*
X108055939Y-80070114D01*
X108055939Y-80070114D02*
X108151177Y-80260590D01*
X108151177Y-80260590D02*
X108151177Y-80451066D01*
X108151177Y-80451066D02*
X108055939Y-80641542D01*
X108055939Y-80641542D02*
X107960701Y-80736780D01*
X107960701Y-80736780D02*
X107770225Y-80832019D01*
X107770225Y-80832019D02*
X107103558Y-80832019D01*
X109770225Y-80832019D02*
X110055939Y-80927257D01*
X110055939Y-80927257D02*
X110151177Y-81022495D01*
X110151177Y-81022495D02*
X110246415Y-81212971D01*
X110246415Y-81212971D02*
X110246415Y-81498685D01*
X110246415Y-81498685D02*
X110151177Y-81689161D01*
X110151177Y-81689161D02*
X110055939Y-81784400D01*
X110055939Y-81784400D02*
X109865463Y-81879638D01*
X109865463Y-81879638D02*
X109103558Y-81879638D01*
X109103558Y-81879638D02*
X109103558Y-79879638D01*
X109103558Y-79879638D02*
X109770225Y-79879638D01*
X109770225Y-79879638D02*
X109960701Y-79974876D01*
X109960701Y-79974876D02*
X110055939Y-80070114D01*
X110055939Y-80070114D02*
X110151177Y-80260590D01*
X110151177Y-80260590D02*
X110151177Y-80451066D01*
X110151177Y-80451066D02*
X110055939Y-80641542D01*
X110055939Y-80641542D02*
X109960701Y-80736780D01*
X109960701Y-80736780D02*
X109770225Y-80832019D01*
X109770225Y-80832019D02*
X109103558Y-80832019D01*
X71372019Y-109139774D02*
X71467257Y-108854060D01*
X71467257Y-108854060D02*
X71562495Y-108758822D01*
X71562495Y-108758822D02*
X71752971Y-108663584D01*
X71752971Y-108663584D02*
X72038685Y-108663584D01*
X72038685Y-108663584D02*
X72229161Y-108758822D01*
X72229161Y-108758822D02*
X72324400Y-108854060D01*
X72324400Y-108854060D02*
X72419638Y-109044536D01*
X72419638Y-109044536D02*
X72419638Y-109806441D01*
X72419638Y-109806441D02*
X70419638Y-109806441D01*
X70419638Y-109806441D02*
X70419638Y-109139774D01*
X70419638Y-109139774D02*
X70514876Y-108949298D01*
X70514876Y-108949298D02*
X70610114Y-108854060D01*
X70610114Y-108854060D02*
X70800590Y-108758822D01*
X70800590Y-108758822D02*
X70991066Y-108758822D01*
X70991066Y-108758822D02*
X71181542Y-108854060D01*
X71181542Y-108854060D02*
X71276780Y-108949298D01*
X71276780Y-108949298D02*
X71372019Y-109139774D01*
X71372019Y-109139774D02*
X71372019Y-109806441D01*
X70419638Y-107425489D02*
X70419638Y-107044536D01*
X70419638Y-107044536D02*
X70514876Y-106854060D01*
X70514876Y-106854060D02*
X70705352Y-106663584D01*
X70705352Y-106663584D02*
X71086304Y-106568346D01*
X71086304Y-106568346D02*
X71752971Y-106568346D01*
X71752971Y-106568346D02*
X72133923Y-106663584D01*
X72133923Y-106663584D02*
X72324400Y-106854060D01*
X72324400Y-106854060D02*
X72419638Y-107044536D01*
X72419638Y-107044536D02*
X72419638Y-107425489D01*
X72419638Y-107425489D02*
X72324400Y-107615965D01*
X72324400Y-107615965D02*
X72133923Y-107806441D01*
X72133923Y-107806441D02*
X71752971Y-107901679D01*
X71752971Y-107901679D02*
X71086304Y-107901679D01*
X71086304Y-107901679D02*
X70705352Y-107806441D01*
X70705352Y-107806441D02*
X70514876Y-107615965D01*
X70514876Y-107615965D02*
X70419638Y-107425489D01*
X70419638Y-105330251D02*
X70419638Y-104949298D01*
X70419638Y-104949298D02*
X70514876Y-104758822D01*
X70514876Y-104758822D02*
X70705352Y-104568346D01*
X70705352Y-104568346D02*
X71086304Y-104473108D01*
X71086304Y-104473108D02*
X71752971Y-104473108D01*
X71752971Y-104473108D02*
X72133923Y-104568346D01*
X72133923Y-104568346D02*
X72324400Y-104758822D01*
X72324400Y-104758822D02*
X72419638Y-104949298D01*
X72419638Y-104949298D02*
X72419638Y-105330251D01*
X72419638Y-105330251D02*
X72324400Y-105520727D01*
X72324400Y-105520727D02*
X72133923Y-105711203D01*
X72133923Y-105711203D02*
X71752971Y-105806441D01*
X71752971Y-105806441D02*
X71086304Y-105806441D01*
X71086304Y-105806441D02*
X70705352Y-105711203D01*
X70705352Y-105711203D02*
X70514876Y-105520727D01*
X70514876Y-105520727D02*
X70419638Y-105330251D01*
X70419638Y-103901679D02*
X70419638Y-102758822D01*
X72419638Y-103330251D02*
X70419638Y-103330251D01*
X50943558Y-60259638D02*
X50943558Y-58259638D01*
X50943558Y-59212019D02*
X52086415Y-59212019D01*
X52086415Y-60259638D02*
X52086415Y-58259638D01*
X53038796Y-60259638D02*
X53038796Y-58259638D01*
X53038796Y-58259638D02*
X53514986Y-58259638D01*
X53514986Y-58259638D02*
X53800701Y-58354876D01*
X53800701Y-58354876D02*
X53991177Y-58545352D01*
X53991177Y-58545352D02*
X54086415Y-58735828D01*
X54086415Y-58735828D02*
X54181653Y-59116780D01*
X54181653Y-59116780D02*
X54181653Y-59402495D01*
X54181653Y-59402495D02*
X54086415Y-59783447D01*
X54086415Y-59783447D02*
X53991177Y-59973923D01*
X53991177Y-59973923D02*
X53800701Y-60164400D01*
X53800701Y-60164400D02*
X53514986Y-60259638D01*
X53514986Y-60259638D02*
X53038796Y-60259638D01*
X55038796Y-60259638D02*
X55038796Y-58259638D01*
X55038796Y-58259638D02*
X55705463Y-59688209D01*
X55705463Y-59688209D02*
X56372129Y-58259638D01*
X56372129Y-58259638D02*
X56372129Y-60259638D01*
X57324510Y-60259638D02*
X57324510Y-58259638D01*
X59705463Y-60164400D02*
X59991177Y-60259638D01*
X59991177Y-60259638D02*
X60467368Y-60259638D01*
X60467368Y-60259638D02*
X60657844Y-60164400D01*
X60657844Y-60164400D02*
X60753082Y-60069161D01*
X60753082Y-60069161D02*
X60848320Y-59878685D01*
X60848320Y-59878685D02*
X60848320Y-59688209D01*
X60848320Y-59688209D02*
X60753082Y-59497733D01*
X60753082Y-59497733D02*
X60657844Y-59402495D01*
X60657844Y-59402495D02*
X60467368Y-59307257D01*
X60467368Y-59307257D02*
X60086415Y-59212019D01*
X60086415Y-59212019D02*
X59895939Y-59116780D01*
X59895939Y-59116780D02*
X59800701Y-59021542D01*
X59800701Y-59021542D02*
X59705463Y-58831066D01*
X59705463Y-58831066D02*
X59705463Y-58640590D01*
X59705463Y-58640590D02*
X59800701Y-58450114D01*
X59800701Y-58450114D02*
X59895939Y-58354876D01*
X59895939Y-58354876D02*
X60086415Y-58259638D01*
X60086415Y-58259638D02*
X60562606Y-58259638D01*
X60562606Y-58259638D02*
X60848320Y-58354876D01*
X62848320Y-60259638D02*
X62181653Y-59307257D01*
X61705463Y-60259638D02*
X61705463Y-58259638D01*
X61705463Y-58259638D02*
X62467368Y-58259638D01*
X62467368Y-58259638D02*
X62657844Y-58354876D01*
X62657844Y-58354876D02*
X62753082Y-58450114D01*
X62753082Y-58450114D02*
X62848320Y-58640590D01*
X62848320Y-58640590D02*
X62848320Y-58926304D01*
X62848320Y-58926304D02*
X62753082Y-59116780D01*
X62753082Y-59116780D02*
X62657844Y-59212019D01*
X62657844Y-59212019D02*
X62467368Y-59307257D01*
X62467368Y-59307257D02*
X61705463Y-59307257D01*
X64848320Y-60069161D02*
X64753082Y-60164400D01*
X64753082Y-60164400D02*
X64467368Y-60259638D01*
X64467368Y-60259638D02*
X64276892Y-60259638D01*
X64276892Y-60259638D02*
X63991177Y-60164400D01*
X63991177Y-60164400D02*
X63800701Y-59973923D01*
X63800701Y-59973923D02*
X63705463Y-59783447D01*
X63705463Y-59783447D02*
X63610225Y-59402495D01*
X63610225Y-59402495D02*
X63610225Y-59116780D01*
X63610225Y-59116780D02*
X63705463Y-58735828D01*
X63705463Y-58735828D02*
X63800701Y-58545352D01*
X63800701Y-58545352D02*
X63991177Y-58354876D01*
X63991177Y-58354876D02*
X64276892Y-58259638D01*
X64276892Y-58259638D02*
X64467368Y-58259638D01*
X64467368Y-58259638D02*
X64753082Y-58354876D01*
X64753082Y-58354876D02*
X64848320Y-58450114D01*
X99729638Y-108613584D02*
X98777257Y-109280251D01*
X99729638Y-109756441D02*
X97729638Y-109756441D01*
X97729638Y-109756441D02*
X97729638Y-108994536D01*
X97729638Y-108994536D02*
X97824876Y-108804060D01*
X97824876Y-108804060D02*
X97920114Y-108708822D01*
X97920114Y-108708822D02*
X98110590Y-108613584D01*
X98110590Y-108613584D02*
X98396304Y-108613584D01*
X98396304Y-108613584D02*
X98586780Y-108708822D01*
X98586780Y-108708822D02*
X98682019Y-108804060D01*
X98682019Y-108804060D02*
X98777257Y-108994536D01*
X98777257Y-108994536D02*
X98777257Y-109756441D01*
X98682019Y-107756441D02*
X98682019Y-107089774D01*
X99729638Y-106804060D02*
X99729638Y-107756441D01*
X99729638Y-107756441D02*
X97729638Y-107756441D01*
X97729638Y-107756441D02*
X97729638Y-106804060D01*
X99634400Y-106042155D02*
X99729638Y-105756441D01*
X99729638Y-105756441D02*
X99729638Y-105280250D01*
X99729638Y-105280250D02*
X99634400Y-105089774D01*
X99634400Y-105089774D02*
X99539161Y-104994536D01*
X99539161Y-104994536D02*
X99348685Y-104899298D01*
X99348685Y-104899298D02*
X99158209Y-104899298D01*
X99158209Y-104899298D02*
X98967733Y-104994536D01*
X98967733Y-104994536D02*
X98872495Y-105089774D01*
X98872495Y-105089774D02*
X98777257Y-105280250D01*
X98777257Y-105280250D02*
X98682019Y-105661203D01*
X98682019Y-105661203D02*
X98586780Y-105851679D01*
X98586780Y-105851679D02*
X98491542Y-105946917D01*
X98491542Y-105946917D02*
X98301066Y-106042155D01*
X98301066Y-106042155D02*
X98110590Y-106042155D01*
X98110590Y-106042155D02*
X97920114Y-105946917D01*
X97920114Y-105946917D02*
X97824876Y-105851679D01*
X97824876Y-105851679D02*
X97729638Y-105661203D01*
X97729638Y-105661203D02*
X97729638Y-105185012D01*
X97729638Y-105185012D02*
X97824876Y-104899298D01*
X98682019Y-104042155D02*
X98682019Y-103375488D01*
X99729638Y-103089774D02*
X99729638Y-104042155D01*
X99729638Y-104042155D02*
X97729638Y-104042155D01*
X97729638Y-104042155D02*
X97729638Y-103089774D01*
X97729638Y-102518345D02*
X97729638Y-101375488D01*
X99729638Y-101946917D02*
X97729638Y-101946917D01*
X56454510Y-78939638D02*
X56454510Y-80558685D01*
X56454510Y-80558685D02*
X56525939Y-80749161D01*
X56525939Y-80749161D02*
X56597368Y-80844400D01*
X56597368Y-80844400D02*
X56740225Y-80939638D01*
X56740225Y-80939638D02*
X57025939Y-80939638D01*
X57025939Y-80939638D02*
X57168796Y-80844400D01*
X57168796Y-80844400D02*
X57240225Y-80749161D01*
X57240225Y-80749161D02*
X57311653Y-80558685D01*
X57311653Y-80558685D02*
X57311653Y-78939638D01*
X57954511Y-80844400D02*
X58168797Y-80939638D01*
X58168797Y-80939638D02*
X58525939Y-80939638D01*
X58525939Y-80939638D02*
X58668797Y-80844400D01*
X58668797Y-80844400D02*
X58740225Y-80749161D01*
X58740225Y-80749161D02*
X58811654Y-80558685D01*
X58811654Y-80558685D02*
X58811654Y-80368209D01*
X58811654Y-80368209D02*
X58740225Y-80177733D01*
X58740225Y-80177733D02*
X58668797Y-80082495D01*
X58668797Y-80082495D02*
X58525939Y-79987257D01*
X58525939Y-79987257D02*
X58240225Y-79892019D01*
X58240225Y-79892019D02*
X58097368Y-79796780D01*
X58097368Y-79796780D02*
X58025939Y-79701542D01*
X58025939Y-79701542D02*
X57954511Y-79511066D01*
X57954511Y-79511066D02*
X57954511Y-79320590D01*
X57954511Y-79320590D02*
X58025939Y-79130114D01*
X58025939Y-79130114D02*
X58097368Y-79034876D01*
X58097368Y-79034876D02*
X58240225Y-78939638D01*
X58240225Y-78939638D02*
X58597368Y-78939638D01*
X58597368Y-78939638D02*
X58811654Y-79034876D01*
X59954510Y-79892019D02*
X60168796Y-79987257D01*
X60168796Y-79987257D02*
X60240225Y-80082495D01*
X60240225Y-80082495D02*
X60311653Y-80272971D01*
X60311653Y-80272971D02*
X60311653Y-80558685D01*
X60311653Y-80558685D02*
X60240225Y-80749161D01*
X60240225Y-80749161D02*
X60168796Y-80844400D01*
X60168796Y-80844400D02*
X60025939Y-80939638D01*
X60025939Y-80939638D02*
X59454510Y-80939638D01*
X59454510Y-80939638D02*
X59454510Y-78939638D01*
X59454510Y-78939638D02*
X59954510Y-78939638D01*
X59954510Y-78939638D02*
X60097368Y-79034876D01*
X60097368Y-79034876D02*
X60168796Y-79130114D01*
X60168796Y-79130114D02*
X60240225Y-79320590D01*
X60240225Y-79320590D02*
X60240225Y-79511066D01*
X60240225Y-79511066D02*
X60168796Y-79701542D01*
X60168796Y-79701542D02*
X60097368Y-79796780D01*
X60097368Y-79796780D02*
X59954510Y-79892019D01*
X59954510Y-79892019D02*
X59454510Y-79892019D01*
X60883082Y-80368209D02*
X61597368Y-80368209D01*
X60740225Y-80939638D02*
X61240225Y-78939638D01*
X61240225Y-78939638D02*
X61740225Y-80939638D01*
D11*
X57663884Y-51942475D02*
X57663884Y-50942475D01*
X57663884Y-51418665D02*
X58235312Y-51418665D01*
X58235312Y-51942475D02*
X58235312Y-50942475D01*
X58711503Y-51942475D02*
X58711503Y-50942475D01*
X58711503Y-50942475D02*
X58949598Y-50942475D01*
X58949598Y-50942475D02*
X59092455Y-50990094D01*
X59092455Y-50990094D02*
X59187693Y-51085332D01*
X59187693Y-51085332D02*
X59235312Y-51180570D01*
X59235312Y-51180570D02*
X59282931Y-51371046D01*
X59282931Y-51371046D02*
X59282931Y-51513903D01*
X59282931Y-51513903D02*
X59235312Y-51704379D01*
X59235312Y-51704379D02*
X59187693Y-51799617D01*
X59187693Y-51799617D02*
X59092455Y-51894856D01*
X59092455Y-51894856D02*
X58949598Y-51942475D01*
X58949598Y-51942475D02*
X58711503Y-51942475D01*
X59711503Y-51942475D02*
X59711503Y-50942475D01*
X59711503Y-50942475D02*
X60044836Y-51656760D01*
X60044836Y-51656760D02*
X60378169Y-50942475D01*
X60378169Y-50942475D02*
X60378169Y-51942475D01*
X60854360Y-51942475D02*
X60854360Y-50942475D01*
X61997217Y-50942475D02*
X62235312Y-51942475D01*
X62235312Y-51942475D02*
X62425788Y-51228189D01*
X62425788Y-51228189D02*
X62616264Y-51942475D01*
X62616264Y-51942475D02*
X62854360Y-50942475D01*
X63235312Y-51942475D02*
X63235312Y-51275808D01*
X63235312Y-50942475D02*
X63187693Y-50990094D01*
X63187693Y-50990094D02*
X63235312Y-51037713D01*
X63235312Y-51037713D02*
X63282931Y-50990094D01*
X63282931Y-50990094D02*
X63235312Y-50942475D01*
X63235312Y-50942475D02*
X63235312Y-51037713D01*
X64140073Y-51942475D02*
X64140073Y-50942475D01*
X64140073Y-51894856D02*
X64044835Y-51942475D01*
X64044835Y-51942475D02*
X63854359Y-51942475D01*
X63854359Y-51942475D02*
X63759121Y-51894856D01*
X63759121Y-51894856D02*
X63711502Y-51847236D01*
X63711502Y-51847236D02*
X63663883Y-51751998D01*
X63663883Y-51751998D02*
X63663883Y-51466284D01*
X63663883Y-51466284D02*
X63711502Y-51371046D01*
X63711502Y-51371046D02*
X63759121Y-51323427D01*
X63759121Y-51323427D02*
X63854359Y-51275808D01*
X63854359Y-51275808D02*
X64044835Y-51275808D01*
X64044835Y-51275808D02*
X64140073Y-51323427D01*
X65044835Y-51275808D02*
X65044835Y-52085332D01*
X65044835Y-52085332D02*
X64997216Y-52180570D01*
X64997216Y-52180570D02*
X64949597Y-52228189D01*
X64949597Y-52228189D02*
X64854359Y-52275808D01*
X64854359Y-52275808D02*
X64711502Y-52275808D01*
X64711502Y-52275808D02*
X64616264Y-52228189D01*
X65044835Y-51894856D02*
X64949597Y-51942475D01*
X64949597Y-51942475D02*
X64759121Y-51942475D01*
X64759121Y-51942475D02*
X64663883Y-51894856D01*
X64663883Y-51894856D02*
X64616264Y-51847236D01*
X64616264Y-51847236D02*
X64568645Y-51751998D01*
X64568645Y-51751998D02*
X64568645Y-51466284D01*
X64568645Y-51466284D02*
X64616264Y-51371046D01*
X64616264Y-51371046D02*
X64663883Y-51323427D01*
X64663883Y-51323427D02*
X64759121Y-51275808D01*
X64759121Y-51275808D02*
X64949597Y-51275808D01*
X64949597Y-51275808D02*
X65044835Y-51323427D01*
X65901978Y-51894856D02*
X65806740Y-51942475D01*
X65806740Y-51942475D02*
X65616264Y-51942475D01*
X65616264Y-51942475D02*
X65521026Y-51894856D01*
X65521026Y-51894856D02*
X65473407Y-51799617D01*
X65473407Y-51799617D02*
X65473407Y-51418665D01*
X65473407Y-51418665D02*
X65521026Y-51323427D01*
X65521026Y-51323427D02*
X65616264Y-51275808D01*
X65616264Y-51275808D02*
X65806740Y-51275808D01*
X65806740Y-51275808D02*
X65901978Y-51323427D01*
X65901978Y-51323427D02*
X65949597Y-51418665D01*
X65949597Y-51418665D02*
X65949597Y-51513903D01*
X65949597Y-51513903D02*
X65473407Y-51609141D01*
X66235312Y-51275808D02*
X66616264Y-51275808D01*
X66378169Y-50942475D02*
X66378169Y-51799617D01*
X66378169Y-51799617D02*
X66425788Y-51894856D01*
X66425788Y-51894856D02*
X66521026Y-51942475D01*
X66521026Y-51942475D02*
X66616264Y-51942475D01*
X68282931Y-51942475D02*
X67949598Y-51466284D01*
X67711503Y-51942475D02*
X67711503Y-50942475D01*
X67711503Y-50942475D02*
X68092455Y-50942475D01*
X68092455Y-50942475D02*
X68187693Y-50990094D01*
X68187693Y-50990094D02*
X68235312Y-51037713D01*
X68235312Y-51037713D02*
X68282931Y-51132951D01*
X68282931Y-51132951D02*
X68282931Y-51275808D01*
X68282931Y-51275808D02*
X68235312Y-51371046D01*
X68235312Y-51371046D02*
X68187693Y-51418665D01*
X68187693Y-51418665D02*
X68092455Y-51466284D01*
X68092455Y-51466284D02*
X67711503Y-51466284D01*
X69092455Y-51894856D02*
X68997217Y-51942475D01*
X68997217Y-51942475D02*
X68806741Y-51942475D01*
X68806741Y-51942475D02*
X68711503Y-51894856D01*
X68711503Y-51894856D02*
X68663884Y-51799617D01*
X68663884Y-51799617D02*
X68663884Y-51418665D01*
X68663884Y-51418665D02*
X68711503Y-51323427D01*
X68711503Y-51323427D02*
X68806741Y-51275808D01*
X68806741Y-51275808D02*
X68997217Y-51275808D01*
X68997217Y-51275808D02*
X69092455Y-51323427D01*
X69092455Y-51323427D02*
X69140074Y-51418665D01*
X69140074Y-51418665D02*
X69140074Y-51513903D01*
X69140074Y-51513903D02*
X68663884Y-51609141D01*
X69473408Y-51275808D02*
X69711503Y-51942475D01*
X69711503Y-51942475D02*
X69949598Y-51275808D01*
X71044837Y-51656760D02*
X71521027Y-51656760D01*
X70949599Y-51942475D02*
X71282932Y-50942475D01*
X71282932Y-50942475D02*
X71616265Y-51942475D01*
X58473408Y-52790514D02*
X58378169Y-52742895D01*
X58378169Y-52742895D02*
X58187693Y-52742895D01*
X58187693Y-52742895D02*
X58092455Y-52790514D01*
X58092455Y-52790514D02*
X57997217Y-52885752D01*
X57997217Y-52885752D02*
X57949598Y-52980990D01*
X57949598Y-52980990D02*
X57949598Y-53171466D01*
X57949598Y-53171466D02*
X57997217Y-53266704D01*
X57997217Y-53266704D02*
X58092455Y-53361942D01*
X58092455Y-53361942D02*
X58187693Y-53409561D01*
X58187693Y-53409561D02*
X58378169Y-53409561D01*
X58378169Y-53409561D02*
X58473408Y-53361942D01*
X58282931Y-52409561D02*
X58044836Y-52457180D01*
X58044836Y-52457180D02*
X57806741Y-52600038D01*
X57806741Y-52600038D02*
X57663884Y-52838133D01*
X57663884Y-52838133D02*
X57616265Y-53076228D01*
X57616265Y-53076228D02*
X57663884Y-53314323D01*
X57663884Y-53314323D02*
X57806741Y-53552419D01*
X57806741Y-53552419D02*
X58044836Y-53695276D01*
X58044836Y-53695276D02*
X58282931Y-53742895D01*
X58282931Y-53742895D02*
X58521027Y-53695276D01*
X58521027Y-53695276D02*
X58759122Y-53552419D01*
X58759122Y-53552419D02*
X58901979Y-53314323D01*
X58901979Y-53314323D02*
X58949598Y-53076228D01*
X58949598Y-53076228D02*
X58901979Y-52838133D01*
X58901979Y-52838133D02*
X58759122Y-52600038D01*
X58759122Y-52600038D02*
X58521027Y-52457180D01*
X58521027Y-52457180D02*
X58282931Y-52409561D01*
X60092456Y-52647657D02*
X60140075Y-52600038D01*
X60140075Y-52600038D02*
X60235313Y-52552419D01*
X60235313Y-52552419D02*
X60473408Y-52552419D01*
X60473408Y-52552419D02*
X60568646Y-52600038D01*
X60568646Y-52600038D02*
X60616265Y-52647657D01*
X60616265Y-52647657D02*
X60663884Y-52742895D01*
X60663884Y-52742895D02*
X60663884Y-52838133D01*
X60663884Y-52838133D02*
X60616265Y-52980990D01*
X60616265Y-52980990D02*
X60044837Y-53552419D01*
X60044837Y-53552419D02*
X60663884Y-53552419D01*
X61282932Y-52552419D02*
X61378170Y-52552419D01*
X61378170Y-52552419D02*
X61473408Y-52600038D01*
X61473408Y-52600038D02*
X61521027Y-52647657D01*
X61521027Y-52647657D02*
X61568646Y-52742895D01*
X61568646Y-52742895D02*
X61616265Y-52933371D01*
X61616265Y-52933371D02*
X61616265Y-53171466D01*
X61616265Y-53171466D02*
X61568646Y-53361942D01*
X61568646Y-53361942D02*
X61521027Y-53457180D01*
X61521027Y-53457180D02*
X61473408Y-53504800D01*
X61473408Y-53504800D02*
X61378170Y-53552419D01*
X61378170Y-53552419D02*
X61282932Y-53552419D01*
X61282932Y-53552419D02*
X61187694Y-53504800D01*
X61187694Y-53504800D02*
X61140075Y-53457180D01*
X61140075Y-53457180D02*
X61092456Y-53361942D01*
X61092456Y-53361942D02*
X61044837Y-53171466D01*
X61044837Y-53171466D02*
X61044837Y-52933371D01*
X61044837Y-52933371D02*
X61092456Y-52742895D01*
X61092456Y-52742895D02*
X61140075Y-52647657D01*
X61140075Y-52647657D02*
X61187694Y-52600038D01*
X61187694Y-52600038D02*
X61282932Y-52552419D01*
X61997218Y-52647657D02*
X62044837Y-52600038D01*
X62044837Y-52600038D02*
X62140075Y-52552419D01*
X62140075Y-52552419D02*
X62378170Y-52552419D01*
X62378170Y-52552419D02*
X62473408Y-52600038D01*
X62473408Y-52600038D02*
X62521027Y-52647657D01*
X62521027Y-52647657D02*
X62568646Y-52742895D01*
X62568646Y-52742895D02*
X62568646Y-52838133D01*
X62568646Y-52838133D02*
X62521027Y-52980990D01*
X62521027Y-52980990D02*
X61949599Y-53552419D01*
X61949599Y-53552419D02*
X62568646Y-53552419D01*
X63425789Y-52885752D02*
X63425789Y-53552419D01*
X63187694Y-52504800D02*
X62949599Y-53219085D01*
X62949599Y-53219085D02*
X63568646Y-53219085D01*
X64711504Y-53552419D02*
X64711504Y-52552419D01*
X65330551Y-53552419D02*
X65235313Y-53504800D01*
X65235313Y-53504800D02*
X65187694Y-53457180D01*
X65187694Y-53457180D02*
X65140075Y-53361942D01*
X65140075Y-53361942D02*
X65140075Y-53076228D01*
X65140075Y-53076228D02*
X65187694Y-52980990D01*
X65187694Y-52980990D02*
X65235313Y-52933371D01*
X65235313Y-52933371D02*
X65330551Y-52885752D01*
X65330551Y-52885752D02*
X65473408Y-52885752D01*
X65473408Y-52885752D02*
X65568646Y-52933371D01*
X65568646Y-52933371D02*
X65616265Y-52980990D01*
X65616265Y-52980990D02*
X65663884Y-53076228D01*
X65663884Y-53076228D02*
X65663884Y-53361942D01*
X65663884Y-53361942D02*
X65616265Y-53457180D01*
X65616265Y-53457180D02*
X65568646Y-53504800D01*
X65568646Y-53504800D02*
X65473408Y-53552419D01*
X65473408Y-53552419D02*
X65330551Y-53552419D01*
X66092456Y-52885752D02*
X66092456Y-53552419D01*
X66092456Y-52980990D02*
X66140075Y-52933371D01*
X66140075Y-52933371D02*
X66235313Y-52885752D01*
X66235313Y-52885752D02*
X66378170Y-52885752D01*
X66378170Y-52885752D02*
X66473408Y-52933371D01*
X66473408Y-52933371D02*
X66521027Y-53028609D01*
X66521027Y-53028609D02*
X66521027Y-53552419D01*
X67140075Y-53552419D02*
X67044837Y-53504800D01*
X67044837Y-53504800D02*
X66997218Y-53457180D01*
X66997218Y-53457180D02*
X66949599Y-53361942D01*
X66949599Y-53361942D02*
X66949599Y-53076228D01*
X66949599Y-53076228D02*
X66997218Y-52980990D01*
X66997218Y-52980990D02*
X67044837Y-52933371D01*
X67044837Y-52933371D02*
X67140075Y-52885752D01*
X67140075Y-52885752D02*
X67282932Y-52885752D01*
X67282932Y-52885752D02*
X67378170Y-52933371D01*
X67378170Y-52933371D02*
X67425789Y-52980990D01*
X67425789Y-52980990D02*
X67473408Y-53076228D01*
X67473408Y-53076228D02*
X67473408Y-53361942D01*
X67473408Y-53361942D02*
X67425789Y-53457180D01*
X67425789Y-53457180D02*
X67378170Y-53504800D01*
X67378170Y-53504800D02*
X67282932Y-53552419D01*
X67282932Y-53552419D02*
X67140075Y-53552419D01*
X67854361Y-53504800D02*
X67949599Y-53552419D01*
X67949599Y-53552419D02*
X68140075Y-53552419D01*
X68140075Y-53552419D02*
X68235313Y-53504800D01*
X68235313Y-53504800D02*
X68282932Y-53409561D01*
X68282932Y-53409561D02*
X68282932Y-53361942D01*
X68282932Y-53361942D02*
X68235313Y-53266704D01*
X68235313Y-53266704D02*
X68140075Y-53219085D01*
X68140075Y-53219085D02*
X67997218Y-53219085D01*
X67997218Y-53219085D02*
X67901980Y-53171466D01*
X67901980Y-53171466D02*
X67854361Y-53076228D01*
X67854361Y-53076228D02*
X67854361Y-53028609D01*
X67854361Y-53028609D02*
X67901980Y-52933371D01*
X67901980Y-52933371D02*
X67997218Y-52885752D01*
X67997218Y-52885752D02*
X68140075Y-52885752D01*
X68140075Y-52885752D02*
X68235313Y-52933371D01*
X68711504Y-52885752D02*
X68711504Y-53885752D01*
X68711504Y-52933371D02*
X68806742Y-52885752D01*
X68806742Y-52885752D02*
X68997218Y-52885752D01*
X68997218Y-52885752D02*
X69092456Y-52933371D01*
X69092456Y-52933371D02*
X69140075Y-52980990D01*
X69140075Y-52980990D02*
X69187694Y-53076228D01*
X69187694Y-53076228D02*
X69187694Y-53361942D01*
X69187694Y-53361942D02*
X69140075Y-53457180D01*
X69140075Y-53457180D02*
X69092456Y-53504800D01*
X69092456Y-53504800D02*
X68997218Y-53552419D01*
X68997218Y-53552419D02*
X68806742Y-53552419D01*
X68806742Y-53552419D02*
X68711504Y-53504800D01*
X69616266Y-53552419D02*
X69616266Y-52552419D01*
X70044837Y-53552419D02*
X70044837Y-53028609D01*
X70044837Y-53028609D02*
X69997218Y-52933371D01*
X69997218Y-52933371D02*
X69901980Y-52885752D01*
X69901980Y-52885752D02*
X69759123Y-52885752D01*
X69759123Y-52885752D02*
X69663885Y-52933371D01*
X69663885Y-52933371D02*
X69616266Y-52980990D01*
X70901980Y-53504800D02*
X70806742Y-53552419D01*
X70806742Y-53552419D02*
X70616266Y-53552419D01*
X70616266Y-53552419D02*
X70521028Y-53504800D01*
X70521028Y-53504800D02*
X70473409Y-53409561D01*
X70473409Y-53409561D02*
X70473409Y-53028609D01*
X70473409Y-53028609D02*
X70521028Y-52933371D01*
X70521028Y-52933371D02*
X70616266Y-52885752D01*
X70616266Y-52885752D02*
X70806742Y-52885752D01*
X70806742Y-52885752D02*
X70901980Y-52933371D01*
X70901980Y-52933371D02*
X70949599Y-53028609D01*
X70949599Y-53028609D02*
X70949599Y-53123847D01*
X70949599Y-53123847D02*
X70473409Y-53219085D01*
X71378171Y-53552419D02*
X71378171Y-52885752D01*
X71378171Y-53076228D02*
X71425790Y-52980990D01*
X71425790Y-52980990D02*
X71473409Y-52933371D01*
X71473409Y-52933371D02*
X71568647Y-52885752D01*
X71568647Y-52885752D02*
X71663885Y-52885752D01*
X72378171Y-53504800D02*
X72282933Y-53552419D01*
X72282933Y-53552419D02*
X72092457Y-53552419D01*
X72092457Y-53552419D02*
X71997219Y-53504800D01*
X71997219Y-53504800D02*
X71949600Y-53409561D01*
X71949600Y-53409561D02*
X71949600Y-53028609D01*
X71949600Y-53028609D02*
X71997219Y-52933371D01*
X71997219Y-52933371D02*
X72092457Y-52885752D01*
X72092457Y-52885752D02*
X72282933Y-52885752D01*
X72282933Y-52885752D02*
X72378171Y-52933371D01*
X72378171Y-52933371D02*
X72425790Y-53028609D01*
X72425790Y-53028609D02*
X72425790Y-53123847D01*
X72425790Y-53123847D02*
X71949600Y-53219085D01*
X74092457Y-53552419D02*
X73616267Y-53552419D01*
X73616267Y-53552419D02*
X73616267Y-52552419D01*
X74901981Y-53552419D02*
X74425791Y-53552419D01*
X74425791Y-53552419D02*
X74425791Y-52552419D01*
X75806743Y-53457180D02*
X75759124Y-53504800D01*
X75759124Y-53504800D02*
X75616267Y-53552419D01*
X75616267Y-53552419D02*
X75521029Y-53552419D01*
X75521029Y-53552419D02*
X75378172Y-53504800D01*
X75378172Y-53504800D02*
X75282934Y-53409561D01*
X75282934Y-53409561D02*
X75235315Y-53314323D01*
X75235315Y-53314323D02*
X75187696Y-53123847D01*
X75187696Y-53123847D02*
X75187696Y-52980990D01*
X75187696Y-52980990D02*
X75235315Y-52790514D01*
X75235315Y-52790514D02*
X75282934Y-52695276D01*
X75282934Y-52695276D02*
X75378172Y-52600038D01*
X75378172Y-52600038D02*
X75521029Y-52552419D01*
X75521029Y-52552419D02*
X75616267Y-52552419D01*
X75616267Y-52552419D02*
X75759124Y-52600038D01*
X75759124Y-52600038D02*
X75806743Y-52647657D01*
D10*
X78458320Y-115094400D02*
X78744034Y-115189638D01*
X78744034Y-115189638D02*
X79220225Y-115189638D01*
X79220225Y-115189638D02*
X79410701Y-115094400D01*
X79410701Y-115094400D02*
X79505939Y-114999161D01*
X79505939Y-114999161D02*
X79601177Y-114808685D01*
X79601177Y-114808685D02*
X79601177Y-114618209D01*
X79601177Y-114618209D02*
X79505939Y-114427733D01*
X79505939Y-114427733D02*
X79410701Y-114332495D01*
X79410701Y-114332495D02*
X79220225Y-114237257D01*
X79220225Y-114237257D02*
X78839272Y-114142019D01*
X78839272Y-114142019D02*
X78648796Y-114046780D01*
X78648796Y-114046780D02*
X78553558Y-113951542D01*
X78553558Y-113951542D02*
X78458320Y-113761066D01*
X78458320Y-113761066D02*
X78458320Y-113570590D01*
X78458320Y-113570590D02*
X78553558Y-113380114D01*
X78553558Y-113380114D02*
X78648796Y-113284876D01*
X78648796Y-113284876D02*
X78839272Y-113189638D01*
X78839272Y-113189638D02*
X79315463Y-113189638D01*
X79315463Y-113189638D02*
X79601177Y-113284876D01*
X81601177Y-115189638D02*
X80934510Y-114237257D01*
X80458320Y-115189638D02*
X80458320Y-113189638D01*
X80458320Y-113189638D02*
X81220225Y-113189638D01*
X81220225Y-113189638D02*
X81410701Y-113284876D01*
X81410701Y-113284876D02*
X81505939Y-113380114D01*
X81505939Y-113380114D02*
X81601177Y-113570590D01*
X81601177Y-113570590D02*
X81601177Y-113856304D01*
X81601177Y-113856304D02*
X81505939Y-114046780D01*
X81505939Y-114046780D02*
X81410701Y-114142019D01*
X81410701Y-114142019D02*
X81220225Y-114237257D01*
X81220225Y-114237257D02*
X80458320Y-114237257D01*
X83601177Y-114999161D02*
X83505939Y-115094400D01*
X83505939Y-115094400D02*
X83220225Y-115189638D01*
X83220225Y-115189638D02*
X83029749Y-115189638D01*
X83029749Y-115189638D02*
X82744034Y-115094400D01*
X82744034Y-115094400D02*
X82553558Y-114903923D01*
X82553558Y-114903923D02*
X82458320Y-114713447D01*
X82458320Y-114713447D02*
X82363082Y-114332495D01*
X82363082Y-114332495D02*
X82363082Y-114046780D01*
X82363082Y-114046780D02*
X82458320Y-113665828D01*
X82458320Y-113665828D02*
X82553558Y-113475352D01*
X82553558Y-113475352D02*
X82744034Y-113284876D01*
X82744034Y-113284876D02*
X83029749Y-113189638D01*
X83029749Y-113189638D02*
X83220225Y-113189638D01*
X83220225Y-113189638D02*
X83505939Y-113284876D01*
X83505939Y-113284876D02*
X83601177Y-113380114D01*
X62507142Y-111269750D02*
X62507142Y-112888797D01*
X62507142Y-112888797D02*
X62602380Y-113079273D01*
X62602380Y-113079273D02*
X62697618Y-113174512D01*
X62697618Y-113174512D02*
X62888094Y-113269750D01*
X62888094Y-113269750D02*
X63269047Y-113269750D01*
X63269047Y-113269750D02*
X63459523Y-113174512D01*
X63459523Y-113174512D02*
X63554761Y-113079273D01*
X63554761Y-113079273D02*
X63649999Y-112888797D01*
X63649999Y-112888797D02*
X63649999Y-111269750D01*
X64507142Y-113174512D02*
X64792856Y-113269750D01*
X64792856Y-113269750D02*
X65269047Y-113269750D01*
X65269047Y-113269750D02*
X65459523Y-113174512D01*
X65459523Y-113174512D02*
X65554761Y-113079273D01*
X65554761Y-113079273D02*
X65649999Y-112888797D01*
X65649999Y-112888797D02*
X65649999Y-112698321D01*
X65649999Y-112698321D02*
X65554761Y-112507845D01*
X65554761Y-112507845D02*
X65459523Y-112412607D01*
X65459523Y-112412607D02*
X65269047Y-112317369D01*
X65269047Y-112317369D02*
X64888094Y-112222131D01*
X64888094Y-112222131D02*
X64697618Y-112126892D01*
X64697618Y-112126892D02*
X64602380Y-112031654D01*
X64602380Y-112031654D02*
X64507142Y-111841178D01*
X64507142Y-111841178D02*
X64507142Y-111650702D01*
X64507142Y-111650702D02*
X64602380Y-111460226D01*
X64602380Y-111460226D02*
X64697618Y-111364988D01*
X64697618Y-111364988D02*
X64888094Y-111269750D01*
X64888094Y-111269750D02*
X65364285Y-111269750D01*
X65364285Y-111269750D02*
X65649999Y-111364988D01*
X67173809Y-112222131D02*
X67459523Y-112317369D01*
X67459523Y-112317369D02*
X67554761Y-112412607D01*
X67554761Y-112412607D02*
X67649999Y-112603083D01*
X67649999Y-112603083D02*
X67649999Y-112888797D01*
X67649999Y-112888797D02*
X67554761Y-113079273D01*
X67554761Y-113079273D02*
X67459523Y-113174512D01*
X67459523Y-113174512D02*
X67269047Y-113269750D01*
X67269047Y-113269750D02*
X66507142Y-113269750D01*
X66507142Y-113269750D02*
X66507142Y-111269750D01*
X66507142Y-111269750D02*
X67173809Y-111269750D01*
X67173809Y-111269750D02*
X67364285Y-111364988D01*
X67364285Y-111364988D02*
X67459523Y-111460226D01*
X67459523Y-111460226D02*
X67554761Y-111650702D01*
X67554761Y-111650702D02*
X67554761Y-111841178D01*
X67554761Y-111841178D02*
X67459523Y-112031654D01*
X67459523Y-112031654D02*
X67364285Y-112126892D01*
X67364285Y-112126892D02*
X67173809Y-112222131D01*
X67173809Y-112222131D02*
X66507142Y-112222131D01*
X69935714Y-112698321D02*
X70888095Y-112698321D01*
X69745238Y-113269750D02*
X70411904Y-111269750D01*
X70411904Y-111269750D02*
X71078571Y-113269750D01*
X62697619Y-116489638D02*
X62697619Y-114489638D01*
X62697619Y-114489638D02*
X63459524Y-114489638D01*
X63459524Y-114489638D02*
X63650000Y-114584876D01*
X63650000Y-114584876D02*
X63745238Y-114680114D01*
X63745238Y-114680114D02*
X63840476Y-114870590D01*
X63840476Y-114870590D02*
X63840476Y-115156304D01*
X63840476Y-115156304D02*
X63745238Y-115346780D01*
X63745238Y-115346780D02*
X63650000Y-115442019D01*
X63650000Y-115442019D02*
X63459524Y-115537257D01*
X63459524Y-115537257D02*
X62697619Y-115537257D01*
X64983333Y-116489638D02*
X64792857Y-116394400D01*
X64792857Y-116394400D02*
X64697619Y-116299161D01*
X64697619Y-116299161D02*
X64602381Y-116108685D01*
X64602381Y-116108685D02*
X64602381Y-115537257D01*
X64602381Y-115537257D02*
X64697619Y-115346780D01*
X64697619Y-115346780D02*
X64792857Y-115251542D01*
X64792857Y-115251542D02*
X64983333Y-115156304D01*
X64983333Y-115156304D02*
X65269048Y-115156304D01*
X65269048Y-115156304D02*
X65459524Y-115251542D01*
X65459524Y-115251542D02*
X65554762Y-115346780D01*
X65554762Y-115346780D02*
X65650000Y-115537257D01*
X65650000Y-115537257D02*
X65650000Y-116108685D01*
X65650000Y-116108685D02*
X65554762Y-116299161D01*
X65554762Y-116299161D02*
X65459524Y-116394400D01*
X65459524Y-116394400D02*
X65269048Y-116489638D01*
X65269048Y-116489638D02*
X64983333Y-116489638D01*
X66316667Y-115156304D02*
X66697619Y-116489638D01*
X66697619Y-116489638D02*
X67078572Y-115537257D01*
X67078572Y-115537257D02*
X67459524Y-116489638D01*
X67459524Y-116489638D02*
X67840476Y-115156304D01*
X69364286Y-116394400D02*
X69173810Y-116489638D01*
X69173810Y-116489638D02*
X68792857Y-116489638D01*
X68792857Y-116489638D02*
X68602381Y-116394400D01*
X68602381Y-116394400D02*
X68507143Y-116203923D01*
X68507143Y-116203923D02*
X68507143Y-115442019D01*
X68507143Y-115442019D02*
X68602381Y-115251542D01*
X68602381Y-115251542D02*
X68792857Y-115156304D01*
X68792857Y-115156304D02*
X69173810Y-115156304D01*
X69173810Y-115156304D02*
X69364286Y-115251542D01*
X69364286Y-115251542D02*
X69459524Y-115442019D01*
X69459524Y-115442019D02*
X69459524Y-115632495D01*
X69459524Y-115632495D02*
X68507143Y-115822971D01*
X70316667Y-116489638D02*
X70316667Y-115156304D01*
X70316667Y-115537257D02*
X70411905Y-115346780D01*
X70411905Y-115346780D02*
X70507143Y-115251542D01*
X70507143Y-115251542D02*
X70697619Y-115156304D01*
X70697619Y-115156304D02*
X70888096Y-115156304D01*
X99114285Y-111059750D02*
X99114285Y-112678797D01*
X99114285Y-112678797D02*
X99209523Y-112869273D01*
X99209523Y-112869273D02*
X99304761Y-112964512D01*
X99304761Y-112964512D02*
X99495237Y-113059750D01*
X99495237Y-113059750D02*
X99876190Y-113059750D01*
X99876190Y-113059750D02*
X100066666Y-112964512D01*
X100066666Y-112964512D02*
X100161904Y-112869273D01*
X100161904Y-112869273D02*
X100257142Y-112678797D01*
X100257142Y-112678797D02*
X100257142Y-111059750D01*
X101114285Y-112964512D02*
X101399999Y-113059750D01*
X101399999Y-113059750D02*
X101876190Y-113059750D01*
X101876190Y-113059750D02*
X102066666Y-112964512D01*
X102066666Y-112964512D02*
X102161904Y-112869273D01*
X102161904Y-112869273D02*
X102257142Y-112678797D01*
X102257142Y-112678797D02*
X102257142Y-112488321D01*
X102257142Y-112488321D02*
X102161904Y-112297845D01*
X102161904Y-112297845D02*
X102066666Y-112202607D01*
X102066666Y-112202607D02*
X101876190Y-112107369D01*
X101876190Y-112107369D02*
X101495237Y-112012131D01*
X101495237Y-112012131D02*
X101304761Y-111916892D01*
X101304761Y-111916892D02*
X101209523Y-111821654D01*
X101209523Y-111821654D02*
X101114285Y-111631178D01*
X101114285Y-111631178D02*
X101114285Y-111440702D01*
X101114285Y-111440702D02*
X101209523Y-111250226D01*
X101209523Y-111250226D02*
X101304761Y-111154988D01*
X101304761Y-111154988D02*
X101495237Y-111059750D01*
X101495237Y-111059750D02*
X101971428Y-111059750D01*
X101971428Y-111059750D02*
X102257142Y-111154988D01*
X103780952Y-112012131D02*
X104066666Y-112107369D01*
X104066666Y-112107369D02*
X104161904Y-112202607D01*
X104161904Y-112202607D02*
X104257142Y-112393083D01*
X104257142Y-112393083D02*
X104257142Y-112678797D01*
X104257142Y-112678797D02*
X104161904Y-112869273D01*
X104161904Y-112869273D02*
X104066666Y-112964512D01*
X104066666Y-112964512D02*
X103876190Y-113059750D01*
X103876190Y-113059750D02*
X103114285Y-113059750D01*
X103114285Y-113059750D02*
X103114285Y-111059750D01*
X103114285Y-111059750D02*
X103780952Y-111059750D01*
X103780952Y-111059750D02*
X103971428Y-111154988D01*
X103971428Y-111154988D02*
X104066666Y-111250226D01*
X104066666Y-111250226D02*
X104161904Y-111440702D01*
X104161904Y-111440702D02*
X104161904Y-111631178D01*
X104161904Y-111631178D02*
X104066666Y-111821654D01*
X104066666Y-111821654D02*
X103971428Y-111916892D01*
X103971428Y-111916892D02*
X103780952Y-112012131D01*
X103780952Y-112012131D02*
X103114285Y-112012131D01*
X107304762Y-112012131D02*
X107590476Y-112107369D01*
X107590476Y-112107369D02*
X107685714Y-112202607D01*
X107685714Y-112202607D02*
X107780952Y-112393083D01*
X107780952Y-112393083D02*
X107780952Y-112678797D01*
X107780952Y-112678797D02*
X107685714Y-112869273D01*
X107685714Y-112869273D02*
X107590476Y-112964512D01*
X107590476Y-112964512D02*
X107400000Y-113059750D01*
X107400000Y-113059750D02*
X106638095Y-113059750D01*
X106638095Y-113059750D02*
X106638095Y-111059750D01*
X106638095Y-111059750D02*
X107304762Y-111059750D01*
X107304762Y-111059750D02*
X107495238Y-111154988D01*
X107495238Y-111154988D02*
X107590476Y-111250226D01*
X107590476Y-111250226D02*
X107685714Y-111440702D01*
X107685714Y-111440702D02*
X107685714Y-111631178D01*
X107685714Y-111631178D02*
X107590476Y-111821654D01*
X107590476Y-111821654D02*
X107495238Y-111916892D01*
X107495238Y-111916892D02*
X107304762Y-112012131D01*
X107304762Y-112012131D02*
X106638095Y-112012131D01*
X99447619Y-116279638D02*
X99447619Y-114279638D01*
X99447619Y-114279638D02*
X100209524Y-114279638D01*
X100209524Y-114279638D02*
X100400000Y-114374876D01*
X100400000Y-114374876D02*
X100495238Y-114470114D01*
X100495238Y-114470114D02*
X100590476Y-114660590D01*
X100590476Y-114660590D02*
X100590476Y-114946304D01*
X100590476Y-114946304D02*
X100495238Y-115136780D01*
X100495238Y-115136780D02*
X100400000Y-115232019D01*
X100400000Y-115232019D02*
X100209524Y-115327257D01*
X100209524Y-115327257D02*
X99447619Y-115327257D01*
X101733333Y-116279638D02*
X101542857Y-116184400D01*
X101542857Y-116184400D02*
X101447619Y-116089161D01*
X101447619Y-116089161D02*
X101352381Y-115898685D01*
X101352381Y-115898685D02*
X101352381Y-115327257D01*
X101352381Y-115327257D02*
X101447619Y-115136780D01*
X101447619Y-115136780D02*
X101542857Y-115041542D01*
X101542857Y-115041542D02*
X101733333Y-114946304D01*
X101733333Y-114946304D02*
X102019048Y-114946304D01*
X102019048Y-114946304D02*
X102209524Y-115041542D01*
X102209524Y-115041542D02*
X102304762Y-115136780D01*
X102304762Y-115136780D02*
X102400000Y-115327257D01*
X102400000Y-115327257D02*
X102400000Y-115898685D01*
X102400000Y-115898685D02*
X102304762Y-116089161D01*
X102304762Y-116089161D02*
X102209524Y-116184400D01*
X102209524Y-116184400D02*
X102019048Y-116279638D01*
X102019048Y-116279638D02*
X101733333Y-116279638D01*
X103066667Y-114946304D02*
X103447619Y-116279638D01*
X103447619Y-116279638D02*
X103828572Y-115327257D01*
X103828572Y-115327257D02*
X104209524Y-116279638D01*
X104209524Y-116279638D02*
X104590476Y-114946304D01*
X106114286Y-116184400D02*
X105923810Y-116279638D01*
X105923810Y-116279638D02*
X105542857Y-116279638D01*
X105542857Y-116279638D02*
X105352381Y-116184400D01*
X105352381Y-116184400D02*
X105257143Y-115993923D01*
X105257143Y-115993923D02*
X105257143Y-115232019D01*
X105257143Y-115232019D02*
X105352381Y-115041542D01*
X105352381Y-115041542D02*
X105542857Y-114946304D01*
X105542857Y-114946304D02*
X105923810Y-114946304D01*
X105923810Y-114946304D02*
X106114286Y-115041542D01*
X106114286Y-115041542D02*
X106209524Y-115232019D01*
X106209524Y-115232019D02*
X106209524Y-115422495D01*
X106209524Y-115422495D02*
X105257143Y-115612971D01*
X107066667Y-116279638D02*
X107066667Y-114946304D01*
X107066667Y-115327257D02*
X107161905Y-115136780D01*
X107161905Y-115136780D02*
X107257143Y-115041542D01*
X107257143Y-115041542D02*
X107447619Y-114946304D01*
X107447619Y-114946304D02*
X107638096Y-114946304D01*
X105173558Y-60259638D02*
X105173558Y-58259638D01*
X105173558Y-59212019D02*
X106316415Y-59212019D01*
X106316415Y-60259638D02*
X106316415Y-58259638D01*
X107268796Y-60259638D02*
X107268796Y-58259638D01*
X107268796Y-58259638D02*
X107744986Y-58259638D01*
X107744986Y-58259638D02*
X108030701Y-58354876D01*
X108030701Y-58354876D02*
X108221177Y-58545352D01*
X108221177Y-58545352D02*
X108316415Y-58735828D01*
X108316415Y-58735828D02*
X108411653Y-59116780D01*
X108411653Y-59116780D02*
X108411653Y-59402495D01*
X108411653Y-59402495D02*
X108316415Y-59783447D01*
X108316415Y-59783447D02*
X108221177Y-59973923D01*
X108221177Y-59973923D02*
X108030701Y-60164400D01*
X108030701Y-60164400D02*
X107744986Y-60259638D01*
X107744986Y-60259638D02*
X107268796Y-60259638D01*
X109268796Y-60259638D02*
X109268796Y-58259638D01*
X109268796Y-58259638D02*
X109935463Y-59688209D01*
X109935463Y-59688209D02*
X110602129Y-58259638D01*
X110602129Y-58259638D02*
X110602129Y-60259638D01*
X111554510Y-60259638D02*
X111554510Y-58259638D01*
X113935463Y-60164400D02*
X114221177Y-60259638D01*
X114221177Y-60259638D02*
X114697368Y-60259638D01*
X114697368Y-60259638D02*
X114887844Y-60164400D01*
X114887844Y-60164400D02*
X114983082Y-60069161D01*
X114983082Y-60069161D02*
X115078320Y-59878685D01*
X115078320Y-59878685D02*
X115078320Y-59688209D01*
X115078320Y-59688209D02*
X114983082Y-59497733D01*
X114983082Y-59497733D02*
X114887844Y-59402495D01*
X114887844Y-59402495D02*
X114697368Y-59307257D01*
X114697368Y-59307257D02*
X114316415Y-59212019D01*
X114316415Y-59212019D02*
X114125939Y-59116780D01*
X114125939Y-59116780D02*
X114030701Y-59021542D01*
X114030701Y-59021542D02*
X113935463Y-58831066D01*
X113935463Y-58831066D02*
X113935463Y-58640590D01*
X113935463Y-58640590D02*
X114030701Y-58450114D01*
X114030701Y-58450114D02*
X114125939Y-58354876D01*
X114125939Y-58354876D02*
X114316415Y-58259638D01*
X114316415Y-58259638D02*
X114792606Y-58259638D01*
X114792606Y-58259638D02*
X115078320Y-58354876D01*
X115935463Y-60259638D02*
X115935463Y-58259638D01*
X115935463Y-58259638D02*
X117078320Y-60259638D01*
X117078320Y-60259638D02*
X117078320Y-58259638D01*
X118030701Y-60259638D02*
X118030701Y-58259638D01*
X119173558Y-60259638D02*
X118316415Y-59116780D01*
X119173558Y-58259638D02*
X118030701Y-59402495D01*
D11*
X62553333Y-60964895D02*
X62553333Y-61536323D01*
X62553333Y-61536323D02*
X62515238Y-61650609D01*
X62515238Y-61650609D02*
X62439047Y-61726800D01*
X62439047Y-61726800D02*
X62324762Y-61764895D01*
X62324762Y-61764895D02*
X62248571Y-61764895D01*
X63353333Y-61764895D02*
X62896190Y-61764895D01*
X63124762Y-61764895D02*
X63124762Y-60964895D01*
X63124762Y-60964895D02*
X63048571Y-61079180D01*
X63048571Y-61079180D02*
X62972381Y-61155371D01*
X62972381Y-61155371D02*
X62896190Y-61193466D01*
X107043333Y-61164895D02*
X107043333Y-61736323D01*
X107043333Y-61736323D02*
X107005238Y-61850609D01*
X107005238Y-61850609D02*
X106929047Y-61926800D01*
X106929047Y-61926800D02*
X106814762Y-61964895D01*
X106814762Y-61964895D02*
X106738571Y-61964895D01*
X107386190Y-61241085D02*
X107424286Y-61202990D01*
X107424286Y-61202990D02*
X107500476Y-61164895D01*
X107500476Y-61164895D02*
X107690952Y-61164895D01*
X107690952Y-61164895D02*
X107767143Y-61202990D01*
X107767143Y-61202990D02*
X107805238Y-61241085D01*
X107805238Y-61241085D02*
X107843333Y-61317276D01*
X107843333Y-61317276D02*
X107843333Y-61393466D01*
X107843333Y-61393466D02*
X107805238Y-61507752D01*
X107805238Y-61507752D02*
X107348095Y-61964895D01*
X107348095Y-61964895D02*
X107843333Y-61964895D01*
X83688704Y-63833332D02*
X83726800Y-63871428D01*
X83726800Y-63871428D02*
X83764895Y-63985713D01*
X83764895Y-63985713D02*
X83764895Y-64061904D01*
X83764895Y-64061904D02*
X83726800Y-64176190D01*
X83726800Y-64176190D02*
X83650609Y-64252380D01*
X83650609Y-64252380D02*
X83574419Y-64290475D01*
X83574419Y-64290475D02*
X83422038Y-64328571D01*
X83422038Y-64328571D02*
X83307752Y-64328571D01*
X83307752Y-64328571D02*
X83155371Y-64290475D01*
X83155371Y-64290475D02*
X83079180Y-64252380D01*
X83079180Y-64252380D02*
X83002990Y-64176190D01*
X83002990Y-64176190D02*
X82964895Y-64061904D01*
X82964895Y-64061904D02*
X82964895Y-63985713D01*
X82964895Y-63985713D02*
X83002990Y-63871428D01*
X83002990Y-63871428D02*
X83041085Y-63833332D01*
X82964895Y-63109523D02*
X82964895Y-63490475D01*
X82964895Y-63490475D02*
X83345847Y-63528571D01*
X83345847Y-63528571D02*
X83307752Y-63490475D01*
X83307752Y-63490475D02*
X83269657Y-63414285D01*
X83269657Y-63414285D02*
X83269657Y-63223809D01*
X83269657Y-63223809D02*
X83307752Y-63147618D01*
X83307752Y-63147618D02*
X83345847Y-63109523D01*
X83345847Y-63109523D02*
X83422038Y-63071428D01*
X83422038Y-63071428D02*
X83612514Y-63071428D01*
X83612514Y-63071428D02*
X83688704Y-63109523D01*
X83688704Y-63109523D02*
X83726800Y-63147618D01*
X83726800Y-63147618D02*
X83764895Y-63223809D01*
X83764895Y-63223809D02*
X83764895Y-63414285D01*
X83764895Y-63414285D02*
X83726800Y-63490475D01*
X83726800Y-63490475D02*
X83688704Y-63528571D01*
X50773333Y-82804895D02*
X50773333Y-83376323D01*
X50773333Y-83376323D02*
X50735238Y-83490609D01*
X50735238Y-83490609D02*
X50659047Y-83566800D01*
X50659047Y-83566800D02*
X50544762Y-83604895D01*
X50544762Y-83604895D02*
X50468571Y-83604895D01*
X51078095Y-82804895D02*
X51573333Y-82804895D01*
X51573333Y-82804895D02*
X51306667Y-83109657D01*
X51306667Y-83109657D02*
X51420952Y-83109657D01*
X51420952Y-83109657D02*
X51497143Y-83147752D01*
X51497143Y-83147752D02*
X51535238Y-83185847D01*
X51535238Y-83185847D02*
X51573333Y-83262038D01*
X51573333Y-83262038D02*
X51573333Y-83452514D01*
X51573333Y-83452514D02*
X51535238Y-83528704D01*
X51535238Y-83528704D02*
X51497143Y-83566800D01*
X51497143Y-83566800D02*
X51420952Y-83604895D01*
X51420952Y-83604895D02*
X51192381Y-83604895D01*
X51192381Y-83604895D02*
X51116190Y-83566800D01*
X51116190Y-83566800D02*
X51078095Y-83528704D01*
X117324895Y-83204285D02*
X116943942Y-83470952D01*
X117324895Y-83661428D02*
X116524895Y-83661428D01*
X116524895Y-83661428D02*
X116524895Y-83356666D01*
X116524895Y-83356666D02*
X116562990Y-83280476D01*
X116562990Y-83280476D02*
X116601085Y-83242381D01*
X116601085Y-83242381D02*
X116677276Y-83204285D01*
X116677276Y-83204285D02*
X116791561Y-83204285D01*
X116791561Y-83204285D02*
X116867752Y-83242381D01*
X116867752Y-83242381D02*
X116905847Y-83280476D01*
X116905847Y-83280476D02*
X116943942Y-83356666D01*
X116943942Y-83356666D02*
X116943942Y-83661428D01*
X117324895Y-82442381D02*
X117324895Y-82899524D01*
X117324895Y-82670952D02*
X116524895Y-82670952D01*
X116524895Y-82670952D02*
X116639180Y-82747143D01*
X116639180Y-82747143D02*
X116715371Y-82823333D01*
X116715371Y-82823333D02*
X116753466Y-82899524D01*
X116524895Y-82175714D02*
X116524895Y-81680476D01*
X116524895Y-81680476D02*
X116829657Y-81947142D01*
X116829657Y-81947142D02*
X116829657Y-81832857D01*
X116829657Y-81832857D02*
X116867752Y-81756666D01*
X116867752Y-81756666D02*
X116905847Y-81718571D01*
X116905847Y-81718571D02*
X116982038Y-81680476D01*
X116982038Y-81680476D02*
X117172514Y-81680476D01*
X117172514Y-81680476D02*
X117248704Y-81718571D01*
X117248704Y-81718571D02*
X117286800Y-81756666D01*
X117286800Y-81756666D02*
X117324895Y-81832857D01*
X117324895Y-81832857D02*
X117324895Y-82061428D01*
X117324895Y-82061428D02*
X117286800Y-82137619D01*
X117286800Y-82137619D02*
X117248704Y-82175714D01*
X84190476Y-109024895D02*
X84190476Y-109672514D01*
X84190476Y-109672514D02*
X84228571Y-109748704D01*
X84228571Y-109748704D02*
X84266666Y-109786800D01*
X84266666Y-109786800D02*
X84342857Y-109824895D01*
X84342857Y-109824895D02*
X84495238Y-109824895D01*
X84495238Y-109824895D02*
X84571428Y-109786800D01*
X84571428Y-109786800D02*
X84609523Y-109748704D01*
X84609523Y-109748704D02*
X84647619Y-109672514D01*
X84647619Y-109672514D02*
X84647619Y-109024895D01*
X84990475Y-109101085D02*
X85028571Y-109062990D01*
X85028571Y-109062990D02*
X85104761Y-109024895D01*
X85104761Y-109024895D02*
X85295237Y-109024895D01*
X85295237Y-109024895D02*
X85371428Y-109062990D01*
X85371428Y-109062990D02*
X85409523Y-109101085D01*
X85409523Y-109101085D02*
X85447618Y-109177276D01*
X85447618Y-109177276D02*
X85447618Y-109253466D01*
X85447618Y-109253466D02*
X85409523Y-109367752D01*
X85409523Y-109367752D02*
X84952380Y-109824895D01*
X84952380Y-109824895D02*
X85447618Y-109824895D01*
D12*
X80038094Y-105329104D02*
X80514284Y-105329104D01*
X79942856Y-105614819D02*
X80276189Y-104614819D01*
X80276189Y-104614819D02*
X80609522Y-105614819D01*
X80942856Y-104948152D02*
X80942856Y-105614819D01*
X80942856Y-105043390D02*
X80990475Y-104995771D01*
X80990475Y-104995771D02*
X81085713Y-104948152D01*
X81085713Y-104948152D02*
X81228570Y-104948152D01*
X81228570Y-104948152D02*
X81323808Y-104995771D01*
X81323808Y-104995771D02*
X81371427Y-105091009D01*
X81371427Y-105091009D02*
X81371427Y-105614819D01*
X81704761Y-104948152D02*
X82085713Y-104948152D01*
X81847618Y-104614819D02*
X81847618Y-105471961D01*
X81847618Y-105471961D02*
X81895237Y-105567200D01*
X81895237Y-105567200D02*
X81990475Y-105614819D01*
X81990475Y-105614819D02*
X82085713Y-105614819D01*
X82799999Y-105567200D02*
X82704761Y-105614819D01*
X82704761Y-105614819D02*
X82514285Y-105614819D01*
X82514285Y-105614819D02*
X82419047Y-105567200D01*
X82419047Y-105567200D02*
X82371428Y-105471961D01*
X82371428Y-105471961D02*
X82371428Y-105091009D01*
X82371428Y-105091009D02*
X82419047Y-104995771D01*
X82419047Y-104995771D02*
X82514285Y-104948152D01*
X82514285Y-104948152D02*
X82704761Y-104948152D01*
X82704761Y-104948152D02*
X82799999Y-104995771D01*
X82799999Y-104995771D02*
X82847618Y-105091009D01*
X82847618Y-105091009D02*
X82847618Y-105186247D01*
X82847618Y-105186247D02*
X82371428Y-105281485D01*
X83276190Y-104948152D02*
X83276190Y-105614819D01*
X83276190Y-105043390D02*
X83323809Y-104995771D01*
X83323809Y-104995771D02*
X83419047Y-104948152D01*
X83419047Y-104948152D02*
X83561904Y-104948152D01*
X83561904Y-104948152D02*
X83657142Y-104995771D01*
X83657142Y-104995771D02*
X83704761Y-105091009D01*
X83704761Y-105091009D02*
X83704761Y-105614819D01*
X84180952Y-104948152D02*
X84180952Y-105614819D01*
X84180952Y-105043390D02*
X84228571Y-104995771D01*
X84228571Y-104995771D02*
X84323809Y-104948152D01*
X84323809Y-104948152D02*
X84466666Y-104948152D01*
X84466666Y-104948152D02*
X84561904Y-104995771D01*
X84561904Y-104995771D02*
X84609523Y-105091009D01*
X84609523Y-105091009D02*
X84609523Y-105614819D01*
X85514285Y-105614819D02*
X85514285Y-105091009D01*
X85514285Y-105091009D02*
X85466666Y-104995771D01*
X85466666Y-104995771D02*
X85371428Y-104948152D01*
X85371428Y-104948152D02*
X85180952Y-104948152D01*
X85180952Y-104948152D02*
X85085714Y-104995771D01*
X85514285Y-105567200D02*
X85419047Y-105614819D01*
X85419047Y-105614819D02*
X85180952Y-105614819D01*
X85180952Y-105614819D02*
X85085714Y-105567200D01*
X85085714Y-105567200D02*
X85038095Y-105471961D01*
X85038095Y-105471961D02*
X85038095Y-105376723D01*
X85038095Y-105376723D02*
X85085714Y-105281485D01*
X85085714Y-105281485D02*
X85180952Y-105233866D01*
X85180952Y-105233866D02*
X85419047Y-105233866D01*
X85419047Y-105233866D02*
X85514285Y-105186247D01*
X86704762Y-105329104D02*
X87180952Y-105329104D01*
X86609524Y-105614819D02*
X86942857Y-104614819D01*
X86942857Y-104614819D02*
X87276190Y-105614819D01*
X87609524Y-105614819D02*
X87609524Y-104948152D01*
X87609524Y-105138628D02*
X87657143Y-105043390D01*
X87657143Y-105043390D02*
X87704762Y-104995771D01*
X87704762Y-104995771D02*
X87800000Y-104948152D01*
X87800000Y-104948152D02*
X87895238Y-104948152D01*
X88609524Y-105567200D02*
X88514286Y-105614819D01*
X88514286Y-105614819D02*
X88323810Y-105614819D01*
X88323810Y-105614819D02*
X88228572Y-105567200D01*
X88228572Y-105567200D02*
X88180953Y-105471961D01*
X88180953Y-105471961D02*
X88180953Y-105091009D01*
X88180953Y-105091009D02*
X88228572Y-104995771D01*
X88228572Y-104995771D02*
X88323810Y-104948152D01*
X88323810Y-104948152D02*
X88514286Y-104948152D01*
X88514286Y-104948152D02*
X88609524Y-104995771D01*
X88609524Y-104995771D02*
X88657143Y-105091009D01*
X88657143Y-105091009D02*
X88657143Y-105186247D01*
X88657143Y-105186247D02*
X88180953Y-105281485D01*
X89514286Y-105614819D02*
X89514286Y-105091009D01*
X89514286Y-105091009D02*
X89466667Y-104995771D01*
X89466667Y-104995771D02*
X89371429Y-104948152D01*
X89371429Y-104948152D02*
X89180953Y-104948152D01*
X89180953Y-104948152D02*
X89085715Y-104995771D01*
X89514286Y-105567200D02*
X89419048Y-105614819D01*
X89419048Y-105614819D02*
X89180953Y-105614819D01*
X89180953Y-105614819D02*
X89085715Y-105567200D01*
X89085715Y-105567200D02*
X89038096Y-105471961D01*
X89038096Y-105471961D02*
X89038096Y-105376723D01*
X89038096Y-105376723D02*
X89085715Y-105281485D01*
X89085715Y-105281485D02*
X89180953Y-105233866D01*
X89180953Y-105233866D02*
X89419048Y-105233866D01*
X89419048Y-105233866D02*
X89514286Y-105186247D01*
D11*
X82980704Y-76395831D02*
X83018800Y-76433927D01*
X83018800Y-76433927D02*
X83056895Y-76548212D01*
X83056895Y-76548212D02*
X83056895Y-76624403D01*
X83056895Y-76624403D02*
X83018800Y-76738689D01*
X83018800Y-76738689D02*
X82942609Y-76814879D01*
X82942609Y-76814879D02*
X82866419Y-76852974D01*
X82866419Y-76852974D02*
X82714038Y-76891070D01*
X82714038Y-76891070D02*
X82599752Y-76891070D01*
X82599752Y-76891070D02*
X82447371Y-76852974D01*
X82447371Y-76852974D02*
X82371180Y-76814879D01*
X82371180Y-76814879D02*
X82294990Y-76738689D01*
X82294990Y-76738689D02*
X82256895Y-76624403D01*
X82256895Y-76624403D02*
X82256895Y-76548212D01*
X82256895Y-76548212D02*
X82294990Y-76433927D01*
X82294990Y-76433927D02*
X82333085Y-76395831D01*
X83056895Y-75633927D02*
X83056895Y-76091070D01*
X83056895Y-75862498D02*
X82256895Y-75862498D01*
X82256895Y-75862498D02*
X82371180Y-75938689D01*
X82371180Y-75938689D02*
X82447371Y-76014879D01*
X82447371Y-76014879D02*
X82485466Y-76091070D01*
X72536667Y-90994895D02*
X72270000Y-90613942D01*
X72079524Y-90994895D02*
X72079524Y-90194895D01*
X72079524Y-90194895D02*
X72384286Y-90194895D01*
X72384286Y-90194895D02*
X72460476Y-90232990D01*
X72460476Y-90232990D02*
X72498571Y-90271085D01*
X72498571Y-90271085D02*
X72536667Y-90347276D01*
X72536667Y-90347276D02*
X72536667Y-90461561D01*
X72536667Y-90461561D02*
X72498571Y-90537752D01*
X72498571Y-90537752D02*
X72460476Y-90575847D01*
X72460476Y-90575847D02*
X72384286Y-90613942D01*
X72384286Y-90613942D02*
X72079524Y-90613942D01*
X72841428Y-90271085D02*
X72879524Y-90232990D01*
X72879524Y-90232990D02*
X72955714Y-90194895D01*
X72955714Y-90194895D02*
X73146190Y-90194895D01*
X73146190Y-90194895D02*
X73222381Y-90232990D01*
X73222381Y-90232990D02*
X73260476Y-90271085D01*
X73260476Y-90271085D02*
X73298571Y-90347276D01*
X73298571Y-90347276D02*
X73298571Y-90423466D01*
X73298571Y-90423466D02*
X73260476Y-90537752D01*
X73260476Y-90537752D02*
X72803333Y-90994895D01*
X72803333Y-90994895D02*
X73298571Y-90994895D01*
X97985714Y-100788704D02*
X97947618Y-100826800D01*
X97947618Y-100826800D02*
X97833333Y-100864895D01*
X97833333Y-100864895D02*
X97757142Y-100864895D01*
X97757142Y-100864895D02*
X97642856Y-100826800D01*
X97642856Y-100826800D02*
X97566666Y-100750609D01*
X97566666Y-100750609D02*
X97528571Y-100674419D01*
X97528571Y-100674419D02*
X97490475Y-100522038D01*
X97490475Y-100522038D02*
X97490475Y-100407752D01*
X97490475Y-100407752D02*
X97528571Y-100255371D01*
X97528571Y-100255371D02*
X97566666Y-100179180D01*
X97566666Y-100179180D02*
X97642856Y-100102990D01*
X97642856Y-100102990D02*
X97757142Y-100064895D01*
X97757142Y-100064895D02*
X97833333Y-100064895D01*
X97833333Y-100064895D02*
X97947618Y-100102990D01*
X97947618Y-100102990D02*
X97985714Y-100141085D01*
X98290475Y-100141085D02*
X98328571Y-100102990D01*
X98328571Y-100102990D02*
X98404761Y-100064895D01*
X98404761Y-100064895D02*
X98595237Y-100064895D01*
X98595237Y-100064895D02*
X98671428Y-100102990D01*
X98671428Y-100102990D02*
X98709523Y-100141085D01*
X98709523Y-100141085D02*
X98747618Y-100217276D01*
X98747618Y-100217276D02*
X98747618Y-100293466D01*
X98747618Y-100293466D02*
X98709523Y-100407752D01*
X98709523Y-100407752D02*
X98252380Y-100864895D01*
X98252380Y-100864895D02*
X98747618Y-100864895D01*
X99433333Y-100064895D02*
X99280952Y-100064895D01*
X99280952Y-100064895D02*
X99204761Y-100102990D01*
X99204761Y-100102990D02*
X99166666Y-100141085D01*
X99166666Y-100141085D02*
X99090476Y-100255371D01*
X99090476Y-100255371D02*
X99052380Y-100407752D01*
X99052380Y-100407752D02*
X99052380Y-100712514D01*
X99052380Y-100712514D02*
X99090476Y-100788704D01*
X99090476Y-100788704D02*
X99128571Y-100826800D01*
X99128571Y-100826800D02*
X99204761Y-100864895D01*
X99204761Y-100864895D02*
X99357142Y-100864895D01*
X99357142Y-100864895D02*
X99433333Y-100826800D01*
X99433333Y-100826800D02*
X99471428Y-100788704D01*
X99471428Y-100788704D02*
X99509523Y-100712514D01*
X99509523Y-100712514D02*
X99509523Y-100522038D01*
X99509523Y-100522038D02*
X99471428Y-100445847D01*
X99471428Y-100445847D02*
X99433333Y-100407752D01*
X99433333Y-100407752D02*
X99357142Y-100369657D01*
X99357142Y-100369657D02*
X99204761Y-100369657D01*
X99204761Y-100369657D02*
X99128571Y-100407752D01*
X99128571Y-100407752D02*
X99090476Y-100445847D01*
X99090476Y-100445847D02*
X99052380Y-100522038D01*
X73306667Y-94774895D02*
X73040000Y-94393942D01*
X72849524Y-94774895D02*
X72849524Y-93974895D01*
X72849524Y-93974895D02*
X73154286Y-93974895D01*
X73154286Y-93974895D02*
X73230476Y-94012990D01*
X73230476Y-94012990D02*
X73268571Y-94051085D01*
X73268571Y-94051085D02*
X73306667Y-94127276D01*
X73306667Y-94127276D02*
X73306667Y-94241561D01*
X73306667Y-94241561D02*
X73268571Y-94317752D01*
X73268571Y-94317752D02*
X73230476Y-94355847D01*
X73230476Y-94355847D02*
X73154286Y-94393942D01*
X73154286Y-94393942D02*
X72849524Y-94393942D01*
X74030476Y-93974895D02*
X73649524Y-93974895D01*
X73649524Y-93974895D02*
X73611428Y-94355847D01*
X73611428Y-94355847D02*
X73649524Y-94317752D01*
X73649524Y-94317752D02*
X73725714Y-94279657D01*
X73725714Y-94279657D02*
X73916190Y-94279657D01*
X73916190Y-94279657D02*
X73992381Y-94317752D01*
X73992381Y-94317752D02*
X74030476Y-94355847D01*
X74030476Y-94355847D02*
X74068571Y-94432038D01*
X74068571Y-94432038D02*
X74068571Y-94622514D01*
X74068571Y-94622514D02*
X74030476Y-94698704D01*
X74030476Y-94698704D02*
X73992381Y-94736800D01*
X73992381Y-94736800D02*
X73916190Y-94774895D01*
X73916190Y-94774895D02*
X73725714Y-94774895D01*
X73725714Y-94774895D02*
X73649524Y-94736800D01*
X73649524Y-94736800D02*
X73611428Y-94698704D01*
X88588704Y-53634285D02*
X88626800Y-53672381D01*
X88626800Y-53672381D02*
X88664895Y-53786666D01*
X88664895Y-53786666D02*
X88664895Y-53862857D01*
X88664895Y-53862857D02*
X88626800Y-53977143D01*
X88626800Y-53977143D02*
X88550609Y-54053333D01*
X88550609Y-54053333D02*
X88474419Y-54091428D01*
X88474419Y-54091428D02*
X88322038Y-54129524D01*
X88322038Y-54129524D02*
X88207752Y-54129524D01*
X88207752Y-54129524D02*
X88055371Y-54091428D01*
X88055371Y-54091428D02*
X87979180Y-54053333D01*
X87979180Y-54053333D02*
X87902990Y-53977143D01*
X87902990Y-53977143D02*
X87864895Y-53862857D01*
X87864895Y-53862857D02*
X87864895Y-53786666D01*
X87864895Y-53786666D02*
X87902990Y-53672381D01*
X87902990Y-53672381D02*
X87941085Y-53634285D01*
X88664895Y-52872381D02*
X88664895Y-53329524D01*
X88664895Y-53100952D02*
X87864895Y-53100952D01*
X87864895Y-53100952D02*
X87979180Y-53177143D01*
X87979180Y-53177143D02*
X88055371Y-53253333D01*
X88055371Y-53253333D02*
X88093466Y-53329524D01*
X87864895Y-52186666D02*
X87864895Y-52339047D01*
X87864895Y-52339047D02*
X87902990Y-52415238D01*
X87902990Y-52415238D02*
X87941085Y-52453333D01*
X87941085Y-52453333D02*
X88055371Y-52529523D01*
X88055371Y-52529523D02*
X88207752Y-52567619D01*
X88207752Y-52567619D02*
X88512514Y-52567619D01*
X88512514Y-52567619D02*
X88588704Y-52529523D01*
X88588704Y-52529523D02*
X88626800Y-52491428D01*
X88626800Y-52491428D02*
X88664895Y-52415238D01*
X88664895Y-52415238D02*
X88664895Y-52262857D01*
X88664895Y-52262857D02*
X88626800Y-52186666D01*
X88626800Y-52186666D02*
X88588704Y-52148571D01*
X88588704Y-52148571D02*
X88512514Y-52110476D01*
X88512514Y-52110476D02*
X88322038Y-52110476D01*
X88322038Y-52110476D02*
X88245847Y-52148571D01*
X88245847Y-52148571D02*
X88207752Y-52186666D01*
X88207752Y-52186666D02*
X88169657Y-52262857D01*
X88169657Y-52262857D02*
X88169657Y-52415238D01*
X88169657Y-52415238D02*
X88207752Y-52491428D01*
X88207752Y-52491428D02*
X88245847Y-52529523D01*
X88245847Y-52529523D02*
X88322038Y-52567619D01*
X62666667Y-94064895D02*
X62400000Y-93683942D01*
X62209524Y-94064895D02*
X62209524Y-93264895D01*
X62209524Y-93264895D02*
X62514286Y-93264895D01*
X62514286Y-93264895D02*
X62590476Y-93302990D01*
X62590476Y-93302990D02*
X62628571Y-93341085D01*
X62628571Y-93341085D02*
X62666667Y-93417276D01*
X62666667Y-93417276D02*
X62666667Y-93531561D01*
X62666667Y-93531561D02*
X62628571Y-93607752D01*
X62628571Y-93607752D02*
X62590476Y-93645847D01*
X62590476Y-93645847D02*
X62514286Y-93683942D01*
X62514286Y-93683942D02*
X62209524Y-93683942D01*
X62933333Y-93264895D02*
X63428571Y-93264895D01*
X63428571Y-93264895D02*
X63161905Y-93569657D01*
X63161905Y-93569657D02*
X63276190Y-93569657D01*
X63276190Y-93569657D02*
X63352381Y-93607752D01*
X63352381Y-93607752D02*
X63390476Y-93645847D01*
X63390476Y-93645847D02*
X63428571Y-93722038D01*
X63428571Y-93722038D02*
X63428571Y-93912514D01*
X63428571Y-93912514D02*
X63390476Y-93988704D01*
X63390476Y-93988704D02*
X63352381Y-94026800D01*
X63352381Y-94026800D02*
X63276190Y-94064895D01*
X63276190Y-94064895D02*
X63047619Y-94064895D01*
X63047619Y-94064895D02*
X62971428Y-94026800D01*
X62971428Y-94026800D02*
X62933333Y-93988704D01*
X94785714Y-115764895D02*
X94519047Y-115383942D01*
X94328571Y-115764895D02*
X94328571Y-114964895D01*
X94328571Y-114964895D02*
X94633333Y-114964895D01*
X94633333Y-114964895D02*
X94709523Y-115002990D01*
X94709523Y-115002990D02*
X94747618Y-115041085D01*
X94747618Y-115041085D02*
X94785714Y-115117276D01*
X94785714Y-115117276D02*
X94785714Y-115231561D01*
X94785714Y-115231561D02*
X94747618Y-115307752D01*
X94747618Y-115307752D02*
X94709523Y-115345847D01*
X94709523Y-115345847D02*
X94633333Y-115383942D01*
X94633333Y-115383942D02*
X94328571Y-115383942D01*
X95547618Y-115764895D02*
X95090475Y-115764895D01*
X95319047Y-115764895D02*
X95319047Y-114964895D01*
X95319047Y-114964895D02*
X95242856Y-115079180D01*
X95242856Y-115079180D02*
X95166666Y-115155371D01*
X95166666Y-115155371D02*
X95090475Y-115193466D01*
X96271428Y-114964895D02*
X95890476Y-114964895D01*
X95890476Y-114964895D02*
X95852380Y-115345847D01*
X95852380Y-115345847D02*
X95890476Y-115307752D01*
X95890476Y-115307752D02*
X95966666Y-115269657D01*
X95966666Y-115269657D02*
X96157142Y-115269657D01*
X96157142Y-115269657D02*
X96233333Y-115307752D01*
X96233333Y-115307752D02*
X96271428Y-115345847D01*
X96271428Y-115345847D02*
X96309523Y-115422038D01*
X96309523Y-115422038D02*
X96309523Y-115612514D01*
X96309523Y-115612514D02*
X96271428Y-115688704D01*
X96271428Y-115688704D02*
X96233333Y-115726800D01*
X96233333Y-115726800D02*
X96157142Y-115764895D01*
X96157142Y-115764895D02*
X95966666Y-115764895D01*
X95966666Y-115764895D02*
X95890476Y-115726800D01*
X95890476Y-115726800D02*
X95852380Y-115688704D01*
X74509524Y-111889895D02*
X74509524Y-111089895D01*
X74509524Y-111089895D02*
X74700000Y-111089895D01*
X74700000Y-111089895D02*
X74814286Y-111127990D01*
X74814286Y-111127990D02*
X74890476Y-111204180D01*
X74890476Y-111204180D02*
X74928571Y-111280371D01*
X74928571Y-111280371D02*
X74966667Y-111432752D01*
X74966667Y-111432752D02*
X74966667Y-111547038D01*
X74966667Y-111547038D02*
X74928571Y-111699419D01*
X74928571Y-111699419D02*
X74890476Y-111775609D01*
X74890476Y-111775609D02*
X74814286Y-111851800D01*
X74814286Y-111851800D02*
X74700000Y-111889895D01*
X74700000Y-111889895D02*
X74509524Y-111889895D01*
X75347619Y-111889895D02*
X75500000Y-111889895D01*
X75500000Y-111889895D02*
X75576190Y-111851800D01*
X75576190Y-111851800D02*
X75614286Y-111813704D01*
X75614286Y-111813704D02*
X75690476Y-111699419D01*
X75690476Y-111699419D02*
X75728571Y-111547038D01*
X75728571Y-111547038D02*
X75728571Y-111242276D01*
X75728571Y-111242276D02*
X75690476Y-111166085D01*
X75690476Y-111166085D02*
X75652381Y-111127990D01*
X75652381Y-111127990D02*
X75576190Y-111089895D01*
X75576190Y-111089895D02*
X75423809Y-111089895D01*
X75423809Y-111089895D02*
X75347619Y-111127990D01*
X75347619Y-111127990D02*
X75309524Y-111166085D01*
X75309524Y-111166085D02*
X75271428Y-111242276D01*
X75271428Y-111242276D02*
X75271428Y-111432752D01*
X75271428Y-111432752D02*
X75309524Y-111508942D01*
X75309524Y-111508942D02*
X75347619Y-111547038D01*
X75347619Y-111547038D02*
X75423809Y-111585133D01*
X75423809Y-111585133D02*
X75576190Y-111585133D01*
X75576190Y-111585133D02*
X75652381Y-111547038D01*
X75652381Y-111547038D02*
X75690476Y-111508942D01*
X75690476Y-111508942D02*
X75728571Y-111432752D01*
X91786667Y-63608704D02*
X91748571Y-63646800D01*
X91748571Y-63646800D02*
X91634286Y-63684895D01*
X91634286Y-63684895D02*
X91558095Y-63684895D01*
X91558095Y-63684895D02*
X91443809Y-63646800D01*
X91443809Y-63646800D02*
X91367619Y-63570609D01*
X91367619Y-63570609D02*
X91329524Y-63494419D01*
X91329524Y-63494419D02*
X91291428Y-63342038D01*
X91291428Y-63342038D02*
X91291428Y-63227752D01*
X91291428Y-63227752D02*
X91329524Y-63075371D01*
X91329524Y-63075371D02*
X91367619Y-62999180D01*
X91367619Y-62999180D02*
X91443809Y-62922990D01*
X91443809Y-62922990D02*
X91558095Y-62884895D01*
X91558095Y-62884895D02*
X91634286Y-62884895D01*
X91634286Y-62884895D02*
X91748571Y-62922990D01*
X91748571Y-62922990D02*
X91786667Y-62961085D01*
X92472381Y-62884895D02*
X92320000Y-62884895D01*
X92320000Y-62884895D02*
X92243809Y-62922990D01*
X92243809Y-62922990D02*
X92205714Y-62961085D01*
X92205714Y-62961085D02*
X92129524Y-63075371D01*
X92129524Y-63075371D02*
X92091428Y-63227752D01*
X92091428Y-63227752D02*
X92091428Y-63532514D01*
X92091428Y-63532514D02*
X92129524Y-63608704D01*
X92129524Y-63608704D02*
X92167619Y-63646800D01*
X92167619Y-63646800D02*
X92243809Y-63684895D01*
X92243809Y-63684895D02*
X92396190Y-63684895D01*
X92396190Y-63684895D02*
X92472381Y-63646800D01*
X92472381Y-63646800D02*
X92510476Y-63608704D01*
X92510476Y-63608704D02*
X92548571Y-63532514D01*
X92548571Y-63532514D02*
X92548571Y-63342038D01*
X92548571Y-63342038D02*
X92510476Y-63265847D01*
X92510476Y-63265847D02*
X92472381Y-63227752D01*
X92472381Y-63227752D02*
X92396190Y-63189657D01*
X92396190Y-63189657D02*
X92243809Y-63189657D01*
X92243809Y-63189657D02*
X92167619Y-63227752D01*
X92167619Y-63227752D02*
X92129524Y-63265847D01*
X92129524Y-63265847D02*
X92091428Y-63342038D01*
X85088704Y-58714285D02*
X85126800Y-58752381D01*
X85126800Y-58752381D02*
X85164895Y-58866666D01*
X85164895Y-58866666D02*
X85164895Y-58942857D01*
X85164895Y-58942857D02*
X85126800Y-59057143D01*
X85126800Y-59057143D02*
X85050609Y-59133333D01*
X85050609Y-59133333D02*
X84974419Y-59171428D01*
X84974419Y-59171428D02*
X84822038Y-59209524D01*
X84822038Y-59209524D02*
X84707752Y-59209524D01*
X84707752Y-59209524D02*
X84555371Y-59171428D01*
X84555371Y-59171428D02*
X84479180Y-59133333D01*
X84479180Y-59133333D02*
X84402990Y-59057143D01*
X84402990Y-59057143D02*
X84364895Y-58942857D01*
X84364895Y-58942857D02*
X84364895Y-58866666D01*
X84364895Y-58866666D02*
X84402990Y-58752381D01*
X84402990Y-58752381D02*
X84441085Y-58714285D01*
X85164895Y-57952381D02*
X85164895Y-58409524D01*
X85164895Y-58180952D02*
X84364895Y-58180952D01*
X84364895Y-58180952D02*
X84479180Y-58257143D01*
X84479180Y-58257143D02*
X84555371Y-58333333D01*
X84555371Y-58333333D02*
X84593466Y-58409524D01*
X85164895Y-57571428D02*
X85164895Y-57419047D01*
X85164895Y-57419047D02*
X85126800Y-57342857D01*
X85126800Y-57342857D02*
X85088704Y-57304761D01*
X85088704Y-57304761D02*
X84974419Y-57228571D01*
X84974419Y-57228571D02*
X84822038Y-57190476D01*
X84822038Y-57190476D02*
X84517276Y-57190476D01*
X84517276Y-57190476D02*
X84441085Y-57228571D01*
X84441085Y-57228571D02*
X84402990Y-57266666D01*
X84402990Y-57266666D02*
X84364895Y-57342857D01*
X84364895Y-57342857D02*
X84364895Y-57495238D01*
X84364895Y-57495238D02*
X84402990Y-57571428D01*
X84402990Y-57571428D02*
X84441085Y-57609523D01*
X84441085Y-57609523D02*
X84517276Y-57647619D01*
X84517276Y-57647619D02*
X84707752Y-57647619D01*
X84707752Y-57647619D02*
X84783942Y-57609523D01*
X84783942Y-57609523D02*
X84822038Y-57571428D01*
X84822038Y-57571428D02*
X84860133Y-57495238D01*
X84860133Y-57495238D02*
X84860133Y-57342857D01*
X84860133Y-57342857D02*
X84822038Y-57266666D01*
X84822038Y-57266666D02*
X84783942Y-57228571D01*
X84783942Y-57228571D02*
X84707752Y-57190476D01*
X90286667Y-63608704D02*
X90248571Y-63646800D01*
X90248571Y-63646800D02*
X90134286Y-63684895D01*
X90134286Y-63684895D02*
X90058095Y-63684895D01*
X90058095Y-63684895D02*
X89943809Y-63646800D01*
X89943809Y-63646800D02*
X89867619Y-63570609D01*
X89867619Y-63570609D02*
X89829524Y-63494419D01*
X89829524Y-63494419D02*
X89791428Y-63342038D01*
X89791428Y-63342038D02*
X89791428Y-63227752D01*
X89791428Y-63227752D02*
X89829524Y-63075371D01*
X89829524Y-63075371D02*
X89867619Y-62999180D01*
X89867619Y-62999180D02*
X89943809Y-62922990D01*
X89943809Y-62922990D02*
X90058095Y-62884895D01*
X90058095Y-62884895D02*
X90134286Y-62884895D01*
X90134286Y-62884895D02*
X90248571Y-62922990D01*
X90248571Y-62922990D02*
X90286667Y-62961085D01*
X90972381Y-63151561D02*
X90972381Y-63684895D01*
X90781905Y-62846800D02*
X90591428Y-63418228D01*
X90591428Y-63418228D02*
X91086667Y-63418228D01*
X94309524Y-111989895D02*
X94309524Y-111189895D01*
X94309524Y-111189895D02*
X94500000Y-111189895D01*
X94500000Y-111189895D02*
X94614286Y-111227990D01*
X94614286Y-111227990D02*
X94690476Y-111304180D01*
X94690476Y-111304180D02*
X94728571Y-111380371D01*
X94728571Y-111380371D02*
X94766667Y-111532752D01*
X94766667Y-111532752D02*
X94766667Y-111647038D01*
X94766667Y-111647038D02*
X94728571Y-111799419D01*
X94728571Y-111799419D02*
X94690476Y-111875609D01*
X94690476Y-111875609D02*
X94614286Y-111951800D01*
X94614286Y-111951800D02*
X94500000Y-111989895D01*
X94500000Y-111989895D02*
X94309524Y-111989895D01*
X95033333Y-111189895D02*
X95566667Y-111189895D01*
X95566667Y-111189895D02*
X95223809Y-111989895D01*
X70285714Y-92388704D02*
X70247618Y-92426800D01*
X70247618Y-92426800D02*
X70133333Y-92464895D01*
X70133333Y-92464895D02*
X70057142Y-92464895D01*
X70057142Y-92464895D02*
X69942856Y-92426800D01*
X69942856Y-92426800D02*
X69866666Y-92350609D01*
X69866666Y-92350609D02*
X69828571Y-92274419D01*
X69828571Y-92274419D02*
X69790475Y-92122038D01*
X69790475Y-92122038D02*
X69790475Y-92007752D01*
X69790475Y-92007752D02*
X69828571Y-91855371D01*
X69828571Y-91855371D02*
X69866666Y-91779180D01*
X69866666Y-91779180D02*
X69942856Y-91702990D01*
X69942856Y-91702990D02*
X70057142Y-91664895D01*
X70057142Y-91664895D02*
X70133333Y-91664895D01*
X70133333Y-91664895D02*
X70247618Y-91702990D01*
X70247618Y-91702990D02*
X70285714Y-91741085D01*
X71047618Y-92464895D02*
X70590475Y-92464895D01*
X70819047Y-92464895D02*
X70819047Y-91664895D01*
X70819047Y-91664895D02*
X70742856Y-91779180D01*
X70742856Y-91779180D02*
X70666666Y-91855371D01*
X70666666Y-91855371D02*
X70590475Y-91893466D01*
X71809523Y-92464895D02*
X71352380Y-92464895D01*
X71580952Y-92464895D02*
X71580952Y-91664895D01*
X71580952Y-91664895D02*
X71504761Y-91779180D01*
X71504761Y-91779180D02*
X71428571Y-91855371D01*
X71428571Y-91855371D02*
X71352380Y-91893466D01*
X86612895Y-76439332D02*
X86231942Y-76705999D01*
X86612895Y-76896475D02*
X85812895Y-76896475D01*
X85812895Y-76896475D02*
X85812895Y-76591713D01*
X85812895Y-76591713D02*
X85850990Y-76515523D01*
X85850990Y-76515523D02*
X85889085Y-76477428D01*
X85889085Y-76477428D02*
X85965276Y-76439332D01*
X85965276Y-76439332D02*
X86079561Y-76439332D01*
X86079561Y-76439332D02*
X86155752Y-76477428D01*
X86155752Y-76477428D02*
X86193847Y-76515523D01*
X86193847Y-76515523D02*
X86231942Y-76591713D01*
X86231942Y-76591713D02*
X86231942Y-76896475D01*
X86612895Y-75677428D02*
X86612895Y-76134571D01*
X86612895Y-75905999D02*
X85812895Y-75905999D01*
X85812895Y-75905999D02*
X85927180Y-75982190D01*
X85927180Y-75982190D02*
X86003371Y-76058380D01*
X86003371Y-76058380D02*
X86041466Y-76134571D01*
X88568704Y-76439332D02*
X88606800Y-76477428D01*
X88606800Y-76477428D02*
X88644895Y-76591713D01*
X88644895Y-76591713D02*
X88644895Y-76667904D01*
X88644895Y-76667904D02*
X88606800Y-76782190D01*
X88606800Y-76782190D02*
X88530609Y-76858380D01*
X88530609Y-76858380D02*
X88454419Y-76896475D01*
X88454419Y-76896475D02*
X88302038Y-76934571D01*
X88302038Y-76934571D02*
X88187752Y-76934571D01*
X88187752Y-76934571D02*
X88035371Y-76896475D01*
X88035371Y-76896475D02*
X87959180Y-76858380D01*
X87959180Y-76858380D02*
X87882990Y-76782190D01*
X87882990Y-76782190D02*
X87844895Y-76667904D01*
X87844895Y-76667904D02*
X87844895Y-76591713D01*
X87844895Y-76591713D02*
X87882990Y-76477428D01*
X87882990Y-76477428D02*
X87921085Y-76439332D01*
X87844895Y-76172666D02*
X87844895Y-75677428D01*
X87844895Y-75677428D02*
X88149657Y-75944094D01*
X88149657Y-75944094D02*
X88149657Y-75829809D01*
X88149657Y-75829809D02*
X88187752Y-75753618D01*
X88187752Y-75753618D02*
X88225847Y-75715523D01*
X88225847Y-75715523D02*
X88302038Y-75677428D01*
X88302038Y-75677428D02*
X88492514Y-75677428D01*
X88492514Y-75677428D02*
X88568704Y-75715523D01*
X88568704Y-75715523D02*
X88606800Y-75753618D01*
X88606800Y-75753618D02*
X88644895Y-75829809D01*
X88644895Y-75829809D02*
X88644895Y-76058380D01*
X88644895Y-76058380D02*
X88606800Y-76134571D01*
X88606800Y-76134571D02*
X88568704Y-76172666D01*
X69813809Y-86771085D02*
X69737619Y-86732990D01*
X69737619Y-86732990D02*
X69661428Y-86656800D01*
X69661428Y-86656800D02*
X69547142Y-86542514D01*
X69547142Y-86542514D02*
X69470952Y-86504419D01*
X69470952Y-86504419D02*
X69394761Y-86504419D01*
X69432857Y-86694895D02*
X69356666Y-86656800D01*
X69356666Y-86656800D02*
X69280476Y-86580609D01*
X69280476Y-86580609D02*
X69242380Y-86428228D01*
X69242380Y-86428228D02*
X69242380Y-86161561D01*
X69242380Y-86161561D02*
X69280476Y-86009180D01*
X69280476Y-86009180D02*
X69356666Y-85932990D01*
X69356666Y-85932990D02*
X69432857Y-85894895D01*
X69432857Y-85894895D02*
X69585238Y-85894895D01*
X69585238Y-85894895D02*
X69661428Y-85932990D01*
X69661428Y-85932990D02*
X69737619Y-86009180D01*
X69737619Y-86009180D02*
X69775714Y-86161561D01*
X69775714Y-86161561D02*
X69775714Y-86428228D01*
X69775714Y-86428228D02*
X69737619Y-86580609D01*
X69737619Y-86580609D02*
X69661428Y-86656800D01*
X69661428Y-86656800D02*
X69585238Y-86694895D01*
X69585238Y-86694895D02*
X69432857Y-86694895D01*
X70537618Y-86694895D02*
X70080475Y-86694895D01*
X70309047Y-86694895D02*
X70309047Y-85894895D01*
X70309047Y-85894895D02*
X70232856Y-86009180D01*
X70232856Y-86009180D02*
X70156666Y-86085371D01*
X70156666Y-86085371D02*
X70080475Y-86123466D01*
X110118571Y-111794895D02*
X110118571Y-110994895D01*
X110118571Y-110994895D02*
X110309047Y-110994895D01*
X110309047Y-110994895D02*
X110423333Y-111032990D01*
X110423333Y-111032990D02*
X110499523Y-111109180D01*
X110499523Y-111109180D02*
X110537618Y-111185371D01*
X110537618Y-111185371D02*
X110575714Y-111337752D01*
X110575714Y-111337752D02*
X110575714Y-111452038D01*
X110575714Y-111452038D02*
X110537618Y-111604419D01*
X110537618Y-111604419D02*
X110499523Y-111680609D01*
X110499523Y-111680609D02*
X110423333Y-111756800D01*
X110423333Y-111756800D02*
X110309047Y-111794895D01*
X110309047Y-111794895D02*
X110118571Y-111794895D01*
X111337618Y-111794895D02*
X110880475Y-111794895D01*
X111109047Y-111794895D02*
X111109047Y-110994895D01*
X111109047Y-110994895D02*
X111032856Y-111109180D01*
X111032856Y-111109180D02*
X110956666Y-111185371D01*
X110956666Y-111185371D02*
X110880475Y-111223466D01*
X111832857Y-110994895D02*
X111909047Y-110994895D01*
X111909047Y-110994895D02*
X111985238Y-111032990D01*
X111985238Y-111032990D02*
X112023333Y-111071085D01*
X112023333Y-111071085D02*
X112061428Y-111147276D01*
X112061428Y-111147276D02*
X112099523Y-111299657D01*
X112099523Y-111299657D02*
X112099523Y-111490133D01*
X112099523Y-111490133D02*
X112061428Y-111642514D01*
X112061428Y-111642514D02*
X112023333Y-111718704D01*
X112023333Y-111718704D02*
X111985238Y-111756800D01*
X111985238Y-111756800D02*
X111909047Y-111794895D01*
X111909047Y-111794895D02*
X111832857Y-111794895D01*
X111832857Y-111794895D02*
X111756666Y-111756800D01*
X111756666Y-111756800D02*
X111718571Y-111718704D01*
X111718571Y-111718704D02*
X111680476Y-111642514D01*
X111680476Y-111642514D02*
X111642380Y-111490133D01*
X111642380Y-111490133D02*
X111642380Y-111299657D01*
X111642380Y-111299657D02*
X111680476Y-111147276D01*
X111680476Y-111147276D02*
X111718571Y-111071085D01*
X111718571Y-111071085D02*
X111756666Y-111032990D01*
X111756666Y-111032990D02*
X111832857Y-110994895D01*
X100585714Y-99488704D02*
X100547618Y-99526800D01*
X100547618Y-99526800D02*
X100433333Y-99564895D01*
X100433333Y-99564895D02*
X100357142Y-99564895D01*
X100357142Y-99564895D02*
X100242856Y-99526800D01*
X100242856Y-99526800D02*
X100166666Y-99450609D01*
X100166666Y-99450609D02*
X100128571Y-99374419D01*
X100128571Y-99374419D02*
X100090475Y-99222038D01*
X100090475Y-99222038D02*
X100090475Y-99107752D01*
X100090475Y-99107752D02*
X100128571Y-98955371D01*
X100128571Y-98955371D02*
X100166666Y-98879180D01*
X100166666Y-98879180D02*
X100242856Y-98802990D01*
X100242856Y-98802990D02*
X100357142Y-98764895D01*
X100357142Y-98764895D02*
X100433333Y-98764895D01*
X100433333Y-98764895D02*
X100547618Y-98802990D01*
X100547618Y-98802990D02*
X100585714Y-98841085D01*
X101347618Y-99564895D02*
X100890475Y-99564895D01*
X101119047Y-99564895D02*
X101119047Y-98764895D01*
X101119047Y-98764895D02*
X101042856Y-98879180D01*
X101042856Y-98879180D02*
X100966666Y-98955371D01*
X100966666Y-98955371D02*
X100890475Y-98993466D01*
X101614285Y-98764895D02*
X102109523Y-98764895D01*
X102109523Y-98764895D02*
X101842857Y-99069657D01*
X101842857Y-99069657D02*
X101957142Y-99069657D01*
X101957142Y-99069657D02*
X102033333Y-99107752D01*
X102033333Y-99107752D02*
X102071428Y-99145847D01*
X102071428Y-99145847D02*
X102109523Y-99222038D01*
X102109523Y-99222038D02*
X102109523Y-99412514D01*
X102109523Y-99412514D02*
X102071428Y-99488704D01*
X102071428Y-99488704D02*
X102033333Y-99526800D01*
X102033333Y-99526800D02*
X101957142Y-99564895D01*
X101957142Y-99564895D02*
X101728571Y-99564895D01*
X101728571Y-99564895D02*
X101652380Y-99526800D01*
X101652380Y-99526800D02*
X101614285Y-99488704D01*
X103349524Y-95174895D02*
X103349524Y-94374895D01*
X103349524Y-94374895D02*
X103540000Y-94374895D01*
X103540000Y-94374895D02*
X103654286Y-94412990D01*
X103654286Y-94412990D02*
X103730476Y-94489180D01*
X103730476Y-94489180D02*
X103768571Y-94565371D01*
X103768571Y-94565371D02*
X103806667Y-94717752D01*
X103806667Y-94717752D02*
X103806667Y-94832038D01*
X103806667Y-94832038D02*
X103768571Y-94984419D01*
X103768571Y-94984419D02*
X103730476Y-95060609D01*
X103730476Y-95060609D02*
X103654286Y-95136800D01*
X103654286Y-95136800D02*
X103540000Y-95174895D01*
X103540000Y-95174895D02*
X103349524Y-95174895D01*
X104492381Y-94641561D02*
X104492381Y-95174895D01*
X104301905Y-94336800D02*
X104111428Y-94908228D01*
X104111428Y-94908228D02*
X104606667Y-94908228D01*
X96285714Y-97288704D02*
X96247618Y-97326800D01*
X96247618Y-97326800D02*
X96133333Y-97364895D01*
X96133333Y-97364895D02*
X96057142Y-97364895D01*
X96057142Y-97364895D02*
X95942856Y-97326800D01*
X95942856Y-97326800D02*
X95866666Y-97250609D01*
X95866666Y-97250609D02*
X95828571Y-97174419D01*
X95828571Y-97174419D02*
X95790475Y-97022038D01*
X95790475Y-97022038D02*
X95790475Y-96907752D01*
X95790475Y-96907752D02*
X95828571Y-96755371D01*
X95828571Y-96755371D02*
X95866666Y-96679180D01*
X95866666Y-96679180D02*
X95942856Y-96602990D01*
X95942856Y-96602990D02*
X96057142Y-96564895D01*
X96057142Y-96564895D02*
X96133333Y-96564895D01*
X96133333Y-96564895D02*
X96247618Y-96602990D01*
X96247618Y-96602990D02*
X96285714Y-96641085D01*
X96590475Y-96641085D02*
X96628571Y-96602990D01*
X96628571Y-96602990D02*
X96704761Y-96564895D01*
X96704761Y-96564895D02*
X96895237Y-96564895D01*
X96895237Y-96564895D02*
X96971428Y-96602990D01*
X96971428Y-96602990D02*
X97009523Y-96641085D01*
X97009523Y-96641085D02*
X97047618Y-96717276D01*
X97047618Y-96717276D02*
X97047618Y-96793466D01*
X97047618Y-96793466D02*
X97009523Y-96907752D01*
X97009523Y-96907752D02*
X96552380Y-97364895D01*
X96552380Y-97364895D02*
X97047618Y-97364895D01*
X97771428Y-96564895D02*
X97390476Y-96564895D01*
X97390476Y-96564895D02*
X97352380Y-96945847D01*
X97352380Y-96945847D02*
X97390476Y-96907752D01*
X97390476Y-96907752D02*
X97466666Y-96869657D01*
X97466666Y-96869657D02*
X97657142Y-96869657D01*
X97657142Y-96869657D02*
X97733333Y-96907752D01*
X97733333Y-96907752D02*
X97771428Y-96945847D01*
X97771428Y-96945847D02*
X97809523Y-97022038D01*
X97809523Y-97022038D02*
X97809523Y-97212514D01*
X97809523Y-97212514D02*
X97771428Y-97288704D01*
X97771428Y-97288704D02*
X97733333Y-97326800D01*
X97733333Y-97326800D02*
X97657142Y-97364895D01*
X97657142Y-97364895D02*
X97466666Y-97364895D01*
X97466666Y-97364895D02*
X97390476Y-97326800D01*
X97390476Y-97326800D02*
X97352380Y-97288704D01*
X106285714Y-90908704D02*
X106247618Y-90946800D01*
X106247618Y-90946800D02*
X106133333Y-90984895D01*
X106133333Y-90984895D02*
X106057142Y-90984895D01*
X106057142Y-90984895D02*
X105942856Y-90946800D01*
X105942856Y-90946800D02*
X105866666Y-90870609D01*
X105866666Y-90870609D02*
X105828571Y-90794419D01*
X105828571Y-90794419D02*
X105790475Y-90642038D01*
X105790475Y-90642038D02*
X105790475Y-90527752D01*
X105790475Y-90527752D02*
X105828571Y-90375371D01*
X105828571Y-90375371D02*
X105866666Y-90299180D01*
X105866666Y-90299180D02*
X105942856Y-90222990D01*
X105942856Y-90222990D02*
X106057142Y-90184895D01*
X106057142Y-90184895D02*
X106133333Y-90184895D01*
X106133333Y-90184895D02*
X106247618Y-90222990D01*
X106247618Y-90222990D02*
X106285714Y-90261085D01*
X106590475Y-90261085D02*
X106628571Y-90222990D01*
X106628571Y-90222990D02*
X106704761Y-90184895D01*
X106704761Y-90184895D02*
X106895237Y-90184895D01*
X106895237Y-90184895D02*
X106971428Y-90222990D01*
X106971428Y-90222990D02*
X107009523Y-90261085D01*
X107009523Y-90261085D02*
X107047618Y-90337276D01*
X107047618Y-90337276D02*
X107047618Y-90413466D01*
X107047618Y-90413466D02*
X107009523Y-90527752D01*
X107009523Y-90527752D02*
X106552380Y-90984895D01*
X106552380Y-90984895D02*
X107047618Y-90984895D01*
X107428571Y-90984895D02*
X107580952Y-90984895D01*
X107580952Y-90984895D02*
X107657142Y-90946800D01*
X107657142Y-90946800D02*
X107695238Y-90908704D01*
X107695238Y-90908704D02*
X107771428Y-90794419D01*
X107771428Y-90794419D02*
X107809523Y-90642038D01*
X107809523Y-90642038D02*
X107809523Y-90337276D01*
X107809523Y-90337276D02*
X107771428Y-90261085D01*
X107771428Y-90261085D02*
X107733333Y-90222990D01*
X107733333Y-90222990D02*
X107657142Y-90184895D01*
X107657142Y-90184895D02*
X107504761Y-90184895D01*
X107504761Y-90184895D02*
X107428571Y-90222990D01*
X107428571Y-90222990D02*
X107390476Y-90261085D01*
X107390476Y-90261085D02*
X107352380Y-90337276D01*
X107352380Y-90337276D02*
X107352380Y-90527752D01*
X107352380Y-90527752D02*
X107390476Y-90603942D01*
X107390476Y-90603942D02*
X107428571Y-90642038D01*
X107428571Y-90642038D02*
X107504761Y-90680133D01*
X107504761Y-90680133D02*
X107657142Y-90680133D01*
X107657142Y-90680133D02*
X107733333Y-90642038D01*
X107733333Y-90642038D02*
X107771428Y-90603942D01*
X107771428Y-90603942D02*
X107809523Y-90527752D01*
X60866667Y-95164895D02*
X60600000Y-94783942D01*
X60409524Y-95164895D02*
X60409524Y-94364895D01*
X60409524Y-94364895D02*
X60714286Y-94364895D01*
X60714286Y-94364895D02*
X60790476Y-94402990D01*
X60790476Y-94402990D02*
X60828571Y-94441085D01*
X60828571Y-94441085D02*
X60866667Y-94517276D01*
X60866667Y-94517276D02*
X60866667Y-94631561D01*
X60866667Y-94631561D02*
X60828571Y-94707752D01*
X60828571Y-94707752D02*
X60790476Y-94745847D01*
X60790476Y-94745847D02*
X60714286Y-94783942D01*
X60714286Y-94783942D02*
X60409524Y-94783942D01*
X61133333Y-94364895D02*
X61666667Y-94364895D01*
X61666667Y-94364895D02*
X61323809Y-95164895D01*
X58785714Y-115754895D02*
X58519047Y-115373942D01*
X58328571Y-115754895D02*
X58328571Y-114954895D01*
X58328571Y-114954895D02*
X58633333Y-114954895D01*
X58633333Y-114954895D02*
X58709523Y-114992990D01*
X58709523Y-114992990D02*
X58747618Y-115031085D01*
X58747618Y-115031085D02*
X58785714Y-115107276D01*
X58785714Y-115107276D02*
X58785714Y-115221561D01*
X58785714Y-115221561D02*
X58747618Y-115297752D01*
X58747618Y-115297752D02*
X58709523Y-115335847D01*
X58709523Y-115335847D02*
X58633333Y-115373942D01*
X58633333Y-115373942D02*
X58328571Y-115373942D01*
X59547618Y-115754895D02*
X59090475Y-115754895D01*
X59319047Y-115754895D02*
X59319047Y-114954895D01*
X59319047Y-114954895D02*
X59242856Y-115069180D01*
X59242856Y-115069180D02*
X59166666Y-115145371D01*
X59166666Y-115145371D02*
X59090475Y-115183466D01*
X60233333Y-114954895D02*
X60080952Y-114954895D01*
X60080952Y-114954895D02*
X60004761Y-114992990D01*
X60004761Y-114992990D02*
X59966666Y-115031085D01*
X59966666Y-115031085D02*
X59890476Y-115145371D01*
X59890476Y-115145371D02*
X59852380Y-115297752D01*
X59852380Y-115297752D02*
X59852380Y-115602514D01*
X59852380Y-115602514D02*
X59890476Y-115678704D01*
X59890476Y-115678704D02*
X59928571Y-115716800D01*
X59928571Y-115716800D02*
X60004761Y-115754895D01*
X60004761Y-115754895D02*
X60157142Y-115754895D01*
X60157142Y-115754895D02*
X60233333Y-115716800D01*
X60233333Y-115716800D02*
X60271428Y-115678704D01*
X60271428Y-115678704D02*
X60309523Y-115602514D01*
X60309523Y-115602514D02*
X60309523Y-115412038D01*
X60309523Y-115412038D02*
X60271428Y-115335847D01*
X60271428Y-115335847D02*
X60233333Y-115297752D01*
X60233333Y-115297752D02*
X60157142Y-115259657D01*
X60157142Y-115259657D02*
X60004761Y-115259657D01*
X60004761Y-115259657D02*
X59928571Y-115297752D01*
X59928571Y-115297752D02*
X59890476Y-115335847D01*
X59890476Y-115335847D02*
X59852380Y-115412038D01*
X74288704Y-77794285D02*
X74326800Y-77832381D01*
X74326800Y-77832381D02*
X74364895Y-77946666D01*
X74364895Y-77946666D02*
X74364895Y-78022857D01*
X74364895Y-78022857D02*
X74326800Y-78137143D01*
X74326800Y-78137143D02*
X74250609Y-78213333D01*
X74250609Y-78213333D02*
X74174419Y-78251428D01*
X74174419Y-78251428D02*
X74022038Y-78289524D01*
X74022038Y-78289524D02*
X73907752Y-78289524D01*
X73907752Y-78289524D02*
X73755371Y-78251428D01*
X73755371Y-78251428D02*
X73679180Y-78213333D01*
X73679180Y-78213333D02*
X73602990Y-78137143D01*
X73602990Y-78137143D02*
X73564895Y-78022857D01*
X73564895Y-78022857D02*
X73564895Y-77946666D01*
X73564895Y-77946666D02*
X73602990Y-77832381D01*
X73602990Y-77832381D02*
X73641085Y-77794285D01*
X73641085Y-77489524D02*
X73602990Y-77451428D01*
X73602990Y-77451428D02*
X73564895Y-77375238D01*
X73564895Y-77375238D02*
X73564895Y-77184762D01*
X73564895Y-77184762D02*
X73602990Y-77108571D01*
X73602990Y-77108571D02*
X73641085Y-77070476D01*
X73641085Y-77070476D02*
X73717276Y-77032381D01*
X73717276Y-77032381D02*
X73793466Y-77032381D01*
X73793466Y-77032381D02*
X73907752Y-77070476D01*
X73907752Y-77070476D02*
X74364895Y-77527619D01*
X74364895Y-77527619D02*
X74364895Y-77032381D01*
X73564895Y-76537142D02*
X73564895Y-76460952D01*
X73564895Y-76460952D02*
X73602990Y-76384761D01*
X73602990Y-76384761D02*
X73641085Y-76346666D01*
X73641085Y-76346666D02*
X73717276Y-76308571D01*
X73717276Y-76308571D02*
X73869657Y-76270476D01*
X73869657Y-76270476D02*
X74060133Y-76270476D01*
X74060133Y-76270476D02*
X74212514Y-76308571D01*
X74212514Y-76308571D02*
X74288704Y-76346666D01*
X74288704Y-76346666D02*
X74326800Y-76384761D01*
X74326800Y-76384761D02*
X74364895Y-76460952D01*
X74364895Y-76460952D02*
X74364895Y-76537142D01*
X74364895Y-76537142D02*
X74326800Y-76613333D01*
X74326800Y-76613333D02*
X74288704Y-76651428D01*
X74288704Y-76651428D02*
X74212514Y-76689523D01*
X74212514Y-76689523D02*
X74060133Y-76727619D01*
X74060133Y-76727619D02*
X73869657Y-76727619D01*
X73869657Y-76727619D02*
X73717276Y-76689523D01*
X73717276Y-76689523D02*
X73641085Y-76651428D01*
X73641085Y-76651428D02*
X73602990Y-76613333D01*
X73602990Y-76613333D02*
X73564895Y-76537142D01*
X65585714Y-93988704D02*
X65547618Y-94026800D01*
X65547618Y-94026800D02*
X65433333Y-94064895D01*
X65433333Y-94064895D02*
X65357142Y-94064895D01*
X65357142Y-94064895D02*
X65242856Y-94026800D01*
X65242856Y-94026800D02*
X65166666Y-93950609D01*
X65166666Y-93950609D02*
X65128571Y-93874419D01*
X65128571Y-93874419D02*
X65090475Y-93722038D01*
X65090475Y-93722038D02*
X65090475Y-93607752D01*
X65090475Y-93607752D02*
X65128571Y-93455371D01*
X65128571Y-93455371D02*
X65166666Y-93379180D01*
X65166666Y-93379180D02*
X65242856Y-93302990D01*
X65242856Y-93302990D02*
X65357142Y-93264895D01*
X65357142Y-93264895D02*
X65433333Y-93264895D01*
X65433333Y-93264895D02*
X65547618Y-93302990D01*
X65547618Y-93302990D02*
X65585714Y-93341085D01*
X65890475Y-93341085D02*
X65928571Y-93302990D01*
X65928571Y-93302990D02*
X66004761Y-93264895D01*
X66004761Y-93264895D02*
X66195237Y-93264895D01*
X66195237Y-93264895D02*
X66271428Y-93302990D01*
X66271428Y-93302990D02*
X66309523Y-93341085D01*
X66309523Y-93341085D02*
X66347618Y-93417276D01*
X66347618Y-93417276D02*
X66347618Y-93493466D01*
X66347618Y-93493466D02*
X66309523Y-93607752D01*
X66309523Y-93607752D02*
X65852380Y-94064895D01*
X65852380Y-94064895D02*
X66347618Y-94064895D01*
X66804761Y-93607752D02*
X66728571Y-93569657D01*
X66728571Y-93569657D02*
X66690476Y-93531561D01*
X66690476Y-93531561D02*
X66652380Y-93455371D01*
X66652380Y-93455371D02*
X66652380Y-93417276D01*
X66652380Y-93417276D02*
X66690476Y-93341085D01*
X66690476Y-93341085D02*
X66728571Y-93302990D01*
X66728571Y-93302990D02*
X66804761Y-93264895D01*
X66804761Y-93264895D02*
X66957142Y-93264895D01*
X66957142Y-93264895D02*
X67033333Y-93302990D01*
X67033333Y-93302990D02*
X67071428Y-93341085D01*
X67071428Y-93341085D02*
X67109523Y-93417276D01*
X67109523Y-93417276D02*
X67109523Y-93455371D01*
X67109523Y-93455371D02*
X67071428Y-93531561D01*
X67071428Y-93531561D02*
X67033333Y-93569657D01*
X67033333Y-93569657D02*
X66957142Y-93607752D01*
X66957142Y-93607752D02*
X66804761Y-93607752D01*
X66804761Y-93607752D02*
X66728571Y-93645847D01*
X66728571Y-93645847D02*
X66690476Y-93683942D01*
X66690476Y-93683942D02*
X66652380Y-93760133D01*
X66652380Y-93760133D02*
X66652380Y-93912514D01*
X66652380Y-93912514D02*
X66690476Y-93988704D01*
X66690476Y-93988704D02*
X66728571Y-94026800D01*
X66728571Y-94026800D02*
X66804761Y-94064895D01*
X66804761Y-94064895D02*
X66957142Y-94064895D01*
X66957142Y-94064895D02*
X67033333Y-94026800D01*
X67033333Y-94026800D02*
X67071428Y-93988704D01*
X67071428Y-93988704D02*
X67109523Y-93912514D01*
X67109523Y-93912514D02*
X67109523Y-93760133D01*
X67109523Y-93760133D02*
X67071428Y-93683942D01*
X67071428Y-93683942D02*
X67033333Y-93645847D01*
X67033333Y-93645847D02*
X66957142Y-93607752D01*
X57809524Y-97564895D02*
X57809524Y-96764895D01*
X57809524Y-96764895D02*
X58000000Y-96764895D01*
X58000000Y-96764895D02*
X58114286Y-96802990D01*
X58114286Y-96802990D02*
X58190476Y-96879180D01*
X58190476Y-96879180D02*
X58228571Y-96955371D01*
X58228571Y-96955371D02*
X58266667Y-97107752D01*
X58266667Y-97107752D02*
X58266667Y-97222038D01*
X58266667Y-97222038D02*
X58228571Y-97374419D01*
X58228571Y-97374419D02*
X58190476Y-97450609D01*
X58190476Y-97450609D02*
X58114286Y-97526800D01*
X58114286Y-97526800D02*
X58000000Y-97564895D01*
X58000000Y-97564895D02*
X57809524Y-97564895D01*
X59028571Y-97564895D02*
X58571428Y-97564895D01*
X58800000Y-97564895D02*
X58800000Y-96764895D01*
X58800000Y-96764895D02*
X58723809Y-96879180D01*
X58723809Y-96879180D02*
X58647619Y-96955371D01*
X58647619Y-96955371D02*
X58571428Y-96993466D01*
X96590476Y-53867395D02*
X96590476Y-54515014D01*
X96590476Y-54515014D02*
X96628571Y-54591204D01*
X96628571Y-54591204D02*
X96666666Y-54629300D01*
X96666666Y-54629300D02*
X96742857Y-54667395D01*
X96742857Y-54667395D02*
X96895238Y-54667395D01*
X96895238Y-54667395D02*
X96971428Y-54629300D01*
X96971428Y-54629300D02*
X97009523Y-54591204D01*
X97009523Y-54591204D02*
X97047619Y-54515014D01*
X97047619Y-54515014D02*
X97047619Y-53867395D01*
X97771428Y-54134061D02*
X97771428Y-54667395D01*
X97580952Y-53829300D02*
X97390475Y-54400728D01*
X97390475Y-54400728D02*
X97885714Y-54400728D01*
X86388704Y-61914285D02*
X86426800Y-61952381D01*
X86426800Y-61952381D02*
X86464895Y-62066666D01*
X86464895Y-62066666D02*
X86464895Y-62142857D01*
X86464895Y-62142857D02*
X86426800Y-62257143D01*
X86426800Y-62257143D02*
X86350609Y-62333333D01*
X86350609Y-62333333D02*
X86274419Y-62371428D01*
X86274419Y-62371428D02*
X86122038Y-62409524D01*
X86122038Y-62409524D02*
X86007752Y-62409524D01*
X86007752Y-62409524D02*
X85855371Y-62371428D01*
X85855371Y-62371428D02*
X85779180Y-62333333D01*
X85779180Y-62333333D02*
X85702990Y-62257143D01*
X85702990Y-62257143D02*
X85664895Y-62142857D01*
X85664895Y-62142857D02*
X85664895Y-62066666D01*
X85664895Y-62066666D02*
X85702990Y-61952381D01*
X85702990Y-61952381D02*
X85741085Y-61914285D01*
X86464895Y-61152381D02*
X86464895Y-61609524D01*
X86464895Y-61380952D02*
X85664895Y-61380952D01*
X85664895Y-61380952D02*
X85779180Y-61457143D01*
X85779180Y-61457143D02*
X85855371Y-61533333D01*
X85855371Y-61533333D02*
X85893466Y-61609524D01*
X85931561Y-60466666D02*
X86464895Y-60466666D01*
X85626800Y-60657142D02*
X86198228Y-60847619D01*
X86198228Y-60847619D02*
X86198228Y-60352380D01*
X106139524Y-85364895D02*
X106139524Y-84564895D01*
X106139524Y-84564895D02*
X106330000Y-84564895D01*
X106330000Y-84564895D02*
X106444286Y-84602990D01*
X106444286Y-84602990D02*
X106520476Y-84679180D01*
X106520476Y-84679180D02*
X106558571Y-84755371D01*
X106558571Y-84755371D02*
X106596667Y-84907752D01*
X106596667Y-84907752D02*
X106596667Y-85022038D01*
X106596667Y-85022038D02*
X106558571Y-85174419D01*
X106558571Y-85174419D02*
X106520476Y-85250609D01*
X106520476Y-85250609D02*
X106444286Y-85326800D01*
X106444286Y-85326800D02*
X106330000Y-85364895D01*
X106330000Y-85364895D02*
X106139524Y-85364895D01*
X107320476Y-84564895D02*
X106939524Y-84564895D01*
X106939524Y-84564895D02*
X106901428Y-84945847D01*
X106901428Y-84945847D02*
X106939524Y-84907752D01*
X106939524Y-84907752D02*
X107015714Y-84869657D01*
X107015714Y-84869657D02*
X107206190Y-84869657D01*
X107206190Y-84869657D02*
X107282381Y-84907752D01*
X107282381Y-84907752D02*
X107320476Y-84945847D01*
X107320476Y-84945847D02*
X107358571Y-85022038D01*
X107358571Y-85022038D02*
X107358571Y-85212514D01*
X107358571Y-85212514D02*
X107320476Y-85288704D01*
X107320476Y-85288704D02*
X107282381Y-85326800D01*
X107282381Y-85326800D02*
X107206190Y-85364895D01*
X107206190Y-85364895D02*
X107015714Y-85364895D01*
X107015714Y-85364895D02*
X106939524Y-85326800D01*
X106939524Y-85326800D02*
X106901428Y-85288704D01*
X98575714Y-96284895D02*
X98309047Y-95903942D01*
X98118571Y-96284895D02*
X98118571Y-95484895D01*
X98118571Y-95484895D02*
X98423333Y-95484895D01*
X98423333Y-95484895D02*
X98499523Y-95522990D01*
X98499523Y-95522990D02*
X98537618Y-95561085D01*
X98537618Y-95561085D02*
X98575714Y-95637276D01*
X98575714Y-95637276D02*
X98575714Y-95751561D01*
X98575714Y-95751561D02*
X98537618Y-95827752D01*
X98537618Y-95827752D02*
X98499523Y-95865847D01*
X98499523Y-95865847D02*
X98423333Y-95903942D01*
X98423333Y-95903942D02*
X98118571Y-95903942D01*
X99337618Y-96284895D02*
X98880475Y-96284895D01*
X99109047Y-96284895D02*
X99109047Y-95484895D01*
X99109047Y-95484895D02*
X99032856Y-95599180D01*
X99032856Y-95599180D02*
X98956666Y-95675371D01*
X98956666Y-95675371D02*
X98880475Y-95713466D01*
X99832857Y-95484895D02*
X99909047Y-95484895D01*
X99909047Y-95484895D02*
X99985238Y-95522990D01*
X99985238Y-95522990D02*
X100023333Y-95561085D01*
X100023333Y-95561085D02*
X100061428Y-95637276D01*
X100061428Y-95637276D02*
X100099523Y-95789657D01*
X100099523Y-95789657D02*
X100099523Y-95980133D01*
X100099523Y-95980133D02*
X100061428Y-96132514D01*
X100061428Y-96132514D02*
X100023333Y-96208704D01*
X100023333Y-96208704D02*
X99985238Y-96246800D01*
X99985238Y-96246800D02*
X99909047Y-96284895D01*
X99909047Y-96284895D02*
X99832857Y-96284895D01*
X99832857Y-96284895D02*
X99756666Y-96246800D01*
X99756666Y-96246800D02*
X99718571Y-96208704D01*
X99718571Y-96208704D02*
X99680476Y-96132514D01*
X99680476Y-96132514D02*
X99642380Y-95980133D01*
X99642380Y-95980133D02*
X99642380Y-95789657D01*
X99642380Y-95789657D02*
X99680476Y-95637276D01*
X99680476Y-95637276D02*
X99718571Y-95561085D01*
X99718571Y-95561085D02*
X99756666Y-95522990D01*
X99756666Y-95522990D02*
X99832857Y-95484895D01*
X73326667Y-86724895D02*
X73060000Y-86343942D01*
X72869524Y-86724895D02*
X72869524Y-85924895D01*
X72869524Y-85924895D02*
X73174286Y-85924895D01*
X73174286Y-85924895D02*
X73250476Y-85962990D01*
X73250476Y-85962990D02*
X73288571Y-86001085D01*
X73288571Y-86001085D02*
X73326667Y-86077276D01*
X73326667Y-86077276D02*
X73326667Y-86191561D01*
X73326667Y-86191561D02*
X73288571Y-86267752D01*
X73288571Y-86267752D02*
X73250476Y-86305847D01*
X73250476Y-86305847D02*
X73174286Y-86343942D01*
X73174286Y-86343942D02*
X72869524Y-86343942D01*
X74012381Y-86191561D02*
X74012381Y-86724895D01*
X73821905Y-85886800D02*
X73631428Y-86458228D01*
X73631428Y-86458228D02*
X74126667Y-86458228D01*
X60866667Y-94064895D02*
X60600000Y-93683942D01*
X60409524Y-94064895D02*
X60409524Y-93264895D01*
X60409524Y-93264895D02*
X60714286Y-93264895D01*
X60714286Y-93264895D02*
X60790476Y-93302990D01*
X60790476Y-93302990D02*
X60828571Y-93341085D01*
X60828571Y-93341085D02*
X60866667Y-93417276D01*
X60866667Y-93417276D02*
X60866667Y-93531561D01*
X60866667Y-93531561D02*
X60828571Y-93607752D01*
X60828571Y-93607752D02*
X60790476Y-93645847D01*
X60790476Y-93645847D02*
X60714286Y-93683942D01*
X60714286Y-93683942D02*
X60409524Y-93683942D01*
X61552381Y-93264895D02*
X61400000Y-93264895D01*
X61400000Y-93264895D02*
X61323809Y-93302990D01*
X61323809Y-93302990D02*
X61285714Y-93341085D01*
X61285714Y-93341085D02*
X61209524Y-93455371D01*
X61209524Y-93455371D02*
X61171428Y-93607752D01*
X61171428Y-93607752D02*
X61171428Y-93912514D01*
X61171428Y-93912514D02*
X61209524Y-93988704D01*
X61209524Y-93988704D02*
X61247619Y-94026800D01*
X61247619Y-94026800D02*
X61323809Y-94064895D01*
X61323809Y-94064895D02*
X61476190Y-94064895D01*
X61476190Y-94064895D02*
X61552381Y-94026800D01*
X61552381Y-94026800D02*
X61590476Y-93988704D01*
X61590476Y-93988704D02*
X61628571Y-93912514D01*
X61628571Y-93912514D02*
X61628571Y-93722038D01*
X61628571Y-93722038D02*
X61590476Y-93645847D01*
X61590476Y-93645847D02*
X61552381Y-93607752D01*
X61552381Y-93607752D02*
X61476190Y-93569657D01*
X61476190Y-93569657D02*
X61323809Y-93569657D01*
X61323809Y-93569657D02*
X61247619Y-93607752D01*
X61247619Y-93607752D02*
X61209524Y-93645847D01*
X61209524Y-93645847D02*
X61171428Y-93722038D01*
X71370476Y-75224895D02*
X71370476Y-75872514D01*
X71370476Y-75872514D02*
X71408571Y-75948704D01*
X71408571Y-75948704D02*
X71446666Y-75986800D01*
X71446666Y-75986800D02*
X71522857Y-76024895D01*
X71522857Y-76024895D02*
X71675238Y-76024895D01*
X71675238Y-76024895D02*
X71751428Y-75986800D01*
X71751428Y-75986800D02*
X71789523Y-75948704D01*
X71789523Y-75948704D02*
X71827619Y-75872514D01*
X71827619Y-75872514D02*
X71827619Y-75224895D01*
X72589523Y-75224895D02*
X72208571Y-75224895D01*
X72208571Y-75224895D02*
X72170475Y-75605847D01*
X72170475Y-75605847D02*
X72208571Y-75567752D01*
X72208571Y-75567752D02*
X72284761Y-75529657D01*
X72284761Y-75529657D02*
X72475237Y-75529657D01*
X72475237Y-75529657D02*
X72551428Y-75567752D01*
X72551428Y-75567752D02*
X72589523Y-75605847D01*
X72589523Y-75605847D02*
X72627618Y-75682038D01*
X72627618Y-75682038D02*
X72627618Y-75872514D01*
X72627618Y-75872514D02*
X72589523Y-75948704D01*
X72589523Y-75948704D02*
X72551428Y-75986800D01*
X72551428Y-75986800D02*
X72475237Y-76024895D01*
X72475237Y-76024895D02*
X72284761Y-76024895D01*
X72284761Y-76024895D02*
X72208571Y-75986800D01*
X72208571Y-75986800D02*
X72170475Y-75948704D01*
X71100714Y-101108704D02*
X71062618Y-101146800D01*
X71062618Y-101146800D02*
X70948333Y-101184895D01*
X70948333Y-101184895D02*
X70872142Y-101184895D01*
X70872142Y-101184895D02*
X70757856Y-101146800D01*
X70757856Y-101146800D02*
X70681666Y-101070609D01*
X70681666Y-101070609D02*
X70643571Y-100994419D01*
X70643571Y-100994419D02*
X70605475Y-100842038D01*
X70605475Y-100842038D02*
X70605475Y-100727752D01*
X70605475Y-100727752D02*
X70643571Y-100575371D01*
X70643571Y-100575371D02*
X70681666Y-100499180D01*
X70681666Y-100499180D02*
X70757856Y-100422990D01*
X70757856Y-100422990D02*
X70872142Y-100384895D01*
X70872142Y-100384895D02*
X70948333Y-100384895D01*
X70948333Y-100384895D02*
X71062618Y-100422990D01*
X71062618Y-100422990D02*
X71100714Y-100461085D01*
X71862618Y-101184895D02*
X71405475Y-101184895D01*
X71634047Y-101184895D02*
X71634047Y-100384895D01*
X71634047Y-100384895D02*
X71557856Y-100499180D01*
X71557856Y-100499180D02*
X71481666Y-100575371D01*
X71481666Y-100575371D02*
X71405475Y-100613466D01*
X72167380Y-100461085D02*
X72205476Y-100422990D01*
X72205476Y-100422990D02*
X72281666Y-100384895D01*
X72281666Y-100384895D02*
X72472142Y-100384895D01*
X72472142Y-100384895D02*
X72548333Y-100422990D01*
X72548333Y-100422990D02*
X72586428Y-100461085D01*
X72586428Y-100461085D02*
X72624523Y-100537276D01*
X72624523Y-100537276D02*
X72624523Y-100613466D01*
X72624523Y-100613466D02*
X72586428Y-100727752D01*
X72586428Y-100727752D02*
X72129285Y-101184895D01*
X72129285Y-101184895D02*
X72624523Y-101184895D01*
X118723333Y-82814895D02*
X118723333Y-83386323D01*
X118723333Y-83386323D02*
X118685238Y-83500609D01*
X118685238Y-83500609D02*
X118609047Y-83576800D01*
X118609047Y-83576800D02*
X118494762Y-83614895D01*
X118494762Y-83614895D02*
X118418571Y-83614895D01*
X119447143Y-83081561D02*
X119447143Y-83614895D01*
X119256667Y-82776800D02*
X119066190Y-83348228D01*
X119066190Y-83348228D02*
X119561429Y-83348228D01*
X63508704Y-77234285D02*
X63546800Y-77272381D01*
X63546800Y-77272381D02*
X63584895Y-77386666D01*
X63584895Y-77386666D02*
X63584895Y-77462857D01*
X63584895Y-77462857D02*
X63546800Y-77577143D01*
X63546800Y-77577143D02*
X63470609Y-77653333D01*
X63470609Y-77653333D02*
X63394419Y-77691428D01*
X63394419Y-77691428D02*
X63242038Y-77729524D01*
X63242038Y-77729524D02*
X63127752Y-77729524D01*
X63127752Y-77729524D02*
X62975371Y-77691428D01*
X62975371Y-77691428D02*
X62899180Y-77653333D01*
X62899180Y-77653333D02*
X62822990Y-77577143D01*
X62822990Y-77577143D02*
X62784895Y-77462857D01*
X62784895Y-77462857D02*
X62784895Y-77386666D01*
X62784895Y-77386666D02*
X62822990Y-77272381D01*
X62822990Y-77272381D02*
X62861085Y-77234285D01*
X62861085Y-76929524D02*
X62822990Y-76891428D01*
X62822990Y-76891428D02*
X62784895Y-76815238D01*
X62784895Y-76815238D02*
X62784895Y-76624762D01*
X62784895Y-76624762D02*
X62822990Y-76548571D01*
X62822990Y-76548571D02*
X62861085Y-76510476D01*
X62861085Y-76510476D02*
X62937276Y-76472381D01*
X62937276Y-76472381D02*
X63013466Y-76472381D01*
X63013466Y-76472381D02*
X63127752Y-76510476D01*
X63127752Y-76510476D02*
X63584895Y-76967619D01*
X63584895Y-76967619D02*
X63584895Y-76472381D01*
X62784895Y-76205714D02*
X62784895Y-75710476D01*
X62784895Y-75710476D02*
X63089657Y-75977142D01*
X63089657Y-75977142D02*
X63089657Y-75862857D01*
X63089657Y-75862857D02*
X63127752Y-75786666D01*
X63127752Y-75786666D02*
X63165847Y-75748571D01*
X63165847Y-75748571D02*
X63242038Y-75710476D01*
X63242038Y-75710476D02*
X63432514Y-75710476D01*
X63432514Y-75710476D02*
X63508704Y-75748571D01*
X63508704Y-75748571D02*
X63546800Y-75786666D01*
X63546800Y-75786666D02*
X63584895Y-75862857D01*
X63584895Y-75862857D02*
X63584895Y-76091428D01*
X63584895Y-76091428D02*
X63546800Y-76167619D01*
X63546800Y-76167619D02*
X63508704Y-76205714D01*
X50649524Y-82124895D02*
X50649524Y-81324895D01*
X50649524Y-81324895D02*
X50840000Y-81324895D01*
X50840000Y-81324895D02*
X50954286Y-81362990D01*
X50954286Y-81362990D02*
X51030476Y-81439180D01*
X51030476Y-81439180D02*
X51068571Y-81515371D01*
X51068571Y-81515371D02*
X51106667Y-81667752D01*
X51106667Y-81667752D02*
X51106667Y-81782038D01*
X51106667Y-81782038D02*
X51068571Y-81934419D01*
X51068571Y-81934419D02*
X51030476Y-82010609D01*
X51030476Y-82010609D02*
X50954286Y-82086800D01*
X50954286Y-82086800D02*
X50840000Y-82124895D01*
X50840000Y-82124895D02*
X50649524Y-82124895D01*
X51411428Y-81401085D02*
X51449524Y-81362990D01*
X51449524Y-81362990D02*
X51525714Y-81324895D01*
X51525714Y-81324895D02*
X51716190Y-81324895D01*
X51716190Y-81324895D02*
X51792381Y-81362990D01*
X51792381Y-81362990D02*
X51830476Y-81401085D01*
X51830476Y-81401085D02*
X51868571Y-81477276D01*
X51868571Y-81477276D02*
X51868571Y-81553466D01*
X51868571Y-81553466D02*
X51830476Y-81667752D01*
X51830476Y-81667752D02*
X51373333Y-82124895D01*
X51373333Y-82124895D02*
X51868571Y-82124895D01*
X107933332Y-97576800D02*
X108047618Y-97614895D01*
X108047618Y-97614895D02*
X108238094Y-97614895D01*
X108238094Y-97614895D02*
X108314285Y-97576800D01*
X108314285Y-97576800D02*
X108352380Y-97538704D01*
X108352380Y-97538704D02*
X108390475Y-97462514D01*
X108390475Y-97462514D02*
X108390475Y-97386323D01*
X108390475Y-97386323D02*
X108352380Y-97310133D01*
X108352380Y-97310133D02*
X108314285Y-97272038D01*
X108314285Y-97272038D02*
X108238094Y-97233942D01*
X108238094Y-97233942D02*
X108085713Y-97195847D01*
X108085713Y-97195847D02*
X108009523Y-97157752D01*
X108009523Y-97157752D02*
X107971428Y-97119657D01*
X107971428Y-97119657D02*
X107933332Y-97043466D01*
X107933332Y-97043466D02*
X107933332Y-96967276D01*
X107933332Y-96967276D02*
X107971428Y-96891085D01*
X107971428Y-96891085D02*
X108009523Y-96852990D01*
X108009523Y-96852990D02*
X108085713Y-96814895D01*
X108085713Y-96814895D02*
X108276190Y-96814895D01*
X108276190Y-96814895D02*
X108390475Y-96852990D01*
X108657142Y-96814895D02*
X108847618Y-97614895D01*
X108847618Y-97614895D02*
X108999999Y-97043466D01*
X108999999Y-97043466D02*
X109152380Y-97614895D01*
X109152380Y-97614895D02*
X109342857Y-96814895D01*
X109609523Y-96891085D02*
X109647619Y-96852990D01*
X109647619Y-96852990D02*
X109723809Y-96814895D01*
X109723809Y-96814895D02*
X109914285Y-96814895D01*
X109914285Y-96814895D02*
X109990476Y-96852990D01*
X109990476Y-96852990D02*
X110028571Y-96891085D01*
X110028571Y-96891085D02*
X110066666Y-96967276D01*
X110066666Y-96967276D02*
X110066666Y-97043466D01*
X110066666Y-97043466D02*
X110028571Y-97157752D01*
X110028571Y-97157752D02*
X109571428Y-97614895D01*
X109571428Y-97614895D02*
X110066666Y-97614895D01*
X59085714Y-83564895D02*
X58819047Y-83183942D01*
X58628571Y-83564895D02*
X58628571Y-82764895D01*
X58628571Y-82764895D02*
X58933333Y-82764895D01*
X58933333Y-82764895D02*
X59009523Y-82802990D01*
X59009523Y-82802990D02*
X59047618Y-82841085D01*
X59047618Y-82841085D02*
X59085714Y-82917276D01*
X59085714Y-82917276D02*
X59085714Y-83031561D01*
X59085714Y-83031561D02*
X59047618Y-83107752D01*
X59047618Y-83107752D02*
X59009523Y-83145847D01*
X59009523Y-83145847D02*
X58933333Y-83183942D01*
X58933333Y-83183942D02*
X58628571Y-83183942D01*
X59847618Y-83564895D02*
X59390475Y-83564895D01*
X59619047Y-83564895D02*
X59619047Y-82764895D01*
X59619047Y-82764895D02*
X59542856Y-82879180D01*
X59542856Y-82879180D02*
X59466666Y-82955371D01*
X59466666Y-82955371D02*
X59390475Y-82993466D01*
X60152380Y-82841085D02*
X60190476Y-82802990D01*
X60190476Y-82802990D02*
X60266666Y-82764895D01*
X60266666Y-82764895D02*
X60457142Y-82764895D01*
X60457142Y-82764895D02*
X60533333Y-82802990D01*
X60533333Y-82802990D02*
X60571428Y-82841085D01*
X60571428Y-82841085D02*
X60609523Y-82917276D01*
X60609523Y-82917276D02*
X60609523Y-82993466D01*
X60609523Y-82993466D02*
X60571428Y-83107752D01*
X60571428Y-83107752D02*
X60114285Y-83564895D01*
X60114285Y-83564895D02*
X60609523Y-83564895D01*
X88588704Y-60714285D02*
X88626800Y-60752381D01*
X88626800Y-60752381D02*
X88664895Y-60866666D01*
X88664895Y-60866666D02*
X88664895Y-60942857D01*
X88664895Y-60942857D02*
X88626800Y-61057143D01*
X88626800Y-61057143D02*
X88550609Y-61133333D01*
X88550609Y-61133333D02*
X88474419Y-61171428D01*
X88474419Y-61171428D02*
X88322038Y-61209524D01*
X88322038Y-61209524D02*
X88207752Y-61209524D01*
X88207752Y-61209524D02*
X88055371Y-61171428D01*
X88055371Y-61171428D02*
X87979180Y-61133333D01*
X87979180Y-61133333D02*
X87902990Y-61057143D01*
X87902990Y-61057143D02*
X87864895Y-60942857D01*
X87864895Y-60942857D02*
X87864895Y-60866666D01*
X87864895Y-60866666D02*
X87902990Y-60752381D01*
X87902990Y-60752381D02*
X87941085Y-60714285D01*
X88664895Y-59952381D02*
X88664895Y-60409524D01*
X88664895Y-60180952D02*
X87864895Y-60180952D01*
X87864895Y-60180952D02*
X87979180Y-60257143D01*
X87979180Y-60257143D02*
X88055371Y-60333333D01*
X88055371Y-60333333D02*
X88093466Y-60409524D01*
X88207752Y-59495238D02*
X88169657Y-59571428D01*
X88169657Y-59571428D02*
X88131561Y-59609523D01*
X88131561Y-59609523D02*
X88055371Y-59647619D01*
X88055371Y-59647619D02*
X88017276Y-59647619D01*
X88017276Y-59647619D02*
X87941085Y-59609523D01*
X87941085Y-59609523D02*
X87902990Y-59571428D01*
X87902990Y-59571428D02*
X87864895Y-59495238D01*
X87864895Y-59495238D02*
X87864895Y-59342857D01*
X87864895Y-59342857D02*
X87902990Y-59266666D01*
X87902990Y-59266666D02*
X87941085Y-59228571D01*
X87941085Y-59228571D02*
X88017276Y-59190476D01*
X88017276Y-59190476D02*
X88055371Y-59190476D01*
X88055371Y-59190476D02*
X88131561Y-59228571D01*
X88131561Y-59228571D02*
X88169657Y-59266666D01*
X88169657Y-59266666D02*
X88207752Y-59342857D01*
X88207752Y-59342857D02*
X88207752Y-59495238D01*
X88207752Y-59495238D02*
X88245847Y-59571428D01*
X88245847Y-59571428D02*
X88283942Y-59609523D01*
X88283942Y-59609523D02*
X88360133Y-59647619D01*
X88360133Y-59647619D02*
X88512514Y-59647619D01*
X88512514Y-59647619D02*
X88588704Y-59609523D01*
X88588704Y-59609523D02*
X88626800Y-59571428D01*
X88626800Y-59571428D02*
X88664895Y-59495238D01*
X88664895Y-59495238D02*
X88664895Y-59342857D01*
X88664895Y-59342857D02*
X88626800Y-59266666D01*
X88626800Y-59266666D02*
X88588704Y-59228571D01*
X88588704Y-59228571D02*
X88512514Y-59190476D01*
X88512514Y-59190476D02*
X88360133Y-59190476D01*
X88360133Y-59190476D02*
X88283942Y-59228571D01*
X88283942Y-59228571D02*
X88245847Y-59266666D01*
X88245847Y-59266666D02*
X88207752Y-59342857D01*
X87552704Y-77201332D02*
X87590800Y-77239428D01*
X87590800Y-77239428D02*
X87628895Y-77353713D01*
X87628895Y-77353713D02*
X87628895Y-77429904D01*
X87628895Y-77429904D02*
X87590800Y-77544190D01*
X87590800Y-77544190D02*
X87514609Y-77620380D01*
X87514609Y-77620380D02*
X87438419Y-77658475D01*
X87438419Y-77658475D02*
X87286038Y-77696571D01*
X87286038Y-77696571D02*
X87171752Y-77696571D01*
X87171752Y-77696571D02*
X87019371Y-77658475D01*
X87019371Y-77658475D02*
X86943180Y-77620380D01*
X86943180Y-77620380D02*
X86866990Y-77544190D01*
X86866990Y-77544190D02*
X86828895Y-77429904D01*
X86828895Y-77429904D02*
X86828895Y-77353713D01*
X86828895Y-77353713D02*
X86866990Y-77239428D01*
X86866990Y-77239428D02*
X86905085Y-77201332D01*
X86905085Y-76896571D02*
X86866990Y-76858475D01*
X86866990Y-76858475D02*
X86828895Y-76782285D01*
X86828895Y-76782285D02*
X86828895Y-76591809D01*
X86828895Y-76591809D02*
X86866990Y-76515618D01*
X86866990Y-76515618D02*
X86905085Y-76477523D01*
X86905085Y-76477523D02*
X86981276Y-76439428D01*
X86981276Y-76439428D02*
X87057466Y-76439428D01*
X87057466Y-76439428D02*
X87171752Y-76477523D01*
X87171752Y-76477523D02*
X87628895Y-76934666D01*
X87628895Y-76934666D02*
X87628895Y-76439428D01*
X77732667Y-73135703D02*
X77694571Y-73173799D01*
X77694571Y-73173799D02*
X77580286Y-73211894D01*
X77580286Y-73211894D02*
X77504095Y-73211894D01*
X77504095Y-73211894D02*
X77389809Y-73173799D01*
X77389809Y-73173799D02*
X77313619Y-73097608D01*
X77313619Y-73097608D02*
X77275524Y-73021418D01*
X77275524Y-73021418D02*
X77237428Y-72869037D01*
X77237428Y-72869037D02*
X77237428Y-72754751D01*
X77237428Y-72754751D02*
X77275524Y-72602370D01*
X77275524Y-72602370D02*
X77313619Y-72526179D01*
X77313619Y-72526179D02*
X77389809Y-72449989D01*
X77389809Y-72449989D02*
X77504095Y-72411894D01*
X77504095Y-72411894D02*
X77580286Y-72411894D01*
X77580286Y-72411894D02*
X77694571Y-72449989D01*
X77694571Y-72449989D02*
X77732667Y-72488084D01*
X78189809Y-72754751D02*
X78113619Y-72716656D01*
X78113619Y-72716656D02*
X78075524Y-72678560D01*
X78075524Y-72678560D02*
X78037428Y-72602370D01*
X78037428Y-72602370D02*
X78037428Y-72564275D01*
X78037428Y-72564275D02*
X78075524Y-72488084D01*
X78075524Y-72488084D02*
X78113619Y-72449989D01*
X78113619Y-72449989D02*
X78189809Y-72411894D01*
X78189809Y-72411894D02*
X78342190Y-72411894D01*
X78342190Y-72411894D02*
X78418381Y-72449989D01*
X78418381Y-72449989D02*
X78456476Y-72488084D01*
X78456476Y-72488084D02*
X78494571Y-72564275D01*
X78494571Y-72564275D02*
X78494571Y-72602370D01*
X78494571Y-72602370D02*
X78456476Y-72678560D01*
X78456476Y-72678560D02*
X78418381Y-72716656D01*
X78418381Y-72716656D02*
X78342190Y-72754751D01*
X78342190Y-72754751D02*
X78189809Y-72754751D01*
X78189809Y-72754751D02*
X78113619Y-72792846D01*
X78113619Y-72792846D02*
X78075524Y-72830941D01*
X78075524Y-72830941D02*
X78037428Y-72907132D01*
X78037428Y-72907132D02*
X78037428Y-73059513D01*
X78037428Y-73059513D02*
X78075524Y-73135703D01*
X78075524Y-73135703D02*
X78113619Y-73173799D01*
X78113619Y-73173799D02*
X78189809Y-73211894D01*
X78189809Y-73211894D02*
X78342190Y-73211894D01*
X78342190Y-73211894D02*
X78418381Y-73173799D01*
X78418381Y-73173799D02*
X78456476Y-73135703D01*
X78456476Y-73135703D02*
X78494571Y-73059513D01*
X78494571Y-73059513D02*
X78494571Y-72907132D01*
X78494571Y-72907132D02*
X78456476Y-72830941D01*
X78456476Y-72830941D02*
X78418381Y-72792846D01*
X78418381Y-72792846D02*
X78342190Y-72754751D01*
X83054704Y-57880285D02*
X83092800Y-57918381D01*
X83092800Y-57918381D02*
X83130895Y-58032666D01*
X83130895Y-58032666D02*
X83130895Y-58108857D01*
X83130895Y-58108857D02*
X83092800Y-58223143D01*
X83092800Y-58223143D02*
X83016609Y-58299333D01*
X83016609Y-58299333D02*
X82940419Y-58337428D01*
X82940419Y-58337428D02*
X82788038Y-58375524D01*
X82788038Y-58375524D02*
X82673752Y-58375524D01*
X82673752Y-58375524D02*
X82521371Y-58337428D01*
X82521371Y-58337428D02*
X82445180Y-58299333D01*
X82445180Y-58299333D02*
X82368990Y-58223143D01*
X82368990Y-58223143D02*
X82330895Y-58108857D01*
X82330895Y-58108857D02*
X82330895Y-58032666D01*
X82330895Y-58032666D02*
X82368990Y-57918381D01*
X82368990Y-57918381D02*
X82407085Y-57880285D01*
X83130895Y-57118381D02*
X83130895Y-57575524D01*
X83130895Y-57346952D02*
X82330895Y-57346952D01*
X82330895Y-57346952D02*
X82445180Y-57423143D01*
X82445180Y-57423143D02*
X82521371Y-57499333D01*
X82521371Y-57499333D02*
X82559466Y-57575524D01*
X82330895Y-56623142D02*
X82330895Y-56546952D01*
X82330895Y-56546952D02*
X82368990Y-56470761D01*
X82368990Y-56470761D02*
X82407085Y-56432666D01*
X82407085Y-56432666D02*
X82483276Y-56394571D01*
X82483276Y-56394571D02*
X82635657Y-56356476D01*
X82635657Y-56356476D02*
X82826133Y-56356476D01*
X82826133Y-56356476D02*
X82978514Y-56394571D01*
X82978514Y-56394571D02*
X83054704Y-56432666D01*
X83054704Y-56432666D02*
X83092800Y-56470761D01*
X83092800Y-56470761D02*
X83130895Y-56546952D01*
X83130895Y-56546952D02*
X83130895Y-56623142D01*
X83130895Y-56623142D02*
X83092800Y-56699333D01*
X83092800Y-56699333D02*
X83054704Y-56737428D01*
X83054704Y-56737428D02*
X82978514Y-56775523D01*
X82978514Y-56775523D02*
X82826133Y-56813619D01*
X82826133Y-56813619D02*
X82635657Y-56813619D01*
X82635657Y-56813619D02*
X82483276Y-56775523D01*
X82483276Y-56775523D02*
X82407085Y-56737428D01*
X82407085Y-56737428D02*
X82368990Y-56699333D01*
X82368990Y-56699333D02*
X82330895Y-56623142D01*
X99346667Y-97344895D02*
X99080000Y-96963942D01*
X98889524Y-97344895D02*
X98889524Y-96544895D01*
X98889524Y-96544895D02*
X99194286Y-96544895D01*
X99194286Y-96544895D02*
X99270476Y-96582990D01*
X99270476Y-96582990D02*
X99308571Y-96621085D01*
X99308571Y-96621085D02*
X99346667Y-96697276D01*
X99346667Y-96697276D02*
X99346667Y-96811561D01*
X99346667Y-96811561D02*
X99308571Y-96887752D01*
X99308571Y-96887752D02*
X99270476Y-96925847D01*
X99270476Y-96925847D02*
X99194286Y-96963942D01*
X99194286Y-96963942D02*
X98889524Y-96963942D01*
X99727619Y-97344895D02*
X99880000Y-97344895D01*
X99880000Y-97344895D02*
X99956190Y-97306800D01*
X99956190Y-97306800D02*
X99994286Y-97268704D01*
X99994286Y-97268704D02*
X100070476Y-97154419D01*
X100070476Y-97154419D02*
X100108571Y-97002038D01*
X100108571Y-97002038D02*
X100108571Y-96697276D01*
X100108571Y-96697276D02*
X100070476Y-96621085D01*
X100070476Y-96621085D02*
X100032381Y-96582990D01*
X100032381Y-96582990D02*
X99956190Y-96544895D01*
X99956190Y-96544895D02*
X99803809Y-96544895D01*
X99803809Y-96544895D02*
X99727619Y-96582990D01*
X99727619Y-96582990D02*
X99689524Y-96621085D01*
X99689524Y-96621085D02*
X99651428Y-96697276D01*
X99651428Y-96697276D02*
X99651428Y-96887752D01*
X99651428Y-96887752D02*
X99689524Y-96963942D01*
X99689524Y-96963942D02*
X99727619Y-97002038D01*
X99727619Y-97002038D02*
X99803809Y-97040133D01*
X99803809Y-97040133D02*
X99956190Y-97040133D01*
X99956190Y-97040133D02*
X100032381Y-97002038D01*
X100032381Y-97002038D02*
X100070476Y-96963942D01*
X100070476Y-96963942D02*
X100108571Y-96887752D01*
X80514704Y-60227332D02*
X80552800Y-60265428D01*
X80552800Y-60265428D02*
X80590895Y-60379713D01*
X80590895Y-60379713D02*
X80590895Y-60455904D01*
X80590895Y-60455904D02*
X80552800Y-60570190D01*
X80552800Y-60570190D02*
X80476609Y-60646380D01*
X80476609Y-60646380D02*
X80400419Y-60684475D01*
X80400419Y-60684475D02*
X80248038Y-60722571D01*
X80248038Y-60722571D02*
X80133752Y-60722571D01*
X80133752Y-60722571D02*
X79981371Y-60684475D01*
X79981371Y-60684475D02*
X79905180Y-60646380D01*
X79905180Y-60646380D02*
X79828990Y-60570190D01*
X79828990Y-60570190D02*
X79790895Y-60455904D01*
X79790895Y-60455904D02*
X79790895Y-60379713D01*
X79790895Y-60379713D02*
X79828990Y-60265428D01*
X79828990Y-60265428D02*
X79867085Y-60227332D01*
X79790895Y-59960666D02*
X79790895Y-59427332D01*
X79790895Y-59427332D02*
X80590895Y-59770190D01*
X63548704Y-79474285D02*
X63586800Y-79512381D01*
X63586800Y-79512381D02*
X63624895Y-79626666D01*
X63624895Y-79626666D02*
X63624895Y-79702857D01*
X63624895Y-79702857D02*
X63586800Y-79817143D01*
X63586800Y-79817143D02*
X63510609Y-79893333D01*
X63510609Y-79893333D02*
X63434419Y-79931428D01*
X63434419Y-79931428D02*
X63282038Y-79969524D01*
X63282038Y-79969524D02*
X63167752Y-79969524D01*
X63167752Y-79969524D02*
X63015371Y-79931428D01*
X63015371Y-79931428D02*
X62939180Y-79893333D01*
X62939180Y-79893333D02*
X62862990Y-79817143D01*
X62862990Y-79817143D02*
X62824895Y-79702857D01*
X62824895Y-79702857D02*
X62824895Y-79626666D01*
X62824895Y-79626666D02*
X62862990Y-79512381D01*
X62862990Y-79512381D02*
X62901085Y-79474285D01*
X62901085Y-79169524D02*
X62862990Y-79131428D01*
X62862990Y-79131428D02*
X62824895Y-79055238D01*
X62824895Y-79055238D02*
X62824895Y-78864762D01*
X62824895Y-78864762D02*
X62862990Y-78788571D01*
X62862990Y-78788571D02*
X62901085Y-78750476D01*
X62901085Y-78750476D02*
X62977276Y-78712381D01*
X62977276Y-78712381D02*
X63053466Y-78712381D01*
X63053466Y-78712381D02*
X63167752Y-78750476D01*
X63167752Y-78750476D02*
X63624895Y-79207619D01*
X63624895Y-79207619D02*
X63624895Y-78712381D01*
X62901085Y-78407619D02*
X62862990Y-78369523D01*
X62862990Y-78369523D02*
X62824895Y-78293333D01*
X62824895Y-78293333D02*
X62824895Y-78102857D01*
X62824895Y-78102857D02*
X62862990Y-78026666D01*
X62862990Y-78026666D02*
X62901085Y-77988571D01*
X62901085Y-77988571D02*
X62977276Y-77950476D01*
X62977276Y-77950476D02*
X63053466Y-77950476D01*
X63053466Y-77950476D02*
X63167752Y-77988571D01*
X63167752Y-77988571D02*
X63624895Y-78445714D01*
X63624895Y-78445714D02*
X63624895Y-77950476D01*
X58309524Y-111954895D02*
X58309524Y-111154895D01*
X58309524Y-111154895D02*
X58500000Y-111154895D01*
X58500000Y-111154895D02*
X58614286Y-111192990D01*
X58614286Y-111192990D02*
X58690476Y-111269180D01*
X58690476Y-111269180D02*
X58728571Y-111345371D01*
X58728571Y-111345371D02*
X58766667Y-111497752D01*
X58766667Y-111497752D02*
X58766667Y-111612038D01*
X58766667Y-111612038D02*
X58728571Y-111764419D01*
X58728571Y-111764419D02*
X58690476Y-111840609D01*
X58690476Y-111840609D02*
X58614286Y-111916800D01*
X58614286Y-111916800D02*
X58500000Y-111954895D01*
X58500000Y-111954895D02*
X58309524Y-111954895D01*
X59223809Y-111497752D02*
X59147619Y-111459657D01*
X59147619Y-111459657D02*
X59109524Y-111421561D01*
X59109524Y-111421561D02*
X59071428Y-111345371D01*
X59071428Y-111345371D02*
X59071428Y-111307276D01*
X59071428Y-111307276D02*
X59109524Y-111231085D01*
X59109524Y-111231085D02*
X59147619Y-111192990D01*
X59147619Y-111192990D02*
X59223809Y-111154895D01*
X59223809Y-111154895D02*
X59376190Y-111154895D01*
X59376190Y-111154895D02*
X59452381Y-111192990D01*
X59452381Y-111192990D02*
X59490476Y-111231085D01*
X59490476Y-111231085D02*
X59528571Y-111307276D01*
X59528571Y-111307276D02*
X59528571Y-111345371D01*
X59528571Y-111345371D02*
X59490476Y-111421561D01*
X59490476Y-111421561D02*
X59452381Y-111459657D01*
X59452381Y-111459657D02*
X59376190Y-111497752D01*
X59376190Y-111497752D02*
X59223809Y-111497752D01*
X59223809Y-111497752D02*
X59147619Y-111535847D01*
X59147619Y-111535847D02*
X59109524Y-111573942D01*
X59109524Y-111573942D02*
X59071428Y-111650133D01*
X59071428Y-111650133D02*
X59071428Y-111802514D01*
X59071428Y-111802514D02*
X59109524Y-111878704D01*
X59109524Y-111878704D02*
X59147619Y-111916800D01*
X59147619Y-111916800D02*
X59223809Y-111954895D01*
X59223809Y-111954895D02*
X59376190Y-111954895D01*
X59376190Y-111954895D02*
X59452381Y-111916800D01*
X59452381Y-111916800D02*
X59490476Y-111878704D01*
X59490476Y-111878704D02*
X59528571Y-111802514D01*
X59528571Y-111802514D02*
X59528571Y-111650133D01*
X59528571Y-111650133D02*
X59490476Y-111573942D01*
X59490476Y-111573942D02*
X59452381Y-111535847D01*
X59452381Y-111535847D02*
X59376190Y-111497752D01*
X112249524Y-80084895D02*
X112249524Y-79284895D01*
X112249524Y-79284895D02*
X112440000Y-79284895D01*
X112440000Y-79284895D02*
X112554286Y-79322990D01*
X112554286Y-79322990D02*
X112630476Y-79399180D01*
X112630476Y-79399180D02*
X112668571Y-79475371D01*
X112668571Y-79475371D02*
X112706667Y-79627752D01*
X112706667Y-79627752D02*
X112706667Y-79742038D01*
X112706667Y-79742038D02*
X112668571Y-79894419D01*
X112668571Y-79894419D02*
X112630476Y-79970609D01*
X112630476Y-79970609D02*
X112554286Y-80046800D01*
X112554286Y-80046800D02*
X112440000Y-80084895D01*
X112440000Y-80084895D02*
X112249524Y-80084895D01*
X113392381Y-79284895D02*
X113240000Y-79284895D01*
X113240000Y-79284895D02*
X113163809Y-79322990D01*
X113163809Y-79322990D02*
X113125714Y-79361085D01*
X113125714Y-79361085D02*
X113049524Y-79475371D01*
X113049524Y-79475371D02*
X113011428Y-79627752D01*
X113011428Y-79627752D02*
X113011428Y-79932514D01*
X113011428Y-79932514D02*
X113049524Y-80008704D01*
X113049524Y-80008704D02*
X113087619Y-80046800D01*
X113087619Y-80046800D02*
X113163809Y-80084895D01*
X113163809Y-80084895D02*
X113316190Y-80084895D01*
X113316190Y-80084895D02*
X113392381Y-80046800D01*
X113392381Y-80046800D02*
X113430476Y-80008704D01*
X113430476Y-80008704D02*
X113468571Y-79932514D01*
X113468571Y-79932514D02*
X113468571Y-79742038D01*
X113468571Y-79742038D02*
X113430476Y-79665847D01*
X113430476Y-79665847D02*
X113392381Y-79627752D01*
X113392381Y-79627752D02*
X113316190Y-79589657D01*
X113316190Y-79589657D02*
X113163809Y-79589657D01*
X113163809Y-79589657D02*
X113087619Y-79627752D01*
X113087619Y-79627752D02*
X113049524Y-79665847D01*
X113049524Y-79665847D02*
X113011428Y-79742038D01*
X84988704Y-55114285D02*
X85026800Y-55152381D01*
X85026800Y-55152381D02*
X85064895Y-55266666D01*
X85064895Y-55266666D02*
X85064895Y-55342857D01*
X85064895Y-55342857D02*
X85026800Y-55457143D01*
X85026800Y-55457143D02*
X84950609Y-55533333D01*
X84950609Y-55533333D02*
X84874419Y-55571428D01*
X84874419Y-55571428D02*
X84722038Y-55609524D01*
X84722038Y-55609524D02*
X84607752Y-55609524D01*
X84607752Y-55609524D02*
X84455371Y-55571428D01*
X84455371Y-55571428D02*
X84379180Y-55533333D01*
X84379180Y-55533333D02*
X84302990Y-55457143D01*
X84302990Y-55457143D02*
X84264895Y-55342857D01*
X84264895Y-55342857D02*
X84264895Y-55266666D01*
X84264895Y-55266666D02*
X84302990Y-55152381D01*
X84302990Y-55152381D02*
X84341085Y-55114285D01*
X85064895Y-54352381D02*
X85064895Y-54809524D01*
X85064895Y-54580952D02*
X84264895Y-54580952D01*
X84264895Y-54580952D02*
X84379180Y-54657143D01*
X84379180Y-54657143D02*
X84455371Y-54733333D01*
X84455371Y-54733333D02*
X84493466Y-54809524D01*
X84264895Y-54085714D02*
X84264895Y-53552380D01*
X84264895Y-53552380D02*
X85064895Y-53895238D01*
X110775714Y-115614895D02*
X110509047Y-115233942D01*
X110318571Y-115614895D02*
X110318571Y-114814895D01*
X110318571Y-114814895D02*
X110623333Y-114814895D01*
X110623333Y-114814895D02*
X110699523Y-114852990D01*
X110699523Y-114852990D02*
X110737618Y-114891085D01*
X110737618Y-114891085D02*
X110775714Y-114967276D01*
X110775714Y-114967276D02*
X110775714Y-115081561D01*
X110775714Y-115081561D02*
X110737618Y-115157752D01*
X110737618Y-115157752D02*
X110699523Y-115195847D01*
X110699523Y-115195847D02*
X110623333Y-115233942D01*
X110623333Y-115233942D02*
X110318571Y-115233942D01*
X111537618Y-115614895D02*
X111080475Y-115614895D01*
X111309047Y-115614895D02*
X111309047Y-114814895D01*
X111309047Y-114814895D02*
X111232856Y-114929180D01*
X111232856Y-114929180D02*
X111156666Y-115005371D01*
X111156666Y-115005371D02*
X111080475Y-115043466D01*
X111994761Y-115157752D02*
X111918571Y-115119657D01*
X111918571Y-115119657D02*
X111880476Y-115081561D01*
X111880476Y-115081561D02*
X111842380Y-115005371D01*
X111842380Y-115005371D02*
X111842380Y-114967276D01*
X111842380Y-114967276D02*
X111880476Y-114891085D01*
X111880476Y-114891085D02*
X111918571Y-114852990D01*
X111918571Y-114852990D02*
X111994761Y-114814895D01*
X111994761Y-114814895D02*
X112147142Y-114814895D01*
X112147142Y-114814895D02*
X112223333Y-114852990D01*
X112223333Y-114852990D02*
X112261428Y-114891085D01*
X112261428Y-114891085D02*
X112299523Y-114967276D01*
X112299523Y-114967276D02*
X112299523Y-115005371D01*
X112299523Y-115005371D02*
X112261428Y-115081561D01*
X112261428Y-115081561D02*
X112223333Y-115119657D01*
X112223333Y-115119657D02*
X112147142Y-115157752D01*
X112147142Y-115157752D02*
X111994761Y-115157752D01*
X111994761Y-115157752D02*
X111918571Y-115195847D01*
X111918571Y-115195847D02*
X111880476Y-115233942D01*
X111880476Y-115233942D02*
X111842380Y-115310133D01*
X111842380Y-115310133D02*
X111842380Y-115462514D01*
X111842380Y-115462514D02*
X111880476Y-115538704D01*
X111880476Y-115538704D02*
X111918571Y-115576800D01*
X111918571Y-115576800D02*
X111994761Y-115614895D01*
X111994761Y-115614895D02*
X112147142Y-115614895D01*
X112147142Y-115614895D02*
X112223333Y-115576800D01*
X112223333Y-115576800D02*
X112261428Y-115538704D01*
X112261428Y-115538704D02*
X112299523Y-115462514D01*
X112299523Y-115462514D02*
X112299523Y-115310133D01*
X112299523Y-115310133D02*
X112261428Y-115233942D01*
X112261428Y-115233942D02*
X112223333Y-115195847D01*
X112223333Y-115195847D02*
X112147142Y-115157752D01*
X114244895Y-96184285D02*
X113863942Y-96450952D01*
X114244895Y-96641428D02*
X113444895Y-96641428D01*
X113444895Y-96641428D02*
X113444895Y-96336666D01*
X113444895Y-96336666D02*
X113482990Y-96260476D01*
X113482990Y-96260476D02*
X113521085Y-96222381D01*
X113521085Y-96222381D02*
X113597276Y-96184285D01*
X113597276Y-96184285D02*
X113711561Y-96184285D01*
X113711561Y-96184285D02*
X113787752Y-96222381D01*
X113787752Y-96222381D02*
X113825847Y-96260476D01*
X113825847Y-96260476D02*
X113863942Y-96336666D01*
X113863942Y-96336666D02*
X113863942Y-96641428D01*
X114244895Y-95422381D02*
X114244895Y-95879524D01*
X114244895Y-95650952D02*
X113444895Y-95650952D01*
X113444895Y-95650952D02*
X113559180Y-95727143D01*
X113559180Y-95727143D02*
X113635371Y-95803333D01*
X113635371Y-95803333D02*
X113673466Y-95879524D01*
X113711561Y-94736666D02*
X114244895Y-94736666D01*
X113406800Y-94927142D02*
X113978228Y-95117619D01*
X113978228Y-95117619D02*
X113978228Y-94622380D01*
X64866667Y-93064895D02*
X64600000Y-92683942D01*
X64409524Y-93064895D02*
X64409524Y-92264895D01*
X64409524Y-92264895D02*
X64714286Y-92264895D01*
X64714286Y-92264895D02*
X64790476Y-92302990D01*
X64790476Y-92302990D02*
X64828571Y-92341085D01*
X64828571Y-92341085D02*
X64866667Y-92417276D01*
X64866667Y-92417276D02*
X64866667Y-92531561D01*
X64866667Y-92531561D02*
X64828571Y-92607752D01*
X64828571Y-92607752D02*
X64790476Y-92645847D01*
X64790476Y-92645847D02*
X64714286Y-92683942D01*
X64714286Y-92683942D02*
X64409524Y-92683942D01*
X65323809Y-92607752D02*
X65247619Y-92569657D01*
X65247619Y-92569657D02*
X65209524Y-92531561D01*
X65209524Y-92531561D02*
X65171428Y-92455371D01*
X65171428Y-92455371D02*
X65171428Y-92417276D01*
X65171428Y-92417276D02*
X65209524Y-92341085D01*
X65209524Y-92341085D02*
X65247619Y-92302990D01*
X65247619Y-92302990D02*
X65323809Y-92264895D01*
X65323809Y-92264895D02*
X65476190Y-92264895D01*
X65476190Y-92264895D02*
X65552381Y-92302990D01*
X65552381Y-92302990D02*
X65590476Y-92341085D01*
X65590476Y-92341085D02*
X65628571Y-92417276D01*
X65628571Y-92417276D02*
X65628571Y-92455371D01*
X65628571Y-92455371D02*
X65590476Y-92531561D01*
X65590476Y-92531561D02*
X65552381Y-92569657D01*
X65552381Y-92569657D02*
X65476190Y-92607752D01*
X65476190Y-92607752D02*
X65323809Y-92607752D01*
X65323809Y-92607752D02*
X65247619Y-92645847D01*
X65247619Y-92645847D02*
X65209524Y-92683942D01*
X65209524Y-92683942D02*
X65171428Y-92760133D01*
X65171428Y-92760133D02*
X65171428Y-92912514D01*
X65171428Y-92912514D02*
X65209524Y-92988704D01*
X65209524Y-92988704D02*
X65247619Y-93026800D01*
X65247619Y-93026800D02*
X65323809Y-93064895D01*
X65323809Y-93064895D02*
X65476190Y-93064895D01*
X65476190Y-93064895D02*
X65552381Y-93026800D01*
X65552381Y-93026800D02*
X65590476Y-92988704D01*
X65590476Y-92988704D02*
X65628571Y-92912514D01*
X65628571Y-92912514D02*
X65628571Y-92760133D01*
X65628571Y-92760133D02*
X65590476Y-92683942D01*
X65590476Y-92683942D02*
X65552381Y-92645847D01*
X65552381Y-92645847D02*
X65476190Y-92607752D01*
X98565714Y-95188704D02*
X98527618Y-95226800D01*
X98527618Y-95226800D02*
X98413333Y-95264895D01*
X98413333Y-95264895D02*
X98337142Y-95264895D01*
X98337142Y-95264895D02*
X98222856Y-95226800D01*
X98222856Y-95226800D02*
X98146666Y-95150609D01*
X98146666Y-95150609D02*
X98108571Y-95074419D01*
X98108571Y-95074419D02*
X98070475Y-94922038D01*
X98070475Y-94922038D02*
X98070475Y-94807752D01*
X98070475Y-94807752D02*
X98108571Y-94655371D01*
X98108571Y-94655371D02*
X98146666Y-94579180D01*
X98146666Y-94579180D02*
X98222856Y-94502990D01*
X98222856Y-94502990D02*
X98337142Y-94464895D01*
X98337142Y-94464895D02*
X98413333Y-94464895D01*
X98413333Y-94464895D02*
X98527618Y-94502990D01*
X98527618Y-94502990D02*
X98565714Y-94541085D01*
X98870475Y-94541085D02*
X98908571Y-94502990D01*
X98908571Y-94502990D02*
X98984761Y-94464895D01*
X98984761Y-94464895D02*
X99175237Y-94464895D01*
X99175237Y-94464895D02*
X99251428Y-94502990D01*
X99251428Y-94502990D02*
X99289523Y-94541085D01*
X99289523Y-94541085D02*
X99327618Y-94617276D01*
X99327618Y-94617276D02*
X99327618Y-94693466D01*
X99327618Y-94693466D02*
X99289523Y-94807752D01*
X99289523Y-94807752D02*
X98832380Y-95264895D01*
X98832380Y-95264895D02*
X99327618Y-95264895D01*
X99594285Y-94464895D02*
X100127619Y-94464895D01*
X100127619Y-94464895D02*
X99784761Y-95264895D01*
X74285714Y-115784895D02*
X74019047Y-115403942D01*
X73828571Y-115784895D02*
X73828571Y-114984895D01*
X73828571Y-114984895D02*
X74133333Y-114984895D01*
X74133333Y-114984895D02*
X74209523Y-115022990D01*
X74209523Y-115022990D02*
X74247618Y-115061085D01*
X74247618Y-115061085D02*
X74285714Y-115137276D01*
X74285714Y-115137276D02*
X74285714Y-115251561D01*
X74285714Y-115251561D02*
X74247618Y-115327752D01*
X74247618Y-115327752D02*
X74209523Y-115365847D01*
X74209523Y-115365847D02*
X74133333Y-115403942D01*
X74133333Y-115403942D02*
X73828571Y-115403942D01*
X75047618Y-115784895D02*
X74590475Y-115784895D01*
X74819047Y-115784895D02*
X74819047Y-114984895D01*
X74819047Y-114984895D02*
X74742856Y-115099180D01*
X74742856Y-115099180D02*
X74666666Y-115175371D01*
X74666666Y-115175371D02*
X74590475Y-115213466D01*
X75314285Y-114984895D02*
X75847619Y-114984895D01*
X75847619Y-114984895D02*
X75504761Y-115784895D01*
X75888704Y-76214285D02*
X75926800Y-76252381D01*
X75926800Y-76252381D02*
X75964895Y-76366666D01*
X75964895Y-76366666D02*
X75964895Y-76442857D01*
X75964895Y-76442857D02*
X75926800Y-76557143D01*
X75926800Y-76557143D02*
X75850609Y-76633333D01*
X75850609Y-76633333D02*
X75774419Y-76671428D01*
X75774419Y-76671428D02*
X75622038Y-76709524D01*
X75622038Y-76709524D02*
X75507752Y-76709524D01*
X75507752Y-76709524D02*
X75355371Y-76671428D01*
X75355371Y-76671428D02*
X75279180Y-76633333D01*
X75279180Y-76633333D02*
X75202990Y-76557143D01*
X75202990Y-76557143D02*
X75164895Y-76442857D01*
X75164895Y-76442857D02*
X75164895Y-76366666D01*
X75164895Y-76366666D02*
X75202990Y-76252381D01*
X75202990Y-76252381D02*
X75241085Y-76214285D01*
X75241085Y-75909524D02*
X75202990Y-75871428D01*
X75202990Y-75871428D02*
X75164895Y-75795238D01*
X75164895Y-75795238D02*
X75164895Y-75604762D01*
X75164895Y-75604762D02*
X75202990Y-75528571D01*
X75202990Y-75528571D02*
X75241085Y-75490476D01*
X75241085Y-75490476D02*
X75317276Y-75452381D01*
X75317276Y-75452381D02*
X75393466Y-75452381D01*
X75393466Y-75452381D02*
X75507752Y-75490476D01*
X75507752Y-75490476D02*
X75964895Y-75947619D01*
X75964895Y-75947619D02*
X75964895Y-75452381D01*
X75964895Y-74690476D02*
X75964895Y-75147619D01*
X75964895Y-74919047D02*
X75164895Y-74919047D01*
X75164895Y-74919047D02*
X75279180Y-74995238D01*
X75279180Y-74995238D02*
X75355371Y-75071428D01*
X75355371Y-75071428D02*
X75393466Y-75147619D01*
X62685714Y-95088704D02*
X62647618Y-95126800D01*
X62647618Y-95126800D02*
X62533333Y-95164895D01*
X62533333Y-95164895D02*
X62457142Y-95164895D01*
X62457142Y-95164895D02*
X62342856Y-95126800D01*
X62342856Y-95126800D02*
X62266666Y-95050609D01*
X62266666Y-95050609D02*
X62228571Y-94974419D01*
X62228571Y-94974419D02*
X62190475Y-94822038D01*
X62190475Y-94822038D02*
X62190475Y-94707752D01*
X62190475Y-94707752D02*
X62228571Y-94555371D01*
X62228571Y-94555371D02*
X62266666Y-94479180D01*
X62266666Y-94479180D02*
X62342856Y-94402990D01*
X62342856Y-94402990D02*
X62457142Y-94364895D01*
X62457142Y-94364895D02*
X62533333Y-94364895D01*
X62533333Y-94364895D02*
X62647618Y-94402990D01*
X62647618Y-94402990D02*
X62685714Y-94441085D01*
X63447618Y-95164895D02*
X62990475Y-95164895D01*
X63219047Y-95164895D02*
X63219047Y-94364895D01*
X63219047Y-94364895D02*
X63142856Y-94479180D01*
X63142856Y-94479180D02*
X63066666Y-94555371D01*
X63066666Y-94555371D02*
X62990475Y-94593466D01*
X64171428Y-94364895D02*
X63790476Y-94364895D01*
X63790476Y-94364895D02*
X63752380Y-94745847D01*
X63752380Y-94745847D02*
X63790476Y-94707752D01*
X63790476Y-94707752D02*
X63866666Y-94669657D01*
X63866666Y-94669657D02*
X64057142Y-94669657D01*
X64057142Y-94669657D02*
X64133333Y-94707752D01*
X64133333Y-94707752D02*
X64171428Y-94745847D01*
X64171428Y-94745847D02*
X64209523Y-94822038D01*
X64209523Y-94822038D02*
X64209523Y-95012514D01*
X64209523Y-95012514D02*
X64171428Y-95088704D01*
X64171428Y-95088704D02*
X64133333Y-95126800D01*
X64133333Y-95126800D02*
X64057142Y-95164895D01*
X64057142Y-95164895D02*
X63866666Y-95164895D01*
X63866666Y-95164895D02*
X63790476Y-95126800D01*
X63790476Y-95126800D02*
X63752380Y-95088704D01*
X79840476Y-65224895D02*
X79840476Y-65872514D01*
X79840476Y-65872514D02*
X79878571Y-65948704D01*
X79878571Y-65948704D02*
X79916666Y-65986800D01*
X79916666Y-65986800D02*
X79992857Y-66024895D01*
X79992857Y-66024895D02*
X80145238Y-66024895D01*
X80145238Y-66024895D02*
X80221428Y-65986800D01*
X80221428Y-65986800D02*
X80259523Y-65948704D01*
X80259523Y-65948704D02*
X80297619Y-65872514D01*
X80297619Y-65872514D02*
X80297619Y-65224895D01*
X81097618Y-66024895D02*
X80640475Y-66024895D01*
X80869047Y-66024895D02*
X80869047Y-65224895D01*
X80869047Y-65224895D02*
X80792856Y-65339180D01*
X80792856Y-65339180D02*
X80716666Y-65415371D01*
X80716666Y-65415371D02*
X80640475Y-65453466D01*
X84988704Y-61933332D02*
X85026800Y-61971428D01*
X85026800Y-61971428D02*
X85064895Y-62085713D01*
X85064895Y-62085713D02*
X85064895Y-62161904D01*
X85064895Y-62161904D02*
X85026800Y-62276190D01*
X85026800Y-62276190D02*
X84950609Y-62352380D01*
X84950609Y-62352380D02*
X84874419Y-62390475D01*
X84874419Y-62390475D02*
X84722038Y-62428571D01*
X84722038Y-62428571D02*
X84607752Y-62428571D01*
X84607752Y-62428571D02*
X84455371Y-62390475D01*
X84455371Y-62390475D02*
X84379180Y-62352380D01*
X84379180Y-62352380D02*
X84302990Y-62276190D01*
X84302990Y-62276190D02*
X84264895Y-62161904D01*
X84264895Y-62161904D02*
X84264895Y-62085713D01*
X84264895Y-62085713D02*
X84302990Y-61971428D01*
X84302990Y-61971428D02*
X84341085Y-61933332D01*
X85064895Y-61552380D02*
X85064895Y-61399999D01*
X85064895Y-61399999D02*
X85026800Y-61323809D01*
X85026800Y-61323809D02*
X84988704Y-61285713D01*
X84988704Y-61285713D02*
X84874419Y-61209523D01*
X84874419Y-61209523D02*
X84722038Y-61171428D01*
X84722038Y-61171428D02*
X84417276Y-61171428D01*
X84417276Y-61171428D02*
X84341085Y-61209523D01*
X84341085Y-61209523D02*
X84302990Y-61247618D01*
X84302990Y-61247618D02*
X84264895Y-61323809D01*
X84264895Y-61323809D02*
X84264895Y-61476190D01*
X84264895Y-61476190D02*
X84302990Y-61552380D01*
X84302990Y-61552380D02*
X84341085Y-61590475D01*
X84341085Y-61590475D02*
X84417276Y-61628571D01*
X84417276Y-61628571D02*
X84607752Y-61628571D01*
X84607752Y-61628571D02*
X84683942Y-61590475D01*
X84683942Y-61590475D02*
X84722038Y-61552380D01*
X84722038Y-61552380D02*
X84760133Y-61476190D01*
X84760133Y-61476190D02*
X84760133Y-61323809D01*
X84760133Y-61323809D02*
X84722038Y-61247618D01*
X84722038Y-61247618D02*
X84683942Y-61209523D01*
X84683942Y-61209523D02*
X84607752Y-61171428D01*
X67333332Y-99626800D02*
X67447618Y-99664895D01*
X67447618Y-99664895D02*
X67638094Y-99664895D01*
X67638094Y-99664895D02*
X67714285Y-99626800D01*
X67714285Y-99626800D02*
X67752380Y-99588704D01*
X67752380Y-99588704D02*
X67790475Y-99512514D01*
X67790475Y-99512514D02*
X67790475Y-99436323D01*
X67790475Y-99436323D02*
X67752380Y-99360133D01*
X67752380Y-99360133D02*
X67714285Y-99322038D01*
X67714285Y-99322038D02*
X67638094Y-99283942D01*
X67638094Y-99283942D02*
X67485713Y-99245847D01*
X67485713Y-99245847D02*
X67409523Y-99207752D01*
X67409523Y-99207752D02*
X67371428Y-99169657D01*
X67371428Y-99169657D02*
X67333332Y-99093466D01*
X67333332Y-99093466D02*
X67333332Y-99017276D01*
X67333332Y-99017276D02*
X67371428Y-98941085D01*
X67371428Y-98941085D02*
X67409523Y-98902990D01*
X67409523Y-98902990D02*
X67485713Y-98864895D01*
X67485713Y-98864895D02*
X67676190Y-98864895D01*
X67676190Y-98864895D02*
X67790475Y-98902990D01*
X68057142Y-98864895D02*
X68247618Y-99664895D01*
X68247618Y-99664895D02*
X68399999Y-99093466D01*
X68399999Y-99093466D02*
X68552380Y-99664895D01*
X68552380Y-99664895D02*
X68742857Y-98864895D01*
X69466666Y-99664895D02*
X69009523Y-99664895D01*
X69238095Y-99664895D02*
X69238095Y-98864895D01*
X69238095Y-98864895D02*
X69161904Y-98979180D01*
X69161904Y-98979180D02*
X69085714Y-99055371D01*
X69085714Y-99055371D02*
X69009523Y-99093466D01*
X62985714Y-81188704D02*
X62947618Y-81226800D01*
X62947618Y-81226800D02*
X62833333Y-81264895D01*
X62833333Y-81264895D02*
X62757142Y-81264895D01*
X62757142Y-81264895D02*
X62642856Y-81226800D01*
X62642856Y-81226800D02*
X62566666Y-81150609D01*
X62566666Y-81150609D02*
X62528571Y-81074419D01*
X62528571Y-81074419D02*
X62490475Y-80922038D01*
X62490475Y-80922038D02*
X62490475Y-80807752D01*
X62490475Y-80807752D02*
X62528571Y-80655371D01*
X62528571Y-80655371D02*
X62566666Y-80579180D01*
X62566666Y-80579180D02*
X62642856Y-80502990D01*
X62642856Y-80502990D02*
X62757142Y-80464895D01*
X62757142Y-80464895D02*
X62833333Y-80464895D01*
X62833333Y-80464895D02*
X62947618Y-80502990D01*
X62947618Y-80502990D02*
X62985714Y-80541085D01*
X63290475Y-80541085D02*
X63328571Y-80502990D01*
X63328571Y-80502990D02*
X63404761Y-80464895D01*
X63404761Y-80464895D02*
X63595237Y-80464895D01*
X63595237Y-80464895D02*
X63671428Y-80502990D01*
X63671428Y-80502990D02*
X63709523Y-80541085D01*
X63709523Y-80541085D02*
X63747618Y-80617276D01*
X63747618Y-80617276D02*
X63747618Y-80693466D01*
X63747618Y-80693466D02*
X63709523Y-80807752D01*
X63709523Y-80807752D02*
X63252380Y-81264895D01*
X63252380Y-81264895D02*
X63747618Y-81264895D01*
X64433333Y-80731561D02*
X64433333Y-81264895D01*
X64242857Y-80426800D02*
X64052380Y-80998228D01*
X64052380Y-80998228D02*
X64547619Y-80998228D01*
X55454895Y-97602975D02*
X54654895Y-97602975D01*
X54654895Y-97602975D02*
X54654895Y-97412499D01*
X54654895Y-97412499D02*
X54692990Y-97298213D01*
X54692990Y-97298213D02*
X54769180Y-97222023D01*
X54769180Y-97222023D02*
X54845371Y-97183928D01*
X54845371Y-97183928D02*
X54997752Y-97145832D01*
X54997752Y-97145832D02*
X55112038Y-97145832D01*
X55112038Y-97145832D02*
X55264419Y-97183928D01*
X55264419Y-97183928D02*
X55340609Y-97222023D01*
X55340609Y-97222023D02*
X55416800Y-97298213D01*
X55416800Y-97298213D02*
X55454895Y-97412499D01*
X55454895Y-97412499D02*
X55454895Y-97602975D01*
X54654895Y-96879166D02*
X54654895Y-96383928D01*
X54654895Y-96383928D02*
X54959657Y-96650594D01*
X54959657Y-96650594D02*
X54959657Y-96536309D01*
X54959657Y-96536309D02*
X54997752Y-96460118D01*
X54997752Y-96460118D02*
X55035847Y-96422023D01*
X55035847Y-96422023D02*
X55112038Y-96383928D01*
X55112038Y-96383928D02*
X55302514Y-96383928D01*
X55302514Y-96383928D02*
X55378704Y-96422023D01*
X55378704Y-96422023D02*
X55416800Y-96460118D01*
X55416800Y-96460118D02*
X55454895Y-96536309D01*
X55454895Y-96536309D02*
X55454895Y-96764880D01*
X55454895Y-96764880D02*
X55416800Y-96841071D01*
X55416800Y-96841071D02*
X55378704Y-96879166D01*
X67630476Y-87134895D02*
X67630476Y-87782514D01*
X67630476Y-87782514D02*
X67668571Y-87858704D01*
X67668571Y-87858704D02*
X67706666Y-87896800D01*
X67706666Y-87896800D02*
X67782857Y-87934895D01*
X67782857Y-87934895D02*
X67935238Y-87934895D01*
X67935238Y-87934895D02*
X68011428Y-87896800D01*
X68011428Y-87896800D02*
X68049523Y-87858704D01*
X68049523Y-87858704D02*
X68087619Y-87782514D01*
X68087619Y-87782514D02*
X68087619Y-87134895D01*
X68392380Y-87134895D02*
X68887618Y-87134895D01*
X68887618Y-87134895D02*
X68620952Y-87439657D01*
X68620952Y-87439657D02*
X68735237Y-87439657D01*
X68735237Y-87439657D02*
X68811428Y-87477752D01*
X68811428Y-87477752D02*
X68849523Y-87515847D01*
X68849523Y-87515847D02*
X68887618Y-87592038D01*
X68887618Y-87592038D02*
X68887618Y-87782514D01*
X68887618Y-87782514D02*
X68849523Y-87858704D01*
X68849523Y-87858704D02*
X68811428Y-87896800D01*
X68811428Y-87896800D02*
X68735237Y-87934895D01*
X68735237Y-87934895D02*
X68506666Y-87934895D01*
X68506666Y-87934895D02*
X68430475Y-87896800D01*
X68430475Y-87896800D02*
X68392380Y-87858704D01*
X56384895Y-96474285D02*
X56003942Y-96740952D01*
X56384895Y-96931428D02*
X55584895Y-96931428D01*
X55584895Y-96931428D02*
X55584895Y-96626666D01*
X55584895Y-96626666D02*
X55622990Y-96550476D01*
X55622990Y-96550476D02*
X55661085Y-96512381D01*
X55661085Y-96512381D02*
X55737276Y-96474285D01*
X55737276Y-96474285D02*
X55851561Y-96474285D01*
X55851561Y-96474285D02*
X55927752Y-96512381D01*
X55927752Y-96512381D02*
X55965847Y-96550476D01*
X55965847Y-96550476D02*
X56003942Y-96626666D01*
X56003942Y-96626666D02*
X56003942Y-96931428D01*
X56384895Y-95712381D02*
X56384895Y-96169524D01*
X56384895Y-95940952D02*
X55584895Y-95940952D01*
X55584895Y-95940952D02*
X55699180Y-96017143D01*
X55699180Y-96017143D02*
X55775371Y-96093333D01*
X55775371Y-96093333D02*
X55813466Y-96169524D01*
X56384895Y-94950476D02*
X56384895Y-95407619D01*
X56384895Y-95179047D02*
X55584895Y-95179047D01*
X55584895Y-95179047D02*
X55699180Y-95255238D01*
X55699180Y-95255238D02*
X55775371Y-95331428D01*
X55775371Y-95331428D02*
X55813466Y-95407619D01*
D13*
X57624959Y-61630000D02*
X55054739Y-61630000D01*
X52211061Y-61630000D02*
X50572300Y-61630000D01*
X50567880Y-61630000D02*
X50567880Y-76895400D01*
X61319899Y-64264859D02*
X61319899Y-62788720D01*
D11*
X61474959Y-73512700D02*
X61474959Y-74062700D01*
X61174959Y-73762700D02*
X61474959Y-73462700D01*
X61474959Y-74062700D02*
X61174959Y-73762700D01*
D13*
X61319899Y-75736680D02*
X61319899Y-74260541D01*
X55054739Y-76895400D02*
X57624959Y-76895400D01*
X50572300Y-76895400D02*
X52211061Y-76895400D01*
X112415041Y-76850000D02*
X114985261Y-76850000D01*
X117828939Y-76850000D02*
X119467700Y-76850000D01*
X119472120Y-76850000D02*
X119472120Y-61584600D01*
X108720101Y-74215141D02*
X108720101Y-75691280D01*
D11*
X108565041Y-64967300D02*
X108565041Y-64417300D01*
X108865041Y-64717300D02*
X108565041Y-65017300D01*
X108565041Y-64417300D02*
X108865041Y-64717300D01*
D13*
X108720101Y-62743320D02*
X108720101Y-64219459D01*
X114985261Y-61584600D02*
X112415041Y-61584600D01*
X119467700Y-61584600D02*
X117828939Y-61584600D01*
D14*
X81898000Y-63823836D02*
X81898000Y-63608164D01*
X82618000Y-63823836D02*
X82618000Y-63608164D01*
X55955000Y-84550000D02*
X54175000Y-84550000D01*
X55955000Y-93950000D02*
X54175000Y-93950000D01*
X58875000Y-86450000D02*
X58875000Y-85650000D01*
X115410000Y-82536359D02*
X115410000Y-82843641D01*
X116170000Y-82536359D02*
X116170000Y-82843641D01*
X75800000Y-82660000D02*
X76800000Y-82660000D01*
X75800000Y-83410000D02*
X75800000Y-82660000D01*
X75800000Y-102160000D02*
X93800000Y-102160000D01*
X75800000Y-108160000D02*
X75800000Y-101410000D01*
X93800000Y-82660000D02*
X92800000Y-82660000D01*
X93800000Y-83410000D02*
X93800000Y-82660000D01*
X93800000Y-108160000D02*
X75800000Y-108160000D01*
X93800000Y-108160000D02*
X93800000Y-101410000D01*
X82332000Y-74348663D02*
X82332000Y-74564335D01*
X83052000Y-74348663D02*
X83052000Y-74564335D01*
X70766359Y-90200000D02*
X71073641Y-90200000D01*
X70766359Y-90960000D02*
X71073641Y-90960000D01*
X96252164Y-100100000D02*
X96467836Y-100100000D01*
X96252164Y-100820000D02*
X96467836Y-100820000D01*
X73286359Y-95200000D02*
X73593641Y-95200000D01*
X73286359Y-95960000D02*
X73593641Y-95960000D01*
X87940000Y-55212164D02*
X87940000Y-55427836D01*
X88660000Y-55212164D02*
X88660000Y-55427836D01*
X63071301Y-91290000D02*
X62764019Y-91290000D01*
X63071301Y-92050000D02*
X62764019Y-92050000D01*
X92720000Y-115156359D02*
X92720000Y-115463641D01*
X93480000Y-115156359D02*
X93480000Y-115463641D01*
X76265000Y-111612500D02*
X76265000Y-113897500D01*
X76265000Y-113897500D02*
X77735000Y-113897500D01*
X77735000Y-113897500D02*
X77735000Y-111612500D01*
X88428000Y-63419336D02*
X88428000Y-63203664D01*
X89148000Y-63419336D02*
X89148000Y-63203664D01*
X85665000Y-58661252D02*
X85665000Y-58138748D01*
X87135000Y-58661252D02*
X87135000Y-58138748D01*
X87412000Y-63419336D02*
X87412000Y-63203664D01*
X88132000Y-63419336D02*
X88132000Y-63203664D01*
X92365000Y-111612500D02*
X92365000Y-113897500D01*
X92365000Y-113897500D02*
X93835000Y-113897500D01*
X93835000Y-113897500D02*
X93835000Y-111612500D01*
X67538748Y-91365000D02*
X68061252Y-91365000D01*
X67538748Y-92835000D02*
X68061252Y-92835000D01*
X85868000Y-74683641D02*
X85868000Y-74376359D01*
X86628000Y-74683641D02*
X86628000Y-74376359D01*
X87920000Y-74420164D02*
X87920000Y-74635836D01*
X88640000Y-74420164D02*
X88640000Y-74635836D01*
X70170000Y-87370000D02*
X71580000Y-87370000D01*
X70180000Y-89690000D02*
X71580000Y-89690000D01*
X69800000Y-87420000D02*
X69560000Y-87090000D01*
X70040000Y-87090000D01*
X69800000Y-87420000D01*
G36*
X69800000Y-87420000D02*
G01*
X69560000Y-87090000D01*
X70040000Y-87090000D01*
X69800000Y-87420000D01*
G37*
X108465000Y-111612500D02*
X108465000Y-113897500D01*
X108465000Y-113897500D02*
X109935000Y-113897500D01*
X109935000Y-113897500D02*
X109935000Y-111612500D01*
X101092164Y-97740000D02*
X101307836Y-97740000D01*
X101092164Y-98460000D02*
X101307836Y-98460000D01*
X105120000Y-93810000D02*
X105120000Y-95810000D01*
X105120000Y-93810000D02*
X109130000Y-93810000D01*
X105120000Y-95810000D02*
X109130000Y-95810000D01*
X96538748Y-97865000D02*
X97061252Y-97865000D01*
X96538748Y-99335000D02*
X97061252Y-99335000D01*
X106538748Y-91565000D02*
X107061252Y-91565000D01*
X106538748Y-93035000D02*
X107061252Y-93035000D01*
X60764019Y-92390000D02*
X61071301Y-92390000D01*
X60764019Y-93150000D02*
X61071301Y-93150000D01*
X60520000Y-115156359D02*
X60520000Y-115463641D01*
X61280000Y-115156359D02*
X61280000Y-115463641D01*
X73640000Y-79607836D02*
X73640000Y-79392164D01*
X74360000Y-79607836D02*
X74360000Y-79392164D01*
X65565000Y-96161252D02*
X65565000Y-95638748D01*
X67035000Y-96161252D02*
X67035000Y-95638748D01*
X63960000Y-95410000D02*
X59950000Y-95410000D01*
X63960000Y-97410000D02*
X59950000Y-97410000D01*
X63960000Y-97410000D02*
X63960000Y-95410000D01*
X92100000Y-53690000D02*
X95860000Y-53690000D01*
X92100000Y-60510000D02*
X95860000Y-60510000D01*
X95860000Y-53690000D02*
X95860000Y-54950000D01*
X95860000Y-60510000D02*
X95860000Y-59250000D01*
X90820000Y-53790000D02*
X90580000Y-53460000D01*
X91060000Y-53460000D01*
X90820000Y-53790000D01*
G36*
X90820000Y-53790000D02*
G01*
X90580000Y-53460000D01*
X91060000Y-53460000D01*
X90820000Y-53790000D01*
G37*
X85660000Y-63823836D02*
X85660000Y-63608164D01*
X86380000Y-63823836D02*
X86380000Y-63608164D01*
X106490000Y-86362500D02*
X106490000Y-85712500D01*
X106490000Y-86362500D02*
X106490000Y-87012500D01*
X109610000Y-86362500D02*
X109610000Y-85712500D01*
X109610000Y-86362500D02*
X109610000Y-87012500D01*
X106540000Y-87525000D02*
X106210000Y-87765000D01*
X106210000Y-87285000D01*
X106540000Y-87525000D01*
G36*
X106540000Y-87525000D02*
G01*
X106210000Y-87765000D01*
X106210000Y-87285000D01*
X106540000Y-87525000D01*
G37*
X101046359Y-95560000D02*
X101353641Y-95560000D01*
X101046359Y-96320000D02*
X101353641Y-96320000D01*
X73100000Y-87836359D02*
X73100000Y-88143641D01*
X73860000Y-87836359D02*
X73860000Y-88143641D01*
X60774019Y-91290000D02*
X61081301Y-91290000D01*
X60774019Y-92050000D02*
X61081301Y-92050000D01*
X65290000Y-76890000D02*
X66550000Y-76890000D01*
X65290000Y-80650000D02*
X65290000Y-76890000D01*
X72110000Y-76890000D02*
X70850000Y-76890000D01*
X72110000Y-80650000D02*
X72110000Y-76890000D01*
X65390000Y-81930000D02*
X65060000Y-82170000D01*
X65060000Y-81690000D01*
X65390000Y-81930000D01*
G36*
X65390000Y-81930000D02*
G01*
X65060000Y-82170000D01*
X65060000Y-81690000D01*
X65390000Y-81930000D01*
G37*
X71037164Y-101610000D02*
X71252836Y-101610000D01*
X71037164Y-102330000D02*
X71252836Y-102330000D01*
X111125000Y-92050000D02*
X111125000Y-92850000D01*
X114045000Y-84550000D02*
X115825000Y-84550000D01*
X114045000Y-93950000D02*
X115825000Y-93950000D01*
X64040000Y-77187836D02*
X64040000Y-76972164D01*
X64760000Y-77187836D02*
X64760000Y-76972164D01*
X52900000Y-81770000D02*
X52900000Y-81120000D01*
X52900000Y-81770000D02*
X52900000Y-82420000D01*
X56020000Y-81770000D02*
X56020000Y-81120000D01*
X56020000Y-81770000D02*
X56020000Y-82420000D01*
X52950000Y-82932500D02*
X52620000Y-83172500D01*
X52620000Y-82692500D01*
X52950000Y-82932500D01*
G36*
X52950000Y-82932500D02*
G01*
X52620000Y-83172500D01*
X52620000Y-82692500D01*
X52950000Y-82932500D01*
G37*
X100250000Y-102950000D02*
X100250000Y-105550000D01*
X102750000Y-98000000D02*
X103750000Y-98000000D01*
X102750000Y-99000000D02*
X102750000Y-98000000D01*
X112000000Y-110500000D02*
X106000000Y-110500000D01*
X114750000Y-98000000D02*
X104250000Y-98000000D01*
X117750000Y-102950000D02*
X117750000Y-105550000D01*
X57563641Y-82820000D02*
X57256359Y-82820000D01*
X57563641Y-83580000D02*
X57256359Y-83580000D01*
X87940000Y-58187836D02*
X87940000Y-57972164D01*
X88660000Y-58187836D02*
X88660000Y-57972164D01*
X86904000Y-74420164D02*
X86904000Y-74635836D01*
X87624000Y-74420164D02*
X87624000Y-74635836D01*
X79779836Y-72486999D02*
X79564164Y-72486999D01*
X79779836Y-73206999D02*
X79564164Y-73206999D01*
X82285000Y-60675252D02*
X82285000Y-60152748D01*
X83755000Y-60675252D02*
X83755000Y-60152748D01*
X101046359Y-96620000D02*
X101353641Y-96620000D01*
X101046359Y-97380000D02*
X101353641Y-97380000D01*
X79491000Y-63215252D02*
X79491000Y-62692748D01*
X80961000Y-63215252D02*
X80961000Y-62692748D01*
X64040000Y-79207836D02*
X64040000Y-78992164D01*
X64760000Y-79207836D02*
X64760000Y-78992164D01*
X60165000Y-111612500D02*
X60165000Y-113897500D01*
X60165000Y-113897500D02*
X61635000Y-113897500D01*
X61635000Y-113897500D02*
X61635000Y-111612500D01*
X112840000Y-80560000D02*
X112190000Y-80560000D01*
X112840000Y-80560000D02*
X113490000Y-80560000D01*
X112840000Y-83680000D02*
X112190000Y-83680000D01*
X112840000Y-83680000D02*
X113490000Y-83680000D01*
X111677500Y-80610000D02*
X111437500Y-80280000D01*
X111917500Y-80280000D01*
X111677500Y-80610000D01*
G36*
X111677500Y-80610000D02*
G01*
X111437500Y-80280000D01*
X111917500Y-80280000D01*
X111677500Y-80610000D01*
G37*
X85665000Y-54338748D02*
X85665000Y-54861252D01*
X87135000Y-54338748D02*
X87135000Y-54861252D01*
X108820000Y-115156359D02*
X108820000Y-115463641D01*
X109580000Y-115156359D02*
X109580000Y-115463641D01*
X114670000Y-95823641D02*
X114670000Y-95516359D01*
X115430000Y-95823641D02*
X115430000Y-95516359D01*
X65071301Y-91290000D02*
X64764019Y-91290000D01*
X65071301Y-92050000D02*
X64764019Y-92050000D01*
X101072164Y-94510000D02*
X101287836Y-94510000D01*
X101072164Y-95230000D02*
X101287836Y-95230000D01*
X76620000Y-115156359D02*
X76620000Y-115463641D01*
X77380000Y-115156359D02*
X77380000Y-115463641D01*
X74865000Y-78961252D02*
X74865000Y-78438748D01*
X76335000Y-78961252D02*
X76335000Y-78438748D01*
X62839824Y-92410000D02*
X63055496Y-92410000D01*
X62839824Y-93130000D02*
X63055496Y-93130000D01*
D15*
X81275000Y-65235000D02*
X81850000Y-65235000D01*
X81275000Y-65810000D02*
X81275000Y-65235000D01*
X81275000Y-72684998D02*
X81275000Y-72384998D01*
X81275000Y-72684998D02*
X81575000Y-72684998D01*
X88424998Y-65235000D02*
X88724998Y-65235000D01*
X88424998Y-72684998D02*
X88724998Y-72684998D01*
X88724998Y-65535000D02*
X88724998Y-65235000D01*
X88724998Y-72684998D02*
X88724998Y-72384998D01*
D14*
X84340000Y-63823836D02*
X84340000Y-63608164D01*
X85060000Y-63823836D02*
X85060000Y-63608164D01*
X52250000Y-102950000D02*
X52250000Y-105550000D01*
X54750000Y-98000000D02*
X55750000Y-98000000D01*
X54750000Y-99000000D02*
X54750000Y-98000000D01*
X64000000Y-110500000D02*
X58000000Y-110500000D01*
X66750000Y-98000000D02*
X56250000Y-98000000D01*
X69750000Y-102950000D02*
X69750000Y-105550000D01*
X63461252Y-81565000D02*
X62938748Y-81565000D01*
X63461252Y-83035000D02*
X62938748Y-83035000D01*
X51130000Y-97012500D02*
X51130000Y-96362500D01*
X51130000Y-97012500D02*
X51130000Y-97662500D01*
X54250000Y-97012500D02*
X54250000Y-96362500D01*
X54250000Y-97012500D02*
X54250000Y-97662500D01*
X54530000Y-96090000D02*
X54200000Y-95850000D01*
X54530000Y-95610000D01*
X54530000Y-96090000D01*
G36*
X54530000Y-96090000D02*
G01*
X54200000Y-95850000D01*
X54530000Y-95610000D01*
X54530000Y-96090000D01*
G37*
X61790000Y-85665000D02*
X61790000Y-85180000D01*
X61790000Y-90160000D02*
X61790000Y-89435000D01*
X62515000Y-84940000D02*
X62090000Y-84940000D01*
X62515000Y-90160000D02*
X61790000Y-90160000D01*
X66285000Y-84940000D02*
X67010000Y-84940000D01*
X66285000Y-90160000D02*
X67010000Y-90160000D01*
X67010000Y-84940000D02*
X67010000Y-85665000D01*
X67010000Y-90160000D02*
X67010000Y-89435000D01*
X61790000Y-84940000D02*
X61550000Y-84610000D01*
X62030000Y-84610000D01*
X61790000Y-84940000D01*
G36*
X61790000Y-84940000D02*
G01*
X61550000Y-84610000D01*
X62030000Y-84610000D01*
X61790000Y-84940000D01*
G37*
X56810000Y-96113641D02*
X56810000Y-95806359D01*
X57570000Y-96113641D02*
X57570000Y-95806359D01*
%LPC*%
D16*
X59624959Y-73762700D03*
X59624959Y-73262700D03*
X59624959Y-72762700D03*
X59624959Y-72262700D03*
X59624959Y-71762700D03*
X59624959Y-71262700D03*
X59624959Y-70762700D03*
X59624959Y-70262700D03*
X59624959Y-69762700D03*
X59624959Y-69262700D03*
X59624959Y-68762701D03*
X59624959Y-68262700D03*
X59624959Y-67762700D03*
X59624959Y-67262700D03*
X59624959Y-66762700D03*
X59624959Y-66262700D03*
X59624959Y-65762700D03*
X59624959Y-65262700D03*
X59624959Y-64762700D03*
D17*
X59624959Y-62012700D03*
D18*
X53624959Y-62012700D03*
D17*
X59624959Y-76512700D03*
D18*
X53624959Y-76512700D03*
D16*
X110415041Y-64717300D03*
X110415041Y-65217300D03*
X110415041Y-65717300D03*
X110415041Y-66217300D03*
X110415041Y-66717300D03*
X110415041Y-67217300D03*
X110415041Y-67717300D03*
X110415041Y-68217300D03*
X110415041Y-68717300D03*
X110415041Y-69217300D03*
X110415041Y-69717299D03*
X110415041Y-70217300D03*
X110415041Y-70717300D03*
X110415041Y-71217300D03*
X110415041Y-71717300D03*
X110415041Y-72217300D03*
X110415041Y-72717300D03*
X110415041Y-73217300D03*
X110415041Y-73717300D03*
D17*
X110415041Y-76467300D03*
D18*
X116415041Y-76467300D03*
D17*
X110415041Y-61967300D03*
D18*
X116415041Y-61967300D03*
D19*
X82258000Y-64196000D03*
X82258000Y-63236000D03*
D20*
X56780000Y-86360000D03*
X56780000Y-92140000D03*
D21*
X57920000Y-86050000D03*
X57920000Y-86850000D03*
D22*
X57920000Y-88000000D03*
X57920000Y-89000000D03*
X57920000Y-89500000D03*
X57920000Y-90500000D03*
D21*
X57920000Y-91650000D03*
X57920000Y-92450000D03*
X57920000Y-92450000D03*
X57920000Y-91650000D03*
D22*
X57920000Y-91000000D03*
X57920000Y-90000000D03*
X57920000Y-88500000D03*
X57920000Y-87500000D03*
D21*
X57920000Y-86850000D03*
X57920000Y-86050000D03*
D23*
X57280000Y-84930000D03*
D24*
X53100000Y-84930000D03*
D23*
X57280000Y-93570000D03*
D24*
X53100000Y-93570000D03*
D25*
X110420000Y-55110000D03*
D26*
X115790000Y-82180000D03*
X115790000Y-83200000D03*
D27*
X93550000Y-100670000D03*
X93550000Y-99400000D03*
X93550000Y-98130000D03*
X93550000Y-96860000D03*
X93550000Y-95590000D03*
X93550000Y-94320000D03*
X93550000Y-93050000D03*
X93550000Y-91780000D03*
X93550000Y-90510000D03*
X93550000Y-89240000D03*
X93550000Y-87970000D03*
X93550000Y-86700000D03*
X93550000Y-85430000D03*
X93550000Y-84160000D03*
X76050000Y-84160000D03*
X76050000Y-85430000D03*
X76050000Y-86700000D03*
X76050000Y-87970000D03*
X76050000Y-89240000D03*
X76050000Y-90510000D03*
X76050000Y-91780000D03*
X76050000Y-93050000D03*
X76050000Y-94320000D03*
X76050000Y-95590000D03*
X76050000Y-96860000D03*
X76050000Y-98130000D03*
X76050000Y-99400000D03*
X76050000Y-100670000D03*
D28*
X87555000Y-96200000D03*
X87555000Y-94950000D03*
X87555000Y-93700000D03*
X86305000Y-96200000D03*
X86305000Y-94950000D03*
X86305000Y-93700000D03*
X85055000Y-96200000D03*
X85055000Y-94950000D03*
X85055000Y-93700000D03*
D29*
X82692000Y-73976499D03*
X82692000Y-74936499D03*
D30*
X70410000Y-90580000D03*
X71430000Y-90580000D03*
D31*
X95880000Y-100460000D03*
X96840000Y-100460000D03*
D30*
X72930000Y-95580000D03*
X73950000Y-95580000D03*
D25*
X58750000Y-117640000D03*
D29*
X88300000Y-54840000D03*
X88300000Y-55800000D03*
D32*
X63427660Y-91670000D03*
X62407660Y-91670000D03*
D26*
X93100000Y-114800000D03*
X93100000Y-115820000D03*
D33*
X77000000Y-113200000D03*
X77000000Y-111625000D03*
D19*
X88788000Y-63791500D03*
X88788000Y-62831500D03*
D34*
X86400000Y-59350000D03*
X86400000Y-57450000D03*
D35*
X115000000Y-55000000D03*
D19*
X87772000Y-63791500D03*
X87772000Y-62831500D03*
D33*
X93100000Y-113200000D03*
X93100000Y-111625000D03*
D36*
X66850000Y-92100000D03*
X68750000Y-92100000D03*
D37*
X86248000Y-75040000D03*
X86248000Y-74020000D03*
D29*
X88280000Y-74048000D03*
X88280000Y-75008000D03*
D38*
X69930000Y-87880000D03*
X69930000Y-88530000D03*
X69930000Y-89180000D03*
X71830000Y-89180000D03*
X71830000Y-88530000D03*
X71830000Y-87880000D03*
D33*
X109200000Y-113200000D03*
X109200000Y-111625000D03*
D31*
X100720000Y-98100000D03*
X101680000Y-98100000D03*
D39*
X105830000Y-94810000D03*
X109130000Y-94810000D03*
D36*
X95850000Y-98600000D03*
X97750000Y-98600000D03*
X105850000Y-92300000D03*
X107750000Y-92300000D03*
D30*
X60407660Y-92770000D03*
X61427660Y-92770000D03*
D26*
X60900000Y-114800000D03*
X60900000Y-115820000D03*
D19*
X74000000Y-79980000D03*
X74000000Y-79020000D03*
D35*
X115000000Y-115000000D03*
D34*
X66300000Y-96850000D03*
X66300000Y-94950000D03*
D40*
X63250000Y-96410000D03*
X59950000Y-96410000D03*
D41*
X90800000Y-54800000D03*
X90800000Y-57100000D03*
X90800000Y-59400000D03*
D42*
X97100000Y-57100000D03*
D19*
X86020000Y-64196000D03*
X86020000Y-63236000D03*
D43*
X107100000Y-87300000D03*
X109000000Y-87300000D03*
X108050000Y-85425000D03*
D30*
X100690000Y-95940000D03*
X101710000Y-95940000D03*
D26*
X73480000Y-87480000D03*
X73480000Y-88500000D03*
D25*
X59510000Y-55130000D03*
D30*
X60417660Y-91670000D03*
X61437660Y-91670000D03*
D44*
X66400000Y-81950000D03*
X68700000Y-81950000D03*
X71000000Y-81950000D03*
D45*
X68700000Y-75650000D03*
D31*
X70665000Y-101970000D03*
X71625000Y-101970000D03*
D20*
X113220000Y-92140000D03*
X113220000Y-86360000D03*
D46*
X112080000Y-92450000D03*
X112080000Y-91650000D03*
D47*
X112080000Y-90500000D03*
X112080000Y-89500000D03*
X112080000Y-89000000D03*
X112080000Y-88000000D03*
D46*
X112080000Y-86850000D03*
X112080000Y-86050000D03*
X112080000Y-86050000D03*
X112080000Y-86850000D03*
D47*
X112080000Y-87500000D03*
X112080000Y-88500000D03*
X112080000Y-90000000D03*
X112080000Y-91000000D03*
D46*
X112080000Y-91650000D03*
X112080000Y-92450000D03*
D23*
X112720000Y-93570000D03*
D24*
X116900000Y-93570000D03*
D23*
X112720000Y-84930000D03*
D24*
X116900000Y-84930000D03*
D19*
X64400000Y-77560000D03*
X64400000Y-76600000D03*
D43*
X53510000Y-82707500D03*
X55410000Y-82707500D03*
X54460000Y-80832500D03*
D48*
X101850000Y-102000000D03*
X116150000Y-102000000D03*
X101850000Y-106500000D03*
X116150000Y-106500000D03*
D35*
X55000000Y-55000000D03*
D32*
X57920000Y-83200000D03*
X56900000Y-83200000D03*
D19*
X88300000Y-58560000D03*
X88300000Y-57600000D03*
D29*
X87264000Y-74048000D03*
X87264000Y-75008000D03*
D49*
X80152000Y-72846999D03*
X79192000Y-72846999D03*
D34*
X83020000Y-61364000D03*
X83020000Y-59464000D03*
D30*
X100690000Y-97000000D03*
X101710000Y-97000000D03*
D34*
X80226000Y-63904000D03*
X80226000Y-62004000D03*
D19*
X64400000Y-79580000D03*
X64400000Y-78620000D03*
D33*
X60900000Y-113200000D03*
X60900000Y-111625000D03*
D35*
X55000000Y-115000000D03*
D50*
X111902500Y-81170000D03*
X111902500Y-83070000D03*
X113777500Y-82120000D03*
D51*
X86400000Y-53650000D03*
X86400000Y-55550000D03*
D26*
X109200000Y-114800000D03*
X109200000Y-115820000D03*
D37*
X115050000Y-96180000D03*
X115050000Y-95160000D03*
D32*
X65427660Y-91670000D03*
X64407660Y-91670000D03*
D31*
X100700000Y-94870000D03*
X101660000Y-94870000D03*
D26*
X77000000Y-114800000D03*
X77000000Y-115820000D03*
D34*
X75600000Y-79650000D03*
X75600000Y-77750000D03*
D31*
X62467660Y-92770000D03*
X63427660Y-92770000D03*
D52*
X81599998Y-66209999D03*
X81599998Y-66709998D03*
X81599998Y-67210000D03*
X81599998Y-67709999D03*
X81599998Y-68210001D03*
X81599998Y-68709999D03*
X81599998Y-69209999D03*
X81599998Y-69710000D03*
X81599998Y-70209999D03*
X81599998Y-70710001D03*
X81599998Y-71210000D03*
X81599998Y-71709999D03*
D53*
X82249999Y-72360000D03*
X82749998Y-72360000D03*
X83250000Y-72360000D03*
X83749999Y-72360000D03*
X84250001Y-72360000D03*
X84749999Y-72360000D03*
X85249999Y-72360000D03*
X85750000Y-72360000D03*
X86249999Y-72360000D03*
X86750001Y-72360000D03*
X87250000Y-72360000D03*
X87749999Y-72360000D03*
D52*
X88400000Y-71709999D03*
X88400000Y-71210000D03*
X88400000Y-70710001D03*
X88400000Y-70209999D03*
X88400000Y-69710000D03*
X88400000Y-69209999D03*
X88400000Y-68709999D03*
X88400000Y-68210001D03*
X88400000Y-67709999D03*
X88400000Y-67210000D03*
X88400000Y-66709998D03*
X88400000Y-66209999D03*
D53*
X87749999Y-65559998D03*
X87250000Y-65559998D03*
X86750001Y-65559998D03*
X86249999Y-65559998D03*
X85750000Y-65559998D03*
X85249999Y-65559998D03*
X84749999Y-65559998D03*
X84250001Y-65559998D03*
X83749999Y-65559998D03*
X83250000Y-65559998D03*
X82749998Y-65559998D03*
X82249999Y-65559998D03*
D54*
X84999999Y-68959999D03*
D19*
X84700000Y-64196000D03*
X84700000Y-63236000D03*
D48*
X53850000Y-102000000D03*
X68150000Y-102000000D03*
X53850000Y-106500000D03*
X68150000Y-106500000D03*
D55*
X64150000Y-82300000D03*
X62250000Y-82300000D03*
D56*
X53640000Y-96075000D03*
X51740000Y-96075000D03*
X52690000Y-97950000D03*
D57*
X61950000Y-86050000D03*
X61950000Y-86550000D03*
X61950000Y-87050000D03*
X61950000Y-87550000D03*
X61950000Y-88050000D03*
X61950000Y-88550000D03*
X61950000Y-89050000D03*
D58*
X62900000Y-90000000D03*
X63400000Y-90000000D03*
X63900000Y-90000000D03*
X64400000Y-90000000D03*
X64900000Y-90000000D03*
X65400000Y-90000000D03*
X65900000Y-90000000D03*
D57*
X66850000Y-89050000D03*
X66850000Y-88550000D03*
X66850000Y-88050000D03*
X66850000Y-87550000D03*
X66850000Y-87050000D03*
X66850000Y-86550000D03*
X66850000Y-86050000D03*
D58*
X65900000Y-85100000D03*
X65400000Y-85100000D03*
X64900000Y-85100000D03*
X64400000Y-85100000D03*
X63900000Y-85100000D03*
X63400000Y-85100000D03*
X62900000Y-85100000D03*
D59*
X64400000Y-87550000D03*
D37*
X57190000Y-96470000D03*
X57190000Y-95450000D03*
%LPD*%
M02*
