G04 #@! TF.GenerationSoftware,KiCad,Pcbnew,8.0.4*
G04 #@! TF.CreationDate,2024-09-01T18:21:08-07:00*
G04 #@! TF.ProjectId,HDMI Breakout,48444d49-2042-4726-9561-6b6f75742e6b,rev?*
G04 #@! TF.SameCoordinates,Original*
G04 #@! TF.FileFunction,Copper,L2,Inr*
G04 #@! TF.FilePolarity,Positive*
%FSLAX46Y46*%
G04 Gerber Fmt 4.6, Leading zero omitted, Abs format (unit mm)*
G04 Created by KiCad (PCBNEW 8.0.4) date 2024-09-01 18:21:08*
%MOMM*%
%LPD*%
G01*
G04 APERTURE LIST*
G04 #@! TA.AperFunction,ComponentPad*
%ADD10C,4.400000*%
G04 #@! TD*
G04 #@! TA.AperFunction,ComponentPad*
%ADD11O,3.500000X1.350000*%
G04 #@! TD*
G04 #@! TA.AperFunction,ComponentPad*
%ADD12O,2.500000X1.350000*%
G04 #@! TD*
G04 #@! TA.AperFunction,ComponentPad*
%ADD13O,1.600000X1.000000*%
G04 #@! TD*
G04 #@! TA.AperFunction,ComponentPad*
%ADD14O,2.100000X1.000000*%
G04 #@! TD*
G04 #@! TA.AperFunction,ViaPad*
%ADD15C,0.400000*%
G04 #@! TD*
G04 #@! TA.AperFunction,ViaPad*
%ADD16C,0.800000*%
G04 #@! TD*
G04 #@! TA.AperFunction,ViaPad*
%ADD17C,1.000000*%
G04 #@! TD*
G04 APERTURE END LIST*
D10*
X115000000Y-115000000D03*
X55000000Y-115000000D03*
X115000000Y-55000000D03*
X55000000Y-55000000D03*
D11*
X59560000Y-62000000D03*
D12*
X53560000Y-62000000D03*
D11*
X59560000Y-76500000D03*
D12*
X53560000Y-76500000D03*
D11*
X110450000Y-76500000D03*
D12*
X116450000Y-76500000D03*
D11*
X110450000Y-62000000D03*
D12*
X116450000Y-62000000D03*
D13*
X116900000Y-84930000D03*
D14*
X112720000Y-84930000D03*
D13*
X116900000Y-93570000D03*
D14*
X112720000Y-93570000D03*
D13*
X53100000Y-93570000D03*
D14*
X57280000Y-93570000D03*
D13*
X53100000Y-84930000D03*
D14*
X57280000Y-84930000D03*
D15*
X73380000Y-81570000D03*
X74480000Y-81510000D03*
X84960000Y-62100000D03*
X70100000Y-94250000D03*
X69590000Y-88400000D03*
X95890000Y-101140000D03*
X95890000Y-98820000D03*
X115720000Y-96180000D03*
X81980000Y-73961500D03*
X65530000Y-76380000D03*
X63620000Y-81800000D03*
X65240000Y-82760000D03*
X65160000Y-79240000D03*
X83220000Y-64159999D03*
X85020000Y-76930000D03*
X82740000Y-63759999D03*
X84650000Y-75700000D03*
X85570000Y-64880000D03*
X93900000Y-74200000D03*
X108540000Y-73270000D03*
X105890000Y-70740000D03*
X100350000Y-84170000D03*
X105060000Y-71240000D03*
X99700000Y-84170000D03*
X82330000Y-67720000D03*
X90740000Y-93060000D03*
X64440000Y-84120000D03*
X69205000Y-90575000D03*
X79980000Y-86620000D03*
X69856397Y-67760000D03*
X68190000Y-66730000D03*
X79340000Y-86660000D03*
X64530000Y-66250000D03*
X78630000Y-86660000D03*
X77950000Y-86700000D03*
X66120000Y-67360000D03*
X61830000Y-64740000D03*
X77320000Y-86700000D03*
X107980000Y-72240000D03*
X107120000Y-63800000D03*
X106500000Y-63820000D03*
X107380000Y-71750000D03*
X89750000Y-89420000D03*
X87380000Y-89450000D03*
X59330000Y-90140000D03*
X63680000Y-84250000D03*
X66880000Y-89890000D03*
X88500000Y-91550000D03*
X89310000Y-98630000D03*
X72830000Y-86900000D03*
X77380000Y-93250000D03*
X69640000Y-85180000D03*
X70850000Y-85180000D03*
X61050000Y-87040000D03*
X69560000Y-84380000D03*
X71440000Y-87850000D03*
X97570000Y-99490000D03*
X97580000Y-100480000D03*
X94280000Y-101560000D03*
X115330000Y-85920000D03*
X113060000Y-87500000D03*
X113010000Y-90480000D03*
X115030000Y-91710000D03*
X108060000Y-87220000D03*
X108210000Y-92880000D03*
X105540000Y-92880000D03*
X104750000Y-94810000D03*
X101780000Y-96320000D03*
X104120000Y-97920000D03*
X102840000Y-99330000D03*
X109830000Y-102000000D03*
X108610000Y-101980000D03*
X114530000Y-106460000D03*
X109200000Y-116620000D03*
X101830000Y-108320000D03*
X93090000Y-110580000D03*
X77000000Y-110670000D03*
X60880000Y-116660000D03*
X61650000Y-101990000D03*
X59990000Y-102020000D03*
X66560000Y-106500000D03*
X55560000Y-106500000D03*
X55280000Y-80840000D03*
X58720000Y-83220000D03*
D16*
X53810000Y-97950000D03*
D15*
X57910000Y-96470000D03*
X59180000Y-86840000D03*
X59780000Y-91650000D03*
X55630000Y-87710000D03*
X115000000Y-82140000D03*
X112240000Y-65260000D03*
X112240000Y-66740000D03*
X112240000Y-68250000D03*
X112240000Y-69760000D03*
X112220000Y-72740000D03*
X95680000Y-73770000D03*
X89600000Y-67700000D03*
X74630000Y-100670000D03*
X72375000Y-101970000D03*
X65750000Y-97160000D03*
X63260000Y-97380000D03*
X64810000Y-97100000D03*
X56810000Y-88980000D03*
X56810000Y-90010000D03*
X64150000Y-92756374D03*
X62410000Y-91016374D03*
X61270000Y-89053626D03*
X60410000Y-93486374D03*
X88350000Y-94940000D03*
X87550000Y-96980000D03*
X86290000Y-96980000D03*
X85040000Y-97000000D03*
X84250000Y-94940000D03*
X87560000Y-92930000D03*
X86310000Y-92930000D03*
X85050000Y-92930000D03*
X71010000Y-83420000D03*
D17*
X68700000Y-78850000D03*
D15*
X63560000Y-77570000D03*
X63560000Y-80200000D03*
X78390000Y-72850000D03*
X82700000Y-75691500D03*
X86250000Y-75735001D03*
X87270000Y-75735001D03*
X88270000Y-75745001D03*
X80160000Y-73610000D03*
X89140000Y-74065001D03*
X80060000Y-63789999D03*
X81930000Y-62049999D03*
X80900000Y-62029999D03*
X86020000Y-61460000D03*
X83960000Y-62079999D03*
X83749999Y-66310000D03*
X85750000Y-66350000D03*
X85249999Y-71360000D03*
X82540000Y-68960000D03*
X87440000Y-68970000D03*
X84750000Y-66240000D03*
X87780000Y-62096501D03*
X88780000Y-62106501D03*
X89490000Y-63796501D03*
X88860000Y-57560000D03*
X88880000Y-60220000D03*
X92280000Y-59390000D03*
X87930000Y-60210000D03*
X87900000Y-57560000D03*
X88920000Y-56510000D03*
X86960000Y-55800000D03*
X92290000Y-54790000D03*
X88910000Y-53950000D03*
X86930000Y-54850000D03*
X56730000Y-65240000D03*
X57920000Y-73250000D03*
X57920000Y-71760000D03*
X57900000Y-70250000D03*
X57890000Y-68740000D03*
X57910000Y-65740000D03*
G04 #@! TA.AperFunction,Conductor*
G36*
X119442539Y-50520185D02*
G01*
X119488294Y-50572989D01*
X119499500Y-50624500D01*
X119499500Y-119375500D01*
X119479815Y-119442539D01*
X119427011Y-119488294D01*
X119375500Y-119499500D01*
X50624500Y-119499500D01*
X50557461Y-119479815D01*
X50511706Y-119427011D01*
X50500500Y-119375500D01*
X50500500Y-117706631D01*
X58073499Y-117706631D01*
X58099496Y-117837322D01*
X58099498Y-117837328D01*
X58150492Y-117960440D01*
X58150497Y-117960449D01*
X58224527Y-118071242D01*
X58224530Y-118071246D01*
X58318753Y-118165469D01*
X58318757Y-118165472D01*
X58429550Y-118239502D01*
X58429556Y-118239505D01*
X58429557Y-118239506D01*
X58552672Y-118290502D01*
X58552676Y-118290502D01*
X58552677Y-118290503D01*
X58683368Y-118316500D01*
X58683371Y-118316500D01*
X58816631Y-118316500D01*
X58904557Y-118299009D01*
X58947328Y-118290502D01*
X59070443Y-118239506D01*
X59181243Y-118165472D01*
X59275472Y-118071243D01*
X59349506Y-117960443D01*
X59400502Y-117837328D01*
X59426500Y-117706629D01*
X59426500Y-117573371D01*
X59426500Y-117573368D01*
X59400503Y-117442677D01*
X59400502Y-117442676D01*
X59400502Y-117442672D01*
X59349506Y-117319557D01*
X59349505Y-117319556D01*
X59349502Y-117319550D01*
X59275472Y-117208757D01*
X59275469Y-117208753D01*
X59181246Y-117114530D01*
X59181242Y-117114527D01*
X59070449Y-117040497D01*
X59070440Y-117040492D01*
X58947328Y-116989498D01*
X58947322Y-116989496D01*
X58816631Y-116963500D01*
X58816629Y-116963500D01*
X58683371Y-116963500D01*
X58683369Y-116963500D01*
X58552677Y-116989496D01*
X58552671Y-116989498D01*
X58429559Y-117040492D01*
X58429550Y-117040497D01*
X58318757Y-117114527D01*
X58318753Y-117114530D01*
X58224530Y-117208753D01*
X58224527Y-117208757D01*
X58150497Y-117319550D01*
X58150492Y-117319559D01*
X58099498Y-117442671D01*
X58099496Y-117442677D01*
X58073500Y-117573368D01*
X58073500Y-117573371D01*
X58073500Y-117706629D01*
X58073500Y-117706631D01*
X58073499Y-117706631D01*
X50500500Y-117706631D01*
X50500500Y-115000000D01*
X52295065Y-115000000D01*
X52314786Y-115326038D01*
X52373667Y-115647341D01*
X52470835Y-115959164D01*
X52470839Y-115959175D01*
X52604897Y-116257041D01*
X52604898Y-116257043D01*
X52773881Y-116536576D01*
X52921476Y-116724968D01*
X54063708Y-115582736D01*
X54160967Y-115716602D01*
X54283398Y-115839033D01*
X54417262Y-115936290D01*
X53275030Y-117078522D01*
X53275030Y-117078523D01*
X53463423Y-117226118D01*
X53742956Y-117395101D01*
X53742958Y-117395102D01*
X54040824Y-117529160D01*
X54040835Y-117529164D01*
X54352658Y-117626332D01*
X54673961Y-117685213D01*
X55000000Y-117704934D01*
X55326038Y-117685213D01*
X55647341Y-117626332D01*
X55959164Y-117529164D01*
X55959175Y-117529160D01*
X56257041Y-117395102D01*
X56257043Y-117395101D01*
X56536586Y-117226112D01*
X56724968Y-117078523D01*
X56724968Y-117078522D01*
X55582737Y-115936290D01*
X55716602Y-115839033D01*
X55839033Y-115716602D01*
X55936290Y-115582737D01*
X57078522Y-116724968D01*
X57078523Y-116724968D01*
X57226112Y-116536586D01*
X57395101Y-116257043D01*
X57395102Y-116257041D01*
X57529160Y-115959175D01*
X57529164Y-115959164D01*
X57626332Y-115647341D01*
X57685213Y-115326038D01*
X57704934Y-115000000D01*
X112295065Y-115000000D01*
X112314786Y-115326038D01*
X112373667Y-115647341D01*
X112470835Y-115959164D01*
X112470839Y-115959175D01*
X112604897Y-116257041D01*
X112604898Y-116257043D01*
X112773881Y-116536576D01*
X112921476Y-116724968D01*
X114063708Y-115582736D01*
X114160967Y-115716602D01*
X114283398Y-115839033D01*
X114417262Y-115936290D01*
X113275030Y-117078522D01*
X113275030Y-117078523D01*
X113463423Y-117226118D01*
X113742956Y-117395101D01*
X113742958Y-117395102D01*
X114040824Y-117529160D01*
X114040835Y-117529164D01*
X114352658Y-117626332D01*
X114673961Y-117685213D01*
X115000000Y-117704934D01*
X115326038Y-117685213D01*
X115647341Y-117626332D01*
X115959164Y-117529164D01*
X115959175Y-117529160D01*
X116257041Y-117395102D01*
X116257043Y-117395101D01*
X116536586Y-117226112D01*
X116724968Y-117078523D01*
X116724968Y-117078522D01*
X115582737Y-115936290D01*
X115716602Y-115839033D01*
X115839033Y-115716602D01*
X115936290Y-115582737D01*
X117078522Y-116724968D01*
X117078523Y-116724968D01*
X117226112Y-116536586D01*
X117395101Y-116257043D01*
X117395102Y-116257041D01*
X117529160Y-115959175D01*
X117529164Y-115959164D01*
X117626332Y-115647341D01*
X117685213Y-115326038D01*
X117704934Y-115000000D01*
X117685213Y-114673961D01*
X117626332Y-114352658D01*
X117529164Y-114040835D01*
X117529160Y-114040824D01*
X117395102Y-113742958D01*
X117395101Y-113742956D01*
X117226118Y-113463423D01*
X117078522Y-113275030D01*
X115936290Y-114417261D01*
X115839033Y-114283398D01*
X115716602Y-114160967D01*
X115582736Y-114063709D01*
X116724968Y-112921476D01*
X116536576Y-112773881D01*
X116257043Y-112604898D01*
X116257041Y-112604897D01*
X115959175Y-112470839D01*
X115959164Y-112470835D01*
X115647341Y-112373667D01*
X115326038Y-112314786D01*
X115000000Y-112295065D01*
X114673961Y-112314786D01*
X114352658Y-112373667D01*
X114040835Y-112470835D01*
X114040824Y-112470839D01*
X113742958Y-112604897D01*
X113742956Y-112604898D01*
X113463422Y-112773881D01*
X113463416Y-112773886D01*
X113275030Y-112921474D01*
X113275029Y-112921476D01*
X114417262Y-114063709D01*
X114283398Y-114160967D01*
X114160967Y-114283398D01*
X114063709Y-114417262D01*
X112921476Y-113275029D01*
X112921474Y-113275030D01*
X112773886Y-113463416D01*
X112773881Y-113463422D01*
X112604898Y-113742956D01*
X112604897Y-113742958D01*
X112470839Y-114040824D01*
X112470835Y-114040835D01*
X112373667Y-114352658D01*
X112314786Y-114673961D01*
X112295065Y-115000000D01*
X57704934Y-115000000D01*
X57685213Y-114673961D01*
X57626332Y-114352658D01*
X57529164Y-114040835D01*
X57529160Y-114040824D01*
X57395102Y-113742958D01*
X57395101Y-113742956D01*
X57226118Y-113463423D01*
X57078522Y-113275030D01*
X55936290Y-114417262D01*
X55839033Y-114283398D01*
X55716602Y-114160967D01*
X55582736Y-114063709D01*
X56724968Y-112921476D01*
X56536576Y-112773881D01*
X56257043Y-112604898D01*
X56257041Y-112604897D01*
X55959175Y-112470839D01*
X55959164Y-112470835D01*
X55647341Y-112373667D01*
X55326038Y-112314786D01*
X55000000Y-112295065D01*
X54673961Y-112314786D01*
X54352658Y-112373667D01*
X54040835Y-112470835D01*
X54040824Y-112470839D01*
X53742958Y-112604897D01*
X53742956Y-112604898D01*
X53463422Y-112773881D01*
X53463416Y-112773886D01*
X53275030Y-112921474D01*
X53275029Y-112921476D01*
X54417262Y-114063709D01*
X54283398Y-114160967D01*
X54160967Y-114283398D01*
X54063709Y-114417262D01*
X52921476Y-113275029D01*
X52921474Y-113275030D01*
X52773886Y-113463416D01*
X52773881Y-113463422D01*
X52604898Y-113742956D01*
X52604897Y-113742958D01*
X52470839Y-114040824D01*
X52470835Y-114040835D01*
X52373667Y-114352658D01*
X52314786Y-114673961D01*
X52295065Y-115000000D01*
X50500500Y-115000000D01*
X50500500Y-110670000D01*
X76294355Y-110670000D01*
X76314859Y-110838869D01*
X76314860Y-110838874D01*
X76375182Y-110997931D01*
X76409694Y-111047929D01*
X76471817Y-111137929D01*
X76577505Y-111231560D01*
X76599150Y-111250736D01*
X76749773Y-111329789D01*
X76749775Y-111329790D01*
X76914944Y-111370500D01*
X77085056Y-111370500D01*
X77250225Y-111329790D01*
X77344138Y-111280500D01*
X77400849Y-111250736D01*
X77400850Y-111250734D01*
X77400852Y-111250734D01*
X77528183Y-111137929D01*
X77624818Y-110997930D01*
X77685140Y-110838872D01*
X77705645Y-110670000D01*
X77694717Y-110580000D01*
X92384355Y-110580000D01*
X92404859Y-110748869D01*
X92404860Y-110748874D01*
X92465182Y-110907931D01*
X92527305Y-110997930D01*
X92561817Y-111047929D01*
X92663404Y-111137927D01*
X92689150Y-111160736D01*
X92839773Y-111239789D01*
X92839775Y-111239790D01*
X93004944Y-111280500D01*
X93175056Y-111280500D01*
X93340225Y-111239790D01*
X93419692Y-111198081D01*
X93490849Y-111160736D01*
X93490850Y-111160734D01*
X93490852Y-111160734D01*
X93618183Y-111047929D01*
X93714818Y-110907930D01*
X93775140Y-110748872D01*
X93795645Y-110580000D01*
X93775140Y-110411128D01*
X93714818Y-110252070D01*
X93618183Y-110112071D01*
X93523316Y-110028026D01*
X93490849Y-109999263D01*
X93340226Y-109920210D01*
X93175056Y-109879500D01*
X93004944Y-109879500D01*
X92839773Y-109920210D01*
X92689150Y-109999263D01*
X92561816Y-110112072D01*
X92465182Y-110252068D01*
X92404860Y-110411125D01*
X92404859Y-110411130D01*
X92384355Y-110580000D01*
X77694717Y-110580000D01*
X77685140Y-110501128D01*
X77624818Y-110342070D01*
X77528183Y-110202071D01*
X77400852Y-110089266D01*
X77400849Y-110089263D01*
X77250226Y-110010210D01*
X77085056Y-109969500D01*
X76914944Y-109969500D01*
X76749773Y-110010210D01*
X76599150Y-110089263D01*
X76471816Y-110202072D01*
X76375182Y-110342068D01*
X76314860Y-110501125D01*
X76314859Y-110501130D01*
X76294355Y-110670000D01*
X50500500Y-110670000D01*
X50500500Y-108160000D01*
X75800000Y-108160000D01*
X93800000Y-108160000D01*
X93800000Y-102160000D01*
X75800000Y-102160000D01*
X75800000Y-108160000D01*
X50500500Y-108160000D01*
X50500500Y-102020000D01*
X59284355Y-102020000D01*
X59304859Y-102188869D01*
X59304860Y-102188874D01*
X59365182Y-102347931D01*
X59420456Y-102428008D01*
X59461817Y-102487929D01*
X59555285Y-102570734D01*
X59589150Y-102600736D01*
X59739773Y-102679789D01*
X59739775Y-102679790D01*
X59904944Y-102720500D01*
X60075056Y-102720500D01*
X60240225Y-102679790D01*
X60319692Y-102638081D01*
X60390849Y-102600736D01*
X60390850Y-102600734D01*
X60390852Y-102600734D01*
X60518183Y-102487929D01*
X60614818Y-102347930D01*
X60675140Y-102188872D01*
X60695645Y-102020000D01*
X60692002Y-101990000D01*
X60944355Y-101990000D01*
X60964859Y-102158869D01*
X60964860Y-102158874D01*
X61025182Y-102317931D01*
X61045890Y-102347931D01*
X61121817Y-102457929D01*
X61227505Y-102551560D01*
X61249150Y-102570736D01*
X61399773Y-102649789D01*
X61399775Y-102649790D01*
X61564944Y-102690500D01*
X61735056Y-102690500D01*
X61900225Y-102649790D01*
X61993689Y-102600736D01*
X62050849Y-102570736D01*
X62050850Y-102570734D01*
X62050852Y-102570734D01*
X62178183Y-102457929D01*
X62274818Y-102317930D01*
X62335140Y-102158872D01*
X62355645Y-101990000D01*
X62354431Y-101980000D01*
X107904355Y-101980000D01*
X107924859Y-102148869D01*
X107924860Y-102148874D01*
X107985182Y-102307931D01*
X108006902Y-102339397D01*
X108081817Y-102447929D01*
X108187505Y-102541560D01*
X108209150Y-102560736D01*
X108359773Y-102639789D01*
X108359775Y-102639790D01*
X108524944Y-102680500D01*
X108695056Y-102680500D01*
X108860225Y-102639790D01*
X109010852Y-102560734D01*
X109127122Y-102457728D01*
X109190351Y-102428008D01*
X109259615Y-102437191D01*
X109295663Y-102463563D01*
X109296203Y-102462955D01*
X109301816Y-102467927D01*
X109301817Y-102467929D01*
X109384330Y-102541029D01*
X109429150Y-102580736D01*
X109579773Y-102659789D01*
X109579775Y-102659790D01*
X109744944Y-102700500D01*
X109915056Y-102700500D01*
X110080225Y-102659790D01*
X110192746Y-102600734D01*
X110230849Y-102580736D01*
X110230850Y-102580734D01*
X110230852Y-102580734D01*
X110358183Y-102467929D01*
X110454818Y-102327930D01*
X110515140Y-102168872D01*
X110535645Y-102000000D01*
X110515140Y-101831128D01*
X110511346Y-101821125D01*
X110473274Y-101720736D01*
X110454818Y-101672070D01*
X110447915Y-101662070D01*
X110410543Y-101607927D01*
X110358183Y-101532071D01*
X110263316Y-101448026D01*
X110230849Y-101419263D01*
X110080226Y-101340210D01*
X109915056Y-101299500D01*
X109744944Y-101299500D01*
X109579773Y-101340210D01*
X109429150Y-101419264D01*
X109312880Y-101522270D01*
X109249647Y-101551991D01*
X109180383Y-101542807D01*
X109144336Y-101516436D01*
X109143797Y-101517045D01*
X109010849Y-101399263D01*
X108860226Y-101320210D01*
X108695056Y-101279500D01*
X108524944Y-101279500D01*
X108359773Y-101320210D01*
X108209150Y-101399263D01*
X108081816Y-101512072D01*
X107985182Y-101652068D01*
X107924860Y-101811125D01*
X107924859Y-101811130D01*
X107904355Y-101980000D01*
X62354431Y-101980000D01*
X62335140Y-101821128D01*
X62331346Y-101811125D01*
X62286195Y-101692070D01*
X62274818Y-101662070D01*
X62267915Y-101652070D01*
X62237447Y-101607929D01*
X62178183Y-101522071D01*
X62062140Y-101419266D01*
X62050849Y-101409263D01*
X61900226Y-101330210D01*
X61735056Y-101289500D01*
X61564944Y-101289500D01*
X61399773Y-101330210D01*
X61249150Y-101409263D01*
X61121816Y-101522072D01*
X61025182Y-101662068D01*
X60964860Y-101821125D01*
X60964859Y-101821130D01*
X60944355Y-101990000D01*
X60692002Y-101990000D01*
X60675140Y-101851128D01*
X60614818Y-101692070D01*
X60594110Y-101662070D01*
X60556738Y-101607927D01*
X60518183Y-101552071D01*
X60390852Y-101439266D01*
X60390849Y-101439263D01*
X60240226Y-101360210D01*
X60075056Y-101319500D01*
X59904944Y-101319500D01*
X59739773Y-101360210D01*
X59589150Y-101439263D01*
X59461816Y-101552072D01*
X59365182Y-101692068D01*
X59304860Y-101851125D01*
X59304859Y-101851130D01*
X59284355Y-102020000D01*
X50500500Y-102020000D01*
X50500500Y-101140000D01*
X95184355Y-101140000D01*
X95204859Y-101308869D01*
X95204860Y-101308874D01*
X95265182Y-101467931D01*
X95323261Y-101552071D01*
X95361817Y-101607929D01*
X95456791Y-101692068D01*
X95489150Y-101720736D01*
X95639773Y-101799789D01*
X95639775Y-101799790D01*
X95804944Y-101840500D01*
X95975056Y-101840500D01*
X96140225Y-101799790D01*
X96219692Y-101758081D01*
X96290849Y-101720736D01*
X96290850Y-101720734D01*
X96290852Y-101720734D01*
X96418183Y-101607929D01*
X96514818Y-101467930D01*
X96575140Y-101308872D01*
X96595645Y-101140000D01*
X96575140Y-100971128D01*
X96514818Y-100812070D01*
X96418183Y-100672071D01*
X96290852Y-100559266D01*
X96290849Y-100559263D01*
X96140226Y-100480210D01*
X95975056Y-100439500D01*
X95804944Y-100439500D01*
X95639773Y-100480210D01*
X95489150Y-100559263D01*
X95361816Y-100672072D01*
X95265182Y-100812068D01*
X95204860Y-100971125D01*
X95204859Y-100971130D01*
X95184355Y-101140000D01*
X50500500Y-101140000D01*
X50500500Y-98630000D01*
X88604355Y-98630000D01*
X88624859Y-98798869D01*
X88624860Y-98798874D01*
X88685182Y-98957931D01*
X88747475Y-99048177D01*
X88781817Y-99097929D01*
X88887505Y-99191560D01*
X88909150Y-99210736D01*
X89056225Y-99287927D01*
X89059775Y-99289790D01*
X89224944Y-99330500D01*
X89395056Y-99330500D01*
X89560225Y-99289790D01*
X89639692Y-99248081D01*
X89710849Y-99210736D01*
X89710850Y-99210734D01*
X89710852Y-99210734D01*
X89838183Y-99097929D01*
X89934818Y-98957930D01*
X89987127Y-98820000D01*
X95184355Y-98820000D01*
X95204859Y-98988869D01*
X95204860Y-98988874D01*
X95265182Y-99147931D01*
X95274293Y-99161130D01*
X95361817Y-99287929D01*
X95467505Y-99381560D01*
X95489150Y-99400736D01*
X95639773Y-99479789D01*
X95639775Y-99479790D01*
X95804944Y-99520500D01*
X95975056Y-99520500D01*
X96140225Y-99479790D01*
X96219692Y-99438081D01*
X96290849Y-99400736D01*
X96290850Y-99400734D01*
X96290852Y-99400734D01*
X96370694Y-99330000D01*
X102134355Y-99330000D01*
X102154859Y-99498869D01*
X102154860Y-99498874D01*
X102215182Y-99657931D01*
X102277475Y-99748177D01*
X102311817Y-99797929D01*
X102417505Y-99891560D01*
X102439150Y-99910736D01*
X102589773Y-99989789D01*
X102589775Y-99989790D01*
X102754944Y-100030500D01*
X102925056Y-100030500D01*
X103090225Y-99989790D01*
X103169692Y-99948081D01*
X103240849Y-99910736D01*
X103240850Y-99910734D01*
X103240852Y-99910734D01*
X103368183Y-99797929D01*
X103464818Y-99657930D01*
X103525140Y-99498872D01*
X103545645Y-99330000D01*
X103525140Y-99161128D01*
X103464818Y-99002070D01*
X103455709Y-98988874D01*
X103430476Y-98952318D01*
X103368183Y-98862071D01*
X103240852Y-98749266D01*
X103240849Y-98749263D01*
X103090226Y-98670210D01*
X102925056Y-98629500D01*
X102754944Y-98629500D01*
X102589773Y-98670210D01*
X102439150Y-98749263D01*
X102311816Y-98862072D01*
X102215182Y-99002068D01*
X102154860Y-99161125D01*
X102154859Y-99161130D01*
X102134355Y-99330000D01*
X96370694Y-99330000D01*
X96418183Y-99287929D01*
X96514818Y-99147930D01*
X96575140Y-98988872D01*
X96595645Y-98820000D01*
X96575140Y-98651128D01*
X96514818Y-98492070D01*
X96418183Y-98352071D01*
X96290852Y-98239266D01*
X96290849Y-98239263D01*
X96140226Y-98160210D01*
X95975056Y-98119500D01*
X95804944Y-98119500D01*
X95639773Y-98160210D01*
X95489150Y-98239263D01*
X95361816Y-98352072D01*
X95265182Y-98492068D01*
X95204860Y-98651125D01*
X95204859Y-98651130D01*
X95184355Y-98820000D01*
X89987127Y-98820000D01*
X89995140Y-98798872D01*
X90015645Y-98630000D01*
X89995140Y-98461128D01*
X89934818Y-98302070D01*
X89838183Y-98162071D01*
X89710852Y-98049266D01*
X89710849Y-98049263D01*
X89560226Y-97970210D01*
X89395056Y-97929500D01*
X89224944Y-97929500D01*
X89059773Y-97970210D01*
X88909150Y-98049263D01*
X88781816Y-98162072D01*
X88685182Y-98302068D01*
X88624860Y-98461125D01*
X88624859Y-98461130D01*
X88604355Y-98630000D01*
X50500500Y-98630000D01*
X50500500Y-97380000D01*
X62554355Y-97380000D01*
X62574859Y-97548869D01*
X62574860Y-97548874D01*
X62635182Y-97707931D01*
X62697475Y-97798177D01*
X62731817Y-97847929D01*
X62823892Y-97929500D01*
X62859150Y-97960736D01*
X63009773Y-98039789D01*
X63009775Y-98039790D01*
X63174944Y-98080500D01*
X63345056Y-98080500D01*
X63510225Y-98039790D01*
X63589692Y-97998081D01*
X63660849Y-97960736D01*
X63660850Y-97960734D01*
X63660852Y-97960734D01*
X63788183Y-97847929D01*
X63884818Y-97707930D01*
X63945140Y-97548872D01*
X63954200Y-97474250D01*
X63981821Y-97410073D01*
X64039755Y-97371016D01*
X64109608Y-97369481D01*
X64169202Y-97405954D01*
X64180461Y-97422074D01*
X64180921Y-97421757D01*
X64185182Y-97427930D01*
X64281817Y-97567929D01*
X64387505Y-97661560D01*
X64409150Y-97680736D01*
X64559773Y-97759789D01*
X64559775Y-97759790D01*
X64724944Y-97800500D01*
X64895056Y-97800500D01*
X65060225Y-97759790D01*
X65159035Y-97707930D01*
X65210849Y-97680736D01*
X65210850Y-97680734D01*
X65210852Y-97680734D01*
X65338183Y-97567929D01*
X65434818Y-97427930D01*
X65495140Y-97268872D01*
X65515645Y-97100000D01*
X65495140Y-96931128D01*
X65434818Y-96772070D01*
X65338183Y-96632071D01*
X65210852Y-96519266D01*
X65210849Y-96519263D01*
X65060226Y-96440210D01*
X64895056Y-96399500D01*
X64724944Y-96399500D01*
X64559773Y-96440210D01*
X64409150Y-96519263D01*
X64281816Y-96632072D01*
X64185182Y-96772068D01*
X64124860Y-96931125D01*
X64124859Y-96931131D01*
X64115799Y-97005749D01*
X64088177Y-97069927D01*
X64030242Y-97108983D01*
X63960390Y-97110518D01*
X63900796Y-97074043D01*
X63889539Y-97057925D01*
X63889079Y-97058243D01*
X63881468Y-97047217D01*
X63788183Y-96912071D01*
X63660852Y-96799266D01*
X63660849Y-96799263D01*
X63510226Y-96720210D01*
X63345056Y-96679500D01*
X63174944Y-96679500D01*
X63009773Y-96720210D01*
X62859150Y-96799263D01*
X62731816Y-96912072D01*
X62635182Y-97052068D01*
X62574860Y-97211125D01*
X62574859Y-97211130D01*
X62554355Y-97380000D01*
X50500500Y-97380000D01*
X50500500Y-93320000D01*
X51830138Y-93320000D01*
X52633012Y-93320000D01*
X52615795Y-93329940D01*
X52559940Y-93385795D01*
X52520444Y-93454204D01*
X52500000Y-93530504D01*
X52500000Y-93609496D01*
X52520444Y-93685796D01*
X52559940Y-93754205D01*
X52615795Y-93810060D01*
X52633012Y-93820000D01*
X51830138Y-93820000D01*
X51838430Y-93861690D01*
X51838430Y-93861692D01*
X51913807Y-94043671D01*
X51913814Y-94043684D01*
X52023248Y-94207462D01*
X52023251Y-94207466D01*
X52162533Y-94346748D01*
X52162537Y-94346751D01*
X52326315Y-94456185D01*
X52326328Y-94456192D01*
X52508306Y-94531569D01*
X52508318Y-94531572D01*
X52701504Y-94569999D01*
X52701508Y-94570000D01*
X52850000Y-94570000D01*
X52850000Y-93870000D01*
X53350000Y-93870000D01*
X53350000Y-94570000D01*
X53498492Y-94570000D01*
X53498495Y-94569999D01*
X53691681Y-94531572D01*
X53691693Y-94531569D01*
X53873671Y-94456192D01*
X53873684Y-94456185D01*
X54037462Y-94346751D01*
X54037466Y-94346748D01*
X54176748Y-94207466D01*
X54176751Y-94207462D01*
X54286185Y-94043684D01*
X54286192Y-94043671D01*
X54361569Y-93861692D01*
X54361569Y-93861690D01*
X54369862Y-93820000D01*
X53566988Y-93820000D01*
X53584205Y-93810060D01*
X53640060Y-93754205D01*
X53679556Y-93685796D01*
X53700000Y-93609496D01*
X53700000Y-93530504D01*
X53679556Y-93454204D01*
X53640060Y-93385795D01*
X53584205Y-93329940D01*
X53566988Y-93320000D01*
X54369862Y-93320000D01*
X55760138Y-93320000D01*
X56563012Y-93320000D01*
X56545795Y-93329940D01*
X56489940Y-93385795D01*
X56450444Y-93454204D01*
X56430000Y-93530504D01*
X56430000Y-93609496D01*
X56450444Y-93685796D01*
X56489940Y-93754205D01*
X56545795Y-93810060D01*
X56563012Y-93820000D01*
X55760138Y-93820000D01*
X55768430Y-93861690D01*
X55768430Y-93861692D01*
X55843807Y-94043671D01*
X55843814Y-94043684D01*
X55953248Y-94207462D01*
X55953251Y-94207466D01*
X56092533Y-94346748D01*
X56092537Y-94346751D01*
X56256315Y-94456185D01*
X56256328Y-94456192D01*
X56438306Y-94531569D01*
X56438318Y-94531572D01*
X56631504Y-94569999D01*
X56631508Y-94570000D01*
X57030000Y-94570000D01*
X57030000Y-93870000D01*
X57530000Y-93870000D01*
X57530000Y-94570000D01*
X57928492Y-94570000D01*
X57928495Y-94569999D01*
X58121681Y-94531572D01*
X58121693Y-94531569D01*
X58303671Y-94456192D01*
X58303684Y-94456185D01*
X58467462Y-94346751D01*
X58467466Y-94346748D01*
X58564214Y-94250000D01*
X69394355Y-94250000D01*
X69414859Y-94418869D01*
X69414860Y-94418874D01*
X69475182Y-94577931D01*
X69518805Y-94641128D01*
X69571817Y-94717929D01*
X69675744Y-94810000D01*
X69699150Y-94830736D01*
X69849773Y-94909789D01*
X69849775Y-94909790D01*
X70014944Y-94950500D01*
X70185056Y-94950500D01*
X70350225Y-94909790D01*
X70429692Y-94868081D01*
X70500849Y-94830736D01*
X70500850Y-94830734D01*
X70500852Y-94830734D01*
X70524256Y-94810000D01*
X104044355Y-94810000D01*
X104064859Y-94978869D01*
X104064860Y-94978874D01*
X104125182Y-95137931D01*
X104187475Y-95228177D01*
X104221817Y-95277929D01*
X104327505Y-95371560D01*
X104349150Y-95390736D01*
X104499773Y-95469789D01*
X104499775Y-95469790D01*
X104664944Y-95510500D01*
X104835056Y-95510500D01*
X105000225Y-95469790D01*
X105079692Y-95428081D01*
X105150849Y-95390736D01*
X105150850Y-95390734D01*
X105150852Y-95390734D01*
X105278183Y-95277929D01*
X105374818Y-95137930D01*
X105435140Y-94978872D01*
X105455645Y-94810000D01*
X105435140Y-94641128D01*
X105374818Y-94482070D01*
X105278183Y-94342071D01*
X105150852Y-94229266D01*
X105150849Y-94229263D01*
X105000226Y-94150210D01*
X104835056Y-94109500D01*
X104664944Y-94109500D01*
X104499773Y-94150210D01*
X104349150Y-94229263D01*
X104221816Y-94342072D01*
X104125182Y-94482068D01*
X104064860Y-94641125D01*
X104064859Y-94641130D01*
X104044355Y-94810000D01*
X70524256Y-94810000D01*
X70628183Y-94717929D01*
X70724818Y-94577930D01*
X70785140Y-94418872D01*
X70805645Y-94250000D01*
X70785140Y-94081128D01*
X70724818Y-93922070D01*
X70628183Y-93782071D01*
X70500852Y-93669266D01*
X70500849Y-93669263D01*
X70350226Y-93590210D01*
X70185056Y-93549500D01*
X70014944Y-93549500D01*
X69849773Y-93590210D01*
X69699150Y-93669263D01*
X69571816Y-93782072D01*
X69475182Y-93922068D01*
X69414860Y-94081125D01*
X69414859Y-94081130D01*
X69394355Y-94250000D01*
X58564214Y-94250000D01*
X58606748Y-94207466D01*
X58606751Y-94207462D01*
X58716185Y-94043684D01*
X58716192Y-94043671D01*
X58791569Y-93861692D01*
X58791569Y-93861690D01*
X58799862Y-93820000D01*
X57996988Y-93820000D01*
X58014205Y-93810060D01*
X58070060Y-93754205D01*
X58109556Y-93685796D01*
X58130000Y-93609496D01*
X58130000Y-93530504D01*
X58109556Y-93454204D01*
X58070060Y-93385795D01*
X58014205Y-93329940D01*
X57996988Y-93320000D01*
X58799862Y-93320000D01*
X58791569Y-93278309D01*
X58791569Y-93278307D01*
X58779844Y-93250000D01*
X76674355Y-93250000D01*
X76694859Y-93418869D01*
X76694860Y-93418874D01*
X76755182Y-93577931D01*
X76798533Y-93640734D01*
X76851817Y-93717929D01*
X76924219Y-93782071D01*
X76979150Y-93830736D01*
X77129773Y-93909789D01*
X77129775Y-93909790D01*
X77294944Y-93950500D01*
X77465056Y-93950500D01*
X77630225Y-93909790D01*
X77744990Y-93849556D01*
X77780849Y-93830736D01*
X77780850Y-93830734D01*
X77780852Y-93830734D01*
X77908183Y-93717929D01*
X78004818Y-93577930D01*
X78065140Y-93418872D01*
X78085645Y-93250000D01*
X78065140Y-93081128D01*
X78057127Y-93060000D01*
X90034355Y-93060000D01*
X90054859Y-93228869D01*
X90054860Y-93228874D01*
X90115182Y-93387931D01*
X90136541Y-93418874D01*
X90211817Y-93527929D01*
X90317505Y-93621560D01*
X90339150Y-93640736D01*
X90486225Y-93717927D01*
X90489775Y-93719790D01*
X90654944Y-93760500D01*
X90825056Y-93760500D01*
X90990225Y-93719790D01*
X91069692Y-93678081D01*
X91140849Y-93640736D01*
X91140850Y-93640734D01*
X91140852Y-93640734D01*
X91268183Y-93527929D01*
X91364818Y-93387930D01*
X91425140Y-93228872D01*
X91445645Y-93060000D01*
X91425140Y-92891128D01*
X91420920Y-92880000D01*
X104834355Y-92880000D01*
X104854859Y-93048869D01*
X104854860Y-93048874D01*
X104915182Y-93207931D01*
X104944221Y-93250000D01*
X105011817Y-93347929D01*
X105091898Y-93418874D01*
X105139150Y-93460736D01*
X105267172Y-93527927D01*
X105289775Y-93539790D01*
X105454944Y-93580500D01*
X105625056Y-93580500D01*
X105790225Y-93539790D01*
X105869692Y-93498081D01*
X105940849Y-93460736D01*
X105940850Y-93460734D01*
X105940852Y-93460734D01*
X106068183Y-93347929D01*
X106087461Y-93320000D01*
X111200138Y-93320000D01*
X112003012Y-93320000D01*
X111985795Y-93329940D01*
X111929940Y-93385795D01*
X111890444Y-93454204D01*
X111870000Y-93530504D01*
X111870000Y-93609496D01*
X111890444Y-93685796D01*
X111929940Y-93754205D01*
X111985795Y-93810060D01*
X112003012Y-93820000D01*
X111200138Y-93820000D01*
X111208430Y-93861690D01*
X111208430Y-93861692D01*
X111283807Y-94043671D01*
X111283814Y-94043684D01*
X111393248Y-94207462D01*
X111393251Y-94207466D01*
X111532533Y-94346748D01*
X111532537Y-94346751D01*
X111696315Y-94456185D01*
X111696328Y-94456192D01*
X111878306Y-94531569D01*
X111878318Y-94531572D01*
X112071504Y-94569999D01*
X112071508Y-94570000D01*
X112470000Y-94570000D01*
X112470000Y-93870000D01*
X112970000Y-93870000D01*
X112970000Y-94570000D01*
X113368492Y-94570000D01*
X113368495Y-94569999D01*
X113561681Y-94531572D01*
X113561693Y-94531569D01*
X113743671Y-94456192D01*
X113743684Y-94456185D01*
X113907462Y-94346751D01*
X113907466Y-94346748D01*
X114046748Y-94207466D01*
X114046751Y-94207462D01*
X114156185Y-94043684D01*
X114156192Y-94043671D01*
X114231569Y-93861692D01*
X114231569Y-93861690D01*
X114239862Y-93820000D01*
X113436988Y-93820000D01*
X113454205Y-93810060D01*
X113510060Y-93754205D01*
X113549556Y-93685796D01*
X113570000Y-93609496D01*
X113570000Y-93530504D01*
X113549556Y-93454204D01*
X113510060Y-93385795D01*
X113454205Y-93329940D01*
X113436988Y-93320000D01*
X114239862Y-93320000D01*
X115630138Y-93320000D01*
X116433012Y-93320000D01*
X116415795Y-93329940D01*
X116359940Y-93385795D01*
X116320444Y-93454204D01*
X116300000Y-93530504D01*
X116300000Y-93609496D01*
X116320444Y-93685796D01*
X116359940Y-93754205D01*
X116415795Y-93810060D01*
X116433012Y-93820000D01*
X115630138Y-93820000D01*
X115638430Y-93861690D01*
X115638430Y-93861692D01*
X115713807Y-94043671D01*
X115713814Y-94043684D01*
X115823248Y-94207462D01*
X115823251Y-94207466D01*
X115962533Y-94346748D01*
X115962537Y-94346751D01*
X116126315Y-94456185D01*
X116126328Y-94456192D01*
X116308306Y-94531569D01*
X116308318Y-94531572D01*
X116501504Y-94569999D01*
X116501508Y-94570000D01*
X116650000Y-94570000D01*
X116650000Y-93870000D01*
X117150000Y-93870000D01*
X117150000Y-94570000D01*
X117298492Y-94570000D01*
X117298495Y-94569999D01*
X117491681Y-94531572D01*
X117491693Y-94531569D01*
X117673671Y-94456192D01*
X117673684Y-94456185D01*
X117837462Y-94346751D01*
X117837466Y-94346748D01*
X117976748Y-94207466D01*
X117976751Y-94207462D01*
X118086185Y-94043684D01*
X118086192Y-94043671D01*
X118161569Y-93861692D01*
X118161569Y-93861690D01*
X118169862Y-93820000D01*
X117366988Y-93820000D01*
X117384205Y-93810060D01*
X117440060Y-93754205D01*
X117479556Y-93685796D01*
X117500000Y-93609496D01*
X117500000Y-93530504D01*
X117479556Y-93454204D01*
X117440060Y-93385795D01*
X117384205Y-93329940D01*
X117366988Y-93320000D01*
X118169862Y-93320000D01*
X118161569Y-93278309D01*
X118161569Y-93278307D01*
X118086192Y-93096328D01*
X118086185Y-93096315D01*
X117976751Y-92932537D01*
X117976748Y-92932533D01*
X117837466Y-92793251D01*
X117837462Y-92793248D01*
X117673684Y-92683814D01*
X117673671Y-92683807D01*
X117491693Y-92608430D01*
X117491681Y-92608427D01*
X117298495Y-92570000D01*
X117150000Y-92570000D01*
X117150000Y-93270000D01*
X116650000Y-93270000D01*
X116650000Y-92570000D01*
X116501504Y-92570000D01*
X116308318Y-92608427D01*
X116308306Y-92608430D01*
X116126328Y-92683807D01*
X116126315Y-92683814D01*
X115962537Y-92793248D01*
X115962533Y-92793251D01*
X115823251Y-92932533D01*
X115823248Y-92932537D01*
X115713814Y-93096315D01*
X115713807Y-93096328D01*
X115638430Y-93278307D01*
X115638430Y-93278309D01*
X115630138Y-93320000D01*
X114239862Y-93320000D01*
X114231569Y-93278309D01*
X114231569Y-93278307D01*
X114156192Y-93096328D01*
X114156185Y-93096315D01*
X114046751Y-92932537D01*
X114046748Y-92932533D01*
X113907466Y-92793251D01*
X113907462Y-92793248D01*
X113743684Y-92683814D01*
X113743675Y-92683809D01*
X113585801Y-92618416D01*
X113531398Y-92574575D01*
X113509333Y-92508281D01*
X113526612Y-92440582D01*
X113545571Y-92416176D01*
X113560485Y-92401263D01*
X113616503Y-92304237D01*
X113645500Y-92196018D01*
X113645500Y-92083982D01*
X113616503Y-91975763D01*
X113560485Y-91878737D01*
X113481263Y-91799515D01*
X113384237Y-91743497D01*
X113276018Y-91714500D01*
X113163982Y-91714500D01*
X113055763Y-91743497D01*
X113055760Y-91743498D01*
X112958740Y-91799513D01*
X112958734Y-91799517D01*
X112879517Y-91878734D01*
X112879513Y-91878740D01*
X112823498Y-91975760D01*
X112823497Y-91975763D01*
X112794500Y-92083982D01*
X112794500Y-92196018D01*
X112823497Y-92304237D01*
X112879515Y-92401263D01*
X112879516Y-92401264D01*
X112879517Y-92401265D01*
X112933681Y-92455429D01*
X112967166Y-92516752D01*
X112970000Y-92543110D01*
X112970000Y-93270000D01*
X112470000Y-93270000D01*
X112470000Y-92570000D01*
X112071504Y-92570000D01*
X111878318Y-92608427D01*
X111878306Y-92608430D01*
X111696328Y-92683807D01*
X111696315Y-92683814D01*
X111532537Y-92793248D01*
X111532533Y-92793251D01*
X111393251Y-92932533D01*
X111393248Y-92932537D01*
X111283814Y-93096315D01*
X111283807Y-93096328D01*
X111208430Y-93278307D01*
X111208430Y-93278309D01*
X111200138Y-93320000D01*
X106087461Y-93320000D01*
X106164818Y-93207930D01*
X106225140Y-93048872D01*
X106245645Y-92880000D01*
X106225140Y-92711128D01*
X106164818Y-92552070D01*
X106158633Y-92543110D01*
X106114565Y-92479266D01*
X106068183Y-92412071D01*
X105952730Y-92309789D01*
X105940849Y-92299263D01*
X105790226Y-92220210D01*
X105625056Y-92179500D01*
X105454944Y-92179500D01*
X105289773Y-92220210D01*
X105139150Y-92299263D01*
X105011816Y-92412072D01*
X104915182Y-92552068D01*
X104854860Y-92711125D01*
X104854859Y-92711130D01*
X104834355Y-92880000D01*
X91420920Y-92880000D01*
X91364818Y-92732070D01*
X91268183Y-92592071D01*
X91140852Y-92479266D01*
X91140849Y-92479263D01*
X90990226Y-92400210D01*
X90825056Y-92359500D01*
X90654944Y-92359500D01*
X90489773Y-92400210D01*
X90339150Y-92479263D01*
X90211816Y-92592072D01*
X90115182Y-92732068D01*
X90054860Y-92891125D01*
X90054859Y-92891130D01*
X90034355Y-93060000D01*
X78057127Y-93060000D01*
X78004818Y-92922070D01*
X77908183Y-92782071D01*
X77813316Y-92698026D01*
X77780849Y-92669263D01*
X77630226Y-92590210D01*
X77465056Y-92549500D01*
X77294944Y-92549500D01*
X77129773Y-92590210D01*
X76979150Y-92669263D01*
X76851816Y-92782072D01*
X76755182Y-92922068D01*
X76694860Y-93081125D01*
X76694859Y-93081130D01*
X76674355Y-93250000D01*
X58779844Y-93250000D01*
X58716192Y-93096328D01*
X58716185Y-93096315D01*
X58606751Y-92932537D01*
X58606748Y-92932533D01*
X58467466Y-92793251D01*
X58467462Y-92793248D01*
X58303684Y-92683814D01*
X58303671Y-92683807D01*
X58121693Y-92608430D01*
X58121681Y-92608427D01*
X57928495Y-92570000D01*
X57530000Y-92570000D01*
X57530000Y-93270000D01*
X57030000Y-93270000D01*
X57030000Y-92543110D01*
X57049685Y-92476071D01*
X57066319Y-92455429D01*
X57081166Y-92440582D01*
X57120485Y-92401263D01*
X57176503Y-92304237D01*
X57205500Y-92196018D01*
X57205500Y-92083982D01*
X57176503Y-91975763D01*
X57120485Y-91878737D01*
X57041263Y-91799515D01*
X56944237Y-91743497D01*
X56836018Y-91714500D01*
X56723982Y-91714500D01*
X56615763Y-91743497D01*
X56615760Y-91743498D01*
X56518740Y-91799513D01*
X56518734Y-91799517D01*
X56439517Y-91878734D01*
X56439513Y-91878740D01*
X56383498Y-91975760D01*
X56383497Y-91975763D01*
X56354500Y-92083982D01*
X56354500Y-92196018D01*
X56383497Y-92304237D01*
X56439515Y-92401263D01*
X56439516Y-92401264D01*
X56439517Y-92401265D01*
X56454426Y-92416174D01*
X56487911Y-92477497D01*
X56482927Y-92547189D01*
X56441055Y-92603122D01*
X56414198Y-92618416D01*
X56256325Y-92683809D01*
X56256315Y-92683814D01*
X56092537Y-92793248D01*
X56092533Y-92793251D01*
X55953251Y-92932533D01*
X55953248Y-92932537D01*
X55843814Y-93096315D01*
X55843807Y-93096328D01*
X55768430Y-93278307D01*
X55768430Y-93278309D01*
X55760138Y-93320000D01*
X54369862Y-93320000D01*
X54361569Y-93278309D01*
X54361569Y-93278307D01*
X54286192Y-93096328D01*
X54286185Y-93096315D01*
X54176751Y-92932537D01*
X54176748Y-92932533D01*
X54037466Y-92793251D01*
X54037462Y-92793248D01*
X53873684Y-92683814D01*
X53873671Y-92683807D01*
X53691693Y-92608430D01*
X53691681Y-92608427D01*
X53498495Y-92570000D01*
X53350000Y-92570000D01*
X53350000Y-93270000D01*
X52850000Y-93270000D01*
X52850000Y-92570000D01*
X52701504Y-92570000D01*
X52508318Y-92608427D01*
X52508306Y-92608430D01*
X52326328Y-92683807D01*
X52326315Y-92683814D01*
X52162537Y-92793248D01*
X52162533Y-92793251D01*
X52023251Y-92932533D01*
X52023248Y-92932537D01*
X51913814Y-93096315D01*
X51913807Y-93096328D01*
X51838430Y-93278307D01*
X51838430Y-93278309D01*
X51830138Y-93320000D01*
X50500500Y-93320000D01*
X50500500Y-91650000D01*
X59074355Y-91650000D01*
X59094859Y-91818869D01*
X59094860Y-91818874D01*
X59155182Y-91977931D01*
X59196597Y-92037930D01*
X59251817Y-92117929D01*
X59339962Y-92196018D01*
X59379150Y-92230736D01*
X59529773Y-92309789D01*
X59529775Y-92309790D01*
X59694944Y-92350500D01*
X59865056Y-92350500D01*
X60030225Y-92309790D01*
X60109692Y-92268081D01*
X60180849Y-92230736D01*
X60180850Y-92230734D01*
X60180852Y-92230734D01*
X60308183Y-92117929D01*
X60404818Y-91977930D01*
X60465140Y-91818872D01*
X60485645Y-91650000D01*
X60465140Y-91481128D01*
X60404818Y-91322070D01*
X60308183Y-91182071D01*
X60180852Y-91069266D01*
X60180849Y-91069263D01*
X60080077Y-91016374D01*
X61704355Y-91016374D01*
X61724859Y-91185243D01*
X61724860Y-91185248D01*
X61785182Y-91344305D01*
X61811250Y-91382070D01*
X61881817Y-91484303D01*
X61945962Y-91541130D01*
X62009150Y-91597110D01*
X62109924Y-91650000D01*
X62159775Y-91676164D01*
X62324944Y-91716874D01*
X62495056Y-91716874D01*
X62660225Y-91676164D01*
X62739692Y-91634455D01*
X62810849Y-91597110D01*
X62810850Y-91597108D01*
X62810852Y-91597108D01*
X62864026Y-91550000D01*
X87794355Y-91550000D01*
X87814859Y-91718869D01*
X87814860Y-91718874D01*
X87875182Y-91877931D01*
X87937475Y-91968177D01*
X87971817Y-92017929D01*
X88046376Y-92083982D01*
X88099150Y-92130736D01*
X88223531Y-92196016D01*
X88249775Y-92209790D01*
X88414944Y-92250500D01*
X88585056Y-92250500D01*
X88750225Y-92209790D01*
X88829692Y-92168081D01*
X88900849Y-92130736D01*
X88900850Y-92130734D01*
X88900852Y-92130734D01*
X89028183Y-92017929D01*
X89124818Y-91877930D01*
X89185140Y-91718872D01*
X89186217Y-91710000D01*
X114324355Y-91710000D01*
X114344859Y-91878869D01*
X114344860Y-91878874D01*
X114405182Y-92037931D01*
X114436971Y-92083984D01*
X114501817Y-92177929D01*
X114583733Y-92250500D01*
X114629150Y-92290736D01*
X114743021Y-92350500D01*
X114779775Y-92369790D01*
X114944944Y-92410500D01*
X115115056Y-92410500D01*
X115280225Y-92369790D01*
X115359692Y-92328081D01*
X115430849Y-92290736D01*
X115430850Y-92290734D01*
X115430852Y-92290734D01*
X115558183Y-92177929D01*
X115654818Y-92037930D01*
X115715140Y-91878872D01*
X115735645Y-91710000D01*
X115715140Y-91541128D01*
X115654818Y-91382070D01*
X115654169Y-91381130D01*
X115613401Y-91322068D01*
X115558183Y-91242071D01*
X115430852Y-91129266D01*
X115430849Y-91129263D01*
X115280226Y-91050210D01*
X115115056Y-91009500D01*
X114944944Y-91009500D01*
X114779773Y-91050210D01*
X114629150Y-91129263D01*
X114501816Y-91242072D01*
X114405182Y-91382068D01*
X114344860Y-91541125D01*
X114344859Y-91541130D01*
X114324355Y-91710000D01*
X89186217Y-91710000D01*
X89205645Y-91550000D01*
X89185140Y-91381128D01*
X89124818Y-91222070D01*
X89099401Y-91185248D01*
X89068023Y-91139789D01*
X89028183Y-91082071D01*
X88900852Y-90969266D01*
X88900849Y-90969263D01*
X88750226Y-90890210D01*
X88585056Y-90849500D01*
X88414944Y-90849500D01*
X88249773Y-90890210D01*
X88099150Y-90969263D01*
X87971816Y-91082072D01*
X87875182Y-91222068D01*
X87814860Y-91381125D01*
X87814859Y-91381130D01*
X87794355Y-91550000D01*
X62864026Y-91550000D01*
X62938183Y-91484303D01*
X63034818Y-91344304D01*
X63095140Y-91185246D01*
X63115645Y-91016374D01*
X63095140Y-90847502D01*
X63034818Y-90688444D01*
X63021941Y-90669789D01*
X63000476Y-90638692D01*
X62938183Y-90548445D01*
X62810852Y-90435640D01*
X62810849Y-90435637D01*
X62660226Y-90356584D01*
X62495056Y-90315874D01*
X62324944Y-90315874D01*
X62159773Y-90356584D01*
X62009150Y-90435637D01*
X61881816Y-90548446D01*
X61785182Y-90688442D01*
X61724860Y-90847499D01*
X61724859Y-90847504D01*
X61704355Y-91016374D01*
X60080077Y-91016374D01*
X60030226Y-90990210D01*
X59865056Y-90949500D01*
X59694944Y-90949500D01*
X59529773Y-90990210D01*
X59379150Y-91069263D01*
X59251816Y-91182072D01*
X59155182Y-91322068D01*
X59094860Y-91481125D01*
X59094859Y-91481130D01*
X59074355Y-91650000D01*
X50500500Y-91650000D01*
X50500500Y-88980000D01*
X56104355Y-88980000D01*
X56124859Y-89148869D01*
X56124860Y-89148874D01*
X56185182Y-89307931D01*
X56265686Y-89424560D01*
X56287569Y-89490914D01*
X56270104Y-89558566D01*
X56265686Y-89565440D01*
X56185183Y-89682068D01*
X56185182Y-89682068D01*
X56124860Y-89841125D01*
X56124859Y-89841130D01*
X56104355Y-90010000D01*
X56124859Y-90178869D01*
X56124860Y-90178874D01*
X56185182Y-90337931D01*
X56198986Y-90357929D01*
X56281817Y-90477929D01*
X56362932Y-90549790D01*
X56409150Y-90590736D01*
X56519923Y-90648874D01*
X56559775Y-90669790D01*
X56724944Y-90710500D01*
X56895056Y-90710500D01*
X57060225Y-90669790D01*
X57139692Y-90628081D01*
X57210849Y-90590736D01*
X57210850Y-90590734D01*
X57210852Y-90590734D01*
X57338183Y-90477929D01*
X57434818Y-90337930D01*
X57495140Y-90178872D01*
X57515645Y-90010000D01*
X57501074Y-89890000D01*
X66174355Y-89890000D01*
X66194859Y-90058869D01*
X66194860Y-90058874D01*
X66255182Y-90217931D01*
X66275296Y-90247070D01*
X66351817Y-90357929D01*
X66406223Y-90406128D01*
X66479150Y-90470736D01*
X66627212Y-90548445D01*
X66629775Y-90549790D01*
X66794944Y-90590500D01*
X66965056Y-90590500D01*
X67027943Y-90575000D01*
X68499355Y-90575000D01*
X68519859Y-90743869D01*
X68519860Y-90743874D01*
X68580182Y-90902931D01*
X68625971Y-90969266D01*
X68676817Y-91042929D01*
X68774268Y-91129263D01*
X68804150Y-91155736D01*
X68930539Y-91222070D01*
X68954775Y-91234790D01*
X69119944Y-91275500D01*
X69290056Y-91275500D01*
X69455225Y-91234790D01*
X69534692Y-91193081D01*
X69605849Y-91155736D01*
X69605850Y-91155734D01*
X69605852Y-91155734D01*
X69733183Y-91042929D01*
X69829818Y-90902930D01*
X69890140Y-90743872D01*
X69910645Y-90575000D01*
X69899110Y-90480000D01*
X112304355Y-90480000D01*
X112324859Y-90648869D01*
X112324860Y-90648874D01*
X112385182Y-90807931D01*
X112412498Y-90847504D01*
X112481817Y-90947929D01*
X112529543Y-90990210D01*
X112609150Y-91060736D01*
X112739723Y-91129266D01*
X112759775Y-91139790D01*
X112924944Y-91180500D01*
X113095056Y-91180500D01*
X113260225Y-91139790D01*
X113339692Y-91098081D01*
X113410849Y-91060736D01*
X113410850Y-91060734D01*
X113410852Y-91060734D01*
X113538183Y-90947929D01*
X113634818Y-90807930D01*
X113695140Y-90648872D01*
X113715645Y-90480000D01*
X113695140Y-90311128D01*
X113634818Y-90152070D01*
X113633734Y-90150500D01*
X113570489Y-90058874D01*
X113538183Y-90012071D01*
X113410852Y-89899266D01*
X113410849Y-89899263D01*
X113260226Y-89820210D01*
X113095056Y-89779500D01*
X112924944Y-89779500D01*
X112759773Y-89820210D01*
X112609150Y-89899263D01*
X112481816Y-90012072D01*
X112385182Y-90152068D01*
X112324860Y-90311125D01*
X112324859Y-90311130D01*
X112304355Y-90480000D01*
X69899110Y-90480000D01*
X69890140Y-90406128D01*
X69829818Y-90247070D01*
X69733183Y-90107071D01*
X69605852Y-89994266D01*
X69605849Y-89994263D01*
X69455226Y-89915210D01*
X69290056Y-89874500D01*
X69119944Y-89874500D01*
X68954773Y-89915210D01*
X68804150Y-89994263D01*
X68676816Y-90107072D01*
X68580182Y-90247068D01*
X68519860Y-90406125D01*
X68519859Y-90406130D01*
X68499355Y-90575000D01*
X67027943Y-90575000D01*
X67130225Y-90549790D01*
X67209692Y-90508081D01*
X67280849Y-90470736D01*
X67280850Y-90470734D01*
X67280852Y-90470734D01*
X67408183Y-90357929D01*
X67504818Y-90217930D01*
X67565140Y-90058872D01*
X67585645Y-89890000D01*
X67565140Y-89721128D01*
X67504818Y-89562070D01*
X67502399Y-89558566D01*
X67461343Y-89499086D01*
X67427461Y-89450000D01*
X86674355Y-89450000D01*
X86694859Y-89618869D01*
X86694860Y-89618874D01*
X86755182Y-89777931D01*
X86798805Y-89841128D01*
X86851817Y-89917929D01*
X86937981Y-89994263D01*
X86979150Y-90030736D01*
X87072613Y-90079789D01*
X87129775Y-90109790D01*
X87294944Y-90150500D01*
X87465056Y-90150500D01*
X87630225Y-90109790D01*
X87727246Y-90058869D01*
X87780849Y-90030736D01*
X87780850Y-90030734D01*
X87780852Y-90030734D01*
X87908183Y-89917929D01*
X88004818Y-89777930D01*
X88065140Y-89618872D01*
X88085645Y-89450000D01*
X88082002Y-89420000D01*
X89044355Y-89420000D01*
X89064859Y-89588869D01*
X89064860Y-89588874D01*
X89125182Y-89747931D01*
X89187475Y-89838177D01*
X89221817Y-89887929D01*
X89327505Y-89981560D01*
X89349150Y-90000736D01*
X89459923Y-90058874D01*
X89499775Y-90079790D01*
X89664944Y-90120500D01*
X89835056Y-90120500D01*
X90000225Y-90079790D01*
X90093689Y-90030736D01*
X90150849Y-90000736D01*
X90150850Y-90000734D01*
X90150852Y-90000734D01*
X90278183Y-89887929D01*
X90374818Y-89747930D01*
X90435140Y-89588872D01*
X90455645Y-89420000D01*
X90435140Y-89251128D01*
X90374818Y-89092070D01*
X90278183Y-88952071D01*
X90150852Y-88839266D01*
X90150849Y-88839263D01*
X90000226Y-88760210D01*
X89835056Y-88719500D01*
X89664944Y-88719500D01*
X89499773Y-88760210D01*
X89349150Y-88839263D01*
X89221816Y-88952072D01*
X89125182Y-89092068D01*
X89064860Y-89251125D01*
X89064859Y-89251130D01*
X89044355Y-89420000D01*
X88082002Y-89420000D01*
X88065140Y-89281128D01*
X88004818Y-89122070D01*
X87984110Y-89092070D01*
X87957574Y-89053626D01*
X87908183Y-88982071D01*
X87798337Y-88884756D01*
X87780849Y-88869263D01*
X87630226Y-88790210D01*
X87465056Y-88749500D01*
X87294944Y-88749500D01*
X87129773Y-88790210D01*
X86979150Y-88869263D01*
X86851816Y-88982072D01*
X86755182Y-89122068D01*
X86694860Y-89281125D01*
X86694859Y-89281130D01*
X86674355Y-89450000D01*
X67427461Y-89450000D01*
X67408183Y-89422071D01*
X67280852Y-89309266D01*
X67280849Y-89309263D01*
X67130226Y-89230210D01*
X66965056Y-89189500D01*
X66794944Y-89189500D01*
X66629773Y-89230210D01*
X66479150Y-89309263D01*
X66351816Y-89422072D01*
X66255182Y-89562068D01*
X66194860Y-89721125D01*
X66194859Y-89721130D01*
X66174355Y-89890000D01*
X57501074Y-89890000D01*
X57495140Y-89841128D01*
X57434818Y-89682070D01*
X57354311Y-89565437D01*
X57332430Y-89499086D01*
X57349895Y-89431435D01*
X57354296Y-89424585D01*
X57434818Y-89307930D01*
X57495140Y-89148872D01*
X57506705Y-89053626D01*
X60564355Y-89053626D01*
X60584859Y-89222495D01*
X60584860Y-89222500D01*
X60645182Y-89381557D01*
X60679611Y-89431435D01*
X60741817Y-89521555D01*
X60817805Y-89588874D01*
X60869150Y-89634362D01*
X61019773Y-89713415D01*
X61019775Y-89713416D01*
X61184944Y-89754126D01*
X61355056Y-89754126D01*
X61520225Y-89713416D01*
X61599692Y-89671707D01*
X61670849Y-89634362D01*
X61670850Y-89634360D01*
X61670852Y-89634360D01*
X61798183Y-89521555D01*
X61894818Y-89381556D01*
X61955140Y-89222498D01*
X61975645Y-89053626D01*
X61955140Y-88884754D01*
X61948758Y-88867927D01*
X61907907Y-88760210D01*
X61894818Y-88725696D01*
X61890541Y-88719500D01*
X61843996Y-88652068D01*
X61798183Y-88585697D01*
X61670852Y-88472892D01*
X61670849Y-88472889D01*
X61531971Y-88400000D01*
X68884355Y-88400000D01*
X68904859Y-88568869D01*
X68904860Y-88568874D01*
X68965182Y-88727931D01*
X68987463Y-88760210D01*
X69061817Y-88867929D01*
X69156794Y-88952071D01*
X69189150Y-88980736D01*
X69339773Y-89059789D01*
X69339775Y-89059790D01*
X69504944Y-89100500D01*
X69675056Y-89100500D01*
X69840225Y-89059790D01*
X69988305Y-88982071D01*
X69990849Y-88980736D01*
X69990850Y-88980734D01*
X69990852Y-88980734D01*
X70118183Y-88867929D01*
X70214818Y-88727930D01*
X70275140Y-88568872D01*
X70295645Y-88400000D01*
X70275140Y-88231128D01*
X70263524Y-88200500D01*
X70248085Y-88159789D01*
X70214818Y-88072070D01*
X70191253Y-88037931D01*
X70142934Y-87967929D01*
X70118183Y-87932071D01*
X70025544Y-87850000D01*
X70734355Y-87850000D01*
X70754859Y-88018869D01*
X70754860Y-88018874D01*
X70815182Y-88177931D01*
X70877475Y-88268177D01*
X70911817Y-88317929D01*
X71016308Y-88410500D01*
X71039150Y-88430736D01*
X71119472Y-88472892D01*
X71189775Y-88509790D01*
X71354944Y-88550500D01*
X71525056Y-88550500D01*
X71690225Y-88509790D01*
X71769692Y-88468081D01*
X71840849Y-88430736D01*
X71840850Y-88430734D01*
X71840852Y-88430734D01*
X71968183Y-88317929D01*
X72064818Y-88177930D01*
X72125140Y-88018872D01*
X72145645Y-87850000D01*
X72125140Y-87681128D01*
X72064818Y-87522070D01*
X72049438Y-87499789D01*
X72030476Y-87472318D01*
X71968183Y-87382071D01*
X71853797Y-87280734D01*
X71840849Y-87269263D01*
X71690226Y-87190210D01*
X71525056Y-87149500D01*
X71354944Y-87149500D01*
X71189773Y-87190210D01*
X71039150Y-87269263D01*
X70941201Y-87356039D01*
X70911821Y-87382068D01*
X70911816Y-87382072D01*
X70815182Y-87522068D01*
X70754860Y-87681125D01*
X70754859Y-87681130D01*
X70734355Y-87850000D01*
X70025544Y-87850000D01*
X69990852Y-87819266D01*
X69990849Y-87819263D01*
X69840226Y-87740210D01*
X69675056Y-87699500D01*
X69504944Y-87699500D01*
X69339773Y-87740210D01*
X69189150Y-87819263D01*
X69061816Y-87932072D01*
X68965182Y-88072068D01*
X68904860Y-88231125D01*
X68904859Y-88231130D01*
X68884355Y-88400000D01*
X61531971Y-88400000D01*
X61520226Y-88393836D01*
X61355056Y-88353126D01*
X61184944Y-88353126D01*
X61019773Y-88393836D01*
X60869150Y-88472889D01*
X60741816Y-88585698D01*
X60645182Y-88725694D01*
X60584860Y-88884751D01*
X60584859Y-88884756D01*
X60564355Y-89053626D01*
X57506705Y-89053626D01*
X57515645Y-88980000D01*
X57495140Y-88811128D01*
X57434818Y-88652070D01*
X57338183Y-88512071D01*
X57210852Y-88399266D01*
X57210849Y-88399263D01*
X57060226Y-88320210D01*
X56895056Y-88279500D01*
X56724944Y-88279500D01*
X56559773Y-88320210D01*
X56409150Y-88399263D01*
X56281816Y-88512072D01*
X56185182Y-88652068D01*
X56124860Y-88811125D01*
X56124859Y-88811130D01*
X56104355Y-88980000D01*
X50500500Y-88980000D01*
X50500500Y-87710000D01*
X54924355Y-87710000D01*
X54944859Y-87878869D01*
X54944860Y-87878874D01*
X55005182Y-88037931D01*
X55034729Y-88080736D01*
X55101817Y-88177929D01*
X55161869Y-88231130D01*
X55229150Y-88290736D01*
X55379773Y-88369789D01*
X55379775Y-88369790D01*
X55544944Y-88410500D01*
X55715056Y-88410500D01*
X55880225Y-88369790D01*
X55979041Y-88317927D01*
X56030849Y-88290736D01*
X56030850Y-88290734D01*
X56030852Y-88290734D01*
X56158183Y-88177929D01*
X56254818Y-88037930D01*
X56315140Y-87878872D01*
X56335645Y-87710000D01*
X56315140Y-87541128D01*
X56254818Y-87382070D01*
X56239438Y-87359789D01*
X56219653Y-87331125D01*
X56158183Y-87242071D01*
X56030852Y-87129266D01*
X56030849Y-87129263D01*
X55880226Y-87050210D01*
X55715056Y-87009500D01*
X55544944Y-87009500D01*
X55379773Y-87050210D01*
X55229150Y-87129263D01*
X55101816Y-87242072D01*
X55005182Y-87382068D01*
X54944860Y-87541125D01*
X54944859Y-87541130D01*
X54924355Y-87710000D01*
X50500500Y-87710000D01*
X50500500Y-86840000D01*
X58474355Y-86840000D01*
X58494859Y-87008869D01*
X58494860Y-87008874D01*
X58555182Y-87167931D01*
X58596597Y-87227930D01*
X58651817Y-87307929D01*
X58756308Y-87400500D01*
X58779150Y-87420736D01*
X58893467Y-87480734D01*
X58929775Y-87499790D01*
X59094944Y-87540500D01*
X59265056Y-87540500D01*
X59430225Y-87499790D01*
X59509692Y-87458081D01*
X59580849Y-87420736D01*
X59580850Y-87420734D01*
X59580852Y-87420734D01*
X59708183Y-87307929D01*
X59804818Y-87167930D01*
X59865140Y-87008872D01*
X59878360Y-86900000D01*
X72124355Y-86900000D01*
X72144859Y-87068869D01*
X72144860Y-87068874D01*
X72205182Y-87227931D01*
X72242033Y-87281318D01*
X72301817Y-87367929D01*
X72407505Y-87461560D01*
X72429150Y-87480736D01*
X72579773Y-87559789D01*
X72579775Y-87559790D01*
X72744944Y-87600500D01*
X72915056Y-87600500D01*
X73080225Y-87559790D01*
X73194144Y-87500000D01*
X73230849Y-87480736D01*
X73230850Y-87480734D01*
X73230852Y-87480734D01*
X73358183Y-87367929D01*
X73454818Y-87227930D01*
X73515140Y-87068872D01*
X73535645Y-86900000D01*
X73515140Y-86731128D01*
X73503335Y-86700000D01*
X76614355Y-86700000D01*
X76634859Y-86868869D01*
X76634860Y-86868874D01*
X76695182Y-87027931D01*
X76757475Y-87118177D01*
X76791817Y-87167929D01*
X76897505Y-87261560D01*
X76919150Y-87280736D01*
X77062628Y-87356039D01*
X77069775Y-87359790D01*
X77234944Y-87400500D01*
X77405056Y-87400500D01*
X77570225Y-87359790D01*
X77577372Y-87356039D01*
X77645880Y-87342312D01*
X77692628Y-87356039D01*
X77699775Y-87359790D01*
X77864944Y-87400500D01*
X78035056Y-87400500D01*
X78200225Y-87359790D01*
X78270479Y-87322916D01*
X78338985Y-87309190D01*
X78372085Y-87318918D01*
X78372763Y-87317131D01*
X78379772Y-87319789D01*
X78379774Y-87319789D01*
X78379775Y-87319790D01*
X78544944Y-87360500D01*
X78715056Y-87360500D01*
X78880225Y-87319790D01*
X78927374Y-87295043D01*
X78995881Y-87281318D01*
X79042625Y-87295043D01*
X79089775Y-87319790D01*
X79254944Y-87360500D01*
X79425056Y-87360500D01*
X79590225Y-87319790D01*
X79645034Y-87291022D01*
X79713542Y-87277296D01*
X79732331Y-87280420D01*
X79894944Y-87320500D01*
X80065056Y-87320500D01*
X80230225Y-87279790D01*
X80329035Y-87227930D01*
X80380849Y-87200736D01*
X80380850Y-87200734D01*
X80380852Y-87200734D01*
X80508183Y-87087929D01*
X80604818Y-86947930D01*
X80665140Y-86788872D01*
X80685645Y-86620000D01*
X80665140Y-86451128D01*
X80604818Y-86292070D01*
X80508183Y-86152071D01*
X80380852Y-86039266D01*
X80380849Y-86039263D01*
X80230226Y-85960210D01*
X80065056Y-85919500D01*
X79894944Y-85919500D01*
X79729776Y-85960209D01*
X79674962Y-85988978D01*
X79606453Y-86002702D01*
X79587662Y-85999578D01*
X79425056Y-85959500D01*
X79254944Y-85959500D01*
X79089776Y-86000209D01*
X79042625Y-86024956D01*
X78974116Y-86038680D01*
X78927375Y-86024956D01*
X78880223Y-86000209D01*
X78715056Y-85959500D01*
X78544944Y-85959500D01*
X78379774Y-86000209D01*
X78379774Y-86000210D01*
X78309517Y-86037083D01*
X78241009Y-86050807D01*
X78207908Y-86041097D01*
X78207237Y-86042869D01*
X78200227Y-86040210D01*
X78035056Y-85999500D01*
X77864944Y-85999500D01*
X77699772Y-86040210D01*
X77692625Y-86043962D01*
X77624117Y-86057686D01*
X77577375Y-86043962D01*
X77570227Y-86040210D01*
X77405056Y-85999500D01*
X77234944Y-85999500D01*
X77069773Y-86040210D01*
X76919150Y-86119263D01*
X76791816Y-86232072D01*
X76695182Y-86372068D01*
X76634860Y-86531125D01*
X76634859Y-86531130D01*
X76614355Y-86700000D01*
X73503335Y-86700000D01*
X73499157Y-86688985D01*
X73454817Y-86572068D01*
X73405578Y-86500734D01*
X73358183Y-86432071D01*
X73230852Y-86319266D01*
X73230849Y-86319263D01*
X73080226Y-86240210D01*
X72915056Y-86199500D01*
X72744944Y-86199500D01*
X72579773Y-86240210D01*
X72429150Y-86319263D01*
X72301816Y-86432072D01*
X72205182Y-86572068D01*
X72144860Y-86731125D01*
X72144859Y-86731130D01*
X72124355Y-86900000D01*
X59878360Y-86900000D01*
X59885645Y-86840000D01*
X59865140Y-86671128D01*
X59804818Y-86512070D01*
X59796993Y-86500734D01*
X59749598Y-86432071D01*
X59708183Y-86372071D01*
X59580852Y-86259266D01*
X59580849Y-86259263D01*
X59430226Y-86180210D01*
X59265056Y-86139500D01*
X59094944Y-86139500D01*
X58929773Y-86180210D01*
X58779150Y-86259263D01*
X58662638Y-86362484D01*
X58651821Y-86372068D01*
X58651816Y-86372072D01*
X58555182Y-86512068D01*
X58494860Y-86671125D01*
X58494859Y-86671130D01*
X58474355Y-86840000D01*
X50500500Y-86840000D01*
X50500500Y-84680000D01*
X51830138Y-84680000D01*
X52633012Y-84680000D01*
X52615795Y-84689940D01*
X52559940Y-84745795D01*
X52520444Y-84814204D01*
X52500000Y-84890504D01*
X52500000Y-84969496D01*
X52520444Y-85045796D01*
X52559940Y-85114205D01*
X52615795Y-85170060D01*
X52633012Y-85180000D01*
X51830138Y-85180000D01*
X51838430Y-85221690D01*
X51838430Y-85221692D01*
X51913807Y-85403671D01*
X51913814Y-85403684D01*
X52023248Y-85567462D01*
X52023251Y-85567466D01*
X52162533Y-85706748D01*
X52162537Y-85706751D01*
X52326315Y-85816185D01*
X52326328Y-85816192D01*
X52508306Y-85891569D01*
X52508318Y-85891572D01*
X52701504Y-85929999D01*
X52701508Y-85930000D01*
X52850000Y-85930000D01*
X52850000Y-85230000D01*
X53350000Y-85230000D01*
X53350000Y-85930000D01*
X53498492Y-85930000D01*
X53498495Y-85929999D01*
X53691681Y-85891572D01*
X53691693Y-85891569D01*
X53873671Y-85816192D01*
X53873684Y-85816185D01*
X54037462Y-85706751D01*
X54037466Y-85706748D01*
X54176748Y-85567466D01*
X54176751Y-85567462D01*
X54286185Y-85403684D01*
X54286192Y-85403671D01*
X54361569Y-85221692D01*
X54361569Y-85221690D01*
X54369862Y-85180000D01*
X53566988Y-85180000D01*
X53584205Y-85170060D01*
X53640060Y-85114205D01*
X53679556Y-85045796D01*
X53700000Y-84969496D01*
X53700000Y-84890504D01*
X53679556Y-84814204D01*
X53640060Y-84745795D01*
X53584205Y-84689940D01*
X53566988Y-84680000D01*
X54369862Y-84680000D01*
X55760138Y-84680000D01*
X56563012Y-84680000D01*
X56545795Y-84689940D01*
X56489940Y-84745795D01*
X56450444Y-84814204D01*
X56430000Y-84890504D01*
X56430000Y-84969496D01*
X56450444Y-85045796D01*
X56489940Y-85114205D01*
X56545795Y-85170060D01*
X56563012Y-85180000D01*
X55760138Y-85180000D01*
X55768430Y-85221690D01*
X55768430Y-85221692D01*
X55843807Y-85403671D01*
X55843814Y-85403684D01*
X55953248Y-85567462D01*
X55953251Y-85567466D01*
X56092533Y-85706748D01*
X56092537Y-85706751D01*
X56256315Y-85816185D01*
X56256328Y-85816192D01*
X56414197Y-85881583D01*
X56468601Y-85925424D01*
X56490666Y-85991718D01*
X56473387Y-86059417D01*
X56454428Y-86083823D01*
X56439518Y-86098733D01*
X56439513Y-86098740D01*
X56383498Y-86195760D01*
X56383497Y-86195763D01*
X56354500Y-86303982D01*
X56354500Y-86416018D01*
X56380237Y-86512068D01*
X56383497Y-86524236D01*
X56383498Y-86524239D01*
X56387477Y-86531130D01*
X56439515Y-86621263D01*
X56518737Y-86700485D01*
X56615763Y-86756503D01*
X56723982Y-86785500D01*
X56723984Y-86785500D01*
X56836016Y-86785500D01*
X56836018Y-86785500D01*
X56944237Y-86756503D01*
X57041263Y-86700485D01*
X57120485Y-86621263D01*
X57176503Y-86524237D01*
X57205500Y-86416018D01*
X57205500Y-86303982D01*
X57176503Y-86195763D01*
X57120485Y-86098737D01*
X57066319Y-86044571D01*
X57032834Y-85983248D01*
X57030000Y-85956890D01*
X57030000Y-85230000D01*
X57530000Y-85230000D01*
X57530000Y-85930000D01*
X57928492Y-85930000D01*
X57928495Y-85929999D01*
X58121681Y-85891572D01*
X58121693Y-85891569D01*
X58303671Y-85816192D01*
X58303684Y-85816185D01*
X58467462Y-85706751D01*
X58467466Y-85706748D01*
X58606748Y-85567466D01*
X58606751Y-85567462D01*
X58716185Y-85403684D01*
X58716192Y-85403671D01*
X58791569Y-85221692D01*
X58791569Y-85221690D01*
X58799862Y-85180000D01*
X57996988Y-85180000D01*
X58014205Y-85170060D01*
X58070060Y-85114205D01*
X58109556Y-85045796D01*
X58130000Y-84969496D01*
X58130000Y-84890504D01*
X58109556Y-84814204D01*
X58070060Y-84745795D01*
X58014205Y-84689940D01*
X57996988Y-84680000D01*
X58799862Y-84680000D01*
X58791569Y-84638309D01*
X58791569Y-84638307D01*
X58716192Y-84456328D01*
X58716185Y-84456315D01*
X58606751Y-84292537D01*
X58606748Y-84292533D01*
X58564215Y-84250000D01*
X62974355Y-84250000D01*
X62994859Y-84418869D01*
X62994860Y-84418874D01*
X63055182Y-84577931D01*
X63096859Y-84638309D01*
X63151817Y-84717929D01*
X63228032Y-84785449D01*
X63279150Y-84830736D01*
X63401012Y-84894694D01*
X63429775Y-84909790D01*
X63594944Y-84950500D01*
X63765056Y-84950500D01*
X63930225Y-84909790D01*
X64080852Y-84830734D01*
X64100831Y-84813033D01*
X64164062Y-84783310D01*
X64212734Y-84785448D01*
X64354944Y-84820500D01*
X64525056Y-84820500D01*
X64690225Y-84779790D01*
X64769692Y-84738081D01*
X64840849Y-84700736D01*
X64840850Y-84700734D01*
X64840852Y-84700734D01*
X64968183Y-84587929D01*
X65064818Y-84447930D01*
X65090580Y-84380000D01*
X68854355Y-84380000D01*
X68874859Y-84548869D01*
X68874860Y-84548874D01*
X68935182Y-84707931D01*
X68985124Y-84780284D01*
X69007007Y-84846639D01*
X68999016Y-84894694D01*
X68954861Y-85011122D01*
X68954859Y-85011130D01*
X68934355Y-85180000D01*
X68954859Y-85348869D01*
X68954860Y-85348874D01*
X69015182Y-85507931D01*
X69056274Y-85567462D01*
X69111817Y-85647929D01*
X69178214Y-85706751D01*
X69239150Y-85760736D01*
X69344813Y-85816192D01*
X69389775Y-85839790D01*
X69554944Y-85880500D01*
X69725056Y-85880500D01*
X69890225Y-85839790D01*
X70040852Y-85760734D01*
X70162773Y-85652722D01*
X70226006Y-85623000D01*
X70295269Y-85632184D01*
X70327227Y-85652722D01*
X70449147Y-85760733D01*
X70449149Y-85760735D01*
X70554800Y-85816185D01*
X70599775Y-85839790D01*
X70764944Y-85880500D01*
X70935056Y-85880500D01*
X71100225Y-85839790D01*
X71179692Y-85798081D01*
X71250849Y-85760736D01*
X71250850Y-85760734D01*
X71250852Y-85760734D01*
X71378183Y-85647929D01*
X71474818Y-85507930D01*
X71535140Y-85348872D01*
X71555645Y-85180000D01*
X71535140Y-85011128D01*
X71474818Y-84852070D01*
X71471069Y-84846639D01*
X71432349Y-84790544D01*
X71378183Y-84712071D01*
X71277580Y-84622945D01*
X71250849Y-84599263D01*
X71100226Y-84520210D01*
X70935056Y-84479500D01*
X70764944Y-84479500D01*
X70599773Y-84520210D01*
X70449145Y-84599266D01*
X70446534Y-84601069D01*
X70444322Y-84601797D01*
X70442507Y-84602751D01*
X70442348Y-84602448D01*
X70380177Y-84622945D01*
X70312527Y-84605473D01*
X70265062Y-84554200D01*
X70252853Y-84485406D01*
X70252984Y-84484267D01*
X70265645Y-84380000D01*
X70245140Y-84211128D01*
X70229542Y-84170000D01*
X98994355Y-84170000D01*
X99014859Y-84338869D01*
X99014860Y-84338874D01*
X99075182Y-84497931D01*
X99130402Y-84577930D01*
X99171817Y-84637929D01*
X99262119Y-84717929D01*
X99299150Y-84750736D01*
X99432627Y-84820790D01*
X99449775Y-84829790D01*
X99614944Y-84870500D01*
X99785056Y-84870500D01*
X99950225Y-84829790D01*
X99967373Y-84820789D01*
X100035878Y-84807063D01*
X100082625Y-84820788D01*
X100099775Y-84829790D01*
X100264944Y-84870500D01*
X100435056Y-84870500D01*
X100600225Y-84829790D01*
X100695493Y-84779789D01*
X100750849Y-84750736D01*
X100750850Y-84750734D01*
X100750852Y-84750734D01*
X100830694Y-84680000D01*
X111200138Y-84680000D01*
X112003012Y-84680000D01*
X111985795Y-84689940D01*
X111929940Y-84745795D01*
X111890444Y-84814204D01*
X111870000Y-84890504D01*
X111870000Y-84969496D01*
X111890444Y-85045796D01*
X111929940Y-85114205D01*
X111985795Y-85170060D01*
X112003012Y-85180000D01*
X111200138Y-85180000D01*
X111208430Y-85221690D01*
X111208430Y-85221692D01*
X111283807Y-85403671D01*
X111283814Y-85403684D01*
X111393248Y-85567462D01*
X111393251Y-85567466D01*
X111532533Y-85706748D01*
X111532537Y-85706751D01*
X111696315Y-85816185D01*
X111696328Y-85816192D01*
X111878306Y-85891569D01*
X111878318Y-85891572D01*
X112071504Y-85929999D01*
X112071508Y-85930000D01*
X112470000Y-85930000D01*
X112470000Y-85230000D01*
X112970000Y-85230000D01*
X112970000Y-85956890D01*
X112950315Y-86023929D01*
X112933681Y-86044571D01*
X112879517Y-86098734D01*
X112879513Y-86098740D01*
X112823498Y-86195760D01*
X112823497Y-86195763D01*
X112794500Y-86303982D01*
X112794500Y-86416018D01*
X112820237Y-86512068D01*
X112823497Y-86524236D01*
X112823498Y-86524239D01*
X112827477Y-86531130D01*
X112879515Y-86621263D01*
X112879517Y-86621265D01*
X112885914Y-86627662D01*
X112919399Y-86688985D01*
X112914415Y-86758677D01*
X112872543Y-86814610D01*
X112827910Y-86835739D01*
X112809777Y-86840208D01*
X112809774Y-86840209D01*
X112659150Y-86919263D01*
X112531816Y-87032072D01*
X112435182Y-87172068D01*
X112374860Y-87331125D01*
X112374859Y-87331130D01*
X112354355Y-87500000D01*
X112374859Y-87668869D01*
X112374860Y-87668874D01*
X112435182Y-87827931D01*
X112470343Y-87878869D01*
X112531817Y-87967929D01*
X112637505Y-88061560D01*
X112659150Y-88080736D01*
X112809773Y-88159789D01*
X112809775Y-88159790D01*
X112974944Y-88200500D01*
X113145056Y-88200500D01*
X113310225Y-88159790D01*
X113389692Y-88118081D01*
X113460849Y-88080736D01*
X113460850Y-88080734D01*
X113460852Y-88080734D01*
X113588183Y-87967929D01*
X113684818Y-87827930D01*
X113745140Y-87668872D01*
X113765645Y-87500000D01*
X113745140Y-87331128D01*
X113740509Y-87318918D01*
X113711366Y-87242072D01*
X113684818Y-87172070D01*
X113681960Y-87167930D01*
X113613583Y-87068869D01*
X113588183Y-87032071D01*
X113460852Y-86919266D01*
X113460850Y-86919265D01*
X113460848Y-86919263D01*
X113458934Y-86917942D01*
X113457857Y-86916613D01*
X113455238Y-86914293D01*
X113455623Y-86913857D01*
X113414942Y-86863660D01*
X113407282Y-86794212D01*
X113438384Y-86731646D01*
X113467372Y-86708504D01*
X113481263Y-86700485D01*
X113560485Y-86621263D01*
X113616503Y-86524237D01*
X113645500Y-86416018D01*
X113645500Y-86303982D01*
X113616503Y-86195763D01*
X113560485Y-86098737D01*
X113545573Y-86083825D01*
X113512088Y-86022502D01*
X113517072Y-85952810D01*
X113541634Y-85920000D01*
X114624355Y-85920000D01*
X114644859Y-86088869D01*
X114644860Y-86088874D01*
X114705182Y-86247931D01*
X114754420Y-86319263D01*
X114801817Y-86387929D01*
X114907505Y-86481560D01*
X114929150Y-86500736D01*
X115065062Y-86572068D01*
X115079775Y-86579790D01*
X115244944Y-86620500D01*
X115415056Y-86620500D01*
X115580225Y-86579790D01*
X115672942Y-86531128D01*
X115730849Y-86500736D01*
X115730850Y-86500734D01*
X115730852Y-86500734D01*
X115858183Y-86387929D01*
X115954818Y-86247930D01*
X116015140Y-86088872D01*
X116032305Y-85947502D01*
X116059927Y-85883326D01*
X116117861Y-85844269D01*
X116187714Y-85842734D01*
X116202854Y-85847889D01*
X116308310Y-85891570D01*
X116308318Y-85891572D01*
X116501504Y-85929999D01*
X116501508Y-85930000D01*
X116650000Y-85930000D01*
X116650000Y-85230000D01*
X117150000Y-85230000D01*
X117150000Y-85930000D01*
X117298492Y-85930000D01*
X117298495Y-85929999D01*
X117491681Y-85891572D01*
X117491693Y-85891569D01*
X117673671Y-85816192D01*
X117673684Y-85816185D01*
X117837462Y-85706751D01*
X117837466Y-85706748D01*
X117976748Y-85567466D01*
X117976751Y-85567462D01*
X118086185Y-85403684D01*
X118086192Y-85403671D01*
X118161569Y-85221692D01*
X118161569Y-85221690D01*
X118169862Y-85180000D01*
X117366988Y-85180000D01*
X117384205Y-85170060D01*
X117440060Y-85114205D01*
X117479556Y-85045796D01*
X117500000Y-84969496D01*
X117500000Y-84890504D01*
X117479556Y-84814204D01*
X117440060Y-84745795D01*
X117384205Y-84689940D01*
X117366988Y-84680000D01*
X118169862Y-84680000D01*
X118161569Y-84638309D01*
X118161569Y-84638307D01*
X118086192Y-84456328D01*
X118086185Y-84456315D01*
X117976751Y-84292537D01*
X117976748Y-84292533D01*
X117837466Y-84153251D01*
X117837462Y-84153248D01*
X117673684Y-84043814D01*
X117673671Y-84043807D01*
X117491693Y-83968430D01*
X117491681Y-83968427D01*
X117298495Y-83930000D01*
X117150000Y-83930000D01*
X117150000Y-84630000D01*
X116650000Y-84630000D01*
X116650000Y-83930000D01*
X116501504Y-83930000D01*
X116308318Y-83968427D01*
X116308306Y-83968430D01*
X116126328Y-84043807D01*
X116126315Y-84043814D01*
X115962537Y-84153248D01*
X115962533Y-84153251D01*
X115823251Y-84292533D01*
X115823248Y-84292537D01*
X115713814Y-84456315D01*
X115713807Y-84456328D01*
X115638430Y-84638307D01*
X115638430Y-84638309D01*
X115630138Y-84680000D01*
X116433012Y-84680000D01*
X116415795Y-84689940D01*
X116359940Y-84745795D01*
X116320444Y-84814204D01*
X116300000Y-84890504D01*
X116300000Y-84969496D01*
X116320444Y-85045796D01*
X116359940Y-85114205D01*
X116415795Y-85170060D01*
X116433012Y-85180000D01*
X115630136Y-85180000D01*
X115616592Y-85196503D01*
X115558846Y-85235837D01*
X115491066Y-85238234D01*
X115415057Y-85219500D01*
X115415056Y-85219500D01*
X115244944Y-85219500D01*
X115079773Y-85260210D01*
X114929150Y-85339263D01*
X114801816Y-85452072D01*
X114705182Y-85592068D01*
X114644860Y-85751125D01*
X114644859Y-85751130D01*
X114624355Y-85920000D01*
X113541634Y-85920000D01*
X113558944Y-85896877D01*
X113585802Y-85881583D01*
X113743671Y-85816192D01*
X113743684Y-85816185D01*
X113907462Y-85706751D01*
X113907466Y-85706748D01*
X114046748Y-85567466D01*
X114046751Y-85567462D01*
X114156185Y-85403684D01*
X114156192Y-85403671D01*
X114231569Y-85221692D01*
X114231569Y-85221690D01*
X114239862Y-85180000D01*
X113436988Y-85180000D01*
X113454205Y-85170060D01*
X113510060Y-85114205D01*
X113549556Y-85045796D01*
X113570000Y-84969496D01*
X113570000Y-84890504D01*
X113549556Y-84814204D01*
X113510060Y-84745795D01*
X113454205Y-84689940D01*
X113436988Y-84680000D01*
X114239862Y-84680000D01*
X114231569Y-84638309D01*
X114231569Y-84638307D01*
X114156192Y-84456328D01*
X114156185Y-84456315D01*
X114046751Y-84292537D01*
X114046748Y-84292533D01*
X113907466Y-84153251D01*
X113907462Y-84153248D01*
X113743684Y-84043814D01*
X113743671Y-84043807D01*
X113561693Y-83968430D01*
X113561681Y-83968427D01*
X113368495Y-83930000D01*
X112970000Y-83930000D01*
X112970000Y-84630000D01*
X112470000Y-84630000D01*
X112470000Y-83930000D01*
X112071504Y-83930000D01*
X111878318Y-83968427D01*
X111878306Y-83968430D01*
X111696328Y-84043807D01*
X111696315Y-84043814D01*
X111532537Y-84153248D01*
X111532533Y-84153251D01*
X111393251Y-84292533D01*
X111393248Y-84292537D01*
X111283814Y-84456315D01*
X111283807Y-84456328D01*
X111208430Y-84638307D01*
X111208430Y-84638309D01*
X111200138Y-84680000D01*
X100830694Y-84680000D01*
X100878183Y-84637929D01*
X100974818Y-84497930D01*
X101035140Y-84338872D01*
X101055645Y-84170000D01*
X101035140Y-84001128D01*
X101016178Y-83951130D01*
X101001366Y-83912072D01*
X100974818Y-83842070D01*
X100878183Y-83702071D01*
X100750852Y-83589266D01*
X100750849Y-83589263D01*
X100600226Y-83510210D01*
X100435056Y-83469500D01*
X100264944Y-83469500D01*
X100099774Y-83510209D01*
X100099774Y-83510210D01*
X100082624Y-83519211D01*
X100014115Y-83532935D01*
X99967376Y-83519211D01*
X99950225Y-83510210D01*
X99950225Y-83510209D01*
X99785056Y-83469500D01*
X99614944Y-83469500D01*
X99449773Y-83510210D01*
X99299150Y-83589263D01*
X99171816Y-83702072D01*
X99075182Y-83842068D01*
X99014860Y-84001125D01*
X99014859Y-84001130D01*
X98994355Y-84170000D01*
X70229542Y-84170000D01*
X70184818Y-84052070D01*
X70179119Y-84043814D01*
X70127083Y-83968427D01*
X70088183Y-83912071D01*
X69960852Y-83799266D01*
X69960849Y-83799263D01*
X69810226Y-83720210D01*
X69645056Y-83679500D01*
X69474944Y-83679500D01*
X69309773Y-83720210D01*
X69159150Y-83799263D01*
X69031816Y-83912072D01*
X68935182Y-84052068D01*
X68874860Y-84211125D01*
X68874859Y-84211130D01*
X68854355Y-84380000D01*
X65090580Y-84380000D01*
X65125140Y-84288872D01*
X65145645Y-84120000D01*
X65125140Y-83951128D01*
X65064818Y-83792070D01*
X65015216Y-83720210D01*
X64968181Y-83652068D01*
X64963209Y-83646456D01*
X64965563Y-83644370D01*
X64936036Y-83597269D01*
X64936822Y-83527404D01*
X64975256Y-83469054D01*
X65039134Y-83440746D01*
X65085069Y-83443277D01*
X65154944Y-83460500D01*
X65154946Y-83460500D01*
X65325056Y-83460500D01*
X65489373Y-83420000D01*
X70304355Y-83420000D01*
X70324859Y-83588869D01*
X70324860Y-83588874D01*
X70385182Y-83747931D01*
X70420615Y-83799263D01*
X70481817Y-83887929D01*
X70572681Y-83968427D01*
X70609150Y-84000736D01*
X70759773Y-84079789D01*
X70759775Y-84079790D01*
X70924944Y-84120500D01*
X71095056Y-84120500D01*
X71260225Y-84079790D01*
X71339692Y-84038081D01*
X71410849Y-84000736D01*
X71410850Y-84000734D01*
X71410852Y-84000734D01*
X71538183Y-83887929D01*
X71634818Y-83747930D01*
X71695140Y-83588872D01*
X71715645Y-83420000D01*
X71695140Y-83251128D01*
X71689262Y-83235630D01*
X71634817Y-83092068D01*
X71600476Y-83042318D01*
X71538183Y-82952071D01*
X71410852Y-82839266D01*
X71410849Y-82839263D01*
X71260226Y-82760210D01*
X71095056Y-82719500D01*
X70924944Y-82719500D01*
X70759773Y-82760210D01*
X70609150Y-82839263D01*
X70481816Y-82952072D01*
X70385182Y-83092068D01*
X70324860Y-83251125D01*
X70324859Y-83251130D01*
X70304355Y-83420000D01*
X65489373Y-83420000D01*
X65490225Y-83419790D01*
X65618276Y-83352583D01*
X65640849Y-83340736D01*
X65640850Y-83340734D01*
X65640852Y-83340734D01*
X65768183Y-83227929D01*
X65864818Y-83087930D01*
X65925140Y-82928872D01*
X65945645Y-82760000D01*
X65925140Y-82591128D01*
X65864818Y-82432070D01*
X65768183Y-82292071D01*
X65640852Y-82179266D01*
X65640849Y-82179263D01*
X65490226Y-82100210D01*
X65325056Y-82059500D01*
X65154944Y-82059500D01*
X64989773Y-82100210D01*
X64839150Y-82179263D01*
X64711816Y-82292072D01*
X64615182Y-82432068D01*
X64554860Y-82591125D01*
X64554859Y-82591130D01*
X64534355Y-82760000D01*
X64554859Y-82928869D01*
X64554860Y-82928874D01*
X64615182Y-83087931D01*
X64711818Y-83227931D01*
X64716791Y-83233544D01*
X64714435Y-83235630D01*
X64743959Y-83282718D01*
X64743180Y-83352583D01*
X64704753Y-83410937D01*
X64640877Y-83439251D01*
X64594925Y-83436721D01*
X64525056Y-83419500D01*
X64354944Y-83419500D01*
X64189773Y-83460210D01*
X64039149Y-83539264D01*
X64039147Y-83539266D01*
X64019163Y-83556970D01*
X63955930Y-83586690D01*
X63907264Y-83584550D01*
X63765057Y-83549500D01*
X63765056Y-83549500D01*
X63594944Y-83549500D01*
X63429773Y-83590210D01*
X63279150Y-83669263D01*
X63151816Y-83782072D01*
X63055182Y-83922068D01*
X62994860Y-84081125D01*
X62994859Y-84081130D01*
X62974355Y-84250000D01*
X58564215Y-84250000D01*
X58467466Y-84153251D01*
X58467462Y-84153248D01*
X58303684Y-84043814D01*
X58303671Y-84043807D01*
X58121693Y-83968430D01*
X58121681Y-83968427D01*
X57928495Y-83930000D01*
X57530000Y-83930000D01*
X57530000Y-84630000D01*
X57030000Y-84630000D01*
X57030000Y-83930000D01*
X56631504Y-83930000D01*
X56438318Y-83968427D01*
X56438306Y-83968430D01*
X56256328Y-84043807D01*
X56256315Y-84043814D01*
X56092537Y-84153248D01*
X56092533Y-84153251D01*
X55953251Y-84292533D01*
X55953248Y-84292537D01*
X55843814Y-84456315D01*
X55843807Y-84456328D01*
X55768430Y-84638307D01*
X55768430Y-84638309D01*
X55760138Y-84680000D01*
X54369862Y-84680000D01*
X54361569Y-84638309D01*
X54361569Y-84638307D01*
X54286192Y-84456328D01*
X54286185Y-84456315D01*
X54176751Y-84292537D01*
X54176748Y-84292533D01*
X54037466Y-84153251D01*
X54037462Y-84153248D01*
X53873684Y-84043814D01*
X53873671Y-84043807D01*
X53691693Y-83968430D01*
X53691681Y-83968427D01*
X53498495Y-83930000D01*
X53350000Y-83930000D01*
X53350000Y-84630000D01*
X52850000Y-84630000D01*
X52850000Y-83930000D01*
X52701504Y-83930000D01*
X52508318Y-83968427D01*
X52508306Y-83968430D01*
X52326328Y-84043807D01*
X52326315Y-84043814D01*
X52162537Y-84153248D01*
X52162533Y-84153251D01*
X52023251Y-84292533D01*
X52023248Y-84292537D01*
X51913814Y-84456315D01*
X51913807Y-84456328D01*
X51838430Y-84638307D01*
X51838430Y-84638309D01*
X51830138Y-84680000D01*
X50500500Y-84680000D01*
X50500500Y-81570000D01*
X72674355Y-81570000D01*
X72694859Y-81738869D01*
X72694860Y-81738874D01*
X72755182Y-81897931D01*
X72809292Y-81976321D01*
X72851817Y-82037929D01*
X72922118Y-82100210D01*
X72979150Y-82150736D01*
X73093021Y-82210500D01*
X73129775Y-82229790D01*
X73294944Y-82270500D01*
X73465056Y-82270500D01*
X73630225Y-82229790D01*
X73780852Y-82150734D01*
X73881638Y-82061445D01*
X73944868Y-82031725D01*
X74014132Y-82040908D01*
X74046086Y-82061443D01*
X74073728Y-82085933D01*
X74079150Y-82090736D01*
X74193467Y-82150734D01*
X74229775Y-82169790D01*
X74394944Y-82210500D01*
X74565056Y-82210500D01*
X74730225Y-82169790D01*
X74809692Y-82128081D01*
X74880849Y-82090736D01*
X74880850Y-82090734D01*
X74880852Y-82090734D01*
X75008183Y-81977929D01*
X75104818Y-81837930D01*
X75165140Y-81678872D01*
X75185645Y-81510000D01*
X75165140Y-81341128D01*
X75104818Y-81182070D01*
X75008183Y-81042071D01*
X74880852Y-80929266D01*
X74880849Y-80929263D01*
X74730226Y-80850210D01*
X74565056Y-80809500D01*
X74394944Y-80809500D01*
X74229773Y-80850210D01*
X74079150Y-80929264D01*
X73978363Y-81018553D01*
X73915129Y-81048274D01*
X73845866Y-81039090D01*
X73813910Y-81018553D01*
X73780852Y-80989266D01*
X73780850Y-80989265D01*
X73780849Y-80989264D01*
X73630226Y-80910210D01*
X73465056Y-80869500D01*
X73294944Y-80869500D01*
X73129773Y-80910210D01*
X72979150Y-80989263D01*
X72851816Y-81102072D01*
X72755182Y-81242068D01*
X72694860Y-81401125D01*
X72694859Y-81401130D01*
X72674355Y-81570000D01*
X50500500Y-81570000D01*
X50500500Y-80200000D01*
X62854355Y-80200000D01*
X62874859Y-80368869D01*
X62874860Y-80368874D01*
X62935182Y-80527931D01*
X62997475Y-80618177D01*
X63031817Y-80667929D01*
X63137505Y-80761560D01*
X63159150Y-80780736D01*
X63291522Y-80850210D01*
X63309775Y-80859790D01*
X63474944Y-80900500D01*
X63645056Y-80900500D01*
X63810225Y-80859790D01*
X63906044Y-80809500D01*
X63960849Y-80780736D01*
X63960850Y-80780734D01*
X63960852Y-80780734D01*
X64088183Y-80667929D01*
X64184818Y-80527930D01*
X64245140Y-80368872D01*
X64265645Y-80200000D01*
X64245140Y-80031128D01*
X64184818Y-79872070D01*
X64088183Y-79732071D01*
X63960852Y-79619266D01*
X63960849Y-79619263D01*
X63810226Y-79540210D01*
X63645056Y-79499500D01*
X63474944Y-79499500D01*
X63309773Y-79540210D01*
X63159150Y-79619263D01*
X63031816Y-79732072D01*
X62935182Y-79872068D01*
X62874860Y-80031125D01*
X62874859Y-80031130D01*
X62854355Y-80200000D01*
X50500500Y-80200000D01*
X50500500Y-76249999D01*
X51834950Y-76249999D01*
X51834950Y-76250000D01*
X52854670Y-76250000D01*
X52834925Y-76269745D01*
X52785556Y-76355255D01*
X52760000Y-76450630D01*
X52760000Y-76549370D01*
X52785556Y-76644745D01*
X52834925Y-76730255D01*
X52854670Y-76750000D01*
X51834950Y-76750000D01*
X51838932Y-76775144D01*
X51896082Y-76951037D01*
X51896084Y-76951043D01*
X51980052Y-77115837D01*
X52088754Y-77265454D01*
X52088758Y-77265459D01*
X52219540Y-77396241D01*
X52219545Y-77396245D01*
X52369162Y-77504947D01*
X52533956Y-77588915D01*
X52533959Y-77588916D01*
X52709852Y-77646066D01*
X52892527Y-77675000D01*
X53310000Y-77675000D01*
X53310000Y-76875000D01*
X53810000Y-76875000D01*
X53810000Y-77675000D01*
X54227473Y-77675000D01*
X54410147Y-77646066D01*
X54586040Y-77588916D01*
X54586043Y-77588915D01*
X54750837Y-77504947D01*
X54900454Y-77396245D01*
X54900459Y-77396241D01*
X55031241Y-77265459D01*
X55031245Y-77265454D01*
X55139947Y-77115837D01*
X55223915Y-76951043D01*
X55223917Y-76951037D01*
X55281067Y-76775144D01*
X55285049Y-76750000D01*
X54265330Y-76750000D01*
X54285075Y-76730255D01*
X54334444Y-76644745D01*
X54360000Y-76549370D01*
X54360000Y-76450630D01*
X54334444Y-76355255D01*
X54285075Y-76269745D01*
X54265330Y-76250000D01*
X55285050Y-76250000D01*
X55285049Y-76249999D01*
X57334950Y-76249999D01*
X57334950Y-76250000D01*
X58404670Y-76250000D01*
X58384925Y-76269745D01*
X58335556Y-76355255D01*
X58310000Y-76450630D01*
X58310000Y-76549370D01*
X58335556Y-76644745D01*
X58384925Y-76730255D01*
X58404670Y-76750000D01*
X57334950Y-76750000D01*
X57338932Y-76775144D01*
X57396082Y-76951037D01*
X57396084Y-76951043D01*
X57480052Y-77115837D01*
X57588754Y-77265454D01*
X57588758Y-77265459D01*
X57719540Y-77396241D01*
X57719545Y-77396245D01*
X57869162Y-77504947D01*
X58033956Y-77588915D01*
X58033959Y-77588916D01*
X58209852Y-77646066D01*
X58392527Y-77675000D01*
X59310000Y-77675000D01*
X59310000Y-76875000D01*
X59810000Y-76875000D01*
X59810000Y-77675000D01*
X60727473Y-77675000D01*
X60910147Y-77646066D01*
X61086040Y-77588916D01*
X61086043Y-77588915D01*
X61123165Y-77570000D01*
X62854355Y-77570000D01*
X62874859Y-77738869D01*
X62874860Y-77738874D01*
X62935182Y-77897931D01*
X62997475Y-77988177D01*
X63031817Y-78037929D01*
X63137505Y-78131560D01*
X63159150Y-78150736D01*
X63309773Y-78229789D01*
X63309775Y-78229790D01*
X63474944Y-78270500D01*
X63645056Y-78270500D01*
X63810225Y-78229790D01*
X63889692Y-78188081D01*
X63960849Y-78150736D01*
X63960850Y-78150734D01*
X63960852Y-78150734D01*
X64088183Y-78037929D01*
X64184818Y-77897930D01*
X64245140Y-77738872D01*
X64265645Y-77570000D01*
X64245140Y-77401128D01*
X64184818Y-77242070D01*
X64088183Y-77102071D01*
X63960852Y-76989266D01*
X63960849Y-76989263D01*
X63810226Y-76910210D01*
X63645056Y-76869500D01*
X63474944Y-76869500D01*
X63309773Y-76910210D01*
X63159150Y-76989263D01*
X63031816Y-77102072D01*
X62935182Y-77242068D01*
X62874860Y-77401125D01*
X62874859Y-77401130D01*
X62854355Y-77570000D01*
X61123165Y-77570000D01*
X61250837Y-77504947D01*
X61400454Y-77396245D01*
X61400459Y-77396241D01*
X61531241Y-77265459D01*
X61531245Y-77265454D01*
X61639947Y-77115837D01*
X61723915Y-76951043D01*
X61723917Y-76951037D01*
X61781067Y-76775144D01*
X61785049Y-76750000D01*
X60715330Y-76750000D01*
X60735075Y-76730255D01*
X60784444Y-76644745D01*
X60810000Y-76549370D01*
X60810000Y-76450630D01*
X60784444Y-76355255D01*
X60735075Y-76269745D01*
X60715330Y-76250000D01*
X61785050Y-76250000D01*
X61785049Y-76249999D01*
X61781067Y-76224855D01*
X61723917Y-76048962D01*
X61723915Y-76048956D01*
X61639947Y-75884162D01*
X61531245Y-75734545D01*
X61531241Y-75734540D01*
X61496701Y-75700000D01*
X83944355Y-75700000D01*
X83964859Y-75868869D01*
X83964860Y-75868874D01*
X84025182Y-76027931D01*
X84039695Y-76048956D01*
X84121817Y-76167929D01*
X84249148Y-76280734D01*
X84395233Y-76357406D01*
X84445442Y-76405988D01*
X84461417Y-76474007D01*
X84439654Y-76537639D01*
X84395185Y-76602063D01*
X84395182Y-76602068D01*
X84334860Y-76761125D01*
X84334859Y-76761130D01*
X84314355Y-76930000D01*
X84334859Y-77098869D01*
X84334860Y-77098874D01*
X84395182Y-77257931D01*
X84457475Y-77348177D01*
X84491817Y-77397929D01*
X84597505Y-77491560D01*
X84619150Y-77510736D01*
X84768108Y-77588915D01*
X84769775Y-77589790D01*
X84934944Y-77630500D01*
X85105056Y-77630500D01*
X85270225Y-77589790D01*
X85349692Y-77548081D01*
X85420849Y-77510736D01*
X85420850Y-77510734D01*
X85420852Y-77510734D01*
X85548183Y-77397929D01*
X85644818Y-77257930D01*
X85705140Y-77098872D01*
X85725645Y-76930000D01*
X85705140Y-76761128D01*
X85644818Y-76602070D01*
X85644813Y-76602063D01*
X85600344Y-76537639D01*
X85548183Y-76462071D01*
X85430037Y-76357403D01*
X85420849Y-76349263D01*
X85274769Y-76272594D01*
X85251417Y-76249999D01*
X108224950Y-76249999D01*
X108224950Y-76250000D01*
X109294670Y-76250000D01*
X109274925Y-76269745D01*
X109225556Y-76355255D01*
X109200000Y-76450630D01*
X109200000Y-76549370D01*
X109225556Y-76644745D01*
X109274925Y-76730255D01*
X109294670Y-76750000D01*
X108224950Y-76750000D01*
X108228932Y-76775144D01*
X108286082Y-76951037D01*
X108286084Y-76951043D01*
X108370052Y-77115837D01*
X108478754Y-77265454D01*
X108478758Y-77265459D01*
X108609540Y-77396241D01*
X108609545Y-77396245D01*
X108759162Y-77504947D01*
X108923956Y-77588915D01*
X108923959Y-77588916D01*
X109099852Y-77646066D01*
X109282527Y-77675000D01*
X110200000Y-77675000D01*
X110200000Y-76875000D01*
X110700000Y-76875000D01*
X110700000Y-77675000D01*
X111617473Y-77675000D01*
X111800147Y-77646066D01*
X111976040Y-77588916D01*
X111976043Y-77588915D01*
X112140837Y-77504947D01*
X112290454Y-77396245D01*
X112290459Y-77396241D01*
X112421241Y-77265459D01*
X112421245Y-77265454D01*
X112529947Y-77115837D01*
X112613915Y-76951043D01*
X112613917Y-76951037D01*
X112671067Y-76775144D01*
X112675049Y-76750000D01*
X111605330Y-76750000D01*
X111625075Y-76730255D01*
X111674444Y-76644745D01*
X111700000Y-76549370D01*
X111700000Y-76450630D01*
X111674444Y-76355255D01*
X111625075Y-76269745D01*
X111605330Y-76250000D01*
X112675050Y-76250000D01*
X112675049Y-76249999D01*
X114724950Y-76249999D01*
X114724950Y-76250000D01*
X115744670Y-76250000D01*
X115724925Y-76269745D01*
X115675556Y-76355255D01*
X115650000Y-76450630D01*
X115650000Y-76549370D01*
X115675556Y-76644745D01*
X115724925Y-76730255D01*
X115744670Y-76750000D01*
X114724950Y-76750000D01*
X114728932Y-76775144D01*
X114786082Y-76951037D01*
X114786084Y-76951043D01*
X114870052Y-77115837D01*
X114978754Y-77265454D01*
X114978758Y-77265459D01*
X115109540Y-77396241D01*
X115109545Y-77396245D01*
X115259162Y-77504947D01*
X115423956Y-77588915D01*
X115423959Y-77588916D01*
X115599852Y-77646066D01*
X115782527Y-77675000D01*
X116200000Y-77675000D01*
X116200000Y-76875000D01*
X116700000Y-76875000D01*
X116700000Y-77675000D01*
X117117473Y-77675000D01*
X117300147Y-77646066D01*
X117476040Y-77588916D01*
X117476043Y-77588915D01*
X117640837Y-77504947D01*
X117790454Y-77396245D01*
X117790459Y-77396241D01*
X117921241Y-77265459D01*
X117921245Y-77265454D01*
X118029947Y-77115837D01*
X118113915Y-76951043D01*
X118113917Y-76951037D01*
X118171067Y-76775144D01*
X118175049Y-76750000D01*
X117155330Y-76750000D01*
X117175075Y-76730255D01*
X117224444Y-76644745D01*
X117250000Y-76549370D01*
X117250000Y-76450630D01*
X117224444Y-76355255D01*
X117175075Y-76269745D01*
X117155330Y-76250000D01*
X118175050Y-76250000D01*
X118175049Y-76249999D01*
X118171067Y-76224855D01*
X118113917Y-76048962D01*
X118113915Y-76048956D01*
X118029947Y-75884162D01*
X117921245Y-75734545D01*
X117921241Y-75734540D01*
X117790459Y-75603758D01*
X117790454Y-75603754D01*
X117640837Y-75495052D01*
X117476043Y-75411084D01*
X117476040Y-75411083D01*
X117300147Y-75353933D01*
X117117473Y-75325000D01*
X116700000Y-75325000D01*
X116700000Y-76125000D01*
X116200000Y-76125000D01*
X116200000Y-75325000D01*
X115782527Y-75325000D01*
X115599852Y-75353933D01*
X115423959Y-75411083D01*
X115423956Y-75411084D01*
X115259162Y-75495052D01*
X115109545Y-75603754D01*
X115109540Y-75603758D01*
X114978758Y-75734540D01*
X114978754Y-75734545D01*
X114870052Y-75884162D01*
X114786084Y-76048956D01*
X114786082Y-76048962D01*
X114728932Y-76224855D01*
X114724950Y-76249999D01*
X112675049Y-76249999D01*
X112671067Y-76224855D01*
X112613917Y-76048962D01*
X112613915Y-76048956D01*
X112529947Y-75884162D01*
X112421245Y-75734545D01*
X112421241Y-75734540D01*
X112290459Y-75603758D01*
X112290454Y-75603754D01*
X112140837Y-75495052D01*
X111976043Y-75411084D01*
X111976040Y-75411083D01*
X111800147Y-75353933D01*
X111617473Y-75325000D01*
X110700000Y-75325000D01*
X110700000Y-76125000D01*
X110200000Y-76125000D01*
X110200000Y-75325000D01*
X109282527Y-75325000D01*
X109099852Y-75353933D01*
X108923959Y-75411083D01*
X108923956Y-75411084D01*
X108759162Y-75495052D01*
X108609545Y-75603754D01*
X108609540Y-75603758D01*
X108478758Y-75734540D01*
X108478754Y-75734545D01*
X108370052Y-75884162D01*
X108286084Y-76048956D01*
X108286082Y-76048962D01*
X108228932Y-76224855D01*
X108224950Y-76249999D01*
X85251417Y-76249999D01*
X85224556Y-76224009D01*
X85208582Y-76155990D01*
X85230344Y-76092360D01*
X85274818Y-76027930D01*
X85335140Y-75868872D01*
X85355645Y-75700000D01*
X85335140Y-75531128D01*
X85274818Y-75372070D01*
X85178183Y-75232071D01*
X85050852Y-75119266D01*
X85050849Y-75119263D01*
X84900226Y-75040210D01*
X84735056Y-74999500D01*
X84564944Y-74999500D01*
X84399773Y-75040210D01*
X84249150Y-75119263D01*
X84121816Y-75232072D01*
X84025182Y-75372068D01*
X83964860Y-75531125D01*
X83964859Y-75531130D01*
X83944355Y-75700000D01*
X61496701Y-75700000D01*
X61400459Y-75603758D01*
X61400454Y-75603754D01*
X61250837Y-75495052D01*
X61086043Y-75411084D01*
X61086040Y-75411083D01*
X60910147Y-75353933D01*
X60727473Y-75325000D01*
X59810000Y-75325000D01*
X59810000Y-76125000D01*
X59310000Y-76125000D01*
X59310000Y-75325000D01*
X58392527Y-75325000D01*
X58209852Y-75353933D01*
X58033959Y-75411083D01*
X58033956Y-75411084D01*
X57869162Y-75495052D01*
X57719545Y-75603754D01*
X57719540Y-75603758D01*
X57588758Y-75734540D01*
X57588754Y-75734545D01*
X57480052Y-75884162D01*
X57396084Y-76048956D01*
X57396082Y-76048962D01*
X57338932Y-76224855D01*
X57334950Y-76249999D01*
X55285049Y-76249999D01*
X55281067Y-76224855D01*
X55223917Y-76048962D01*
X55223915Y-76048956D01*
X55139947Y-75884162D01*
X55031245Y-75734545D01*
X55031241Y-75734540D01*
X54900459Y-75603758D01*
X54900454Y-75603754D01*
X54750837Y-75495052D01*
X54586043Y-75411084D01*
X54586040Y-75411083D01*
X54410147Y-75353933D01*
X54227473Y-75325000D01*
X53810000Y-75325000D01*
X53810000Y-76125000D01*
X53310000Y-76125000D01*
X53310000Y-75325000D01*
X52892527Y-75325000D01*
X52709852Y-75353933D01*
X52533959Y-75411083D01*
X52533956Y-75411084D01*
X52369162Y-75495052D01*
X52219545Y-75603754D01*
X52219540Y-75603758D01*
X52088758Y-75734540D01*
X52088754Y-75734545D01*
X51980052Y-75884162D01*
X51896084Y-76048956D01*
X51896082Y-76048962D01*
X51838932Y-76224855D01*
X51834950Y-76249999D01*
X50500500Y-76249999D01*
X50500500Y-73610000D01*
X79454355Y-73610000D01*
X79474859Y-73778869D01*
X79474860Y-73778874D01*
X79535182Y-73937931D01*
X79597475Y-74028177D01*
X79631817Y-74077929D01*
X79737505Y-74171560D01*
X79759150Y-74190736D01*
X79909773Y-74269789D01*
X79909775Y-74269790D01*
X80074944Y-74310500D01*
X80245056Y-74310500D01*
X80410225Y-74269790D01*
X80489692Y-74228081D01*
X80560849Y-74190736D01*
X80560850Y-74190734D01*
X80560852Y-74190734D01*
X80688183Y-74077929D01*
X80768549Y-73961500D01*
X81274355Y-73961500D01*
X81294859Y-74130369D01*
X81294860Y-74130374D01*
X81355182Y-74289431D01*
X81397497Y-74350734D01*
X81451817Y-74429429D01*
X81498177Y-74470500D01*
X81579150Y-74542236D01*
X81729773Y-74621289D01*
X81729775Y-74621290D01*
X81894944Y-74662000D01*
X82065056Y-74662000D01*
X82230225Y-74621290D01*
X82309692Y-74579581D01*
X82380849Y-74542236D01*
X82380850Y-74542234D01*
X82380852Y-74542234D01*
X82508183Y-74429429D01*
X82604818Y-74289430D01*
X82665140Y-74130372D01*
X82673078Y-74065001D01*
X88434355Y-74065001D01*
X88454859Y-74233870D01*
X88454860Y-74233875D01*
X88515182Y-74392932D01*
X88540375Y-74429429D01*
X88611817Y-74532930D01*
X88711554Y-74621289D01*
X88739150Y-74645737D01*
X88889773Y-74724790D01*
X88889775Y-74724791D01*
X89054944Y-74765501D01*
X89225056Y-74765501D01*
X89390225Y-74724791D01*
X89469692Y-74683082D01*
X89540849Y-74645737D01*
X89540850Y-74645735D01*
X89540852Y-74645735D01*
X89668183Y-74532930D01*
X89764818Y-74392931D01*
X89825140Y-74233873D01*
X89829253Y-74200000D01*
X93194355Y-74200000D01*
X93214859Y-74368869D01*
X93214860Y-74368874D01*
X93275182Y-74527931D01*
X93337475Y-74618177D01*
X93371817Y-74667929D01*
X93477505Y-74761560D01*
X93499150Y-74780736D01*
X93649773Y-74859789D01*
X93649775Y-74859790D01*
X93814944Y-74900500D01*
X93985056Y-74900500D01*
X94150225Y-74859790D01*
X94229692Y-74818081D01*
X94300849Y-74780736D01*
X94300850Y-74780734D01*
X94300852Y-74780734D01*
X94428183Y-74667929D01*
X94524818Y-74527930D01*
X94585140Y-74368872D01*
X94605645Y-74200000D01*
X94585140Y-74031128D01*
X94524818Y-73872070D01*
X94454364Y-73770000D01*
X94974355Y-73770000D01*
X94994859Y-73938869D01*
X94994860Y-73938874D01*
X95055182Y-74097931D01*
X95117475Y-74188177D01*
X95151817Y-74237929D01*
X95233733Y-74310500D01*
X95279150Y-74350736D01*
X95429083Y-74429427D01*
X95429775Y-74429790D01*
X95594944Y-74470500D01*
X95765056Y-74470500D01*
X95930225Y-74429790D01*
X96009692Y-74388081D01*
X96080849Y-74350736D01*
X96080850Y-74350734D01*
X96080852Y-74350734D01*
X96208183Y-74237929D01*
X96304818Y-74097930D01*
X96365140Y-73938872D01*
X96385645Y-73770000D01*
X96365140Y-73601128D01*
X96304818Y-73442070D01*
X96304169Y-73441130D01*
X96262503Y-73380766D01*
X96208183Y-73302071D01*
X96080852Y-73189266D01*
X96080849Y-73189263D01*
X95930226Y-73110210D01*
X95765056Y-73069500D01*
X95594944Y-73069500D01*
X95429773Y-73110210D01*
X95279150Y-73189263D01*
X95162638Y-73292484D01*
X95152225Y-73301710D01*
X95151816Y-73302072D01*
X95055182Y-73442068D01*
X94994860Y-73601125D01*
X94994859Y-73601130D01*
X94974355Y-73770000D01*
X94454364Y-73770000D01*
X94428183Y-73732071D01*
X94300852Y-73619266D01*
X94300849Y-73619263D01*
X94150226Y-73540210D01*
X93985056Y-73499500D01*
X93814944Y-73499500D01*
X93649773Y-73540210D01*
X93499150Y-73619263D01*
X93371816Y-73732072D01*
X93275182Y-73872068D01*
X93214860Y-74031125D01*
X93214859Y-74031130D01*
X93194355Y-74200000D01*
X89829253Y-74200000D01*
X89845645Y-74065001D01*
X89825140Y-73896129D01*
X89764818Y-73737071D01*
X89761367Y-73732072D01*
X89693376Y-73633570D01*
X89668183Y-73597072D01*
X89540852Y-73484267D01*
X89540849Y-73484264D01*
X89390226Y-73405211D01*
X89225056Y-73364501D01*
X89054944Y-73364501D01*
X88889773Y-73405211D01*
X88739150Y-73484264D01*
X88611816Y-73597073D01*
X88515182Y-73737069D01*
X88454860Y-73896126D01*
X88454859Y-73896131D01*
X88434355Y-74065001D01*
X82673078Y-74065001D01*
X82685645Y-73961500D01*
X82665140Y-73792628D01*
X82656558Y-73770000D01*
X82604817Y-73633568D01*
X82570476Y-73583818D01*
X82508183Y-73493571D01*
X82380852Y-73380766D01*
X82380849Y-73380763D01*
X82230226Y-73301710D01*
X82065056Y-73261000D01*
X81894944Y-73261000D01*
X81729773Y-73301710D01*
X81579150Y-73380763D01*
X81451816Y-73493572D01*
X81355182Y-73633568D01*
X81294860Y-73792625D01*
X81294859Y-73792630D01*
X81274355Y-73961500D01*
X80768549Y-73961500D01*
X80784818Y-73937930D01*
X80845140Y-73778872D01*
X80865645Y-73610000D01*
X80845140Y-73441128D01*
X80844284Y-73438872D01*
X80816080Y-73364501D01*
X80784818Y-73282070D01*
X80770274Y-73261000D01*
X80750476Y-73232318D01*
X80688183Y-73142071D01*
X80560852Y-73029266D01*
X80560849Y-73029263D01*
X80410226Y-72950210D01*
X80245056Y-72909500D01*
X80074944Y-72909500D01*
X79909773Y-72950210D01*
X79759150Y-73029263D01*
X79631816Y-73142072D01*
X79535182Y-73282068D01*
X79474860Y-73441125D01*
X79474859Y-73441130D01*
X79454355Y-73610000D01*
X50500500Y-73610000D01*
X50500500Y-71240000D01*
X104354355Y-71240000D01*
X104374859Y-71408869D01*
X104374860Y-71408874D01*
X104435182Y-71567931D01*
X104444293Y-71581130D01*
X104531817Y-71707929D01*
X104579306Y-71750000D01*
X104659150Y-71820736D01*
X104809773Y-71899789D01*
X104809775Y-71899790D01*
X104974944Y-71940500D01*
X105145056Y-71940500D01*
X105310225Y-71899790D01*
X105389692Y-71858081D01*
X105460849Y-71820736D01*
X105460850Y-71820734D01*
X105460852Y-71820734D01*
X105540694Y-71750000D01*
X106674355Y-71750000D01*
X106694859Y-71918869D01*
X106694860Y-71918874D01*
X106755182Y-72077931D01*
X106817475Y-72168177D01*
X106851817Y-72217929D01*
X106957505Y-72311560D01*
X106979150Y-72330736D01*
X107129774Y-72409790D01*
X107161079Y-72417505D01*
X107249078Y-72439195D01*
X107309457Y-72474349D01*
X107335344Y-72515620D01*
X107355182Y-72567931D01*
X107384365Y-72610209D01*
X107451817Y-72707929D01*
X107557505Y-72801560D01*
X107579150Y-72820736D01*
X107729773Y-72899789D01*
X107729775Y-72899790D01*
X107769171Y-72909500D01*
X107778096Y-72911700D01*
X107838477Y-72946856D01*
X107870265Y-73009076D01*
X107864364Y-73076065D01*
X107854861Y-73101122D01*
X107854859Y-73101130D01*
X107834355Y-73270000D01*
X107854859Y-73438869D01*
X107854860Y-73438874D01*
X107915182Y-73597931D01*
X107977475Y-73688177D01*
X108011817Y-73737929D01*
X108073560Y-73792628D01*
X108139150Y-73850736D01*
X108289773Y-73929789D01*
X108289775Y-73929790D01*
X108454944Y-73970500D01*
X108625056Y-73970500D01*
X108790225Y-73929790D01*
X108900204Y-73872068D01*
X108940849Y-73850736D01*
X108940850Y-73850734D01*
X108940852Y-73850734D01*
X109068183Y-73737929D01*
X109164818Y-73597930D01*
X109225140Y-73438872D01*
X109245645Y-73270000D01*
X109225140Y-73101128D01*
X109164818Y-72942070D01*
X109163734Y-72940500D01*
X109130476Y-72892318D01*
X109068183Y-72802071D01*
X108940852Y-72689266D01*
X108940849Y-72689263D01*
X108790225Y-72610209D01*
X108790221Y-72610208D01*
X108741902Y-72598298D01*
X108681521Y-72563142D01*
X108649733Y-72500922D01*
X108655635Y-72433932D01*
X108665140Y-72408872D01*
X108685645Y-72240000D01*
X108665140Y-72071128D01*
X108604818Y-71912070D01*
X108508183Y-71772071D01*
X108380852Y-71659266D01*
X108380849Y-71659263D01*
X108230226Y-71580210D01*
X108162197Y-71563443D01*
X108110921Y-71550804D01*
X108050542Y-71515649D01*
X108024658Y-71474384D01*
X108004818Y-71422070D01*
X107908183Y-71282071D01*
X107780852Y-71169266D01*
X107780849Y-71169263D01*
X107630226Y-71090210D01*
X107465056Y-71049500D01*
X107294944Y-71049500D01*
X107129773Y-71090210D01*
X106979150Y-71169263D01*
X106851816Y-71282072D01*
X106755182Y-71422068D01*
X106694860Y-71581125D01*
X106694859Y-71581130D01*
X106674355Y-71750000D01*
X105540694Y-71750000D01*
X105588183Y-71707929D01*
X105684818Y-71567930D01*
X105702794Y-71520529D01*
X105744970Y-71464828D01*
X105810567Y-71440769D01*
X105818736Y-71440500D01*
X105975056Y-71440500D01*
X106140225Y-71399790D01*
X106219692Y-71358081D01*
X106290849Y-71320736D01*
X106290850Y-71320734D01*
X106290852Y-71320734D01*
X106418183Y-71207929D01*
X106514818Y-71067930D01*
X106575140Y-70908872D01*
X106595645Y-70740000D01*
X106575140Y-70571128D01*
X106514818Y-70412070D01*
X106418183Y-70272071D01*
X106290852Y-70159266D01*
X106290849Y-70159263D01*
X106140226Y-70080210D01*
X105975056Y-70039500D01*
X105804944Y-70039500D01*
X105639773Y-70080210D01*
X105489150Y-70159263D01*
X105361816Y-70272072D01*
X105265183Y-70412067D01*
X105247205Y-70459472D01*
X105205026Y-70515174D01*
X105139429Y-70539231D01*
X105131263Y-70539500D01*
X104974944Y-70539500D01*
X104809773Y-70580210D01*
X104659150Y-70659263D01*
X104531816Y-70772072D01*
X104435182Y-70912068D01*
X104374860Y-71071125D01*
X104374859Y-71071130D01*
X104354355Y-71240000D01*
X50500500Y-71240000D01*
X50500500Y-67360000D01*
X65414355Y-67360000D01*
X65434859Y-67528869D01*
X65434860Y-67528874D01*
X65495182Y-67687931D01*
X65503513Y-67700000D01*
X65591817Y-67827929D01*
X65660608Y-67888872D01*
X65719150Y-67940736D01*
X65869773Y-68019789D01*
X65869775Y-68019790D01*
X66034944Y-68060500D01*
X66205056Y-68060500D01*
X66370225Y-68019790D01*
X66449692Y-67978081D01*
X66520849Y-67940736D01*
X66520850Y-67940734D01*
X66520852Y-67940734D01*
X66648183Y-67827929D01*
X66695071Y-67760000D01*
X69150752Y-67760000D01*
X69171256Y-67928869D01*
X69171257Y-67928874D01*
X69231579Y-68087931D01*
X69286797Y-68167927D01*
X69328214Y-68227929D01*
X69433902Y-68321560D01*
X69455547Y-68340736D01*
X69569418Y-68400500D01*
X69606172Y-68419790D01*
X69771341Y-68460500D01*
X69941453Y-68460500D01*
X70106622Y-68419790D01*
X70186089Y-68378081D01*
X70257246Y-68340736D01*
X70257247Y-68340734D01*
X70257249Y-68340734D01*
X70384580Y-68227929D01*
X70481215Y-68087930D01*
X70541537Y-67928872D01*
X70562042Y-67760000D01*
X70557185Y-67720000D01*
X81624355Y-67720000D01*
X81644859Y-67888869D01*
X81644860Y-67888874D01*
X81705182Y-68047931D01*
X81732792Y-68087930D01*
X81801817Y-68187929D01*
X81906573Y-68280734D01*
X81929150Y-68300736D01*
X82079773Y-68379789D01*
X82079775Y-68379790D01*
X82244944Y-68420500D01*
X82415056Y-68420500D01*
X82580225Y-68379790D01*
X82659692Y-68338081D01*
X82730849Y-68300736D01*
X82730850Y-68300734D01*
X82730852Y-68300734D01*
X82858183Y-68187929D01*
X82954818Y-68047930D01*
X83015140Y-67888872D01*
X83035645Y-67720000D01*
X83033217Y-67700000D01*
X88894355Y-67700000D01*
X88914859Y-67868869D01*
X88914860Y-67868874D01*
X88975182Y-68027931D01*
X89016597Y-68087930D01*
X89071817Y-68167929D01*
X89177505Y-68261560D01*
X89199150Y-68280736D01*
X89313467Y-68340734D01*
X89349775Y-68359790D01*
X89514944Y-68400500D01*
X89685056Y-68400500D01*
X89850225Y-68359790D01*
X89962746Y-68300734D01*
X90000849Y-68280736D01*
X90000850Y-68280734D01*
X90000852Y-68280734D01*
X90128183Y-68167929D01*
X90224818Y-68027930D01*
X90285140Y-67868872D01*
X90305645Y-67700000D01*
X90285140Y-67531128D01*
X90284284Y-67528872D01*
X90224817Y-67372068D01*
X90182482Y-67310736D01*
X90128183Y-67232071D01*
X90033316Y-67148026D01*
X90000849Y-67119263D01*
X89850226Y-67040210D01*
X89685056Y-66999500D01*
X89514944Y-66999500D01*
X89349773Y-67040210D01*
X89199150Y-67119263D01*
X89071816Y-67232072D01*
X88975182Y-67372068D01*
X88914860Y-67531125D01*
X88914859Y-67531130D01*
X88894355Y-67700000D01*
X83033217Y-67700000D01*
X83015140Y-67551128D01*
X82954818Y-67392070D01*
X82953244Y-67389790D01*
X82885793Y-67292071D01*
X82858183Y-67252071D01*
X82730852Y-67139266D01*
X82730849Y-67139263D01*
X82580226Y-67060210D01*
X82415056Y-67019500D01*
X82244944Y-67019500D01*
X82079773Y-67060210D01*
X81929150Y-67139263D01*
X81801816Y-67252072D01*
X81705182Y-67392068D01*
X81644860Y-67551125D01*
X81644859Y-67551130D01*
X81624355Y-67720000D01*
X70557185Y-67720000D01*
X70541537Y-67591128D01*
X70481215Y-67432070D01*
X70480131Y-67430500D01*
X70431468Y-67360000D01*
X70384580Y-67292071D01*
X70270641Y-67191130D01*
X70257246Y-67179263D01*
X70106623Y-67100210D01*
X69941453Y-67059500D01*
X69771341Y-67059500D01*
X69606170Y-67100210D01*
X69455547Y-67179263D01*
X69328213Y-67292072D01*
X69231579Y-67432068D01*
X69171257Y-67591125D01*
X69171256Y-67591130D01*
X69150752Y-67760000D01*
X66695071Y-67760000D01*
X66744818Y-67687930D01*
X66805140Y-67528872D01*
X66825645Y-67360000D01*
X66805140Y-67191128D01*
X66800641Y-67179266D01*
X66755221Y-67059500D01*
X66744818Y-67032070D01*
X66736141Y-67019500D01*
X66681611Y-66940500D01*
X66648183Y-66892071D01*
X66520852Y-66779266D01*
X66520849Y-66779263D01*
X66426986Y-66730000D01*
X67484355Y-66730000D01*
X67504859Y-66898869D01*
X67504860Y-66898874D01*
X67565182Y-67057931D01*
X67621325Y-67139266D01*
X67661817Y-67197929D01*
X67767505Y-67291560D01*
X67789150Y-67310736D01*
X67939773Y-67389789D01*
X67939775Y-67389790D01*
X68104944Y-67430500D01*
X68275056Y-67430500D01*
X68440225Y-67389790D01*
X68519692Y-67348081D01*
X68590849Y-67310736D01*
X68590850Y-67310734D01*
X68590852Y-67310734D01*
X68718183Y-67197929D01*
X68814818Y-67057930D01*
X68875140Y-66898872D01*
X68895645Y-66730000D01*
X68875140Y-66561128D01*
X68814818Y-66402070D01*
X68718183Y-66262071D01*
X68693270Y-66240000D01*
X84044355Y-66240000D01*
X84064859Y-66408869D01*
X84064860Y-66408874D01*
X84125182Y-66567931D01*
X84132085Y-66577931D01*
X84221817Y-66707929D01*
X84302337Y-66779263D01*
X84349150Y-66820736D01*
X84498020Y-66898869D01*
X84499775Y-66899790D01*
X84664944Y-66940500D01*
X84835056Y-66940500D01*
X85000225Y-66899790D01*
X85079692Y-66858081D01*
X85150849Y-66820736D01*
X85150850Y-66820734D01*
X85150852Y-66820734D01*
X85278183Y-66707929D01*
X85374818Y-66567930D01*
X85435140Y-66408872D01*
X85455645Y-66240000D01*
X85435140Y-66071128D01*
X85374818Y-65912070D01*
X85278183Y-65772071D01*
X85275465Y-65769663D01*
X85274045Y-65767400D01*
X85273209Y-65766456D01*
X85273366Y-65766316D01*
X85238337Y-65710474D01*
X85239103Y-65640609D01*
X85277520Y-65582248D01*
X85341390Y-65553922D01*
X85387363Y-65556448D01*
X85484944Y-65580500D01*
X85655056Y-65580500D01*
X85820225Y-65539790D01*
X85899692Y-65498081D01*
X85970849Y-65460736D01*
X85970850Y-65460734D01*
X85970852Y-65460734D01*
X86098183Y-65347929D01*
X86194818Y-65207930D01*
X86255140Y-65048872D01*
X86275645Y-64880000D01*
X86255140Y-64711128D01*
X86194818Y-64552070D01*
X86186141Y-64539500D01*
X86131121Y-64459790D01*
X86098183Y-64412071D01*
X85970852Y-64299266D01*
X85970849Y-64299263D01*
X85820226Y-64220210D01*
X85655056Y-64179500D01*
X85484944Y-64179500D01*
X85319773Y-64220210D01*
X85169150Y-64299263D01*
X85077189Y-64380734D01*
X85041821Y-64412068D01*
X85041816Y-64412072D01*
X84945182Y-64552068D01*
X84884860Y-64711125D01*
X84884859Y-64711130D01*
X84864355Y-64880000D01*
X84884859Y-65048869D01*
X84884860Y-65048874D01*
X84945182Y-65207931D01*
X85023047Y-65320736D01*
X85041817Y-65347929D01*
X85044535Y-65350337D01*
X85045955Y-65352600D01*
X85046791Y-65353544D01*
X85046634Y-65353682D01*
X85081662Y-65409524D01*
X85080896Y-65479389D01*
X85042480Y-65537750D01*
X84978610Y-65566077D01*
X84932635Y-65563550D01*
X84835057Y-65539500D01*
X84835056Y-65539500D01*
X84664944Y-65539500D01*
X84499773Y-65580210D01*
X84349150Y-65659263D01*
X84232638Y-65762484D01*
X84227090Y-65767400D01*
X84221816Y-65772072D01*
X84125182Y-65912068D01*
X84064860Y-66071125D01*
X84064859Y-66071130D01*
X84044355Y-66240000D01*
X68693270Y-66240000D01*
X68590852Y-66149266D01*
X68590849Y-66149263D01*
X68440226Y-66070210D01*
X68275056Y-66029500D01*
X68104944Y-66029500D01*
X67939773Y-66070210D01*
X67789150Y-66149263D01*
X67661816Y-66262072D01*
X67565182Y-66402068D01*
X67504860Y-66561125D01*
X67504859Y-66561130D01*
X67484355Y-66730000D01*
X66426986Y-66730000D01*
X66370226Y-66700210D01*
X66205056Y-66659500D01*
X66034944Y-66659500D01*
X65869773Y-66700210D01*
X65719150Y-66779263D01*
X65591816Y-66892072D01*
X65495182Y-67032068D01*
X65434860Y-67191125D01*
X65434859Y-67191130D01*
X65414355Y-67360000D01*
X50500500Y-67360000D01*
X50500500Y-66250000D01*
X63824355Y-66250000D01*
X63844859Y-66418869D01*
X63844860Y-66418874D01*
X63905182Y-66577931D01*
X63961486Y-66659500D01*
X64001817Y-66717929D01*
X64107505Y-66811560D01*
X64129150Y-66830736D01*
X64279773Y-66909789D01*
X64279775Y-66909790D01*
X64444944Y-66950500D01*
X64615056Y-66950500D01*
X64780225Y-66909790D01*
X64859692Y-66868081D01*
X64930849Y-66830736D01*
X64930850Y-66830734D01*
X64930852Y-66830734D01*
X65058183Y-66717929D01*
X65154818Y-66577930D01*
X65215140Y-66418872D01*
X65235645Y-66250000D01*
X65215140Y-66081128D01*
X65211346Y-66071125D01*
X65154817Y-65922068D01*
X65120476Y-65872318D01*
X65058183Y-65782071D01*
X64930852Y-65669266D01*
X64930849Y-65669263D01*
X64780226Y-65590210D01*
X64615056Y-65549500D01*
X64444944Y-65549500D01*
X64279773Y-65590210D01*
X64129150Y-65669263D01*
X64001816Y-65782072D01*
X63905182Y-65922068D01*
X63844860Y-66081125D01*
X63844859Y-66081130D01*
X63824355Y-66250000D01*
X50500500Y-66250000D01*
X50500500Y-65240000D01*
X56024355Y-65240000D01*
X56044859Y-65408869D01*
X56044860Y-65408874D01*
X56105182Y-65567931D01*
X56155349Y-65640609D01*
X56201817Y-65707929D01*
X56307505Y-65801560D01*
X56329150Y-65820736D01*
X56479773Y-65899789D01*
X56479775Y-65899790D01*
X56644944Y-65940500D01*
X56815056Y-65940500D01*
X56980225Y-65899790D01*
X57059692Y-65858081D01*
X57130849Y-65820736D01*
X57130850Y-65820734D01*
X57130852Y-65820734D01*
X57258183Y-65707929D01*
X57354818Y-65567930D01*
X57415140Y-65408872D01*
X57435645Y-65240000D01*
X57415140Y-65071128D01*
X57354818Y-64912070D01*
X57352608Y-64908869D01*
X57319221Y-64860499D01*
X57258183Y-64772071D01*
X57221982Y-64740000D01*
X61124355Y-64740000D01*
X61144859Y-64908869D01*
X61144860Y-64908874D01*
X61205182Y-65067931D01*
X61267475Y-65158177D01*
X61301817Y-65207929D01*
X61407505Y-65301560D01*
X61429150Y-65320736D01*
X61579773Y-65399789D01*
X61579775Y-65399790D01*
X61744944Y-65440500D01*
X61915056Y-65440500D01*
X62080225Y-65399790D01*
X62168076Y-65353682D01*
X62230849Y-65320736D01*
X62230850Y-65320734D01*
X62230852Y-65320734D01*
X62358183Y-65207929D01*
X62454818Y-65067930D01*
X62515140Y-64908872D01*
X62535645Y-64740000D01*
X62515140Y-64571128D01*
X62454818Y-64412070D01*
X62446993Y-64400734D01*
X62376952Y-64299263D01*
X62358183Y-64272071D01*
X62253692Y-64179500D01*
X62230849Y-64159263D01*
X62080226Y-64080210D01*
X61915056Y-64039500D01*
X61744944Y-64039500D01*
X61579773Y-64080210D01*
X61429150Y-64159263D01*
X61301816Y-64272072D01*
X61205182Y-64412068D01*
X61144860Y-64571125D01*
X61144859Y-64571130D01*
X61124355Y-64740000D01*
X57221982Y-64740000D01*
X57130852Y-64659266D01*
X57130849Y-64659263D01*
X56980226Y-64580210D01*
X56815056Y-64539500D01*
X56644944Y-64539500D01*
X56479773Y-64580210D01*
X56329150Y-64659263D01*
X56201816Y-64772072D01*
X56105182Y-64912068D01*
X56044860Y-65071125D01*
X56044859Y-65071130D01*
X56024355Y-65240000D01*
X50500500Y-65240000D01*
X50500500Y-63789999D01*
X79354355Y-63789999D01*
X79374859Y-63958868D01*
X79374860Y-63958873D01*
X79435182Y-64117930D01*
X79497475Y-64208176D01*
X79531817Y-64257928D01*
X79611898Y-64328873D01*
X79659150Y-64370735D01*
X79793831Y-64441421D01*
X79809775Y-64449789D01*
X79974944Y-64490499D01*
X80145056Y-64490499D01*
X80310225Y-64449789D01*
X80403687Y-64400736D01*
X80460849Y-64370735D01*
X80460850Y-64370733D01*
X80460852Y-64370733D01*
X80588183Y-64257928D01*
X80684818Y-64117929D01*
X80745140Y-63958871D01*
X80765645Y-63789999D01*
X80762002Y-63759999D01*
X82034355Y-63759999D01*
X82054859Y-63928868D01*
X82054860Y-63928873D01*
X82115182Y-64087930D01*
X82164421Y-64159263D01*
X82211817Y-64227928D01*
X82339148Y-64340733D01*
X82489775Y-64419789D01*
X82515579Y-64426148D01*
X82575958Y-64461301D01*
X82590693Y-64481912D01*
X82590921Y-64481756D01*
X82595182Y-64487929D01*
X82691817Y-64627928D01*
X82785727Y-64711125D01*
X82819150Y-64740735D01*
X82969773Y-64819788D01*
X82969775Y-64819789D01*
X83134944Y-64860499D01*
X83305056Y-64860499D01*
X83470225Y-64819789D01*
X83561143Y-64772071D01*
X83620849Y-64740735D01*
X83620850Y-64740733D01*
X83620852Y-64740733D01*
X83748183Y-64627928D01*
X83844818Y-64487929D01*
X83905140Y-64328871D01*
X83925645Y-64159999D01*
X83905140Y-63991127D01*
X83844818Y-63832069D01*
X83836487Y-63820000D01*
X83820267Y-63796501D01*
X88784355Y-63796501D01*
X88804859Y-63965370D01*
X88804860Y-63965375D01*
X88865182Y-64124432D01*
X88927475Y-64214678D01*
X88961817Y-64264430D01*
X89047946Y-64340733D01*
X89089150Y-64377237D01*
X89235541Y-64454069D01*
X89239775Y-64456291D01*
X89404944Y-64497001D01*
X89575056Y-64497001D01*
X89740225Y-64456291D01*
X89846079Y-64400734D01*
X89890849Y-64377237D01*
X89890850Y-64377235D01*
X89890852Y-64377235D01*
X90018183Y-64264430D01*
X90114818Y-64124431D01*
X90175140Y-63965373D01*
X90192792Y-63820000D01*
X105794355Y-63820000D01*
X105814859Y-63988869D01*
X105814860Y-63988874D01*
X105875182Y-64147931D01*
X105930400Y-64227926D01*
X105971817Y-64287929D01*
X106031421Y-64340733D01*
X106099150Y-64400736D01*
X106249773Y-64479789D01*
X106249775Y-64479790D01*
X106414944Y-64520500D01*
X106585056Y-64520500D01*
X106750225Y-64479790D01*
X106773077Y-64467795D01*
X106841585Y-64454069D01*
X106862290Y-64458811D01*
X106862492Y-64457995D01*
X106983941Y-64487929D01*
X107034944Y-64500500D01*
X107205056Y-64500500D01*
X107370225Y-64459790D01*
X107482746Y-64400734D01*
X107520849Y-64380736D01*
X107520850Y-64380734D01*
X107520852Y-64380734D01*
X107648183Y-64267929D01*
X107744818Y-64127930D01*
X107805140Y-63968872D01*
X107825645Y-63800000D01*
X107805140Y-63631128D01*
X107744818Y-63472070D01*
X107742401Y-63468569D01*
X107710476Y-63422318D01*
X107648183Y-63332071D01*
X107553316Y-63248026D01*
X107520849Y-63219263D01*
X107370226Y-63140210D01*
X107205056Y-63099500D01*
X107034944Y-63099500D01*
X106869773Y-63140210D01*
X106846917Y-63152206D01*
X106778408Y-63165929D01*
X106757709Y-63161188D01*
X106757508Y-63162005D01*
X106585056Y-63119500D01*
X106414944Y-63119500D01*
X106249773Y-63160210D01*
X106099150Y-63239263D01*
X105971816Y-63352072D01*
X105875182Y-63492068D01*
X105814860Y-63651125D01*
X105814859Y-63651130D01*
X105794355Y-63820000D01*
X90192792Y-63820000D01*
X90195645Y-63796501D01*
X90175140Y-63627629D01*
X90114818Y-63468571D01*
X90107998Y-63458691D01*
X90080476Y-63418819D01*
X90018183Y-63328572D01*
X89894802Y-63219266D01*
X89890849Y-63215764D01*
X89740226Y-63136711D01*
X89575056Y-63096001D01*
X89404944Y-63096001D01*
X89239773Y-63136711D01*
X89089150Y-63215764D01*
X88961816Y-63328573D01*
X88865182Y-63468569D01*
X88804860Y-63627626D01*
X88804859Y-63627631D01*
X88784355Y-63796501D01*
X83820267Y-63796501D01*
X83795071Y-63759999D01*
X83748183Y-63692070D01*
X83620852Y-63579265D01*
X83620850Y-63579264D01*
X83620849Y-63579263D01*
X83470225Y-63500209D01*
X83444418Y-63493848D01*
X83384038Y-63458691D01*
X83369307Y-63438084D01*
X83369079Y-63438242D01*
X83361468Y-63427216D01*
X83268183Y-63292070D01*
X83173316Y-63208025D01*
X83140849Y-63179262D01*
X82990226Y-63100209D01*
X82825056Y-63059499D01*
X82654944Y-63059499D01*
X82489773Y-63100209D01*
X82339150Y-63179262D01*
X82211816Y-63292071D01*
X82115182Y-63432067D01*
X82054860Y-63591124D01*
X82054859Y-63591129D01*
X82034355Y-63759999D01*
X80762002Y-63759999D01*
X80745140Y-63621127D01*
X80684818Y-63462069D01*
X80682486Y-63458691D01*
X80608891Y-63352071D01*
X80588183Y-63322070D01*
X80472141Y-63219266D01*
X80460849Y-63209262D01*
X80310226Y-63130209D01*
X80145056Y-63089499D01*
X79974944Y-63089499D01*
X79809773Y-63130209D01*
X79659150Y-63209262D01*
X79531816Y-63322071D01*
X79435182Y-63462067D01*
X79374860Y-63621124D01*
X79374859Y-63621129D01*
X79354355Y-63789999D01*
X50500500Y-63789999D01*
X50500500Y-61749999D01*
X51834950Y-61749999D01*
X51834950Y-61750000D01*
X52854670Y-61750000D01*
X52834925Y-61769745D01*
X52785556Y-61855255D01*
X52760000Y-61950630D01*
X52760000Y-62049370D01*
X52785556Y-62144745D01*
X52834925Y-62230255D01*
X52854670Y-62250000D01*
X51834950Y-62250000D01*
X51838932Y-62275144D01*
X51896082Y-62451037D01*
X51896084Y-62451043D01*
X51980052Y-62615837D01*
X52088754Y-62765454D01*
X52088758Y-62765459D01*
X52219540Y-62896241D01*
X52219545Y-62896245D01*
X52369162Y-63004947D01*
X52533956Y-63088915D01*
X52533959Y-63088916D01*
X52709852Y-63146066D01*
X52892527Y-63175000D01*
X53310000Y-63175000D01*
X53310000Y-62375000D01*
X53810000Y-62375000D01*
X53810000Y-63175000D01*
X54227473Y-63175000D01*
X54410147Y-63146066D01*
X54586040Y-63088916D01*
X54586043Y-63088915D01*
X54750837Y-63004947D01*
X54900454Y-62896245D01*
X54900459Y-62896241D01*
X55031241Y-62765459D01*
X55031245Y-62765454D01*
X55139947Y-62615837D01*
X55223915Y-62451043D01*
X55223917Y-62451037D01*
X55281067Y-62275144D01*
X55285049Y-62250000D01*
X54265330Y-62250000D01*
X54285075Y-62230255D01*
X54334444Y-62144745D01*
X54360000Y-62049370D01*
X54360000Y-61950630D01*
X54334444Y-61855255D01*
X54285075Y-61769745D01*
X54265330Y-61750000D01*
X55285050Y-61750000D01*
X55285049Y-61749999D01*
X57334950Y-61749999D01*
X57334950Y-61750000D01*
X58404670Y-61750000D01*
X58384925Y-61769745D01*
X58335556Y-61855255D01*
X58310000Y-61950630D01*
X58310000Y-62049370D01*
X58335556Y-62144745D01*
X58384925Y-62230255D01*
X58404670Y-62250000D01*
X57334950Y-62250000D01*
X57338932Y-62275144D01*
X57396082Y-62451037D01*
X57396084Y-62451043D01*
X57480052Y-62615837D01*
X57588754Y-62765454D01*
X57588758Y-62765459D01*
X57719540Y-62896241D01*
X57719545Y-62896245D01*
X57869162Y-63004947D01*
X58033956Y-63088915D01*
X58033959Y-63088916D01*
X58209852Y-63146066D01*
X58392527Y-63175000D01*
X59310000Y-63175000D01*
X59310000Y-62375000D01*
X59810000Y-62375000D01*
X59810000Y-63175000D01*
X60727473Y-63175000D01*
X60910147Y-63146066D01*
X61086040Y-63088916D01*
X61086043Y-63088915D01*
X61250837Y-63004947D01*
X61400454Y-62896245D01*
X61400459Y-62896241D01*
X61531241Y-62765459D01*
X61531245Y-62765454D01*
X61639947Y-62615837D01*
X61723915Y-62451043D01*
X61723917Y-62451037D01*
X61781067Y-62275144D01*
X61785049Y-62250000D01*
X60715330Y-62250000D01*
X60735075Y-62230255D01*
X60784444Y-62144745D01*
X60810000Y-62049370D01*
X60810000Y-61950630D01*
X60784444Y-61855255D01*
X60735075Y-61769745D01*
X60715330Y-61750000D01*
X61785050Y-61750000D01*
X61785049Y-61749999D01*
X108224950Y-61749999D01*
X108224950Y-61750000D01*
X109294670Y-61750000D01*
X109274925Y-61769745D01*
X109225556Y-61855255D01*
X109200000Y-61950630D01*
X109200000Y-62049370D01*
X109225556Y-62144745D01*
X109274925Y-62230255D01*
X109294670Y-62250000D01*
X108224950Y-62250000D01*
X108228932Y-62275144D01*
X108286082Y-62451037D01*
X108286084Y-62451043D01*
X108370052Y-62615837D01*
X108478754Y-62765454D01*
X108478758Y-62765459D01*
X108609540Y-62896241D01*
X108609545Y-62896245D01*
X108759162Y-63004947D01*
X108923956Y-63088915D01*
X108923959Y-63088916D01*
X109099852Y-63146066D01*
X109282527Y-63175000D01*
X110200000Y-63175000D01*
X110200000Y-62375000D01*
X110700000Y-62375000D01*
X110700000Y-63175000D01*
X111617473Y-63175000D01*
X111800147Y-63146066D01*
X111976040Y-63088916D01*
X111976043Y-63088915D01*
X112140837Y-63004947D01*
X112290454Y-62896245D01*
X112290459Y-62896241D01*
X112421241Y-62765459D01*
X112421245Y-62765454D01*
X112529947Y-62615837D01*
X112613915Y-62451043D01*
X112613917Y-62451037D01*
X112671067Y-62275144D01*
X112675049Y-62250000D01*
X111605330Y-62250000D01*
X111625075Y-62230255D01*
X111674444Y-62144745D01*
X111700000Y-62049370D01*
X111700000Y-61950630D01*
X111674444Y-61855255D01*
X111625075Y-61769745D01*
X111605330Y-61750000D01*
X112675050Y-61750000D01*
X112675049Y-61749999D01*
X114724950Y-61749999D01*
X114724950Y-61750000D01*
X115744670Y-61750000D01*
X115724925Y-61769745D01*
X115675556Y-61855255D01*
X115650000Y-61950630D01*
X115650000Y-62049370D01*
X115675556Y-62144745D01*
X115724925Y-62230255D01*
X115744670Y-62250000D01*
X114724950Y-62250000D01*
X114728932Y-62275144D01*
X114786082Y-62451037D01*
X114786084Y-62451043D01*
X114870052Y-62615837D01*
X114978754Y-62765454D01*
X114978758Y-62765459D01*
X115109540Y-62896241D01*
X115109545Y-62896245D01*
X115259162Y-63004947D01*
X115423956Y-63088915D01*
X115423959Y-63088916D01*
X115599852Y-63146066D01*
X115782527Y-63175000D01*
X116200000Y-63175000D01*
X116200000Y-62375000D01*
X116700000Y-62375000D01*
X116700000Y-63175000D01*
X117117473Y-63175000D01*
X117300147Y-63146066D01*
X117476040Y-63088916D01*
X117476043Y-63088915D01*
X117640837Y-63004947D01*
X117790454Y-62896245D01*
X117790459Y-62896241D01*
X117921241Y-62765459D01*
X117921245Y-62765454D01*
X118029947Y-62615837D01*
X118113915Y-62451043D01*
X118113917Y-62451037D01*
X118171067Y-62275144D01*
X118175049Y-62250000D01*
X117155330Y-62250000D01*
X117175075Y-62230255D01*
X117224444Y-62144745D01*
X117250000Y-62049370D01*
X117250000Y-61950630D01*
X117224444Y-61855255D01*
X117175075Y-61769745D01*
X117155330Y-61750000D01*
X118175050Y-61750000D01*
X118175049Y-61749999D01*
X118171067Y-61724855D01*
X118113917Y-61548962D01*
X118113915Y-61548956D01*
X118029947Y-61384162D01*
X117921245Y-61234545D01*
X117921241Y-61234540D01*
X117790459Y-61103758D01*
X117790454Y-61103754D01*
X117640837Y-60995052D01*
X117476043Y-60911084D01*
X117476040Y-60911083D01*
X117300147Y-60853933D01*
X117117473Y-60825000D01*
X116700000Y-60825000D01*
X116700000Y-61625000D01*
X116200000Y-61625000D01*
X116200000Y-60825000D01*
X115782527Y-60825000D01*
X115599852Y-60853933D01*
X115423959Y-60911083D01*
X115423956Y-60911084D01*
X115259162Y-60995052D01*
X115109545Y-61103754D01*
X115109540Y-61103758D01*
X114978758Y-61234540D01*
X114978754Y-61234545D01*
X114870052Y-61384162D01*
X114786084Y-61548956D01*
X114786082Y-61548962D01*
X114728932Y-61724855D01*
X114724950Y-61749999D01*
X112675049Y-61749999D01*
X112671067Y-61724855D01*
X112613917Y-61548962D01*
X112613915Y-61548956D01*
X112529947Y-61384162D01*
X112421245Y-61234545D01*
X112421241Y-61234540D01*
X112290459Y-61103758D01*
X112290454Y-61103754D01*
X112140837Y-60995052D01*
X111976043Y-60911084D01*
X111976040Y-60911083D01*
X111800147Y-60853933D01*
X111617473Y-60825000D01*
X110700000Y-60825000D01*
X110700000Y-61625000D01*
X110200000Y-61625000D01*
X110200000Y-60825000D01*
X109282527Y-60825000D01*
X109099852Y-60853933D01*
X108923959Y-60911083D01*
X108923956Y-60911084D01*
X108759162Y-60995052D01*
X108609545Y-61103754D01*
X108609540Y-61103758D01*
X108478758Y-61234540D01*
X108478754Y-61234545D01*
X108370052Y-61384162D01*
X108286084Y-61548956D01*
X108286082Y-61548962D01*
X108228932Y-61724855D01*
X108224950Y-61749999D01*
X61785049Y-61749999D01*
X61781067Y-61724855D01*
X61723917Y-61548962D01*
X61723915Y-61548956D01*
X61639947Y-61384162D01*
X61531245Y-61234545D01*
X61531241Y-61234540D01*
X61400459Y-61103758D01*
X61400454Y-61103754D01*
X61250837Y-60995052D01*
X61086043Y-60911084D01*
X61086040Y-60911083D01*
X60910147Y-60853933D01*
X60727473Y-60825000D01*
X59810000Y-60825000D01*
X59810000Y-61625000D01*
X59310000Y-61625000D01*
X59310000Y-60825000D01*
X58392527Y-60825000D01*
X58209852Y-60853933D01*
X58033959Y-60911083D01*
X58033956Y-60911084D01*
X57869162Y-60995052D01*
X57719545Y-61103754D01*
X57719540Y-61103758D01*
X57588758Y-61234540D01*
X57588754Y-61234545D01*
X57480052Y-61384162D01*
X57396084Y-61548956D01*
X57396082Y-61548962D01*
X57338932Y-61724855D01*
X57334950Y-61749999D01*
X55285049Y-61749999D01*
X55281067Y-61724855D01*
X55223917Y-61548962D01*
X55223915Y-61548956D01*
X55139947Y-61384162D01*
X55031245Y-61234545D01*
X55031241Y-61234540D01*
X54900459Y-61103758D01*
X54900454Y-61103754D01*
X54750837Y-60995052D01*
X54586043Y-60911084D01*
X54586040Y-60911083D01*
X54410147Y-60853933D01*
X54227473Y-60825000D01*
X53810000Y-60825000D01*
X53810000Y-61625000D01*
X53310000Y-61625000D01*
X53310000Y-60825000D01*
X52892527Y-60825000D01*
X52709852Y-60853933D01*
X52533959Y-60911083D01*
X52533956Y-60911084D01*
X52369162Y-60995052D01*
X52219545Y-61103754D01*
X52219540Y-61103758D01*
X52088758Y-61234540D01*
X52088754Y-61234545D01*
X51980052Y-61384162D01*
X51896084Y-61548956D01*
X51896082Y-61548962D01*
X51838932Y-61724855D01*
X51834950Y-61749999D01*
X50500500Y-61749999D01*
X50500500Y-60220000D01*
X88174355Y-60220000D01*
X88194859Y-60388869D01*
X88194860Y-60388874D01*
X88255182Y-60547931D01*
X88317475Y-60638177D01*
X88351817Y-60687929D01*
X88457505Y-60781560D01*
X88479150Y-60800736D01*
X88629773Y-60879789D01*
X88629775Y-60879790D01*
X88794944Y-60920500D01*
X88965056Y-60920500D01*
X89130225Y-60879790D01*
X89209692Y-60838081D01*
X89280849Y-60800736D01*
X89280850Y-60800734D01*
X89280852Y-60800734D01*
X89408183Y-60687929D01*
X89504818Y-60547930D01*
X89565140Y-60388872D01*
X89585645Y-60220000D01*
X89565140Y-60051128D01*
X89504818Y-59892070D01*
X89408183Y-59752071D01*
X89280852Y-59639266D01*
X89280849Y-59639263D01*
X89130226Y-59560210D01*
X88965056Y-59519500D01*
X88794944Y-59519500D01*
X88629773Y-59560210D01*
X88479150Y-59639263D01*
X88351816Y-59752072D01*
X88255182Y-59892068D01*
X88194860Y-60051125D01*
X88194859Y-60051130D01*
X88174355Y-60220000D01*
X50500500Y-60220000D01*
X50500500Y-59390000D01*
X91574355Y-59390000D01*
X91594859Y-59558869D01*
X91594860Y-59558874D01*
X91655182Y-59717931D01*
X91717475Y-59808177D01*
X91751817Y-59857929D01*
X91857505Y-59951560D01*
X91879150Y-59970736D01*
X92029773Y-60049789D01*
X92029775Y-60049790D01*
X92194944Y-60090500D01*
X92365056Y-60090500D01*
X92530225Y-60049790D01*
X92609692Y-60008081D01*
X92680849Y-59970736D01*
X92680850Y-59970734D01*
X92680852Y-59970734D01*
X92808183Y-59857929D01*
X92904818Y-59717930D01*
X92965140Y-59558872D01*
X92985645Y-59390000D01*
X92965140Y-59221128D01*
X92904818Y-59062070D01*
X92808183Y-58922071D01*
X92680852Y-58809266D01*
X92680849Y-58809263D01*
X92530226Y-58730210D01*
X92365056Y-58689500D01*
X92194944Y-58689500D01*
X92029773Y-58730210D01*
X91879150Y-58809263D01*
X91751816Y-58922072D01*
X91655182Y-59062068D01*
X91594860Y-59221125D01*
X91594859Y-59221130D01*
X91574355Y-59390000D01*
X50500500Y-59390000D01*
X50500500Y-55000000D01*
X52295065Y-55000000D01*
X52314786Y-55326038D01*
X52373667Y-55647341D01*
X52470835Y-55959164D01*
X52470839Y-55959175D01*
X52604897Y-56257041D01*
X52604898Y-56257043D01*
X52773881Y-56536576D01*
X52921476Y-56724968D01*
X54063708Y-55582736D01*
X54160967Y-55716602D01*
X54283398Y-55839033D01*
X54417262Y-55936290D01*
X53275030Y-57078522D01*
X53275030Y-57078523D01*
X53463423Y-57226118D01*
X53742956Y-57395101D01*
X53742958Y-57395102D01*
X54040824Y-57529160D01*
X54040835Y-57529164D01*
X54352658Y-57626332D01*
X54673961Y-57685213D01*
X55000000Y-57704934D01*
X55326038Y-57685213D01*
X55647341Y-57626332D01*
X55860208Y-57560000D01*
X88154355Y-57560000D01*
X88174859Y-57728869D01*
X88174860Y-57728874D01*
X88235182Y-57887931D01*
X88297475Y-57978177D01*
X88331817Y-58027929D01*
X88437505Y-58121560D01*
X88459150Y-58140736D01*
X88609773Y-58219789D01*
X88609775Y-58219790D01*
X88774944Y-58260500D01*
X88945056Y-58260500D01*
X89110225Y-58219790D01*
X89189692Y-58178081D01*
X89260849Y-58140736D01*
X89260850Y-58140734D01*
X89260852Y-58140734D01*
X89388183Y-58027929D01*
X89484818Y-57887930D01*
X89545140Y-57728872D01*
X89565645Y-57560000D01*
X89545140Y-57391128D01*
X89484818Y-57232070D01*
X89480705Y-57226112D01*
X89450476Y-57182318D01*
X89388183Y-57092071D01*
X89260852Y-56979266D01*
X89260849Y-56979263D01*
X89110226Y-56900210D01*
X88945056Y-56859500D01*
X88774944Y-56859500D01*
X88609773Y-56900210D01*
X88459150Y-56979263D01*
X88331816Y-57092072D01*
X88235182Y-57232068D01*
X88174860Y-57391125D01*
X88174859Y-57391130D01*
X88154355Y-57560000D01*
X55860208Y-57560000D01*
X55959164Y-57529164D01*
X55959175Y-57529160D01*
X56257041Y-57395102D01*
X56257043Y-57395101D01*
X56536586Y-57226112D01*
X56724968Y-57078523D01*
X56724968Y-57078522D01*
X55582737Y-55936290D01*
X55716602Y-55839033D01*
X55839033Y-55716602D01*
X55936290Y-55582737D01*
X57078522Y-56724968D01*
X57078523Y-56724968D01*
X57226112Y-56536586D01*
X57395101Y-56257043D01*
X57395102Y-56257041D01*
X57529160Y-55959175D01*
X57529164Y-55959164D01*
X57626332Y-55647341D01*
X57685213Y-55326038D01*
X57693040Y-55196631D01*
X58833499Y-55196631D01*
X58859496Y-55327322D01*
X58859498Y-55327328D01*
X58910492Y-55450440D01*
X58910497Y-55450449D01*
X58984527Y-55561242D01*
X58984530Y-55561246D01*
X59078753Y-55655469D01*
X59078757Y-55655472D01*
X59189550Y-55729502D01*
X59189556Y-55729505D01*
X59189557Y-55729506D01*
X59312672Y-55780502D01*
X59312676Y-55780502D01*
X59312677Y-55780503D01*
X59443368Y-55806500D01*
X59443371Y-55806500D01*
X59576631Y-55806500D01*
X59677174Y-55786500D01*
X59707328Y-55780502D01*
X59830443Y-55729506D01*
X59941243Y-55655472D01*
X60035472Y-55561243D01*
X60109506Y-55450443D01*
X60160502Y-55327328D01*
X60186500Y-55196629D01*
X60186500Y-55063371D01*
X60186500Y-55063368D01*
X60160503Y-54932677D01*
X60160502Y-54932676D01*
X60160502Y-54932672D01*
X60126258Y-54850000D01*
X86224355Y-54850000D01*
X86244859Y-55018869D01*
X86244860Y-55018874D01*
X86305182Y-55177931D01*
X86360400Y-55257927D01*
X86401817Y-55317929D01*
X86507505Y-55411560D01*
X86529150Y-55430736D01*
X86643021Y-55490500D01*
X86679775Y-55509790D01*
X86844944Y-55550500D01*
X87015056Y-55550500D01*
X87180225Y-55509790D01*
X87293306Y-55450440D01*
X87330849Y-55430736D01*
X87330850Y-55430734D01*
X87330852Y-55430734D01*
X87458183Y-55317929D01*
X87554818Y-55177930D01*
X87615140Y-55018872D01*
X87635645Y-54850000D01*
X87628360Y-54790000D01*
X91584355Y-54790000D01*
X91604859Y-54958869D01*
X91604860Y-54958874D01*
X91665182Y-55117931D01*
X91706597Y-55177930D01*
X91761817Y-55257929D01*
X91840146Y-55327322D01*
X91889150Y-55370736D01*
X92002924Y-55430449D01*
X92039775Y-55449790D01*
X92204944Y-55490500D01*
X92375056Y-55490500D01*
X92540225Y-55449790D01*
X92619692Y-55408081D01*
X92690849Y-55370736D01*
X92690850Y-55370734D01*
X92690852Y-55370734D01*
X92818183Y-55257929D01*
X92874299Y-55176631D01*
X109743499Y-55176631D01*
X109769496Y-55307322D01*
X109769498Y-55307328D01*
X109820492Y-55430440D01*
X109820497Y-55430449D01*
X109894527Y-55541242D01*
X109894530Y-55541246D01*
X109988753Y-55635469D01*
X109988757Y-55635472D01*
X110099550Y-55709502D01*
X110099556Y-55709505D01*
X110099557Y-55709506D01*
X110222672Y-55760502D01*
X110222676Y-55760502D01*
X110222677Y-55760503D01*
X110353368Y-55786500D01*
X110353371Y-55786500D01*
X110486631Y-55786500D01*
X110574557Y-55769009D01*
X110617328Y-55760502D01*
X110740443Y-55709506D01*
X110851243Y-55635472D01*
X110945472Y-55541243D01*
X111019506Y-55430443D01*
X111070502Y-55307328D01*
X111080397Y-55257584D01*
X111096500Y-55176631D01*
X111096500Y-55043368D01*
X111087873Y-55000000D01*
X112295065Y-55000000D01*
X112314786Y-55326038D01*
X112373667Y-55647341D01*
X112470835Y-55959164D01*
X112470839Y-55959175D01*
X112604897Y-56257041D01*
X112604898Y-56257043D01*
X112773881Y-56536576D01*
X112921476Y-56724968D01*
X114063708Y-55582736D01*
X114160967Y-55716602D01*
X114283398Y-55839033D01*
X114417262Y-55936290D01*
X113275030Y-57078522D01*
X113275030Y-57078523D01*
X113463423Y-57226118D01*
X113742956Y-57395101D01*
X113742958Y-57395102D01*
X114040824Y-57529160D01*
X114040835Y-57529164D01*
X114352658Y-57626332D01*
X114673961Y-57685213D01*
X115000000Y-57704934D01*
X115326038Y-57685213D01*
X115647341Y-57626332D01*
X115959164Y-57529164D01*
X115959175Y-57529160D01*
X116257041Y-57395102D01*
X116257043Y-57395101D01*
X116536586Y-57226112D01*
X116724968Y-57078523D01*
X116724968Y-57078522D01*
X115582737Y-55936290D01*
X115716602Y-55839033D01*
X115839033Y-55716602D01*
X115936290Y-55582737D01*
X117078522Y-56724968D01*
X117078523Y-56724968D01*
X117226112Y-56536586D01*
X117395101Y-56257043D01*
X117395102Y-56257041D01*
X117529160Y-55959175D01*
X117529164Y-55959164D01*
X117626332Y-55647341D01*
X117685213Y-55326038D01*
X117704934Y-55000000D01*
X117685213Y-54673961D01*
X117626332Y-54352658D01*
X117529164Y-54040835D01*
X117529160Y-54040824D01*
X117395102Y-53742958D01*
X117395101Y-53742956D01*
X117226118Y-53463423D01*
X117078522Y-53275030D01*
X115936290Y-54417261D01*
X115839033Y-54283398D01*
X115716602Y-54160967D01*
X115582736Y-54063709D01*
X116724968Y-52921476D01*
X116536576Y-52773881D01*
X116257043Y-52604898D01*
X116257041Y-52604897D01*
X115959175Y-52470839D01*
X115959164Y-52470835D01*
X115647341Y-52373667D01*
X115326038Y-52314786D01*
X115000000Y-52295065D01*
X114673961Y-52314786D01*
X114352658Y-52373667D01*
X114040835Y-52470835D01*
X114040824Y-52470839D01*
X113742958Y-52604897D01*
X113742956Y-52604898D01*
X113463422Y-52773881D01*
X113463416Y-52773886D01*
X113275030Y-52921474D01*
X113275029Y-52921476D01*
X114417262Y-54063709D01*
X114283398Y-54160967D01*
X114160967Y-54283398D01*
X114063709Y-54417262D01*
X112921476Y-53275029D01*
X112921474Y-53275030D01*
X112773886Y-53463416D01*
X112773881Y-53463422D01*
X112604898Y-53742956D01*
X112604897Y-53742958D01*
X112470839Y-54040824D01*
X112470835Y-54040835D01*
X112373667Y-54352658D01*
X112314786Y-54673961D01*
X112295065Y-55000000D01*
X111087873Y-55000000D01*
X111070503Y-54912677D01*
X111070502Y-54912676D01*
X111070502Y-54912672D01*
X111027787Y-54809550D01*
X111019507Y-54789559D01*
X111019502Y-54789550D01*
X110945472Y-54678757D01*
X110945469Y-54678753D01*
X110851246Y-54584530D01*
X110851242Y-54584527D01*
X110740449Y-54510497D01*
X110740440Y-54510492D01*
X110617328Y-54459498D01*
X110617322Y-54459496D01*
X110486631Y-54433500D01*
X110486629Y-54433500D01*
X110353371Y-54433500D01*
X110353369Y-54433500D01*
X110222677Y-54459496D01*
X110222671Y-54459498D01*
X110099559Y-54510492D01*
X110099550Y-54510497D01*
X109988757Y-54584527D01*
X109988753Y-54584530D01*
X109894530Y-54678753D01*
X109894527Y-54678757D01*
X109820497Y-54789550D01*
X109820492Y-54789559D01*
X109769498Y-54912671D01*
X109769496Y-54912677D01*
X109743500Y-55043368D01*
X109743500Y-55043371D01*
X109743500Y-55176629D01*
X109743500Y-55176631D01*
X109743499Y-55176631D01*
X92874299Y-55176631D01*
X92914818Y-55117930D01*
X92975140Y-54958872D01*
X92995645Y-54790000D01*
X92975140Y-54621128D01*
X92914818Y-54462070D01*
X92913041Y-54459496D01*
X92859598Y-54382071D01*
X92818183Y-54322071D01*
X92690852Y-54209266D01*
X92690849Y-54209263D01*
X92540226Y-54130210D01*
X92375056Y-54089500D01*
X92204944Y-54089500D01*
X92039773Y-54130210D01*
X91889150Y-54209263D01*
X91761816Y-54322072D01*
X91665182Y-54462068D01*
X91604860Y-54621125D01*
X91604859Y-54621130D01*
X91584355Y-54790000D01*
X87628360Y-54790000D01*
X87615140Y-54681128D01*
X87603524Y-54650500D01*
X87578505Y-54584528D01*
X87554818Y-54522070D01*
X87546826Y-54510492D01*
X87482934Y-54417929D01*
X87458183Y-54382071D01*
X87330852Y-54269266D01*
X87330849Y-54269263D01*
X87180226Y-54190210D01*
X87015056Y-54149500D01*
X86844944Y-54149500D01*
X86679773Y-54190210D01*
X86529150Y-54269263D01*
X86401816Y-54382072D01*
X86305182Y-54522068D01*
X86244860Y-54681125D01*
X86244859Y-54681130D01*
X86224355Y-54850000D01*
X60126258Y-54850000D01*
X60109506Y-54809557D01*
X60109505Y-54809556D01*
X60109502Y-54809550D01*
X60035472Y-54698757D01*
X60035469Y-54698753D01*
X59941246Y-54604530D01*
X59941242Y-54604527D01*
X59830449Y-54530497D01*
X59830440Y-54530492D01*
X59707328Y-54479498D01*
X59707322Y-54479496D01*
X59576631Y-54453500D01*
X59576629Y-54453500D01*
X59443371Y-54453500D01*
X59443369Y-54453500D01*
X59312677Y-54479496D01*
X59312671Y-54479498D01*
X59189559Y-54530492D01*
X59189550Y-54530497D01*
X59078757Y-54604527D01*
X59078753Y-54604530D01*
X58984530Y-54698753D01*
X58984527Y-54698757D01*
X58910497Y-54809550D01*
X58910492Y-54809559D01*
X58859498Y-54932671D01*
X58859496Y-54932677D01*
X58833500Y-55063368D01*
X58833500Y-55063371D01*
X58833500Y-55196629D01*
X58833500Y-55196631D01*
X58833499Y-55196631D01*
X57693040Y-55196631D01*
X57704934Y-55000000D01*
X57685213Y-54673961D01*
X57626332Y-54352658D01*
X57529164Y-54040835D01*
X57529160Y-54040824D01*
X57488284Y-53950000D01*
X88204355Y-53950000D01*
X88224859Y-54118869D01*
X88224860Y-54118874D01*
X88285182Y-54277931D01*
X88315651Y-54322072D01*
X88381817Y-54417929D01*
X88486299Y-54510492D01*
X88509150Y-54530736D01*
X88649747Y-54604527D01*
X88659775Y-54609790D01*
X88824944Y-54650500D01*
X88995056Y-54650500D01*
X89160225Y-54609790D01*
X89239692Y-54568081D01*
X89310849Y-54530736D01*
X89310850Y-54530734D01*
X89310852Y-54530734D01*
X89438183Y-54417929D01*
X89534818Y-54277930D01*
X89595140Y-54118872D01*
X89615645Y-53950000D01*
X89595140Y-53781128D01*
X89534818Y-53622070D01*
X89438183Y-53482071D01*
X89310852Y-53369266D01*
X89310849Y-53369263D01*
X89160226Y-53290210D01*
X88995056Y-53249500D01*
X88824944Y-53249500D01*
X88659773Y-53290210D01*
X88509150Y-53369263D01*
X88381816Y-53482072D01*
X88285182Y-53622068D01*
X88224860Y-53781125D01*
X88224859Y-53781130D01*
X88204355Y-53950000D01*
X57488284Y-53950000D01*
X57395102Y-53742958D01*
X57395101Y-53742956D01*
X57226118Y-53463423D01*
X57078522Y-53275030D01*
X55936290Y-54417262D01*
X55839033Y-54283398D01*
X55716602Y-54160967D01*
X55582736Y-54063709D01*
X56724968Y-52921476D01*
X56536576Y-52773881D01*
X56257043Y-52604898D01*
X56257041Y-52604897D01*
X55959175Y-52470839D01*
X55959164Y-52470835D01*
X55647341Y-52373667D01*
X55326038Y-52314786D01*
X55000000Y-52295065D01*
X54673961Y-52314786D01*
X54352658Y-52373667D01*
X54040835Y-52470835D01*
X54040824Y-52470839D01*
X53742958Y-52604897D01*
X53742956Y-52604898D01*
X53463422Y-52773881D01*
X53463416Y-52773886D01*
X53275030Y-52921474D01*
X53275029Y-52921476D01*
X54417262Y-54063709D01*
X54283398Y-54160967D01*
X54160967Y-54283398D01*
X54063709Y-54417262D01*
X52921476Y-53275029D01*
X52921474Y-53275030D01*
X52773886Y-53463416D01*
X52773881Y-53463422D01*
X52604898Y-53742956D01*
X52604897Y-53742958D01*
X52470839Y-54040824D01*
X52470835Y-54040835D01*
X52373667Y-54352658D01*
X52314786Y-54673961D01*
X52295065Y-55000000D01*
X50500500Y-55000000D01*
X50500500Y-50624500D01*
X50520185Y-50557461D01*
X50572989Y-50511706D01*
X50624500Y-50500500D01*
X119375500Y-50500500D01*
X119442539Y-50520185D01*
G37*
G04 #@! TD.AperFunction*
M02*
