G04 #@! TF.GenerationSoftware,KiCad,Pcbnew,8.0.4*
G04 #@! TF.CreationDate,2024-09-01T18:21:08-07:00*
G04 #@! TF.ProjectId,HDMI Breakout,48444d49-2042-4726-9561-6b6f75742e6b,rev?*
G04 #@! TF.SameCoordinates,Original*
G04 #@! TF.FileFunction,Copper,L3,Inr*
G04 #@! TF.FilePolarity,Positive*
%FSLAX46Y46*%
G04 Gerber Fmt 4.6, Leading zero omitted, Abs format (unit mm)*
G04 Created by KiCad (PCBNEW 8.0.4) date 2024-09-01 18:21:08*
%MOMM*%
%LPD*%
G01*
G04 APERTURE LIST*
G04 #@! TA.AperFunction,ComponentPad*
%ADD10C,4.400000*%
G04 #@! TD*
G04 #@! TA.AperFunction,ComponentPad*
%ADD11O,3.500000X1.350000*%
G04 #@! TD*
G04 #@! TA.AperFunction,ComponentPad*
%ADD12O,2.500000X1.350000*%
G04 #@! TD*
G04 #@! TA.AperFunction,ComponentPad*
%ADD13O,1.600000X1.000000*%
G04 #@! TD*
G04 #@! TA.AperFunction,ComponentPad*
%ADD14O,2.100000X1.000000*%
G04 #@! TD*
G04 #@! TA.AperFunction,ViaPad*
%ADD15C,0.400000*%
G04 #@! TD*
G04 #@! TA.AperFunction,ViaPad*
%ADD16C,0.800000*%
G04 #@! TD*
G04 #@! TA.AperFunction,ViaPad*
%ADD17C,1.000000*%
G04 #@! TD*
G04 APERTURE END LIST*
D10*
X115000000Y-115000000D03*
X55000000Y-115000000D03*
X115000000Y-55000000D03*
X55000000Y-55000000D03*
D11*
X59560000Y-62000000D03*
D12*
X53560000Y-62000000D03*
D11*
X59560000Y-76500000D03*
D12*
X53560000Y-76500000D03*
D11*
X110450000Y-76500000D03*
D12*
X116450000Y-76500000D03*
D11*
X110450000Y-62000000D03*
D12*
X116450000Y-62000000D03*
D13*
X116900000Y-84930000D03*
D14*
X112720000Y-84930000D03*
D13*
X116900000Y-93570000D03*
D14*
X112720000Y-93570000D03*
D13*
X53100000Y-93570000D03*
D14*
X57280000Y-93570000D03*
D13*
X53100000Y-84930000D03*
D14*
X57280000Y-84930000D03*
D15*
X73380000Y-81570000D03*
X74480000Y-81510000D03*
X84960000Y-62100000D03*
X70100000Y-94250000D03*
X69590000Y-88400000D03*
X95890000Y-101140000D03*
X95890000Y-98820000D03*
X115720000Y-96180000D03*
X81980000Y-73961500D03*
X65530000Y-76380000D03*
X63620000Y-81800000D03*
X65240000Y-82760000D03*
X65160000Y-79240000D03*
X83220000Y-64159999D03*
X85020000Y-76930000D03*
X82740000Y-63759999D03*
X84650000Y-75700000D03*
X85570000Y-64880000D03*
X93900000Y-74200000D03*
X108540000Y-73270000D03*
X105890000Y-70740000D03*
X100350000Y-84170000D03*
X105060000Y-71240000D03*
X99700000Y-84170000D03*
X82330000Y-67720000D03*
X90740000Y-93060000D03*
X64440000Y-84120000D03*
X69205000Y-90575000D03*
X79980000Y-86620000D03*
X69856397Y-67760000D03*
X68190000Y-66730000D03*
X79340000Y-86660000D03*
X64530000Y-66250000D03*
X78630000Y-86660000D03*
X77950000Y-86700000D03*
X66120000Y-67360000D03*
X61830000Y-64740000D03*
X77320000Y-86700000D03*
X107980000Y-72240000D03*
X107120000Y-63800000D03*
X106500000Y-63820000D03*
X107380000Y-71750000D03*
X89750000Y-89420000D03*
X87380000Y-89450000D03*
X59330000Y-90140000D03*
X63680000Y-84250000D03*
X66880000Y-89890000D03*
X88500000Y-91550000D03*
X89310000Y-98630000D03*
X72830000Y-86900000D03*
X77380000Y-93250000D03*
X69640000Y-85180000D03*
X70850000Y-85180000D03*
X61050000Y-87040000D03*
X69560000Y-84380000D03*
X71440000Y-87850000D03*
X97570000Y-99490000D03*
X97580000Y-100480000D03*
X94280000Y-101560000D03*
X115330000Y-85920000D03*
X113060000Y-87500000D03*
X113010000Y-90480000D03*
X115030000Y-91710000D03*
X108060000Y-87220000D03*
X108210000Y-92880000D03*
X105540000Y-92880000D03*
X104750000Y-94810000D03*
X101780000Y-96320000D03*
X104120000Y-97920000D03*
X102840000Y-99330000D03*
X109830000Y-102000000D03*
X108610000Y-101980000D03*
X114530000Y-106460000D03*
X109200000Y-116620000D03*
X101830000Y-108320000D03*
X93090000Y-110580000D03*
X77000000Y-110670000D03*
X60880000Y-116660000D03*
X61650000Y-101990000D03*
X59990000Y-102020000D03*
X66560000Y-106500000D03*
X55560000Y-106500000D03*
X55280000Y-80840000D03*
X58720000Y-83220000D03*
D16*
X53810000Y-97950000D03*
D15*
X57910000Y-96470000D03*
X59180000Y-86840000D03*
X59780000Y-91650000D03*
X55630000Y-87710000D03*
X115000000Y-82140000D03*
X112240000Y-65260000D03*
X112240000Y-66740000D03*
X112240000Y-68250000D03*
X112240000Y-69760000D03*
X112220000Y-72740000D03*
X95680000Y-73770000D03*
X89600000Y-67700000D03*
X74630000Y-100670000D03*
X72375000Y-101970000D03*
X65750000Y-97160000D03*
X63260000Y-97380000D03*
X64810000Y-97100000D03*
X56810000Y-88980000D03*
X56810000Y-90010000D03*
X64150000Y-92756374D03*
X62410000Y-91016374D03*
X61270000Y-89053626D03*
X60410000Y-93486374D03*
X88350000Y-94940000D03*
X87550000Y-96980000D03*
X86290000Y-96980000D03*
X85040000Y-97000000D03*
X84250000Y-94940000D03*
X87560000Y-92930000D03*
X86310000Y-92930000D03*
X85050000Y-92930000D03*
X71010000Y-83420000D03*
D17*
X68700000Y-78850000D03*
D15*
X63560000Y-77570000D03*
X63560000Y-80200000D03*
X78390000Y-72850000D03*
X82700000Y-75691500D03*
X86250000Y-75735001D03*
X87270000Y-75735001D03*
X88270000Y-75745001D03*
X80160000Y-73610000D03*
X89140000Y-74065001D03*
X80060000Y-63789999D03*
X81930000Y-62049999D03*
X80900000Y-62029999D03*
X86020000Y-61460000D03*
X83960000Y-62079999D03*
X83749999Y-66310000D03*
X85750000Y-66350000D03*
X85249999Y-71360000D03*
X82540000Y-68960000D03*
X87440000Y-68970000D03*
X84750000Y-66240000D03*
X87780000Y-62096501D03*
X88780000Y-62106501D03*
X89490000Y-63796501D03*
X88860000Y-57560000D03*
X88880000Y-60220000D03*
X92280000Y-59390000D03*
X87930000Y-60210000D03*
X87900000Y-57560000D03*
X88920000Y-56510000D03*
X86960000Y-55800000D03*
X92290000Y-54790000D03*
X88910000Y-53950000D03*
X86930000Y-54850000D03*
X56730000Y-65240000D03*
X57920000Y-73250000D03*
X57920000Y-71760000D03*
X57900000Y-70250000D03*
X57890000Y-68740000D03*
X57910000Y-65740000D03*
G04 #@! TA.AperFunction,Conductor*
G36*
X84946154Y-64325185D02*
G01*
X84991909Y-64377989D01*
X85001853Y-64447147D01*
X84981165Y-64499940D01*
X84945182Y-64552068D01*
X84884860Y-64711125D01*
X84884859Y-64711130D01*
X84864355Y-64880000D01*
X84884859Y-65048869D01*
X84884860Y-65048874D01*
X84945182Y-65207931D01*
X84998776Y-65285574D01*
X85041817Y-65347929D01*
X85147505Y-65441560D01*
X85169150Y-65460736D01*
X85288333Y-65523288D01*
X85319775Y-65539790D01*
X85319810Y-65539798D01*
X85319835Y-65539813D01*
X85326790Y-65542451D01*
X85326351Y-65543607D01*
X85380190Y-65574953D01*
X85411981Y-65637171D01*
X85405086Y-65706700D01*
X85361697Y-65761464D01*
X85350686Y-65768204D01*
X85349152Y-65769262D01*
X85221816Y-65882072D01*
X85125182Y-66022068D01*
X85064860Y-66181125D01*
X85064859Y-66181130D01*
X85044355Y-66350000D01*
X85064859Y-66518869D01*
X85064860Y-66518874D01*
X85125182Y-66677931D01*
X85168026Y-66740000D01*
X85221817Y-66817929D01*
X85324913Y-66909264D01*
X85349150Y-66930736D01*
X85460228Y-66989034D01*
X85499775Y-67009790D01*
X85664944Y-67050500D01*
X85835056Y-67050500D01*
X86000225Y-67009790D01*
X86150852Y-66930734D01*
X86188274Y-66897580D01*
X86251505Y-66867860D01*
X86320769Y-66877043D01*
X86374072Y-66922215D01*
X86394493Y-66989034D01*
X86394500Y-66990397D01*
X86394500Y-67670500D01*
X86374815Y-67737539D01*
X86322011Y-67783294D01*
X86270500Y-67794500D01*
X83171855Y-67794500D01*
X83168938Y-67794838D01*
X83100080Y-67782989D01*
X83048559Y-67735794D01*
X83031590Y-67686606D01*
X83015140Y-67551128D01*
X82954818Y-67392070D01*
X82935828Y-67364559D01*
X82885793Y-67292071D01*
X82858183Y-67252071D01*
X82730852Y-67139266D01*
X82730849Y-67139263D01*
X82580226Y-67060210D01*
X82415056Y-67019500D01*
X82244944Y-67019500D01*
X82079773Y-67060210D01*
X81929150Y-67139263D01*
X81801816Y-67252072D01*
X81705182Y-67392068D01*
X81644860Y-67551125D01*
X81644859Y-67551130D01*
X81624355Y-67720000D01*
X81644859Y-67888869D01*
X81644860Y-67888874D01*
X81705182Y-68047931D01*
X81754751Y-68119743D01*
X81801817Y-68187929D01*
X81929148Y-68300734D01*
X81948388Y-68310832D01*
X81962847Y-68318421D01*
X82013059Y-68367006D01*
X82029033Y-68435025D01*
X82007270Y-68498657D01*
X81915183Y-68632068D01*
X81915182Y-68632068D01*
X81854860Y-68791125D01*
X81854859Y-68791130D01*
X81834355Y-68960000D01*
X81854859Y-69128869D01*
X81854860Y-69128874D01*
X81915182Y-69287931D01*
X82011818Y-69427931D01*
X82016791Y-69433544D01*
X82014541Y-69435537D01*
X82044341Y-69483015D01*
X82043594Y-69552880D01*
X82037794Y-69568181D01*
X82034664Y-69575034D01*
X82014976Y-69642082D01*
X81994500Y-69784501D01*
X81994500Y-72370500D01*
X81974815Y-72437539D01*
X81922011Y-72483294D01*
X81870500Y-72494500D01*
X81224000Y-72494500D01*
X81223991Y-72494500D01*
X81223990Y-72494501D01*
X81116549Y-72506052D01*
X81116537Y-72506054D01*
X81065027Y-72517260D01*
X80962502Y-72551383D01*
X80962496Y-72551386D01*
X80841462Y-72629171D01*
X80841451Y-72629179D01*
X80788659Y-72674923D01*
X80694433Y-72783664D01*
X80694430Y-72783668D01*
X80634664Y-72914534D01*
X80614976Y-72981582D01*
X80601325Y-73076528D01*
X80594500Y-73124000D01*
X80594500Y-75276000D01*
X80594501Y-75276009D01*
X80606052Y-75383450D01*
X80606054Y-75383462D01*
X80617260Y-75434972D01*
X80651383Y-75537497D01*
X80651386Y-75537503D01*
X80729171Y-75658537D01*
X80729179Y-75658548D01*
X80774923Y-75711340D01*
X80774926Y-75711343D01*
X80774930Y-75711347D01*
X80883664Y-75805567D01*
X80883667Y-75805568D01*
X80883668Y-75805569D01*
X80955225Y-75838249D01*
X81014541Y-75865338D01*
X81081580Y-75885023D01*
X81081584Y-75885024D01*
X81224000Y-75905500D01*
X81224003Y-75905500D01*
X81946384Y-75905500D01*
X82013423Y-75925185D01*
X82059178Y-75977989D01*
X82062316Y-75985504D01*
X82075181Y-76019428D01*
X82075183Y-76019432D01*
X82105615Y-76063519D01*
X82171817Y-76159429D01*
X82239102Y-76219038D01*
X82299150Y-76272236D01*
X82449773Y-76351289D01*
X82449775Y-76351290D01*
X82614944Y-76392000D01*
X82785056Y-76392000D01*
X82950225Y-76351290D01*
X83063411Y-76291885D01*
X83100849Y-76272236D01*
X83100850Y-76272234D01*
X83100852Y-76272234D01*
X83228183Y-76159429D01*
X83324818Y-76019430D01*
X83324819Y-76019428D01*
X83337675Y-75985530D01*
X83379852Y-75929827D01*
X83445450Y-75905769D01*
X83453617Y-75905500D01*
X83893160Y-75905500D01*
X83960199Y-75925185D01*
X84005954Y-75977989D01*
X84009102Y-75985530D01*
X84025181Y-76027928D01*
X84025182Y-76027931D01*
X84056244Y-76072931D01*
X84121817Y-76167929D01*
X84249148Y-76280734D01*
X84395233Y-76357406D01*
X84445442Y-76405988D01*
X84461417Y-76474007D01*
X84439654Y-76537639D01*
X84395185Y-76602063D01*
X84395182Y-76602068D01*
X84334860Y-76761125D01*
X84334859Y-76761130D01*
X84314355Y-76930000D01*
X84334859Y-77098869D01*
X84334860Y-77098874D01*
X84395182Y-77257931D01*
X84457475Y-77348177D01*
X84491817Y-77397929D01*
X84597505Y-77491560D01*
X84619150Y-77510736D01*
X84769773Y-77589789D01*
X84769775Y-77589790D01*
X84934944Y-77630500D01*
X85105056Y-77630500D01*
X85270225Y-77589790D01*
X85349692Y-77548081D01*
X85420849Y-77510736D01*
X85420850Y-77510734D01*
X85420852Y-77510734D01*
X85548183Y-77397929D01*
X85644818Y-77257930D01*
X85705140Y-77098872D01*
X85725645Y-76930000D01*
X85705140Y-76761128D01*
X85703645Y-76757187D01*
X85644817Y-76602068D01*
X85600344Y-76537639D01*
X85548183Y-76462071D01*
X85420852Y-76349266D01*
X85420849Y-76349263D01*
X85274769Y-76272594D01*
X85224556Y-76224009D01*
X85208582Y-76155990D01*
X85230344Y-76092360D01*
X85274818Y-76027930D01*
X85290897Y-75985531D01*
X85333074Y-75929828D01*
X85398671Y-75905769D01*
X85406840Y-75905500D01*
X85479886Y-75905500D01*
X85546925Y-75925185D01*
X85592680Y-75977989D01*
X85595825Y-75985522D01*
X85597129Y-75988959D01*
X85625182Y-76062932D01*
X85684482Y-76148841D01*
X85721817Y-76202930D01*
X85822227Y-76291885D01*
X85849150Y-76315737D01*
X85994457Y-76392000D01*
X85999775Y-76394791D01*
X86164944Y-76435501D01*
X86335056Y-76435501D01*
X86500225Y-76394791D01*
X86598690Y-76343112D01*
X86650845Y-76315739D01*
X86650846Y-76315737D01*
X86650852Y-76315735D01*
X86677774Y-76291884D01*
X86741005Y-76262164D01*
X86810268Y-76271346D01*
X86842224Y-76291882D01*
X86869148Y-76315735D01*
X86869150Y-76315736D01*
X86869154Y-76315739D01*
X87014457Y-76392000D01*
X87019775Y-76394791D01*
X87184944Y-76435501D01*
X87355056Y-76435501D01*
X87520225Y-76394791D01*
X87618690Y-76343112D01*
X87670845Y-76315739D01*
X87670846Y-76315737D01*
X87670852Y-76315735D01*
X87682128Y-76305744D01*
X87745358Y-76276023D01*
X87814622Y-76285204D01*
X87846584Y-76305745D01*
X87869145Y-76325733D01*
X87869154Y-76325739D01*
X88019773Y-76404790D01*
X88019775Y-76404791D01*
X88184944Y-76445501D01*
X88355056Y-76445501D01*
X88520225Y-76404791D01*
X88622162Y-76351290D01*
X88670849Y-76325737D01*
X88670850Y-76325735D01*
X88670852Y-76325735D01*
X88798183Y-76212930D01*
X88894818Y-76072931D01*
X88927964Y-75985528D01*
X88970141Y-75929827D01*
X89035738Y-75905769D01*
X89043906Y-75905500D01*
X93575990Y-75905500D01*
X93576000Y-75905500D01*
X93683456Y-75893947D01*
X93734967Y-75882741D01*
X93837504Y-75848613D01*
X93882698Y-75819567D01*
X93949736Y-75799882D01*
X94001251Y-75811088D01*
X94083421Y-75848614D01*
X94120041Y-75865338D01*
X94187080Y-75885023D01*
X94187084Y-75885024D01*
X94329500Y-75905500D01*
X102970500Y-75905500D01*
X103037539Y-75925185D01*
X103083294Y-75977989D01*
X103094500Y-76029500D01*
X103094500Y-87339254D01*
X103074815Y-87406293D01*
X103058181Y-87426935D01*
X100878892Y-89606223D01*
X100878855Y-89606262D01*
X100842728Y-89646480D01*
X100842718Y-89646492D01*
X100826076Y-89667143D01*
X100794433Y-89711025D01*
X100734663Y-89841899D01*
X100714976Y-89908944D01*
X100694500Y-90051363D01*
X100694500Y-94248640D01*
X100697397Y-94302688D01*
X100697397Y-94302689D01*
X100700229Y-94329022D01*
X100700232Y-94329049D01*
X100708885Y-94382445D01*
X100708885Y-94382447D01*
X100759166Y-94517252D01*
X100759168Y-94517257D01*
X100781555Y-94558256D01*
X100792298Y-94577931D01*
X100792653Y-94578580D01*
X100878877Y-94693761D01*
X100878881Y-94693765D01*
X100878886Y-94693771D01*
X101627466Y-95442350D01*
X101660951Y-95503673D01*
X101655967Y-95573364D01*
X101614095Y-95629298D01*
X101569461Y-95650428D01*
X101529772Y-95660210D01*
X101379150Y-95739263D01*
X101251816Y-95852072D01*
X101155182Y-95992068D01*
X101094860Y-96151125D01*
X101094859Y-96151130D01*
X101074355Y-96320000D01*
X101094859Y-96488869D01*
X101094860Y-96488874D01*
X101155182Y-96647931D01*
X101217475Y-96738177D01*
X101251817Y-96787929D01*
X101357505Y-96881560D01*
X101379150Y-96900736D01*
X101529773Y-96979789D01*
X101529775Y-96979790D01*
X101694944Y-97020500D01*
X101865056Y-97020500D01*
X102030225Y-96979790D01*
X102109692Y-96938081D01*
X102180849Y-96900736D01*
X102180850Y-96900734D01*
X102180852Y-96900734D01*
X102308183Y-96787929D01*
X102404818Y-96647930D01*
X102454558Y-96516772D01*
X102496734Y-96461072D01*
X102562331Y-96437014D01*
X102630522Y-96452240D01*
X102658180Y-96473064D01*
X103537271Y-97352155D01*
X103570756Y-97413478D01*
X103565772Y-97483170D01*
X103551640Y-97510276D01*
X103495183Y-97592068D01*
X103495182Y-97592068D01*
X103434860Y-97751125D01*
X103434859Y-97751130D01*
X103414355Y-97920000D01*
X103434859Y-98088869D01*
X103434860Y-98088874D01*
X103495182Y-98247931D01*
X103532551Y-98302068D01*
X103591817Y-98387929D01*
X103674439Y-98461125D01*
X103719150Y-98500736D01*
X103869773Y-98579789D01*
X103869775Y-98579790D01*
X104034944Y-98620500D01*
X104205056Y-98620500D01*
X104370225Y-98579790D01*
X104459547Y-98532909D01*
X104520845Y-98500738D01*
X104520847Y-98500736D01*
X104520852Y-98500734D01*
X104520971Y-98500629D01*
X104521074Y-98500580D01*
X104527020Y-98496476D01*
X104527702Y-98497464D01*
X104584204Y-98470907D01*
X104653467Y-98480091D01*
X104690879Y-98505763D01*
X105758181Y-99573065D01*
X105791666Y-99634388D01*
X105794500Y-99660746D01*
X105794500Y-119375500D01*
X105774815Y-119442539D01*
X105722011Y-119488294D01*
X105670500Y-119499500D01*
X50624500Y-119499500D01*
X50557461Y-119479815D01*
X50511706Y-119427011D01*
X50500500Y-119375500D01*
X50500500Y-117706631D01*
X58073499Y-117706631D01*
X58099496Y-117837322D01*
X58099498Y-117837328D01*
X58150492Y-117960440D01*
X58150497Y-117960449D01*
X58224527Y-118071242D01*
X58224530Y-118071246D01*
X58318753Y-118165469D01*
X58318757Y-118165472D01*
X58429550Y-118239502D01*
X58429556Y-118239505D01*
X58429557Y-118239506D01*
X58552672Y-118290502D01*
X58552676Y-118290502D01*
X58552677Y-118290503D01*
X58683368Y-118316500D01*
X58683371Y-118316500D01*
X58816631Y-118316500D01*
X58904557Y-118299009D01*
X58947328Y-118290502D01*
X59070443Y-118239506D01*
X59181243Y-118165472D01*
X59275472Y-118071243D01*
X59349506Y-117960443D01*
X59400502Y-117837328D01*
X59426500Y-117706629D01*
X59426500Y-117573371D01*
X59426500Y-117573368D01*
X59400503Y-117442677D01*
X59400502Y-117442676D01*
X59400502Y-117442672D01*
X59349506Y-117319557D01*
X59349505Y-117319556D01*
X59349502Y-117319550D01*
X59275472Y-117208757D01*
X59275469Y-117208753D01*
X59181246Y-117114530D01*
X59181242Y-117114527D01*
X59070449Y-117040497D01*
X59070440Y-117040492D01*
X58947328Y-116989498D01*
X58947322Y-116989496D01*
X58816631Y-116963500D01*
X58816629Y-116963500D01*
X58683371Y-116963500D01*
X58683369Y-116963500D01*
X58552677Y-116989496D01*
X58552671Y-116989498D01*
X58429559Y-117040492D01*
X58429550Y-117040497D01*
X58318757Y-117114527D01*
X58318753Y-117114530D01*
X58224530Y-117208753D01*
X58224527Y-117208757D01*
X58150497Y-117319550D01*
X58150492Y-117319559D01*
X58099498Y-117442671D01*
X58099496Y-117442677D01*
X58073500Y-117573368D01*
X58073500Y-117573371D01*
X58073500Y-117706629D01*
X58073500Y-117706631D01*
X58073499Y-117706631D01*
X50500500Y-117706631D01*
X50500500Y-115000000D01*
X52294564Y-115000000D01*
X52314289Y-115326099D01*
X52373178Y-115647452D01*
X52470366Y-115959342D01*
X52470370Y-115959354D01*
X52470373Y-115959361D01*
X52604455Y-116257279D01*
X52745820Y-116491125D01*
X52773473Y-116536868D01*
X52974954Y-116794039D01*
X53205960Y-117025045D01*
X53463131Y-117226526D01*
X53463134Y-117226528D01*
X53463137Y-117226530D01*
X53742721Y-117395545D01*
X54040639Y-117529627D01*
X54040652Y-117529631D01*
X54040657Y-117529633D01*
X54352547Y-117626821D01*
X54673896Y-117685710D01*
X55000000Y-117705436D01*
X55326104Y-117685710D01*
X55647453Y-117626821D01*
X55959361Y-117529627D01*
X56257279Y-117395545D01*
X56536863Y-117226530D01*
X56794036Y-117025048D01*
X57025048Y-116794036D01*
X57130058Y-116660000D01*
X60174355Y-116660000D01*
X60194859Y-116828869D01*
X60194860Y-116828874D01*
X60255182Y-116987931D01*
X60302244Y-117056111D01*
X60351817Y-117127929D01*
X60443049Y-117208753D01*
X60479150Y-117240736D01*
X60629318Y-117319550D01*
X60629775Y-117319790D01*
X60794944Y-117360500D01*
X60965056Y-117360500D01*
X61130225Y-117319790D01*
X61209692Y-117278081D01*
X61280849Y-117240736D01*
X61280850Y-117240734D01*
X61280852Y-117240734D01*
X61408183Y-117127929D01*
X61504818Y-116987930D01*
X61565140Y-116828872D01*
X61585645Y-116660000D01*
X61565140Y-116491128D01*
X61504818Y-116332070D01*
X61408183Y-116192071D01*
X61280852Y-116079266D01*
X61280849Y-116079263D01*
X61130226Y-116000210D01*
X60965056Y-115959500D01*
X60794944Y-115959500D01*
X60629773Y-116000210D01*
X60479150Y-116079263D01*
X60351816Y-116192072D01*
X60255182Y-116332068D01*
X60194860Y-116491125D01*
X60194859Y-116491130D01*
X60174355Y-116660000D01*
X57130058Y-116660000D01*
X57226530Y-116536863D01*
X57395545Y-116257279D01*
X57529627Y-115959361D01*
X57626821Y-115647453D01*
X57685710Y-115326104D01*
X57705436Y-115000000D01*
X57685710Y-114673896D01*
X57626821Y-114352547D01*
X57529627Y-114040639D01*
X57395545Y-113742721D01*
X57226530Y-113463137D01*
X57226528Y-113463134D01*
X57226526Y-113463131D01*
X57025045Y-113205960D01*
X56794039Y-112974954D01*
X56536868Y-112773473D01*
X56529306Y-112768901D01*
X56257279Y-112604455D01*
X55959361Y-112470373D01*
X55959354Y-112470370D01*
X55959342Y-112470366D01*
X55647452Y-112373178D01*
X55326099Y-112314289D01*
X55000000Y-112294564D01*
X54673900Y-112314289D01*
X54352547Y-112373178D01*
X54040657Y-112470366D01*
X54040641Y-112470372D01*
X54040639Y-112470373D01*
X53850933Y-112555752D01*
X53742725Y-112604453D01*
X53742723Y-112604454D01*
X53463131Y-112773473D01*
X53205960Y-112974954D01*
X52974954Y-113205960D01*
X52773473Y-113463131D01*
X52646708Y-113672825D01*
X52604455Y-113742721D01*
X52498534Y-113978069D01*
X52470372Y-114040642D01*
X52470366Y-114040657D01*
X52373178Y-114352547D01*
X52314289Y-114673900D01*
X52294564Y-115000000D01*
X50500500Y-115000000D01*
X50500500Y-108320000D01*
X101124355Y-108320000D01*
X101144859Y-108488869D01*
X101144860Y-108488874D01*
X101205182Y-108647931D01*
X101267475Y-108738177D01*
X101301817Y-108787929D01*
X101407505Y-108881560D01*
X101429150Y-108900736D01*
X101579773Y-108979789D01*
X101579775Y-108979790D01*
X101744944Y-109020500D01*
X101915056Y-109020500D01*
X102080225Y-108979790D01*
X102159692Y-108938081D01*
X102230849Y-108900736D01*
X102230850Y-108900734D01*
X102230852Y-108900734D01*
X102358183Y-108787929D01*
X102454818Y-108647930D01*
X102515140Y-108488872D01*
X102535645Y-108320000D01*
X102515140Y-108151128D01*
X102454818Y-107992070D01*
X102358183Y-107852071D01*
X102230852Y-107739266D01*
X102230849Y-107739263D01*
X102080226Y-107660210D01*
X101915056Y-107619500D01*
X101744944Y-107619500D01*
X101579773Y-107660210D01*
X101429150Y-107739263D01*
X101301816Y-107852072D01*
X101205182Y-107992068D01*
X101144860Y-108151125D01*
X101144859Y-108151130D01*
X101124355Y-108320000D01*
X50500500Y-108320000D01*
X50500500Y-106500000D01*
X54854355Y-106500000D01*
X54874859Y-106668869D01*
X54874860Y-106668874D01*
X54935182Y-106827931D01*
X54997475Y-106918177D01*
X55031817Y-106967929D01*
X55137505Y-107061560D01*
X55159150Y-107080736D01*
X55309773Y-107159789D01*
X55309775Y-107159790D01*
X55474944Y-107200500D01*
X55645056Y-107200500D01*
X55810225Y-107159790D01*
X55889692Y-107118081D01*
X55960849Y-107080736D01*
X55960850Y-107080734D01*
X55960852Y-107080734D01*
X56088183Y-106967929D01*
X56184818Y-106827930D01*
X56245140Y-106668872D01*
X56265645Y-106500000D01*
X65854355Y-106500000D01*
X65874859Y-106668869D01*
X65874860Y-106668874D01*
X65935182Y-106827931D01*
X65997475Y-106918177D01*
X66031817Y-106967929D01*
X66137505Y-107061560D01*
X66159150Y-107080736D01*
X66309773Y-107159789D01*
X66309775Y-107159790D01*
X66474944Y-107200500D01*
X66645056Y-107200500D01*
X66810225Y-107159790D01*
X66889692Y-107118081D01*
X66960849Y-107080736D01*
X66960850Y-107080734D01*
X66960852Y-107080734D01*
X67088183Y-106967929D01*
X67184818Y-106827930D01*
X67245140Y-106668872D01*
X67265645Y-106500000D01*
X67245140Y-106331128D01*
X67184818Y-106172070D01*
X67088183Y-106032071D01*
X66960852Y-105919266D01*
X66960849Y-105919263D01*
X66810226Y-105840210D01*
X66645056Y-105799500D01*
X66474944Y-105799500D01*
X66309773Y-105840210D01*
X66159150Y-105919263D01*
X66031816Y-106032072D01*
X65935182Y-106172068D01*
X65874860Y-106331125D01*
X65874859Y-106331130D01*
X65854355Y-106500000D01*
X56265645Y-106500000D01*
X56245140Y-106331128D01*
X56184818Y-106172070D01*
X56088183Y-106032071D01*
X55960852Y-105919266D01*
X55960849Y-105919263D01*
X55810226Y-105840210D01*
X55645056Y-105799500D01*
X55474944Y-105799500D01*
X55309773Y-105840210D01*
X55159150Y-105919263D01*
X55031816Y-106032072D01*
X54935182Y-106172068D01*
X54874860Y-106331125D01*
X54874859Y-106331130D01*
X54854355Y-106500000D01*
X50500500Y-106500000D01*
X50500500Y-102020000D01*
X59284355Y-102020000D01*
X59304859Y-102188869D01*
X59304860Y-102188874D01*
X59365182Y-102347931D01*
X59427303Y-102437927D01*
X59461817Y-102487929D01*
X59532712Y-102550736D01*
X59589150Y-102600736D01*
X59739773Y-102679789D01*
X59739775Y-102679790D01*
X59904944Y-102720500D01*
X60075056Y-102720500D01*
X60240225Y-102679790D01*
X60335493Y-102629789D01*
X60390849Y-102600736D01*
X60390850Y-102600734D01*
X60390852Y-102600734D01*
X60518183Y-102487929D01*
X60614818Y-102347930D01*
X60675140Y-102188872D01*
X60695645Y-102020000D01*
X60692002Y-101990000D01*
X60944355Y-101990000D01*
X60964859Y-102158869D01*
X60964860Y-102158874D01*
X61025182Y-102317931D01*
X61045890Y-102347931D01*
X61121817Y-102457929D01*
X61226573Y-102550734D01*
X61249150Y-102570736D01*
X61399773Y-102649789D01*
X61399775Y-102649790D01*
X61564944Y-102690500D01*
X61735056Y-102690500D01*
X61900225Y-102649790D01*
X61993689Y-102600736D01*
X62050849Y-102570736D01*
X62050850Y-102570734D01*
X62050852Y-102570734D01*
X62178183Y-102457929D01*
X62274818Y-102317930D01*
X62335140Y-102158872D01*
X62355645Y-101990000D01*
X62353217Y-101970000D01*
X71669355Y-101970000D01*
X71689859Y-102138869D01*
X71689860Y-102138874D01*
X71750182Y-102297931D01*
X71784695Y-102347931D01*
X71846817Y-102437929D01*
X71903256Y-102487929D01*
X71974150Y-102550736D01*
X72124773Y-102629789D01*
X72124775Y-102629790D01*
X72289944Y-102670500D01*
X72460056Y-102670500D01*
X72625225Y-102629790D01*
X72737746Y-102570734D01*
X72775849Y-102550736D01*
X72775850Y-102550734D01*
X72775852Y-102550734D01*
X72903183Y-102437929D01*
X72999818Y-102297930D01*
X73052127Y-102160000D01*
X75800000Y-102160000D01*
X75800000Y-108160000D01*
X93800000Y-108160000D01*
X93800000Y-102304315D01*
X93819685Y-102237276D01*
X93872489Y-102191521D01*
X93941647Y-102181577D01*
X93981623Y-102194517D01*
X94029775Y-102219790D01*
X94194944Y-102260500D01*
X94365056Y-102260500D01*
X94530225Y-102219790D01*
X94615564Y-102175000D01*
X94680849Y-102140736D01*
X94680850Y-102140734D01*
X94680852Y-102140734D01*
X94808183Y-102027929D01*
X94904818Y-101887930D01*
X94965140Y-101728872D01*
X94985645Y-101560000D01*
X94965140Y-101391128D01*
X94953414Y-101360210D01*
X94904817Y-101232068D01*
X94841121Y-101139790D01*
X94808183Y-101092071D01*
X94701921Y-100997931D01*
X94680849Y-100979263D01*
X94530226Y-100900210D01*
X94365056Y-100859500D01*
X94194944Y-100859500D01*
X94029773Y-100900210D01*
X93879150Y-100979263D01*
X93751816Y-101092072D01*
X93655182Y-101232068D01*
X93594860Y-101391125D01*
X93594859Y-101391130D01*
X93574355Y-101560000D01*
X93594859Y-101728869D01*
X93594860Y-101728874D01*
X93655182Y-101887931D01*
X93708766Y-101965560D01*
X93730649Y-102031915D01*
X93713184Y-102099566D01*
X93661916Y-102147036D01*
X93606716Y-102160000D01*
X75800000Y-102160000D01*
X73052127Y-102160000D01*
X73060140Y-102138872D01*
X73080645Y-101970000D01*
X73060140Y-101801128D01*
X72999818Y-101642070D01*
X72903183Y-101502071D01*
X72808316Y-101418026D01*
X72775849Y-101389263D01*
X72625226Y-101310210D01*
X72460056Y-101269500D01*
X72289944Y-101269500D01*
X72124773Y-101310210D01*
X71974150Y-101389263D01*
X71846816Y-101502072D01*
X71750182Y-101642068D01*
X71689860Y-101801125D01*
X71689859Y-101801130D01*
X71669355Y-101970000D01*
X62353217Y-101970000D01*
X62335140Y-101821128D01*
X62274818Y-101662070D01*
X62178183Y-101522071D01*
X62050852Y-101409266D01*
X62050849Y-101409263D01*
X61900226Y-101330210D01*
X61735056Y-101289500D01*
X61564944Y-101289500D01*
X61399773Y-101330210D01*
X61249150Y-101409263D01*
X61121816Y-101522072D01*
X61025182Y-101662068D01*
X60964860Y-101821125D01*
X60964859Y-101821130D01*
X60944355Y-101990000D01*
X60692002Y-101990000D01*
X60675140Y-101851128D01*
X60656178Y-101801130D01*
X60614817Y-101692068D01*
X60580304Y-101642068D01*
X60518183Y-101552071D01*
X60390852Y-101439266D01*
X60390849Y-101439263D01*
X60240226Y-101360210D01*
X60075056Y-101319500D01*
X59904944Y-101319500D01*
X59739773Y-101360210D01*
X59589150Y-101439263D01*
X59461816Y-101552072D01*
X59365182Y-101692068D01*
X59304860Y-101851125D01*
X59304859Y-101851130D01*
X59284355Y-102020000D01*
X50500500Y-102020000D01*
X50500500Y-100670000D01*
X73924355Y-100670000D01*
X73944859Y-100838869D01*
X73944860Y-100838874D01*
X74005182Y-100997931D01*
X74048533Y-101060734D01*
X74101817Y-101137929D01*
X74207505Y-101231560D01*
X74229150Y-101250736D01*
X74360169Y-101319500D01*
X74379775Y-101329790D01*
X74544944Y-101370500D01*
X74715056Y-101370500D01*
X74880225Y-101329790D01*
X74995097Y-101269500D01*
X75030849Y-101250736D01*
X75030850Y-101250734D01*
X75030852Y-101250734D01*
X75158183Y-101137929D01*
X75254818Y-100997930D01*
X75315140Y-100838872D01*
X75335645Y-100670000D01*
X75315140Y-100501128D01*
X75311996Y-100492839D01*
X75264970Y-100368839D01*
X75254818Y-100342070D01*
X75158183Y-100202071D01*
X75030852Y-100089266D01*
X75030849Y-100089263D01*
X74880226Y-100010210D01*
X74715056Y-99969500D01*
X74544944Y-99969500D01*
X74379773Y-100010210D01*
X74229150Y-100089263D01*
X74101816Y-100202072D01*
X74005182Y-100342068D01*
X73944860Y-100501125D01*
X73944859Y-100501130D01*
X73924355Y-100670000D01*
X50500500Y-100670000D01*
X50500500Y-100492839D01*
X50520185Y-100425800D01*
X50572989Y-100380045D01*
X50624500Y-100368839D01*
X68515788Y-100368839D01*
X68515796Y-100368839D01*
X68624152Y-100357089D01*
X68676076Y-100345694D01*
X68779395Y-100310991D01*
X68900149Y-100232760D01*
X68952785Y-100186812D01*
X69046607Y-100077731D01*
X69105898Y-99946635D01*
X69125337Y-99879524D01*
X69145292Y-99737034D01*
X69144387Y-99490000D01*
X96864355Y-99490000D01*
X96884859Y-99658869D01*
X96884860Y-99658874D01*
X96945182Y-99817931D01*
X97016881Y-99921804D01*
X97038764Y-99988158D01*
X97021299Y-100055810D01*
X97016881Y-100062684D01*
X96955182Y-100152068D01*
X96894860Y-100311125D01*
X96894859Y-100311130D01*
X96874355Y-100480000D01*
X96894859Y-100648869D01*
X96894860Y-100648874D01*
X96955182Y-100807931D01*
X96976541Y-100838874D01*
X97051817Y-100947929D01*
X97108257Y-100997930D01*
X97179150Y-101060736D01*
X97326225Y-101137927D01*
X97329775Y-101139790D01*
X97494944Y-101180500D01*
X97665056Y-101180500D01*
X97830225Y-101139790D01*
X97921145Y-101092071D01*
X97980849Y-101060736D01*
X97980850Y-101060734D01*
X97980852Y-101060734D01*
X98108183Y-100947929D01*
X98204818Y-100807930D01*
X98265140Y-100648872D01*
X98285645Y-100480000D01*
X98265140Y-100311128D01*
X98204818Y-100152070D01*
X98133116Y-100048193D01*
X98111235Y-99981842D01*
X98128700Y-99914191D01*
X98133111Y-99907326D01*
X98194818Y-99817930D01*
X98255140Y-99658872D01*
X98275645Y-99490000D01*
X98255140Y-99321128D01*
X98194818Y-99162070D01*
X98098183Y-99022071D01*
X97970852Y-98909266D01*
X97970849Y-98909263D01*
X97820226Y-98830210D01*
X97655056Y-98789500D01*
X97484944Y-98789500D01*
X97319773Y-98830210D01*
X97169150Y-98909263D01*
X97041816Y-99022072D01*
X96945182Y-99162068D01*
X96884860Y-99321125D01*
X96884859Y-99321130D01*
X96864355Y-99490000D01*
X69144387Y-99490000D01*
X69144051Y-99398149D01*
X69141240Y-98630000D01*
X88604355Y-98630000D01*
X88624859Y-98798869D01*
X88624860Y-98798874D01*
X88685182Y-98957931D01*
X88729456Y-99022072D01*
X88781817Y-99097929D01*
X88887505Y-99191560D01*
X88909150Y-99210736D01*
X89059773Y-99289789D01*
X89059775Y-99289790D01*
X89224944Y-99330500D01*
X89395056Y-99330500D01*
X89560225Y-99289790D01*
X89639692Y-99248081D01*
X89710849Y-99210736D01*
X89710850Y-99210734D01*
X89710852Y-99210734D01*
X89838183Y-99097929D01*
X89934818Y-98957930D01*
X89995140Y-98798872D01*
X90015645Y-98630000D01*
X89995140Y-98461128D01*
X89980765Y-98423225D01*
X89934817Y-98302068D01*
X89897448Y-98247930D01*
X89838183Y-98162071D01*
X89710852Y-98049266D01*
X89710849Y-98049263D01*
X89560226Y-97970210D01*
X89395056Y-97929500D01*
X89224944Y-97929500D01*
X89059773Y-97970210D01*
X88909150Y-98049263D01*
X88781816Y-98162072D01*
X88685182Y-98302068D01*
X88624860Y-98461125D01*
X88624859Y-98461130D01*
X88604355Y-98630000D01*
X69141240Y-98630000D01*
X69136220Y-97258360D01*
X69135274Y-97000000D01*
X84334355Y-97000000D01*
X84354859Y-97168869D01*
X84354860Y-97168874D01*
X84415182Y-97327931D01*
X84431903Y-97352155D01*
X84511817Y-97467929D01*
X84616573Y-97560734D01*
X84639150Y-97580736D01*
X84789773Y-97659789D01*
X84789775Y-97659790D01*
X84954944Y-97700500D01*
X85125056Y-97700500D01*
X85290225Y-97659790D01*
X85369692Y-97618081D01*
X85440849Y-97580736D01*
X85440850Y-97580734D01*
X85440852Y-97580734D01*
X85568183Y-97467929D01*
X85570827Y-97464097D01*
X85625107Y-97420105D01*
X85694556Y-97412442D01*
X85756122Y-97443045D01*
X85756203Y-97442955D01*
X85756537Y-97443251D01*
X85757122Y-97443542D01*
X85758784Y-97445242D01*
X85889150Y-97560736D01*
X86039773Y-97639789D01*
X86039775Y-97639790D01*
X86204944Y-97680500D01*
X86375056Y-97680500D01*
X86540225Y-97639790D01*
X86652746Y-97580734D01*
X86690849Y-97560736D01*
X86690850Y-97560734D01*
X86690852Y-97560734D01*
X86818183Y-97447929D01*
X86818186Y-97447925D01*
X86823157Y-97442315D01*
X86824178Y-97443220D01*
X86872229Y-97404277D01*
X86941677Y-97396615D01*
X87004243Y-97427716D01*
X87019085Y-97444846D01*
X87021813Y-97447925D01*
X87021816Y-97447927D01*
X87021817Y-97447929D01*
X87106704Y-97523132D01*
X87149150Y-97560736D01*
X87299773Y-97639789D01*
X87299775Y-97639790D01*
X87464944Y-97680500D01*
X87635056Y-97680500D01*
X87800225Y-97639790D01*
X87912746Y-97580734D01*
X87950849Y-97560736D01*
X87950850Y-97560734D01*
X87950852Y-97560734D01*
X88078183Y-97447929D01*
X88174818Y-97307930D01*
X88235140Y-97148872D01*
X88255645Y-96980000D01*
X88235140Y-96811128D01*
X88174818Y-96652070D01*
X88171960Y-96647930D01*
X88116480Y-96567554D01*
X88078183Y-96512071D01*
X87983316Y-96428026D01*
X87950849Y-96399263D01*
X87800226Y-96320210D01*
X87635056Y-96279500D01*
X87464944Y-96279500D01*
X87299773Y-96320210D01*
X87149150Y-96399263D01*
X87021813Y-96512074D01*
X87016843Y-96517685D01*
X87015822Y-96516781D01*
X86967762Y-96555725D01*
X86898313Y-96563382D01*
X86835750Y-96532276D01*
X86820840Y-96515069D01*
X86818186Y-96512074D01*
X86791996Y-96488872D01*
X86733461Y-96437014D01*
X86690849Y-96399263D01*
X86540226Y-96320210D01*
X86375056Y-96279500D01*
X86204944Y-96279500D01*
X86039773Y-96320210D01*
X85889150Y-96399263D01*
X85761814Y-96512073D01*
X85759164Y-96515913D01*
X85704879Y-96559899D01*
X85635430Y-96567554D01*
X85573880Y-96536950D01*
X85573797Y-96537045D01*
X85573448Y-96536735D01*
X85572867Y-96536447D01*
X85571215Y-96534757D01*
X85440849Y-96419263D01*
X85290226Y-96340210D01*
X85125056Y-96299500D01*
X84954944Y-96299500D01*
X84789773Y-96340210D01*
X84639150Y-96419263D01*
X84511816Y-96532072D01*
X84415182Y-96672068D01*
X84354860Y-96831125D01*
X84354859Y-96831130D01*
X84334355Y-97000000D01*
X69135274Y-97000000D01*
X69125951Y-94452441D01*
X69113875Y-94344448D01*
X69104579Y-94302688D01*
X69102360Y-94292720D01*
X69102357Y-94292709D01*
X69087884Y-94250000D01*
X69394355Y-94250000D01*
X69414859Y-94418869D01*
X69414860Y-94418874D01*
X69475182Y-94577931D01*
X69498747Y-94612070D01*
X69571817Y-94717929D01*
X69631869Y-94771130D01*
X69699150Y-94830736D01*
X69849773Y-94909789D01*
X69849775Y-94909790D01*
X70014944Y-94950500D01*
X70185056Y-94950500D01*
X70227657Y-94940000D01*
X83544355Y-94940000D01*
X83564859Y-95108869D01*
X83564860Y-95108874D01*
X83625182Y-95267931D01*
X83687475Y-95358177D01*
X83721817Y-95407929D01*
X83827505Y-95501560D01*
X83849150Y-95520736D01*
X83999773Y-95599789D01*
X83999775Y-95599790D01*
X84164944Y-95640500D01*
X84335056Y-95640500D01*
X84500225Y-95599790D01*
X84579692Y-95558081D01*
X84650849Y-95520736D01*
X84650850Y-95520734D01*
X84650852Y-95520734D01*
X84778183Y-95407929D01*
X84874818Y-95267930D01*
X84935140Y-95108872D01*
X84955645Y-94940000D01*
X87644355Y-94940000D01*
X87664859Y-95108869D01*
X87664860Y-95108874D01*
X87725182Y-95267931D01*
X87787475Y-95358177D01*
X87821817Y-95407929D01*
X87927505Y-95501560D01*
X87949150Y-95520736D01*
X88099773Y-95599789D01*
X88099775Y-95599790D01*
X88264944Y-95640500D01*
X88435056Y-95640500D01*
X88600225Y-95599790D01*
X88679692Y-95558081D01*
X88750849Y-95520736D01*
X88750850Y-95520734D01*
X88750852Y-95520734D01*
X88878183Y-95407929D01*
X88974818Y-95267930D01*
X89035140Y-95108872D01*
X89055645Y-94940000D01*
X89035140Y-94771128D01*
X88974818Y-94612070D01*
X88951253Y-94577931D01*
X88909369Y-94517252D01*
X88878183Y-94472071D01*
X88750852Y-94359266D01*
X88750849Y-94359263D01*
X88600226Y-94280210D01*
X88435056Y-94239500D01*
X88264944Y-94239500D01*
X88099773Y-94280210D01*
X87949150Y-94359263D01*
X87821816Y-94472072D01*
X87725182Y-94612068D01*
X87664860Y-94771125D01*
X87664859Y-94771130D01*
X87644355Y-94940000D01*
X84955645Y-94940000D01*
X84935140Y-94771128D01*
X84874818Y-94612070D01*
X84851253Y-94577931D01*
X84809369Y-94517252D01*
X84778183Y-94472071D01*
X84650852Y-94359266D01*
X84650849Y-94359263D01*
X84500226Y-94280210D01*
X84335056Y-94239500D01*
X84164944Y-94239500D01*
X83999773Y-94280210D01*
X83849150Y-94359263D01*
X83721816Y-94472072D01*
X83625182Y-94612068D01*
X83564860Y-94771125D01*
X83564859Y-94771130D01*
X83544355Y-94940000D01*
X70227657Y-94940000D01*
X70350225Y-94909790D01*
X70429692Y-94868081D01*
X70500849Y-94830736D01*
X70500850Y-94830734D01*
X70500852Y-94830734D01*
X70628183Y-94717929D01*
X70724818Y-94577930D01*
X70785140Y-94418872D01*
X70805645Y-94250000D01*
X70785140Y-94081128D01*
X70772896Y-94048844D01*
X70735600Y-93950500D01*
X70724818Y-93922070D01*
X70695695Y-93879879D01*
X70672031Y-93845596D01*
X70628183Y-93782071D01*
X70500852Y-93669266D01*
X70500849Y-93669263D01*
X70350226Y-93590210D01*
X70185056Y-93549500D01*
X70014944Y-93549500D01*
X69849773Y-93590210D01*
X69699150Y-93669263D01*
X69596166Y-93760500D01*
X69573838Y-93780281D01*
X69571816Y-93782072D01*
X69475182Y-93922068D01*
X69414860Y-94081125D01*
X69414859Y-94081130D01*
X69394355Y-94250000D01*
X69087884Y-94250000D01*
X69067485Y-94189803D01*
X68988967Y-94069226D01*
X68942907Y-94016712D01*
X68942889Y-94016694D01*
X68833607Y-93923145D01*
X68833602Y-93923142D01*
X68702369Y-93864159D01*
X68637719Y-93845596D01*
X68635966Y-93845053D01*
X68635206Y-93844875D01*
X68492674Y-93825256D01*
X68492670Y-93825256D01*
X68267958Y-93826608D01*
X61194397Y-93869176D01*
X61127240Y-93849895D01*
X61081169Y-93797367D01*
X61070809Y-93728270D01*
X61077707Y-93701211D01*
X61095140Y-93655246D01*
X61115645Y-93486374D01*
X61095140Y-93317502D01*
X61034818Y-93158444D01*
X60938183Y-93018445D01*
X60829398Y-92922070D01*
X60810849Y-92905637D01*
X60660226Y-92826584D01*
X60495056Y-92785874D01*
X60324944Y-92785874D01*
X60159773Y-92826584D01*
X60009150Y-92905637D01*
X59881816Y-93018446D01*
X59785182Y-93158442D01*
X59724860Y-93317499D01*
X59724859Y-93317504D01*
X59704355Y-93486374D01*
X59724859Y-93655243D01*
X59724860Y-93655248D01*
X59730177Y-93669266D01*
X59742290Y-93701207D01*
X59745860Y-93710618D01*
X59751227Y-93780281D01*
X59718080Y-93841787D01*
X59656941Y-93875609D01*
X59630664Y-93878587D01*
X58939732Y-93882746D01*
X58872576Y-93863465D01*
X58826504Y-93810937D01*
X58816144Y-93741840D01*
X58817369Y-93734556D01*
X58830500Y-93668543D01*
X58830500Y-93471456D01*
X58803971Y-93338089D01*
X58810198Y-93268497D01*
X58853061Y-93213320D01*
X58858533Y-93209591D01*
X58908543Y-93177452D01*
X58961347Y-93131697D01*
X59055567Y-93022963D01*
X59115338Y-92892086D01*
X59135023Y-92825047D01*
X59135024Y-92825043D01*
X59144897Y-92756374D01*
X63444355Y-92756374D01*
X63464859Y-92925243D01*
X63464860Y-92925248D01*
X63525182Y-93084305D01*
X63587475Y-93174551D01*
X63621817Y-93224303D01*
X63682615Y-93278165D01*
X63749150Y-93337110D01*
X63865031Y-93397929D01*
X63899775Y-93416164D01*
X64064944Y-93456874D01*
X64235056Y-93456874D01*
X64400225Y-93416164D01*
X64479692Y-93374455D01*
X64550849Y-93337110D01*
X64550850Y-93337108D01*
X64550852Y-93337108D01*
X64649177Y-93250000D01*
X76674355Y-93250000D01*
X76694859Y-93418869D01*
X76694860Y-93418874D01*
X76755182Y-93577931D01*
X76798533Y-93640734D01*
X76851817Y-93717929D01*
X76924219Y-93782071D01*
X76979150Y-93830736D01*
X77083586Y-93885548D01*
X77129775Y-93909790D01*
X77294944Y-93950500D01*
X77465056Y-93950500D01*
X77630225Y-93909790D01*
X77721595Y-93861835D01*
X77780849Y-93830736D01*
X77780850Y-93830734D01*
X77780852Y-93830734D01*
X77908183Y-93717929D01*
X78004818Y-93577930D01*
X78065140Y-93418872D01*
X78085645Y-93250000D01*
X78065140Y-93081128D01*
X78007825Y-92930000D01*
X84344355Y-92930000D01*
X84364859Y-93098869D01*
X84364860Y-93098874D01*
X84425182Y-93257931D01*
X84439149Y-93278165D01*
X84521817Y-93397929D01*
X84604812Y-93471456D01*
X84649150Y-93510736D01*
X84799773Y-93589789D01*
X84799775Y-93589790D01*
X84964944Y-93630500D01*
X85135056Y-93630500D01*
X85300225Y-93589790D01*
X85418094Y-93527927D01*
X85450849Y-93510736D01*
X85450850Y-93510734D01*
X85450852Y-93510734D01*
X85578183Y-93397929D01*
X85578186Y-93397925D01*
X85583157Y-93392315D01*
X85584178Y-93393220D01*
X85632229Y-93354277D01*
X85701677Y-93346615D01*
X85764243Y-93377716D01*
X85779085Y-93394846D01*
X85781813Y-93397925D01*
X85781816Y-93397927D01*
X85781817Y-93397929D01*
X85864812Y-93471456D01*
X85909150Y-93510736D01*
X86059773Y-93589789D01*
X86059775Y-93589790D01*
X86224944Y-93630500D01*
X86395056Y-93630500D01*
X86560225Y-93589790D01*
X86678094Y-93527927D01*
X86710849Y-93510736D01*
X86710850Y-93510734D01*
X86710852Y-93510734D01*
X86838183Y-93397929D01*
X86838186Y-93397925D01*
X86842184Y-93393413D01*
X86901373Y-93356286D01*
X86971239Y-93357052D01*
X87027816Y-93393413D01*
X87031813Y-93397925D01*
X87031816Y-93397927D01*
X87031817Y-93397929D01*
X87114812Y-93471456D01*
X87159150Y-93510736D01*
X87309773Y-93589789D01*
X87309775Y-93589790D01*
X87474944Y-93630500D01*
X87645056Y-93630500D01*
X87810225Y-93589790D01*
X87928094Y-93527927D01*
X87960849Y-93510736D01*
X87960850Y-93510734D01*
X87960852Y-93510734D01*
X88088183Y-93397929D01*
X88184818Y-93257930D01*
X88245140Y-93098872D01*
X88249860Y-93060000D01*
X90034355Y-93060000D01*
X90054859Y-93228869D01*
X90054860Y-93228874D01*
X90115182Y-93387931D01*
X90162771Y-93456874D01*
X90211817Y-93527929D01*
X90268257Y-93577930D01*
X90339150Y-93640736D01*
X90486225Y-93717927D01*
X90489775Y-93719790D01*
X90654944Y-93760500D01*
X90825056Y-93760500D01*
X90990225Y-93719790D01*
X91069692Y-93678081D01*
X91140849Y-93640736D01*
X91140850Y-93640734D01*
X91140852Y-93640734D01*
X91268183Y-93527929D01*
X91364818Y-93387930D01*
X91425140Y-93228872D01*
X91445645Y-93060000D01*
X91425140Y-92891128D01*
X91364818Y-92732070D01*
X91355337Y-92718335D01*
X91321465Y-92669263D01*
X91268183Y-92592071D01*
X91140852Y-92479266D01*
X91140849Y-92479263D01*
X90990226Y-92400210D01*
X90825056Y-92359500D01*
X90654944Y-92359500D01*
X90489773Y-92400210D01*
X90339150Y-92479263D01*
X90211816Y-92592072D01*
X90115182Y-92732068D01*
X90054860Y-92891125D01*
X90054859Y-92891130D01*
X90034355Y-93060000D01*
X88249860Y-93060000D01*
X88265645Y-92930000D01*
X88245140Y-92761128D01*
X88184818Y-92602070D01*
X88174762Y-92587502D01*
X88148531Y-92549500D01*
X88088183Y-92462071D01*
X87960852Y-92349266D01*
X87960849Y-92349263D01*
X87810226Y-92270210D01*
X87645056Y-92229500D01*
X87474944Y-92229500D01*
X87309773Y-92270210D01*
X87159150Y-92349263D01*
X87031813Y-92462074D01*
X87027812Y-92466591D01*
X86968621Y-92503715D01*
X86898756Y-92502945D01*
X86842188Y-92466591D01*
X86838186Y-92462074D01*
X86800223Y-92428442D01*
X86710852Y-92349266D01*
X86710849Y-92349263D01*
X86560226Y-92270210D01*
X86395056Y-92229500D01*
X86224944Y-92229500D01*
X86059773Y-92270210D01*
X85909150Y-92349263D01*
X85781813Y-92462074D01*
X85776843Y-92467685D01*
X85775822Y-92466781D01*
X85727762Y-92505725D01*
X85658313Y-92513382D01*
X85595750Y-92482276D01*
X85580840Y-92465069D01*
X85578186Y-92462074D01*
X85540223Y-92428442D01*
X85450852Y-92349266D01*
X85450849Y-92349263D01*
X85300226Y-92270210D01*
X85135056Y-92229500D01*
X84964944Y-92229500D01*
X84799773Y-92270210D01*
X84649150Y-92349263D01*
X84521816Y-92462072D01*
X84425182Y-92602068D01*
X84364860Y-92761125D01*
X84364859Y-92761130D01*
X84344355Y-92930000D01*
X78007825Y-92930000D01*
X78004818Y-92922070D01*
X77984121Y-92892086D01*
X77943329Y-92832989D01*
X77908183Y-92782071D01*
X77780852Y-92669266D01*
X77780849Y-92669263D01*
X77630226Y-92590210D01*
X77465056Y-92549500D01*
X77294944Y-92549500D01*
X77129773Y-92590210D01*
X76979150Y-92669263D01*
X76851816Y-92782072D01*
X76755182Y-92922068D01*
X76694860Y-93081125D01*
X76694859Y-93081130D01*
X76674355Y-93250000D01*
X64649177Y-93250000D01*
X64678183Y-93224303D01*
X64774818Y-93084304D01*
X64835140Y-92925246D01*
X64855645Y-92756374D01*
X64835140Y-92587502D01*
X64774818Y-92428444D01*
X64755329Y-92400210D01*
X64692916Y-92309790D01*
X64678183Y-92288445D01*
X64550852Y-92175640D01*
X64550849Y-92175637D01*
X64400226Y-92096584D01*
X64235056Y-92055874D01*
X64064944Y-92055874D01*
X63899773Y-92096584D01*
X63749150Y-92175637D01*
X63621816Y-92288446D01*
X63525182Y-92428442D01*
X63464860Y-92587499D01*
X63464859Y-92587504D01*
X63444355Y-92756374D01*
X59144897Y-92756374D01*
X59155500Y-92682627D01*
X59155500Y-92308115D01*
X59175185Y-92241076D01*
X59227989Y-92195321D01*
X59297147Y-92185377D01*
X59360703Y-92214402D01*
X59361608Y-92215195D01*
X59376307Y-92228217D01*
X59379150Y-92230736D01*
X59529773Y-92309789D01*
X59529775Y-92309790D01*
X59694944Y-92350500D01*
X59865056Y-92350500D01*
X60030225Y-92309790D01*
X60109692Y-92268081D01*
X60180849Y-92230736D01*
X60180850Y-92230734D01*
X60180852Y-92230734D01*
X60308183Y-92117929D01*
X60404818Y-91977930D01*
X60465140Y-91818872D01*
X60485645Y-91650000D01*
X60473503Y-91550000D01*
X87794355Y-91550000D01*
X87814859Y-91718869D01*
X87814860Y-91718874D01*
X87875182Y-91877931D01*
X87893867Y-91905000D01*
X87971817Y-92017929D01*
X88077505Y-92111560D01*
X88099150Y-92130736D01*
X88203260Y-92185377D01*
X88249775Y-92209790D01*
X88414944Y-92250500D01*
X88585056Y-92250500D01*
X88750225Y-92209790D01*
X88829692Y-92168081D01*
X88900849Y-92130736D01*
X88900850Y-92130734D01*
X88900852Y-92130734D01*
X89028183Y-92017929D01*
X89124818Y-91877930D01*
X89185140Y-91718872D01*
X89205645Y-91550000D01*
X89185140Y-91381128D01*
X89124818Y-91222070D01*
X89097208Y-91182071D01*
X89079029Y-91155734D01*
X89028183Y-91082071D01*
X88900852Y-90969266D01*
X88900849Y-90969263D01*
X88750226Y-90890210D01*
X88585056Y-90849500D01*
X88414944Y-90849500D01*
X88249773Y-90890210D01*
X88099150Y-90969263D01*
X87971816Y-91082072D01*
X87875182Y-91222068D01*
X87814860Y-91381125D01*
X87814859Y-91381130D01*
X87794355Y-91550000D01*
X60473503Y-91550000D01*
X60465140Y-91481128D01*
X60404818Y-91322070D01*
X60308183Y-91182071D01*
X60180852Y-91069266D01*
X60180849Y-91069263D01*
X60030226Y-90990210D01*
X59865056Y-90949500D01*
X59797357Y-90949500D01*
X59730318Y-90929815D01*
X59684563Y-90877011D01*
X59674619Y-90807853D01*
X59703644Y-90744297D01*
X59726917Y-90723450D01*
X59730845Y-90720737D01*
X59730852Y-90720734D01*
X59858183Y-90607929D01*
X59954818Y-90467930D01*
X60015140Y-90308872D01*
X60035645Y-90140000D01*
X60015140Y-89971128D01*
X59984373Y-89890000D01*
X66174355Y-89890000D01*
X66194859Y-90058869D01*
X66194860Y-90058874D01*
X66255182Y-90217931D01*
X66275296Y-90247070D01*
X66351817Y-90357929D01*
X66406223Y-90406128D01*
X66479150Y-90470736D01*
X66629773Y-90549789D01*
X66629775Y-90549790D01*
X66794944Y-90590500D01*
X66965056Y-90590500D01*
X67027943Y-90575000D01*
X68499355Y-90575000D01*
X68519859Y-90743869D01*
X68519860Y-90743874D01*
X68580182Y-90902931D01*
X68625971Y-90969266D01*
X68676817Y-91042929D01*
X68782505Y-91136560D01*
X68804150Y-91155736D01*
X68930539Y-91222070D01*
X68954775Y-91234790D01*
X69119944Y-91275500D01*
X69290056Y-91275500D01*
X69455225Y-91234790D01*
X69555672Y-91182071D01*
X69605849Y-91155736D01*
X69605850Y-91155734D01*
X69605852Y-91155734D01*
X69733183Y-91042929D01*
X69829818Y-90902930D01*
X69890140Y-90743872D01*
X69910645Y-90575000D01*
X69890140Y-90406128D01*
X69829818Y-90247070D01*
X69733183Y-90107071D01*
X69605852Y-89994266D01*
X69605849Y-89994263D01*
X69455226Y-89915210D01*
X69290056Y-89874500D01*
X69119944Y-89874500D01*
X68954773Y-89915210D01*
X68804150Y-89994263D01*
X68676816Y-90107072D01*
X68580182Y-90247068D01*
X68519860Y-90406125D01*
X68519859Y-90406130D01*
X68499355Y-90575000D01*
X67027943Y-90575000D01*
X67130225Y-90549790D01*
X67263192Y-90480003D01*
X67280849Y-90470736D01*
X67280850Y-90470734D01*
X67280852Y-90470734D01*
X67408183Y-90357929D01*
X67504818Y-90217930D01*
X67565140Y-90058872D01*
X67585645Y-89890000D01*
X67565140Y-89721128D01*
X67561308Y-89711025D01*
X67526359Y-89618869D01*
X67504818Y-89562070D01*
X67502880Y-89559263D01*
X67470476Y-89512318D01*
X67427461Y-89450000D01*
X86674355Y-89450000D01*
X86694859Y-89618869D01*
X86694860Y-89618874D01*
X86755182Y-89777931D01*
X86817475Y-89868177D01*
X86851817Y-89917929D01*
X86911869Y-89971130D01*
X86979150Y-90030736D01*
X87072613Y-90079789D01*
X87129775Y-90109790D01*
X87294944Y-90150500D01*
X87465056Y-90150500D01*
X87630225Y-90109790D01*
X87727246Y-90058869D01*
X87780849Y-90030736D01*
X87780850Y-90030734D01*
X87780852Y-90030734D01*
X87908183Y-89917929D01*
X88004818Y-89777930D01*
X88065140Y-89618872D01*
X88085645Y-89450000D01*
X88082002Y-89420000D01*
X89044355Y-89420000D01*
X89064859Y-89588869D01*
X89064860Y-89588874D01*
X89125182Y-89747931D01*
X89169455Y-89812070D01*
X89221817Y-89887929D01*
X89315726Y-89971125D01*
X89349150Y-90000736D01*
X89459923Y-90058874D01*
X89499775Y-90079790D01*
X89664944Y-90120500D01*
X89835056Y-90120500D01*
X90000225Y-90079790D01*
X90093689Y-90030736D01*
X90150849Y-90000736D01*
X90150850Y-90000734D01*
X90150852Y-90000734D01*
X90278183Y-89887929D01*
X90374818Y-89747930D01*
X90435140Y-89588872D01*
X90455645Y-89420000D01*
X90435140Y-89251128D01*
X90374818Y-89092070D01*
X90278183Y-88952071D01*
X90150852Y-88839266D01*
X90150849Y-88839263D01*
X90000226Y-88760210D01*
X89835056Y-88719500D01*
X89664944Y-88719500D01*
X89499773Y-88760210D01*
X89349150Y-88839263D01*
X89221816Y-88952072D01*
X89125182Y-89092068D01*
X89064860Y-89251125D01*
X89064859Y-89251130D01*
X89044355Y-89420000D01*
X88082002Y-89420000D01*
X88065140Y-89281128D01*
X88004818Y-89122070D01*
X87984110Y-89092070D01*
X87961828Y-89059789D01*
X87908183Y-88982071D01*
X87780852Y-88869266D01*
X87780849Y-88869263D01*
X87630226Y-88790210D01*
X87465056Y-88749500D01*
X87294944Y-88749500D01*
X87129773Y-88790210D01*
X86979150Y-88869263D01*
X86851816Y-88982072D01*
X86755182Y-89122068D01*
X86694860Y-89281125D01*
X86694859Y-89281130D01*
X86674355Y-89450000D01*
X67427461Y-89450000D01*
X67408183Y-89422071D01*
X67280852Y-89309266D01*
X67280849Y-89309263D01*
X67130226Y-89230210D01*
X66965056Y-89189500D01*
X66794944Y-89189500D01*
X66629773Y-89230210D01*
X66479150Y-89309263D01*
X66351816Y-89422072D01*
X66255182Y-89562068D01*
X66194860Y-89721125D01*
X66194859Y-89721130D01*
X66174355Y-89890000D01*
X59984373Y-89890000D01*
X59954818Y-89812070D01*
X59931253Y-89777931D01*
X59892045Y-89721128D01*
X59858183Y-89672071D01*
X59730852Y-89559266D01*
X59730849Y-89559263D01*
X59580226Y-89480210D01*
X59415056Y-89439500D01*
X59279500Y-89439500D01*
X59212461Y-89419815D01*
X59166706Y-89367011D01*
X59155500Y-89315500D01*
X59155500Y-88400000D01*
X68884355Y-88400000D01*
X68904859Y-88568869D01*
X68904860Y-88568874D01*
X68965182Y-88727931D01*
X68987463Y-88760210D01*
X69061817Y-88867929D01*
X69156794Y-88952071D01*
X69189150Y-88980736D01*
X69339773Y-89059789D01*
X69339775Y-89059790D01*
X69504944Y-89100500D01*
X69675056Y-89100500D01*
X69840225Y-89059790D01*
X69988305Y-88982071D01*
X69990849Y-88980736D01*
X69990850Y-88980734D01*
X69990852Y-88980734D01*
X70118183Y-88867929D01*
X70214818Y-88727930D01*
X70275140Y-88568872D01*
X70295645Y-88400000D01*
X70275140Y-88231128D01*
X70214818Y-88072070D01*
X70118183Y-87932071D01*
X70025544Y-87850000D01*
X70734355Y-87850000D01*
X70754859Y-88018869D01*
X70754860Y-88018874D01*
X70815182Y-88177931D01*
X70877475Y-88268177D01*
X70911817Y-88317929D01*
X71017505Y-88411560D01*
X71039150Y-88430736D01*
X71189773Y-88509789D01*
X71189775Y-88509790D01*
X71354944Y-88550500D01*
X71525056Y-88550500D01*
X71690225Y-88509790D01*
X71769692Y-88468081D01*
X71840849Y-88430736D01*
X71840850Y-88430734D01*
X71840852Y-88430734D01*
X71968183Y-88317929D01*
X72064818Y-88177930D01*
X72125140Y-88018872D01*
X72145645Y-87850000D01*
X72125140Y-87681128D01*
X72117756Y-87661659D01*
X72079123Y-87559789D01*
X72064818Y-87522070D01*
X72049438Y-87499789D01*
X72017132Y-87452985D01*
X71968183Y-87382071D01*
X71869902Y-87295002D01*
X71840849Y-87269263D01*
X71690226Y-87190210D01*
X71525056Y-87149500D01*
X71354944Y-87149500D01*
X71189773Y-87190210D01*
X71039150Y-87269263D01*
X70911816Y-87382072D01*
X70815182Y-87522068D01*
X70754860Y-87681125D01*
X70754859Y-87681130D01*
X70734355Y-87850000D01*
X70025544Y-87850000D01*
X69990852Y-87819266D01*
X69990849Y-87819263D01*
X69840226Y-87740210D01*
X69675056Y-87699500D01*
X69504944Y-87699500D01*
X69339773Y-87740210D01*
X69189150Y-87819263D01*
X69061816Y-87932072D01*
X68965182Y-88072068D01*
X68904860Y-88231125D01*
X68904859Y-88231130D01*
X68884355Y-88400000D01*
X59155500Y-88400000D01*
X59155500Y-87663657D01*
X59175185Y-87596618D01*
X59227989Y-87550863D01*
X59257813Y-87542460D01*
X59257773Y-87542295D01*
X59262777Y-87541061D01*
X59264554Y-87540561D01*
X59265055Y-87540500D01*
X59265056Y-87540500D01*
X59430225Y-87499790D01*
X59519404Y-87452985D01*
X59580849Y-87420736D01*
X59580850Y-87420734D01*
X59580852Y-87420734D01*
X59708183Y-87307929D01*
X59804818Y-87167930D01*
X59853335Y-87040000D01*
X60344355Y-87040000D01*
X60364859Y-87208869D01*
X60364860Y-87208874D01*
X60425182Y-87367931D01*
X60465910Y-87426935D01*
X60521817Y-87507929D01*
X60615908Y-87591286D01*
X60649150Y-87620736D01*
X60799222Y-87699500D01*
X60799775Y-87699790D01*
X60964944Y-87740500D01*
X61135056Y-87740500D01*
X61300225Y-87699790D01*
X61432710Y-87630256D01*
X61450849Y-87620736D01*
X61450850Y-87620734D01*
X61450852Y-87620734D01*
X61578183Y-87507929D01*
X61674818Y-87367930D01*
X61735140Y-87208872D01*
X61755645Y-87040000D01*
X61738646Y-86900000D01*
X72124355Y-86900000D01*
X72144859Y-87068869D01*
X72144860Y-87068874D01*
X72205182Y-87227931D01*
X72242033Y-87281318D01*
X72301817Y-87367929D01*
X72397826Y-87452985D01*
X72429150Y-87480736D01*
X72555423Y-87547009D01*
X72579775Y-87559790D01*
X72744944Y-87600500D01*
X72915056Y-87600500D01*
X73080225Y-87559790D01*
X73179041Y-87507927D01*
X73230849Y-87480736D01*
X73230850Y-87480734D01*
X73230852Y-87480734D01*
X73358183Y-87367929D01*
X73454818Y-87227930D01*
X73515140Y-87068872D01*
X73535645Y-86900000D01*
X73515140Y-86731128D01*
X73503335Y-86700000D01*
X76614355Y-86700000D01*
X76634859Y-86868869D01*
X76634860Y-86868874D01*
X76695182Y-87027931D01*
X76737849Y-87089743D01*
X76791817Y-87167929D01*
X76859546Y-87227931D01*
X76919150Y-87280736D01*
X77062628Y-87356039D01*
X77069775Y-87359790D01*
X77234944Y-87400500D01*
X77405056Y-87400500D01*
X77570225Y-87359790D01*
X77577372Y-87356039D01*
X77645880Y-87342312D01*
X77692628Y-87356039D01*
X77699775Y-87359790D01*
X77864944Y-87400500D01*
X78035056Y-87400500D01*
X78200225Y-87359790D01*
X78270479Y-87322916D01*
X78338985Y-87309190D01*
X78372085Y-87318918D01*
X78372763Y-87317131D01*
X78379772Y-87319789D01*
X78379774Y-87319789D01*
X78379775Y-87319790D01*
X78544944Y-87360500D01*
X78715056Y-87360500D01*
X78880225Y-87319790D01*
X78927374Y-87295043D01*
X78995881Y-87281318D01*
X79042625Y-87295043D01*
X79089775Y-87319790D01*
X79254944Y-87360500D01*
X79425056Y-87360500D01*
X79590225Y-87319790D01*
X79645034Y-87291022D01*
X79713542Y-87277296D01*
X79732331Y-87280420D01*
X79894944Y-87320500D01*
X80065056Y-87320500D01*
X80230225Y-87279790D01*
X80329035Y-87227930D01*
X80380849Y-87200736D01*
X80380850Y-87200734D01*
X80380852Y-87200734D01*
X80508183Y-87087929D01*
X80604818Y-86947930D01*
X80665140Y-86788872D01*
X80685645Y-86620000D01*
X80665140Y-86451128D01*
X80604818Y-86292070D01*
X80508183Y-86152071D01*
X80398838Y-86055200D01*
X80380849Y-86039263D01*
X80230226Y-85960210D01*
X80065056Y-85919500D01*
X79894944Y-85919500D01*
X79729776Y-85960209D01*
X79674962Y-85988978D01*
X79606453Y-86002702D01*
X79587662Y-85999578D01*
X79425056Y-85959500D01*
X79254944Y-85959500D01*
X79089776Y-86000209D01*
X79042625Y-86024956D01*
X78974116Y-86038680D01*
X78927375Y-86024956D01*
X78880223Y-86000209D01*
X78715056Y-85959500D01*
X78544944Y-85959500D01*
X78379774Y-86000209D01*
X78379774Y-86000210D01*
X78309517Y-86037083D01*
X78241009Y-86050807D01*
X78207908Y-86041097D01*
X78207237Y-86042869D01*
X78200227Y-86040210D01*
X78035056Y-85999500D01*
X77864944Y-85999500D01*
X77699772Y-86040210D01*
X77692625Y-86043962D01*
X77624117Y-86057686D01*
X77577375Y-86043962D01*
X77570227Y-86040210D01*
X77405056Y-85999500D01*
X77234944Y-85999500D01*
X77069773Y-86040210D01*
X76919150Y-86119263D01*
X76791816Y-86232072D01*
X76695182Y-86372068D01*
X76634860Y-86531125D01*
X76634859Y-86531130D01*
X76614355Y-86700000D01*
X73503335Y-86700000D01*
X73454818Y-86572070D01*
X73358183Y-86432071D01*
X73230852Y-86319266D01*
X73230849Y-86319263D01*
X73080226Y-86240210D01*
X72915056Y-86199500D01*
X72744944Y-86199500D01*
X72579773Y-86240210D01*
X72429150Y-86319263D01*
X72301816Y-86432072D01*
X72205182Y-86572068D01*
X72144860Y-86731125D01*
X72144859Y-86731130D01*
X72124355Y-86900000D01*
X61738646Y-86900000D01*
X61735140Y-86871128D01*
X61734284Y-86868872D01*
X61713231Y-86813358D01*
X61674818Y-86712070D01*
X61578183Y-86572071D01*
X61450852Y-86459266D01*
X61450849Y-86459263D01*
X61300226Y-86380210D01*
X61135056Y-86339500D01*
X60964944Y-86339500D01*
X60799773Y-86380210D01*
X60649150Y-86459263D01*
X60568032Y-86531128D01*
X60521821Y-86572068D01*
X60521816Y-86572072D01*
X60425182Y-86712068D01*
X60364860Y-86871125D01*
X60364859Y-86871130D01*
X60344355Y-87040000D01*
X59853335Y-87040000D01*
X59865140Y-87008872D01*
X59885645Y-86840000D01*
X59865140Y-86671128D01*
X59804818Y-86512070D01*
X59708183Y-86372071D01*
X59580852Y-86259266D01*
X59580849Y-86259263D01*
X59430226Y-86180210D01*
X59265046Y-86139497D01*
X59264539Y-86139436D01*
X59264194Y-86139287D01*
X59257773Y-86137705D01*
X59258036Y-86136636D01*
X59200364Y-86111807D01*
X59161315Y-86053868D01*
X59155500Y-86016342D01*
X59155500Y-85817377D01*
X59155500Y-85817372D01*
X59142969Y-85705517D01*
X59130990Y-85652722D01*
X59130830Y-85652015D01*
X59130827Y-85652008D01*
X59130826Y-85652000D01*
X59093853Y-85545685D01*
X59058370Y-85492583D01*
X59013916Y-85426054D01*
X58967228Y-85374078D01*
X58967219Y-85374069D01*
X58850016Y-85276122D01*
X58851892Y-85273877D01*
X58815064Y-85232867D01*
X58803897Y-85163896D01*
X58805311Y-85155173D01*
X58830500Y-85028543D01*
X58830500Y-84831456D01*
X58792052Y-84638170D01*
X58792051Y-84638169D01*
X58792051Y-84638165D01*
X58776987Y-84601797D01*
X58716633Y-84456088D01*
X58714912Y-84453513D01*
X58687392Y-84412326D01*
X58666515Y-84345650D01*
X58684999Y-84278269D01*
X58697676Y-84261214D01*
X58701085Y-84257366D01*
X58760276Y-84220249D01*
X58830142Y-84221025D01*
X58875464Y-84246218D01*
X58967758Y-84326840D01*
X59098396Y-84387134D01*
X59163470Y-84406525D01*
X59164928Y-84406985D01*
X59165359Y-84407088D01*
X59307692Y-84428134D01*
X62918756Y-84442578D01*
X62985714Y-84462531D01*
X63031258Y-84515517D01*
X63034200Y-84522605D01*
X63046182Y-84554200D01*
X63055183Y-84577932D01*
X63096763Y-84638170D01*
X63151817Y-84717929D01*
X63233783Y-84790544D01*
X63279150Y-84830736D01*
X63401012Y-84894694D01*
X63429775Y-84909790D01*
X63594944Y-84950500D01*
X63765056Y-84950500D01*
X63930225Y-84909790D01*
X64080852Y-84830734D01*
X64100831Y-84813033D01*
X64164062Y-84783310D01*
X64212734Y-84785448D01*
X64354944Y-84820500D01*
X64525056Y-84820500D01*
X64690225Y-84779790D01*
X64769692Y-84738081D01*
X64840849Y-84700736D01*
X64840850Y-84700734D01*
X64840852Y-84700734D01*
X64968183Y-84587929D01*
X65031706Y-84495899D01*
X65085987Y-84451910D01*
X65151890Y-84443674D01*
X65206356Y-84451728D01*
X68470685Y-84464786D01*
X68523128Y-84464996D01*
X68523128Y-84464995D01*
X68523132Y-84464996D01*
X68632307Y-84453513D01*
X68677668Y-84443674D01*
X68684621Y-84442166D01*
X68684621Y-84442165D01*
X68684630Y-84442164D01*
X68710916Y-84433382D01*
X68780737Y-84430810D01*
X68840866Y-84466395D01*
X68872211Y-84528839D01*
X68873301Y-84536043D01*
X68874857Y-84548862D01*
X68874860Y-84548874D01*
X68935182Y-84707931D01*
X68985124Y-84780284D01*
X69007007Y-84846639D01*
X68999016Y-84894694D01*
X68954861Y-85011122D01*
X68954859Y-85011130D01*
X68934355Y-85180000D01*
X68954859Y-85348869D01*
X68954860Y-85348874D01*
X69015182Y-85507931D01*
X69065959Y-85581493D01*
X69111817Y-85647929D01*
X69217505Y-85741560D01*
X69239150Y-85760736D01*
X69368668Y-85828712D01*
X69389775Y-85839790D01*
X69554944Y-85880500D01*
X69725056Y-85880500D01*
X69890225Y-85839790D01*
X70040852Y-85760734D01*
X70162773Y-85652722D01*
X70226006Y-85623000D01*
X70295269Y-85632184D01*
X70327227Y-85652722D01*
X70386821Y-85705517D01*
X70424257Y-85738683D01*
X70449147Y-85760733D01*
X70449149Y-85760735D01*
X70557071Y-85817377D01*
X70599775Y-85839790D01*
X70764944Y-85880500D01*
X70935056Y-85880500D01*
X71100225Y-85839790D01*
X71195581Y-85789743D01*
X71250849Y-85760736D01*
X71250850Y-85760734D01*
X71250852Y-85760734D01*
X71378183Y-85647929D01*
X71474818Y-85507930D01*
X71535140Y-85348872D01*
X71555645Y-85180000D01*
X71535140Y-85011128D01*
X71474818Y-84852070D01*
X71471069Y-84846639D01*
X71428944Y-84785611D01*
X71378183Y-84712071D01*
X71267991Y-84614450D01*
X71250849Y-84599263D01*
X71100226Y-84520210D01*
X70935056Y-84479500D01*
X70764944Y-84479500D01*
X70599773Y-84520210D01*
X70449145Y-84599266D01*
X70446534Y-84601069D01*
X70444322Y-84601797D01*
X70442507Y-84602751D01*
X70442348Y-84602448D01*
X70380177Y-84622945D01*
X70312527Y-84605473D01*
X70265062Y-84554200D01*
X70252853Y-84485406D01*
X70252984Y-84484267D01*
X70265645Y-84380000D01*
X70245140Y-84211128D01*
X70229542Y-84170000D01*
X98994355Y-84170000D01*
X99014859Y-84338869D01*
X99014860Y-84338874D01*
X99075182Y-84497931D01*
X99130402Y-84577930D01*
X99171817Y-84637929D01*
X99262119Y-84717929D01*
X99299150Y-84750736D01*
X99432627Y-84820790D01*
X99449775Y-84829790D01*
X99614944Y-84870500D01*
X99785056Y-84870500D01*
X99950225Y-84829790D01*
X99967373Y-84820789D01*
X100035878Y-84807063D01*
X100082625Y-84820788D01*
X100099775Y-84829790D01*
X100264944Y-84870500D01*
X100435056Y-84870500D01*
X100600225Y-84829790D01*
X100695493Y-84779789D01*
X100750849Y-84750736D01*
X100750850Y-84750734D01*
X100750852Y-84750734D01*
X100878183Y-84637929D01*
X100974818Y-84497930D01*
X101035140Y-84338872D01*
X101055645Y-84170000D01*
X101035140Y-84001128D01*
X100974818Y-83842070D01*
X100878183Y-83702071D01*
X100750852Y-83589266D01*
X100750849Y-83589263D01*
X100600226Y-83510210D01*
X100435056Y-83469500D01*
X100264944Y-83469500D01*
X100099774Y-83510209D01*
X100099774Y-83510210D01*
X100082624Y-83519211D01*
X100014115Y-83532935D01*
X99967376Y-83519211D01*
X99950225Y-83510210D01*
X99950225Y-83510209D01*
X99785056Y-83469500D01*
X99614944Y-83469500D01*
X99449773Y-83510210D01*
X99299150Y-83589263D01*
X99171816Y-83702072D01*
X99075182Y-83842068D01*
X99014860Y-84001125D01*
X99014859Y-84001130D01*
X98994355Y-84170000D01*
X70229542Y-84170000D01*
X70184818Y-84052070D01*
X70088183Y-83912071D01*
X69960852Y-83799266D01*
X69960849Y-83799263D01*
X69810226Y-83720210D01*
X69645056Y-83679500D01*
X69474944Y-83679500D01*
X69474942Y-83679500D01*
X69308168Y-83720605D01*
X69238366Y-83717536D01*
X69181304Y-83677215D01*
X69155099Y-83612446D01*
X69154494Y-83600566D01*
X69144302Y-79959939D01*
X69137311Y-79877565D01*
X69132520Y-79849061D01*
X69140819Y-79779687D01*
X69185308Y-79725812D01*
X69196344Y-79719152D01*
X69258538Y-79685910D01*
X69410883Y-79560883D01*
X69535910Y-79408538D01*
X69628814Y-79234727D01*
X69686024Y-79046132D01*
X69705341Y-78850000D01*
X69686024Y-78653868D01*
X69628814Y-78465273D01*
X69628811Y-78465269D01*
X69628811Y-78465266D01*
X69535913Y-78291467D01*
X69535909Y-78291460D01*
X69410883Y-78139116D01*
X69258541Y-78014092D01*
X69258539Y-78014091D01*
X69258538Y-78014090D01*
X69186649Y-77975664D01*
X69136805Y-77926701D01*
X69121345Y-77858563D01*
X69122313Y-77849030D01*
X69138080Y-77737149D01*
X69124398Y-72850000D01*
X77684355Y-72850000D01*
X77704859Y-73018869D01*
X77704860Y-73018874D01*
X77765182Y-73177931D01*
X77827475Y-73268177D01*
X77861817Y-73317929D01*
X77967505Y-73411560D01*
X77989150Y-73430736D01*
X78139773Y-73509789D01*
X78139775Y-73509790D01*
X78304944Y-73550500D01*
X78475056Y-73550500D01*
X78640225Y-73509790D01*
X78719692Y-73468081D01*
X78790849Y-73430736D01*
X78790850Y-73430734D01*
X78790852Y-73430734D01*
X78918183Y-73317929D01*
X79014818Y-73177930D01*
X79075140Y-73018872D01*
X79095645Y-72850000D01*
X79075140Y-72681128D01*
X79072789Y-72674930D01*
X79014817Y-72522068D01*
X78956470Y-72437539D01*
X78918183Y-72382071D01*
X78790852Y-72269266D01*
X78790849Y-72269263D01*
X78640226Y-72190210D01*
X78475056Y-72149500D01*
X78304944Y-72149500D01*
X78139773Y-72190210D01*
X77989150Y-72269263D01*
X77861816Y-72382072D01*
X77765182Y-72522068D01*
X77704860Y-72681125D01*
X77704859Y-72681130D01*
X77684355Y-72850000D01*
X69124398Y-72850000D01*
X69111690Y-68310830D01*
X69131187Y-68243738D01*
X69183863Y-68197835D01*
X69252993Y-68187698D01*
X69316630Y-68216545D01*
X69327791Y-68227554D01*
X69328213Y-68227928D01*
X69328214Y-68227929D01*
X69395354Y-68287410D01*
X69455547Y-68340736D01*
X69606170Y-68419789D01*
X69606172Y-68419790D01*
X69771341Y-68460500D01*
X69941453Y-68460500D01*
X70106622Y-68419790D01*
X70186089Y-68378081D01*
X70257246Y-68340736D01*
X70257247Y-68340734D01*
X70257249Y-68340734D01*
X70384580Y-68227929D01*
X70481215Y-68087930D01*
X70541537Y-67928872D01*
X70562042Y-67760000D01*
X70541537Y-67591128D01*
X70481215Y-67432070D01*
X70384580Y-67292071D01*
X70257249Y-67179266D01*
X70257246Y-67179263D01*
X70106623Y-67100210D01*
X69941453Y-67059500D01*
X69771341Y-67059500D01*
X69606170Y-67100210D01*
X69455547Y-67179263D01*
X69328214Y-67292071D01*
X69292358Y-67344016D01*
X69238074Y-67388005D01*
X69168626Y-67395663D01*
X69106061Y-67364559D01*
X69074383Y-67317587D01*
X69049509Y-67252072D01*
X69043187Y-67235421D01*
X69009343Y-67174295D01*
X69009342Y-67174294D01*
X69004436Y-67167780D01*
X69004208Y-67167519D01*
X68922445Y-67059620D01*
X68922444Y-67059619D01*
X68913412Y-67052940D01*
X68871214Y-66997254D01*
X68865820Y-66927593D01*
X68871195Y-66909274D01*
X68875140Y-66898872D01*
X68895645Y-66730000D01*
X68895645Y-66729999D01*
X68895645Y-66729500D01*
X68895748Y-66729148D01*
X68896549Y-66722554D01*
X68897645Y-66722687D01*
X68915330Y-66662461D01*
X68968134Y-66616706D01*
X69019645Y-66605500D01*
X78470490Y-66605500D01*
X78470500Y-66605500D01*
X78577956Y-66593947D01*
X78629467Y-66582741D01*
X78732004Y-66548613D01*
X78777198Y-66519567D01*
X78844236Y-66499882D01*
X78895751Y-66511088D01*
X79014534Y-66565335D01*
X79014541Y-66565338D01*
X79081580Y-66585023D01*
X79081584Y-66585024D01*
X79224000Y-66605500D01*
X79224003Y-66605500D01*
X82675990Y-66605500D01*
X82676000Y-66605500D01*
X82783456Y-66593947D01*
X82834967Y-66582741D01*
X82869197Y-66571347D01*
X82937497Y-66548616D01*
X82937501Y-66548613D01*
X82937504Y-66548613D01*
X82937506Y-66548611D01*
X82944497Y-66545267D01*
X82945783Y-66547955D01*
X82999433Y-66532179D01*
X83066480Y-66551836D01*
X83112257Y-66604621D01*
X83115426Y-66612207D01*
X83125182Y-66637932D01*
X83152791Y-66677930D01*
X83221816Y-66777929D01*
X83326031Y-66870255D01*
X83349149Y-66890736D01*
X83496104Y-66967864D01*
X83499774Y-66969790D01*
X83664943Y-67010500D01*
X83835055Y-67010500D01*
X84000224Y-66969790D01*
X84090870Y-66922215D01*
X84150848Y-66890736D01*
X84150849Y-66890734D01*
X84150851Y-66890734D01*
X84278182Y-66777929D01*
X84374817Y-66637930D01*
X84435139Y-66478872D01*
X84455644Y-66310000D01*
X84435139Y-66141128D01*
X84374817Y-65982070D01*
X84278182Y-65842071D01*
X84150851Y-65729266D01*
X84150848Y-65729263D01*
X84000225Y-65650210D01*
X83835055Y-65609500D01*
X83664943Y-65609500D01*
X83499773Y-65650210D01*
X83487123Y-65656849D01*
X83418614Y-65670572D01*
X83353562Y-65645078D01*
X83312619Y-65588461D01*
X83305500Y-65547051D01*
X83305500Y-64957537D01*
X83325185Y-64890498D01*
X83377989Y-64844743D01*
X83399822Y-64837141D01*
X83470225Y-64819789D01*
X83620852Y-64740733D01*
X83748183Y-64627928D01*
X83844818Y-64487929D01*
X83883653Y-64385529D01*
X83925831Y-64329826D01*
X83991429Y-64305769D01*
X83999595Y-64305500D01*
X84879115Y-64305500D01*
X84946154Y-64325185D01*
G37*
G04 #@! TD.AperFunction*
G04 #@! TA.AperFunction,Conductor*
G36*
X119442539Y-50520185D02*
G01*
X119488294Y-50572989D01*
X119499500Y-50624500D01*
X119499500Y-119375500D01*
X119479815Y-119442539D01*
X119427011Y-119488294D01*
X119375500Y-119499500D01*
X106424000Y-119499500D01*
X106356961Y-119479815D01*
X106311206Y-119427011D01*
X106300000Y-119375500D01*
X106300000Y-116620000D01*
X108494355Y-116620000D01*
X108514859Y-116788869D01*
X108514860Y-116788874D01*
X108575182Y-116947931D01*
X108628411Y-117025045D01*
X108671817Y-117087929D01*
X108777505Y-117181560D01*
X108799150Y-117200736D01*
X108949773Y-117279789D01*
X108949775Y-117279790D01*
X109114944Y-117320500D01*
X109285056Y-117320500D01*
X109450225Y-117279790D01*
X109529692Y-117238081D01*
X109600849Y-117200736D01*
X109600850Y-117200734D01*
X109600852Y-117200734D01*
X109728183Y-117087929D01*
X109824818Y-116947930D01*
X109885140Y-116788872D01*
X109905645Y-116620000D01*
X109885140Y-116451128D01*
X109824818Y-116292070D01*
X109728183Y-116152071D01*
X109600852Y-116039266D01*
X109600849Y-116039263D01*
X109450226Y-115960210D01*
X109285056Y-115919500D01*
X109114944Y-115919500D01*
X108949773Y-115960210D01*
X108799150Y-116039263D01*
X108671816Y-116152072D01*
X108575182Y-116292068D01*
X108514860Y-116451125D01*
X108514859Y-116451130D01*
X108494355Y-116620000D01*
X106300000Y-116620000D01*
X106300000Y-115000000D01*
X112294564Y-115000000D01*
X112314289Y-115326099D01*
X112373178Y-115647452D01*
X112470366Y-115959342D01*
X112470370Y-115959354D01*
X112470373Y-115959361D01*
X112604455Y-116257279D01*
X112745822Y-116491128D01*
X112773473Y-116536868D01*
X112974954Y-116794039D01*
X113205960Y-117025045D01*
X113463131Y-117226526D01*
X113463134Y-117226528D01*
X113463137Y-117226530D01*
X113742721Y-117395545D01*
X114040639Y-117529627D01*
X114040652Y-117529631D01*
X114040657Y-117529633D01*
X114352547Y-117626821D01*
X114673896Y-117685710D01*
X115000000Y-117705436D01*
X115326104Y-117685710D01*
X115647453Y-117626821D01*
X115959361Y-117529627D01*
X116257279Y-117395545D01*
X116536863Y-117226530D01*
X116794036Y-117025048D01*
X117025048Y-116794036D01*
X117226530Y-116536863D01*
X117395545Y-116257279D01*
X117529627Y-115959361D01*
X117626821Y-115647453D01*
X117685710Y-115326104D01*
X117705436Y-115000000D01*
X117685710Y-114673896D01*
X117626821Y-114352547D01*
X117529627Y-114040639D01*
X117395545Y-113742721D01*
X117226530Y-113463137D01*
X117226528Y-113463134D01*
X117226526Y-113463131D01*
X117025045Y-113205960D01*
X116794039Y-112974954D01*
X116536868Y-112773473D01*
X116529306Y-112768901D01*
X116257279Y-112604455D01*
X115959361Y-112470373D01*
X115959354Y-112470370D01*
X115959342Y-112470366D01*
X115647452Y-112373178D01*
X115326099Y-112314289D01*
X115000000Y-112294564D01*
X114673900Y-112314289D01*
X114352547Y-112373178D01*
X114040657Y-112470366D01*
X114040641Y-112470372D01*
X114040639Y-112470373D01*
X113850933Y-112555752D01*
X113742725Y-112604453D01*
X113742723Y-112604454D01*
X113463131Y-112773473D01*
X113205960Y-112974954D01*
X112974954Y-113205960D01*
X112773473Y-113463131D01*
X112604454Y-113742723D01*
X112604453Y-113742725D01*
X112470372Y-114040642D01*
X112470366Y-114040657D01*
X112373178Y-114352547D01*
X112314289Y-114673900D01*
X112294564Y-115000000D01*
X106300000Y-115000000D01*
X106300000Y-106460000D01*
X113824355Y-106460000D01*
X113844859Y-106628869D01*
X113844860Y-106628874D01*
X113905182Y-106787931D01*
X113932792Y-106827930D01*
X114001817Y-106927929D01*
X114107505Y-107021560D01*
X114129150Y-107040736D01*
X114279773Y-107119789D01*
X114279775Y-107119790D01*
X114444944Y-107160500D01*
X114615056Y-107160500D01*
X114780225Y-107119790D01*
X114859692Y-107078081D01*
X114930849Y-107040736D01*
X114930850Y-107040734D01*
X114930852Y-107040734D01*
X115058183Y-106927929D01*
X115154818Y-106787930D01*
X115215140Y-106628872D01*
X115235645Y-106460000D01*
X115215140Y-106291128D01*
X115154818Y-106132070D01*
X115058183Y-105992071D01*
X114930852Y-105879266D01*
X114930849Y-105879263D01*
X114780226Y-105800210D01*
X114615056Y-105759500D01*
X114444944Y-105759500D01*
X114279773Y-105800210D01*
X114129150Y-105879263D01*
X114001816Y-105992072D01*
X113905182Y-106132068D01*
X113844860Y-106291125D01*
X113844859Y-106291130D01*
X113824355Y-106460000D01*
X106300000Y-106460000D01*
X106300000Y-101980000D01*
X107904355Y-101980000D01*
X107924859Y-102148869D01*
X107924860Y-102148874D01*
X107985182Y-102307931D01*
X108006902Y-102339397D01*
X108081817Y-102447929D01*
X108187505Y-102541560D01*
X108209150Y-102560736D01*
X108359773Y-102639789D01*
X108359775Y-102639790D01*
X108524944Y-102680500D01*
X108695056Y-102680500D01*
X108860225Y-102639790D01*
X109010852Y-102560734D01*
X109127122Y-102457728D01*
X109190351Y-102428008D01*
X109259615Y-102437191D01*
X109295663Y-102463563D01*
X109296203Y-102462955D01*
X109301816Y-102467927D01*
X109301817Y-102467929D01*
X109384330Y-102541029D01*
X109429150Y-102580736D01*
X109579773Y-102659789D01*
X109579775Y-102659790D01*
X109744944Y-102700500D01*
X109915056Y-102700500D01*
X110080225Y-102659790D01*
X110192746Y-102600734D01*
X110230849Y-102580736D01*
X110230850Y-102580734D01*
X110230852Y-102580734D01*
X110358183Y-102467929D01*
X110454818Y-102327930D01*
X110515140Y-102168872D01*
X110535645Y-102000000D01*
X110515140Y-101831128D01*
X110454818Y-101672070D01*
X110447915Y-101662070D01*
X110371988Y-101552071D01*
X110358183Y-101532071D01*
X110263316Y-101448026D01*
X110230849Y-101419263D01*
X110080226Y-101340210D01*
X109915056Y-101299500D01*
X109744944Y-101299500D01*
X109579773Y-101340210D01*
X109429150Y-101419264D01*
X109312880Y-101522270D01*
X109249647Y-101551991D01*
X109180383Y-101542807D01*
X109144336Y-101516436D01*
X109143797Y-101517045D01*
X109010849Y-101399263D01*
X108860226Y-101320210D01*
X108695056Y-101279500D01*
X108524944Y-101279500D01*
X108359773Y-101320210D01*
X108209150Y-101399263D01*
X108081816Y-101512072D01*
X107985182Y-101652068D01*
X107924860Y-101811125D01*
X107924859Y-101811130D01*
X107904355Y-101980000D01*
X106300000Y-101980000D01*
X106300000Y-99400000D01*
X104856682Y-97956682D01*
X104823197Y-97895359D01*
X104821267Y-97883947D01*
X104806429Y-97761744D01*
X104805140Y-97751128D01*
X104744818Y-97592070D01*
X104737675Y-97581722D01*
X104710476Y-97542318D01*
X104648183Y-97452071D01*
X104520852Y-97339266D01*
X104520849Y-97339263D01*
X104370226Y-97260210D01*
X104205056Y-97219500D01*
X104170862Y-97219500D01*
X104103823Y-97199815D01*
X104083181Y-97183181D01*
X103080000Y-96180000D01*
X115014355Y-96180000D01*
X115034859Y-96348869D01*
X115034860Y-96348874D01*
X115095182Y-96507931D01*
X115098040Y-96512071D01*
X115191817Y-96647929D01*
X115297505Y-96741560D01*
X115319150Y-96760736D01*
X115453271Y-96831128D01*
X115469775Y-96839790D01*
X115634944Y-96880500D01*
X115805056Y-96880500D01*
X115970225Y-96839790D01*
X116069037Y-96787929D01*
X116120849Y-96760736D01*
X116120850Y-96760734D01*
X116120852Y-96760734D01*
X116248183Y-96647929D01*
X116344818Y-96507930D01*
X116405140Y-96348872D01*
X116425645Y-96180000D01*
X116405140Y-96011128D01*
X116344818Y-95852070D01*
X116248183Y-95712071D01*
X116143692Y-95619500D01*
X116120849Y-95599263D01*
X115970226Y-95520210D01*
X115805056Y-95479500D01*
X115634944Y-95479500D01*
X115469773Y-95520210D01*
X115319150Y-95599263D01*
X115191816Y-95712072D01*
X115095182Y-95852068D01*
X115034860Y-96011125D01*
X115034859Y-96011130D01*
X115014355Y-96180000D01*
X103080000Y-96180000D01*
X101236319Y-94336319D01*
X101202834Y-94274996D01*
X101200000Y-94248638D01*
X101200000Y-93668543D01*
X111169499Y-93668543D01*
X111207947Y-93861829D01*
X111207950Y-93861839D01*
X111283364Y-94043907D01*
X111283371Y-94043920D01*
X111392860Y-94207781D01*
X111392863Y-94207785D01*
X111532214Y-94347136D01*
X111532218Y-94347139D01*
X111696079Y-94456628D01*
X111696092Y-94456635D01*
X111878160Y-94532049D01*
X111878165Y-94532051D01*
X111878169Y-94532051D01*
X111878170Y-94532052D01*
X112071456Y-94570500D01*
X112071459Y-94570500D01*
X113368543Y-94570500D01*
X113498582Y-94544632D01*
X113561835Y-94532051D01*
X113743914Y-94456632D01*
X113907782Y-94347139D01*
X114047139Y-94207782D01*
X114156632Y-94043914D01*
X114232051Y-93861835D01*
X114270500Y-93668543D01*
X115599499Y-93668543D01*
X115637947Y-93861829D01*
X115637950Y-93861839D01*
X115713364Y-94043907D01*
X115713371Y-94043920D01*
X115822860Y-94207781D01*
X115822863Y-94207785D01*
X115962214Y-94347136D01*
X115962218Y-94347139D01*
X116126079Y-94456628D01*
X116126092Y-94456635D01*
X116308160Y-94532049D01*
X116308165Y-94532051D01*
X116308169Y-94532051D01*
X116308170Y-94532052D01*
X116501456Y-94570500D01*
X116501459Y-94570500D01*
X117298543Y-94570500D01*
X117428582Y-94544632D01*
X117491835Y-94532051D01*
X117673914Y-94456632D01*
X117837782Y-94347139D01*
X117977139Y-94207782D01*
X118086632Y-94043914D01*
X118162051Y-93861835D01*
X118200500Y-93668541D01*
X118200500Y-93471459D01*
X118200500Y-93471456D01*
X118162052Y-93278170D01*
X118162051Y-93278169D01*
X118162051Y-93278165D01*
X118162049Y-93278160D01*
X118086635Y-93096092D01*
X118086628Y-93096079D01*
X117977139Y-92932218D01*
X117977136Y-92932214D01*
X117837785Y-92792863D01*
X117837781Y-92792860D01*
X117673920Y-92683371D01*
X117673907Y-92683364D01*
X117491839Y-92607950D01*
X117491829Y-92607947D01*
X117298543Y-92569500D01*
X117298541Y-92569500D01*
X116501459Y-92569500D01*
X116501457Y-92569500D01*
X116308170Y-92607947D01*
X116308160Y-92607950D01*
X116126092Y-92683364D01*
X116126079Y-92683371D01*
X115962218Y-92792860D01*
X115962214Y-92792863D01*
X115822863Y-92932214D01*
X115822860Y-92932218D01*
X115713371Y-93096079D01*
X115713364Y-93096092D01*
X115637950Y-93278160D01*
X115637947Y-93278170D01*
X115599500Y-93471456D01*
X115599500Y-93471459D01*
X115599500Y-93668541D01*
X115599500Y-93668543D01*
X115599499Y-93668543D01*
X114270500Y-93668543D01*
X114270500Y-93668541D01*
X114270500Y-93471459D01*
X114270500Y-93471456D01*
X114232052Y-93278170D01*
X114232051Y-93278169D01*
X114232051Y-93278165D01*
X114232049Y-93278160D01*
X114156635Y-93096092D01*
X114156628Y-93096079D01*
X114047139Y-92932218D01*
X114047136Y-92932214D01*
X113907785Y-92792863D01*
X113907781Y-92792860D01*
X113743920Y-92683371D01*
X113743907Y-92683364D01*
X113586184Y-92618034D01*
X113531780Y-92574193D01*
X113509715Y-92507899D01*
X113526994Y-92440200D01*
X113545953Y-92415794D01*
X113560485Y-92401263D01*
X113616503Y-92304237D01*
X113645500Y-92196018D01*
X113645500Y-92083982D01*
X113616503Y-91975763D01*
X113560485Y-91878737D01*
X113481263Y-91799515D01*
X113384237Y-91743497D01*
X113276018Y-91714500D01*
X113163982Y-91714500D01*
X113055763Y-91743497D01*
X113055760Y-91743498D01*
X112958740Y-91799513D01*
X112958734Y-91799517D01*
X112879517Y-91878734D01*
X112879513Y-91878740D01*
X112823498Y-91975760D01*
X112823497Y-91975763D01*
X112794500Y-92083982D01*
X112794500Y-92196018D01*
X112823497Y-92304237D01*
X112861343Y-92369789D01*
X112869260Y-92383500D01*
X112885733Y-92451400D01*
X112862881Y-92517427D01*
X112807960Y-92560617D01*
X112761873Y-92569500D01*
X112071457Y-92569500D01*
X111878170Y-92607947D01*
X111878160Y-92607950D01*
X111696092Y-92683364D01*
X111696079Y-92683371D01*
X111532218Y-92792860D01*
X111532214Y-92792863D01*
X111392863Y-92932214D01*
X111392860Y-92932218D01*
X111283371Y-93096079D01*
X111283364Y-93096092D01*
X111207950Y-93278160D01*
X111207947Y-93278170D01*
X111169500Y-93471456D01*
X111169500Y-93471459D01*
X111169500Y-93668541D01*
X111169500Y-93668543D01*
X111169499Y-93668543D01*
X101200000Y-93668543D01*
X101200000Y-92880000D01*
X107504355Y-92880000D01*
X107524859Y-93048869D01*
X107524860Y-93048874D01*
X107585182Y-93207931D01*
X107647475Y-93298177D01*
X107681817Y-93347929D01*
X107787505Y-93441560D01*
X107809150Y-93460736D01*
X107937176Y-93527929D01*
X107959775Y-93539790D01*
X108124944Y-93580500D01*
X108295056Y-93580500D01*
X108460225Y-93539790D01*
X108562000Y-93486374D01*
X108610849Y-93460736D01*
X108610850Y-93460734D01*
X108610852Y-93460734D01*
X108738183Y-93347929D01*
X108834818Y-93207930D01*
X108895140Y-93048872D01*
X108915645Y-92880000D01*
X108895140Y-92711128D01*
X108834818Y-92552070D01*
X108833261Y-92549815D01*
X108783080Y-92477115D01*
X108738183Y-92412071D01*
X108622731Y-92309790D01*
X108610849Y-92299263D01*
X108460226Y-92220210D01*
X108295056Y-92179500D01*
X108124944Y-92179500D01*
X107959773Y-92220210D01*
X107809150Y-92299263D01*
X107681816Y-92412072D01*
X107585182Y-92552068D01*
X107524860Y-92711125D01*
X107524859Y-92711130D01*
X107504355Y-92880000D01*
X101200000Y-92880000D01*
X101200000Y-91710000D01*
X114324355Y-91710000D01*
X114344859Y-91878869D01*
X114344860Y-91878874D01*
X114405182Y-92037931D01*
X114436971Y-92083984D01*
X114501817Y-92177929D01*
X114549543Y-92220210D01*
X114629150Y-92290736D01*
X114740670Y-92349266D01*
X114779775Y-92369790D01*
X114944944Y-92410500D01*
X115115056Y-92410500D01*
X115280225Y-92369790D01*
X115359692Y-92328081D01*
X115430849Y-92290736D01*
X115430850Y-92290734D01*
X115430852Y-92290734D01*
X115558183Y-92177929D01*
X115654818Y-92037930D01*
X115715140Y-91878872D01*
X115735645Y-91710000D01*
X115715140Y-91541128D01*
X115654818Y-91382070D01*
X115558183Y-91242071D01*
X115430852Y-91129266D01*
X115430849Y-91129263D01*
X115280226Y-91050210D01*
X115115056Y-91009500D01*
X114944944Y-91009500D01*
X114779773Y-91050210D01*
X114629150Y-91129263D01*
X114501816Y-91242072D01*
X114405182Y-91382068D01*
X114344860Y-91541125D01*
X114344859Y-91541130D01*
X114324355Y-91710000D01*
X101200000Y-91710000D01*
X101200000Y-90480000D01*
X112304355Y-90480000D01*
X112324859Y-90648869D01*
X112324860Y-90648874D01*
X112385182Y-90807931D01*
X112413876Y-90849500D01*
X112481817Y-90947929D01*
X112529543Y-90990210D01*
X112609150Y-91060736D01*
X112739723Y-91129266D01*
X112759775Y-91139790D01*
X112924944Y-91180500D01*
X113095056Y-91180500D01*
X113260225Y-91139790D01*
X113339692Y-91098081D01*
X113410849Y-91060736D01*
X113410850Y-91060734D01*
X113410852Y-91060734D01*
X113538183Y-90947929D01*
X113634818Y-90807930D01*
X113695140Y-90648872D01*
X113715645Y-90480000D01*
X113695140Y-90311128D01*
X113694284Y-90308872D01*
X113644983Y-90178874D01*
X113634818Y-90152070D01*
X113633734Y-90150500D01*
X113584926Y-90079790D01*
X113538183Y-90012071D01*
X113410852Y-89899266D01*
X113410849Y-89899263D01*
X113260226Y-89820210D01*
X113095056Y-89779500D01*
X112924944Y-89779500D01*
X112759773Y-89820210D01*
X112609150Y-89899263D01*
X112481816Y-90012072D01*
X112385182Y-90152068D01*
X112324860Y-90311125D01*
X112324859Y-90311130D01*
X112304355Y-90480000D01*
X101200000Y-90480000D01*
X101200000Y-90051362D01*
X101219685Y-89984323D01*
X101236319Y-89963681D01*
X102388875Y-88811125D01*
X103600000Y-87600000D01*
X103600000Y-87220000D01*
X107354355Y-87220000D01*
X107374859Y-87388869D01*
X107374860Y-87388874D01*
X107435182Y-87547931D01*
X107485435Y-87620734D01*
X107531817Y-87687929D01*
X107591158Y-87740500D01*
X107659150Y-87800736D01*
X107808020Y-87878869D01*
X107809775Y-87879790D01*
X107974944Y-87920500D01*
X108145056Y-87920500D01*
X108310225Y-87879790D01*
X108425543Y-87819266D01*
X108460849Y-87800736D01*
X108460850Y-87800734D01*
X108460852Y-87800734D01*
X108588183Y-87687929D01*
X108684818Y-87547930D01*
X108745140Y-87388872D01*
X108765645Y-87220000D01*
X108745140Y-87051128D01*
X108729113Y-87008869D01*
X108693246Y-86914293D01*
X108684818Y-86892070D01*
X108668805Y-86868872D01*
X108613585Y-86788872D01*
X108588183Y-86752071D01*
X108460852Y-86639266D01*
X108460849Y-86639263D01*
X108310226Y-86560210D01*
X108145056Y-86519500D01*
X107974944Y-86519500D01*
X107809773Y-86560210D01*
X107659150Y-86639263D01*
X107531816Y-86752072D01*
X107435182Y-86892068D01*
X107374860Y-87051125D01*
X107374859Y-87051130D01*
X107354355Y-87220000D01*
X103600000Y-87220000D01*
X103600000Y-85028543D01*
X111169499Y-85028543D01*
X111207947Y-85221829D01*
X111207950Y-85221839D01*
X111283364Y-85403907D01*
X111283371Y-85403920D01*
X111392860Y-85567781D01*
X111392863Y-85567785D01*
X111532214Y-85707136D01*
X111532218Y-85707139D01*
X111696079Y-85816628D01*
X111696092Y-85816635D01*
X111850278Y-85880500D01*
X111878165Y-85892051D01*
X111878169Y-85892051D01*
X111878170Y-85892052D01*
X112071456Y-85930500D01*
X112761873Y-85930500D01*
X112828912Y-85950185D01*
X112874667Y-86002989D01*
X112884611Y-86072147D01*
X112869260Y-86116497D01*
X112851247Y-86147697D01*
X112823498Y-86195760D01*
X112823497Y-86195763D01*
X112794500Y-86303982D01*
X112794500Y-86416018D01*
X112820237Y-86512068D01*
X112823497Y-86524236D01*
X112823498Y-86524239D01*
X112842169Y-86556579D01*
X112879515Y-86621263D01*
X112879517Y-86621265D01*
X112885914Y-86627662D01*
X112919399Y-86688985D01*
X112914415Y-86758677D01*
X112872543Y-86814610D01*
X112827910Y-86835739D01*
X112809777Y-86840208D01*
X112809774Y-86840209D01*
X112659150Y-86919263D01*
X112531816Y-87032072D01*
X112435182Y-87172068D01*
X112374860Y-87331125D01*
X112374859Y-87331130D01*
X112354355Y-87500000D01*
X112374859Y-87668869D01*
X112374860Y-87668874D01*
X112435182Y-87827931D01*
X112497475Y-87918177D01*
X112531817Y-87967929D01*
X112637505Y-88061560D01*
X112659150Y-88080736D01*
X112809773Y-88159789D01*
X112809775Y-88159790D01*
X112974944Y-88200500D01*
X113145056Y-88200500D01*
X113310225Y-88159790D01*
X113389692Y-88118081D01*
X113460849Y-88080736D01*
X113460850Y-88080734D01*
X113460852Y-88080734D01*
X113588183Y-87967929D01*
X113684818Y-87827930D01*
X113745140Y-87668872D01*
X113765645Y-87500000D01*
X113745140Y-87331128D01*
X113684818Y-87172070D01*
X113681960Y-87167930D01*
X113613585Y-87068872D01*
X113588183Y-87032071D01*
X113460852Y-86919266D01*
X113460850Y-86919265D01*
X113460848Y-86919263D01*
X113458934Y-86917942D01*
X113457857Y-86916613D01*
X113455238Y-86914293D01*
X113455623Y-86913857D01*
X113414942Y-86863660D01*
X113407282Y-86794212D01*
X113438384Y-86731646D01*
X113467372Y-86708504D01*
X113481263Y-86700485D01*
X113560485Y-86621263D01*
X113616503Y-86524237D01*
X113645500Y-86416018D01*
X113645500Y-86303982D01*
X113616503Y-86195763D01*
X113560485Y-86098737D01*
X113545955Y-86084207D01*
X113512470Y-86022884D01*
X113517454Y-85953192D01*
X113542302Y-85920000D01*
X114624355Y-85920000D01*
X114644859Y-86088869D01*
X114644860Y-86088874D01*
X114705182Y-86247931D01*
X114754422Y-86319266D01*
X114801817Y-86387929D01*
X114882340Y-86459266D01*
X114929150Y-86500736D01*
X115065066Y-86572070D01*
X115079775Y-86579790D01*
X115244944Y-86620500D01*
X115415056Y-86620500D01*
X115580225Y-86579790D01*
X115672942Y-86531128D01*
X115730849Y-86500736D01*
X115730850Y-86500734D01*
X115730852Y-86500734D01*
X115858183Y-86387929D01*
X115954818Y-86247930D01*
X116015140Y-86088872D01*
X116032243Y-85948016D01*
X116059863Y-85883841D01*
X116117797Y-85844784D01*
X116187650Y-85843249D01*
X116202790Y-85848404D01*
X116280278Y-85880500D01*
X116308165Y-85892051D01*
X116308169Y-85892051D01*
X116308170Y-85892052D01*
X116501456Y-85930500D01*
X116501459Y-85930500D01*
X117298543Y-85930500D01*
X117428582Y-85904632D01*
X117491835Y-85892051D01*
X117632655Y-85833721D01*
X117673907Y-85816635D01*
X117673907Y-85816634D01*
X117673914Y-85816632D01*
X117837782Y-85707139D01*
X117977139Y-85567782D01*
X118086632Y-85403914D01*
X118162051Y-85221835D01*
X118175249Y-85155486D01*
X118200500Y-85028543D01*
X118200500Y-84831456D01*
X118162052Y-84638170D01*
X118162051Y-84638169D01*
X118162051Y-84638165D01*
X118113193Y-84520210D01*
X118086635Y-84456092D01*
X118086628Y-84456079D01*
X117977139Y-84292218D01*
X117977136Y-84292214D01*
X117837785Y-84152863D01*
X117837781Y-84152860D01*
X117673920Y-84043371D01*
X117673907Y-84043364D01*
X117491839Y-83967950D01*
X117491829Y-83967947D01*
X117298543Y-83929500D01*
X117298541Y-83929500D01*
X116501459Y-83929500D01*
X116501457Y-83929500D01*
X116308170Y-83967947D01*
X116308160Y-83967950D01*
X116126092Y-84043364D01*
X116126079Y-84043371D01*
X115962218Y-84152860D01*
X115962214Y-84152863D01*
X115822863Y-84292214D01*
X115822860Y-84292218D01*
X115713371Y-84456079D01*
X115713364Y-84456092D01*
X115637950Y-84638160D01*
X115637947Y-84638170D01*
X115599500Y-84831456D01*
X115599500Y-84831459D01*
X115599500Y-85028541D01*
X115602536Y-85043807D01*
X115610908Y-85085895D01*
X115604679Y-85155486D01*
X115561816Y-85210663D01*
X115495926Y-85233907D01*
X115459617Y-85230482D01*
X115415059Y-85219500D01*
X115415056Y-85219500D01*
X115244944Y-85219500D01*
X115079773Y-85260210D01*
X114929150Y-85339263D01*
X114801816Y-85452072D01*
X114705182Y-85592068D01*
X114644860Y-85751125D01*
X114644859Y-85751130D01*
X114624355Y-85920000D01*
X113542302Y-85920000D01*
X113559326Y-85897259D01*
X113586181Y-85881966D01*
X113675949Y-85844784D01*
X113743908Y-85816635D01*
X113743911Y-85816633D01*
X113743914Y-85816632D01*
X113907782Y-85707139D01*
X114047139Y-85567782D01*
X114156632Y-85403914D01*
X114232051Y-85221835D01*
X114245249Y-85155486D01*
X114270500Y-85028543D01*
X114270500Y-84831456D01*
X114232052Y-84638170D01*
X114232051Y-84638169D01*
X114232051Y-84638165D01*
X114183193Y-84520210D01*
X114156635Y-84456092D01*
X114156628Y-84456079D01*
X114047139Y-84292218D01*
X114047136Y-84292214D01*
X113907785Y-84152863D01*
X113907781Y-84152860D01*
X113743920Y-84043371D01*
X113743907Y-84043364D01*
X113561839Y-83967950D01*
X113561829Y-83967947D01*
X113368543Y-83929500D01*
X113368541Y-83929500D01*
X112071459Y-83929500D01*
X112071457Y-83929500D01*
X111878170Y-83967947D01*
X111878160Y-83967950D01*
X111696092Y-84043364D01*
X111696079Y-84043371D01*
X111532218Y-84152860D01*
X111532214Y-84152863D01*
X111392863Y-84292214D01*
X111392860Y-84292218D01*
X111283371Y-84456079D01*
X111283364Y-84456092D01*
X111207950Y-84638160D01*
X111207947Y-84638170D01*
X111169500Y-84831456D01*
X111169500Y-84831459D01*
X111169500Y-85028541D01*
X111169500Y-85028543D01*
X111169499Y-85028543D01*
X103600000Y-85028543D01*
X103600000Y-82140000D01*
X114294355Y-82140000D01*
X114314859Y-82308869D01*
X114314860Y-82308874D01*
X114375182Y-82467931D01*
X114410778Y-82519500D01*
X114471817Y-82607929D01*
X114577505Y-82701560D01*
X114599150Y-82720736D01*
X114749773Y-82799789D01*
X114749775Y-82799790D01*
X114914944Y-82840500D01*
X115085056Y-82840500D01*
X115250225Y-82799790D01*
X115341145Y-82752071D01*
X115400849Y-82720736D01*
X115400850Y-82720734D01*
X115400852Y-82720734D01*
X115528183Y-82607929D01*
X115624818Y-82467930D01*
X115685140Y-82308872D01*
X115705645Y-82140000D01*
X115685140Y-81971128D01*
X115684284Y-81968872D01*
X115624817Y-81812068D01*
X115532877Y-81678872D01*
X115528183Y-81672071D01*
X115400852Y-81559266D01*
X115400849Y-81559263D01*
X115250226Y-81480210D01*
X115085056Y-81439500D01*
X114914944Y-81439500D01*
X114749773Y-81480210D01*
X114599150Y-81559263D01*
X114471816Y-81672072D01*
X114375182Y-81812068D01*
X114314860Y-81971125D01*
X114314859Y-81971130D01*
X114294355Y-82140000D01*
X103600000Y-82140000D01*
X103600000Y-76407486D01*
X108199500Y-76407486D01*
X108199500Y-76592513D01*
X108228445Y-76775265D01*
X108285619Y-76951232D01*
X108285620Y-76951235D01*
X108330742Y-77039790D01*
X108369622Y-77116096D01*
X108478379Y-77265787D01*
X108609213Y-77396621D01*
X108758904Y-77505378D01*
X108839763Y-77546577D01*
X108923764Y-77589379D01*
X108923767Y-77589380D01*
X109011750Y-77617967D01*
X109099736Y-77646555D01*
X109282486Y-77675500D01*
X109282487Y-77675500D01*
X111617513Y-77675500D01*
X111617514Y-77675500D01*
X111800264Y-77646555D01*
X111976235Y-77589379D01*
X112141096Y-77505378D01*
X112290787Y-77396621D01*
X112421621Y-77265787D01*
X112530378Y-77116096D01*
X112614379Y-76951235D01*
X112671555Y-76775264D01*
X112700500Y-76592514D01*
X112700500Y-76407486D01*
X114699500Y-76407486D01*
X114699500Y-76592513D01*
X114728445Y-76775265D01*
X114785619Y-76951232D01*
X114785620Y-76951235D01*
X114830742Y-77039790D01*
X114869622Y-77116096D01*
X114978379Y-77265787D01*
X115109213Y-77396621D01*
X115258904Y-77505378D01*
X115339763Y-77546577D01*
X115423764Y-77589379D01*
X115423767Y-77589380D01*
X115511750Y-77617967D01*
X115599736Y-77646555D01*
X115782486Y-77675500D01*
X115782487Y-77675500D01*
X117117513Y-77675500D01*
X117117514Y-77675500D01*
X117300264Y-77646555D01*
X117476235Y-77589379D01*
X117641096Y-77505378D01*
X117790787Y-77396621D01*
X117921621Y-77265787D01*
X118030378Y-77116096D01*
X118114379Y-76951235D01*
X118171555Y-76775264D01*
X118200500Y-76592514D01*
X118200500Y-76407486D01*
X118171555Y-76224736D01*
X118115453Y-76052070D01*
X118114380Y-76048767D01*
X118114379Y-76048764D01*
X118044730Y-75912071D01*
X118030378Y-75883904D01*
X117921621Y-75734213D01*
X117790787Y-75603379D01*
X117641096Y-75494622D01*
X117623113Y-75485459D01*
X117476235Y-75410620D01*
X117476232Y-75410619D01*
X117300265Y-75353445D01*
X117208889Y-75338972D01*
X117117514Y-75324500D01*
X115782486Y-75324500D01*
X115721569Y-75334148D01*
X115599734Y-75353445D01*
X115423767Y-75410619D01*
X115423764Y-75410620D01*
X115258903Y-75494622D01*
X115199882Y-75537504D01*
X115109213Y-75603379D01*
X115109211Y-75603381D01*
X115109210Y-75603381D01*
X114978381Y-75734210D01*
X114978381Y-75734211D01*
X114978379Y-75734213D01*
X114951779Y-75770825D01*
X114869622Y-75883903D01*
X114785620Y-76048764D01*
X114785619Y-76048767D01*
X114728445Y-76224734D01*
X114699500Y-76407486D01*
X112700500Y-76407486D01*
X112671555Y-76224736D01*
X112615453Y-76052070D01*
X112614380Y-76048767D01*
X112614379Y-76048764D01*
X112544730Y-75912071D01*
X112530378Y-75883904D01*
X112421621Y-75734213D01*
X112290787Y-75603379D01*
X112141096Y-75494622D01*
X112123113Y-75485459D01*
X111976235Y-75410620D01*
X111976232Y-75410619D01*
X111800265Y-75353445D01*
X111708889Y-75338972D01*
X111617514Y-75324500D01*
X109282486Y-75324500D01*
X109221569Y-75334148D01*
X109099734Y-75353445D01*
X108923767Y-75410619D01*
X108923764Y-75410620D01*
X108758903Y-75494622D01*
X108699882Y-75537504D01*
X108609213Y-75603379D01*
X108609211Y-75603381D01*
X108609210Y-75603381D01*
X108478381Y-75734210D01*
X108478381Y-75734211D01*
X108478379Y-75734213D01*
X108451779Y-75770825D01*
X108369622Y-75883903D01*
X108285620Y-76048764D01*
X108285619Y-76048767D01*
X108228445Y-76224734D01*
X108199500Y-76407486D01*
X103600000Y-76407486D01*
X103600000Y-75400000D01*
X94329500Y-75400000D01*
X94262461Y-75380315D01*
X94216706Y-75327511D01*
X94205500Y-75276000D01*
X94205500Y-74961106D01*
X94205499Y-74961105D01*
X94200777Y-74924721D01*
X94211668Y-74855705D01*
X94258142Y-74803534D01*
X94266112Y-74798966D01*
X94300852Y-74780734D01*
X94428183Y-74667929D01*
X94524818Y-74527930D01*
X94585140Y-74368872D01*
X94605645Y-74200000D01*
X94585140Y-74031128D01*
X94524818Y-73872070D01*
X94454364Y-73770000D01*
X94974355Y-73770000D01*
X94994859Y-73938869D01*
X94994860Y-73938874D01*
X95055182Y-74097931D01*
X95098664Y-74160924D01*
X95151817Y-74237929D01*
X95233733Y-74310500D01*
X95279150Y-74350736D01*
X95429773Y-74429789D01*
X95429775Y-74429790D01*
X95594944Y-74470500D01*
X95765056Y-74470500D01*
X95930225Y-74429790D01*
X96009692Y-74388081D01*
X96080849Y-74350736D01*
X96080850Y-74350734D01*
X96080852Y-74350734D01*
X96208183Y-74237929D01*
X96304818Y-74097930D01*
X96365140Y-73938872D01*
X96385645Y-73770000D01*
X96365140Y-73601128D01*
X96304818Y-73442070D01*
X96303734Y-73440500D01*
X96270476Y-73392318D01*
X96208183Y-73302071D01*
X96080852Y-73189266D01*
X96080849Y-73189263D01*
X95930226Y-73110210D01*
X95765056Y-73069500D01*
X95594944Y-73069500D01*
X95429773Y-73110210D01*
X95279150Y-73189263D01*
X95151816Y-73302072D01*
X95055182Y-73442068D01*
X94994860Y-73601125D01*
X94994859Y-73601130D01*
X94974355Y-73770000D01*
X94454364Y-73770000D01*
X94428183Y-73732071D01*
X94300852Y-73619266D01*
X94300849Y-73619263D01*
X94265656Y-73600793D01*
X94215443Y-73552208D01*
X94199469Y-73484189D01*
X94200543Y-73473362D01*
X94205500Y-73438889D01*
X94205500Y-71240000D01*
X104354355Y-71240000D01*
X104374859Y-71408869D01*
X104374860Y-71408874D01*
X104435182Y-71567931D01*
X104497475Y-71658177D01*
X104531817Y-71707929D01*
X104604219Y-71772071D01*
X104659150Y-71820736D01*
X104809773Y-71899789D01*
X104809775Y-71899790D01*
X104974944Y-71940500D01*
X105145056Y-71940500D01*
X105310225Y-71899790D01*
X105389692Y-71858081D01*
X105460849Y-71820736D01*
X105460850Y-71820734D01*
X105460852Y-71820734D01*
X105540694Y-71750000D01*
X106674355Y-71750000D01*
X106694859Y-71918869D01*
X106694860Y-71918874D01*
X106755182Y-72077931D01*
X106811325Y-72159266D01*
X106851817Y-72217929D01*
X106957505Y-72311560D01*
X106979150Y-72330736D01*
X107129774Y-72409790D01*
X107139017Y-72412068D01*
X107249078Y-72439195D01*
X107309457Y-72474349D01*
X107335342Y-72515618D01*
X107337790Y-72522070D01*
X107355182Y-72567931D01*
X107417475Y-72658177D01*
X107451817Y-72707929D01*
X107557505Y-72801560D01*
X107579150Y-72820736D01*
X107729773Y-72899789D01*
X107729775Y-72899790D01*
X107894944Y-72940500D01*
X108065056Y-72940500D01*
X108230225Y-72899790D01*
X108325091Y-72850000D01*
X108380849Y-72820736D01*
X108380850Y-72820734D01*
X108380852Y-72820734D01*
X108471982Y-72740000D01*
X111514355Y-72740000D01*
X111534859Y-72908869D01*
X111534860Y-72908874D01*
X111595182Y-73067931D01*
X111604293Y-73081130D01*
X111691817Y-73207929D01*
X111739306Y-73250000D01*
X111819150Y-73320736D01*
X111969773Y-73399789D01*
X111969775Y-73399790D01*
X112134944Y-73440500D01*
X112305056Y-73440500D01*
X112470225Y-73399790D01*
X112549692Y-73358081D01*
X112620849Y-73320736D01*
X112620850Y-73320734D01*
X112620852Y-73320734D01*
X112748183Y-73207929D01*
X112844818Y-73067930D01*
X112905140Y-72908872D01*
X112925645Y-72740000D01*
X112905140Y-72571128D01*
X112844818Y-72412070D01*
X112843244Y-72409790D01*
X112788675Y-72330734D01*
X112748183Y-72272071D01*
X112620852Y-72159266D01*
X112620849Y-72159263D01*
X112470226Y-72080210D01*
X112305056Y-72039500D01*
X112134944Y-72039500D01*
X111969773Y-72080210D01*
X111819150Y-72159263D01*
X111691816Y-72272072D01*
X111595182Y-72412068D01*
X111534860Y-72571125D01*
X111534859Y-72571130D01*
X111514355Y-72740000D01*
X108471982Y-72740000D01*
X108508183Y-72707929D01*
X108604818Y-72567930D01*
X108665140Y-72408872D01*
X108685645Y-72240000D01*
X108665140Y-72071128D01*
X108604818Y-71912070D01*
X108508183Y-71772071D01*
X108380852Y-71659266D01*
X108380849Y-71659263D01*
X108230226Y-71580210D01*
X108162197Y-71563443D01*
X108110921Y-71550804D01*
X108050542Y-71515649D01*
X108024658Y-71474384D01*
X108004818Y-71422070D01*
X107908183Y-71282071D01*
X107792139Y-71179265D01*
X107780849Y-71169263D01*
X107630226Y-71090210D01*
X107465056Y-71049500D01*
X107294944Y-71049500D01*
X107129773Y-71090210D01*
X106979150Y-71169263D01*
X106851816Y-71282072D01*
X106755182Y-71422068D01*
X106694860Y-71581125D01*
X106694859Y-71581130D01*
X106674355Y-71750000D01*
X105540694Y-71750000D01*
X105588183Y-71707929D01*
X105684818Y-71567930D01*
X105702794Y-71520529D01*
X105744970Y-71464828D01*
X105810567Y-71440769D01*
X105818736Y-71440500D01*
X105975056Y-71440500D01*
X106140225Y-71399790D01*
X106219692Y-71358081D01*
X106290849Y-71320736D01*
X106290850Y-71320734D01*
X106290852Y-71320734D01*
X106418183Y-71207929D01*
X106514818Y-71067930D01*
X106575140Y-70908872D01*
X106595645Y-70740000D01*
X106575140Y-70571128D01*
X106514818Y-70412070D01*
X106418183Y-70272071D01*
X106290852Y-70159266D01*
X106290849Y-70159263D01*
X106140226Y-70080210D01*
X105975056Y-70039500D01*
X105804944Y-70039500D01*
X105639773Y-70080210D01*
X105489150Y-70159263D01*
X105361816Y-70272072D01*
X105265183Y-70412067D01*
X105247205Y-70459472D01*
X105205026Y-70515174D01*
X105139429Y-70539231D01*
X105131263Y-70539500D01*
X104974944Y-70539500D01*
X104809773Y-70580210D01*
X104659150Y-70659263D01*
X104531816Y-70772072D01*
X104435182Y-70912068D01*
X104374860Y-71071125D01*
X104374859Y-71071130D01*
X104354355Y-71240000D01*
X94205500Y-71240000D01*
X94205500Y-65260000D01*
X111534355Y-65260000D01*
X111554859Y-65428869D01*
X111554860Y-65428874D01*
X111615182Y-65587931D01*
X111671325Y-65669266D01*
X111711817Y-65727929D01*
X111775698Y-65784522D01*
X111839150Y-65840736D01*
X111933403Y-65890204D01*
X111983616Y-65938789D01*
X111999590Y-66006808D01*
X111976255Y-66072665D01*
X111933403Y-66109796D01*
X111839150Y-66159263D01*
X111711816Y-66272072D01*
X111615182Y-66412068D01*
X111554860Y-66571125D01*
X111554859Y-66571130D01*
X111534355Y-66740000D01*
X111554859Y-66908869D01*
X111554860Y-66908874D01*
X111615182Y-67067931D01*
X111637463Y-67100210D01*
X111711817Y-67207929D01*
X111806794Y-67292071D01*
X111839150Y-67320736D01*
X111961983Y-67385204D01*
X112012196Y-67433789D01*
X112028170Y-67501808D01*
X112004835Y-67567665D01*
X111961983Y-67604796D01*
X111839150Y-67669263D01*
X111711816Y-67782072D01*
X111615182Y-67922068D01*
X111554860Y-68081125D01*
X111554859Y-68081130D01*
X111534355Y-68250000D01*
X111554859Y-68418869D01*
X111554860Y-68418874D01*
X111615182Y-68577931D01*
X111652552Y-68632070D01*
X111711817Y-68717929D01*
X111794442Y-68791128D01*
X111839150Y-68830736D01*
X111961983Y-68895204D01*
X112012196Y-68943789D01*
X112028170Y-69011808D01*
X112004835Y-69077665D01*
X111961983Y-69114796D01*
X111839150Y-69179263D01*
X111711816Y-69292072D01*
X111615182Y-69432068D01*
X111554860Y-69591125D01*
X111554859Y-69591130D01*
X111534355Y-69760000D01*
X111554859Y-69928869D01*
X111554860Y-69928874D01*
X111615182Y-70087931D01*
X111664420Y-70159263D01*
X111711817Y-70227929D01*
X111817505Y-70321560D01*
X111839150Y-70340736D01*
X111975060Y-70412067D01*
X111989775Y-70419790D01*
X112154944Y-70460500D01*
X112325056Y-70460500D01*
X112490225Y-70419790D01*
X112569692Y-70378081D01*
X112640849Y-70340736D01*
X112640850Y-70340734D01*
X112640852Y-70340734D01*
X112768183Y-70227929D01*
X112864818Y-70087930D01*
X112925140Y-69928872D01*
X112945645Y-69760000D01*
X112925140Y-69591128D01*
X112864818Y-69432070D01*
X112856286Y-69419710D01*
X112787969Y-69320736D01*
X112768183Y-69292071D01*
X112640852Y-69179266D01*
X112640850Y-69179265D01*
X112640849Y-69179264D01*
X112518016Y-69114796D01*
X112467804Y-69066212D01*
X112451829Y-68998193D01*
X112475164Y-68932335D01*
X112518016Y-68895204D01*
X112640852Y-68830734D01*
X112768183Y-68717929D01*
X112864818Y-68577930D01*
X112925140Y-68418872D01*
X112945645Y-68250000D01*
X112925140Y-68081128D01*
X112864818Y-67922070D01*
X112768183Y-67782071D01*
X112640852Y-67669266D01*
X112640850Y-67669265D01*
X112640849Y-67669264D01*
X112518016Y-67604796D01*
X112467804Y-67556212D01*
X112451829Y-67488193D01*
X112475164Y-67422335D01*
X112518016Y-67385204D01*
X112640852Y-67320734D01*
X112768183Y-67207929D01*
X112864818Y-67067930D01*
X112925140Y-66908872D01*
X112945645Y-66740000D01*
X112925140Y-66571128D01*
X112921346Y-66561125D01*
X112890152Y-66478872D01*
X112864818Y-66412070D01*
X112857915Y-66402070D01*
X112801773Y-66320734D01*
X112768183Y-66272071D01*
X112640852Y-66159266D01*
X112640850Y-66159265D01*
X112640849Y-66159264D01*
X112546596Y-66109796D01*
X112496384Y-66061212D01*
X112480409Y-65993193D01*
X112503744Y-65927335D01*
X112546596Y-65890204D01*
X112562092Y-65882071D01*
X112640852Y-65840734D01*
X112768183Y-65727929D01*
X112864818Y-65587930D01*
X112925140Y-65428872D01*
X112945645Y-65260000D01*
X112925140Y-65091128D01*
X112920999Y-65080210D01*
X112864817Y-64932068D01*
X112787315Y-64819789D01*
X112768183Y-64792071D01*
X112640852Y-64679266D01*
X112640849Y-64679263D01*
X112490226Y-64600210D01*
X112325056Y-64559500D01*
X112154944Y-64559500D01*
X111989773Y-64600210D01*
X111839150Y-64679263D01*
X111711816Y-64792072D01*
X111615182Y-64932068D01*
X111554860Y-65091125D01*
X111554859Y-65091130D01*
X111534355Y-65260000D01*
X94205500Y-65260000D01*
X94205500Y-63820000D01*
X105794355Y-63820000D01*
X105814859Y-63988869D01*
X105814860Y-63988874D01*
X105875182Y-64147931D01*
X105937475Y-64238177D01*
X105971817Y-64287929D01*
X106076573Y-64380734D01*
X106099150Y-64400736D01*
X106249773Y-64479789D01*
X106249775Y-64479790D01*
X106414944Y-64520500D01*
X106585056Y-64520500D01*
X106750225Y-64479790D01*
X106773077Y-64467795D01*
X106841585Y-64454069D01*
X106862290Y-64458811D01*
X106862492Y-64457995D01*
X106869775Y-64459790D01*
X107034944Y-64500500D01*
X107205056Y-64500500D01*
X107370225Y-64459790D01*
X107482746Y-64400734D01*
X107520849Y-64380736D01*
X107520850Y-64380734D01*
X107520852Y-64380734D01*
X107648183Y-64267929D01*
X107744818Y-64127930D01*
X107805140Y-63968872D01*
X107825645Y-63800000D01*
X107805140Y-63631128D01*
X107744818Y-63472070D01*
X107648183Y-63332071D01*
X107553316Y-63248026D01*
X107520849Y-63219263D01*
X107370226Y-63140210D01*
X107205056Y-63099500D01*
X107034944Y-63099500D01*
X106869773Y-63140210D01*
X106846917Y-63152206D01*
X106778408Y-63165929D01*
X106757709Y-63161188D01*
X106757508Y-63162005D01*
X106585056Y-63119500D01*
X106414944Y-63119500D01*
X106249773Y-63160210D01*
X106099150Y-63239263D01*
X105971816Y-63352072D01*
X105875182Y-63492068D01*
X105814860Y-63651125D01*
X105814859Y-63651130D01*
X105794355Y-63820000D01*
X94205500Y-63820000D01*
X94205500Y-61907486D01*
X108199500Y-61907486D01*
X108199500Y-62092513D01*
X108228445Y-62275265D01*
X108285619Y-62451232D01*
X108285620Y-62451235D01*
X108369622Y-62616096D01*
X108478379Y-62765787D01*
X108609213Y-62896621D01*
X108758904Y-63005378D01*
X108839763Y-63046577D01*
X108923764Y-63089379D01*
X108923767Y-63089380D01*
X108954914Y-63099500D01*
X109099736Y-63146555D01*
X109282486Y-63175500D01*
X109282487Y-63175500D01*
X111617513Y-63175500D01*
X111617514Y-63175500D01*
X111800264Y-63146555D01*
X111976235Y-63089379D01*
X112141096Y-63005378D01*
X112290787Y-62896621D01*
X112421621Y-62765787D01*
X112530378Y-62616096D01*
X112614379Y-62451235D01*
X112671555Y-62275264D01*
X112700500Y-62092514D01*
X112700500Y-61907486D01*
X114699500Y-61907486D01*
X114699500Y-62092513D01*
X114728445Y-62275265D01*
X114785619Y-62451232D01*
X114785620Y-62451235D01*
X114869622Y-62616096D01*
X114978379Y-62765787D01*
X115109213Y-62896621D01*
X115258904Y-63005378D01*
X115339763Y-63046577D01*
X115423764Y-63089379D01*
X115423767Y-63089380D01*
X115454914Y-63099500D01*
X115599736Y-63146555D01*
X115782486Y-63175500D01*
X115782487Y-63175500D01*
X117117513Y-63175500D01*
X117117514Y-63175500D01*
X117300264Y-63146555D01*
X117476235Y-63089379D01*
X117641096Y-63005378D01*
X117790787Y-62896621D01*
X117921621Y-62765787D01*
X118030378Y-62616096D01*
X118114379Y-62451235D01*
X118171555Y-62275264D01*
X118200500Y-62092514D01*
X118200500Y-61907486D01*
X118171555Y-61724736D01*
X118114379Y-61548765D01*
X118114379Y-61548764D01*
X118030377Y-61383903D01*
X117921621Y-61234213D01*
X117790787Y-61103379D01*
X117641096Y-60994622D01*
X117476235Y-60910620D01*
X117476232Y-60910619D01*
X117300265Y-60853445D01*
X117208889Y-60838972D01*
X117117514Y-60824500D01*
X115782486Y-60824500D01*
X115721569Y-60834148D01*
X115599734Y-60853445D01*
X115423767Y-60910619D01*
X115423764Y-60910620D01*
X115258903Y-60994622D01*
X115173499Y-61056672D01*
X115109213Y-61103379D01*
X115109211Y-61103381D01*
X115109210Y-61103381D01*
X114978381Y-61234210D01*
X114978381Y-61234211D01*
X114978379Y-61234213D01*
X114931672Y-61298499D01*
X114869622Y-61383903D01*
X114785620Y-61548764D01*
X114785619Y-61548767D01*
X114728445Y-61724734D01*
X114699500Y-61907486D01*
X112700500Y-61907486D01*
X112671555Y-61724736D01*
X112614379Y-61548765D01*
X112614379Y-61548764D01*
X112530377Y-61383903D01*
X112421621Y-61234213D01*
X112290787Y-61103379D01*
X112141096Y-60994622D01*
X111976235Y-60910620D01*
X111976232Y-60910619D01*
X111800265Y-60853445D01*
X111708889Y-60838972D01*
X111617514Y-60824500D01*
X109282486Y-60824500D01*
X109221569Y-60834148D01*
X109099734Y-60853445D01*
X108923767Y-60910619D01*
X108923764Y-60910620D01*
X108758903Y-60994622D01*
X108673499Y-61056672D01*
X108609213Y-61103379D01*
X108609211Y-61103381D01*
X108609210Y-61103381D01*
X108478381Y-61234210D01*
X108478381Y-61234211D01*
X108478379Y-61234213D01*
X108431672Y-61298499D01*
X108369622Y-61383903D01*
X108285620Y-61548764D01*
X108285619Y-61548767D01*
X108228445Y-61724734D01*
X108199500Y-61907486D01*
X94205500Y-61907486D01*
X94205500Y-57024852D01*
X94193577Y-56915710D01*
X94182016Y-56863427D01*
X94179604Y-56856304D01*
X94146807Y-56759428D01*
X94068189Y-56638922D01*
X94068185Y-56638917D01*
X94022074Y-56586435D01*
X93912701Y-56492966D01*
X93912694Y-56492962D01*
X93781424Y-56434096D01*
X93781417Y-56434094D01*
X93781415Y-56434093D01*
X93715466Y-56415218D01*
X93714328Y-56414879D01*
X93714241Y-56414867D01*
X93571689Y-56395367D01*
X93571688Y-56395367D01*
X89722150Y-56421733D01*
X89654978Y-56402508D01*
X89608862Y-56350019D01*
X89605359Y-56341706D01*
X89605139Y-56341125D01*
X89544818Y-56182070D01*
X89448183Y-56042071D01*
X89320852Y-55929266D01*
X89320849Y-55929263D01*
X89170226Y-55850210D01*
X89005056Y-55809500D01*
X88834944Y-55809500D01*
X88669773Y-55850210D01*
X88519150Y-55929263D01*
X88391816Y-56042072D01*
X88295182Y-56182068D01*
X88234860Y-56341125D01*
X88234859Y-56341130D01*
X88214355Y-56510000D01*
X88234860Y-56678873D01*
X88252405Y-56725135D01*
X88257772Y-56794798D01*
X88224625Y-56856304D01*
X88163486Y-56890126D01*
X88106789Y-56889503D01*
X87985057Y-56859500D01*
X87985056Y-56859500D01*
X87912506Y-56859500D01*
X87845467Y-56839815D01*
X87808653Y-56803253D01*
X87729770Y-56682341D01*
X87729762Y-56682330D01*
X87683651Y-56629848D01*
X87574283Y-56536383D01*
X87574282Y-56536382D01*
X87491189Y-56499118D01*
X87438075Y-56453725D01*
X87417933Y-56386822D01*
X87437159Y-56319650D01*
X87459704Y-56293159D01*
X87488182Y-56267930D01*
X87495538Y-56257274D01*
X87584818Y-56127930D01*
X87645140Y-55968872D01*
X87665645Y-55800000D01*
X87645140Y-55631128D01*
X87584818Y-55472070D01*
X87488183Y-55332071D01*
X87360852Y-55219266D01*
X87360849Y-55219263D01*
X87279620Y-55176631D01*
X109743499Y-55176631D01*
X109769496Y-55307322D01*
X109769498Y-55307328D01*
X109820492Y-55430440D01*
X109820497Y-55430449D01*
X109894527Y-55541242D01*
X109894530Y-55541246D01*
X109988753Y-55635469D01*
X109988757Y-55635472D01*
X110099550Y-55709502D01*
X110099556Y-55709505D01*
X110099557Y-55709506D01*
X110222672Y-55760502D01*
X110222676Y-55760502D01*
X110222677Y-55760503D01*
X110353368Y-55786500D01*
X110353371Y-55786500D01*
X110486631Y-55786500D01*
X110574557Y-55769009D01*
X110617328Y-55760502D01*
X110740443Y-55709506D01*
X110851243Y-55635472D01*
X110945472Y-55541243D01*
X111019506Y-55430443D01*
X111070502Y-55307328D01*
X111088019Y-55219266D01*
X111096500Y-55176631D01*
X111096500Y-55043368D01*
X111087873Y-55000000D01*
X112294564Y-55000000D01*
X112314289Y-55326099D01*
X112373178Y-55647452D01*
X112470366Y-55959342D01*
X112470370Y-55959354D01*
X112470373Y-55959361D01*
X112604455Y-56257279D01*
X112723211Y-56453725D01*
X112773473Y-56536868D01*
X112974954Y-56794039D01*
X113205960Y-57025045D01*
X113463131Y-57226526D01*
X113463134Y-57226528D01*
X113463137Y-57226530D01*
X113742721Y-57395545D01*
X114040639Y-57529627D01*
X114040652Y-57529631D01*
X114040657Y-57529633D01*
X114352547Y-57626821D01*
X114673896Y-57685710D01*
X115000000Y-57705436D01*
X115326104Y-57685710D01*
X115647453Y-57626821D01*
X115959361Y-57529627D01*
X116257279Y-57395545D01*
X116536863Y-57226530D01*
X116794036Y-57025048D01*
X117025048Y-56794036D01*
X117226530Y-56536863D01*
X117395545Y-56257279D01*
X117529627Y-55959361D01*
X117626821Y-55647453D01*
X117685710Y-55326104D01*
X117705436Y-55000000D01*
X117685710Y-54673896D01*
X117626821Y-54352547D01*
X117529627Y-54040639D01*
X117395545Y-53742721D01*
X117226530Y-53463137D01*
X117226528Y-53463134D01*
X117226526Y-53463131D01*
X117025045Y-53205960D01*
X116794039Y-52974954D01*
X116536868Y-52773473D01*
X116529306Y-52768901D01*
X116257279Y-52604455D01*
X115959361Y-52470373D01*
X115959354Y-52470370D01*
X115959342Y-52470366D01*
X115647452Y-52373178D01*
X115326099Y-52314289D01*
X115000000Y-52294564D01*
X114673900Y-52314289D01*
X114352547Y-52373178D01*
X114040657Y-52470366D01*
X114040641Y-52470372D01*
X114040639Y-52470373D01*
X113850933Y-52555752D01*
X113742725Y-52604453D01*
X113742723Y-52604454D01*
X113463131Y-52773473D01*
X113205960Y-52974954D01*
X112974954Y-53205960D01*
X112773473Y-53463131D01*
X112604454Y-53742723D01*
X112604453Y-53742725D01*
X112470372Y-54040642D01*
X112470366Y-54040657D01*
X112373178Y-54352547D01*
X112314289Y-54673900D01*
X112294564Y-55000000D01*
X111087873Y-55000000D01*
X111070503Y-54912677D01*
X111070502Y-54912676D01*
X111070502Y-54912672D01*
X111019506Y-54789557D01*
X111019505Y-54789556D01*
X111019502Y-54789550D01*
X110945472Y-54678757D01*
X110945469Y-54678753D01*
X110851246Y-54584530D01*
X110851242Y-54584527D01*
X110740449Y-54510497D01*
X110740440Y-54510492D01*
X110617328Y-54459498D01*
X110617322Y-54459496D01*
X110486631Y-54433500D01*
X110486629Y-54433500D01*
X110353371Y-54433500D01*
X110353369Y-54433500D01*
X110222677Y-54459496D01*
X110222671Y-54459498D01*
X110099559Y-54510492D01*
X110099550Y-54510497D01*
X109988757Y-54584527D01*
X109988753Y-54584530D01*
X109894530Y-54678753D01*
X109894527Y-54678757D01*
X109820497Y-54789550D01*
X109820492Y-54789559D01*
X109769498Y-54912671D01*
X109769496Y-54912677D01*
X109743500Y-55043368D01*
X109743500Y-55043371D01*
X109743500Y-55176629D01*
X109743500Y-55176631D01*
X109743499Y-55176631D01*
X87279620Y-55176631D01*
X87210226Y-55140210D01*
X87045056Y-55099500D01*
X86874944Y-55099500D01*
X86709773Y-55140210D01*
X86559150Y-55219263D01*
X86431816Y-55332072D01*
X86335182Y-55472068D01*
X86274860Y-55631125D01*
X86274859Y-55631130D01*
X86254355Y-55800000D01*
X86274859Y-55968869D01*
X86274860Y-55968874D01*
X86335182Y-56127931D01*
X86419860Y-56250607D01*
X86441743Y-56316961D01*
X86424278Y-56384613D01*
X86373010Y-56432083D01*
X86318659Y-56445044D01*
X79219690Y-56493667D01*
X79114002Y-56505580D01*
X79113999Y-56505580D01*
X79113996Y-56505581D01*
X79094014Y-56510000D01*
X79063335Y-56516784D01*
X79004791Y-56536382D01*
X78962496Y-56550540D01*
X78962494Y-56550540D01*
X78962494Y-56550541D01*
X78841462Y-56628324D01*
X78841451Y-56628332D01*
X78788659Y-56674076D01*
X78694433Y-56782817D01*
X78694430Y-56782821D01*
X78634664Y-56913687D01*
X78614976Y-56980735D01*
X78594500Y-57123154D01*
X78594500Y-65976000D01*
X78574815Y-66043039D01*
X78522011Y-66088794D01*
X78470500Y-66100000D01*
X68575804Y-66100000D01*
X68567842Y-66104361D01*
X68498144Y-66099469D01*
X68483700Y-66093027D01*
X68440225Y-66070209D01*
X68275056Y-66029500D01*
X68104944Y-66029500D01*
X67939773Y-66070210D01*
X67789150Y-66149263D01*
X67661816Y-66262072D01*
X67565182Y-66402068D01*
X67504860Y-66561125D01*
X67504859Y-66561130D01*
X67484355Y-66730000D01*
X67504859Y-66898869D01*
X67504860Y-66898874D01*
X67565182Y-67057931D01*
X67572085Y-67067931D01*
X67661817Y-67197929D01*
X67722931Y-67252071D01*
X67789150Y-67310736D01*
X67931037Y-67385204D01*
X67939775Y-67389790D01*
X68104944Y-67430500D01*
X68275056Y-67430500D01*
X68447508Y-67387995D01*
X68448119Y-67390475D01*
X68505585Y-67386027D01*
X68567104Y-67419152D01*
X68600948Y-67480278D01*
X68603938Y-67506999D01*
X68632582Y-77738564D01*
X68613085Y-77805658D01*
X68560409Y-77851561D01*
X68520739Y-77862314D01*
X68503870Y-77863975D01*
X68315266Y-77921188D01*
X68141467Y-78014086D01*
X68141460Y-78014090D01*
X67989116Y-78139116D01*
X67864090Y-78291460D01*
X67864086Y-78291467D01*
X67771188Y-78465266D01*
X67713975Y-78653870D01*
X67694659Y-78850000D01*
X67713975Y-79046129D01*
X67771188Y-79234733D01*
X67864086Y-79408532D01*
X67864090Y-79408539D01*
X67989116Y-79560883D01*
X68141460Y-79685909D01*
X68141467Y-79685913D01*
X68315266Y-79778811D01*
X68315269Y-79778811D01*
X68315273Y-79778814D01*
X68503868Y-79836024D01*
X68526957Y-79838298D01*
X68591745Y-79864458D01*
X68632104Y-79921492D01*
X68638804Y-79961354D01*
X68649650Y-83835154D01*
X68630153Y-83902248D01*
X68577477Y-83948151D01*
X68525154Y-83959500D01*
X65208378Y-83946232D01*
X65141418Y-83926279D01*
X65095874Y-83873293D01*
X65092938Y-83866219D01*
X65064818Y-83792070D01*
X65056832Y-83780501D01*
X65005285Y-83705822D01*
X64968183Y-83652071D01*
X64840852Y-83539266D01*
X64840849Y-83539263D01*
X64690226Y-83460210D01*
X64525056Y-83419500D01*
X64354944Y-83419500D01*
X64189773Y-83460210D01*
X64039149Y-83539264D01*
X64039147Y-83539266D01*
X64019163Y-83556970D01*
X63955930Y-83586690D01*
X63907264Y-83584550D01*
X63765057Y-83549500D01*
X63765056Y-83549500D01*
X63594944Y-83549500D01*
X63429773Y-83590210D01*
X63279150Y-83669263D01*
X63151815Y-83782072D01*
X63081626Y-83883758D01*
X63027343Y-83927748D01*
X62979081Y-83937316D01*
X59309714Y-83922638D01*
X59242754Y-83902685D01*
X59197210Y-83849699D01*
X59187544Y-83780501D01*
X59216823Y-83717062D01*
X59227978Y-83705828D01*
X59248183Y-83687929D01*
X59344818Y-83547930D01*
X59405140Y-83388872D01*
X59425645Y-83220000D01*
X59405140Y-83051128D01*
X59344818Y-82892070D01*
X59248183Y-82752071D01*
X59120852Y-82639266D01*
X59120849Y-82639263D01*
X58970226Y-82560210D01*
X58805056Y-82519500D01*
X58634944Y-82519500D01*
X58469773Y-82560210D01*
X58319150Y-82639263D01*
X58191816Y-82752072D01*
X58095182Y-82892068D01*
X58034860Y-83051125D01*
X58034859Y-83051130D01*
X58014355Y-83220000D01*
X58034859Y-83388869D01*
X58034860Y-83388874D01*
X58095182Y-83547931D01*
X58157475Y-83638177D01*
X58191817Y-83687929D01*
X58293397Y-83777920D01*
X58330523Y-83837109D01*
X58329755Y-83906974D01*
X58291338Y-83965334D01*
X58227467Y-83993659D01*
X58163718Y-83985297D01*
X58143938Y-83977104D01*
X58121835Y-83967949D01*
X58121833Y-83967948D01*
X58121829Y-83967947D01*
X57928543Y-83929500D01*
X57928541Y-83929500D01*
X56631459Y-83929500D01*
X56631457Y-83929500D01*
X56438170Y-83967947D01*
X56438160Y-83967950D01*
X56256092Y-84043364D01*
X56256079Y-84043371D01*
X56092218Y-84152860D01*
X56092214Y-84152863D01*
X55952863Y-84292214D01*
X55952860Y-84292218D01*
X55843371Y-84456079D01*
X55843364Y-84456092D01*
X55767950Y-84638160D01*
X55767947Y-84638170D01*
X55729500Y-84831456D01*
X55729500Y-84831459D01*
X55729500Y-85028541D01*
X55729500Y-85028543D01*
X55729499Y-85028543D01*
X55767947Y-85221829D01*
X55767950Y-85221839D01*
X55843364Y-85403907D01*
X55843371Y-85403920D01*
X55952860Y-85567781D01*
X55952863Y-85567785D01*
X56092214Y-85707136D01*
X56092218Y-85707139D01*
X56256079Y-85816628D01*
X56256092Y-85816635D01*
X56413815Y-85881965D01*
X56468219Y-85925805D01*
X56490284Y-85992099D01*
X56473005Y-86059799D01*
X56454046Y-86084205D01*
X56439518Y-86098732D01*
X56439513Y-86098740D01*
X56383498Y-86195760D01*
X56383497Y-86195763D01*
X56354500Y-86303982D01*
X56354500Y-86416018D01*
X56380237Y-86512068D01*
X56383497Y-86524236D01*
X56383498Y-86524239D01*
X56402169Y-86556579D01*
X56439515Y-86621263D01*
X56518737Y-86700485D01*
X56615763Y-86756503D01*
X56723982Y-86785500D01*
X56723984Y-86785500D01*
X56836016Y-86785500D01*
X56836018Y-86785500D01*
X56944237Y-86756503D01*
X57041263Y-86700485D01*
X57120485Y-86621263D01*
X57176503Y-86524237D01*
X57205500Y-86416018D01*
X57205500Y-86303982D01*
X57176503Y-86195763D01*
X57130739Y-86116498D01*
X57114267Y-86048600D01*
X57137119Y-85982573D01*
X57192040Y-85939383D01*
X57238127Y-85930500D01*
X57928543Y-85930500D01*
X58058582Y-85904632D01*
X58121835Y-85892051D01*
X58262655Y-85833721D01*
X58303907Y-85816635D01*
X58303907Y-85816634D01*
X58303914Y-85816632D01*
X58457110Y-85714269D01*
X58523786Y-85693392D01*
X58591166Y-85711876D01*
X58637857Y-85763855D01*
X58650000Y-85817372D01*
X58650000Y-86336062D01*
X58630315Y-86403101D01*
X58628050Y-86406502D01*
X58555183Y-86512068D01*
X58555182Y-86512068D01*
X58494860Y-86671125D01*
X58494859Y-86671130D01*
X58474355Y-86840000D01*
X58494859Y-87008869D01*
X58494860Y-87008874D01*
X58555182Y-87167931D01*
X58628050Y-87273497D01*
X58649933Y-87339851D01*
X58650000Y-87343937D01*
X58650000Y-89935218D01*
X58646397Y-89964894D01*
X58644859Y-89971131D01*
X58624355Y-90140000D01*
X58644859Y-90308869D01*
X58646397Y-90315107D01*
X58650000Y-90344783D01*
X58650000Y-92682627D01*
X58630315Y-92749666D01*
X58577511Y-92795421D01*
X58508353Y-92805365D01*
X58457109Y-92785729D01*
X58303920Y-92683371D01*
X58303907Y-92683364D01*
X58121839Y-92607950D01*
X58121829Y-92607947D01*
X57928543Y-92569500D01*
X57928541Y-92569500D01*
X57238127Y-92569500D01*
X57171088Y-92549815D01*
X57125333Y-92497011D01*
X57115389Y-92427853D01*
X57130740Y-92383500D01*
X57176503Y-92304237D01*
X57205500Y-92196018D01*
X57205500Y-92083982D01*
X57176503Y-91975763D01*
X57120485Y-91878737D01*
X57041263Y-91799515D01*
X56944237Y-91743497D01*
X56836018Y-91714500D01*
X56723982Y-91714500D01*
X56615763Y-91743497D01*
X56615760Y-91743498D01*
X56518740Y-91799513D01*
X56518734Y-91799517D01*
X56439517Y-91878734D01*
X56439513Y-91878740D01*
X56383498Y-91975760D01*
X56383497Y-91975763D01*
X56354500Y-92083982D01*
X56354500Y-92196018D01*
X56383497Y-92304237D01*
X56439515Y-92401263D01*
X56439516Y-92401264D01*
X56439517Y-92401265D01*
X56454044Y-92415792D01*
X56487529Y-92477115D01*
X56482545Y-92546807D01*
X56440673Y-92602740D01*
X56413816Y-92618034D01*
X56256088Y-92683366D01*
X56256079Y-92683371D01*
X56092218Y-92792860D01*
X56092214Y-92792863D01*
X55952863Y-92932214D01*
X55952860Y-92932218D01*
X55843371Y-93096079D01*
X55843364Y-93096092D01*
X55767950Y-93278160D01*
X55767947Y-93278170D01*
X55729500Y-93471456D01*
X55729500Y-93471459D01*
X55729500Y-93668541D01*
X55729500Y-93668543D01*
X55729499Y-93668543D01*
X55767947Y-93861829D01*
X55767950Y-93861839D01*
X55843364Y-94043907D01*
X55843371Y-94043920D01*
X55952860Y-94207781D01*
X55952863Y-94207785D01*
X56092214Y-94347136D01*
X56092218Y-94347139D01*
X56256079Y-94456628D01*
X56256092Y-94456635D01*
X56438160Y-94532049D01*
X56438165Y-94532051D01*
X56438169Y-94532051D01*
X56438170Y-94532052D01*
X56631456Y-94570500D01*
X56631459Y-94570500D01*
X57928543Y-94570500D01*
X58058582Y-94544632D01*
X58121835Y-94532051D01*
X58303914Y-94456632D01*
X58466611Y-94347921D01*
X58533286Y-94327044D01*
X58600666Y-94345528D01*
X58622917Y-94363079D01*
X58650000Y-94389999D01*
X58650000Y-94390000D01*
X68495712Y-94330747D01*
X68562865Y-94350028D01*
X68608937Y-94402556D01*
X68620454Y-94454291D01*
X68630723Y-97260210D01*
X68638554Y-99400000D01*
X68639795Y-99738885D01*
X68620356Y-99805996D01*
X68567720Y-99851944D01*
X68515796Y-99863339D01*
X50624500Y-99863339D01*
X50557461Y-99843654D01*
X50511706Y-99790850D01*
X50500500Y-99739339D01*
X50500500Y-97950000D01*
X52904540Y-97950000D01*
X52924326Y-98138256D01*
X52924327Y-98138259D01*
X52982818Y-98318277D01*
X52982821Y-98318284D01*
X53077467Y-98482216D01*
X53201979Y-98620500D01*
X53204129Y-98622888D01*
X53357265Y-98734148D01*
X53357270Y-98734151D01*
X53530192Y-98811142D01*
X53530197Y-98811144D01*
X53715354Y-98850500D01*
X53715355Y-98850500D01*
X53904644Y-98850500D01*
X53904646Y-98850500D01*
X54089803Y-98811144D01*
X54262730Y-98734151D01*
X54415871Y-98622888D01*
X54542533Y-98482216D01*
X54637179Y-98318284D01*
X54695674Y-98138256D01*
X54715460Y-97950000D01*
X54695674Y-97761744D01*
X54637179Y-97581716D01*
X54542533Y-97417784D01*
X54415871Y-97277112D01*
X54415870Y-97277111D01*
X54262734Y-97165851D01*
X54262729Y-97165848D01*
X54089807Y-97088857D01*
X54089802Y-97088855D01*
X53944001Y-97057865D01*
X53904646Y-97049500D01*
X53715354Y-97049500D01*
X53682897Y-97056398D01*
X53530197Y-97088855D01*
X53530192Y-97088857D01*
X53357270Y-97165848D01*
X53357265Y-97165851D01*
X53204129Y-97277111D01*
X53077466Y-97417785D01*
X52982821Y-97581715D01*
X52982818Y-97581722D01*
X52931152Y-97740736D01*
X52924326Y-97761744D01*
X52904540Y-97950000D01*
X50500500Y-97950000D01*
X50500500Y-96470000D01*
X57204355Y-96470000D01*
X57224859Y-96638869D01*
X57224860Y-96638874D01*
X57285182Y-96797931D01*
X57308747Y-96832070D01*
X57381817Y-96937929D01*
X57441869Y-96991130D01*
X57509150Y-97050736D01*
X57659773Y-97129789D01*
X57659775Y-97129790D01*
X57824944Y-97170500D01*
X57995056Y-97170500D01*
X58037657Y-97160000D01*
X65044355Y-97160000D01*
X65064859Y-97328869D01*
X65064860Y-97328874D01*
X65125182Y-97487931D01*
X65175435Y-97560734D01*
X65221817Y-97627929D01*
X65281158Y-97680500D01*
X65349150Y-97740736D01*
X65499773Y-97819789D01*
X65499775Y-97819790D01*
X65664944Y-97860500D01*
X65835056Y-97860500D01*
X66000225Y-97819790D01*
X66079692Y-97778081D01*
X66150849Y-97740736D01*
X66150850Y-97740734D01*
X66150852Y-97740734D01*
X66278183Y-97627929D01*
X66374818Y-97487930D01*
X66435140Y-97328872D01*
X66455645Y-97160000D01*
X66435140Y-96991128D01*
X66374818Y-96832070D01*
X66351253Y-96797931D01*
X66325578Y-96760734D01*
X66278183Y-96692071D01*
X66150852Y-96579266D01*
X66150849Y-96579263D01*
X66000226Y-96500210D01*
X65835056Y-96459500D01*
X65664944Y-96459500D01*
X65499773Y-96500210D01*
X65349150Y-96579263D01*
X65221816Y-96692072D01*
X65125182Y-96832068D01*
X65064860Y-96991125D01*
X65064859Y-96991130D01*
X65044355Y-97160000D01*
X58037657Y-97160000D01*
X58160225Y-97129790D01*
X58239692Y-97088081D01*
X58310849Y-97050736D01*
X58310850Y-97050734D01*
X58310852Y-97050734D01*
X58438183Y-96937929D01*
X58534818Y-96797930D01*
X58595140Y-96638872D01*
X58615645Y-96470000D01*
X58595140Y-96301128D01*
X58534818Y-96142070D01*
X58438183Y-96002071D01*
X58310852Y-95889266D01*
X58310849Y-95889263D01*
X58160226Y-95810210D01*
X57995056Y-95769500D01*
X57824944Y-95769500D01*
X57659773Y-95810210D01*
X57509150Y-95889263D01*
X57381816Y-96002072D01*
X57285182Y-96142068D01*
X57224860Y-96301125D01*
X57224859Y-96301130D01*
X57204355Y-96470000D01*
X50500500Y-96470000D01*
X50500500Y-93668543D01*
X51799499Y-93668543D01*
X51837947Y-93861829D01*
X51837950Y-93861839D01*
X51913364Y-94043907D01*
X51913371Y-94043920D01*
X52022860Y-94207781D01*
X52022863Y-94207785D01*
X52162214Y-94347136D01*
X52162218Y-94347139D01*
X52326079Y-94456628D01*
X52326092Y-94456635D01*
X52508160Y-94532049D01*
X52508165Y-94532051D01*
X52508169Y-94532051D01*
X52508170Y-94532052D01*
X52701456Y-94570500D01*
X52701459Y-94570500D01*
X53498543Y-94570500D01*
X53628582Y-94544632D01*
X53691835Y-94532051D01*
X53873914Y-94456632D01*
X54037782Y-94347139D01*
X54177139Y-94207782D01*
X54286632Y-94043914D01*
X54362051Y-93861835D01*
X54400500Y-93668541D01*
X54400500Y-93471459D01*
X54400500Y-93471456D01*
X54362052Y-93278170D01*
X54362051Y-93278169D01*
X54362051Y-93278165D01*
X54362049Y-93278160D01*
X54286635Y-93096092D01*
X54286628Y-93096079D01*
X54177139Y-92932218D01*
X54177136Y-92932214D01*
X54037785Y-92792863D01*
X54037781Y-92792860D01*
X53873920Y-92683371D01*
X53873907Y-92683364D01*
X53691839Y-92607950D01*
X53691829Y-92607947D01*
X53498543Y-92569500D01*
X53498541Y-92569500D01*
X52701459Y-92569500D01*
X52701457Y-92569500D01*
X52508170Y-92607947D01*
X52508160Y-92607950D01*
X52326092Y-92683364D01*
X52326079Y-92683371D01*
X52162218Y-92792860D01*
X52162214Y-92792863D01*
X52022863Y-92932214D01*
X52022860Y-92932218D01*
X51913371Y-93096079D01*
X51913364Y-93096092D01*
X51837950Y-93278160D01*
X51837947Y-93278170D01*
X51799500Y-93471456D01*
X51799500Y-93471459D01*
X51799500Y-93668541D01*
X51799500Y-93668543D01*
X51799499Y-93668543D01*
X50500500Y-93668543D01*
X50500500Y-88980000D01*
X56104355Y-88980000D01*
X56124859Y-89148869D01*
X56124860Y-89148874D01*
X56185182Y-89307931D01*
X56265686Y-89424560D01*
X56287569Y-89490914D01*
X56270104Y-89558566D01*
X56265686Y-89565440D01*
X56185183Y-89682068D01*
X56185182Y-89682068D01*
X56124860Y-89841125D01*
X56124859Y-89841130D01*
X56104355Y-90010000D01*
X56124859Y-90178869D01*
X56124860Y-90178874D01*
X56185182Y-90337931D01*
X56198986Y-90357929D01*
X56281817Y-90477929D01*
X56362932Y-90549790D01*
X56409150Y-90590736D01*
X56519923Y-90648874D01*
X56559775Y-90669790D01*
X56724944Y-90710500D01*
X56895056Y-90710500D01*
X57060225Y-90669790D01*
X57178090Y-90607929D01*
X57210849Y-90590736D01*
X57210850Y-90590734D01*
X57210852Y-90590734D01*
X57338183Y-90477929D01*
X57434818Y-90337930D01*
X57495140Y-90178872D01*
X57515645Y-90010000D01*
X57495140Y-89841128D01*
X57434818Y-89682070D01*
X57354311Y-89565437D01*
X57332430Y-89499086D01*
X57349895Y-89431435D01*
X57354296Y-89424585D01*
X57434818Y-89307930D01*
X57495140Y-89148872D01*
X57515645Y-88980000D01*
X57495140Y-88811128D01*
X57434818Y-88652070D01*
X57338183Y-88512071D01*
X57210852Y-88399266D01*
X57210849Y-88399263D01*
X57060226Y-88320210D01*
X56895056Y-88279500D01*
X56724944Y-88279500D01*
X56559773Y-88320210D01*
X56409150Y-88399263D01*
X56281816Y-88512072D01*
X56185182Y-88652068D01*
X56124860Y-88811125D01*
X56124859Y-88811130D01*
X56104355Y-88980000D01*
X50500500Y-88980000D01*
X50500500Y-87710000D01*
X54924355Y-87710000D01*
X54944859Y-87878869D01*
X54944860Y-87878874D01*
X55005182Y-88037931D01*
X55034729Y-88080736D01*
X55101817Y-88177929D01*
X55207505Y-88271560D01*
X55229150Y-88290736D01*
X55379773Y-88369789D01*
X55379775Y-88369790D01*
X55544944Y-88410500D01*
X55715056Y-88410500D01*
X55880225Y-88369790D01*
X55979037Y-88317929D01*
X56030849Y-88290736D01*
X56030850Y-88290734D01*
X56030852Y-88290734D01*
X56158183Y-88177929D01*
X56254818Y-88037930D01*
X56315140Y-87878872D01*
X56335645Y-87710000D01*
X56315140Y-87541128D01*
X56254818Y-87382070D01*
X56158183Y-87242071D01*
X56030852Y-87129266D01*
X56030849Y-87129263D01*
X55880226Y-87050210D01*
X55715056Y-87009500D01*
X55544944Y-87009500D01*
X55379773Y-87050210D01*
X55229150Y-87129263D01*
X55101816Y-87242072D01*
X55005182Y-87382068D01*
X54944860Y-87541125D01*
X54944859Y-87541130D01*
X54924355Y-87710000D01*
X50500500Y-87710000D01*
X50500500Y-85028543D01*
X51799499Y-85028543D01*
X51837947Y-85221829D01*
X51837950Y-85221839D01*
X51913364Y-85403907D01*
X51913371Y-85403920D01*
X52022860Y-85567781D01*
X52022863Y-85567785D01*
X52162214Y-85707136D01*
X52162218Y-85707139D01*
X52326079Y-85816628D01*
X52326092Y-85816635D01*
X52480278Y-85880500D01*
X52508165Y-85892051D01*
X52508169Y-85892051D01*
X52508170Y-85892052D01*
X52701456Y-85930500D01*
X52701459Y-85930500D01*
X53498543Y-85930500D01*
X53628582Y-85904632D01*
X53691835Y-85892051D01*
X53832655Y-85833721D01*
X53873907Y-85816635D01*
X53873907Y-85816634D01*
X53873914Y-85816632D01*
X54037782Y-85707139D01*
X54177139Y-85567782D01*
X54286632Y-85403914D01*
X54362051Y-85221835D01*
X54375249Y-85155486D01*
X54400500Y-85028543D01*
X54400500Y-84831456D01*
X54362052Y-84638170D01*
X54362051Y-84638169D01*
X54362051Y-84638165D01*
X54313193Y-84520210D01*
X54286635Y-84456092D01*
X54286628Y-84456079D01*
X54177139Y-84292218D01*
X54177136Y-84292214D01*
X54037785Y-84152863D01*
X54037781Y-84152860D01*
X53873920Y-84043371D01*
X53873907Y-84043364D01*
X53691839Y-83967950D01*
X53691829Y-83967947D01*
X53498543Y-83929500D01*
X53498541Y-83929500D01*
X52701459Y-83929500D01*
X52701457Y-83929500D01*
X52508170Y-83967947D01*
X52508160Y-83967950D01*
X52326092Y-84043364D01*
X52326079Y-84043371D01*
X52162218Y-84152860D01*
X52162214Y-84152863D01*
X52022863Y-84292214D01*
X52022860Y-84292218D01*
X51913371Y-84456079D01*
X51913364Y-84456092D01*
X51837950Y-84638160D01*
X51837947Y-84638170D01*
X51799500Y-84831456D01*
X51799500Y-84831459D01*
X51799500Y-85028541D01*
X51799500Y-85028543D01*
X51799499Y-85028543D01*
X50500500Y-85028543D01*
X50500500Y-81800000D01*
X62914355Y-81800000D01*
X62934859Y-81968869D01*
X62934860Y-81968874D01*
X62995182Y-82127931D01*
X63024076Y-82169790D01*
X63091817Y-82267929D01*
X63138035Y-82308874D01*
X63219150Y-82380736D01*
X63369773Y-82459789D01*
X63369775Y-82459790D01*
X63534944Y-82500500D01*
X63705056Y-82500500D01*
X63870225Y-82459790D01*
X63949692Y-82418081D01*
X64020849Y-82380736D01*
X64020850Y-82380734D01*
X64020852Y-82380734D01*
X64148183Y-82267929D01*
X64244818Y-82127930D01*
X64305140Y-81968872D01*
X64325645Y-81800000D01*
X64305140Y-81631128D01*
X64244818Y-81472070D01*
X64222336Y-81439500D01*
X64195850Y-81401128D01*
X64148183Y-81332071D01*
X64053316Y-81248026D01*
X64020849Y-81219263D01*
X63870226Y-81140210D01*
X63705056Y-81099500D01*
X63534944Y-81099500D01*
X63369773Y-81140210D01*
X63219150Y-81219263D01*
X63091816Y-81332072D01*
X62995182Y-81472068D01*
X62934860Y-81631125D01*
X62934859Y-81631130D01*
X62914355Y-81800000D01*
X50500500Y-81800000D01*
X50500500Y-80840000D01*
X54574355Y-80840000D01*
X54594859Y-81008869D01*
X54594860Y-81008874D01*
X54655182Y-81167931D01*
X54717475Y-81258177D01*
X54751817Y-81307929D01*
X54857017Y-81401128D01*
X54879150Y-81420736D01*
X55029773Y-81499789D01*
X55029775Y-81499790D01*
X55194944Y-81540500D01*
X55365056Y-81540500D01*
X55530225Y-81499790D01*
X55645097Y-81439500D01*
X55680849Y-81420736D01*
X55680850Y-81420734D01*
X55680852Y-81420734D01*
X55808183Y-81307929D01*
X55904818Y-81167930D01*
X55965140Y-81008872D01*
X55985645Y-80840000D01*
X55965140Y-80671128D01*
X55904818Y-80512070D01*
X55808183Y-80372071D01*
X55680852Y-80259266D01*
X55680849Y-80259263D01*
X55530226Y-80180210D01*
X55365056Y-80139500D01*
X55194944Y-80139500D01*
X55029773Y-80180210D01*
X54879150Y-80259263D01*
X54751816Y-80372072D01*
X54655182Y-80512068D01*
X54594860Y-80671125D01*
X54594859Y-80671130D01*
X54574355Y-80840000D01*
X50500500Y-80840000D01*
X50500500Y-79240000D01*
X64454355Y-79240000D01*
X64474859Y-79408869D01*
X64474860Y-79408874D01*
X64535182Y-79567931D01*
X64597475Y-79658177D01*
X64631817Y-79707929D01*
X64711827Y-79778811D01*
X64759150Y-79820736D01*
X64909773Y-79899789D01*
X64909775Y-79899790D01*
X65074944Y-79940500D01*
X65245056Y-79940500D01*
X65410225Y-79899790D01*
X65531720Y-79836024D01*
X65560849Y-79820736D01*
X65560850Y-79820734D01*
X65560852Y-79820734D01*
X65688183Y-79707929D01*
X65784818Y-79567930D01*
X65845140Y-79408872D01*
X65865645Y-79240000D01*
X65845140Y-79071128D01*
X65784818Y-78912070D01*
X65688183Y-78772071D01*
X65560852Y-78659266D01*
X65560849Y-78659263D01*
X65410226Y-78580210D01*
X65245056Y-78539500D01*
X65074944Y-78539500D01*
X64909773Y-78580210D01*
X64759150Y-78659263D01*
X64631816Y-78772072D01*
X64535182Y-78912068D01*
X64474860Y-79071125D01*
X64474859Y-79071130D01*
X64454355Y-79240000D01*
X50500500Y-79240000D01*
X50500500Y-76407486D01*
X51809500Y-76407486D01*
X51809500Y-76592513D01*
X51838445Y-76775265D01*
X51895619Y-76951232D01*
X51895620Y-76951235D01*
X51940742Y-77039790D01*
X51979622Y-77116096D01*
X52088379Y-77265787D01*
X52219213Y-77396621D01*
X52368904Y-77505378D01*
X52449763Y-77546577D01*
X52533764Y-77589379D01*
X52533767Y-77589380D01*
X52621750Y-77617967D01*
X52709736Y-77646555D01*
X52892486Y-77675500D01*
X52892487Y-77675500D01*
X54227513Y-77675500D01*
X54227514Y-77675500D01*
X54410264Y-77646555D01*
X54586235Y-77589379D01*
X54751096Y-77505378D01*
X54900787Y-77396621D01*
X55031621Y-77265787D01*
X55140378Y-77116096D01*
X55224379Y-76951235D01*
X55281555Y-76775264D01*
X55310500Y-76592514D01*
X55310500Y-76407486D01*
X57309500Y-76407486D01*
X57309500Y-76592513D01*
X57338445Y-76775265D01*
X57395619Y-76951232D01*
X57395620Y-76951235D01*
X57440742Y-77039790D01*
X57479622Y-77116096D01*
X57588379Y-77265787D01*
X57719213Y-77396621D01*
X57868904Y-77505378D01*
X57949763Y-77546577D01*
X58033764Y-77589379D01*
X58033767Y-77589380D01*
X58121750Y-77617967D01*
X58209736Y-77646555D01*
X58392486Y-77675500D01*
X58392487Y-77675500D01*
X60727513Y-77675500D01*
X60727514Y-77675500D01*
X60910264Y-77646555D01*
X61086235Y-77589379D01*
X61251096Y-77505378D01*
X61400787Y-77396621D01*
X61531621Y-77265787D01*
X61640378Y-77116096D01*
X61724379Y-76951235D01*
X61781555Y-76775264D01*
X61810500Y-76592514D01*
X61810500Y-76407486D01*
X61806147Y-76380000D01*
X64824355Y-76380000D01*
X64844859Y-76548869D01*
X64844860Y-76548874D01*
X64905182Y-76707931D01*
X64951660Y-76775265D01*
X65001817Y-76847929D01*
X65107505Y-76941560D01*
X65129150Y-76960736D01*
X65279773Y-77039789D01*
X65279775Y-77039790D01*
X65444944Y-77080500D01*
X65615056Y-77080500D01*
X65780225Y-77039790D01*
X65859692Y-76998081D01*
X65930849Y-76960736D01*
X65930850Y-76960734D01*
X65930852Y-76960734D01*
X66058183Y-76847929D01*
X66154818Y-76707930D01*
X66215140Y-76548872D01*
X66235645Y-76380000D01*
X66215140Y-76211128D01*
X66154818Y-76052070D01*
X66058183Y-75912071D01*
X65963316Y-75828026D01*
X65930849Y-75799263D01*
X65780226Y-75720210D01*
X65615056Y-75679500D01*
X65444944Y-75679500D01*
X65279773Y-75720210D01*
X65129150Y-75799263D01*
X65001816Y-75912072D01*
X64905182Y-76052068D01*
X64844860Y-76211125D01*
X64844859Y-76211130D01*
X64824355Y-76380000D01*
X61806147Y-76380000D01*
X61781555Y-76224736D01*
X61725453Y-76052070D01*
X61724380Y-76048767D01*
X61724379Y-76048764D01*
X61654730Y-75912071D01*
X61640378Y-75883904D01*
X61531621Y-75734213D01*
X61400787Y-75603379D01*
X61251096Y-75494622D01*
X61233113Y-75485459D01*
X61086235Y-75410620D01*
X61086232Y-75410619D01*
X60910265Y-75353445D01*
X60818889Y-75338972D01*
X60727514Y-75324500D01*
X58392486Y-75324500D01*
X58331569Y-75334148D01*
X58209734Y-75353445D01*
X58033767Y-75410619D01*
X58033764Y-75410620D01*
X57868903Y-75494622D01*
X57809882Y-75537504D01*
X57719213Y-75603379D01*
X57719211Y-75603381D01*
X57719210Y-75603381D01*
X57588381Y-75734210D01*
X57588381Y-75734211D01*
X57588379Y-75734213D01*
X57561779Y-75770825D01*
X57479622Y-75883903D01*
X57395620Y-76048764D01*
X57395619Y-76048767D01*
X57338445Y-76224734D01*
X57309500Y-76407486D01*
X55310500Y-76407486D01*
X55281555Y-76224736D01*
X55225453Y-76052070D01*
X55224380Y-76048767D01*
X55224379Y-76048764D01*
X55154730Y-75912071D01*
X55140378Y-75883904D01*
X55031621Y-75734213D01*
X54900787Y-75603379D01*
X54751096Y-75494622D01*
X54733113Y-75485459D01*
X54586235Y-75410620D01*
X54586232Y-75410619D01*
X54410265Y-75353445D01*
X54318889Y-75338972D01*
X54227514Y-75324500D01*
X52892486Y-75324500D01*
X52831569Y-75334148D01*
X52709734Y-75353445D01*
X52533767Y-75410619D01*
X52533764Y-75410620D01*
X52368903Y-75494622D01*
X52309882Y-75537504D01*
X52219213Y-75603379D01*
X52219211Y-75603381D01*
X52219210Y-75603381D01*
X52088381Y-75734210D01*
X52088381Y-75734211D01*
X52088379Y-75734213D01*
X52061779Y-75770825D01*
X51979622Y-75883903D01*
X51895620Y-76048764D01*
X51895619Y-76048767D01*
X51838445Y-76224734D01*
X51809500Y-76407486D01*
X50500500Y-76407486D01*
X50500500Y-68740000D01*
X57184355Y-68740000D01*
X57204859Y-68908869D01*
X57204860Y-68908874D01*
X57265182Y-69067931D01*
X57327475Y-69158177D01*
X57361817Y-69207929D01*
X57452120Y-69287930D01*
X57489150Y-69320736D01*
X57616983Y-69387828D01*
X57667195Y-69436412D01*
X57683170Y-69504431D01*
X57659835Y-69570289D01*
X57616983Y-69607420D01*
X57499150Y-69669263D01*
X57371816Y-69782072D01*
X57275182Y-69922068D01*
X57214860Y-70081125D01*
X57214859Y-70081130D01*
X57194355Y-70250000D01*
X57214859Y-70418869D01*
X57214860Y-70418874D01*
X57275182Y-70577931D01*
X57331325Y-70659266D01*
X57371817Y-70717929D01*
X57499148Y-70830734D01*
X57499150Y-70830735D01*
X57631983Y-70900452D01*
X57682195Y-70949036D01*
X57698170Y-71017055D01*
X57674835Y-71082913D01*
X57631984Y-71120044D01*
X57519149Y-71179265D01*
X57391816Y-71292072D01*
X57295182Y-71432068D01*
X57234860Y-71591125D01*
X57234859Y-71591130D01*
X57214355Y-71760000D01*
X57234859Y-71928869D01*
X57234860Y-71928874D01*
X57295182Y-72087931D01*
X57337681Y-72149500D01*
X57391817Y-72227929D01*
X57519148Y-72340734D01*
X57576945Y-72371069D01*
X57622930Y-72395204D01*
X57673142Y-72443789D01*
X57689116Y-72511808D01*
X57665780Y-72577666D01*
X57622930Y-72614796D01*
X57519149Y-72669265D01*
X57391816Y-72782072D01*
X57295182Y-72922068D01*
X57234860Y-73081125D01*
X57234859Y-73081130D01*
X57214355Y-73250000D01*
X57234859Y-73418869D01*
X57234860Y-73418874D01*
X57295182Y-73577931D01*
X57317318Y-73610000D01*
X57391817Y-73717929D01*
X57460608Y-73778872D01*
X57519150Y-73830736D01*
X57669773Y-73909789D01*
X57669775Y-73909790D01*
X57834944Y-73950500D01*
X58005056Y-73950500D01*
X58170225Y-73909790D01*
X58249692Y-73868081D01*
X58320849Y-73830736D01*
X58320850Y-73830734D01*
X58320852Y-73830734D01*
X58448183Y-73717929D01*
X58544818Y-73577930D01*
X58605140Y-73418872D01*
X58625645Y-73250000D01*
X58605140Y-73081128D01*
X58544818Y-72922070D01*
X58536141Y-72909500D01*
X58495071Y-72850000D01*
X58448183Y-72782071D01*
X58353316Y-72698026D01*
X58320849Y-72669263D01*
X58217070Y-72614796D01*
X58166857Y-72566212D01*
X58150883Y-72498193D01*
X58174218Y-72432335D01*
X58217070Y-72395204D01*
X58320849Y-72340736D01*
X58320850Y-72340734D01*
X58320852Y-72340734D01*
X58448183Y-72227929D01*
X58544818Y-72087930D01*
X58605140Y-71928872D01*
X58625645Y-71760000D01*
X58605140Y-71591128D01*
X58601346Y-71581125D01*
X58544817Y-71432068D01*
X58467969Y-71320736D01*
X58448183Y-71292071D01*
X58320852Y-71179266D01*
X58320849Y-71179263D01*
X58188016Y-71109547D01*
X58137803Y-71060962D01*
X58121829Y-70992943D01*
X58145164Y-70927086D01*
X58188014Y-70889956D01*
X58300852Y-70830734D01*
X58428183Y-70717929D01*
X58524818Y-70577930D01*
X58585140Y-70418872D01*
X58605645Y-70250000D01*
X58585140Y-70081128D01*
X58524818Y-69922070D01*
X58428183Y-69782071D01*
X58300852Y-69669266D01*
X58300849Y-69669263D01*
X58173016Y-69602171D01*
X58122803Y-69553586D01*
X58106829Y-69485567D01*
X58130164Y-69419710D01*
X58173013Y-69382581D01*
X58290852Y-69320734D01*
X58418183Y-69207929D01*
X58514818Y-69067930D01*
X58575140Y-68908872D01*
X58595645Y-68740000D01*
X58575140Y-68571128D01*
X58514818Y-68412070D01*
X58418183Y-68272071D01*
X58290852Y-68159266D01*
X58290849Y-68159263D01*
X58140226Y-68080210D01*
X57975056Y-68039500D01*
X57804944Y-68039500D01*
X57639773Y-68080210D01*
X57489150Y-68159263D01*
X57361816Y-68272072D01*
X57265182Y-68412068D01*
X57204860Y-68571125D01*
X57204859Y-68571130D01*
X57184355Y-68740000D01*
X50500500Y-68740000D01*
X50500500Y-67360000D01*
X65414355Y-67360000D01*
X65434859Y-67528869D01*
X65434860Y-67528874D01*
X65495182Y-67687931D01*
X65503515Y-67700003D01*
X65591817Y-67827929D01*
X65660608Y-67888872D01*
X65719150Y-67940736D01*
X65869773Y-68019789D01*
X65869775Y-68019790D01*
X66034944Y-68060500D01*
X66205056Y-68060500D01*
X66370225Y-68019790D01*
X66449692Y-67978081D01*
X66520849Y-67940736D01*
X66520850Y-67940734D01*
X66520852Y-67940734D01*
X66648183Y-67827929D01*
X66744818Y-67687930D01*
X66805140Y-67528872D01*
X66825645Y-67360000D01*
X66805140Y-67191128D01*
X66800641Y-67179266D01*
X66755221Y-67059500D01*
X66744818Y-67032070D01*
X66736141Y-67019500D01*
X66674870Y-66930734D01*
X66648183Y-66892071D01*
X66520852Y-66779266D01*
X66520849Y-66779263D01*
X66370226Y-66700210D01*
X66205056Y-66659500D01*
X66034944Y-66659500D01*
X65869773Y-66700210D01*
X65719150Y-66779263D01*
X65591816Y-66892072D01*
X65495182Y-67032068D01*
X65434860Y-67191125D01*
X65434859Y-67191130D01*
X65414355Y-67360000D01*
X50500500Y-67360000D01*
X50500500Y-65740000D01*
X57204355Y-65740000D01*
X57224859Y-65908869D01*
X57224860Y-65908874D01*
X57285182Y-66067931D01*
X57341325Y-66149266D01*
X57381817Y-66207929D01*
X57454219Y-66272071D01*
X57509150Y-66320736D01*
X57659773Y-66399789D01*
X57659775Y-66399790D01*
X57824944Y-66440500D01*
X57995056Y-66440500D01*
X58160225Y-66399790D01*
X58239692Y-66358081D01*
X58310849Y-66320736D01*
X58310850Y-66320734D01*
X58310852Y-66320734D01*
X58390694Y-66250000D01*
X63824355Y-66250000D01*
X63844859Y-66418869D01*
X63844860Y-66418874D01*
X63905182Y-66577931D01*
X63946597Y-66637930D01*
X64001817Y-66717929D01*
X64107505Y-66811560D01*
X64129150Y-66830736D01*
X64278020Y-66908869D01*
X64279775Y-66909790D01*
X64444944Y-66950500D01*
X64615056Y-66950500D01*
X64780225Y-66909790D01*
X64859692Y-66868081D01*
X64930849Y-66830736D01*
X64930850Y-66830734D01*
X64930852Y-66830734D01*
X65058183Y-66717929D01*
X65154818Y-66577930D01*
X65215140Y-66418872D01*
X65235645Y-66250000D01*
X65215140Y-66081128D01*
X65211930Y-66072665D01*
X65169392Y-65960500D01*
X65154818Y-65922070D01*
X65153244Y-65919790D01*
X65098675Y-65840734D01*
X65058183Y-65782071D01*
X64930852Y-65669266D01*
X64930849Y-65669263D01*
X64780226Y-65590210D01*
X64615056Y-65549500D01*
X64444944Y-65549500D01*
X64279773Y-65590210D01*
X64129150Y-65669263D01*
X64001816Y-65782072D01*
X63905182Y-65922068D01*
X63844860Y-66081125D01*
X63844859Y-66081130D01*
X63824355Y-66250000D01*
X58390694Y-66250000D01*
X58438183Y-66207929D01*
X58534818Y-66067930D01*
X58595140Y-65908872D01*
X58615645Y-65740000D01*
X58595140Y-65571128D01*
X58534818Y-65412070D01*
X58438183Y-65272071D01*
X58310852Y-65159266D01*
X58310849Y-65159263D01*
X58160226Y-65080210D01*
X57995056Y-65039500D01*
X57824944Y-65039500D01*
X57659773Y-65080210D01*
X57509150Y-65159263D01*
X57381816Y-65272072D01*
X57285182Y-65412068D01*
X57224860Y-65571125D01*
X57224859Y-65571130D01*
X57204355Y-65740000D01*
X50500500Y-65740000D01*
X50500500Y-64740000D01*
X61124355Y-64740000D01*
X61144859Y-64908869D01*
X61144860Y-64908874D01*
X61205182Y-65067931D01*
X61267475Y-65158177D01*
X61301817Y-65207929D01*
X61374219Y-65272071D01*
X61429150Y-65320736D01*
X61579773Y-65399789D01*
X61579775Y-65399790D01*
X61744944Y-65440500D01*
X61915056Y-65440500D01*
X62080225Y-65399790D01*
X62179037Y-65347929D01*
X62230849Y-65320736D01*
X62230850Y-65320734D01*
X62230852Y-65320734D01*
X62358183Y-65207929D01*
X62454818Y-65067930D01*
X62515140Y-64908872D01*
X62535645Y-64740000D01*
X62515140Y-64571128D01*
X62454818Y-64412070D01*
X62446993Y-64400734D01*
X62397389Y-64328871D01*
X62358183Y-64272071D01*
X62230852Y-64159266D01*
X62230849Y-64159263D01*
X62080226Y-64080210D01*
X61915056Y-64039500D01*
X61744944Y-64039500D01*
X61579773Y-64080210D01*
X61429150Y-64159263D01*
X61301816Y-64272072D01*
X61205182Y-64412068D01*
X61144860Y-64571125D01*
X61144859Y-64571130D01*
X61124355Y-64740000D01*
X50500500Y-64740000D01*
X50500500Y-61907486D01*
X51809500Y-61907486D01*
X51809500Y-62092513D01*
X51838445Y-62275265D01*
X51895619Y-62451232D01*
X51895620Y-62451235D01*
X51979622Y-62616096D01*
X52088379Y-62765787D01*
X52219213Y-62896621D01*
X52368904Y-63005378D01*
X52449763Y-63046577D01*
X52533764Y-63089379D01*
X52533767Y-63089380D01*
X52564914Y-63099500D01*
X52709736Y-63146555D01*
X52892486Y-63175500D01*
X52892487Y-63175500D01*
X54227513Y-63175500D01*
X54227514Y-63175500D01*
X54410264Y-63146555D01*
X54586235Y-63089379D01*
X54751096Y-63005378D01*
X54900787Y-62896621D01*
X55031621Y-62765787D01*
X55140378Y-62616096D01*
X55224379Y-62451235D01*
X55281555Y-62275264D01*
X55310500Y-62092514D01*
X55310500Y-61907486D01*
X57309500Y-61907486D01*
X57309500Y-62092513D01*
X57338445Y-62275265D01*
X57395619Y-62451232D01*
X57395620Y-62451235D01*
X57479622Y-62616096D01*
X57588379Y-62765787D01*
X57719213Y-62896621D01*
X57868904Y-63005378D01*
X57949763Y-63046577D01*
X58033764Y-63089379D01*
X58033767Y-63089380D01*
X58064914Y-63099500D01*
X58209736Y-63146555D01*
X58392486Y-63175500D01*
X58392487Y-63175500D01*
X60727513Y-63175500D01*
X60727514Y-63175500D01*
X60910264Y-63146555D01*
X61086235Y-63089379D01*
X61251096Y-63005378D01*
X61400787Y-62896621D01*
X61531621Y-62765787D01*
X61640378Y-62616096D01*
X61724379Y-62451235D01*
X61781555Y-62275264D01*
X61810500Y-62092514D01*
X61810500Y-61907486D01*
X61781555Y-61724736D01*
X61724379Y-61548765D01*
X61724379Y-61548764D01*
X61640377Y-61383903D01*
X61531621Y-61234213D01*
X61400787Y-61103379D01*
X61251096Y-60994622D01*
X61086235Y-60910620D01*
X61086232Y-60910619D01*
X60910265Y-60853445D01*
X60818889Y-60838972D01*
X60727514Y-60824500D01*
X58392486Y-60824500D01*
X58331569Y-60834148D01*
X58209734Y-60853445D01*
X58033767Y-60910619D01*
X58033764Y-60910620D01*
X57868903Y-60994622D01*
X57783499Y-61056672D01*
X57719213Y-61103379D01*
X57719211Y-61103381D01*
X57719210Y-61103381D01*
X57588381Y-61234210D01*
X57588381Y-61234211D01*
X57588379Y-61234213D01*
X57541672Y-61298499D01*
X57479622Y-61383903D01*
X57395620Y-61548764D01*
X57395619Y-61548767D01*
X57338445Y-61724734D01*
X57309500Y-61907486D01*
X55310500Y-61907486D01*
X55281555Y-61724736D01*
X55224379Y-61548765D01*
X55224379Y-61548764D01*
X55140377Y-61383903D01*
X55031621Y-61234213D01*
X54900787Y-61103379D01*
X54751096Y-60994622D01*
X54586235Y-60910620D01*
X54586232Y-60910619D01*
X54410265Y-60853445D01*
X54318889Y-60838972D01*
X54227514Y-60824500D01*
X52892486Y-60824500D01*
X52831569Y-60834148D01*
X52709734Y-60853445D01*
X52533767Y-60910619D01*
X52533764Y-60910620D01*
X52368903Y-60994622D01*
X52283499Y-61056672D01*
X52219213Y-61103379D01*
X52219211Y-61103381D01*
X52219210Y-61103381D01*
X52088381Y-61234210D01*
X52088381Y-61234211D01*
X52088379Y-61234213D01*
X52041672Y-61298499D01*
X51979622Y-61383903D01*
X51895620Y-61548764D01*
X51895619Y-61548767D01*
X51838445Y-61724734D01*
X51809500Y-61907486D01*
X50500500Y-61907486D01*
X50500500Y-55000000D01*
X52294564Y-55000000D01*
X52314289Y-55326099D01*
X52373178Y-55647452D01*
X52470366Y-55959342D01*
X52470370Y-55959354D01*
X52470373Y-55959361D01*
X52604455Y-56257279D01*
X52723211Y-56453725D01*
X52773473Y-56536868D01*
X52974954Y-56794039D01*
X53205960Y-57025045D01*
X53463131Y-57226526D01*
X53463134Y-57226528D01*
X53463137Y-57226530D01*
X53742721Y-57395545D01*
X54040639Y-57529627D01*
X54040652Y-57529631D01*
X54040657Y-57529633D01*
X54352547Y-57626821D01*
X54673896Y-57685710D01*
X55000000Y-57705436D01*
X55326104Y-57685710D01*
X55647453Y-57626821D01*
X55959361Y-57529627D01*
X56257279Y-57395545D01*
X56536863Y-57226530D01*
X56794036Y-57025048D01*
X57025048Y-56794036D01*
X57226530Y-56536863D01*
X57395545Y-56257279D01*
X57529627Y-55959361D01*
X57626821Y-55647453D01*
X57685710Y-55326104D01*
X57693542Y-55196631D01*
X58833499Y-55196631D01*
X58859496Y-55327322D01*
X58859498Y-55327328D01*
X58910492Y-55450440D01*
X58910497Y-55450449D01*
X58984527Y-55561242D01*
X58984530Y-55561246D01*
X59078753Y-55655469D01*
X59078757Y-55655472D01*
X59189550Y-55729502D01*
X59189556Y-55729505D01*
X59189557Y-55729506D01*
X59312672Y-55780502D01*
X59312676Y-55780502D01*
X59312677Y-55780503D01*
X59443368Y-55806500D01*
X59443371Y-55806500D01*
X59576631Y-55806500D01*
X59677174Y-55786500D01*
X59707328Y-55780502D01*
X59830443Y-55729506D01*
X59941243Y-55655472D01*
X60035472Y-55561243D01*
X60109506Y-55450443D01*
X60160502Y-55327328D01*
X60186500Y-55196629D01*
X60186500Y-55063371D01*
X60186500Y-55063368D01*
X60160503Y-54932677D01*
X60160502Y-54932676D01*
X60160502Y-54932672D01*
X60109506Y-54809557D01*
X60109505Y-54809556D01*
X60109502Y-54809550D01*
X60035472Y-54698757D01*
X60035469Y-54698753D01*
X59941246Y-54604530D01*
X59941242Y-54604527D01*
X59830449Y-54530497D01*
X59830440Y-54530492D01*
X59707328Y-54479498D01*
X59707322Y-54479496D01*
X59576631Y-54453500D01*
X59576629Y-54453500D01*
X59443371Y-54453500D01*
X59443369Y-54453500D01*
X59312677Y-54479496D01*
X59312671Y-54479498D01*
X59189559Y-54530492D01*
X59189550Y-54530497D01*
X59078757Y-54604527D01*
X59078753Y-54604530D01*
X58984530Y-54698753D01*
X58984527Y-54698757D01*
X58910497Y-54809550D01*
X58910492Y-54809559D01*
X58859498Y-54932671D01*
X58859496Y-54932677D01*
X58833500Y-55063368D01*
X58833500Y-55063371D01*
X58833500Y-55196629D01*
X58833500Y-55196631D01*
X58833499Y-55196631D01*
X57693542Y-55196631D01*
X57705436Y-55000000D01*
X57685710Y-54673896D01*
X57626821Y-54352547D01*
X57529627Y-54040639D01*
X57395545Y-53742721D01*
X57226530Y-53463137D01*
X57226528Y-53463134D01*
X57226526Y-53463131D01*
X57025045Y-53205960D01*
X56794039Y-52974954D01*
X56536868Y-52773473D01*
X56529306Y-52768901D01*
X56257279Y-52604455D01*
X55959361Y-52470373D01*
X55959354Y-52470370D01*
X55959342Y-52470366D01*
X55647452Y-52373178D01*
X55326099Y-52314289D01*
X55000000Y-52294564D01*
X54673900Y-52314289D01*
X54352547Y-52373178D01*
X54040657Y-52470366D01*
X54040641Y-52470372D01*
X54040639Y-52470373D01*
X53850933Y-52555752D01*
X53742725Y-52604453D01*
X53742723Y-52604454D01*
X53463131Y-52773473D01*
X53205960Y-52974954D01*
X52974954Y-53205960D01*
X52773473Y-53463131D01*
X52604454Y-53742723D01*
X52604453Y-53742725D01*
X52470372Y-54040642D01*
X52470366Y-54040657D01*
X52373178Y-54352547D01*
X52314289Y-54673900D01*
X52294564Y-55000000D01*
X50500500Y-55000000D01*
X50500500Y-50624500D01*
X50520185Y-50557461D01*
X50572989Y-50511706D01*
X50624500Y-50500500D01*
X119375500Y-50500500D01*
X119442539Y-50520185D01*
G37*
G04 #@! TD.AperFunction*
G04 #@! TA.AperFunction,Conductor*
G36*
X93642323Y-56920080D02*
G01*
X93688439Y-56972569D01*
X93700000Y-57024852D01*
X93700000Y-73438889D01*
X93680315Y-73505928D01*
X93633626Y-73548685D01*
X93499150Y-73619263D01*
X93371816Y-73732072D01*
X93275182Y-73872068D01*
X93214860Y-74031125D01*
X93214859Y-74031130D01*
X93194355Y-74200000D01*
X93214859Y-74368869D01*
X93214860Y-74368874D01*
X93275182Y-74527931D01*
X93337475Y-74618177D01*
X93371817Y-74667929D01*
X93499148Y-74780734D01*
X93633628Y-74851315D01*
X93683838Y-74899898D01*
X93700000Y-74961110D01*
X93700000Y-75276000D01*
X93680315Y-75343039D01*
X93627511Y-75388794D01*
X93576000Y-75400000D01*
X88948115Y-75400000D01*
X88881076Y-75380315D01*
X88846066Y-75346441D01*
X88798184Y-75277073D01*
X88670849Y-75164264D01*
X88520226Y-75085211D01*
X88355056Y-75044501D01*
X88184944Y-75044501D01*
X88019773Y-75085211D01*
X87869155Y-75164262D01*
X87869141Y-75164272D01*
X87857864Y-75174262D01*
X87794629Y-75203980D01*
X87725367Y-75194792D01*
X87693418Y-75174259D01*
X87670852Y-75154267D01*
X87670850Y-75154266D01*
X87670849Y-75154265D01*
X87670845Y-75154262D01*
X87520226Y-75075211D01*
X87355056Y-75034501D01*
X87184944Y-75034501D01*
X87019773Y-75075211D01*
X86869149Y-75154265D01*
X86869147Y-75154267D01*
X86842226Y-75178117D01*
X86778993Y-75207838D01*
X86709730Y-75198654D01*
X86677774Y-75178117D01*
X86650852Y-75154267D01*
X86650850Y-75154265D01*
X86500226Y-75075211D01*
X86335056Y-75034501D01*
X86164944Y-75034501D01*
X85999773Y-75075211D01*
X85849150Y-75154264D01*
X85761326Y-75232070D01*
X85721817Y-75267072D01*
X85669381Y-75343039D01*
X85667033Y-75346440D01*
X85612750Y-75390430D01*
X85564983Y-75400000D01*
X85359177Y-75400000D01*
X85292138Y-75380315D01*
X85257127Y-75346441D01*
X85178183Y-75232071D01*
X85050852Y-75119266D01*
X85050849Y-75119263D01*
X84900226Y-75040210D01*
X84735056Y-74999500D01*
X84564944Y-74999500D01*
X84399773Y-75040210D01*
X84249150Y-75119263D01*
X84131410Y-75223572D01*
X84121817Y-75232071D01*
X84042874Y-75346440D01*
X84042873Y-75346441D01*
X83988590Y-75390431D01*
X83940823Y-75400000D01*
X83415044Y-75400000D01*
X83348005Y-75380315D01*
X83312994Y-75346440D01*
X83258210Y-75267073D01*
X83228183Y-75223571D01*
X83100852Y-75110766D01*
X83100849Y-75110763D01*
X82950226Y-75031710D01*
X82785056Y-74991000D01*
X82614944Y-74991000D01*
X82449773Y-75031710D01*
X82299150Y-75110763D01*
X82171816Y-75223572D01*
X82087006Y-75346440D01*
X82032723Y-75390431D01*
X81984956Y-75400000D01*
X81224000Y-75400000D01*
X81156961Y-75380315D01*
X81111206Y-75327511D01*
X81100000Y-75276000D01*
X81100000Y-73124000D01*
X81119685Y-73056961D01*
X81172489Y-73011206D01*
X81224000Y-73000000D01*
X82500000Y-73000000D01*
X82500000Y-71360000D01*
X84544354Y-71360000D01*
X84564858Y-71528869D01*
X84564859Y-71528874D01*
X84625181Y-71687931D01*
X84687474Y-71778177D01*
X84721816Y-71827929D01*
X84827504Y-71921560D01*
X84849149Y-71940736D01*
X84999772Y-72019789D01*
X84999774Y-72019790D01*
X85164943Y-72060500D01*
X85335055Y-72060500D01*
X85500224Y-72019790D01*
X85579691Y-71978081D01*
X85650848Y-71940736D01*
X85650849Y-71940734D01*
X85650851Y-71940734D01*
X85778182Y-71827929D01*
X85874817Y-71687930D01*
X85935139Y-71528872D01*
X85955644Y-71360000D01*
X85935139Y-71191128D01*
X85874817Y-71032070D01*
X85778182Y-70892071D01*
X85650851Y-70779266D01*
X85650848Y-70779263D01*
X85500225Y-70700210D01*
X85335055Y-70659500D01*
X85164943Y-70659500D01*
X84999772Y-70700210D01*
X84849149Y-70779263D01*
X84721815Y-70892072D01*
X84625181Y-71032068D01*
X84564859Y-71191125D01*
X84564858Y-71191130D01*
X84544354Y-71360000D01*
X82500000Y-71360000D01*
X82500000Y-69784500D01*
X82519685Y-69717461D01*
X82572489Y-69671706D01*
X82617668Y-69661877D01*
X82617611Y-69661404D01*
X82622665Y-69660790D01*
X82624000Y-69660500D01*
X82625056Y-69660500D01*
X82790225Y-69619790D01*
X82869692Y-69578081D01*
X82940849Y-69540736D01*
X82940850Y-69540734D01*
X82940852Y-69540734D01*
X83068183Y-69427929D01*
X83164818Y-69287930D01*
X83225140Y-69128872D01*
X83245645Y-68960000D01*
X83225140Y-68791128D01*
X83164818Y-68632070D01*
X83069817Y-68494439D01*
X83047935Y-68428086D01*
X83065400Y-68360434D01*
X83116668Y-68312964D01*
X83171868Y-68300000D01*
X86815320Y-68300000D01*
X86882359Y-68319685D01*
X86928114Y-68372489D01*
X86938058Y-68441647D01*
X86913952Y-68494430D01*
X86916078Y-68495898D01*
X86815182Y-68642068D01*
X86754860Y-68801125D01*
X86754859Y-68801130D01*
X86734355Y-68970000D01*
X86754859Y-69138869D01*
X86754860Y-69138874D01*
X86815182Y-69297931D01*
X86877475Y-69388177D01*
X86911817Y-69437929D01*
X87017505Y-69531560D01*
X87039150Y-69550736D01*
X87189773Y-69629789D01*
X87189775Y-69629790D01*
X87354944Y-69670500D01*
X87525056Y-69670500D01*
X87690225Y-69629790D01*
X87769692Y-69588081D01*
X87840849Y-69550736D01*
X87840850Y-69550734D01*
X87840852Y-69550734D01*
X87968183Y-69437929D01*
X88064818Y-69297930D01*
X88125140Y-69138872D01*
X88145645Y-68970000D01*
X88125140Y-68801128D01*
X88121346Y-68791125D01*
X88064817Y-68642068D01*
X88030476Y-68592318D01*
X87968183Y-68502071D01*
X87853533Y-68400500D01*
X87840849Y-68389263D01*
X87690226Y-68310210D01*
X87525056Y-68269500D01*
X87354944Y-68269500D01*
X87189773Y-68310210D01*
X87081626Y-68366971D01*
X87013118Y-68380697D01*
X86948064Y-68355205D01*
X86907120Y-68298589D01*
X86900000Y-68257175D01*
X86900000Y-67700000D01*
X88894355Y-67700000D01*
X88914859Y-67868869D01*
X88914860Y-67868874D01*
X88975182Y-68027931D01*
X88988987Y-68047930D01*
X89071817Y-68167929D01*
X89172555Y-68257175D01*
X89199150Y-68280736D01*
X89341039Y-68355205D01*
X89349775Y-68359790D01*
X89514944Y-68400500D01*
X89685056Y-68400500D01*
X89850225Y-68359790D01*
X89985341Y-68288875D01*
X90000849Y-68280736D01*
X90000850Y-68280734D01*
X90000852Y-68280734D01*
X90128183Y-68167929D01*
X90224818Y-68027930D01*
X90285140Y-67868872D01*
X90305645Y-67700000D01*
X90285140Y-67531128D01*
X90224818Y-67372070D01*
X90128183Y-67232071D01*
X90033316Y-67148026D01*
X90000849Y-67119263D01*
X89850226Y-67040210D01*
X89685056Y-66999500D01*
X89514944Y-66999500D01*
X89349773Y-67040210D01*
X89199150Y-67119263D01*
X89071816Y-67232072D01*
X88975182Y-67372068D01*
X88914860Y-67531125D01*
X88914859Y-67531130D01*
X88894355Y-67700000D01*
X86900000Y-67700000D01*
X86900000Y-63800000D01*
X83887762Y-63800000D01*
X83820723Y-63780315D01*
X83785712Y-63746440D01*
X83748183Y-63692070D01*
X83620852Y-63579265D01*
X83620850Y-63579264D01*
X83620849Y-63579263D01*
X83470225Y-63500209D01*
X83444418Y-63493848D01*
X83384038Y-63458691D01*
X83369307Y-63438084D01*
X83369079Y-63438242D01*
X83361468Y-63427216D01*
X83268183Y-63292070D01*
X83140852Y-63179265D01*
X83140849Y-63179262D01*
X82990226Y-63100209D01*
X82825056Y-63059499D01*
X82654944Y-63059499D01*
X82489773Y-63100209D01*
X82339150Y-63179262D01*
X82211816Y-63292071D01*
X82115182Y-63432067D01*
X82054860Y-63591124D01*
X82054859Y-63591129D01*
X82034355Y-63759999D01*
X82054859Y-63928868D01*
X82054860Y-63928873D01*
X82115182Y-64087930D01*
X82164929Y-64159999D01*
X82211817Y-64227928D01*
X82339148Y-64340733D01*
X82489775Y-64419789D01*
X82515579Y-64426148D01*
X82575958Y-64461301D01*
X82590693Y-64481912D01*
X82590921Y-64481756D01*
X82595182Y-64487929D01*
X82691817Y-64627928D01*
X82758228Y-64686763D01*
X82795354Y-64745951D01*
X82800000Y-64779577D01*
X82800000Y-65976000D01*
X82780315Y-66043039D01*
X82727511Y-66088794D01*
X82676000Y-66100000D01*
X79224000Y-66100000D01*
X79156961Y-66080315D01*
X79111206Y-66027511D01*
X79100000Y-65976000D01*
X79100000Y-62029999D01*
X80194355Y-62029999D01*
X80214859Y-62198868D01*
X80214860Y-62198873D01*
X80275182Y-62357930D01*
X80337475Y-62448176D01*
X80371817Y-62497928D01*
X80477505Y-62591559D01*
X80499150Y-62610735D01*
X80644916Y-62687239D01*
X80649775Y-62689789D01*
X80814944Y-62730499D01*
X80985056Y-62730499D01*
X81150225Y-62689789D01*
X81300852Y-62610733D01*
X81321485Y-62592453D01*
X81384717Y-62562732D01*
X81453981Y-62571915D01*
X81485937Y-62592452D01*
X81529148Y-62630733D01*
X81679775Y-62709789D01*
X81844944Y-62750499D01*
X82015056Y-62750499D01*
X82180225Y-62709789D01*
X82273689Y-62660735D01*
X82330849Y-62630735D01*
X82330850Y-62630733D01*
X82330852Y-62630733D01*
X82458183Y-62517928D01*
X82554818Y-62377929D01*
X82615140Y-62218871D01*
X82632002Y-62079999D01*
X83254355Y-62079999D01*
X83274859Y-62248868D01*
X83274860Y-62248873D01*
X83335182Y-62407930D01*
X83397303Y-62497926D01*
X83431817Y-62547928D01*
X83502711Y-62610734D01*
X83559150Y-62660735D01*
X83709773Y-62739788D01*
X83709775Y-62739789D01*
X83874944Y-62780499D01*
X84045056Y-62780499D01*
X84210225Y-62739789D01*
X84310350Y-62687239D01*
X84360845Y-62660737D01*
X84360846Y-62660735D01*
X84360852Y-62660733D01*
X84366482Y-62655744D01*
X84429711Y-62626022D01*
X84498975Y-62635202D01*
X84530936Y-62655741D01*
X84559148Y-62680734D01*
X84709775Y-62759790D01*
X84874944Y-62800500D01*
X85045056Y-62800500D01*
X85210225Y-62759790D01*
X85305495Y-62709788D01*
X85360849Y-62680736D01*
X85360850Y-62680734D01*
X85360852Y-62680734D01*
X85488183Y-62567929D01*
X85584818Y-62427930D01*
X85645140Y-62268872D01*
X85649466Y-62233242D01*
X85677087Y-62169064D01*
X85735021Y-62130007D01*
X85802237Y-62127791D01*
X85934944Y-62160500D01*
X86105056Y-62160500D01*
X86270225Y-62119790D01*
X86314598Y-62096501D01*
X87074355Y-62096501D01*
X87094859Y-62265370D01*
X87094860Y-62265375D01*
X87155182Y-62424432D01*
X87162085Y-62434432D01*
X87251817Y-62564430D01*
X87354887Y-62655742D01*
X87379150Y-62677237D01*
X87498331Y-62739788D01*
X87529775Y-62756291D01*
X87694944Y-62797001D01*
X87865056Y-62797001D01*
X88030225Y-62756291D01*
X88156935Y-62689788D01*
X88180845Y-62677239D01*
X88180846Y-62677237D01*
X88180852Y-62677235D01*
X88192128Y-62667244D01*
X88255358Y-62637523D01*
X88324622Y-62646704D01*
X88356584Y-62667245D01*
X88379145Y-62687233D01*
X88379154Y-62687239D01*
X88529773Y-62766290D01*
X88529775Y-62766291D01*
X88694944Y-62807001D01*
X88865056Y-62807001D01*
X89030225Y-62766291D01*
X89109692Y-62724582D01*
X89180849Y-62687237D01*
X89180850Y-62687235D01*
X89180852Y-62687235D01*
X89308183Y-62574430D01*
X89404818Y-62434431D01*
X89465140Y-62275373D01*
X89485645Y-62106501D01*
X89465140Y-61937629D01*
X89461346Y-61927626D01*
X89404817Y-61778569D01*
X89352011Y-61702067D01*
X89308183Y-61638572D01*
X89212696Y-61553978D01*
X89180849Y-61525764D01*
X89030226Y-61446711D01*
X88865056Y-61406001D01*
X88694944Y-61406001D01*
X88529773Y-61446711D01*
X88379155Y-61525762D01*
X88379141Y-61525772D01*
X88367864Y-61535762D01*
X88304629Y-61565480D01*
X88235367Y-61556292D01*
X88203418Y-61535759D01*
X88180852Y-61515767D01*
X88180850Y-61515766D01*
X88180849Y-61515765D01*
X88180845Y-61515762D01*
X88030226Y-61436711D01*
X87865056Y-61396001D01*
X87694944Y-61396001D01*
X87529773Y-61436711D01*
X87379150Y-61515764D01*
X87251816Y-61628573D01*
X87155182Y-61768569D01*
X87094860Y-61927626D01*
X87094859Y-61927631D01*
X87074355Y-62096501D01*
X86314598Y-62096501D01*
X86378878Y-62062764D01*
X86420849Y-62040736D01*
X86420850Y-62040734D01*
X86420852Y-62040734D01*
X86548183Y-61927929D01*
X86644818Y-61787930D01*
X86705140Y-61628872D01*
X86725645Y-61460000D01*
X86705140Y-61291128D01*
X86644818Y-61132070D01*
X86548183Y-60992071D01*
X86420852Y-60879266D01*
X86420849Y-60879263D01*
X86270226Y-60800210D01*
X86105056Y-60759500D01*
X85934944Y-60759500D01*
X85769773Y-60800210D01*
X85619150Y-60879263D01*
X85491816Y-60992072D01*
X85395182Y-61132068D01*
X85334860Y-61291125D01*
X85334859Y-61291129D01*
X85330533Y-61326760D01*
X85302910Y-61390937D01*
X85244975Y-61429993D01*
X85177763Y-61432208D01*
X85045057Y-61399500D01*
X85045056Y-61399500D01*
X84874944Y-61399500D01*
X84709773Y-61440210D01*
X84559155Y-61519261D01*
X84559149Y-61519265D01*
X84559148Y-61519266D01*
X84559146Y-61519268D01*
X84553507Y-61524263D01*
X84490271Y-61553978D01*
X84421008Y-61544789D01*
X84389062Y-61524256D01*
X84360852Y-61499265D01*
X84360850Y-61499263D01*
X84210226Y-61420209D01*
X84045056Y-61379499D01*
X83874944Y-61379499D01*
X83709773Y-61420209D01*
X83559150Y-61499262D01*
X83431816Y-61612071D01*
X83335182Y-61752067D01*
X83274860Y-61911124D01*
X83274859Y-61911129D01*
X83254355Y-62079999D01*
X82632002Y-62079999D01*
X82635645Y-62049999D01*
X82615140Y-61881127D01*
X82554818Y-61722069D01*
X82458183Y-61582070D01*
X82351485Y-61487544D01*
X82330849Y-61469262D01*
X82180226Y-61390209D01*
X82015056Y-61349499D01*
X81844944Y-61349499D01*
X81679773Y-61390209D01*
X81529151Y-61469262D01*
X81529144Y-61469267D01*
X81508511Y-61487546D01*
X81445277Y-61517265D01*
X81376014Y-61508080D01*
X81344060Y-61487544D01*
X81300852Y-61449265D01*
X81300850Y-61449264D01*
X81300849Y-61449263D01*
X81150226Y-61370209D01*
X80985056Y-61329499D01*
X80814944Y-61329499D01*
X80649773Y-61370209D01*
X80499150Y-61449262D01*
X80371816Y-61562071D01*
X80275182Y-61702067D01*
X80214860Y-61861124D01*
X80214859Y-61861129D01*
X80194355Y-62029999D01*
X79100000Y-62029999D01*
X79100000Y-60210000D01*
X87224355Y-60210000D01*
X87244859Y-60378869D01*
X87244860Y-60378874D01*
X87305182Y-60537931D01*
X87367475Y-60628177D01*
X87401817Y-60677929D01*
X87493892Y-60759500D01*
X87529150Y-60790736D01*
X87679773Y-60869789D01*
X87679775Y-60869790D01*
X87844944Y-60910500D01*
X88015056Y-60910500D01*
X88180225Y-60869790D01*
X88259692Y-60828081D01*
X88330849Y-60790736D01*
X88330850Y-60790734D01*
X88330852Y-60790734D01*
X88458183Y-60677929D01*
X88554818Y-60537930D01*
X88615140Y-60378872D01*
X88635645Y-60210000D01*
X88615140Y-60041128D01*
X88554818Y-59882070D01*
X88458183Y-59742071D01*
X88330852Y-59629266D01*
X88330849Y-59629263D01*
X88180226Y-59550210D01*
X88015056Y-59509500D01*
X87844944Y-59509500D01*
X87679773Y-59550210D01*
X87529150Y-59629263D01*
X87401816Y-59742072D01*
X87305182Y-59882068D01*
X87244860Y-60041125D01*
X87244859Y-60041130D01*
X87224355Y-60210000D01*
X79100000Y-60210000D01*
X79100000Y-57123153D01*
X79119685Y-57056114D01*
X79172489Y-57010359D01*
X79223148Y-56999156D01*
X87236731Y-56944268D01*
X87303900Y-56963493D01*
X87350016Y-57015982D01*
X87360433Y-57085071D01*
X87339627Y-57138705D01*
X87275183Y-57232068D01*
X87275182Y-57232068D01*
X87214860Y-57391125D01*
X87214859Y-57391130D01*
X87194355Y-57560000D01*
X87214859Y-57728869D01*
X87214860Y-57728874D01*
X87275182Y-57887931D01*
X87337475Y-57978177D01*
X87371817Y-58027929D01*
X87477505Y-58121560D01*
X87499150Y-58140736D01*
X87649773Y-58219789D01*
X87649775Y-58219790D01*
X87814944Y-58260500D01*
X87985056Y-58260500D01*
X88150225Y-58219790D01*
X88229692Y-58178081D01*
X88300849Y-58140736D01*
X88300850Y-58140734D01*
X88300852Y-58140734D01*
X88428183Y-58027929D01*
X88524818Y-57887930D01*
X88585140Y-57728872D01*
X88605645Y-57560000D01*
X88585140Y-57391128D01*
X88567593Y-57344861D01*
X88562227Y-57275201D01*
X88595374Y-57213695D01*
X88656512Y-57179874D01*
X88713211Y-57180496D01*
X88834944Y-57210500D01*
X89005056Y-57210500D01*
X89170225Y-57169790D01*
X89249692Y-57128081D01*
X89320849Y-57090736D01*
X89320850Y-57090734D01*
X89320852Y-57090734D01*
X89448183Y-56977929D01*
X89448186Y-56977925D01*
X89453157Y-56972315D01*
X89455154Y-56974084D01*
X89499610Y-56938031D01*
X89546564Y-56928448D01*
X93575151Y-56900855D01*
X93642323Y-56920080D01*
G37*
G04 #@! TD.AperFunction*
M02*
