M48
; DRILL file {KiCad 8.0.4} date 2024-09-01T18:21:03-0700
; FORMAT={-:-/ absolute / metric / decimal}
; #@! TF.CreationDate,2024-09-01T18:21:03-07:00
; #@! TF.GenerationSoftware,Kicad,Pcbnew,8.0.4
; #@! TF.FileFunction,Plated,1,4,PTH
FMAT,2
METRIC
; #@! TA.AperFunction,Plated,PTH,ViaDrill
T1C0.200
; #@! TA.AperFunction,Plated,PTH,ViaDrill
T2C0.500
; #@! TA.AperFunction,Plated,PTH,ComponentDrill
T3C0.600
; #@! TA.AperFunction,Plated,PTH,ComponentDrill
T4C0.750
; #@! TA.AperFunction,Plated,PTH,ComponentDrill
T5C2.200
%
G90
G05
T1
X55.28Y-80.84
X55.56Y-106.5
X55.63Y-87.71
X56.73Y-65.24
X56.81Y-88.98
X56.81Y-90.01
X57.89Y-68.74
X57.9Y-70.25
X57.91Y-65.74
X57.91Y-96.47
X57.92Y-71.76
X57.92Y-73.25
X58.72Y-83.22
X59.18Y-86.84
X59.33Y-90.14
X59.78Y-91.65
X59.99Y-102.02
X60.41Y-93.486
X60.88Y-116.66
X61.05Y-87.04
X61.27Y-89.054
X61.65Y-101.99
X61.83Y-64.74
X62.41Y-91.016
X63.26Y-97.38
X63.56Y-77.57
X63.56Y-80.2
X63.62Y-81.8
X63.68Y-84.25
X64.15Y-92.756
X64.44Y-84.12
X64.53Y-66.25
X64.81Y-97.1
X65.16Y-79.24
X65.24Y-82.76
X65.53Y-76.38
X65.75Y-97.16
X66.12Y-67.36
X66.56Y-106.5
X66.88Y-89.89
X68.19Y-66.73
X69.205Y-90.575
X69.56Y-84.38
X69.59Y-88.4
X69.64Y-85.18
X69.856Y-67.76
X70.1Y-94.25
X70.85Y-85.18
X71.01Y-83.42
X71.44Y-87.85
X72.375Y-101.97
X72.83Y-86.9
X73.38Y-81.57
X74.48Y-81.51
X74.63Y-100.67
X77.0Y-110.67
X77.32Y-86.7
X77.38Y-93.25
X77.95Y-86.7
X78.39Y-72.85
X78.63Y-86.66
X79.34Y-86.66
X79.98Y-86.62
X80.06Y-63.79
X80.16Y-73.61
X80.9Y-62.03
X81.93Y-62.05
X81.98Y-73.962
X82.33Y-67.72
X82.54Y-68.96
X82.7Y-75.691
X82.74Y-63.76
X83.22Y-64.16
X83.75Y-66.31
X83.96Y-62.08
X84.25Y-94.94
X84.65Y-75.7
X84.75Y-66.24
X84.96Y-62.1
X85.02Y-76.93
X85.04Y-97.0
X85.05Y-92.93
X85.25Y-71.36
X85.57Y-64.88
X85.75Y-66.35
X86.02Y-61.46
X86.25Y-75.735
X86.29Y-96.98
X86.31Y-92.93
X86.93Y-54.85
X86.96Y-55.8
X87.27Y-75.735
X87.38Y-89.45
X87.44Y-68.97
X87.55Y-96.98
X87.56Y-92.93
X87.78Y-62.097
X87.9Y-57.56
X87.93Y-60.21
X88.27Y-75.745
X88.35Y-94.94
X88.5Y-91.55
X88.78Y-62.107
X88.86Y-57.56
X88.88Y-60.22
X88.91Y-53.95
X88.92Y-56.51
X89.14Y-74.065
X89.31Y-98.63
X89.49Y-63.797
X89.6Y-67.7
X89.75Y-89.42
X90.74Y-93.06
X92.28Y-59.39
X92.29Y-54.79
X93.09Y-110.58
X93.9Y-74.2
X94.28Y-101.56
X95.68Y-73.77
X95.89Y-98.82
X95.89Y-101.14
X97.57Y-99.49
X97.58Y-100.48
X99.7Y-84.17
X100.35Y-84.17
X101.78Y-96.32
X101.83Y-108.32
X102.84Y-99.33
X104.12Y-97.92
X104.75Y-94.81
X105.06Y-71.24
X105.54Y-92.88
X105.89Y-70.74
X106.5Y-63.82
X107.12Y-63.8
X107.38Y-71.75
X107.98Y-72.24
X108.06Y-87.22
X108.21Y-92.88
X108.54Y-73.27
X108.61Y-101.98
X109.2Y-116.62
X109.83Y-102.0
X112.22Y-72.74
X112.24Y-65.26
X112.24Y-66.74
X112.24Y-68.25
X112.24Y-69.76
X113.01Y-90.48
X113.06Y-87.5
X114.53Y-106.46
X115.0Y-82.14
X115.03Y-91.71
X115.33Y-85.92
X115.72Y-96.18
T2
X53.81Y-97.95
X68.7Y-78.85
T5
X55.0Y-55.0
X55.0Y-115.0
X115.0Y-55.0
X115.0Y-115.0
T3
X53.4Y-84.93G85X52.8Y-84.93
G05
X53.4Y-93.57G85X52.8Y-93.57
G05
X57.83Y-84.93G85X56.73Y-84.93
G05
X57.83Y-93.57G85X56.73Y-93.57
G05
X112.17Y-84.93G85X113.27Y-84.93
G05
X112.17Y-93.57G85X113.27Y-93.57
G05
X116.6Y-84.93G85X117.2Y-84.93
G05
X116.6Y-93.57G85X117.2Y-93.57
G05
T4
X53.985Y-62.0G85X53.135Y-62.0
G05
X53.985Y-76.5G85X53.135Y-76.5
G05
X60.435Y-62.0G85X58.685Y-62.0
G05
X60.435Y-76.5G85X58.685Y-76.5
G05
X109.575Y-62.0G85X111.325Y-62.0
G05
X109.575Y-76.5G85X111.325Y-76.5
G05
X116.025Y-62.0G85X116.875Y-62.0
G05
X116.025Y-76.5G85X116.875Y-76.5
G05
M30
