%TF.GenerationSoftware,KiCad,Pcbnew,8.0.4*%
%TF.CreationDate,2024-09-01T18:21:04-07:00*%
%TF.ProjectId,HDMI Breakout,48444d49-2042-4726-9561-6b6f75742e6b,rev?*%
%TF.SameCoordinates,Original*%
%TF.FileFunction,Drillmap*%
%TF.FilePolarity,Positive*%
%FSLAX45Y45*%
G04 Gerber Fmt 4.5, Leading zero omitted, Abs format (unit mm)*
G04 Created by KiCad (PCBNEW 8.0.4) date 2024-09-01 18:21:04*
%MOMM*%
%LPD*%
G01*
G04 APERTURE LIST*
%ADD10C,0.050000*%
%ADD11C,0.200000*%
%ADD12C,0.100000*%
%ADD13C,0.115200*%
G04 APERTURE END LIST*
D10*
X5000000Y-5000000D02*
X12000000Y-5000000D01*
X12000000Y-12000000D01*
X5000000Y-12000000D01*
X5000000Y-5000000D01*
D11*
D12*
X5645500Y-8603500D02*
X5710500Y-8668500D01*
X5710500Y-8603500D02*
X5645500Y-8668500D01*
X5645500Y-9181500D02*
X5710500Y-9246500D01*
X5710500Y-9181500D02*
X5645500Y-9246500D01*
X11289500Y-8603500D02*
X11354500Y-8668500D01*
X11354500Y-8603500D02*
X11289500Y-8668500D01*
X11289500Y-9181500D02*
X11354500Y-9246500D01*
X11354500Y-9181500D02*
X11289500Y-9246500D01*
D13*
X5932600Y-11764000D02*
G75*
G02*
X5817400Y-11764000I-57600J0D01*
G01*
X5817400Y-11764000D02*
G75*
G02*
X5932600Y-11764000I57600J0D01*
G01*
X6008600Y-5513000D02*
G75*
G02*
X5893400Y-5513000I-57600J0D01*
G01*
X5893400Y-5513000D02*
G75*
G02*
X6008600Y-5513000I57600J0D01*
G01*
X11099600Y-5511000D02*
G75*
G02*
X10984400Y-5511000I-57600J0D01*
G01*
X10984400Y-5511000D02*
G75*
G02*
X11099600Y-5511000I57600J0D01*
G01*
D11*
X5258277Y-12313984D02*
X5258277Y-12113984D01*
X5258277Y-12113984D02*
X5305896Y-12113984D01*
X5305896Y-12113984D02*
X5334467Y-12123508D01*
X5334467Y-12123508D02*
X5353515Y-12142555D01*
X5353515Y-12142555D02*
X5363039Y-12161603D01*
X5363039Y-12161603D02*
X5372563Y-12199698D01*
X5372563Y-12199698D02*
X5372563Y-12228269D01*
X5372563Y-12228269D02*
X5363039Y-12266365D01*
X5363039Y-12266365D02*
X5353515Y-12285412D01*
X5353515Y-12285412D02*
X5334467Y-12304460D01*
X5334467Y-12304460D02*
X5305896Y-12313984D01*
X5305896Y-12313984D02*
X5258277Y-12313984D01*
X5458277Y-12313984D02*
X5458277Y-12180650D01*
X5458277Y-12218746D02*
X5467801Y-12199698D01*
X5467801Y-12199698D02*
X5477324Y-12190174D01*
X5477324Y-12190174D02*
X5496372Y-12180650D01*
X5496372Y-12180650D02*
X5515420Y-12180650D01*
X5582086Y-12313984D02*
X5582086Y-12180650D01*
X5582086Y-12113984D02*
X5572563Y-12123508D01*
X5572563Y-12123508D02*
X5582086Y-12133031D01*
X5582086Y-12133031D02*
X5591610Y-12123508D01*
X5591610Y-12123508D02*
X5582086Y-12113984D01*
X5582086Y-12113984D02*
X5582086Y-12133031D01*
X5705896Y-12313984D02*
X5686848Y-12304460D01*
X5686848Y-12304460D02*
X5677324Y-12285412D01*
X5677324Y-12285412D02*
X5677324Y-12113984D01*
X5810658Y-12313984D02*
X5791610Y-12304460D01*
X5791610Y-12304460D02*
X5782086Y-12285412D01*
X5782086Y-12285412D02*
X5782086Y-12113984D01*
X6039229Y-12313984D02*
X6039229Y-12113984D01*
X6039229Y-12113984D02*
X6105896Y-12256841D01*
X6105896Y-12256841D02*
X6172562Y-12113984D01*
X6172562Y-12113984D02*
X6172562Y-12313984D01*
X6353515Y-12313984D02*
X6353515Y-12209222D01*
X6353515Y-12209222D02*
X6343991Y-12190174D01*
X6343991Y-12190174D02*
X6324943Y-12180650D01*
X6324943Y-12180650D02*
X6286848Y-12180650D01*
X6286848Y-12180650D02*
X6267801Y-12190174D01*
X6353515Y-12304460D02*
X6334467Y-12313984D01*
X6334467Y-12313984D02*
X6286848Y-12313984D01*
X6286848Y-12313984D02*
X6267801Y-12304460D01*
X6267801Y-12304460D02*
X6258277Y-12285412D01*
X6258277Y-12285412D02*
X6258277Y-12266365D01*
X6258277Y-12266365D02*
X6267801Y-12247317D01*
X6267801Y-12247317D02*
X6286848Y-12237793D01*
X6286848Y-12237793D02*
X6334467Y-12237793D01*
X6334467Y-12237793D02*
X6353515Y-12228269D01*
X6448753Y-12180650D02*
X6448753Y-12380650D01*
X6448753Y-12190174D02*
X6467801Y-12180650D01*
X6467801Y-12180650D02*
X6505896Y-12180650D01*
X6505896Y-12180650D02*
X6524943Y-12190174D01*
X6524943Y-12190174D02*
X6534467Y-12199698D01*
X6534467Y-12199698D02*
X6543991Y-12218746D01*
X6543991Y-12218746D02*
X6543991Y-12275888D01*
X6543991Y-12275888D02*
X6534467Y-12294936D01*
X6534467Y-12294936D02*
X6524943Y-12304460D01*
X6524943Y-12304460D02*
X6505896Y-12313984D01*
X6505896Y-12313984D02*
X6467801Y-12313984D01*
X6467801Y-12313984D02*
X6448753Y-12304460D01*
X6629705Y-12294936D02*
X6639229Y-12304460D01*
X6639229Y-12304460D02*
X6629705Y-12313984D01*
X6629705Y-12313984D02*
X6620182Y-12304460D01*
X6620182Y-12304460D02*
X6629705Y-12294936D01*
X6629705Y-12294936D02*
X6629705Y-12313984D01*
X6629705Y-12190174D02*
X6639229Y-12199698D01*
X6639229Y-12199698D02*
X6629705Y-12209222D01*
X6629705Y-12209222D02*
X6620182Y-12199698D01*
X6620182Y-12199698D02*
X6629705Y-12190174D01*
X6629705Y-12190174D02*
X6629705Y-12209222D01*
D12*
X4932500Y-12610000D02*
X4997500Y-12675000D01*
X4997500Y-12610000D02*
X4932500Y-12675000D01*
D11*
X5296372Y-12533984D02*
X5315420Y-12533984D01*
X5315420Y-12533984D02*
X5334467Y-12543508D01*
X5334467Y-12543508D02*
X5343991Y-12553031D01*
X5343991Y-12553031D02*
X5353515Y-12572079D01*
X5353515Y-12572079D02*
X5363039Y-12610174D01*
X5363039Y-12610174D02*
X5363039Y-12657793D01*
X5363039Y-12657793D02*
X5353515Y-12695888D01*
X5353515Y-12695888D02*
X5343991Y-12714936D01*
X5343991Y-12714936D02*
X5334467Y-12724460D01*
X5334467Y-12724460D02*
X5315420Y-12733984D01*
X5315420Y-12733984D02*
X5296372Y-12733984D01*
X5296372Y-12733984D02*
X5277324Y-12724460D01*
X5277324Y-12724460D02*
X5267801Y-12714936D01*
X5267801Y-12714936D02*
X5258277Y-12695888D01*
X5258277Y-12695888D02*
X5248753Y-12657793D01*
X5248753Y-12657793D02*
X5248753Y-12610174D01*
X5248753Y-12610174D02*
X5258277Y-12572079D01*
X5258277Y-12572079D02*
X5267801Y-12553031D01*
X5267801Y-12553031D02*
X5277324Y-12543508D01*
X5277324Y-12543508D02*
X5296372Y-12533984D01*
X5448753Y-12714936D02*
X5458277Y-12724460D01*
X5458277Y-12724460D02*
X5448753Y-12733984D01*
X5448753Y-12733984D02*
X5439229Y-12724460D01*
X5439229Y-12724460D02*
X5448753Y-12714936D01*
X5448753Y-12714936D02*
X5448753Y-12733984D01*
X5629705Y-12533984D02*
X5591610Y-12533984D01*
X5591610Y-12533984D02*
X5572563Y-12543508D01*
X5572563Y-12543508D02*
X5563039Y-12553031D01*
X5563039Y-12553031D02*
X5543991Y-12581603D01*
X5543991Y-12581603D02*
X5534467Y-12619698D01*
X5534467Y-12619698D02*
X5534467Y-12695888D01*
X5534467Y-12695888D02*
X5543991Y-12714936D01*
X5543991Y-12714936D02*
X5553515Y-12724460D01*
X5553515Y-12724460D02*
X5572563Y-12733984D01*
X5572563Y-12733984D02*
X5610658Y-12733984D01*
X5610658Y-12733984D02*
X5629705Y-12724460D01*
X5629705Y-12724460D02*
X5639229Y-12714936D01*
X5639229Y-12714936D02*
X5648753Y-12695888D01*
X5648753Y-12695888D02*
X5648753Y-12648269D01*
X5648753Y-12648269D02*
X5639229Y-12629222D01*
X5639229Y-12629222D02*
X5629705Y-12619698D01*
X5629705Y-12619698D02*
X5610658Y-12610174D01*
X5610658Y-12610174D02*
X5572563Y-12610174D01*
X5572563Y-12610174D02*
X5553515Y-12619698D01*
X5553515Y-12619698D02*
X5543991Y-12629222D01*
X5543991Y-12629222D02*
X5534467Y-12648269D01*
X5829705Y-12533984D02*
X5734467Y-12533984D01*
X5734467Y-12533984D02*
X5724943Y-12629222D01*
X5724943Y-12629222D02*
X5734467Y-12619698D01*
X5734467Y-12619698D02*
X5753515Y-12610174D01*
X5753515Y-12610174D02*
X5801134Y-12610174D01*
X5801134Y-12610174D02*
X5820182Y-12619698D01*
X5820182Y-12619698D02*
X5829705Y-12629222D01*
X5829705Y-12629222D02*
X5839229Y-12648269D01*
X5839229Y-12648269D02*
X5839229Y-12695888D01*
X5839229Y-12695888D02*
X5829705Y-12714936D01*
X5829705Y-12714936D02*
X5820182Y-12724460D01*
X5820182Y-12724460D02*
X5801134Y-12733984D01*
X5801134Y-12733984D02*
X5753515Y-12733984D01*
X5753515Y-12733984D02*
X5734467Y-12724460D01*
X5734467Y-12724460D02*
X5724943Y-12714936D01*
X5963039Y-12533984D02*
X5982086Y-12533984D01*
X5982086Y-12533984D02*
X6001134Y-12543508D01*
X6001134Y-12543508D02*
X6010658Y-12553031D01*
X6010658Y-12553031D02*
X6020182Y-12572079D01*
X6020182Y-12572079D02*
X6029705Y-12610174D01*
X6029705Y-12610174D02*
X6029705Y-12657793D01*
X6029705Y-12657793D02*
X6020182Y-12695888D01*
X6020182Y-12695888D02*
X6010658Y-12714936D01*
X6010658Y-12714936D02*
X6001134Y-12724460D01*
X6001134Y-12724460D02*
X5982086Y-12733984D01*
X5982086Y-12733984D02*
X5963039Y-12733984D01*
X5963039Y-12733984D02*
X5943991Y-12724460D01*
X5943991Y-12724460D02*
X5934467Y-12714936D01*
X5934467Y-12714936D02*
X5924943Y-12695888D01*
X5924943Y-12695888D02*
X5915420Y-12657793D01*
X5915420Y-12657793D02*
X5915420Y-12610174D01*
X5915420Y-12610174D02*
X5924943Y-12572079D01*
X5924943Y-12572079D02*
X5934467Y-12553031D01*
X5934467Y-12553031D02*
X5943991Y-12543508D01*
X5943991Y-12543508D02*
X5963039Y-12533984D01*
X6115420Y-12733984D02*
X6115420Y-12600650D01*
X6115420Y-12619698D02*
X6124943Y-12610174D01*
X6124943Y-12610174D02*
X6143991Y-12600650D01*
X6143991Y-12600650D02*
X6172563Y-12600650D01*
X6172563Y-12600650D02*
X6191610Y-12610174D01*
X6191610Y-12610174D02*
X6201134Y-12629222D01*
X6201134Y-12629222D02*
X6201134Y-12733984D01*
X6201134Y-12629222D02*
X6210658Y-12610174D01*
X6210658Y-12610174D02*
X6229705Y-12600650D01*
X6229705Y-12600650D02*
X6258277Y-12600650D01*
X6258277Y-12600650D02*
X6277324Y-12610174D01*
X6277324Y-12610174D02*
X6286848Y-12629222D01*
X6286848Y-12629222D02*
X6286848Y-12733984D01*
X6382086Y-12733984D02*
X6382086Y-12600650D01*
X6382086Y-12619698D02*
X6391610Y-12610174D01*
X6391610Y-12610174D02*
X6410658Y-12600650D01*
X6410658Y-12600650D02*
X6439229Y-12600650D01*
X6439229Y-12600650D02*
X6458277Y-12610174D01*
X6458277Y-12610174D02*
X6467801Y-12629222D01*
X6467801Y-12629222D02*
X6467801Y-12733984D01*
X6467801Y-12629222D02*
X6477324Y-12610174D01*
X6477324Y-12610174D02*
X6496372Y-12600650D01*
X6496372Y-12600650D02*
X6524943Y-12600650D01*
X6524943Y-12600650D02*
X6543991Y-12610174D01*
X6543991Y-12610174D02*
X6553515Y-12629222D01*
X6553515Y-12629222D02*
X6553515Y-12733984D01*
X6943991Y-12524460D02*
X6772563Y-12781603D01*
X7201134Y-12533984D02*
X7220182Y-12533984D01*
X7220182Y-12533984D02*
X7239229Y-12543508D01*
X7239229Y-12543508D02*
X7248753Y-12553031D01*
X7248753Y-12553031D02*
X7258277Y-12572079D01*
X7258277Y-12572079D02*
X7267801Y-12610174D01*
X7267801Y-12610174D02*
X7267801Y-12657793D01*
X7267801Y-12657793D02*
X7258277Y-12695888D01*
X7258277Y-12695888D02*
X7248753Y-12714936D01*
X7248753Y-12714936D02*
X7239229Y-12724460D01*
X7239229Y-12724460D02*
X7220182Y-12733984D01*
X7220182Y-12733984D02*
X7201134Y-12733984D01*
X7201134Y-12733984D02*
X7182086Y-12724460D01*
X7182086Y-12724460D02*
X7172563Y-12714936D01*
X7172563Y-12714936D02*
X7163039Y-12695888D01*
X7163039Y-12695888D02*
X7153515Y-12657793D01*
X7153515Y-12657793D02*
X7153515Y-12610174D01*
X7153515Y-12610174D02*
X7163039Y-12572079D01*
X7163039Y-12572079D02*
X7172563Y-12553031D01*
X7172563Y-12553031D02*
X7182086Y-12543508D01*
X7182086Y-12543508D02*
X7201134Y-12533984D01*
X7353515Y-12714936D02*
X7363039Y-12724460D01*
X7363039Y-12724460D02*
X7353515Y-12733984D01*
X7353515Y-12733984D02*
X7343991Y-12724460D01*
X7343991Y-12724460D02*
X7353515Y-12714936D01*
X7353515Y-12714936D02*
X7353515Y-12733984D01*
X7486848Y-12533984D02*
X7505896Y-12533984D01*
X7505896Y-12533984D02*
X7524944Y-12543508D01*
X7524944Y-12543508D02*
X7534467Y-12553031D01*
X7534467Y-12553031D02*
X7543991Y-12572079D01*
X7543991Y-12572079D02*
X7553515Y-12610174D01*
X7553515Y-12610174D02*
X7553515Y-12657793D01*
X7553515Y-12657793D02*
X7543991Y-12695888D01*
X7543991Y-12695888D02*
X7534467Y-12714936D01*
X7534467Y-12714936D02*
X7524944Y-12724460D01*
X7524944Y-12724460D02*
X7505896Y-12733984D01*
X7505896Y-12733984D02*
X7486848Y-12733984D01*
X7486848Y-12733984D02*
X7467801Y-12724460D01*
X7467801Y-12724460D02*
X7458277Y-12714936D01*
X7458277Y-12714936D02*
X7448753Y-12695888D01*
X7448753Y-12695888D02*
X7439229Y-12657793D01*
X7439229Y-12657793D02*
X7439229Y-12610174D01*
X7439229Y-12610174D02*
X7448753Y-12572079D01*
X7448753Y-12572079D02*
X7458277Y-12553031D01*
X7458277Y-12553031D02*
X7467801Y-12543508D01*
X7467801Y-12543508D02*
X7486848Y-12533984D01*
X7629706Y-12553031D02*
X7639229Y-12543508D01*
X7639229Y-12543508D02*
X7658277Y-12533984D01*
X7658277Y-12533984D02*
X7705896Y-12533984D01*
X7705896Y-12533984D02*
X7724944Y-12543508D01*
X7724944Y-12543508D02*
X7734467Y-12553031D01*
X7734467Y-12553031D02*
X7743991Y-12572079D01*
X7743991Y-12572079D02*
X7743991Y-12591127D01*
X7743991Y-12591127D02*
X7734467Y-12619698D01*
X7734467Y-12619698D02*
X7620182Y-12733984D01*
X7620182Y-12733984D02*
X7743991Y-12733984D01*
X7924944Y-12533984D02*
X7829706Y-12533984D01*
X7829706Y-12533984D02*
X7820182Y-12629222D01*
X7820182Y-12629222D02*
X7829706Y-12619698D01*
X7829706Y-12619698D02*
X7848753Y-12610174D01*
X7848753Y-12610174D02*
X7896372Y-12610174D01*
X7896372Y-12610174D02*
X7915420Y-12619698D01*
X7915420Y-12619698D02*
X7924944Y-12629222D01*
X7924944Y-12629222D02*
X7934467Y-12648269D01*
X7934467Y-12648269D02*
X7934467Y-12695888D01*
X7934467Y-12695888D02*
X7924944Y-12714936D01*
X7924944Y-12714936D02*
X7915420Y-12724460D01*
X7915420Y-12724460D02*
X7896372Y-12733984D01*
X7896372Y-12733984D02*
X7848753Y-12733984D01*
X7848753Y-12733984D02*
X7829706Y-12724460D01*
X7829706Y-12724460D02*
X7820182Y-12714936D01*
X8105896Y-12533984D02*
X8067801Y-12533984D01*
X8067801Y-12533984D02*
X8048753Y-12543508D01*
X8048753Y-12543508D02*
X8039229Y-12553031D01*
X8039229Y-12553031D02*
X8020182Y-12581603D01*
X8020182Y-12581603D02*
X8010658Y-12619698D01*
X8010658Y-12619698D02*
X8010658Y-12695888D01*
X8010658Y-12695888D02*
X8020182Y-12714936D01*
X8020182Y-12714936D02*
X8029706Y-12724460D01*
X8029706Y-12724460D02*
X8048753Y-12733984D01*
X8048753Y-12733984D02*
X8086848Y-12733984D01*
X8086848Y-12733984D02*
X8105896Y-12724460D01*
X8105896Y-12724460D02*
X8115420Y-12714936D01*
X8115420Y-12714936D02*
X8124944Y-12695888D01*
X8124944Y-12695888D02*
X8124944Y-12648269D01*
X8124944Y-12648269D02*
X8115420Y-12629222D01*
X8115420Y-12629222D02*
X8105896Y-12619698D01*
X8105896Y-12619698D02*
X8086848Y-12610174D01*
X8086848Y-12610174D02*
X8048753Y-12610174D01*
X8048753Y-12610174D02*
X8029706Y-12619698D01*
X8029706Y-12619698D02*
X8020182Y-12629222D01*
X8020182Y-12629222D02*
X8010658Y-12648269D01*
X8201134Y-12533984D02*
X8201134Y-12572079D01*
X8277325Y-12533984D02*
X8277325Y-12572079D01*
X8572563Y-12810174D02*
X8563039Y-12800650D01*
X8563039Y-12800650D02*
X8543991Y-12772079D01*
X8543991Y-12772079D02*
X8534468Y-12753031D01*
X8534468Y-12753031D02*
X8524944Y-12724460D01*
X8524944Y-12724460D02*
X8515420Y-12676841D01*
X8515420Y-12676841D02*
X8515420Y-12638746D01*
X8515420Y-12638746D02*
X8524944Y-12591127D01*
X8524944Y-12591127D02*
X8534468Y-12562555D01*
X8534468Y-12562555D02*
X8543991Y-12543508D01*
X8543991Y-12543508D02*
X8563039Y-12514936D01*
X8563039Y-12514936D02*
X8572563Y-12505412D01*
X8734468Y-12600650D02*
X8734468Y-12733984D01*
X8686849Y-12524460D02*
X8639230Y-12667317D01*
X8639230Y-12667317D02*
X8763039Y-12667317D01*
X8991611Y-12733984D02*
X8991611Y-12533984D01*
X9077325Y-12733984D02*
X9077325Y-12629222D01*
X9077325Y-12629222D02*
X9067801Y-12610174D01*
X9067801Y-12610174D02*
X9048753Y-12600650D01*
X9048753Y-12600650D02*
X9020182Y-12600650D01*
X9020182Y-12600650D02*
X9001134Y-12610174D01*
X9001134Y-12610174D02*
X8991611Y-12619698D01*
X9201134Y-12733984D02*
X9182087Y-12724460D01*
X9182087Y-12724460D02*
X9172563Y-12714936D01*
X9172563Y-12714936D02*
X9163039Y-12695888D01*
X9163039Y-12695888D02*
X9163039Y-12638746D01*
X9163039Y-12638746D02*
X9172563Y-12619698D01*
X9172563Y-12619698D02*
X9182087Y-12610174D01*
X9182087Y-12610174D02*
X9201134Y-12600650D01*
X9201134Y-12600650D02*
X9229706Y-12600650D01*
X9229706Y-12600650D02*
X9248753Y-12610174D01*
X9248753Y-12610174D02*
X9258277Y-12619698D01*
X9258277Y-12619698D02*
X9267801Y-12638746D01*
X9267801Y-12638746D02*
X9267801Y-12695888D01*
X9267801Y-12695888D02*
X9258277Y-12714936D01*
X9258277Y-12714936D02*
X9248753Y-12724460D01*
X9248753Y-12724460D02*
X9229706Y-12733984D01*
X9229706Y-12733984D02*
X9201134Y-12733984D01*
X9382087Y-12733984D02*
X9363039Y-12724460D01*
X9363039Y-12724460D02*
X9353515Y-12705412D01*
X9353515Y-12705412D02*
X9353515Y-12533984D01*
X9534468Y-12724460D02*
X9515420Y-12733984D01*
X9515420Y-12733984D02*
X9477325Y-12733984D01*
X9477325Y-12733984D02*
X9458277Y-12724460D01*
X9458277Y-12724460D02*
X9448753Y-12705412D01*
X9448753Y-12705412D02*
X9448753Y-12629222D01*
X9448753Y-12629222D02*
X9458277Y-12610174D01*
X9458277Y-12610174D02*
X9477325Y-12600650D01*
X9477325Y-12600650D02*
X9515420Y-12600650D01*
X9515420Y-12600650D02*
X9534468Y-12610174D01*
X9534468Y-12610174D02*
X9543992Y-12629222D01*
X9543992Y-12629222D02*
X9543992Y-12648269D01*
X9543992Y-12648269D02*
X9448753Y-12667317D01*
X9620182Y-12724460D02*
X9639230Y-12733984D01*
X9639230Y-12733984D02*
X9677325Y-12733984D01*
X9677325Y-12733984D02*
X9696373Y-12724460D01*
X9696373Y-12724460D02*
X9705896Y-12705412D01*
X9705896Y-12705412D02*
X9705896Y-12695888D01*
X9705896Y-12695888D02*
X9696373Y-12676841D01*
X9696373Y-12676841D02*
X9677325Y-12667317D01*
X9677325Y-12667317D02*
X9648753Y-12667317D01*
X9648753Y-12667317D02*
X9629706Y-12657793D01*
X9629706Y-12657793D02*
X9620182Y-12638746D01*
X9620182Y-12638746D02*
X9620182Y-12629222D01*
X9620182Y-12629222D02*
X9629706Y-12610174D01*
X9629706Y-12610174D02*
X9648753Y-12600650D01*
X9648753Y-12600650D02*
X9677325Y-12600650D01*
X9677325Y-12600650D02*
X9696373Y-12610174D01*
X9772563Y-12810174D02*
X9782087Y-12800650D01*
X9782087Y-12800650D02*
X9801134Y-12772079D01*
X9801134Y-12772079D02*
X9810658Y-12753031D01*
X9810658Y-12753031D02*
X9820182Y-12724460D01*
X9820182Y-12724460D02*
X9829706Y-12676841D01*
X9829706Y-12676841D02*
X9829706Y-12638746D01*
X9829706Y-12638746D02*
X9820182Y-12591127D01*
X9820182Y-12591127D02*
X9810658Y-12562555D01*
X9810658Y-12562555D02*
X9801134Y-12543508D01*
X9801134Y-12543508D02*
X9782087Y-12514936D01*
X9782087Y-12514936D02*
X9772563Y-12505412D01*
X10134468Y-12810174D02*
X10124944Y-12800650D01*
X10124944Y-12800650D02*
X10105896Y-12772079D01*
X10105896Y-12772079D02*
X10096373Y-12753031D01*
X10096373Y-12753031D02*
X10086849Y-12724460D01*
X10086849Y-12724460D02*
X10077325Y-12676841D01*
X10077325Y-12676841D02*
X10077325Y-12638746D01*
X10077325Y-12638746D02*
X10086849Y-12591127D01*
X10086849Y-12591127D02*
X10096373Y-12562555D01*
X10096373Y-12562555D02*
X10105896Y-12543508D01*
X10105896Y-12543508D02*
X10124944Y-12514936D01*
X10124944Y-12514936D02*
X10134468Y-12505412D01*
X10210658Y-12600650D02*
X10210658Y-12733984D01*
X10210658Y-12619698D02*
X10220182Y-12610174D01*
X10220182Y-12610174D02*
X10239230Y-12600650D01*
X10239230Y-12600650D02*
X10267801Y-12600650D01*
X10267801Y-12600650D02*
X10286849Y-12610174D01*
X10286849Y-12610174D02*
X10296373Y-12629222D01*
X10296373Y-12629222D02*
X10296373Y-12733984D01*
X10420182Y-12733984D02*
X10401134Y-12724460D01*
X10401134Y-12724460D02*
X10391611Y-12714936D01*
X10391611Y-12714936D02*
X10382087Y-12695888D01*
X10382087Y-12695888D02*
X10382087Y-12638746D01*
X10382087Y-12638746D02*
X10391611Y-12619698D01*
X10391611Y-12619698D02*
X10401134Y-12610174D01*
X10401134Y-12610174D02*
X10420182Y-12600650D01*
X10420182Y-12600650D02*
X10448754Y-12600650D01*
X10448754Y-12600650D02*
X10467801Y-12610174D01*
X10467801Y-12610174D02*
X10477325Y-12619698D01*
X10477325Y-12619698D02*
X10486849Y-12638746D01*
X10486849Y-12638746D02*
X10486849Y-12695888D01*
X10486849Y-12695888D02*
X10477325Y-12714936D01*
X10477325Y-12714936D02*
X10467801Y-12724460D01*
X10467801Y-12724460D02*
X10448754Y-12733984D01*
X10448754Y-12733984D02*
X10420182Y-12733984D01*
X10543992Y-12600650D02*
X10620182Y-12600650D01*
X10572563Y-12533984D02*
X10572563Y-12705412D01*
X10572563Y-12705412D02*
X10582087Y-12724460D01*
X10582087Y-12724460D02*
X10601134Y-12733984D01*
X10601134Y-12733984D02*
X10620182Y-12733984D01*
X10839230Y-12600650D02*
X10839230Y-12800650D01*
X10839230Y-12610174D02*
X10858277Y-12600650D01*
X10858277Y-12600650D02*
X10896373Y-12600650D01*
X10896373Y-12600650D02*
X10915420Y-12610174D01*
X10915420Y-12610174D02*
X10924944Y-12619698D01*
X10924944Y-12619698D02*
X10934468Y-12638746D01*
X10934468Y-12638746D02*
X10934468Y-12695888D01*
X10934468Y-12695888D02*
X10924944Y-12714936D01*
X10924944Y-12714936D02*
X10915420Y-12724460D01*
X10915420Y-12724460D02*
X10896373Y-12733984D01*
X10896373Y-12733984D02*
X10858277Y-12733984D01*
X10858277Y-12733984D02*
X10839230Y-12724460D01*
X11048754Y-12733984D02*
X11029706Y-12724460D01*
X11029706Y-12724460D02*
X11020182Y-12705412D01*
X11020182Y-12705412D02*
X11020182Y-12533984D01*
X11210658Y-12733984D02*
X11210658Y-12629222D01*
X11210658Y-12629222D02*
X11201134Y-12610174D01*
X11201134Y-12610174D02*
X11182087Y-12600650D01*
X11182087Y-12600650D02*
X11143992Y-12600650D01*
X11143992Y-12600650D02*
X11124944Y-12610174D01*
X11210658Y-12724460D02*
X11191611Y-12733984D01*
X11191611Y-12733984D02*
X11143992Y-12733984D01*
X11143992Y-12733984D02*
X11124944Y-12724460D01*
X11124944Y-12724460D02*
X11115420Y-12705412D01*
X11115420Y-12705412D02*
X11115420Y-12686365D01*
X11115420Y-12686365D02*
X11124944Y-12667317D01*
X11124944Y-12667317D02*
X11143992Y-12657793D01*
X11143992Y-12657793D02*
X11191611Y-12657793D01*
X11191611Y-12657793D02*
X11210658Y-12648269D01*
X11277325Y-12600650D02*
X11353515Y-12600650D01*
X11305896Y-12533984D02*
X11305896Y-12705412D01*
X11305896Y-12705412D02*
X11315420Y-12724460D01*
X11315420Y-12724460D02*
X11334468Y-12733984D01*
X11334468Y-12733984D02*
X11353515Y-12733984D01*
X11496373Y-12724460D02*
X11477325Y-12733984D01*
X11477325Y-12733984D02*
X11439230Y-12733984D01*
X11439230Y-12733984D02*
X11420182Y-12724460D01*
X11420182Y-12724460D02*
X11410658Y-12705412D01*
X11410658Y-12705412D02*
X11410658Y-12629222D01*
X11410658Y-12629222D02*
X11420182Y-12610174D01*
X11420182Y-12610174D02*
X11439230Y-12600650D01*
X11439230Y-12600650D02*
X11477325Y-12600650D01*
X11477325Y-12600650D02*
X11496373Y-12610174D01*
X11496373Y-12610174D02*
X11505896Y-12629222D01*
X11505896Y-12629222D02*
X11505896Y-12648269D01*
X11505896Y-12648269D02*
X11410658Y-12667317D01*
X11677325Y-12733984D02*
X11677325Y-12533984D01*
X11677325Y-12724460D02*
X11658277Y-12733984D01*
X11658277Y-12733984D02*
X11620182Y-12733984D01*
X11620182Y-12733984D02*
X11601134Y-12724460D01*
X11601134Y-12724460D02*
X11591611Y-12714936D01*
X11591611Y-12714936D02*
X11582087Y-12695888D01*
X11582087Y-12695888D02*
X11582087Y-12638746D01*
X11582087Y-12638746D02*
X11591611Y-12619698D01*
X11591611Y-12619698D02*
X11601134Y-12610174D01*
X11601134Y-12610174D02*
X11620182Y-12600650D01*
X11620182Y-12600650D02*
X11658277Y-12600650D01*
X11658277Y-12600650D02*
X11677325Y-12610174D01*
X11753515Y-12810174D02*
X11763039Y-12800650D01*
X11763039Y-12800650D02*
X11782087Y-12772079D01*
X11782087Y-12772079D02*
X11791611Y-12753031D01*
X11791611Y-12753031D02*
X11801134Y-12724460D01*
X11801134Y-12724460D02*
X11810658Y-12676841D01*
X11810658Y-12676841D02*
X11810658Y-12638746D01*
X11810658Y-12638746D02*
X11801134Y-12591127D01*
X11801134Y-12591127D02*
X11791611Y-12562555D01*
X11791611Y-12562555D02*
X11782087Y-12543508D01*
X11782087Y-12543508D02*
X11763039Y-12514936D01*
X11763039Y-12514936D02*
X11753515Y-12505412D01*
D13*
X4997500Y-12906500D02*
G75*
G02*
X4882300Y-12906500I-57600J0D01*
G01*
X4882300Y-12906500D02*
G75*
G02*
X4997500Y-12906500I57600J0D01*
G01*
D11*
X5363039Y-12997984D02*
X5248753Y-12997984D01*
X5305896Y-12997984D02*
X5305896Y-12797984D01*
X5305896Y-12797984D02*
X5286848Y-12826555D01*
X5286848Y-12826555D02*
X5267801Y-12845603D01*
X5267801Y-12845603D02*
X5248753Y-12855127D01*
X5448753Y-12978936D02*
X5458277Y-12988460D01*
X5458277Y-12988460D02*
X5448753Y-12997984D01*
X5448753Y-12997984D02*
X5439229Y-12988460D01*
X5439229Y-12988460D02*
X5448753Y-12978936D01*
X5448753Y-12978936D02*
X5448753Y-12997984D01*
X5648753Y-12997984D02*
X5534467Y-12997984D01*
X5591610Y-12997984D02*
X5591610Y-12797984D01*
X5591610Y-12797984D02*
X5572563Y-12826555D01*
X5572563Y-12826555D02*
X5553515Y-12845603D01*
X5553515Y-12845603D02*
X5534467Y-12855127D01*
X5829705Y-12797984D02*
X5734467Y-12797984D01*
X5734467Y-12797984D02*
X5724943Y-12893222D01*
X5724943Y-12893222D02*
X5734467Y-12883698D01*
X5734467Y-12883698D02*
X5753515Y-12874174D01*
X5753515Y-12874174D02*
X5801134Y-12874174D01*
X5801134Y-12874174D02*
X5820182Y-12883698D01*
X5820182Y-12883698D02*
X5829705Y-12893222D01*
X5829705Y-12893222D02*
X5839229Y-12912269D01*
X5839229Y-12912269D02*
X5839229Y-12959888D01*
X5839229Y-12959888D02*
X5829705Y-12978936D01*
X5829705Y-12978936D02*
X5820182Y-12988460D01*
X5820182Y-12988460D02*
X5801134Y-12997984D01*
X5801134Y-12997984D02*
X5753515Y-12997984D01*
X5753515Y-12997984D02*
X5734467Y-12988460D01*
X5734467Y-12988460D02*
X5724943Y-12978936D01*
X5915420Y-12817031D02*
X5924943Y-12807508D01*
X5924943Y-12807508D02*
X5943991Y-12797984D01*
X5943991Y-12797984D02*
X5991610Y-12797984D01*
X5991610Y-12797984D02*
X6010658Y-12807508D01*
X6010658Y-12807508D02*
X6020182Y-12817031D01*
X6020182Y-12817031D02*
X6029705Y-12836079D01*
X6029705Y-12836079D02*
X6029705Y-12855127D01*
X6029705Y-12855127D02*
X6020182Y-12883698D01*
X6020182Y-12883698D02*
X5905896Y-12997984D01*
X5905896Y-12997984D02*
X6029705Y-12997984D01*
X6115420Y-12997984D02*
X6115420Y-12864650D01*
X6115420Y-12883698D02*
X6124943Y-12874174D01*
X6124943Y-12874174D02*
X6143991Y-12864650D01*
X6143991Y-12864650D02*
X6172563Y-12864650D01*
X6172563Y-12864650D02*
X6191610Y-12874174D01*
X6191610Y-12874174D02*
X6201134Y-12893222D01*
X6201134Y-12893222D02*
X6201134Y-12997984D01*
X6201134Y-12893222D02*
X6210658Y-12874174D01*
X6210658Y-12874174D02*
X6229705Y-12864650D01*
X6229705Y-12864650D02*
X6258277Y-12864650D01*
X6258277Y-12864650D02*
X6277324Y-12874174D01*
X6277324Y-12874174D02*
X6286848Y-12893222D01*
X6286848Y-12893222D02*
X6286848Y-12997984D01*
X6382086Y-12997984D02*
X6382086Y-12864650D01*
X6382086Y-12883698D02*
X6391610Y-12874174D01*
X6391610Y-12874174D02*
X6410658Y-12864650D01*
X6410658Y-12864650D02*
X6439229Y-12864650D01*
X6439229Y-12864650D02*
X6458277Y-12874174D01*
X6458277Y-12874174D02*
X6467801Y-12893222D01*
X6467801Y-12893222D02*
X6467801Y-12997984D01*
X6467801Y-12893222D02*
X6477324Y-12874174D01*
X6477324Y-12874174D02*
X6496372Y-12864650D01*
X6496372Y-12864650D02*
X6524943Y-12864650D01*
X6524943Y-12864650D02*
X6543991Y-12874174D01*
X6543991Y-12874174D02*
X6553515Y-12893222D01*
X6553515Y-12893222D02*
X6553515Y-12997984D01*
X6943991Y-12788460D02*
X6772563Y-13045603D01*
X7201134Y-12797984D02*
X7220182Y-12797984D01*
X7220182Y-12797984D02*
X7239229Y-12807508D01*
X7239229Y-12807508D02*
X7248753Y-12817031D01*
X7248753Y-12817031D02*
X7258277Y-12836079D01*
X7258277Y-12836079D02*
X7267801Y-12874174D01*
X7267801Y-12874174D02*
X7267801Y-12921793D01*
X7267801Y-12921793D02*
X7258277Y-12959888D01*
X7258277Y-12959888D02*
X7248753Y-12978936D01*
X7248753Y-12978936D02*
X7239229Y-12988460D01*
X7239229Y-12988460D02*
X7220182Y-12997984D01*
X7220182Y-12997984D02*
X7201134Y-12997984D01*
X7201134Y-12997984D02*
X7182086Y-12988460D01*
X7182086Y-12988460D02*
X7172563Y-12978936D01*
X7172563Y-12978936D02*
X7163039Y-12959888D01*
X7163039Y-12959888D02*
X7153515Y-12921793D01*
X7153515Y-12921793D02*
X7153515Y-12874174D01*
X7153515Y-12874174D02*
X7163039Y-12836079D01*
X7163039Y-12836079D02*
X7172563Y-12817031D01*
X7172563Y-12817031D02*
X7182086Y-12807508D01*
X7182086Y-12807508D02*
X7201134Y-12797984D01*
X7353515Y-12978936D02*
X7363039Y-12988460D01*
X7363039Y-12988460D02*
X7353515Y-12997984D01*
X7353515Y-12997984D02*
X7343991Y-12988460D01*
X7343991Y-12988460D02*
X7353515Y-12978936D01*
X7353515Y-12978936D02*
X7353515Y-12997984D01*
X7486848Y-12797984D02*
X7505896Y-12797984D01*
X7505896Y-12797984D02*
X7524944Y-12807508D01*
X7524944Y-12807508D02*
X7534467Y-12817031D01*
X7534467Y-12817031D02*
X7543991Y-12836079D01*
X7543991Y-12836079D02*
X7553515Y-12874174D01*
X7553515Y-12874174D02*
X7553515Y-12921793D01*
X7553515Y-12921793D02*
X7543991Y-12959888D01*
X7543991Y-12959888D02*
X7534467Y-12978936D01*
X7534467Y-12978936D02*
X7524944Y-12988460D01*
X7524944Y-12988460D02*
X7505896Y-12997984D01*
X7505896Y-12997984D02*
X7486848Y-12997984D01*
X7486848Y-12997984D02*
X7467801Y-12988460D01*
X7467801Y-12988460D02*
X7458277Y-12978936D01*
X7458277Y-12978936D02*
X7448753Y-12959888D01*
X7448753Y-12959888D02*
X7439229Y-12921793D01*
X7439229Y-12921793D02*
X7439229Y-12874174D01*
X7439229Y-12874174D02*
X7448753Y-12836079D01*
X7448753Y-12836079D02*
X7458277Y-12817031D01*
X7458277Y-12817031D02*
X7467801Y-12807508D01*
X7467801Y-12807508D02*
X7486848Y-12797984D01*
X7724944Y-12864650D02*
X7724944Y-12997984D01*
X7677325Y-12788460D02*
X7629706Y-12931317D01*
X7629706Y-12931317D02*
X7753515Y-12931317D01*
X7924944Y-12797984D02*
X7829706Y-12797984D01*
X7829706Y-12797984D02*
X7820182Y-12893222D01*
X7820182Y-12893222D02*
X7829706Y-12883698D01*
X7829706Y-12883698D02*
X7848753Y-12874174D01*
X7848753Y-12874174D02*
X7896372Y-12874174D01*
X7896372Y-12874174D02*
X7915420Y-12883698D01*
X7915420Y-12883698D02*
X7924944Y-12893222D01*
X7924944Y-12893222D02*
X7934467Y-12912269D01*
X7934467Y-12912269D02*
X7934467Y-12959888D01*
X7934467Y-12959888D02*
X7924944Y-12978936D01*
X7924944Y-12978936D02*
X7915420Y-12988460D01*
X7915420Y-12988460D02*
X7896372Y-12997984D01*
X7896372Y-12997984D02*
X7848753Y-12997984D01*
X7848753Y-12997984D02*
X7829706Y-12988460D01*
X7829706Y-12988460D02*
X7820182Y-12978936D01*
X8105896Y-12864650D02*
X8105896Y-12997984D01*
X8058277Y-12788460D02*
X8010658Y-12931317D01*
X8010658Y-12931317D02*
X8134467Y-12931317D01*
X8201134Y-12797984D02*
X8201134Y-12836079D01*
X8277325Y-12797984D02*
X8277325Y-12836079D01*
X8572563Y-13074174D02*
X8563039Y-13064650D01*
X8563039Y-13064650D02*
X8543991Y-13036079D01*
X8543991Y-13036079D02*
X8534468Y-13017031D01*
X8534468Y-13017031D02*
X8524944Y-12988460D01*
X8524944Y-12988460D02*
X8515420Y-12940841D01*
X8515420Y-12940841D02*
X8515420Y-12902746D01*
X8515420Y-12902746D02*
X8524944Y-12855127D01*
X8524944Y-12855127D02*
X8534468Y-12826555D01*
X8534468Y-12826555D02*
X8543991Y-12807508D01*
X8543991Y-12807508D02*
X8563039Y-12778936D01*
X8563039Y-12778936D02*
X8572563Y-12769412D01*
X8629706Y-12797984D02*
X8753515Y-12797984D01*
X8753515Y-12797984D02*
X8686849Y-12874174D01*
X8686849Y-12874174D02*
X8715420Y-12874174D01*
X8715420Y-12874174D02*
X8734468Y-12883698D01*
X8734468Y-12883698D02*
X8743991Y-12893222D01*
X8743991Y-12893222D02*
X8753515Y-12912269D01*
X8753515Y-12912269D02*
X8753515Y-12959888D01*
X8753515Y-12959888D02*
X8743991Y-12978936D01*
X8743991Y-12978936D02*
X8734468Y-12988460D01*
X8734468Y-12988460D02*
X8715420Y-12997984D01*
X8715420Y-12997984D02*
X8658277Y-12997984D01*
X8658277Y-12997984D02*
X8639230Y-12988460D01*
X8639230Y-12988460D02*
X8629706Y-12978936D01*
X8991611Y-12997984D02*
X8991611Y-12797984D01*
X9077325Y-12997984D02*
X9077325Y-12893222D01*
X9077325Y-12893222D02*
X9067801Y-12874174D01*
X9067801Y-12874174D02*
X9048753Y-12864650D01*
X9048753Y-12864650D02*
X9020182Y-12864650D01*
X9020182Y-12864650D02*
X9001134Y-12874174D01*
X9001134Y-12874174D02*
X8991611Y-12883698D01*
X9201134Y-12997984D02*
X9182087Y-12988460D01*
X9182087Y-12988460D02*
X9172563Y-12978936D01*
X9172563Y-12978936D02*
X9163039Y-12959888D01*
X9163039Y-12959888D02*
X9163039Y-12902746D01*
X9163039Y-12902746D02*
X9172563Y-12883698D01*
X9172563Y-12883698D02*
X9182087Y-12874174D01*
X9182087Y-12874174D02*
X9201134Y-12864650D01*
X9201134Y-12864650D02*
X9229706Y-12864650D01*
X9229706Y-12864650D02*
X9248753Y-12874174D01*
X9248753Y-12874174D02*
X9258277Y-12883698D01*
X9258277Y-12883698D02*
X9267801Y-12902746D01*
X9267801Y-12902746D02*
X9267801Y-12959888D01*
X9267801Y-12959888D02*
X9258277Y-12978936D01*
X9258277Y-12978936D02*
X9248753Y-12988460D01*
X9248753Y-12988460D02*
X9229706Y-12997984D01*
X9229706Y-12997984D02*
X9201134Y-12997984D01*
X9382087Y-12997984D02*
X9363039Y-12988460D01*
X9363039Y-12988460D02*
X9353515Y-12969412D01*
X9353515Y-12969412D02*
X9353515Y-12797984D01*
X9534468Y-12988460D02*
X9515420Y-12997984D01*
X9515420Y-12997984D02*
X9477325Y-12997984D01*
X9477325Y-12997984D02*
X9458277Y-12988460D01*
X9458277Y-12988460D02*
X9448753Y-12969412D01*
X9448753Y-12969412D02*
X9448753Y-12893222D01*
X9448753Y-12893222D02*
X9458277Y-12874174D01*
X9458277Y-12874174D02*
X9477325Y-12864650D01*
X9477325Y-12864650D02*
X9515420Y-12864650D01*
X9515420Y-12864650D02*
X9534468Y-12874174D01*
X9534468Y-12874174D02*
X9543992Y-12893222D01*
X9543992Y-12893222D02*
X9543992Y-12912269D01*
X9543992Y-12912269D02*
X9448753Y-12931317D01*
X9620182Y-12988460D02*
X9639230Y-12997984D01*
X9639230Y-12997984D02*
X9677325Y-12997984D01*
X9677325Y-12997984D02*
X9696373Y-12988460D01*
X9696373Y-12988460D02*
X9705896Y-12969412D01*
X9705896Y-12969412D02*
X9705896Y-12959888D01*
X9705896Y-12959888D02*
X9696373Y-12940841D01*
X9696373Y-12940841D02*
X9677325Y-12931317D01*
X9677325Y-12931317D02*
X9648753Y-12931317D01*
X9648753Y-12931317D02*
X9629706Y-12921793D01*
X9629706Y-12921793D02*
X9620182Y-12902746D01*
X9620182Y-12902746D02*
X9620182Y-12893222D01*
X9620182Y-12893222D02*
X9629706Y-12874174D01*
X9629706Y-12874174D02*
X9648753Y-12864650D01*
X9648753Y-12864650D02*
X9677325Y-12864650D01*
X9677325Y-12864650D02*
X9696373Y-12874174D01*
X9772563Y-13074174D02*
X9782087Y-13064650D01*
X9782087Y-13064650D02*
X9801134Y-13036079D01*
X9801134Y-13036079D02*
X9810658Y-13017031D01*
X9810658Y-13017031D02*
X9820182Y-12988460D01*
X9820182Y-12988460D02*
X9829706Y-12940841D01*
X9829706Y-12940841D02*
X9829706Y-12902746D01*
X9829706Y-12902746D02*
X9820182Y-12855127D01*
X9820182Y-12855127D02*
X9810658Y-12826555D01*
X9810658Y-12826555D02*
X9801134Y-12807508D01*
X9801134Y-12807508D02*
X9782087Y-12778936D01*
X9782087Y-12778936D02*
X9772563Y-12769412D01*
X10134468Y-13074174D02*
X10124944Y-13064650D01*
X10124944Y-13064650D02*
X10105896Y-13036079D01*
X10105896Y-13036079D02*
X10096373Y-13017031D01*
X10096373Y-13017031D02*
X10086849Y-12988460D01*
X10086849Y-12988460D02*
X10077325Y-12940841D01*
X10077325Y-12940841D02*
X10077325Y-12902746D01*
X10077325Y-12902746D02*
X10086849Y-12855127D01*
X10086849Y-12855127D02*
X10096373Y-12826555D01*
X10096373Y-12826555D02*
X10105896Y-12807508D01*
X10105896Y-12807508D02*
X10124944Y-12778936D01*
X10124944Y-12778936D02*
X10134468Y-12769412D01*
X10210658Y-12864650D02*
X10210658Y-12997984D01*
X10210658Y-12883698D02*
X10220182Y-12874174D01*
X10220182Y-12874174D02*
X10239230Y-12864650D01*
X10239230Y-12864650D02*
X10267801Y-12864650D01*
X10267801Y-12864650D02*
X10286849Y-12874174D01*
X10286849Y-12874174D02*
X10296373Y-12893222D01*
X10296373Y-12893222D02*
X10296373Y-12997984D01*
X10420182Y-12997984D02*
X10401134Y-12988460D01*
X10401134Y-12988460D02*
X10391611Y-12978936D01*
X10391611Y-12978936D02*
X10382087Y-12959888D01*
X10382087Y-12959888D02*
X10382087Y-12902746D01*
X10382087Y-12902746D02*
X10391611Y-12883698D01*
X10391611Y-12883698D02*
X10401134Y-12874174D01*
X10401134Y-12874174D02*
X10420182Y-12864650D01*
X10420182Y-12864650D02*
X10448754Y-12864650D01*
X10448754Y-12864650D02*
X10467801Y-12874174D01*
X10467801Y-12874174D02*
X10477325Y-12883698D01*
X10477325Y-12883698D02*
X10486849Y-12902746D01*
X10486849Y-12902746D02*
X10486849Y-12959888D01*
X10486849Y-12959888D02*
X10477325Y-12978936D01*
X10477325Y-12978936D02*
X10467801Y-12988460D01*
X10467801Y-12988460D02*
X10448754Y-12997984D01*
X10448754Y-12997984D02*
X10420182Y-12997984D01*
X10543992Y-12864650D02*
X10620182Y-12864650D01*
X10572563Y-12797984D02*
X10572563Y-12969412D01*
X10572563Y-12969412D02*
X10582087Y-12988460D01*
X10582087Y-12988460D02*
X10601134Y-12997984D01*
X10601134Y-12997984D02*
X10620182Y-12997984D01*
X10839230Y-12864650D02*
X10839230Y-13064650D01*
X10839230Y-12874174D02*
X10858277Y-12864650D01*
X10858277Y-12864650D02*
X10896373Y-12864650D01*
X10896373Y-12864650D02*
X10915420Y-12874174D01*
X10915420Y-12874174D02*
X10924944Y-12883698D01*
X10924944Y-12883698D02*
X10934468Y-12902746D01*
X10934468Y-12902746D02*
X10934468Y-12959888D01*
X10934468Y-12959888D02*
X10924944Y-12978936D01*
X10924944Y-12978936D02*
X10915420Y-12988460D01*
X10915420Y-12988460D02*
X10896373Y-12997984D01*
X10896373Y-12997984D02*
X10858277Y-12997984D01*
X10858277Y-12997984D02*
X10839230Y-12988460D01*
X11048754Y-12997984D02*
X11029706Y-12988460D01*
X11029706Y-12988460D02*
X11020182Y-12969412D01*
X11020182Y-12969412D02*
X11020182Y-12797984D01*
X11210658Y-12997984D02*
X11210658Y-12893222D01*
X11210658Y-12893222D02*
X11201134Y-12874174D01*
X11201134Y-12874174D02*
X11182087Y-12864650D01*
X11182087Y-12864650D02*
X11143992Y-12864650D01*
X11143992Y-12864650D02*
X11124944Y-12874174D01*
X11210658Y-12988460D02*
X11191611Y-12997984D01*
X11191611Y-12997984D02*
X11143992Y-12997984D01*
X11143992Y-12997984D02*
X11124944Y-12988460D01*
X11124944Y-12988460D02*
X11115420Y-12969412D01*
X11115420Y-12969412D02*
X11115420Y-12950365D01*
X11115420Y-12950365D02*
X11124944Y-12931317D01*
X11124944Y-12931317D02*
X11143992Y-12921793D01*
X11143992Y-12921793D02*
X11191611Y-12921793D01*
X11191611Y-12921793D02*
X11210658Y-12912269D01*
X11277325Y-12864650D02*
X11353515Y-12864650D01*
X11305896Y-12797984D02*
X11305896Y-12969412D01*
X11305896Y-12969412D02*
X11315420Y-12988460D01*
X11315420Y-12988460D02*
X11334468Y-12997984D01*
X11334468Y-12997984D02*
X11353515Y-12997984D01*
X11496373Y-12988460D02*
X11477325Y-12997984D01*
X11477325Y-12997984D02*
X11439230Y-12997984D01*
X11439230Y-12997984D02*
X11420182Y-12988460D01*
X11420182Y-12988460D02*
X11410658Y-12969412D01*
X11410658Y-12969412D02*
X11410658Y-12893222D01*
X11410658Y-12893222D02*
X11420182Y-12874174D01*
X11420182Y-12874174D02*
X11439230Y-12864650D01*
X11439230Y-12864650D02*
X11477325Y-12864650D01*
X11477325Y-12864650D02*
X11496373Y-12874174D01*
X11496373Y-12874174D02*
X11505896Y-12893222D01*
X11505896Y-12893222D02*
X11505896Y-12912269D01*
X11505896Y-12912269D02*
X11410658Y-12931317D01*
X11677325Y-12997984D02*
X11677325Y-12797984D01*
X11677325Y-12988460D02*
X11658277Y-12997984D01*
X11658277Y-12997984D02*
X11620182Y-12997984D01*
X11620182Y-12997984D02*
X11601134Y-12988460D01*
X11601134Y-12988460D02*
X11591611Y-12978936D01*
X11591611Y-12978936D02*
X11582087Y-12959888D01*
X11582087Y-12959888D02*
X11582087Y-12902746D01*
X11582087Y-12902746D02*
X11591611Y-12883698D01*
X11591611Y-12883698D02*
X11601134Y-12874174D01*
X11601134Y-12874174D02*
X11620182Y-12864650D01*
X11620182Y-12864650D02*
X11658277Y-12864650D01*
X11658277Y-12864650D02*
X11677325Y-12874174D01*
X11753515Y-13074174D02*
X11763039Y-13064650D01*
X11763039Y-13064650D02*
X11782087Y-13036079D01*
X11782087Y-13036079D02*
X11791611Y-13017031D01*
X11791611Y-13017031D02*
X11801134Y-12988460D01*
X11801134Y-12988460D02*
X11810658Y-12940841D01*
X11810658Y-12940841D02*
X11810658Y-12902746D01*
X11810658Y-12902746D02*
X11801134Y-12855127D01*
X11801134Y-12855127D02*
X11791611Y-12826555D01*
X11791611Y-12826555D02*
X11782087Y-12807508D01*
X11782087Y-12807508D02*
X11763039Y-12778936D01*
X11763039Y-12778936D02*
X11753515Y-12769412D01*
M02*
