G04 #@! TF.GenerationSoftware,KiCad,Pcbnew,8.0.4*
G04 #@! TF.CreationDate,2024-09-01T18:21:08-07:00*
G04 #@! TF.ProjectId,HDMI Breakout,48444d49-2042-4726-9561-6b6f75742e6b,rev?*
G04 #@! TF.SameCoordinates,Original*
G04 #@! TF.FileFunction,Copper,L1,Top*
G04 #@! TF.FilePolarity,Positive*
%FSLAX46Y46*%
G04 Gerber Fmt 4.6, Leading zero omitted, Abs format (unit mm)*
G04 Created by KiCad (PCBNEW 8.0.4) date 2024-09-01 18:21:08*
%MOMM*%
%LPD*%
G01*
G04 APERTURE LIST*
G04 Aperture macros list*
%AMRoundRect*
0 Rectangle with rounded corners*
0 $1 Rounding radius*
0 $2 $3 $4 $5 $6 $7 $8 $9 X,Y pos of 4 corners*
0 Add a 4 corners polygon primitive as box body*
4,1,4,$2,$3,$4,$5,$6,$7,$8,$9,$2,$3,0*
0 Add four circle primitives for the rounded corners*
1,1,$1+$1,$2,$3*
1,1,$1+$1,$4,$5*
1,1,$1+$1,$6,$7*
1,1,$1+$1,$8,$9*
0 Add four rect primitives between the rounded corners*
20,1,$1+$1,$2,$3,$4,$5,0*
20,1,$1+$1,$4,$5,$6,$7,0*
20,1,$1+$1,$6,$7,$8,$9,0*
20,1,$1+$1,$8,$9,$2,$3,0*%
G04 Aperture macros list end*
G04 #@! TA.AperFunction,SMDPad,CuDef*
%ADD10RoundRect,0.135000X-0.185000X0.135000X-0.185000X-0.135000X0.185000X-0.135000X0.185000X0.135000X0*%
G04 #@! TD*
G04 #@! TA.AperFunction,SMDPad,CuDef*
%ADD11RoundRect,0.218750X0.256250X-0.218750X0.256250X0.218750X-0.256250X0.218750X-0.256250X-0.218750X0*%
G04 #@! TD*
G04 #@! TA.AperFunction,ComponentPad*
%ADD12C,4.400000*%
G04 #@! TD*
G04 #@! TA.AperFunction,SMDPad,CuDef*
%ADD13R,0.599999X0.240000*%
G04 #@! TD*
G04 #@! TA.AperFunction,SMDPad,CuDef*
%ADD14R,0.240000X0.599999*%
G04 #@! TD*
G04 #@! TA.AperFunction,SMDPad,CuDef*
%ADD15R,4.099999X4.099999*%
G04 #@! TD*
G04 #@! TA.AperFunction,SMDPad,CuDef*
%ADD16R,2.641600X0.330200*%
G04 #@! TD*
G04 #@! TA.AperFunction,ComponentPad*
%ADD17O,3.500000X1.350000*%
G04 #@! TD*
G04 #@! TA.AperFunction,ComponentPad*
%ADD18O,2.500000X1.350000*%
G04 #@! TD*
G04 #@! TA.AperFunction,SMDPad,CuDef*
%ADD19R,2.300000X2.400000*%
G04 #@! TD*
G04 #@! TA.AperFunction,ComponentPad*
%ADD20O,1.600000X1.000000*%
G04 #@! TD*
G04 #@! TA.AperFunction,ComponentPad*
%ADD21O,2.100000X1.000000*%
G04 #@! TD*
G04 #@! TA.AperFunction,SMDPad,CuDef*
%ADD22RoundRect,0.150000X0.500000X-0.150000X0.500000X0.150000X-0.500000X0.150000X-0.500000X-0.150000X0*%
G04 #@! TD*
G04 #@! TA.AperFunction,SMDPad,CuDef*
%ADD23RoundRect,0.075000X0.575000X-0.075000X0.575000X0.075000X-0.575000X0.075000X-0.575000X-0.075000X0*%
G04 #@! TD*
G04 #@! TA.AperFunction,SMDPad,CuDef*
%ADD24RoundRect,0.150000X-0.500000X0.150000X-0.500000X-0.150000X0.500000X-0.150000X0.500000X0.150000X0*%
G04 #@! TD*
G04 #@! TA.AperFunction,SMDPad,CuDef*
%ADD25RoundRect,0.075000X-0.575000X0.075000X-0.575000X-0.075000X0.575000X-0.075000X0.575000X0.075000X0*%
G04 #@! TD*
G04 #@! TA.AperFunction,SMDPad,CuDef*
%ADD26RoundRect,0.140000X0.170000X-0.140000X0.170000X0.140000X-0.170000X0.140000X-0.170000X-0.140000X0*%
G04 #@! TD*
G04 #@! TA.AperFunction,SMDPad,CuDef*
%ADD27R,1.500000X0.900000*%
G04 #@! TD*
G04 #@! TA.AperFunction,SMDPad,CuDef*
%ADD28R,0.800000X0.800000*%
G04 #@! TD*
G04 #@! TA.AperFunction,SMDPad,CuDef*
%ADD29RoundRect,0.140000X-0.170000X0.140000X-0.170000X-0.140000X0.170000X-0.140000X0.170000X0.140000X0*%
G04 #@! TD*
G04 #@! TA.AperFunction,SMDPad,CuDef*
%ADD30RoundRect,0.135000X-0.135000X-0.185000X0.135000X-0.185000X0.135000X0.185000X-0.135000X0.185000X0*%
G04 #@! TD*
G04 #@! TA.AperFunction,SMDPad,CuDef*
%ADD31RoundRect,0.140000X-0.140000X-0.170000X0.140000X-0.170000X0.140000X0.170000X-0.140000X0.170000X0*%
G04 #@! TD*
G04 #@! TA.AperFunction,SMDPad,CuDef*
%ADD32RoundRect,0.135000X0.135000X0.185000X-0.135000X0.185000X-0.135000X-0.185000X0.135000X-0.185000X0*%
G04 #@! TD*
G04 #@! TA.AperFunction,SMDPad,CuDef*
%ADD33RoundRect,0.140000X0.140000X0.170000X-0.140000X0.170000X-0.140000X-0.170000X0.140000X-0.170000X0*%
G04 #@! TD*
G04 #@! TA.AperFunction,SMDPad,CuDef*
%ADD34RoundRect,0.135000X0.185000X-0.135000X0.185000X0.135000X-0.185000X0.135000X-0.185000X-0.135000X0*%
G04 #@! TD*
G04 #@! TA.AperFunction,SMDPad,CuDef*
%ADD35RoundRect,0.100000X-0.225000X-0.100000X0.225000X-0.100000X0.225000X0.100000X-0.225000X0.100000X0*%
G04 #@! TD*
G04 #@! TA.AperFunction,SMDPad,CuDef*
%ADD36RoundRect,0.225000X-0.225000X-0.375000X0.225000X-0.375000X0.225000X0.375000X-0.225000X0.375000X0*%
G04 #@! TD*
G04 #@! TA.AperFunction,SMDPad,CuDef*
%ADD37RoundRect,0.375000X-0.625000X-0.375000X0.625000X-0.375000X0.625000X0.375000X-0.625000X0.375000X0*%
G04 #@! TD*
G04 #@! TA.AperFunction,SMDPad,CuDef*
%ADD38RoundRect,0.500000X-0.500000X-1.400000X0.500000X-1.400000X0.500000X1.400000X-0.500000X1.400000X0*%
G04 #@! TD*
G04 #@! TA.AperFunction,SMDPad,CuDef*
%ADD39RoundRect,0.150000X0.150000X-0.587500X0.150000X0.587500X-0.150000X0.587500X-0.150000X-0.587500X0*%
G04 #@! TD*
G04 #@! TA.AperFunction,SMDPad,CuDef*
%ADD40RoundRect,0.375000X0.375000X-0.625000X0.375000X0.625000X-0.375000X0.625000X-0.375000X-0.625000X0*%
G04 #@! TD*
G04 #@! TA.AperFunction,SMDPad,CuDef*
%ADD41RoundRect,0.500000X1.400000X-0.500000X1.400000X0.500000X-1.400000X0.500000X-1.400000X-0.500000X0*%
G04 #@! TD*
G04 #@! TA.AperFunction,SMDPad,CuDef*
%ADD42RoundRect,0.150000X-0.587500X-0.150000X0.587500X-0.150000X0.587500X0.150000X-0.587500X0.150000X0*%
G04 #@! TD*
G04 #@! TA.AperFunction,SMDPad,CuDef*
%ADD43RoundRect,0.150000X-0.150000X0.587500X-0.150000X-0.587500X0.150000X-0.587500X0.150000X0.587500X0*%
G04 #@! TD*
G04 #@! TA.AperFunction,SMDPad,CuDef*
%ADD44RoundRect,0.062500X-0.337500X-0.062500X0.337500X-0.062500X0.337500X0.062500X-0.337500X0.062500X0*%
G04 #@! TD*
G04 #@! TA.AperFunction,SMDPad,CuDef*
%ADD45RoundRect,0.062500X-0.062500X-0.337500X0.062500X-0.337500X0.062500X0.337500X-0.062500X0.337500X0*%
G04 #@! TD*
G04 #@! TA.AperFunction,HeatsinkPad*
%ADD46R,3.350000X3.350000*%
G04 #@! TD*
G04 #@! TA.AperFunction,SMDPad,CuDef*
%ADD47RoundRect,0.225000X0.225000X0.375000X-0.225000X0.375000X-0.225000X-0.375000X0.225000X-0.375000X0*%
G04 #@! TD*
G04 #@! TA.AperFunction,ViaPad*
%ADD48C,0.400000*%
G04 #@! TD*
G04 #@! TA.AperFunction,ViaPad*
%ADD49C,0.800000*%
G04 #@! TD*
G04 #@! TA.AperFunction,ViaPad*
%ADD50C,1.000000*%
G04 #@! TD*
G04 #@! TA.AperFunction,Conductor*
%ADD51C,0.200000*%
G04 #@! TD*
G04 #@! TA.AperFunction,Conductor*
%ADD52C,0.500000*%
G04 #@! TD*
G04 APERTURE END LIST*
D10*
X109200000Y-114800000D03*
X109200000Y-115820000D03*
X77000000Y-114800000D03*
X77000000Y-115820000D03*
X60900000Y-114800000D03*
X60900000Y-115820000D03*
X93100000Y-114800000D03*
X93100000Y-115820000D03*
D11*
X109200000Y-113200000D03*
X109200000Y-111625000D03*
X77000000Y-113200000D03*
X77000000Y-111625000D03*
X60900000Y-113200000D03*
X60900000Y-111625000D03*
X93100000Y-113200000D03*
X93100000Y-111625000D03*
D12*
X115000000Y-115000000D03*
X55000000Y-115000000D03*
X115000000Y-55000000D03*
X55000000Y-55000000D03*
D13*
X81599998Y-66209999D03*
X81599998Y-66709998D03*
X81599998Y-67210000D03*
X81599998Y-67709999D03*
X81599998Y-68210001D03*
X81599998Y-68709999D03*
X81599998Y-69209999D03*
X81599998Y-69710000D03*
X81599998Y-70209999D03*
X81599998Y-70710001D03*
X81599998Y-71210000D03*
X81599998Y-71709999D03*
D14*
X82249999Y-72360000D03*
X82749998Y-72360000D03*
X83250000Y-72360000D03*
X83749999Y-72360000D03*
X84250001Y-72360000D03*
X84749999Y-72360000D03*
X85249999Y-72360000D03*
X85750000Y-72360000D03*
X86249999Y-72360000D03*
X86750001Y-72360000D03*
X87250000Y-72360000D03*
X87749999Y-72360000D03*
D13*
X88400000Y-71709999D03*
X88400000Y-71210000D03*
X88400000Y-70710001D03*
X88400000Y-70209999D03*
X88400000Y-69710000D03*
X88400000Y-69209999D03*
X88400000Y-68709999D03*
X88400000Y-68210001D03*
X88400000Y-67709999D03*
X88400000Y-67210000D03*
X88400000Y-66709998D03*
X88400000Y-66209999D03*
D14*
X87749999Y-65559998D03*
X87250000Y-65559998D03*
X86750001Y-65559998D03*
X86249999Y-65559998D03*
X85750000Y-65559998D03*
X85249999Y-65559998D03*
X84749999Y-65559998D03*
X84250001Y-65559998D03*
X83749999Y-65559998D03*
X83250000Y-65559998D03*
X82749998Y-65559998D03*
X82249999Y-65559998D03*
D15*
X84999999Y-68959999D03*
D16*
X59560000Y-73750000D03*
X59560000Y-73250000D03*
X59560000Y-72750000D03*
X59560000Y-72250000D03*
X59560000Y-71750000D03*
X59560000Y-71250000D03*
X59560000Y-70750000D03*
X59560000Y-70250000D03*
X59560000Y-69750000D03*
X59560000Y-69250000D03*
X59560000Y-68750001D03*
X59560000Y-68250000D03*
X59560000Y-67750000D03*
X59560000Y-67250000D03*
X59560000Y-66750000D03*
X59560000Y-66250000D03*
X59560000Y-65750000D03*
X59560000Y-65250000D03*
X59560000Y-64750000D03*
D17*
X59560000Y-62000000D03*
D18*
X53560000Y-62000000D03*
D17*
X59560000Y-76500000D03*
D18*
X53560000Y-76500000D03*
D16*
X110450000Y-64750000D03*
X110450000Y-65250000D03*
X110450000Y-65750000D03*
X110450000Y-66250000D03*
X110450000Y-66750000D03*
X110450000Y-67250000D03*
X110450000Y-67750000D03*
X110450000Y-68250000D03*
X110450000Y-68750000D03*
X110450000Y-69250000D03*
X110450000Y-69749999D03*
X110450000Y-70250000D03*
X110450000Y-70750000D03*
X110450000Y-71250000D03*
X110450000Y-71750000D03*
X110450000Y-72250000D03*
X110450000Y-72750000D03*
X110450000Y-73250000D03*
X110450000Y-73750000D03*
D17*
X110450000Y-76500000D03*
D18*
X116450000Y-76500000D03*
D17*
X110450000Y-62000000D03*
D18*
X116450000Y-62000000D03*
D19*
X116150000Y-106500000D03*
X101850000Y-106500000D03*
X116150000Y-102000000D03*
X101850000Y-102000000D03*
X68150000Y-106500000D03*
X53850000Y-106500000D03*
X68150000Y-102000000D03*
X53850000Y-102000000D03*
D20*
X116900000Y-84930000D03*
D21*
X112720000Y-84930000D03*
D20*
X116900000Y-93570000D03*
D21*
X112720000Y-93570000D03*
D22*
X112080000Y-92450000D03*
X112080000Y-91650000D03*
D23*
X112080000Y-91000000D03*
X112080000Y-90000000D03*
X112080000Y-88500000D03*
X112080000Y-87500000D03*
D22*
X112080000Y-86850000D03*
X112080000Y-86050000D03*
X112080000Y-86050000D03*
X112080000Y-86850000D03*
D23*
X112080000Y-88000000D03*
X112080000Y-89000000D03*
X112080000Y-89500000D03*
X112080000Y-90500000D03*
D22*
X112080000Y-91650000D03*
X112080000Y-92450000D03*
D20*
X53100000Y-93570000D03*
D21*
X57280000Y-93570000D03*
D20*
X53100000Y-84930000D03*
D21*
X57280000Y-84930000D03*
D24*
X57920000Y-86050000D03*
X57920000Y-86850000D03*
D25*
X57920000Y-87500000D03*
X57920000Y-88500000D03*
X57920000Y-90000000D03*
X57920000Y-91000000D03*
D24*
X57920000Y-91650000D03*
X57920000Y-92450000D03*
X57920000Y-92450000D03*
X57920000Y-91650000D03*
D25*
X57920000Y-90500000D03*
X57920000Y-89500000D03*
X57920000Y-89000000D03*
X57920000Y-88000000D03*
D24*
X57920000Y-86850000D03*
X57920000Y-86050000D03*
D26*
X81930000Y-62834998D03*
X81930000Y-63794998D03*
D10*
X115790000Y-82180000D03*
X115790000Y-83200000D03*
D27*
X93550000Y-100670000D03*
X93550000Y-99400000D03*
X93550000Y-98130000D03*
X93550000Y-96860000D03*
X93550000Y-95590000D03*
X93550000Y-94320000D03*
X93550000Y-93050000D03*
X93550000Y-91780000D03*
X93550000Y-90510000D03*
X93550000Y-89240000D03*
X93550000Y-87970000D03*
X93550000Y-86700000D03*
X93550000Y-85430000D03*
X93550000Y-84160000D03*
X76050000Y-84160000D03*
X76050000Y-85430000D03*
X76050000Y-86700000D03*
X76050000Y-87970000D03*
X76050000Y-89240000D03*
X76050000Y-90510000D03*
X76050000Y-91780000D03*
X76050000Y-93050000D03*
X76050000Y-94320000D03*
X76050000Y-95590000D03*
X76050000Y-96860000D03*
X76050000Y-98130000D03*
X76050000Y-99400000D03*
X76050000Y-100670000D03*
D28*
X87555000Y-96200000D03*
X87555000Y-94950000D03*
X87555000Y-93700000D03*
X86305000Y-96200000D03*
X86305000Y-94950000D03*
X86305000Y-93700000D03*
X85055000Y-96200000D03*
X85055000Y-94950000D03*
X85055000Y-93700000D03*
D29*
X82692000Y-74936499D03*
X82692000Y-73976499D03*
D30*
X71800000Y-89400000D03*
X70780000Y-89400000D03*
D31*
X96840000Y-100460000D03*
X95880000Y-100460000D03*
D30*
X72930000Y-95580000D03*
X73950000Y-95580000D03*
D29*
X87800000Y-54840000D03*
X87800000Y-55800000D03*
D32*
X62407660Y-91670000D03*
X63427660Y-91670000D03*
D26*
X88788000Y-62831500D03*
X88788000Y-63791500D03*
D33*
X88860000Y-58300000D03*
X87900000Y-58300000D03*
D26*
X87772000Y-62831500D03*
X87772000Y-63791500D03*
D29*
X60240000Y-89020000D03*
X60240000Y-89980000D03*
D34*
X86248000Y-75040000D03*
X86248000Y-74020000D03*
D29*
X88280000Y-74048000D03*
X88280000Y-75008000D03*
D35*
X72200000Y-86700000D03*
X72200000Y-87350000D03*
X72200000Y-88000000D03*
X70300000Y-88000000D03*
X70300000Y-87350000D03*
X70300000Y-86700000D03*
D31*
X103150000Y-97120000D03*
X104110000Y-97120000D03*
D36*
X105830000Y-94810000D03*
X109130000Y-94810000D03*
D31*
X96840000Y-99450000D03*
X95880000Y-99450000D03*
X106410000Y-92880000D03*
X107370000Y-92880000D03*
D30*
X61427660Y-92770000D03*
X60407660Y-92770000D03*
D26*
X74480000Y-80710000D03*
X74480000Y-79750000D03*
D31*
X64810000Y-96400000D03*
X65770000Y-96400000D03*
D37*
X90800000Y-54800000D03*
X90800000Y-57100000D03*
X90800000Y-59400000D03*
D38*
X97100000Y-57100000D03*
D26*
X86020000Y-62200000D03*
X86020000Y-63160000D03*
D39*
X108050000Y-85425000D03*
X109000000Y-87300000D03*
X107100000Y-87300000D03*
D30*
X101830000Y-98210000D03*
X100810000Y-98210000D03*
D10*
X73850000Y-87320000D03*
X73850000Y-86300000D03*
D30*
X61437660Y-91670000D03*
X60417660Y-91670000D03*
D40*
X66400000Y-81950000D03*
X68700000Y-81950000D03*
X71000000Y-81950000D03*
D41*
X68700000Y-75650000D03*
D31*
X70665000Y-101970000D03*
X71625000Y-101970000D03*
D26*
X64400000Y-77560000D03*
X64400000Y-76600000D03*
D39*
X54460000Y-80832500D03*
X55410000Y-82707500D03*
X53510000Y-82707500D03*
D32*
X56900000Y-83200000D03*
X57920000Y-83200000D03*
D33*
X88880000Y-59400000D03*
X87920000Y-59400000D03*
D29*
X87264000Y-74048000D03*
X87264000Y-75008000D03*
D33*
X79192000Y-72846999D03*
X80152000Y-72846999D03*
D26*
X84970000Y-62839999D03*
X84970000Y-63799999D03*
D30*
X101830000Y-99270000D03*
X100810000Y-99270000D03*
D26*
X80914000Y-62834998D03*
X80914000Y-63794998D03*
X64400000Y-80200000D03*
X64400000Y-79240000D03*
D42*
X113777500Y-82120000D03*
X111902500Y-83070000D03*
X111902500Y-81170000D03*
D29*
X88900000Y-54840000D03*
X88900000Y-55800000D03*
D34*
X115050000Y-95160000D03*
X115050000Y-96180000D03*
D32*
X64407660Y-91670000D03*
X65427660Y-91670000D03*
D31*
X100820000Y-97140000D03*
X101780000Y-97140000D03*
D26*
X73380000Y-80670000D03*
X73380000Y-79710000D03*
D31*
X62467660Y-92770000D03*
X63427660Y-92770000D03*
D26*
X83962000Y-62834998D03*
X83962000Y-63794998D03*
X64400000Y-82760000D03*
X64400000Y-81800000D03*
D43*
X52690000Y-97950000D03*
X51740000Y-96075000D03*
X53640000Y-96075000D03*
D44*
X61950000Y-86050000D03*
X61950000Y-86550000D03*
X61950000Y-87050000D03*
X61950000Y-87550000D03*
X61950000Y-88050000D03*
X61950000Y-88550000D03*
X61950000Y-89050000D03*
D45*
X62900000Y-90000000D03*
X63400000Y-90000000D03*
X63900000Y-90000000D03*
X64400000Y-90000000D03*
X64900000Y-90000000D03*
X65400000Y-90000000D03*
X65900000Y-90000000D03*
D44*
X66850000Y-89050000D03*
X66850000Y-88550000D03*
X66850000Y-88050000D03*
X66850000Y-87550000D03*
X66850000Y-87050000D03*
X66850000Y-86550000D03*
X66850000Y-86050000D03*
D45*
X65900000Y-85100000D03*
X65400000Y-85100000D03*
X64900000Y-85100000D03*
X64400000Y-85100000D03*
X63900000Y-85100000D03*
X63400000Y-85100000D03*
X62900000Y-85100000D03*
D46*
X64400000Y-87550000D03*
D34*
X57190000Y-95450000D03*
X57190000Y-96470000D03*
D47*
X63250000Y-96410000D03*
X59950000Y-96410000D03*
D48*
X73380000Y-81570000D03*
X74480000Y-81510000D03*
X84960000Y-62100000D03*
X70100000Y-94250000D03*
X69590000Y-88400000D03*
X95890000Y-101140000D03*
X95890000Y-98820000D03*
X115720000Y-96180000D03*
X81980000Y-73961500D03*
X65530000Y-76380000D03*
X63620000Y-81800000D03*
X65240000Y-82760000D03*
X65160000Y-79240000D03*
X83220000Y-64159999D03*
X85020000Y-76930000D03*
X82740000Y-63759999D03*
X84650000Y-75700000D03*
X85570000Y-64880000D03*
X93900000Y-74200000D03*
X108540000Y-73270000D03*
X105890000Y-70740000D03*
X100350000Y-84170000D03*
X105060000Y-71240000D03*
X99700000Y-84170000D03*
X82330000Y-67720000D03*
X90740000Y-93060000D03*
X64440000Y-84120000D03*
X69205000Y-90575000D03*
X79980000Y-86620000D03*
X69856397Y-67760000D03*
X68190000Y-66730000D03*
X79340000Y-86660000D03*
X64530000Y-66250000D03*
X78630000Y-86660000D03*
X77950000Y-86700000D03*
X66120000Y-67360000D03*
X61830000Y-64740000D03*
X77320000Y-86700000D03*
X107980000Y-72240000D03*
X107120000Y-63800000D03*
X106500000Y-63820000D03*
X107380000Y-71750000D03*
X89750000Y-89420000D03*
X87380000Y-89450000D03*
X59330000Y-90140000D03*
X63680000Y-84250000D03*
X66880000Y-89890000D03*
X88500000Y-91550000D03*
X89310000Y-98630000D03*
X72830000Y-86900000D03*
X77380000Y-93250000D03*
X69640000Y-85180000D03*
X70850000Y-85180000D03*
X61050000Y-87040000D03*
X69560000Y-84380000D03*
X71440000Y-87850000D03*
X97570000Y-99490000D03*
X97580000Y-100480000D03*
X94280000Y-101560000D03*
X115330000Y-85920000D03*
X113060000Y-87500000D03*
X113010000Y-90480000D03*
X115030000Y-91710000D03*
X108060000Y-87220000D03*
X108210000Y-92880000D03*
X105540000Y-92880000D03*
X104750000Y-94810000D03*
X101780000Y-96320000D03*
X104120000Y-97920000D03*
X102840000Y-99330000D03*
X109830000Y-102000000D03*
X108610000Y-101980000D03*
X114530000Y-106460000D03*
X109200000Y-116620000D03*
X101830000Y-108320000D03*
X93090000Y-110580000D03*
X77000000Y-110670000D03*
X60880000Y-116660000D03*
X61650000Y-101990000D03*
X59990000Y-102020000D03*
X66560000Y-106500000D03*
X55560000Y-106500000D03*
X55280000Y-80840000D03*
X58720000Y-83220000D03*
D49*
X53810000Y-97950000D03*
D48*
X57910000Y-96470000D03*
X59180000Y-86840000D03*
X59780000Y-91650000D03*
X55630000Y-87710000D03*
X115000000Y-82140000D03*
X112240000Y-65260000D03*
X112240000Y-66740000D03*
X112240000Y-68250000D03*
X112240000Y-69760000D03*
X112220000Y-72740000D03*
X95680000Y-73770000D03*
X89600000Y-67700000D03*
X74630000Y-100670000D03*
X72375000Y-101970000D03*
X65750000Y-97160000D03*
X63260000Y-97380000D03*
X64810000Y-97100000D03*
X56810000Y-88980000D03*
X56810000Y-90010000D03*
X64150000Y-92756374D03*
X62410000Y-91016374D03*
X61270000Y-89053626D03*
X60410000Y-93486374D03*
X88350000Y-94940000D03*
X87550000Y-96980000D03*
X86290000Y-96980000D03*
X85040000Y-97000000D03*
X84250000Y-94940000D03*
X87560000Y-92930000D03*
X86310000Y-92930000D03*
X85050000Y-92930000D03*
X71010000Y-83420000D03*
D50*
X68700000Y-78850000D03*
D48*
X63560000Y-77570000D03*
X63560000Y-80200000D03*
X78390000Y-72850000D03*
X82700000Y-75691500D03*
X86250000Y-75735001D03*
X87270000Y-75735001D03*
X88270000Y-75745001D03*
X80160000Y-73610000D03*
X89140000Y-74065001D03*
X80060000Y-63789999D03*
X81930000Y-62049999D03*
X80900000Y-62029999D03*
X86020000Y-61460000D03*
X83960000Y-62079999D03*
X83749999Y-66310000D03*
X85750000Y-66350000D03*
X85249999Y-71360000D03*
X82540000Y-68960000D03*
X87440000Y-68970000D03*
X84750000Y-66240000D03*
X87780000Y-62096501D03*
X88780000Y-62106501D03*
X89490000Y-63796501D03*
X88860000Y-57560000D03*
X88880000Y-60220000D03*
X92280000Y-59390000D03*
X87930000Y-60210000D03*
X87900000Y-57560000D03*
X88920000Y-56510000D03*
X86960000Y-55800000D03*
X92290000Y-54790000D03*
X88910000Y-53950000D03*
X86930000Y-54850000D03*
X56730000Y-65240000D03*
X57920000Y-73250000D03*
X57920000Y-71760000D03*
X57900000Y-70250000D03*
X57890000Y-68740000D03*
X57910000Y-65740000D03*
D51*
X100810000Y-99270000D02*
X100510000Y-99270000D01*
X100510000Y-99270000D02*
X99370000Y-98130000D01*
X101830000Y-98210000D02*
X102060000Y-98210000D01*
X102060000Y-98210000D02*
X103150000Y-97120000D01*
X70150000Y-101970000D02*
X70665000Y-101970000D01*
X101830000Y-98210000D02*
X101830000Y-98140000D01*
X93550000Y-99400000D02*
X95830000Y-99400000D01*
X95830000Y-99400000D02*
X95880000Y-99450000D01*
X95880000Y-99450000D02*
X95880000Y-100460000D01*
X93550000Y-99400000D02*
X94820000Y-99400000D01*
X94820000Y-99400000D02*
X95880000Y-100460000D01*
X73380000Y-80670000D02*
X73380000Y-81570000D01*
X74480000Y-80710000D02*
X74480000Y-81510000D01*
X74480000Y-80710000D02*
X72240000Y-80710000D01*
X72240000Y-80710000D02*
X71000000Y-81950000D01*
X73380000Y-80670000D02*
X72280000Y-80670000D01*
X72280000Y-80670000D02*
X71000000Y-81950000D01*
X72200000Y-87350000D02*
X73820000Y-87350000D01*
X73820000Y-87350000D02*
X73850000Y-87320000D01*
X70700000Y-86300000D02*
X73850000Y-86300000D01*
X72930000Y-94180000D02*
X69130000Y-90380000D01*
X72930000Y-95580000D02*
X72930000Y-94180000D01*
X73950000Y-95580000D02*
X76040000Y-95580000D01*
X76040000Y-95580000D02*
X76050000Y-95590000D01*
X66880000Y-89890000D02*
X70480000Y-93490000D01*
X72230000Y-96860000D02*
X76050000Y-96860000D01*
X70480000Y-93490000D02*
X70480000Y-95110000D01*
X70480000Y-95110000D02*
X72230000Y-96860000D01*
X61437660Y-91670000D02*
X61437660Y-90572340D01*
X61437660Y-90572340D02*
X62010000Y-90000000D01*
X62010000Y-90000000D02*
X62900000Y-90000000D01*
X59780000Y-91650000D02*
X60397660Y-91650000D01*
X60397660Y-91650000D02*
X60417660Y-91670000D01*
X59330000Y-90140000D02*
X60080000Y-90140000D01*
X60080000Y-90140000D02*
X60240000Y-89980000D01*
X87772000Y-63791500D02*
X87749999Y-63813501D01*
X87749999Y-63813501D02*
X87749999Y-65559998D01*
X87250000Y-65559998D02*
X87250000Y-61875980D01*
X104060000Y-61380000D02*
X106500000Y-63820000D01*
X87250000Y-61875980D02*
X87745980Y-61380000D01*
X87745980Y-61380000D02*
X104060000Y-61380000D01*
X86750001Y-65559998D02*
X86750001Y-61979999D01*
X87630000Y-61100000D02*
X104420000Y-61100000D01*
X86750001Y-61979999D02*
X87630000Y-61100000D01*
X104420000Y-61100000D02*
X107120000Y-63800000D01*
X82749998Y-72360000D02*
X82692000Y-72417998D01*
X82692000Y-72417998D02*
X82692000Y-73976499D01*
X87749999Y-72360000D02*
X87749999Y-73517999D01*
X87749999Y-73517999D02*
X88280000Y-74048000D01*
X87250000Y-72360000D02*
X87250000Y-74034000D01*
X87250000Y-74034000D02*
X87264000Y-74048000D01*
X86750001Y-72360000D02*
X86750001Y-73517999D01*
X86750001Y-73517999D02*
X86248000Y-74020000D01*
X84970000Y-62110000D02*
X84960000Y-62100000D01*
X84970000Y-62839999D02*
X84970000Y-62110000D01*
X84749999Y-64690001D02*
X84970000Y-64470000D01*
X84970000Y-64470000D02*
X84970000Y-63799999D01*
X83962000Y-64464999D02*
X83962000Y-63794998D01*
X83220000Y-64159999D02*
X83220000Y-65529998D01*
X83220000Y-65529998D02*
X83250000Y-65559998D01*
X82749998Y-65559998D02*
X82749998Y-63769997D01*
X82749998Y-63769997D02*
X82740000Y-63759999D01*
X82249999Y-65559998D02*
X81930000Y-65239999D01*
X81930000Y-65239999D02*
X81930000Y-63794998D01*
X82249999Y-65559998D02*
X80914000Y-64223999D01*
X80914000Y-64223999D02*
X80914000Y-63794998D01*
D52*
X52690000Y-97950000D02*
X53810000Y-97950000D01*
D51*
X70300000Y-88000000D02*
X69990000Y-88000000D01*
X69990000Y-88000000D02*
X69590000Y-88400000D01*
X70150000Y-94300000D02*
X70100000Y-94250000D01*
X70150000Y-101970000D02*
X70150000Y-94300000D01*
X95880000Y-100460000D02*
X95880000Y-101130000D01*
X95880000Y-99450000D02*
X95880000Y-98830000D01*
X115050000Y-96180000D02*
X115720000Y-96180000D01*
D52*
X68700000Y-81950000D02*
X68700000Y-78850000D01*
D51*
X115790000Y-82180000D02*
X115040000Y-82180000D01*
X115040000Y-82180000D02*
X115000000Y-82140000D01*
X81994999Y-73976499D02*
X81980000Y-73961500D01*
X82692000Y-73976499D02*
X81994999Y-73976499D01*
X65530000Y-76380000D02*
X66260000Y-75650000D01*
X66260000Y-75650000D02*
X68700000Y-75650000D01*
X65310000Y-76600000D02*
X65530000Y-76380000D01*
X64400000Y-76600000D02*
X65310000Y-76600000D01*
X64400000Y-81800000D02*
X63620000Y-81800000D01*
X64400000Y-82760000D02*
X65590000Y-82760000D01*
X65590000Y-82760000D02*
X66400000Y-81950000D01*
X64400000Y-79240000D02*
X65160000Y-79240000D01*
X85100000Y-76930000D02*
X85020000Y-76930000D01*
X91560000Y-83390000D02*
X85100000Y-76930000D01*
X93550000Y-91780000D02*
X93250000Y-91780000D01*
X93250000Y-91780000D02*
X91560000Y-90090000D01*
X91560000Y-90090000D02*
X91560000Y-83390000D01*
X92010000Y-84630000D02*
X92010000Y-83060000D01*
X93550000Y-90510000D02*
X93250000Y-90510000D01*
X92010000Y-83060000D02*
X84650000Y-75700000D01*
X93250000Y-90510000D02*
X92010000Y-89270000D01*
X92010000Y-89270000D02*
X92010000Y-84630000D01*
X85220000Y-65230000D02*
X85570000Y-64880000D01*
X85570000Y-64880000D02*
X86020000Y-64430000D01*
X85249999Y-65559998D02*
X85229998Y-65559998D01*
X85229998Y-65559998D02*
X85220000Y-65550000D01*
X85220000Y-65550000D02*
X85220000Y-65230000D01*
X86020000Y-64430000D02*
X86020000Y-63160000D01*
X92620000Y-75480000D02*
X93900000Y-74200000D01*
X92620000Y-86060000D02*
X92620000Y-75480000D01*
X93260000Y-86700000D02*
X92620000Y-86060000D01*
X93550000Y-86700000D02*
X93260000Y-86700000D01*
X108560000Y-73250000D02*
X108540000Y-73270000D01*
X110450000Y-73250000D02*
X108560000Y-73250000D01*
X105890000Y-70740000D02*
X106080000Y-70740000D01*
X93550000Y-96860000D02*
X93850000Y-96860000D01*
X100350000Y-90360000D02*
X100350000Y-84170000D01*
X93850000Y-96860000D02*
X100350000Y-90360000D01*
X106080000Y-70740000D02*
X106090000Y-70750000D01*
X106090000Y-70750000D02*
X110450000Y-70750000D01*
X93550000Y-87970000D02*
X95900000Y-87970000D01*
X95900000Y-87970000D02*
X99700000Y-84170000D01*
X105060000Y-71240000D02*
X105070000Y-71250000D01*
X105070000Y-71250000D02*
X110450000Y-71250000D01*
X93250000Y-95590000D02*
X90740000Y-93080000D01*
X90740000Y-93080000D02*
X90740000Y-93060000D01*
X93550000Y-95590000D02*
X93250000Y-95590000D01*
X82330000Y-67720000D02*
X81609999Y-67720000D01*
X81609999Y-67720000D02*
X81599998Y-67709999D01*
X64440000Y-85060000D02*
X64400000Y-85100000D01*
X64440000Y-84120000D02*
X64440000Y-85060000D01*
X63900000Y-84470000D02*
X63900000Y-85100000D01*
X63680000Y-84250000D02*
X63900000Y-84470000D01*
X59560000Y-67750000D02*
X59620000Y-67810000D01*
X59620000Y-67810000D02*
X69806397Y-67810000D01*
X69806397Y-67810000D02*
X69856397Y-67760000D01*
X76050000Y-91780000D02*
X76350000Y-91780000D01*
X76350000Y-91780000D02*
X79980000Y-88150000D01*
X79980000Y-88150000D02*
X79980000Y-86620000D01*
X75750000Y-90510000D02*
X76340000Y-90510000D01*
X76050000Y-90510000D02*
X75750000Y-90510000D01*
X68190000Y-66730000D02*
X68170000Y-66750000D01*
X76340000Y-90510000D02*
X79340000Y-87510000D01*
X79340000Y-87510000D02*
X79340000Y-86660000D01*
X68170000Y-66750000D02*
X59560000Y-66750000D01*
X76340000Y-89240000D02*
X78630000Y-86950000D01*
X78630000Y-86950000D02*
X78630000Y-86660000D01*
X76050000Y-89240000D02*
X76340000Y-89240000D01*
X64530000Y-66250000D02*
X59560000Y-66250000D01*
X66120000Y-67360000D02*
X66010000Y-67250000D01*
X66010000Y-67250000D02*
X59560000Y-67250000D01*
X77000000Y-87970000D02*
X77950000Y-87020000D01*
X76050000Y-87970000D02*
X77000000Y-87970000D01*
X77950000Y-87020000D02*
X77950000Y-86700000D01*
X76050000Y-86700000D02*
X77320000Y-86700000D01*
X61830000Y-64740000D02*
X61820000Y-64750000D01*
X61820000Y-64750000D02*
X59560000Y-64750000D01*
X108220000Y-72240000D02*
X108230000Y-72250000D01*
X108230000Y-72250000D02*
X110450000Y-72250000D01*
X107980000Y-72240000D02*
X108220000Y-72240000D01*
X107380000Y-71750000D02*
X110450000Y-71750000D01*
X83250000Y-85320000D02*
X87380000Y-89450000D01*
X83250000Y-72360000D02*
X83250000Y-85320000D01*
X89750000Y-89420000D02*
X89900000Y-89570000D01*
X89900000Y-89570000D02*
X89900000Y-89700000D01*
X89900000Y-89700000D02*
X93250000Y-93050000D01*
X93250000Y-93050000D02*
X93550000Y-93050000D01*
X83749999Y-72360000D02*
X83749999Y-84819999D01*
X83749999Y-84819999D02*
X93250000Y-94320000D01*
X93250000Y-94320000D02*
X93550000Y-94320000D01*
X59456374Y-90013626D02*
X59330000Y-90140000D01*
X77000000Y-115820000D02*
X75700000Y-114520000D01*
X75700000Y-114520000D02*
X75700000Y-102110000D01*
X75700000Y-102110000D02*
X76510000Y-101300000D01*
X76510000Y-101300000D02*
X76970000Y-101300000D01*
X76970000Y-101300000D02*
X76980000Y-101290000D01*
X76980000Y-101290000D02*
X76980000Y-94540000D01*
X76980000Y-94540000D02*
X76760000Y-94320000D01*
X76760000Y-94320000D02*
X76050000Y-94320000D01*
X93100000Y-115820000D02*
X94340000Y-114580000D01*
X94340000Y-114580000D02*
X94340000Y-102110000D01*
X94340000Y-102110000D02*
X94290000Y-102060000D01*
X94290000Y-102060000D02*
X92740000Y-102060000D01*
X92740000Y-102060000D02*
X89310000Y-98630000D01*
X82380000Y-85430000D02*
X76050000Y-85430000D01*
X88500000Y-91550000D02*
X82380000Y-85430000D01*
X100810000Y-98210000D02*
X100810000Y-97150000D01*
X100810000Y-97150000D02*
X100820000Y-97140000D01*
X99370000Y-98130000D02*
X93550000Y-98130000D01*
X78820000Y-93250000D02*
X83700000Y-98130000D01*
X72630000Y-86700000D02*
X72830000Y-86900000D01*
X77380000Y-93250000D02*
X78820000Y-93250000D01*
X72200000Y-86700000D02*
X72630000Y-86700000D01*
X83700000Y-98130000D02*
X93550000Y-98130000D01*
X70300000Y-88000000D02*
X69975001Y-88000000D01*
X69975001Y-88000000D02*
X69640000Y-87664999D01*
X70850000Y-85180000D02*
X71050000Y-85180000D01*
X72070000Y-84160000D02*
X76050000Y-84160000D01*
X69640000Y-87664999D02*
X69640000Y-85180000D01*
X71050000Y-85180000D02*
X72070000Y-84160000D01*
X64400000Y-87550000D02*
X63900000Y-87050000D01*
X63900000Y-87050000D02*
X61950000Y-87050000D01*
X61060000Y-87050000D02*
X61050000Y-87040000D01*
X61950000Y-87050000D02*
X61060000Y-87050000D01*
X61950000Y-88550000D02*
X61031286Y-88550000D01*
X61031286Y-88550000D02*
X60527660Y-89053626D01*
X71440000Y-87850000D02*
X72050000Y-87850000D01*
X64900000Y-84700001D02*
X65220001Y-84380000D01*
X65220001Y-84380000D02*
X69560000Y-84380000D01*
X64900000Y-85100000D02*
X64900000Y-84700001D01*
X72050000Y-87850000D02*
X72200000Y-88000000D01*
X70300000Y-86700000D02*
X70390000Y-86610000D01*
X63650000Y-83450000D02*
X62900000Y-84200000D01*
X62900000Y-84200000D02*
X62900000Y-85100000D01*
X70390000Y-86610000D02*
X70390000Y-84450000D01*
X69390000Y-83450000D02*
X63650000Y-83450000D01*
X70390000Y-84450000D02*
X69390000Y-83450000D01*
X93600000Y-99450000D02*
X93550000Y-99400000D01*
X97530000Y-99450000D02*
X97570000Y-99490000D01*
X96840000Y-99450000D02*
X97530000Y-99450000D01*
X97560000Y-100460000D02*
X97580000Y-100480000D01*
X96840000Y-100460000D02*
X97560000Y-100460000D01*
X93550000Y-100830000D02*
X94280000Y-101560000D01*
X93550000Y-100670000D02*
X93550000Y-100830000D01*
X113990000Y-90220000D02*
X113990000Y-87450000D01*
X112560000Y-91650000D02*
X113990000Y-90220000D01*
X112080000Y-91650000D02*
X112560000Y-91650000D01*
X113990000Y-87450000D02*
X113590000Y-87050000D01*
X113590000Y-87050000D02*
X112280000Y-87050000D01*
X112280000Y-87050000D02*
X112080000Y-86850000D01*
X112080000Y-87500000D02*
X113060000Y-87500000D01*
X115330000Y-85920000D02*
X115330000Y-85700000D01*
X115790000Y-85240000D02*
X115790000Y-83200000D01*
X115330000Y-85700000D02*
X115790000Y-85240000D01*
X115050000Y-95160000D02*
X115050000Y-91730000D01*
X112100000Y-90480000D02*
X112080000Y-90500000D01*
X115050000Y-91730000D02*
X115030000Y-91710000D01*
X113010000Y-90480000D02*
X112100000Y-90480000D01*
X112080000Y-86850000D02*
X111759152Y-86850000D01*
X111759152Y-86850000D02*
X110630000Y-85720848D01*
X110630000Y-84342500D02*
X111902500Y-83070000D01*
X110630000Y-85720848D02*
X110630000Y-84342500D01*
X108530000Y-84696652D02*
X108340848Y-84507500D01*
X94675001Y-85430000D02*
X93550000Y-85430000D01*
X99193200Y-83485000D02*
X97658200Y-85020000D01*
X108340848Y-84507500D02*
X108275000Y-84507500D01*
X97658200Y-85020000D02*
X95085001Y-85020000D01*
X109000000Y-87300000D02*
X109000000Y-86193749D01*
X107567632Y-83035000D02*
X99006800Y-83035000D01*
X95085001Y-85020000D02*
X94675001Y-85430000D01*
X109000000Y-86193749D02*
X108530000Y-85723749D01*
X99006800Y-83035000D02*
X97471800Y-84570000D01*
X94675001Y-84160000D02*
X93550000Y-84160000D01*
X108275000Y-83742368D02*
X107567632Y-83035000D01*
X107570000Y-84696652D02*
X107759152Y-84507500D01*
X97471800Y-84570000D02*
X95085001Y-84570000D01*
X107825000Y-83928768D02*
X107381232Y-83485000D01*
X108275000Y-84507500D02*
X108275000Y-83742368D01*
X95085001Y-84570000D02*
X94675001Y-84160000D01*
X107825000Y-84507500D02*
X107825000Y-83928768D01*
X107100000Y-87300000D02*
X107100000Y-86193749D01*
X107100000Y-86193749D02*
X107570000Y-85723749D01*
X107570000Y-85723749D02*
X107570000Y-84696652D01*
X108530000Y-85723749D02*
X108530000Y-84696652D01*
X107759152Y-84507500D02*
X107825000Y-84507500D01*
X107381232Y-83485000D02*
X99193200Y-83485000D01*
X108050000Y-87210000D02*
X108060000Y-87220000D01*
X108050000Y-85425000D02*
X108050000Y-87210000D01*
X112080000Y-91650000D02*
X111430001Y-91650000D01*
X111430001Y-91650000D02*
X109130000Y-93950001D01*
X109130000Y-93950001D02*
X109130000Y-94810000D01*
X107370000Y-92880000D02*
X108210000Y-92880000D01*
X106410000Y-92880000D02*
X105540000Y-92880000D01*
X105830000Y-94810000D02*
X104750000Y-94810000D01*
X101780000Y-97140000D02*
X101780000Y-96320000D01*
X104110000Y-97120000D02*
X104110000Y-97910000D01*
X101820000Y-99310000D02*
X102820000Y-99310000D01*
X100810000Y-99270000D02*
X100810000Y-99230000D01*
X100810000Y-99230000D02*
X101830000Y-98210000D01*
X100810000Y-99570000D02*
X100810000Y-100960000D01*
X100810000Y-100960000D02*
X101850000Y-102000000D01*
X109830000Y-102000000D02*
X116150000Y-102000000D01*
X101850000Y-102000000D02*
X108590000Y-102000000D01*
X108590000Y-102000000D02*
X108610000Y-101980000D01*
X114570000Y-106500000D02*
X114530000Y-106460000D01*
X116150000Y-106500000D02*
X114570000Y-106500000D01*
X109200000Y-115820000D02*
X109200000Y-116620000D01*
X109200000Y-113200000D02*
X109200000Y-114800000D01*
X109200000Y-111625000D02*
X109200000Y-94880000D01*
X109200000Y-94880000D02*
X109130000Y-94810000D01*
X101850000Y-108300000D02*
X101830000Y-108320000D01*
X101850000Y-106500000D02*
X101850000Y-108300000D01*
X93100000Y-113200000D02*
X93100000Y-114800000D01*
X93100000Y-110590000D02*
X93090000Y-110580000D01*
X93100000Y-111625000D02*
X93100000Y-110590000D01*
X77000000Y-111625000D02*
X77000000Y-110670000D01*
X77000000Y-114800000D02*
X77000000Y-113200000D01*
X60900000Y-114800000D02*
X60900000Y-113200000D01*
X60900000Y-116640000D02*
X60880000Y-116660000D01*
X60900000Y-115820000D02*
X60900000Y-116640000D01*
X61660000Y-102000000D02*
X68150000Y-102000000D01*
X53850000Y-102000000D02*
X59970000Y-102000000D01*
X59970000Y-102000000D02*
X59990000Y-102020000D01*
X61650000Y-101990000D02*
X61660000Y-102000000D01*
X60900000Y-111625000D02*
X60900000Y-97360000D01*
X60900000Y-97360000D02*
X59950000Y-96410000D01*
X70150000Y-101970000D02*
X68180000Y-101970000D01*
X68180000Y-101970000D02*
X68150000Y-102000000D01*
X68150000Y-106500000D02*
X66560000Y-106500000D01*
X53850000Y-106500000D02*
X55560000Y-106500000D01*
X55272500Y-80832500D02*
X55280000Y-80840000D01*
X54460000Y-80832500D02*
X55272500Y-80832500D01*
X58700000Y-83200000D02*
X58720000Y-83220000D01*
X57920000Y-83200000D02*
X58700000Y-83200000D01*
X57920000Y-91000000D02*
X56965406Y-91000000D01*
X56965406Y-91000000D02*
X55860000Y-92105406D01*
X55860000Y-92105406D02*
X55860000Y-94120000D01*
X55860000Y-94120000D02*
X57190000Y-95450000D01*
X57920000Y-88000000D02*
X57240000Y-88000000D01*
X57240000Y-88000000D02*
X55970000Y-86730000D01*
X55970000Y-86730000D02*
X55970000Y-83850000D01*
X55970000Y-83850000D02*
X56620000Y-83200000D01*
X56620000Y-83200000D02*
X56900000Y-83200000D01*
X59950000Y-96410000D02*
X58880000Y-97480000D01*
X58880000Y-97480000D02*
X55045000Y-97480000D01*
X55045000Y-97480000D02*
X53640000Y-96075000D01*
X51740000Y-96075000D02*
X53640000Y-96075000D01*
X57190000Y-96470000D02*
X57910000Y-96470000D01*
X57920000Y-86850000D02*
X59170000Y-86850000D01*
X59170000Y-86850000D02*
X59180000Y-86840000D01*
X55410000Y-82707500D02*
X55410000Y-83830000D01*
X55410000Y-83830000D02*
G75*
G03*
X55500000Y-83920000I90000J0D01*
G01*
X55630000Y-84050000D02*
G75*
G03*
X55500000Y-83920000I-130000J0D01*
G01*
X55630000Y-87710000D02*
X55630000Y-84050000D01*
X55080000Y-88080000D02*
X55080000Y-84610000D01*
X56200000Y-88970000D02*
X55970000Y-88970000D01*
X55970000Y-88970000D02*
G75*
G02*
X55080000Y-88080000I0J890000D01*
G01*
X55080000Y-84610000D02*
G75*
G03*
X54460000Y-83990000I-620000J0D01*
G01*
X54460000Y-83990000D02*
G75*
G02*
X53510000Y-83040000I0J950000D01*
G01*
X53510000Y-83040000D02*
X53510000Y-82707500D01*
X108450000Y-89550000D02*
G75*
G02*
X107100000Y-88200000I0J1350000D01*
G01*
X110890000Y-89550000D02*
X108450000Y-89550000D01*
X107100000Y-88200000D02*
X107100000Y-87300000D01*
X112080000Y-89000000D02*
X111440000Y-89000000D01*
X111440000Y-89000000D02*
G75*
G03*
X110890000Y-89550000I0J-550000D01*
G01*
X111340000Y-90000000D02*
G75*
G02*
X110890000Y-89550000I0J450000D01*
G01*
X112080000Y-90000000D02*
X111340000Y-90000000D01*
X112610000Y-88500000D02*
G75*
G02*
X113110000Y-89000000I0J-500000D01*
G01*
X113110000Y-89000000D02*
G75*
G02*
X112610000Y-89500000I-500000J0D01*
G01*
X112080000Y-88500000D02*
X112610000Y-88500000D01*
X112610000Y-89500000D02*
X112080000Y-89500000D01*
X109000000Y-87300000D02*
X109000000Y-87830000D01*
X109000000Y-87830000D02*
G75*
G03*
X109670000Y-88500000I670000J0D01*
G01*
X112080000Y-88500000D02*
X109670000Y-88500000D01*
X112080000Y-92450000D02*
X112080000Y-92930000D01*
X112080000Y-92930000D02*
X112720000Y-93570000D01*
X112080000Y-86050000D02*
X112080000Y-85570000D01*
X112080000Y-85570000D02*
X112720000Y-84930000D01*
X111902500Y-81170000D02*
X111902500Y-83070000D01*
X114980000Y-82120000D02*
X115000000Y-82140000D01*
X113777500Y-82120000D02*
X114980000Y-82120000D01*
X112230000Y-65250000D02*
X112240000Y-65260000D01*
X110450000Y-65250000D02*
X112230000Y-65250000D01*
X112230000Y-66750000D02*
X112240000Y-66740000D01*
X110450000Y-66750000D02*
X112230000Y-66750000D01*
X110450000Y-68250000D02*
X112240000Y-68250000D01*
X112229999Y-69749999D02*
X112240000Y-69760000D01*
X110450000Y-69749999D02*
X112229999Y-69749999D01*
X112210000Y-72750000D02*
X112220000Y-72740000D01*
X110450000Y-72750000D02*
X112210000Y-72750000D01*
X95700000Y-73750000D02*
X110450000Y-73750000D01*
X88400000Y-67709999D02*
X89590001Y-67709999D01*
X89590001Y-67709999D02*
X89600000Y-67700000D01*
X95680000Y-73770000D02*
X95700000Y-73750000D01*
X108193799Y-69975000D02*
X101193200Y-69975000D01*
X101006800Y-69525000D02*
X99296800Y-71235000D01*
X110450000Y-69250000D02*
X108468799Y-69250000D01*
X108468799Y-69250000D02*
X108193799Y-69525000D01*
X99296800Y-71235000D02*
X88874999Y-71235000D01*
X88874999Y-71235000D02*
X88849999Y-71210000D01*
X110450000Y-70250000D02*
X108468799Y-70250000D01*
X108193799Y-69525000D02*
X101006800Y-69525000D01*
X101193200Y-69975000D02*
X99483201Y-71684999D01*
X88849999Y-71210000D02*
X88400000Y-71210000D01*
X108468799Y-70250000D02*
X108193799Y-69975000D01*
X99483201Y-71684999D02*
X88874999Y-71684999D01*
X88874999Y-71684999D02*
X88849999Y-71709999D01*
X88849999Y-71709999D02*
X88400000Y-71709999D01*
X110450000Y-67750000D02*
X108468799Y-67750000D01*
X108468799Y-68750000D02*
X108193799Y-68475000D01*
X98256800Y-69735000D02*
X88874999Y-69735000D01*
X98443201Y-70184999D02*
X88874999Y-70184999D01*
X88849999Y-70209999D02*
X88400000Y-70209999D01*
X88849999Y-69710000D02*
X88400000Y-69710000D01*
X108468799Y-67750000D02*
X108193799Y-68025000D01*
X108193799Y-68025000D02*
X99966800Y-68025000D01*
X99966800Y-68025000D02*
X98256800Y-69735000D01*
X88874999Y-69735000D02*
X88849999Y-69710000D01*
X108193799Y-68475000D02*
X100153200Y-68475000D01*
X110450000Y-68750000D02*
X108468799Y-68750000D01*
X100153200Y-68475000D02*
X98443201Y-70184999D01*
X88874999Y-70184999D02*
X88849999Y-70209999D01*
X88849999Y-68210001D02*
X88400000Y-68210001D01*
X110450000Y-66250000D02*
X108468799Y-66250000D01*
X88874998Y-68685000D02*
X88849999Y-68709999D01*
X88849999Y-68709999D02*
X88400000Y-68709999D01*
X108468799Y-66250000D02*
X108193799Y-66525000D01*
X108193799Y-66525000D02*
X99016800Y-66525000D01*
X88874998Y-68235000D02*
X88849999Y-68210001D01*
X108193799Y-66975000D02*
X99203200Y-66975000D01*
X110450000Y-67250000D02*
X108468799Y-67250000D01*
X97306800Y-68235000D02*
X88874998Y-68235000D01*
X108468799Y-67250000D02*
X108193799Y-66975000D01*
X99203200Y-66975000D02*
X97493200Y-68685000D01*
X99016800Y-66525000D02*
X97306800Y-68235000D01*
X97493200Y-68685000D02*
X88874998Y-68685000D01*
X110450000Y-64750000D02*
X108468799Y-64750000D01*
X108468799Y-64750000D02*
X108193799Y-65025000D01*
X88849999Y-66709998D02*
X88400000Y-66709998D01*
X108193799Y-65025000D02*
X97826800Y-65025000D01*
X97826800Y-65025000D02*
X96116801Y-66734999D01*
X96303201Y-67184999D02*
X88875000Y-67184999D01*
X98013200Y-65475000D02*
X96303201Y-67184999D01*
X88849999Y-67210000D02*
X88400000Y-67210000D01*
X88875000Y-66734999D02*
X88849999Y-66709998D01*
X110450000Y-65750000D02*
X108468799Y-65750000D01*
X108193799Y-65475000D02*
X98013200Y-65475000D01*
X108468799Y-65750000D02*
X108193799Y-65475000D01*
X96116801Y-66734999D02*
X88875000Y-66734999D01*
X88875000Y-67184999D02*
X88849999Y-67210000D01*
X61816201Y-73475000D02*
X74713200Y-73475000D01*
X76503201Y-71684999D02*
X81124999Y-71684999D01*
X59560000Y-73750000D02*
X61541201Y-73750000D01*
X61541201Y-73750000D02*
X61816201Y-73475000D01*
X59560000Y-72750000D02*
X61541201Y-72750000D01*
X74713200Y-73475000D02*
X76503201Y-71684999D01*
X74526800Y-73025000D02*
X76316800Y-71235000D01*
X81124999Y-71684999D02*
X81149999Y-71709999D01*
X61541201Y-72750000D02*
X61816201Y-73025000D01*
X61816201Y-73025000D02*
X74526800Y-73025000D01*
X81149999Y-71709999D02*
X81599998Y-71709999D01*
X76316800Y-71235000D02*
X81124999Y-71235000D01*
X81124999Y-71235000D02*
X81149999Y-71210000D01*
X81149999Y-71210000D02*
X81599998Y-71210000D01*
X59560000Y-72250000D02*
X61541201Y-72250000D01*
X61816201Y-71975000D02*
X73913200Y-71975000D01*
X61541201Y-72250000D02*
X61816201Y-71975000D01*
X59560000Y-71250000D02*
X61541201Y-71250000D01*
X73913200Y-71975000D02*
X75703201Y-70184999D01*
X75703201Y-70184999D02*
X81124999Y-70184999D01*
X81149999Y-70209999D02*
X81599998Y-70209999D01*
X61816201Y-71525000D02*
X73726800Y-71525000D01*
X81124999Y-70184999D02*
X81149999Y-70209999D01*
X81124999Y-69735000D02*
X81149999Y-69710000D01*
X61541201Y-71250000D02*
X61816201Y-71525000D01*
X73726800Y-71525000D02*
X75516800Y-69735000D01*
X75516800Y-69735000D02*
X81124999Y-69735000D01*
X81149999Y-69710000D02*
X81599998Y-69710000D01*
X61541201Y-70750000D02*
X61816201Y-70475000D01*
X61541201Y-69750000D02*
X61816201Y-70025000D01*
X74723200Y-68685000D02*
X81125000Y-68685000D01*
X72933200Y-70475000D02*
X74723200Y-68685000D01*
X59560000Y-70750000D02*
X61541201Y-70750000D01*
X74536800Y-68235000D02*
X81125000Y-68235000D01*
X81125000Y-68685000D02*
X81149999Y-68709999D01*
X81149999Y-68709999D02*
X81599998Y-68709999D01*
X61816201Y-70025000D02*
X72746800Y-70025000D01*
X72746800Y-70025000D02*
X74536800Y-68235000D01*
X61816201Y-70475000D02*
X72933200Y-70475000D01*
X59560000Y-69750000D02*
X61541201Y-69750000D01*
X81125000Y-68235000D02*
X81149999Y-68210001D01*
X81149999Y-68210001D02*
X81599998Y-68210001D01*
X74643201Y-67184999D02*
X81124998Y-67184999D01*
X72666800Y-68525000D02*
X74456801Y-66734999D01*
X81149999Y-66709998D02*
X81599998Y-66709998D01*
X81124998Y-67184999D02*
X81149999Y-67210000D01*
X61541201Y-69250000D02*
X61816201Y-68975000D01*
X59560000Y-69250000D02*
X61541201Y-69250000D01*
X72853200Y-68975000D02*
X74643201Y-67184999D01*
X74456801Y-66734999D02*
X81124998Y-66734999D01*
X61816201Y-68975000D02*
X72853200Y-68975000D01*
X61816201Y-68525000D02*
X72666800Y-68525000D01*
X59560000Y-68250000D02*
X61541201Y-68250000D01*
X81149999Y-67210000D02*
X81599998Y-67210000D01*
X61541201Y-68250000D02*
X61816201Y-68525000D01*
X81124998Y-66734999D02*
X81149999Y-66709998D01*
X70300000Y-86700000D02*
X70700000Y-86300000D01*
X71800000Y-89400000D02*
X71800000Y-88400000D01*
X71800000Y-88400000D02*
X72200000Y-88000000D01*
X70780000Y-89400000D02*
X70805000Y-89375000D01*
X70640000Y-87350000D02*
X70300000Y-87350000D01*
X70805000Y-89375000D02*
X70805000Y-87515000D01*
X70805000Y-87515000D02*
X70640000Y-87350000D01*
X76050000Y-100670000D02*
X74630000Y-100670000D01*
X71625000Y-101970000D02*
X72375000Y-101970000D01*
X65770000Y-97140000D02*
X65750000Y-97160000D01*
X65770000Y-96400000D02*
X65770000Y-97140000D01*
X63250000Y-97370000D02*
X63260000Y-97380000D01*
X63250000Y-96410000D02*
X63250000Y-97370000D01*
X64810000Y-96400000D02*
X64810000Y-97100000D01*
X63460000Y-96410000D02*
X64800000Y-96410000D01*
X64800000Y-96410000D02*
X64810000Y-96400000D01*
X59950000Y-93710000D02*
X59780000Y-93540000D01*
X59950000Y-96410000D02*
X59950000Y-93710000D01*
X59780000Y-93540000D02*
X59780000Y-91650000D01*
X56670000Y-88500000D02*
G75*
G03*
X56200000Y-88970000I0J-470000D01*
G01*
X56200000Y-88970000D02*
G75*
G03*
X56730000Y-89500000I530000J0D01*
G01*
X57920000Y-88500000D02*
X56670000Y-88500000D01*
X56730000Y-89500000D02*
X57920000Y-89500000D01*
X57820000Y-89000000D02*
X56830000Y-89000000D01*
X56830000Y-89000000D02*
G75*
G02*
X56810000Y-88980000I0J20000D01*
G01*
X57920000Y-89000000D02*
X57820000Y-89000000D01*
X56820000Y-90000000D02*
G75*
G03*
X56810000Y-90010000I0J-10000D01*
G01*
X56860000Y-90000000D02*
X56820000Y-90000000D01*
X57920000Y-90000000D02*
X56860000Y-90000000D01*
X58700000Y-89500000D02*
G75*
G03*
X59540000Y-88660000I0J840000D01*
G01*
X59540000Y-88660000D02*
G75*
G02*
X60150000Y-88050000I610000J0D01*
G01*
X57920000Y-89500000D02*
X58700000Y-89500000D01*
X60150000Y-88050000D02*
X61950000Y-88050000D01*
X58350000Y-89000000D02*
G75*
G03*
X59130000Y-88220000I0J780000D01*
G01*
X57920000Y-89000000D02*
X58350000Y-89000000D01*
X59130000Y-88220000D02*
G75*
G02*
X59800000Y-87550000I670000J0D01*
G01*
X59800000Y-87550000D02*
X61950000Y-87550000D01*
X61427660Y-92770000D02*
X61427660Y-91680000D01*
X61427660Y-91680000D02*
X61437660Y-91670000D01*
X62467660Y-92770000D02*
X61427660Y-92770000D01*
X64407660Y-91670000D02*
X64407660Y-90364034D01*
X64407660Y-90007660D02*
X64400000Y-90000000D01*
X65427660Y-91670000D02*
X65427660Y-92098714D01*
X65427660Y-92098714D02*
X64770000Y-92756374D01*
X64770000Y-92756374D02*
X64150000Y-92756374D01*
X64136374Y-92770000D02*
X64150000Y-92756374D01*
X63427660Y-92770000D02*
X64136374Y-92770000D01*
X62407660Y-91670000D02*
X62407660Y-91018714D01*
X63427660Y-91670000D02*
X63427660Y-90384034D01*
X63427660Y-90027660D02*
X63400000Y-90000000D01*
X60527660Y-89053626D02*
X61946374Y-89053626D01*
X61946374Y-89053626D02*
X61950000Y-89050000D01*
X57920000Y-86050000D02*
X57920000Y-85570000D01*
X57920000Y-85570000D02*
X57280000Y-84930000D01*
X57920000Y-92450000D02*
X57920000Y-92930000D01*
X57920000Y-92930000D02*
X57280000Y-93570000D01*
X60407660Y-93484034D02*
X60410000Y-93486374D01*
X60407660Y-92770000D02*
X60407660Y-93484034D01*
X57920000Y-91650000D02*
X59780000Y-91650000D01*
X86305000Y-93700000D02*
X85055000Y-93700000D01*
X87555000Y-93700000D02*
X86305000Y-93700000D01*
X87555000Y-94950000D02*
X87555000Y-93700000D01*
X87555000Y-96200000D02*
X87555000Y-94950000D01*
X86305000Y-96200000D02*
X87555000Y-96200000D01*
X85055000Y-96200000D02*
X86305000Y-96200000D01*
X85055000Y-94950000D02*
X85055000Y-96200000D01*
X85055000Y-93700000D02*
X85055000Y-94950000D01*
X86305000Y-94950000D02*
X85055000Y-93700000D01*
X86305000Y-94950000D02*
X87555000Y-93700000D01*
X86305000Y-94950000D02*
X87555000Y-96200000D01*
X86305000Y-94950000D02*
X85055000Y-96200000D01*
X86305000Y-94950000D02*
X86305000Y-96200000D01*
X86305000Y-94950000D02*
X85055000Y-94950000D01*
X86305000Y-94950000D02*
X86305000Y-93700000D01*
X86305000Y-94950000D02*
X87555000Y-94950000D01*
X88340000Y-94950000D02*
X88350000Y-94940000D01*
X87555000Y-94950000D02*
X88340000Y-94950000D01*
X87555000Y-96975000D02*
X87550000Y-96980000D01*
X87555000Y-96200000D02*
X87555000Y-96975000D01*
X86305000Y-96965000D02*
X86290000Y-96980000D01*
X86305000Y-96200000D02*
X86305000Y-96965000D01*
X85055000Y-96985000D02*
X85040000Y-97000000D01*
X85055000Y-96200000D02*
X85055000Y-96985000D01*
X84260000Y-94950000D02*
X84250000Y-94940000D01*
X85055000Y-94950000D02*
X84260000Y-94950000D01*
X87555000Y-92935000D02*
X87560000Y-92930000D01*
X87555000Y-93700000D02*
X87555000Y-92935000D01*
X86305000Y-92935000D02*
X86310000Y-92930000D01*
X86305000Y-93700000D02*
X86305000Y-92935000D01*
X85055000Y-92935000D02*
X85050000Y-92930000D01*
X85055000Y-93700000D02*
X85055000Y-92935000D01*
X71000000Y-83410000D02*
X71010000Y-83420000D01*
X71000000Y-81950000D02*
X71000000Y-83410000D01*
X63570000Y-77560000D02*
X63560000Y-77570000D01*
X64400000Y-77560000D02*
X63570000Y-77560000D01*
X64400000Y-80200000D02*
X63560000Y-80200000D01*
X78393001Y-72846999D02*
X78390000Y-72850000D01*
X79192000Y-72846999D02*
X78393001Y-72846999D01*
X82692000Y-75683500D02*
X82700000Y-75691500D01*
X82692000Y-74936499D02*
X82692000Y-75683500D01*
X86248000Y-75733001D02*
X86250000Y-75735001D01*
X86248000Y-75040000D02*
X86248000Y-75733001D01*
X87264000Y-75729001D02*
X87270000Y-75735001D01*
X87264000Y-75008000D02*
X87264000Y-75729001D01*
X88280000Y-75735001D02*
G75*
G02*
X88270000Y-75745000I-10000J1D01*
G01*
X88280000Y-75008000D02*
X88280000Y-75735001D01*
X82249999Y-70969999D02*
G75*
G03*
X81990000Y-70710001I-259999J-1D01*
G01*
X81599999Y-70710000D02*
X81599998Y-70710001D01*
X82249999Y-72360000D02*
X82249999Y-70969999D01*
X81990000Y-70710000D02*
X81599999Y-70710000D01*
X80152000Y-73602000D02*
X80160000Y-73610000D01*
X80152000Y-72846999D02*
X80152000Y-73602000D01*
X80152000Y-72846999D02*
X81763000Y-72846999D01*
X81763000Y-72846999D02*
X82249999Y-72360000D01*
X89122999Y-74048000D02*
X89140000Y-74065001D01*
X88280000Y-74048000D02*
X89122999Y-74048000D01*
X87264000Y-74048000D02*
X88280000Y-74048000D01*
X87264000Y-72374000D02*
X87250000Y-72360000D01*
X80064999Y-63794998D02*
X80060000Y-63789999D01*
X80914000Y-63794998D02*
X80064999Y-63794998D01*
X81930000Y-62834998D02*
X81930000Y-62049999D01*
X80914000Y-62043999D02*
X80900000Y-62029999D01*
X80914000Y-62834998D02*
X80914000Y-62043999D01*
X86020000Y-62200000D02*
X86020000Y-61460000D01*
X83962000Y-62081999D02*
X83960000Y-62079999D01*
X83962000Y-62834998D02*
X83962000Y-62081999D01*
X83749999Y-65559998D02*
X83749999Y-67709999D01*
X83749999Y-67709999D02*
X84999999Y-68959999D01*
X85750000Y-65559998D02*
X85750000Y-68209998D01*
X85750000Y-68209998D02*
X84999999Y-68959999D01*
X85249999Y-71360000D02*
X85249999Y-69209999D01*
X85249999Y-72360000D02*
X85249999Y-71360000D01*
X85249999Y-69209999D02*
X84999999Y-68959999D01*
X88400000Y-69209999D02*
X87679999Y-69209999D01*
X87679999Y-69209999D02*
X87440000Y-68970000D01*
X81599998Y-69209999D02*
X82290001Y-69209999D01*
X82290001Y-69209999D02*
X82540000Y-68960000D01*
X82540001Y-68959999D02*
X82540000Y-68960000D01*
X84999999Y-68959999D02*
X82540001Y-68959999D01*
X87429999Y-68959999D02*
X87440000Y-68970000D01*
X84999999Y-68959999D02*
X87429999Y-68959999D01*
X84749999Y-66239999D02*
X84750000Y-66240000D01*
X84749999Y-65559998D02*
X84749999Y-66239999D01*
X83962000Y-64464999D02*
X84749999Y-65252998D01*
X84749999Y-65252998D02*
X84749999Y-65559998D01*
X84749999Y-64690001D02*
X84749999Y-65559998D01*
X87772000Y-62104501D02*
X87780000Y-62096501D01*
X87772000Y-62831500D02*
X87772000Y-62104501D01*
X88788000Y-62114501D02*
X88780000Y-62106501D01*
X88788000Y-62831500D02*
X88788000Y-62114501D01*
X89484999Y-63791500D02*
X89490000Y-63796501D01*
X88788000Y-63791500D02*
X89484999Y-63791500D01*
X87772000Y-63791500D02*
X88788000Y-63791500D01*
X88860000Y-58300000D02*
X88860000Y-57560000D01*
X88880000Y-59400000D02*
X88880000Y-60220000D01*
X92270000Y-59400000D02*
X92280000Y-59390000D01*
X90800000Y-59400000D02*
X92270000Y-59400000D01*
X88880000Y-59400000D02*
X90800000Y-59400000D01*
X88860000Y-58300000D02*
X89700000Y-58300000D01*
X89700000Y-58300000D02*
X90800000Y-59400000D01*
X87920000Y-60200000D02*
X87930000Y-60210000D01*
X87920000Y-59400000D02*
X87920000Y-60200000D01*
X87900000Y-58300000D02*
X87900000Y-59380000D01*
X87900000Y-59380000D02*
X87920000Y-59400000D01*
X87900000Y-58300000D02*
X87900000Y-57560000D01*
X88900000Y-56490000D02*
X88920000Y-56510000D01*
X88900000Y-55800000D02*
X88900000Y-56490000D01*
X87800000Y-55800000D02*
X86960000Y-55800000D01*
X88900000Y-55800000D02*
X87800000Y-55800000D01*
X88900000Y-55800000D02*
X89500000Y-55800000D01*
X89500000Y-55800000D02*
X90800000Y-57100000D01*
D52*
X90800000Y-57100000D02*
X97100000Y-57100000D01*
D51*
X92280000Y-54800000D02*
X92290000Y-54790000D01*
X90800000Y-54800000D02*
X92280000Y-54800000D01*
X88900000Y-53960000D02*
X88910000Y-53950000D01*
X88900000Y-54840000D02*
X88900000Y-53960000D01*
X86940000Y-54840000D02*
X86930000Y-54850000D01*
X87800000Y-54840000D02*
X86940000Y-54840000D01*
X90800000Y-54800000D02*
X88940000Y-54800000D01*
X88940000Y-54800000D02*
X88900000Y-54840000D01*
X88900000Y-54840000D02*
X87800000Y-54840000D01*
X56740000Y-65250000D02*
X56730000Y-65240000D01*
X59560000Y-65250000D02*
X56740000Y-65250000D01*
X59560000Y-73250000D02*
X57920000Y-73250000D01*
X57930000Y-71750000D02*
X57920000Y-71760000D01*
X59560000Y-71750000D02*
X57930000Y-71750000D01*
X59560000Y-70250000D02*
X57900000Y-70250000D01*
X57900001Y-68750001D02*
X57890000Y-68740000D01*
X59560000Y-68750001D02*
X57900001Y-68750001D01*
X57920000Y-65750000D02*
X57910000Y-65740000D01*
X59560000Y-65750000D02*
X57920000Y-65750000D01*
G04 #@! TA.AperFunction,Conductor*
G36*
X102962929Y-51889744D02*
G01*
X103008740Y-51942500D01*
X103020000Y-51994131D01*
X103020000Y-60375500D01*
X103000315Y-60442539D01*
X102947511Y-60488294D01*
X102896000Y-60499500D01*
X93743205Y-60499500D01*
X93676166Y-60479815D01*
X93630411Y-60427011D01*
X93619205Y-60375634D01*
X93617236Y-58558000D01*
X95600000Y-58558000D01*
X95610608Y-58677325D01*
X95610609Y-58677328D01*
X95666557Y-58872861D01*
X95760721Y-59053129D01*
X95889246Y-59210753D01*
X96046870Y-59339278D01*
X96227138Y-59433442D01*
X96422671Y-59489390D01*
X96422674Y-59489391D01*
X96541999Y-59499999D01*
X96542002Y-59500000D01*
X96850000Y-59500000D01*
X97350000Y-59500000D01*
X97657998Y-59500000D01*
X97658000Y-59499999D01*
X97777325Y-59489391D01*
X97777328Y-59489390D01*
X97972861Y-59433442D01*
X98153129Y-59339278D01*
X98310753Y-59210753D01*
X98439278Y-59053129D01*
X98533442Y-58872861D01*
X98589390Y-58677328D01*
X98589391Y-58677325D01*
X98599999Y-58558000D01*
X98600000Y-58557998D01*
X98600000Y-57350000D01*
X97350000Y-57350000D01*
X97350000Y-59500000D01*
X96850000Y-59500000D01*
X96850000Y-57350000D01*
X95600000Y-57350000D01*
X95600000Y-58558000D01*
X93617236Y-58558000D01*
X93614076Y-55641999D01*
X95600000Y-55641999D01*
X95600000Y-56850000D01*
X96850000Y-56850000D01*
X97350000Y-56850000D01*
X98600000Y-56850000D01*
X98600000Y-55642002D01*
X98599999Y-55641999D01*
X98589391Y-55522674D01*
X98589390Y-55522671D01*
X98533442Y-55327138D01*
X98439278Y-55146870D01*
X98310753Y-54989246D01*
X98153129Y-54860721D01*
X97972861Y-54766557D01*
X97777328Y-54710609D01*
X97777325Y-54710608D01*
X97658000Y-54700000D01*
X97350000Y-54700000D01*
X97350000Y-56850000D01*
X96850000Y-56850000D01*
X96850000Y-54700000D01*
X96541999Y-54700000D01*
X96422674Y-54710608D01*
X96422671Y-54710609D01*
X96227138Y-54766557D01*
X96046870Y-54860721D01*
X95889246Y-54989246D01*
X95760721Y-55146870D01*
X95666557Y-55327138D01*
X95610609Y-55522671D01*
X95610608Y-55522674D01*
X95600000Y-55641999D01*
X93614076Y-55641999D01*
X93610134Y-52004002D01*
X93629746Y-51936942D01*
X93682500Y-51891130D01*
X93734000Y-51879868D01*
X102895871Y-51870131D01*
X102962929Y-51889744D01*
G37*
G04 #@! TD.AperFunction*
G04 #@! TA.AperFunction,Conductor*
G36*
X79452895Y-74409764D02*
G01*
X79498723Y-74462504D01*
X79510000Y-74514172D01*
X79510000Y-81006336D01*
X79490315Y-81073375D01*
X79437511Y-81119130D01*
X79386338Y-81130336D01*
X75397872Y-81141203D01*
X75330779Y-81121701D01*
X75284880Y-81069022D01*
X75274749Y-80999890D01*
X75278458Y-80982607D01*
X75279900Y-80977643D01*
X75287643Y-80950993D01*
X75290500Y-80914690D01*
X75290500Y-80505310D01*
X75287643Y-80469007D01*
X75282818Y-80452400D01*
X75242495Y-80313609D01*
X75242494Y-80313605D01*
X75230089Y-80292630D01*
X75212906Y-80224909D01*
X75230091Y-80166384D01*
X75242032Y-80146194D01*
X75284504Y-80000000D01*
X74978352Y-80000000D01*
X74915233Y-79982732D01*
X74906395Y-79977506D01*
X74906393Y-79977505D01*
X74906389Y-79977503D01*
X74750997Y-79932357D01*
X74750991Y-79932356D01*
X74714697Y-79929500D01*
X74714690Y-79929500D01*
X74245310Y-79929500D01*
X74245302Y-79929500D01*
X74209008Y-79932356D01*
X74209002Y-79932357D01*
X74053608Y-79977504D01*
X74053600Y-79977507D01*
X74044767Y-79982732D01*
X73981646Y-80000000D01*
X73945989Y-80000000D01*
X73882868Y-79982732D01*
X73842743Y-79959002D01*
X73806395Y-79937506D01*
X73806394Y-79937505D01*
X73806393Y-79937505D01*
X73806390Y-79937504D01*
X73650997Y-79892357D01*
X73650991Y-79892356D01*
X73614697Y-79889500D01*
X73614690Y-79889500D01*
X73145310Y-79889500D01*
X73145302Y-79889500D01*
X73109008Y-79892356D01*
X73109002Y-79892357D01*
X72953610Y-79937503D01*
X72953605Y-79937506D01*
X72944766Y-79942732D01*
X72881648Y-79960000D01*
X72575495Y-79960000D01*
X72561037Y-79979255D01*
X72561033Y-79980774D01*
X72523091Y-80039444D01*
X72459453Y-80068288D01*
X72442156Y-80069500D01*
X72200940Y-80069500D01*
X72160019Y-80080464D01*
X72160019Y-80080465D01*
X72122751Y-80090451D01*
X72048214Y-80110423D01*
X72048209Y-80110426D01*
X71911290Y-80189475D01*
X71911282Y-80189481D01*
X71737083Y-80363681D01*
X71675760Y-80397166D01*
X71649402Y-80400000D01*
X65334500Y-80400000D01*
X65267461Y-80380315D01*
X65221706Y-80327511D01*
X65210500Y-80276000D01*
X65210500Y-79995317D01*
X65210499Y-79995302D01*
X65209098Y-79977504D01*
X65207643Y-79959007D01*
X65201396Y-79937506D01*
X65162495Y-79803609D01*
X65162494Y-79803606D01*
X65162494Y-79803605D01*
X65120189Y-79732071D01*
X65107268Y-79710222D01*
X65090000Y-79647101D01*
X65090000Y-79500000D01*
X74730000Y-79500000D01*
X75284504Y-79500000D01*
X75242031Y-79353804D01*
X75159721Y-79214625D01*
X75159714Y-79214616D01*
X75045383Y-79100285D01*
X75045374Y-79100278D01*
X74906195Y-79017968D01*
X74906190Y-79017966D01*
X74750918Y-78972855D01*
X74750912Y-78972854D01*
X74730000Y-78971209D01*
X74730000Y-79500000D01*
X65090000Y-79500000D01*
X65090000Y-79460000D01*
X72575496Y-79460000D01*
X73130000Y-79460000D01*
X73630000Y-79460000D01*
X74230000Y-79460000D01*
X74230000Y-78971210D01*
X74229999Y-78971209D01*
X74209087Y-78972854D01*
X74209081Y-78972855D01*
X74053809Y-79017966D01*
X74053802Y-79017969D01*
X74026937Y-79033857D01*
X73959213Y-79051038D01*
X73900697Y-79033856D01*
X73806196Y-78977968D01*
X73806190Y-78977966D01*
X73650918Y-78932855D01*
X73650912Y-78932854D01*
X73630000Y-78931209D01*
X73630000Y-79460000D01*
X73130000Y-79460000D01*
X73130000Y-78931210D01*
X73129999Y-78931209D01*
X73109087Y-78932854D01*
X73109081Y-78932855D01*
X72953809Y-78977966D01*
X72953804Y-78977968D01*
X72814625Y-79060278D01*
X72814616Y-79060285D01*
X72700285Y-79174616D01*
X72700278Y-79174625D01*
X72617968Y-79313804D01*
X72575496Y-79460000D01*
X65090000Y-79460000D01*
X65090000Y-78112897D01*
X65107267Y-78049778D01*
X65162494Y-77956395D01*
X65207643Y-77800993D01*
X65210500Y-77764690D01*
X65210500Y-77355310D01*
X65207643Y-77319007D01*
X65192086Y-77265459D01*
X65162496Y-77163610D01*
X65162494Y-77163608D01*
X65162494Y-77163605D01*
X65150088Y-77142627D01*
X65132906Y-77074907D01*
X65150091Y-77016384D01*
X65162032Y-76996194D01*
X65204504Y-76850000D01*
X65090000Y-76850000D01*
X65090000Y-76600000D01*
X64150000Y-76600000D01*
X64150000Y-76350000D01*
X64650000Y-76350000D01*
X65204504Y-76350000D01*
X65163250Y-76208000D01*
X66300000Y-76208000D01*
X66310608Y-76327325D01*
X66310609Y-76327328D01*
X66366557Y-76522861D01*
X66460721Y-76703129D01*
X66589246Y-76860753D01*
X66746870Y-76989278D01*
X66927138Y-77083442D01*
X67122671Y-77139390D01*
X67122674Y-77139391D01*
X67241999Y-77149999D01*
X67242002Y-77150000D01*
X68450000Y-77150000D01*
X68950000Y-77150000D01*
X70157998Y-77150000D01*
X70158000Y-77149999D01*
X70277325Y-77139391D01*
X70277328Y-77139390D01*
X70472861Y-77083442D01*
X70653129Y-76989278D01*
X70810753Y-76860753D01*
X70939278Y-76703129D01*
X71033442Y-76522861D01*
X71089390Y-76327328D01*
X71089391Y-76327325D01*
X71099999Y-76208000D01*
X71100000Y-76207998D01*
X71100000Y-75900000D01*
X68950000Y-75900000D01*
X68950000Y-77150000D01*
X68450000Y-77150000D01*
X68450000Y-75900000D01*
X66300000Y-75900000D01*
X66300000Y-76208000D01*
X65163250Y-76208000D01*
X65162031Y-76203804D01*
X65079721Y-76064625D01*
X65079714Y-76064616D01*
X64965383Y-75950285D01*
X64965374Y-75950278D01*
X64826195Y-75867968D01*
X64826190Y-75867966D01*
X64670918Y-75822855D01*
X64670912Y-75822854D01*
X64650000Y-75821209D01*
X64650000Y-76350000D01*
X64150000Y-76350000D01*
X64150000Y-75821210D01*
X64149999Y-75821209D01*
X64129087Y-75822854D01*
X64129081Y-75822855D01*
X63973809Y-75867966D01*
X63973804Y-75867968D01*
X63834625Y-75950278D01*
X63834616Y-75950285D01*
X63720285Y-76064616D01*
X63720278Y-76064625D01*
X63637969Y-76203803D01*
X63592854Y-76359089D01*
X63592854Y-76359092D01*
X63590000Y-76395355D01*
X63590000Y-76476000D01*
X63570315Y-76543039D01*
X63517511Y-76588794D01*
X63466000Y-76600000D01*
X62490000Y-76600000D01*
X62490000Y-78286000D01*
X62470315Y-78353039D01*
X62417511Y-78398794D01*
X62366000Y-78410000D01*
X50624500Y-78410000D01*
X50557461Y-78390315D01*
X50511706Y-78337511D01*
X50500500Y-78286000D01*
X50500500Y-76249999D01*
X51834950Y-76249999D01*
X51834950Y-76250000D01*
X52854670Y-76250000D01*
X52834925Y-76269745D01*
X52785556Y-76355255D01*
X52760000Y-76450630D01*
X52760000Y-76549370D01*
X52785556Y-76644745D01*
X52834925Y-76730255D01*
X52854670Y-76750000D01*
X51834950Y-76750000D01*
X51838932Y-76775144D01*
X51896082Y-76951037D01*
X51896084Y-76951043D01*
X51980052Y-77115837D01*
X52088754Y-77265454D01*
X52088758Y-77265459D01*
X52219540Y-77396241D01*
X52219545Y-77396245D01*
X52369162Y-77504947D01*
X52533956Y-77588915D01*
X52533959Y-77588916D01*
X52709852Y-77646066D01*
X52892527Y-77675000D01*
X53310000Y-77675000D01*
X53310000Y-76875000D01*
X53810000Y-76875000D01*
X53810000Y-77675000D01*
X54227473Y-77675000D01*
X54410147Y-77646066D01*
X54586040Y-77588916D01*
X54586043Y-77588915D01*
X54750837Y-77504947D01*
X54900454Y-77396245D01*
X54900459Y-77396241D01*
X55031241Y-77265459D01*
X55031245Y-77265454D01*
X55139947Y-77115837D01*
X55223915Y-76951043D01*
X55223917Y-76951037D01*
X55281067Y-76775144D01*
X55285049Y-76750000D01*
X54265330Y-76750000D01*
X54285075Y-76730255D01*
X54334444Y-76644745D01*
X54360000Y-76549370D01*
X54360000Y-76450630D01*
X54334444Y-76355255D01*
X54285075Y-76269745D01*
X54265330Y-76250000D01*
X55285050Y-76250000D01*
X55285049Y-76249999D01*
X57334950Y-76249999D01*
X57334950Y-76250000D01*
X58404670Y-76250000D01*
X58384925Y-76269745D01*
X58335556Y-76355255D01*
X58310000Y-76450630D01*
X58310000Y-76549370D01*
X58335556Y-76644745D01*
X58384925Y-76730255D01*
X58404670Y-76750000D01*
X57334950Y-76750000D01*
X57338932Y-76775144D01*
X57396082Y-76951037D01*
X57396084Y-76951043D01*
X57480052Y-77115837D01*
X57588754Y-77265454D01*
X57588758Y-77265459D01*
X57719540Y-77396241D01*
X57719545Y-77396245D01*
X57869162Y-77504947D01*
X58033956Y-77588915D01*
X58033959Y-77588916D01*
X58209852Y-77646066D01*
X58392527Y-77675000D01*
X59310000Y-77675000D01*
X59310000Y-76875000D01*
X59810000Y-76875000D01*
X59810000Y-77675000D01*
X60727473Y-77675000D01*
X60910147Y-77646066D01*
X61086040Y-77588916D01*
X61086043Y-77588915D01*
X61250837Y-77504947D01*
X61400454Y-77396245D01*
X61400459Y-77396241D01*
X61531241Y-77265459D01*
X61531245Y-77265454D01*
X61639947Y-77115837D01*
X61723915Y-76951043D01*
X61723917Y-76951037D01*
X61781067Y-76775144D01*
X61785049Y-76750000D01*
X60715330Y-76750000D01*
X60735075Y-76730255D01*
X60784444Y-76644745D01*
X60810000Y-76549370D01*
X60810000Y-76450630D01*
X60784444Y-76355255D01*
X60735075Y-76269745D01*
X60715330Y-76250000D01*
X61785050Y-76250000D01*
X61785049Y-76249999D01*
X61781067Y-76224855D01*
X61723917Y-76048962D01*
X61723915Y-76048956D01*
X61639947Y-75884162D01*
X61531245Y-75734545D01*
X61531241Y-75734540D01*
X61400459Y-75603758D01*
X61400454Y-75603754D01*
X61250837Y-75495052D01*
X61086043Y-75411084D01*
X61086040Y-75411083D01*
X60910147Y-75353933D01*
X60727473Y-75325000D01*
X59810000Y-75325000D01*
X59810000Y-76125000D01*
X59310000Y-76125000D01*
X59310000Y-75325000D01*
X58392527Y-75325000D01*
X58209852Y-75353933D01*
X58033959Y-75411083D01*
X58033956Y-75411084D01*
X57869162Y-75495052D01*
X57719545Y-75603754D01*
X57719540Y-75603758D01*
X57588758Y-75734540D01*
X57588754Y-75734545D01*
X57480052Y-75884162D01*
X57396084Y-76048956D01*
X57396082Y-76048962D01*
X57338932Y-76224855D01*
X57334950Y-76249999D01*
X55285049Y-76249999D01*
X55281067Y-76224855D01*
X55223917Y-76048962D01*
X55223915Y-76048956D01*
X55139947Y-75884162D01*
X55031245Y-75734545D01*
X55031241Y-75734540D01*
X54900459Y-75603758D01*
X54900454Y-75603754D01*
X54750837Y-75495052D01*
X54586043Y-75411084D01*
X54586040Y-75411083D01*
X54410147Y-75353933D01*
X54227473Y-75325000D01*
X53810000Y-75325000D01*
X53810000Y-76125000D01*
X53310000Y-76125000D01*
X53310000Y-75325000D01*
X52892527Y-75325000D01*
X52709852Y-75353933D01*
X52533959Y-75411083D01*
X52533956Y-75411084D01*
X52369162Y-75495052D01*
X52219545Y-75603754D01*
X52219540Y-75603758D01*
X52088758Y-75734540D01*
X52088754Y-75734545D01*
X51980052Y-75884162D01*
X51896084Y-76048956D01*
X51896082Y-76048962D01*
X51838932Y-76224855D01*
X51834950Y-76249999D01*
X50500500Y-76249999D01*
X50500500Y-74534000D01*
X50520185Y-74466961D01*
X50572989Y-74421206D01*
X50624500Y-74410000D01*
X58132599Y-74410000D01*
X58145854Y-74410711D01*
X58191327Y-74415600D01*
X60928672Y-74415599D01*
X60974153Y-74410709D01*
X60987405Y-74410000D01*
X65089914Y-74410000D01*
X65090000Y-74410000D01*
X66354635Y-74408245D01*
X66421699Y-74427837D01*
X66467527Y-74480577D01*
X66477566Y-74549722D01*
X66462124Y-74590505D01*
X66463634Y-74591294D01*
X66366557Y-74777138D01*
X66310609Y-74972671D01*
X66310608Y-74972674D01*
X66300000Y-75091999D01*
X66300000Y-75400000D01*
X71100000Y-75400000D01*
X71100000Y-75092002D01*
X71099999Y-75091999D01*
X71089391Y-74972674D01*
X71089390Y-74972671D01*
X71033442Y-74777138D01*
X70939280Y-74596872D01*
X70937378Y-74593987D01*
X70936818Y-74592160D01*
X70936366Y-74591294D01*
X70936527Y-74591209D01*
X70916919Y-74527179D01*
X70935827Y-74459917D01*
X70988098Y-74413554D01*
X71040732Y-74401746D01*
X79385828Y-74390172D01*
X79452895Y-74409764D01*
G37*
G04 #@! TD.AperFunction*
M02*
