G04 #@! TF.GenerationSoftware,KiCad,Pcbnew,8.0.4*
G04 #@! TF.CreationDate,2024-09-01T18:21:08-07:00*
G04 #@! TF.ProjectId,HDMI Breakout,48444d49-2042-4726-9561-6b6f75742e6b,rev?*
G04 #@! TF.SameCoordinates,Original*
G04 #@! TF.FileFunction,Paste,Top*
G04 #@! TF.FilePolarity,Positive*
%FSLAX46Y46*%
G04 Gerber Fmt 4.6, Leading zero omitted, Abs format (unit mm)*
G04 Created by KiCad (PCBNEW 8.0.4) date 2024-09-01 18:21:08*
%MOMM*%
%LPD*%
G01*
G04 APERTURE LIST*
G04 Aperture macros list*
%AMRoundRect*
0 Rectangle with rounded corners*
0 $1 Rounding radius*
0 $2 $3 $4 $5 $6 $7 $8 $9 X,Y pos of 4 corners*
0 Add a 4 corners polygon primitive as box body*
4,1,4,$2,$3,$4,$5,$6,$7,$8,$9,$2,$3,0*
0 Add four circle primitives for the rounded corners*
1,1,$1+$1,$2,$3*
1,1,$1+$1,$4,$5*
1,1,$1+$1,$6,$7*
1,1,$1+$1,$8,$9*
0 Add four rect primitives between the rounded corners*
20,1,$1+$1,$2,$3,$4,$5,0*
20,1,$1+$1,$4,$5,$6,$7,0*
20,1,$1+$1,$6,$7,$8,$9,0*
20,1,$1+$1,$8,$9,$2,$3,0*%
G04 Aperture macros list end*
%ADD10C,0.000000*%
%ADD11RoundRect,0.135000X-0.185000X0.135000X-0.185000X-0.135000X0.185000X-0.135000X0.185000X0.135000X0*%
%ADD12RoundRect,0.218750X0.256250X-0.218750X0.256250X0.218750X-0.256250X0.218750X-0.256250X-0.218750X0*%
%ADD13R,0.599999X0.240000*%
%ADD14R,0.240000X0.599999*%
%ADD15R,2.641600X0.330200*%
%ADD16R,2.300000X2.400000*%
%ADD17RoundRect,0.150000X0.500000X-0.150000X0.500000X0.150000X-0.500000X0.150000X-0.500000X-0.150000X0*%
%ADD18RoundRect,0.075000X0.575000X-0.075000X0.575000X0.075000X-0.575000X0.075000X-0.575000X-0.075000X0*%
%ADD19RoundRect,0.150000X-0.500000X0.150000X-0.500000X-0.150000X0.500000X-0.150000X0.500000X0.150000X0*%
%ADD20RoundRect,0.075000X-0.575000X0.075000X-0.575000X-0.075000X0.575000X-0.075000X0.575000X0.075000X0*%
%ADD21RoundRect,0.140000X0.170000X-0.140000X0.170000X0.140000X-0.170000X0.140000X-0.170000X-0.140000X0*%
%ADD22R,1.500000X0.900000*%
%ADD23R,0.800000X0.800000*%
%ADD24RoundRect,0.140000X-0.170000X0.140000X-0.170000X-0.140000X0.170000X-0.140000X0.170000X0.140000X0*%
%ADD25RoundRect,0.135000X-0.135000X-0.185000X0.135000X-0.185000X0.135000X0.185000X-0.135000X0.185000X0*%
%ADD26RoundRect,0.140000X-0.140000X-0.170000X0.140000X-0.170000X0.140000X0.170000X-0.140000X0.170000X0*%
%ADD27RoundRect,0.135000X0.135000X0.185000X-0.135000X0.185000X-0.135000X-0.185000X0.135000X-0.185000X0*%
%ADD28RoundRect,0.140000X0.140000X0.170000X-0.140000X0.170000X-0.140000X-0.170000X0.140000X-0.170000X0*%
%ADD29RoundRect,0.135000X0.185000X-0.135000X0.185000X0.135000X-0.185000X0.135000X-0.185000X-0.135000X0*%
%ADD30RoundRect,0.100000X-0.225000X-0.100000X0.225000X-0.100000X0.225000X0.100000X-0.225000X0.100000X0*%
%ADD31RoundRect,0.225000X-0.225000X-0.375000X0.225000X-0.375000X0.225000X0.375000X-0.225000X0.375000X0*%
%ADD32RoundRect,0.375000X-0.625000X-0.375000X0.625000X-0.375000X0.625000X0.375000X-0.625000X0.375000X0*%
%ADD33RoundRect,0.500000X-0.500000X-1.400000X0.500000X-1.400000X0.500000X1.400000X-0.500000X1.400000X0*%
%ADD34RoundRect,0.150000X0.150000X-0.587500X0.150000X0.587500X-0.150000X0.587500X-0.150000X-0.587500X0*%
%ADD35RoundRect,0.375000X0.375000X-0.625000X0.375000X0.625000X-0.375000X0.625000X-0.375000X-0.625000X0*%
%ADD36RoundRect,0.500000X1.400000X-0.500000X1.400000X0.500000X-1.400000X0.500000X-1.400000X-0.500000X0*%
%ADD37RoundRect,0.150000X-0.587500X-0.150000X0.587500X-0.150000X0.587500X0.150000X-0.587500X0.150000X0*%
%ADD38RoundRect,0.150000X-0.150000X0.587500X-0.150000X-0.587500X0.150000X-0.587500X0.150000X0.587500X0*%
%ADD39RoundRect,0.225000X-0.225000X-0.225000X0.225000X-0.225000X0.225000X0.225000X-0.225000X0.225000X0*%
%ADD40RoundRect,0.062500X-0.337500X-0.062500X0.337500X-0.062500X0.337500X0.062500X-0.337500X0.062500X0*%
%ADD41RoundRect,0.062500X-0.062500X-0.337500X0.062500X-0.337500X0.062500X0.337500X-0.062500X0.337500X0*%
%ADD42RoundRect,0.225000X0.225000X0.375000X-0.225000X0.375000X-0.225000X-0.375000X0.225000X-0.375000X0*%
G04 APERTURE END LIST*
D10*
G36*
X84172622Y-67006010D02*
G01*
X84182497Y-67009007D01*
X84191601Y-67013871D01*
X84199579Y-67020419D01*
X84206127Y-67028398D01*
X84210991Y-67037501D01*
X84213988Y-67047376D01*
X84214999Y-67057648D01*
X84214999Y-68122350D01*
X84213988Y-68132622D01*
X84210991Y-68142497D01*
X84206127Y-68151601D01*
X84199579Y-68159579D01*
X84191601Y-68166127D01*
X84182497Y-68170991D01*
X84172622Y-68173988D01*
X84162350Y-68174999D01*
X83097648Y-68174999D01*
X83087376Y-68173988D01*
X83077501Y-68170991D01*
X83068398Y-68166127D01*
X83060419Y-68159579D01*
X83053871Y-68151601D01*
X83049007Y-68142497D01*
X83046010Y-68132622D01*
X83044999Y-68122350D01*
X83044999Y-67057648D01*
X83046010Y-67047376D01*
X83049007Y-67037501D01*
X83053871Y-67028398D01*
X83060419Y-67020419D01*
X83068398Y-67013871D01*
X83077501Y-67009007D01*
X83087376Y-67006010D01*
X83097648Y-67004999D01*
X84162350Y-67004999D01*
X84172622Y-67006010D01*
G37*
G36*
X84172622Y-68376010D02*
G01*
X84182497Y-68379007D01*
X84191601Y-68383871D01*
X84199579Y-68390419D01*
X84206127Y-68398397D01*
X84210991Y-68407501D01*
X84213988Y-68417376D01*
X84214999Y-68427648D01*
X84214999Y-69492350D01*
X84213988Y-69502622D01*
X84210991Y-69512497D01*
X84206127Y-69521601D01*
X84199579Y-69529579D01*
X84191601Y-69536127D01*
X84182497Y-69540991D01*
X84172622Y-69543988D01*
X84162350Y-69544999D01*
X83097648Y-69544999D01*
X83087376Y-69543988D01*
X83077501Y-69540991D01*
X83068398Y-69536127D01*
X83060419Y-69529579D01*
X83053871Y-69521601D01*
X83049007Y-69512497D01*
X83046010Y-69502622D01*
X83044999Y-69492350D01*
X83044999Y-68427648D01*
X83046010Y-68417376D01*
X83049007Y-68407501D01*
X83053871Y-68398397D01*
X83060419Y-68390419D01*
X83068398Y-68383871D01*
X83077501Y-68379007D01*
X83087376Y-68376010D01*
X83097648Y-68374999D01*
X84162350Y-68374999D01*
X84172622Y-68376010D01*
G37*
G36*
X84172622Y-69746010D02*
G01*
X84182497Y-69749007D01*
X84191601Y-69753871D01*
X84199579Y-69760419D01*
X84206127Y-69768397D01*
X84210991Y-69777501D01*
X84213988Y-69787376D01*
X84214999Y-69797648D01*
X84214999Y-70862350D01*
X84213988Y-70872622D01*
X84210991Y-70882497D01*
X84206127Y-70891600D01*
X84199579Y-70899579D01*
X84191601Y-70906127D01*
X84182497Y-70910991D01*
X84172622Y-70913988D01*
X84162350Y-70914999D01*
X83097648Y-70914999D01*
X83087376Y-70913988D01*
X83077501Y-70910991D01*
X83068398Y-70906127D01*
X83060419Y-70899579D01*
X83053871Y-70891600D01*
X83049007Y-70882497D01*
X83046010Y-70872622D01*
X83044999Y-70862350D01*
X83044999Y-69797648D01*
X83046010Y-69787376D01*
X83049007Y-69777501D01*
X83053871Y-69768397D01*
X83060419Y-69760419D01*
X83068398Y-69753871D01*
X83077501Y-69749007D01*
X83087376Y-69746010D01*
X83097648Y-69744999D01*
X84162350Y-69744999D01*
X84172622Y-69746010D01*
G37*
G36*
X85542622Y-67006010D02*
G01*
X85552497Y-67009007D01*
X85561601Y-67013871D01*
X85569579Y-67020419D01*
X85576127Y-67028398D01*
X85580991Y-67037501D01*
X85583988Y-67047376D01*
X85584999Y-67057648D01*
X85584999Y-68122350D01*
X85583988Y-68132622D01*
X85580991Y-68142497D01*
X85576127Y-68151601D01*
X85569579Y-68159579D01*
X85561601Y-68166127D01*
X85552497Y-68170991D01*
X85542622Y-68173988D01*
X85532350Y-68174999D01*
X84467648Y-68174999D01*
X84457376Y-68173988D01*
X84447501Y-68170991D01*
X84438397Y-68166127D01*
X84430419Y-68159579D01*
X84423871Y-68151601D01*
X84419007Y-68142497D01*
X84416010Y-68132622D01*
X84414999Y-68122350D01*
X84414999Y-67057648D01*
X84416010Y-67047376D01*
X84419007Y-67037501D01*
X84423871Y-67028398D01*
X84430419Y-67020419D01*
X84438397Y-67013871D01*
X84447501Y-67009007D01*
X84457376Y-67006010D01*
X84467648Y-67004999D01*
X85532350Y-67004999D01*
X85542622Y-67006010D01*
G37*
G36*
X85542622Y-68376010D02*
G01*
X85552497Y-68379007D01*
X85561601Y-68383871D01*
X85569579Y-68390419D01*
X85576127Y-68398397D01*
X85580991Y-68407501D01*
X85583988Y-68417376D01*
X85584999Y-68427648D01*
X85584999Y-69492350D01*
X85583988Y-69502622D01*
X85580991Y-69512497D01*
X85576127Y-69521601D01*
X85569579Y-69529579D01*
X85561601Y-69536127D01*
X85552497Y-69540991D01*
X85542622Y-69543988D01*
X85532350Y-69544999D01*
X84467648Y-69544999D01*
X84457376Y-69543988D01*
X84447501Y-69540991D01*
X84438397Y-69536127D01*
X84430419Y-69529579D01*
X84423871Y-69521601D01*
X84419007Y-69512497D01*
X84416010Y-69502622D01*
X84414999Y-69492350D01*
X84414999Y-68427648D01*
X84416010Y-68417376D01*
X84419007Y-68407501D01*
X84423871Y-68398397D01*
X84430419Y-68390419D01*
X84438397Y-68383871D01*
X84447501Y-68379007D01*
X84457376Y-68376010D01*
X84467648Y-68374999D01*
X85532350Y-68374999D01*
X85542622Y-68376010D01*
G37*
G36*
X85542622Y-69746010D02*
G01*
X85552497Y-69749007D01*
X85561601Y-69753871D01*
X85569579Y-69760419D01*
X85576127Y-69768397D01*
X85580991Y-69777501D01*
X85583988Y-69787376D01*
X85584999Y-69797648D01*
X85584999Y-70862350D01*
X85583988Y-70872622D01*
X85580991Y-70882497D01*
X85576127Y-70891600D01*
X85569579Y-70899579D01*
X85561601Y-70906127D01*
X85552497Y-70910991D01*
X85542622Y-70913988D01*
X85532350Y-70914999D01*
X84467648Y-70914999D01*
X84457376Y-70913988D01*
X84447501Y-70910991D01*
X84438397Y-70906127D01*
X84430419Y-70899579D01*
X84423871Y-70891600D01*
X84419007Y-70882497D01*
X84416010Y-70872622D01*
X84414999Y-70862350D01*
X84414999Y-69797648D01*
X84416010Y-69787376D01*
X84419007Y-69777501D01*
X84423871Y-69768397D01*
X84430419Y-69760419D01*
X84438397Y-69753871D01*
X84447501Y-69749007D01*
X84457376Y-69746010D01*
X84467648Y-69744999D01*
X85532350Y-69744999D01*
X85542622Y-69746010D01*
G37*
G36*
X86912622Y-67006010D02*
G01*
X86922497Y-67009007D01*
X86931600Y-67013871D01*
X86939579Y-67020419D01*
X86946127Y-67028398D01*
X86950991Y-67037501D01*
X86953988Y-67047376D01*
X86954999Y-67057648D01*
X86954999Y-68122350D01*
X86953988Y-68132622D01*
X86950991Y-68142497D01*
X86946127Y-68151601D01*
X86939579Y-68159579D01*
X86931600Y-68166127D01*
X86922497Y-68170991D01*
X86912622Y-68173988D01*
X86902350Y-68174999D01*
X85837648Y-68174999D01*
X85827376Y-68173988D01*
X85817501Y-68170991D01*
X85808397Y-68166127D01*
X85800419Y-68159579D01*
X85793871Y-68151601D01*
X85789007Y-68142497D01*
X85786010Y-68132622D01*
X85784999Y-68122350D01*
X85784999Y-67057648D01*
X85786010Y-67047376D01*
X85789007Y-67037501D01*
X85793871Y-67028398D01*
X85800419Y-67020419D01*
X85808397Y-67013871D01*
X85817501Y-67009007D01*
X85827376Y-67006010D01*
X85837648Y-67004999D01*
X86902350Y-67004999D01*
X86912622Y-67006010D01*
G37*
G36*
X86912622Y-68376010D02*
G01*
X86922497Y-68379007D01*
X86931600Y-68383871D01*
X86939579Y-68390419D01*
X86946127Y-68398397D01*
X86950991Y-68407501D01*
X86953988Y-68417376D01*
X86954999Y-68427648D01*
X86954999Y-69492350D01*
X86953988Y-69502622D01*
X86950991Y-69512497D01*
X86946127Y-69521601D01*
X86939579Y-69529579D01*
X86931600Y-69536127D01*
X86922497Y-69540991D01*
X86912622Y-69543988D01*
X86902350Y-69544999D01*
X85837648Y-69544999D01*
X85827376Y-69543988D01*
X85817501Y-69540991D01*
X85808397Y-69536127D01*
X85800419Y-69529579D01*
X85793871Y-69521601D01*
X85789007Y-69512497D01*
X85786010Y-69502622D01*
X85784999Y-69492350D01*
X85784999Y-68427648D01*
X85786010Y-68417376D01*
X85789007Y-68407501D01*
X85793871Y-68398397D01*
X85800419Y-68390419D01*
X85808397Y-68383871D01*
X85817501Y-68379007D01*
X85827376Y-68376010D01*
X85837648Y-68374999D01*
X86902350Y-68374999D01*
X86912622Y-68376010D01*
G37*
G36*
X86912622Y-69746010D02*
G01*
X86922497Y-69749007D01*
X86931600Y-69753871D01*
X86939579Y-69760419D01*
X86946127Y-69768397D01*
X86950991Y-69777501D01*
X86953988Y-69787376D01*
X86954999Y-69797648D01*
X86954999Y-70862350D01*
X86953988Y-70872622D01*
X86950991Y-70882497D01*
X86946127Y-70891600D01*
X86939579Y-70899579D01*
X86931600Y-70906127D01*
X86922497Y-70910991D01*
X86912622Y-70913988D01*
X86902350Y-70914999D01*
X85837648Y-70914999D01*
X85827376Y-70913988D01*
X85817501Y-70910991D01*
X85808397Y-70906127D01*
X85800419Y-70899579D01*
X85793871Y-70891600D01*
X85789007Y-70882497D01*
X85786010Y-70872622D01*
X85784999Y-70862350D01*
X85784999Y-69797648D01*
X85786010Y-69787376D01*
X85789007Y-69777501D01*
X85793871Y-69768397D01*
X85800419Y-69760419D01*
X85808397Y-69753871D01*
X85817501Y-69749007D01*
X85827376Y-69746010D01*
X85837648Y-69744999D01*
X86902350Y-69744999D01*
X86912622Y-69746010D01*
G37*
D11*
X109200000Y-114800000D03*
X109200000Y-115820000D03*
X77000000Y-114800000D03*
X77000000Y-115820000D03*
X60900000Y-114800000D03*
X60900000Y-115820000D03*
X93100000Y-114800000D03*
X93100000Y-115820000D03*
D12*
X109200000Y-113200000D03*
X109200000Y-111625000D03*
X77000000Y-113200000D03*
X77000000Y-111625000D03*
X60900000Y-113200000D03*
X60900000Y-111625000D03*
X93100000Y-113200000D03*
X93100000Y-111625000D03*
D13*
X81599998Y-66209999D03*
X81599998Y-66709998D03*
X81599998Y-67210000D03*
X81599998Y-67709999D03*
X81599998Y-68210001D03*
X81599998Y-68709999D03*
X81599998Y-69209999D03*
X81599998Y-69710000D03*
X81599998Y-70209999D03*
X81599998Y-70710001D03*
X81599998Y-71210000D03*
X81599998Y-71709999D03*
D14*
X82249999Y-72360000D03*
X82749998Y-72360000D03*
X83250000Y-72360000D03*
X83749999Y-72360000D03*
X84250001Y-72360000D03*
X84749999Y-72360000D03*
X85249999Y-72360000D03*
X85750000Y-72360000D03*
X86249999Y-72360000D03*
X86750001Y-72360000D03*
X87250000Y-72360000D03*
X87749999Y-72360000D03*
D13*
X88400000Y-71709999D03*
X88400000Y-71210000D03*
X88400000Y-70710001D03*
X88400000Y-70209999D03*
X88400000Y-69710000D03*
X88400000Y-69209999D03*
X88400000Y-68709999D03*
X88400000Y-68210001D03*
X88400000Y-67709999D03*
X88400000Y-67210000D03*
X88400000Y-66709998D03*
X88400000Y-66209999D03*
D14*
X87749999Y-65559998D03*
X87250000Y-65559998D03*
X86750001Y-65559998D03*
X86249999Y-65559998D03*
X85750000Y-65559998D03*
X85249999Y-65559998D03*
X84749999Y-65559998D03*
X84250001Y-65559998D03*
X83749999Y-65559998D03*
X83250000Y-65559998D03*
X82749998Y-65559998D03*
X82249999Y-65559998D03*
D15*
X59560000Y-73750000D03*
X59560000Y-73250000D03*
X59560000Y-72750000D03*
X59560000Y-72250000D03*
X59560000Y-71750000D03*
X59560000Y-71250000D03*
X59560000Y-70750000D03*
X59560000Y-70250000D03*
X59560000Y-69750000D03*
X59560000Y-69250000D03*
X59560000Y-68750001D03*
X59560000Y-68250000D03*
X59560000Y-67750000D03*
X59560000Y-67250000D03*
X59560000Y-66750000D03*
X59560000Y-66250000D03*
X59560000Y-65750000D03*
X59560000Y-65250000D03*
X59560000Y-64750000D03*
X110450000Y-64750000D03*
X110450000Y-65250000D03*
X110450000Y-65750000D03*
X110450000Y-66250000D03*
X110450000Y-66750000D03*
X110450000Y-67250000D03*
X110450000Y-67750000D03*
X110450000Y-68250000D03*
X110450000Y-68750000D03*
X110450000Y-69250000D03*
X110450000Y-69749999D03*
X110450000Y-70250000D03*
X110450000Y-70750000D03*
X110450000Y-71250000D03*
X110450000Y-71750000D03*
X110450000Y-72250000D03*
X110450000Y-72750000D03*
X110450000Y-73250000D03*
X110450000Y-73750000D03*
D16*
X116150000Y-106500000D03*
X101850000Y-106500000D03*
X116150000Y-102000000D03*
X101850000Y-102000000D03*
X68150000Y-106500000D03*
X53850000Y-106500000D03*
X68150000Y-102000000D03*
X53850000Y-102000000D03*
D17*
X112080000Y-92450000D03*
X112080000Y-91650000D03*
D18*
X112080000Y-91000000D03*
X112080000Y-90000000D03*
X112080000Y-88500000D03*
X112080000Y-87500000D03*
D17*
X112080000Y-86850000D03*
X112080000Y-86050000D03*
X112080000Y-86050000D03*
X112080000Y-86850000D03*
D18*
X112080000Y-88000000D03*
X112080000Y-89000000D03*
X112080000Y-89500000D03*
X112080000Y-90500000D03*
D17*
X112080000Y-91650000D03*
X112080000Y-92450000D03*
D19*
X57920000Y-86050000D03*
X57920000Y-86850000D03*
D20*
X57920000Y-87500000D03*
X57920000Y-88500000D03*
X57920000Y-90000000D03*
X57920000Y-91000000D03*
D19*
X57920000Y-91650000D03*
X57920000Y-92450000D03*
X57920000Y-92450000D03*
X57920000Y-91650000D03*
D20*
X57920000Y-90500000D03*
X57920000Y-89500000D03*
X57920000Y-89000000D03*
X57920000Y-88000000D03*
D19*
X57920000Y-86850000D03*
X57920000Y-86050000D03*
D21*
X81930000Y-62834998D03*
X81930000Y-63794998D03*
D11*
X115790000Y-82180000D03*
X115790000Y-83200000D03*
D22*
X93550000Y-100670000D03*
X93550000Y-99400000D03*
X93550000Y-98130000D03*
X93550000Y-96860000D03*
X93550000Y-95590000D03*
X93550000Y-94320000D03*
X93550000Y-93050000D03*
X93550000Y-91780000D03*
X93550000Y-90510000D03*
X93550000Y-89240000D03*
X93550000Y-87970000D03*
X93550000Y-86700000D03*
X93550000Y-85430000D03*
X93550000Y-84160000D03*
X76050000Y-84160000D03*
X76050000Y-85430000D03*
X76050000Y-86700000D03*
X76050000Y-87970000D03*
X76050000Y-89240000D03*
X76050000Y-90510000D03*
X76050000Y-91780000D03*
X76050000Y-93050000D03*
X76050000Y-94320000D03*
X76050000Y-95590000D03*
X76050000Y-96860000D03*
X76050000Y-98130000D03*
X76050000Y-99400000D03*
X76050000Y-100670000D03*
D23*
X87555000Y-96200000D03*
X87555000Y-94950000D03*
X87555000Y-93700000D03*
X86305000Y-96200000D03*
X86305000Y-94950000D03*
X86305000Y-93700000D03*
X85055000Y-96200000D03*
X85055000Y-94950000D03*
X85055000Y-93700000D03*
D24*
X82692000Y-74936499D03*
X82692000Y-73976499D03*
D25*
X71800000Y-89400000D03*
X70780000Y-89400000D03*
D26*
X96840000Y-100460000D03*
X95880000Y-100460000D03*
D25*
X72930000Y-95580000D03*
X73950000Y-95580000D03*
D24*
X87800000Y-54840000D03*
X87800000Y-55800000D03*
D27*
X62407660Y-91670000D03*
X63427660Y-91670000D03*
D21*
X88788000Y-62831500D03*
X88788000Y-63791500D03*
D28*
X88860000Y-58300000D03*
X87900000Y-58300000D03*
D21*
X87772000Y-62831500D03*
X87772000Y-63791500D03*
D24*
X60240000Y-89020000D03*
X60240000Y-89980000D03*
D29*
X86248000Y-75040000D03*
X86248000Y-74020000D03*
D24*
X88280000Y-74048000D03*
X88280000Y-75008000D03*
D30*
X72200000Y-86700000D03*
X72200000Y-87350000D03*
X72200000Y-88000000D03*
X70300000Y-88000000D03*
X70300000Y-87350000D03*
X70300000Y-86700000D03*
D26*
X103150000Y-97120000D03*
X104110000Y-97120000D03*
D31*
X105830000Y-94810000D03*
X109130000Y-94810000D03*
D26*
X96840000Y-99450000D03*
X95880000Y-99450000D03*
X106410000Y-92880000D03*
X107370000Y-92880000D03*
D25*
X61427660Y-92770000D03*
X60407660Y-92770000D03*
D21*
X74480000Y-80710000D03*
X74480000Y-79750000D03*
D26*
X64810000Y-96400000D03*
X65770000Y-96400000D03*
D32*
X90800000Y-54800000D03*
X90800000Y-57100000D03*
X90800000Y-59400000D03*
D33*
X97100000Y-57100000D03*
D21*
X86020000Y-62200000D03*
X86020000Y-63160000D03*
D34*
X108050000Y-85425000D03*
X109000000Y-87300000D03*
X107100000Y-87300000D03*
D25*
X101830000Y-98210000D03*
X100810000Y-98210000D03*
D11*
X73850000Y-87320000D03*
X73850000Y-86300000D03*
D25*
X61437660Y-91670000D03*
X60417660Y-91670000D03*
D35*
X66400000Y-81950000D03*
X68700000Y-81950000D03*
X71000000Y-81950000D03*
D36*
X68700000Y-75650000D03*
D26*
X70665000Y-101970000D03*
X71625000Y-101970000D03*
D21*
X64400000Y-77560000D03*
X64400000Y-76600000D03*
D34*
X54460000Y-80832500D03*
X55410000Y-82707500D03*
X53510000Y-82707500D03*
D27*
X56900000Y-83200000D03*
X57920000Y-83200000D03*
D28*
X88880000Y-59400000D03*
X87920000Y-59400000D03*
D24*
X87264000Y-74048000D03*
X87264000Y-75008000D03*
D28*
X79192000Y-72846999D03*
X80152000Y-72846999D03*
D21*
X84970000Y-62839999D03*
X84970000Y-63799999D03*
D25*
X101830000Y-99270000D03*
X100810000Y-99270000D03*
D21*
X80914000Y-62834998D03*
X80914000Y-63794998D03*
X64400000Y-80200000D03*
X64400000Y-79240000D03*
D37*
X113777500Y-82120000D03*
X111902500Y-83070000D03*
X111902500Y-81170000D03*
D24*
X88900000Y-54840000D03*
X88900000Y-55800000D03*
D29*
X115050000Y-95160000D03*
X115050000Y-96180000D03*
D27*
X64407660Y-91670000D03*
X65427660Y-91670000D03*
D26*
X100820000Y-97140000D03*
X101780000Y-97140000D03*
D21*
X73380000Y-80670000D03*
X73380000Y-79710000D03*
D26*
X62467660Y-92770000D03*
X63427660Y-92770000D03*
D21*
X83962000Y-62834998D03*
X83962000Y-63794998D03*
X64400000Y-82760000D03*
X64400000Y-81800000D03*
D38*
X52690000Y-97950000D03*
X51740000Y-96075000D03*
X53640000Y-96075000D03*
D39*
X63280000Y-86430000D03*
X63280000Y-87550000D03*
X63280000Y-88670000D03*
X64400000Y-86430000D03*
X64400000Y-87550000D03*
X64400000Y-88670000D03*
X65520000Y-86430000D03*
X65520000Y-87550000D03*
X65520000Y-88670000D03*
D40*
X61950000Y-86050000D03*
X61950000Y-86550000D03*
X61950000Y-87050000D03*
X61950000Y-87550000D03*
X61950000Y-88050000D03*
X61950000Y-88550000D03*
X61950000Y-89050000D03*
D41*
X62900000Y-90000000D03*
X63400000Y-90000000D03*
X63900000Y-90000000D03*
X64400000Y-90000000D03*
X64900000Y-90000000D03*
X65400000Y-90000000D03*
X65900000Y-90000000D03*
D40*
X66850000Y-89050000D03*
X66850000Y-88550000D03*
X66850000Y-88050000D03*
X66850000Y-87550000D03*
X66850000Y-87050000D03*
X66850000Y-86550000D03*
X66850000Y-86050000D03*
D41*
X65900000Y-85100000D03*
X65400000Y-85100000D03*
X64900000Y-85100000D03*
X64400000Y-85100000D03*
X63900000Y-85100000D03*
X63400000Y-85100000D03*
X62900000Y-85100000D03*
D29*
X57190000Y-95450000D03*
X57190000Y-96470000D03*
D42*
X63250000Y-96410000D03*
X59950000Y-96410000D03*
M02*
